<svg width="24" height="24" viewBox="0 0 24 24" fill="none" xmlns="http://www.w3.org/2000/svg">
<path d="M1.75101 6.368L22.292 2.002" stroke="black" stroke-width="1.5" stroke-linecap="round" stroke-linejoin="round"/>
<path fill-rule="evenodd" clip-rule="evenodd" d="M13.6 0.782999L9.19999 1.718C8.80975 1.80008 8.46826 2.03417 8.25097 2.36855C8.03368 2.70293 7.95848 3.11006 8.04199 3.5L8.35399 4.968L15.69 3.408L15.378 1.941C15.2959 1.55161 15.0624 1.21082 14.7289 0.993633C14.3954 0.776449 13.9893 0.700678 13.6 0.782999Z" stroke="black" stroke-width="1.5" stroke-linecap="round" stroke-linejoin="round"/>
<path d="M10.751 18V10.5" stroke="black" stroke-width="1.5" stroke-linecap="round" stroke-linejoin="round"/>
<path d="M15.251 18V10.5" stroke="black" stroke-width="1.5" stroke-linecap="round" stroke-linejoin="round"/>
<path d="M18.626 6H21.251L19.866 21.874C19.8013 22.6536 19.1483 23.2527 18.366 23.25H7.63101C6.85099 23.2495 6.20149 22.6513 6.13701 21.874L5.10001 9.377" stroke="black" stroke-width="1.5" stroke-linecap="round" stroke-linejoin="round"/>
</svg>
