<svg width="25" height="25" viewBox="0 0 25 25" fill="none" xmlns="http://www.w3.org/2000/svg">
<path d="M19.968 4.067L19.3986 4.5551C19.4111 4.5697 19.4241 4.58381 19.4377 4.59741L19.968 4.067ZM19.933 4.031L20.4633 3.50066L20.4598 3.49712L19.933 4.031ZM4.024 19.924L3.48957 20.4502L3.49367 20.4543L4.024 19.924ZM4.076 19.975L4.60587 19.4442C4.59672 19.4351 4.58733 19.4262 4.57772 19.4175L4.076 19.975ZM15.8 5.546L16.3304 6.07631C16.494 5.91264 16.5729 5.68257 16.5442 5.4529C16.5155 5.22324 16.3823 5.0197 16.1834 4.90139L15.8 5.546ZM5.547 15.8L4.90182 16.1824C5.01994 16.3817 5.22353 16.5152 5.45338 16.5441C5.68324 16.5731 5.91355 16.4941 6.07736 16.3303L5.547 15.8ZM8.2 18.453L7.6697 17.9226C7.50602 18.0863 7.42708 18.3164 7.45579 18.5461C7.48451 18.7757 7.61767 18.9793 7.8166 19.0976L8.2 18.453ZM18.454 8.2L19.0994 7.81789C18.9813 7.6185 18.7777 7.48488 18.5478 7.45589C18.3179 7.42691 18.0875 7.50581 17.9237 7.66965L18.454 8.2ZM20.5374 3.57891C20.5758 3.62364 20.6013 3.66452 20.6165 3.69128C20.6238 3.70411 20.629 3.71432 20.6313 3.71893C20.6325 3.72127 20.6334 3.72301 20.6335 3.72312C20.634 3.72424 20.6328 3.72171 20.6322 3.72059C20.6254 3.70708 20.5791 3.60943 20.4843 3.51467L19.4237 4.57533C19.4023 4.55392 19.3833 4.53229 19.3666 4.51104C19.35 4.48988 19.3364 4.47007 19.3253 4.45272C19.3144 4.43556 19.3061 4.42088 19.3005 4.4105C19.2951 4.40056 19.2913 4.39286 19.2906 4.39141C19.2905 4.39123 19.2897 4.38965 19.2907 4.3917C19.2912 4.39275 19.2925 4.39542 19.2942 4.39869C19.2975 4.40517 19.3037 4.41724 19.3121 4.43191C19.3294 4.46237 19.3572 4.50687 19.3986 4.5551L20.5374 3.57891ZM20.4843 3.51467C20.4612 3.49153 20.4379 3.4712 20.4153 3.45339C20.3928 3.43566 20.3717 3.42108 20.3534 3.4093C20.3352 3.39765 20.3195 3.38867 20.3084 3.38254C20.2979 3.37675 20.2893 3.37229 20.2877 3.37147C20.2857 3.37045 20.2873 3.37126 20.2877 3.37148C20.2888 3.37204 20.2915 3.37344 20.295 3.37531C20.3018 3.37897 20.3147 3.38603 20.3306 3.3958C20.3635 3.41603 20.4123 3.44968 20.4633 3.50067L19.4027 4.56133C19.4567 4.61533 19.5088 4.65135 19.5451 4.67368C19.5627 4.68449 19.5773 4.69253 19.5859 4.69713C19.5903 4.69948 19.5938 4.70135 19.5958 4.70237C19.5971 4.70306 19.5996 4.70433 19.5986 4.70379C19.5984 4.70373 19.5967 4.70281 19.5943 4.70154C19.5917 4.70021 19.5879 4.69818 19.5833 4.69562C19.574 4.6905 19.5602 4.68259 19.5439 4.67211C19.5273 4.6615 19.5081 4.6482 19.4873 4.63189C19.4665 4.61549 19.4451 4.59673 19.4237 4.57533L20.4843 3.51467ZM20.4598 3.49712C15.7685 -1.13147 8.22153 -1.108 3.55916 3.54969L4.61929 4.61088C8.69857 0.5357 15.3017 0.515161 19.4062 4.56489L20.4598 3.49712ZM3.55916 3.54969C-1.10321 8.20737 -1.13428 15.7543 3.48959 20.4502L4.55841 19.3978C0.512819 15.2892 0.540002 8.68606 4.61929 4.61088L3.55916 3.54969ZM3.49367 20.4543C3.44698 20.4076 3.4163 20.364 3.39893 20.3369C3.39022 20.3234 3.38383 20.3124 3.38035 20.3063C3.37724 20.3008 3.37479 20.2963 3.37608 20.2986C3.37629 20.299 3.38024 20.3063 3.3849 20.3145C3.38992 20.3233 3.3979 20.337 3.4083 20.3532C3.42905 20.3855 3.46348 20.4341 3.51467 20.4853L4.57533 19.4247C4.62202 19.4714 4.6527 19.515 4.67007 19.5421C4.67878 19.5556 4.68517 19.5666 4.68865 19.5727C4.69175 19.5782 4.69421 19.5827 4.69292 19.5804C4.69271 19.58 4.68875 19.5727 4.6841 19.5645C4.67907 19.5557 4.67109 19.542 4.6607 19.5258C4.63995 19.4935 4.60552 19.4449 4.55433 19.3937L3.49367 20.4543ZM3.51467 20.4853C3.56674 20.5374 3.61719 20.5732 3.65438 20.5964C3.67256 20.6078 3.68809 20.6165 3.69862 20.6222C3.70858 20.6276 3.71699 20.6319 3.71851 20.6327C3.72226 20.6346 3.71767 20.6323 3.71311 20.6299C3.70749 20.6269 3.697 20.6212 3.68399 20.6135C3.65723 20.5975 3.61743 20.5713 3.57428 20.5325L4.57772 19.4175C4.52957 19.3742 4.48452 19.3444 4.45242 19.3252C4.43673 19.3159 4.42355 19.3087 4.41523 19.3043C4.41102 19.3021 4.40753 19.3003 4.40536 19.2992C4.40427 19.2986 4.40333 19.2981 4.40276 19.2978C4.40248 19.2977 4.40221 19.2976 4.40205 19.2975C4.40187 19.2974 4.4018 19.2974 4.40174 19.2973C4.40142 19.2972 4.4027 19.2978 4.4045 19.2987C4.40641 19.2997 4.40962 19.3014 4.41363 19.3036C4.42153 19.3079 4.43445 19.3151 4.45009 19.3249C4.48218 19.345 4.52776 19.3771 4.57533 19.4247L3.51467 20.4853ZM3.54613 20.5058C8.23255 25.1841 15.8237 25.1789 20.5037 20.4942L19.4425 19.434C15.3478 23.5328 8.70614 23.5374 4.60587 19.4442L3.54613 20.5058ZM20.5037 20.4942C25.1837 15.8095 25.1812 8.21831 20.4983 3.5366L19.4377 4.59741C23.535 8.69356 23.5371 15.3353 19.4425 19.434L20.5037 20.4942ZM11.9995 5.25C13.2024 5.25083 14.3828 5.57575 15.4166 6.19062L16.1834 4.90139C14.9179 4.14875 13.4729 3.75101 12.0005 3.75L11.9995 5.25ZM15.2696 5.0157L5.01664 15.2697L6.07736 16.3303L16.3304 6.07631L15.2696 5.0157ZM6.19218 15.4176C4.95722 13.3341 4.93628 10.7478 6.13736 8.64461L4.83479 7.90076C3.36617 10.4725 3.39177 13.6348 4.90182 16.1824L6.19218 15.4176ZM6.13736 8.64461C7.33844 6.54137 9.57648 5.24516 11.9985 5.25L12.0015 3.75C9.03998 3.74408 6.30341 5.32902 4.83479 7.90076L6.13736 8.64461ZM12.0008 18.75C10.7978 18.7486 9.61736 18.4234 8.5834 17.8084L7.8166 19.0976C9.08204 19.8503 10.5268 20.2483 11.9992 20.25L12.0008 18.75ZM8.7303 18.9834L18.9843 8.73036L17.9237 7.66965L7.6697 17.9226L8.7303 18.9834ZM17.8086 8.58212C19.0425 10.666 19.0627 13.2518 17.8616 15.3548L19.1642 16.0987C20.6327 13.5275 20.608 10.3658 19.0994 7.81789L17.8086 8.58212ZM17.8616 15.3548C16.6605 17.4577 14.423 18.754 12.0012 18.75L11.9988 20.25C14.9598 20.2549 17.6956 18.6699 19.1642 16.0987L17.8616 15.3548Z" fill="black"/>
</svg>
