<svg width="24" height="24" viewBox="0 0 24 24" fill="none" xmlns="http://www.w3.org/2000/svg">
<path d="M0.75 14.25V23.25" stroke="currentColor" stroke-width="1.5" stroke-linecap="round" stroke-linejoin="round"/>
<path d="M0.75 21.75H17.25C17.25 20.0932 15.9069 18.75 14.25 18.75H10.5C10.5 17.0932 9.15685 15.75 7.5 15.75H0.75" stroke="currentColor" stroke-width="1.5" stroke-linecap="round" stroke-linejoin="round"/>
<path d="M6.75 18.75H10.5" stroke="currentColor" stroke-width="1.5" stroke-linecap="round" stroke-linejoin="round"/>
<path d="M20.24 18.008C22.4611 16.3535 23.5853 13.6066 23.1616 10.8696C22.7378 8.13266 20.8354 5.85434 18.218 4.94902L20.071 1.77902C20.1954 1.56691 20.1954 1.30413 20.071 1.09202C19.942 0.87809 19.7098 0.748081 19.46 0.750021H12.04C11.7909 0.748788 11.5596 0.878706 11.431 1.09202C11.3066 1.30413 11.3066 1.56691 11.431 1.77902L13.284 4.94902C10.2766 5.98871 8.25665 8.81795 8.25 12" stroke="currentColor" stroke-width="1.5" stroke-linecap="round" stroke-linejoin="round"/>
<path d="M13.7 13.844C14.1395 14.4213 14.833 14.7479 15.558 14.719C16.697 14.719 17.621 14.026 17.621 13.172C17.621 12.318 16.697 11.626 15.558 11.626C14.419 11.626 13.5 10.933 13.5 10.078C13.5 9.22303 14.424 8.53103 15.562 8.53103C16.2871 8.50164 16.9808 8.82834 17.42 9.40603" stroke="currentColor" stroke-width="1.5" stroke-linecap="round" stroke-linejoin="round"/>
<path d="M15.562 14.719V15.75" stroke="currentColor" stroke-width="1.5" stroke-linecap="round" stroke-linejoin="round"/>
<path d="M15.562 7.50003V8.53103" stroke="currentColor" stroke-width="1.5" stroke-linecap="round" stroke-linejoin="round"/>
</svg>
