<svg width="24" height="24" viewBox="0 0 24 24" fill="none" xmlns="http://www.w3.org/2000/svg">
<path d="M18.7501 3.75H16.7171C16.0745 3.75045 15.5224 4.20639 15.4004 4.83734C15.2785 5.46828 15.6209 6.09712 16.2171 6.337L18.2811 7.163C18.8773 7.40288 19.2197 8.03172 19.0978 8.66266C18.9759 9.29361 18.4237 9.74955 17.7811 9.75H17.2501" stroke="currentColor" stroke-width="1.5" stroke-linecap="round" stroke-linejoin="round"/>
<path d="M17.2501 3.75V3" stroke="currentColor" stroke-width="1.5" stroke-linecap="round" stroke-linejoin="round"/>
<path d="M18.0301 12.7C21.1133 12.2943 23.3756 9.60018 23.2419 6.49327C23.1082 3.38636 20.6228 0.896534 17.5161 0.757282C14.4094 0.61803 11.7113 2.87551 11.3001 5.958" stroke="currentColor" stroke-width="1.5" stroke-linecap="round" stroke-linejoin="round"/>
<path d="M15.7501 15.75C15.7501 11.6079 12.3923 8.25 8.25011 8.25" stroke="currentColor" stroke-width="1.5" stroke-linecap="round" stroke-linejoin="round"/>
<path d="M2.25012 11.25C0.593738 13.4808 0.306411 16.4446 1.50343 18.9521C2.70045 21.4595 5.18564 23.0998 7.9618 23.2146C10.738 23.3294 13.3501 21.9 14.7501 19.5" stroke="currentColor" stroke-width="1.5" stroke-linecap="round" stroke-linejoin="round"/>
<path fill-rule="evenodd" clip-rule="evenodd" d="M6.75011 18.75V12.75H9.00011C9.82854 12.75 10.5001 13.4216 10.5001 14.25C10.5001 15.0784 9.82854 15.75 9.00011 15.75C9.82854 15.75 10.5001 16.4216 10.5001 17.25C10.5001 18.0784 9.82854 18.75 9.00011 18.75H6.75011Z" stroke="currentColor" stroke-width="1.5" stroke-linecap="round" stroke-linejoin="round"/>
<path d="M6.75011 15.75H9.00011" stroke="currentColor" stroke-width="1.5" stroke-linecap="round" stroke-linejoin="round"/>
<path d="M8.25011 12.75V11.25" stroke="currentColor" stroke-width="1.5" stroke-linecap="round" stroke-linejoin="round"/>
<path d="M8.25011 18.75V20.25" stroke="currentColor" stroke-width="1.5" stroke-linecap="round" stroke-linejoin="round"/>
<path d="M0.750114 4.5L3.00011 8.25L6.75011 6" stroke="currentColor" stroke-width="1.5" stroke-linecap="round" stroke-linejoin="round"/>
<path d="M8.18912 0.899994C5.33555 1.94056 3.52803 4.75845 3.77212 7.78599" stroke="currentColor" stroke-width="1.5" stroke-linecap="round" stroke-linejoin="round"/>
<path d="M23.2501 19.5L21.0001 15.75L17.2501 18" stroke="currentColor" stroke-width="1.5" stroke-linecap="round" stroke-linejoin="round"/>
<path d="M15.8111 23.1C18.6639 22.0596 20.4713 19.2428 20.2281 16.216" stroke="currentColor" stroke-width="1.5" stroke-linecap="round" stroke-linejoin="round"/>
</svg>
