<svg width="24" height="24" viewBox="0 0 24 24" fill="none" xmlns="http://www.w3.org/2000/svg">
<path d="M12 13.5H3.75C2.92157 13.5 2.25 12.8284 2.25 12V2.25C2.25 1.42157 2.92157 0.75 3.75 0.75H20.25C21.0784 0.75 21.75 1.42157 21.75 2.25V12C21.75 12.8284 21.0784 13.5 20.25 13.5H15.75" stroke="currentColor" stroke-width="1.5" stroke-linecap="round" stroke-linejoin="round"/>
<path d="M12.9 3.75H18.75" stroke="currentColor" stroke-width="1.5" stroke-linecap="round" stroke-linejoin="round"/>
<path d="M15.75 13.5V9.375C15.75 8.33947 14.9105 7.5 13.875 7.5C12.8395 7.5 12 8.33947 12 9.375V14.475L11.512 16.424C11.2525 17.3817 11.2525 18.3913 11.512 19.349C11.8706 20.0321 12.2847 20.6846 12.75 21.3V23.25H19.5C19.5 18.836 19.311 19.481 20.057 16.45" stroke="currentColor" stroke-width="1.5" stroke-linecap="round" stroke-linejoin="round"/>
<path d="M11.633 15.941C11.3265 16.7226 10.7999 17.3986 10.117 17.887C9.527 18.196 8.25 18.002 8.25 16.912V13.5" stroke="currentColor" stroke-width="1.5" stroke-linecap="round" stroke-linejoin="round"/>
<path fill-rule="evenodd" clip-rule="evenodd" d="M7.5 8.625C8.74264 8.625 9.75 7.61764 9.75 6.375C9.75 5.13236 8.74264 4.125 7.5 4.125C6.25736 4.125 5.25 5.13236 5.25 6.375C5.25 7.61764 6.25736 8.625 7.5 8.625Z" stroke="currentColor" stroke-width="1.5" stroke-linecap="round" stroke-linejoin="round"/>
</svg>
