<svg width="24" height="24" viewBox="0 0 24 24" fill="none" xmlns="http://www.w3.org/2000/svg">
<path fill-rule="evenodd" clip-rule="evenodd" d="M19.237 3.225C18.9537 2.84729 18.5091 2.625 18.037 2.625H6.037C5.56486 2.625 5.12028 2.84729 4.837 3.225L1.5 7.676C1.08309 8.23223 1.10295 9.00202 1.548 9.536L10.886 20.836C11.171 21.1763 11.5921 21.3729 12.036 21.3729C12.4799 21.3729 12.901 21.1763 13.186 20.836L22.524 9.536C22.969 9.00202 22.9889 8.23223 22.572 7.676L19.237 3.225Z" stroke="currentColor" stroke-width="1.5" stroke-linecap="round" stroke-linejoin="round"/>
<path d="M5.349 2.79199L12.037 21.375" stroke="currentColor" stroke-width="1.5" stroke-linecap="round" stroke-linejoin="round"/>
<path d="M18.724 2.79199L12.037 21.375" stroke="currentColor" stroke-width="1.5" stroke-linecap="round" stroke-linejoin="round"/>
<path d="M1.198 8.625H22.871" stroke="currentColor" stroke-width="1.5" stroke-linecap="round" stroke-linejoin="round"/>
<path d="M7.537 8.625L12.037 2.625L16.537 8.625" stroke="currentColor" stroke-width="1.5" stroke-linecap="round" stroke-linejoin="round"/>
</svg>
