<svg width="24" height="24" viewBox="0 0 24 24" fill="none" xmlns="http://www.w3.org/2000/svg">
<path d="M15.75 3.75H14.25V4.5C14.25 6.15685 12.9069 7.5 11.25 7.5C9.59315 7.5 8.25 6.15685 8.25 4.5V3.75" stroke="currentColor" stroke-width="1.5" stroke-linecap="round" stroke-linejoin="round"/>
<path fill-rule="evenodd" clip-rule="evenodd" d="M14.25 3.75L8.25 3.75V2.75C8.25 1.64543 9.14543 0.75 10.25 0.75H12.25C13.3546 0.75 14.25 1.64543 14.25 2.75V3.75Z" stroke="currentColor" stroke-width="1.5" stroke-linecap="round" stroke-linejoin="round"/>
<path d="M14.784 9.58C16.174 7.805 18.261 5.25 18.75 5.25L19.5 8.25L23.25 10.5L22.842 11.724C22.638 12.3366 22.0647 12.7499 21.419 12.75H18.75C17.8319 15.6652 17.3269 18.6946 17.25 21.75" stroke="currentColor" stroke-width="1.5" stroke-linecap="round" stroke-linejoin="round"/>
<path fill-rule="evenodd" clip-rule="evenodd" d="M5.249 23.25C4.7292 23.2498 4.24654 22.9806 3.97338 22.5383C3.70021 22.0961 3.67547 21.5439 3.908 21.079L4.889 19.118C5.24448 18.4054 4.98105 17.5391 4.289 17.145L1.506 15.552C1.06844 15.3013 0.786197 14.8474 0.754788 14.344C0.723379 13.8407 0.947014 13.3553 1.35 13.052L7.35 8.55204C7.6897 8.29729 8.12146 8.19845 8.53816 8.28003C8.95485 8.36162 9.31745 8.61599 9.536 8.98004L11.266 11.863C11.4346 12.1441 11.6907 12.3623 11.995 12.484L14.807 13.609C15.5763 13.9167 15.9506 14.7897 15.643 15.559C15.3354 16.3284 14.4623 16.7027 13.693 16.395L10.881 15.27C9.96929 14.9026 9.20172 14.2487 8.694 13.407L7.819 11.949L4.976 14.08L5.776 14.54C7.84958 15.7247 8.63661 18.3228 7.569 20.459L6.588 22.421C6.33429 22.9283 5.81617 23.2491 5.249 23.25Z" stroke="currentColor" stroke-width="1.5" stroke-linecap="round" stroke-linejoin="round"/>
</svg>
