<svg width="24" height="24" viewBox="0 0 24 24" fill="none" xmlns="http://www.w3.org/2000/svg">
<path fill-rule="evenodd" clip-rule="evenodd" d="M23.2481 3.85207C23.279 3.02081 22.9623 2.21424 22.3741 1.62605C21.7859 1.03785 20.9793 0.721178 20.1481 0.752065C16.4781 0.892065 10.2591 1.80207 6.03107 6.03307C1.80307 10.2641 0.891065 16.4761 0.752065 20.1521C0.721178 20.9833 1.03785 21.7899 1.62605 22.3781C2.21424 22.9663 3.02081 23.283 3.85207 23.2521C7.52707 23.1141 13.7461 22.2021 17.9741 17.9731C22.2021 13.7441 23.1091 7.52807 23.2481 3.85207Z" stroke="currentColor" stroke-width="1.5" stroke-linecap="round" stroke-linejoin="round"/>
<path d="M15.7501 8.25208L8.25007 15.7521" stroke="currentColor" stroke-width="1.5" stroke-linecap="round" stroke-linejoin="round"/>
<path d="M10.8751 10.8771L13.1251 13.1271" stroke="currentColor" stroke-width="1.5" stroke-linecap="round" stroke-linejoin="round"/>
<path d="M8.25007 13.5021L10.5001 15.7521" stroke="currentColor" stroke-width="1.5" stroke-linecap="round" stroke-linejoin="round"/>
<path d="M13.5001 8.25208L15.7501 10.5021" stroke="currentColor" stroke-width="1.5" stroke-linecap="round" stroke-linejoin="round"/>
<path d="M1.42606 14.928L9.07406 22.576" stroke="currentColor" stroke-width="1.5" stroke-linecap="round" stroke-linejoin="round"/>
<path d="M22.5741 9.07604L14.9261 1.42804" stroke="currentColor" stroke-width="1.5" stroke-linecap="round" stroke-linejoin="round"/>
</svg>

