<svg width="24" height="24" viewBox="0 0 24 24" fill="none" xmlns="http://www.w3.org/2000/svg">
<path fill-rule="evenodd" clip-rule="evenodd" d="M11.5 22.2566C11.5 22.8089 11.0523 23.2566 10.5 23.2566H2C1.44772 23.2566 1 22.8089 1 22.2566L1 13.7566C1 13.2043 1.44772 12.7566 2 12.7566L10.5 12.7566C11.0523 12.7566 11.5 13.2043 11.5 13.7566L11.5 22.2566Z" stroke="black" stroke-width="1.5" stroke-linecap="round" stroke-linejoin="round"/>
<path d="M4.375 15.7566C4.16789 15.7566 4 15.9245 4 16.1316" stroke="black" stroke-width="1.5" stroke-linecap="round" stroke-linejoin="round"/>
<path d="M4.75 16.1316C4.75 15.9245 4.58211 15.7566 4.375 15.7566" stroke="black" stroke-width="1.5" stroke-linecap="round" stroke-linejoin="round"/>
<path d="M4.375 16.5066C4.58211 16.5066 4.75 16.3387 4.75 16.1316" stroke="black" stroke-width="1.5" stroke-linecap="round" stroke-linejoin="round"/>
<path d="M4 16.1316C4 16.3387 4.16789 16.5066 4.375 16.5066" stroke="black" stroke-width="1.5" stroke-linecap="round" stroke-linejoin="round"/>
<path d="M8.125 15.7566C7.91789 15.7566 7.75 15.9245 7.75 16.1316" stroke="black" stroke-width="1.5" stroke-linecap="round" stroke-linejoin="round"/>
<path d="M8.5 16.1316C8.5 15.9245 8.33211 15.7566 8.125 15.7566" stroke="black" stroke-width="1.5" stroke-linecap="round" stroke-linejoin="round"/>
<path d="M8.125 16.5066C8.33211 16.5066 8.5 16.3387 8.5 16.1316" stroke="black" stroke-width="1.5" stroke-linecap="round" stroke-linejoin="round"/>
<path d="M7.75 16.1316C7.75 16.3387 7.91789 16.5066 8.125 16.5066" stroke="black" stroke-width="1.5" stroke-linecap="round" stroke-linejoin="round"/>
<path d="M8.125 19.5066C7.91789 19.5066 7.75 19.6745 7.75 19.8816" stroke="black" stroke-width="1.5" stroke-linecap="round" stroke-linejoin="round"/>
<path d="M8.5 19.8816C8.5 19.6745 8.33211 19.5066 8.125 19.5066" stroke="black" stroke-width="1.5" stroke-linecap="round" stroke-linejoin="round"/>
<path d="M8.125 20.2566C8.33211 20.2566 8.5 20.0887 8.5 19.8816" stroke="black" stroke-width="1.5" stroke-linecap="round" stroke-linejoin="round"/>
<path d="M7.75 19.8816C7.75 20.0887 7.91789 20.2566 8.125 20.2566" stroke="black" stroke-width="1.5" stroke-linecap="round" stroke-linejoin="round"/>
<path d="M4.375 19.5066C4.16789 19.5066 4 19.6745 4 19.8816" stroke="black" stroke-width="1.5" stroke-linecap="round" stroke-linejoin="round"/>
<path d="M4.75 19.8816C4.75 19.6745 4.58211 19.5066 4.375 19.5066" stroke="black" stroke-width="1.5" stroke-linecap="round" stroke-linejoin="round"/>
<path d="M4.375 20.2566C4.58211 20.2566 4.75 20.0887 4.75 19.8816" stroke="black" stroke-width="1.5" stroke-linecap="round" stroke-linejoin="round"/>
<path d="M4 19.8816C4 20.0887 4.16789 20.2566 4.375 20.2566" stroke="black" stroke-width="1.5" stroke-linecap="round" stroke-linejoin="round"/>
<path d="M14.283 17.2496L15.307 10.1816C13.1307 9.31019 11.8787 7.01717 12.3224 4.71527C12.7661 2.41336 14.7807 0.75 17.125 0.75C19.4693 0.75 21.4839 2.41336 21.9276 4.71527C22.3713 7.01717 21.1193 9.31019 18.943 10.1816L20.293 18.3706H21.579C22.2672 18.3706 22.867 18.839 23.034 19.5066L23.186 21.4936C23.2638 21.9306 23.1441 22.3796 22.8591 22.7199C22.574 23.0601 22.1529 23.2566 21.709 23.2566H15.25" stroke="black" stroke-width="1.5" stroke-linecap="round" stroke-linejoin="round"/>
</svg>
