<svg width="24" height="24" viewBox="0 0 24 24" fill="none" xmlns="http://www.w3.org/2000/svg">
<path d="M4.125 12.75C4.33211 12.75 4.5 12.9179 4.5 13.125" stroke="black" stroke-width="1.5" stroke-linecap="round" stroke-linejoin="round"/>
<path d="M3.75 13.125C3.75 12.9179 3.91789 12.75 4.125 12.75" stroke="black" stroke-width="1.5" stroke-linecap="round" stroke-linejoin="round"/>
<path d="M4.125 13.5C3.91789 13.5 3.75 13.3321 3.75 13.125" stroke="black" stroke-width="1.5" stroke-linecap="round" stroke-linejoin="round"/>
<path d="M4.5 13.125C4.5 13.3321 4.33211 13.5 4.125 13.5" stroke="black" stroke-width="1.5" stroke-linecap="round" stroke-linejoin="round"/>
<path d="M8.25 12.75C8.45711 12.75 8.625 12.9179 8.625 13.125" stroke="black" stroke-width="1.5" stroke-linecap="round" stroke-linejoin="round"/>
<path d="M7.875 13.125C7.875 12.9179 8.04289 12.75 8.25 12.75" stroke="black" stroke-width="1.5" stroke-linecap="round" stroke-linejoin="round"/>
<path d="M8.25 13.5C8.04289 13.5 7.875 13.3321 7.875 13.125" stroke="black" stroke-width="1.5" stroke-linecap="round" stroke-linejoin="round"/>
<path d="M8.625 13.125C8.625 13.3321 8.45711 13.5 8.25 13.5" stroke="black" stroke-width="1.5" stroke-linecap="round" stroke-linejoin="round"/>
<path d="M12.375 12.75C12.5821 12.75 12.75 12.9179 12.75 13.125" stroke="black" stroke-width="1.5" stroke-linecap="round" stroke-linejoin="round"/>
<path d="M12 13.125C12 12.9179 12.1679 12.75 12.375 12.75" stroke="black" stroke-width="1.5" stroke-linecap="round" stroke-linejoin="round"/>
<path d="M12.375 13.5C12.1679 13.5 12 13.3321 12 13.125" stroke="black" stroke-width="1.5" stroke-linecap="round" stroke-linejoin="round"/>
<path d="M12.75 13.125C12.75 13.3321 12.5821 13.5 12.375 13.5" stroke="black" stroke-width="1.5" stroke-linecap="round" stroke-linejoin="round"/>
<path d="M12.375 4.5C12.5821 4.5 12.75 4.66789 12.75 4.875" stroke="black" stroke-width="1.5" stroke-linecap="round" stroke-linejoin="round"/>
<path d="M12 4.875C12 4.66789 12.1679 4.5 12.375 4.5" stroke="black" stroke-width="1.5" stroke-linecap="round" stroke-linejoin="round"/>
<path d="M12.375 5.25C12.1679 5.25 12 5.08211 12 4.875" stroke="black" stroke-width="1.5" stroke-linecap="round" stroke-linejoin="round"/>
<path d="M12.75 4.875C12.75 5.08211 12.5821 5.25 12.375 5.25" stroke="black" stroke-width="1.5" stroke-linecap="round" stroke-linejoin="round"/>
<path d="M19.125 4.5C19.3321 4.5 19.5 4.66789 19.5 4.875" stroke="black" stroke-width="1.5" stroke-linecap="round" stroke-linejoin="round"/>
<path d="M18.75 4.875C18.75 4.66789 18.9179 4.5 19.125 4.5" stroke="black" stroke-width="1.5" stroke-linecap="round" stroke-linejoin="round"/>
<path d="M19.125 5.25C18.9179 5.25 18.75 5.08211 18.75 4.875" stroke="black" stroke-width="1.5" stroke-linecap="round" stroke-linejoin="round"/>
<path d="M19.5 4.875C19.5 5.08211 19.3321 5.25 19.125 5.25" stroke="black" stroke-width="1.5" stroke-linecap="round" stroke-linejoin="round"/>
<path d="M19.125 11.25C19.3321 11.25 19.5 11.4179 19.5 11.625" stroke="black" stroke-width="1.5" stroke-linecap="round" stroke-linejoin="round"/>
<path d="M18.75 11.625C18.75 11.4179 18.9179 11.25 19.125 11.25" stroke="black" stroke-width="1.5" stroke-linecap="round" stroke-linejoin="round"/>
<path d="M19.125 12C18.9179 12 18.75 11.8321 18.75 11.625" stroke="black" stroke-width="1.5" stroke-linecap="round" stroke-linejoin="round"/>
<path d="M19.5 11.625C19.5 11.8321 19.3321 12 19.125 12" stroke="black" stroke-width="1.5" stroke-linecap="round" stroke-linejoin="round"/>
<path d="M4.125 18C4.33211 18 4.5 18.1679 4.5 18.375" stroke="black" stroke-width="1.5" stroke-linecap="round" stroke-linejoin="round"/>
<path d="M3.75 18.375C3.75 18.1679 3.91789 18 4.125 18" stroke="black" stroke-width="1.5" stroke-linecap="round" stroke-linejoin="round"/>
<path d="M4.125 18.75C3.91789 18.75 3.75 18.5821 3.75 18.375" stroke="black" stroke-width="1.5" stroke-linecap="round" stroke-linejoin="round"/>
<path d="M4.5 18.375C4.5 18.5821 4.33211 18.75 4.125 18.75" stroke="black" stroke-width="1.5" stroke-linecap="round" stroke-linejoin="round"/>
<path d="M8.25 18C8.45711 18 8.625 18.1679 8.625 18.375" stroke="black" stroke-width="1.5" stroke-linecap="round" stroke-linejoin="round"/>
<path d="M7.875 18.375C7.875 18.1679 8.04289 18 8.25 18" stroke="black" stroke-width="1.5" stroke-linecap="round" stroke-linejoin="round"/>
<path d="M8.25 18.75C8.04289 18.75 7.875 18.5821 7.875 18.375" stroke="black" stroke-width="1.5" stroke-linecap="round" stroke-linejoin="round"/>
<path d="M8.625 18.375C8.625 18.5821 8.45711 18.75 8.25 18.75" stroke="black" stroke-width="1.5" stroke-linecap="round" stroke-linejoin="round"/>
<path d="M12.375 18C12.5821 18 12.75 18.1679 12.75 18.375" stroke="black" stroke-width="1.5" stroke-linecap="round" stroke-linejoin="round"/>
<path d="M12 18.375C12 18.1679 12.1679 18 12.375 18" stroke="black" stroke-width="1.5" stroke-linecap="round" stroke-linejoin="round"/>
<path d="M12.375 18.75C12.1679 18.75 12 18.5821 12 18.375" stroke="black" stroke-width="1.5" stroke-linecap="round" stroke-linejoin="round"/>
<path d="M12.75 18.375C12.75 18.5821 12.5821 18.75 12.375 18.75" stroke="black" stroke-width="1.5" stroke-linecap="round" stroke-linejoin="round"/>
<path fill-rule="evenodd" clip-rule="evenodd" d="M0.75 9.25C0.75 8.69772 1.19772 8.25 1.75 8.25H14.75C15.3023 8.25 15.75 8.69772 15.75 9.25V22.25C15.75 22.8023 15.3023 23.25 14.75 23.25H1.75C1.19772 23.25 0.75 22.8023 0.75 22.25V9.25Z" stroke="black" stroke-width="1.5" stroke-linecap="round" stroke-linejoin="round"/>
<path d="M18.75 15.75H21.75C22.5784 15.75 23.25 15.0784 23.25 14.25V2.25C23.25 1.42157 22.5784 0.75 21.75 0.75H9.75C8.92157 0.75 8.25 1.42157 8.25 2.25V5.25" stroke="black" stroke-width="1.5" stroke-linecap="round" stroke-linejoin="round"/>
</svg>
