<svg width="24" height="24" viewBox="0 0 24 24" fill="none" xmlns="http://www.w3.org/2000/svg">
<path d="M8.52501 3.86005L15.75 6.75005L22.975 3.86005" stroke="black" stroke-width="1.5" stroke-linecap="round" stroke-linejoin="round"/>
<path d="M15.75 16.5C16.2441 16.5016 16.7329 16.3994 17.185 16.2L22.359 13.9C22.9009 13.6593 23.2501 13.122 23.25 12.529V4.72902C23.2501 4.13608 22.9009 3.59875 22.359 3.35802L17.185 1.05802C16.2716 0.651315 15.2284 0.651315 14.315 1.05802L9.141 3.35802C8.60046 3.59816 8.2515 4.13353 8.25 4.72502V7.50002" stroke="black" stroke-width="1.5" stroke-linecap="round" stroke-linejoin="round"/>
<path d="M8.25 10.136C8.34954 10.1357 8.44508 10.1751 8.51546 10.2455C8.58584 10.3159 8.62527 10.4115 8.625 10.511" stroke="black" stroke-width="1.5" stroke-linecap="round" stroke-linejoin="round"/>
<path d="M7.875 10.511C7.87473 10.4115 7.91416 10.3159 7.98454 10.2455C8.05493 10.1751 8.15046 10.1357 8.25 10.136" stroke="black" stroke-width="1.5" stroke-linecap="round" stroke-linejoin="round"/>
<path d="M8.25 10.886C8.04289 10.886 7.875 10.7181 7.875 10.511" stroke="black" stroke-width="1.5" stroke-linecap="round" stroke-linejoin="round"/>
<path d="M8.625 10.511C8.625 10.7181 8.45711 10.886 8.25 10.886" stroke="black" stroke-width="1.5" stroke-linecap="round" stroke-linejoin="round"/>
<path d="M12.978 14.569C13.0775 14.5688 13.1731 14.6082 13.2435 14.6786C13.3139 14.749 13.3533 14.8445 13.353 14.944" stroke="black" stroke-width="1.5" stroke-linecap="round" stroke-linejoin="round"/>
<path d="M12.6 14.944C12.5997 14.8445 12.6392 14.749 12.7095 14.6786C12.7799 14.6082 12.8755 14.5688 12.975 14.569" stroke="black" stroke-width="1.5" stroke-linecap="round" stroke-linejoin="round"/>
<path d="M12.978 15.319C12.7709 15.319 12.603 15.1511 12.603 14.944" stroke="black" stroke-width="1.5" stroke-linecap="round" stroke-linejoin="round"/>
<path d="M13.353 14.944C13.353 15.1511 13.1851 15.319 12.978 15.319" stroke="black" stroke-width="1.5" stroke-linecap="round" stroke-linejoin="round"/>
<path d="M5.625 19.342C5.83211 19.342 6 19.5099 6 19.717" stroke="black" stroke-width="1.5" stroke-linecap="round" stroke-linejoin="round"/>
<path d="M5.25 19.717C5.25 19.5099 5.41789 19.342 5.625 19.342" stroke="black" stroke-width="1.5" stroke-linecap="round" stroke-linejoin="round"/>
<path d="M5.625 20.092C5.41789 20.092 5.25 19.9241 5.25 19.717" stroke="black" stroke-width="1.5" stroke-linecap="round" stroke-linejoin="round"/>
<path d="M6 19.717C6 19.9241 5.83211 20.092 5.625 20.092" stroke="black" stroke-width="1.5" stroke-linecap="round" stroke-linejoin="round"/>
<path d="M3 13.717C3.20711 13.717 3.375 13.8849 3.375 14.092" stroke="black" stroke-width="1.5" stroke-linecap="round" stroke-linejoin="round"/>
<path d="M2.625 14.092C2.625 13.8849 2.79289 13.717 3 13.717" stroke="black" stroke-width="1.5" stroke-linecap="round" stroke-linejoin="round"/>
<path d="M3 14.467C2.79289 14.467 2.625 14.2991 2.625 14.092" stroke="black" stroke-width="1.5" stroke-linecap="round" stroke-linejoin="round"/>
<path d="M3.375 14.092C3.375 14.2991 3.20711 14.467 3 14.467" stroke="black" stroke-width="1.5" stroke-linecap="round" stroke-linejoin="round"/>
<path d="M4.181 16.346C4.27942 16.3608 4.36792 16.4141 4.427 16.4942C4.48609 16.5743 4.51091 16.6746 4.496 16.773" stroke="black" stroke-width="1.5" stroke-linecap="round" stroke-linejoin="round"/>
<path d="M3.75401 16.661C3.78535 16.4563 3.97623 16.3155 4.18101 16.346" stroke="black" stroke-width="1.5" stroke-linecap="round" stroke-linejoin="round"/>
<path d="M4.06901 17.088C3.86435 17.0567 3.72354 16.8658 3.75401 16.661" stroke="black" stroke-width="1.5" stroke-linecap="round" stroke-linejoin="round"/>
<path d="M4.50001 16.773C4.48521 16.8714 4.43189 16.9599 4.3518 17.019C4.27171 17.0781 4.17142 17.1029 4.07301 17.088" stroke="black" stroke-width="1.5" stroke-linecap="round" stroke-linejoin="round"/>
<path d="M11.364 18.429C11.4636 18.4288 11.5591 18.4682 11.6295 18.5386C11.6999 18.6089 11.7393 18.7045 11.739 18.804" stroke="black" stroke-width="1.5" stroke-linecap="round" stroke-linejoin="round"/>
<path d="M10.989 18.8C10.9887 18.7005 11.0282 18.6049 11.0985 18.5345C11.1689 18.4641 11.2645 18.4247 11.364 18.425" stroke="black" stroke-width="1.5" stroke-linecap="round" stroke-linejoin="round"/>
<path d="M11.364 19.179C11.1569 19.179 10.989 19.0111 10.989 18.804" stroke="black" stroke-width="1.5" stroke-linecap="round" stroke-linejoin="round"/>
<path d="M11.739 18.8C11.739 19.0071 11.5711 19.175 11.364 19.175" stroke="black" stroke-width="1.5" stroke-linecap="round" stroke-linejoin="round"/>
<path d="M15.75 3.22803C15.9571 3.22803 16.125 3.39592 16.125 3.60303" stroke="black" stroke-width="1.5" stroke-linecap="round" stroke-linejoin="round"/>
<path d="M15.375 3.60004C15.375 3.39293 15.5429 3.22504 15.75 3.22504" stroke="black" stroke-width="1.5" stroke-linecap="round" stroke-linejoin="round"/>
<path d="M15.75 3.97803C15.5429 3.97803 15.375 3.81013 15.375 3.60303" stroke="black" stroke-width="1.5" stroke-linecap="round" stroke-linejoin="round"/>
<path d="M16.125 3.60004C16.125 3.80714 15.9571 3.97504 15.75 3.97504" stroke="black" stroke-width="1.5" stroke-linecap="round" stroke-linejoin="round"/>
<path d="M20.625 7.54303C20.8321 7.54303 21 7.71092 21 7.91803" stroke="black" stroke-width="1.5" stroke-linecap="round" stroke-linejoin="round"/>
<path d="M20.25 7.91803C20.25 7.71092 20.4179 7.54303 20.625 7.54303" stroke="black" stroke-width="1.5" stroke-linecap="round" stroke-linejoin="round"/>
<path d="M20.625 8.29303C20.4179 8.29303 20.25 8.12514 20.25 7.91803" stroke="black" stroke-width="1.5" stroke-linecap="round" stroke-linejoin="round"/>
<path d="M21 7.91803C21 8.12514 20.8321 8.29303 20.625 8.29303" stroke="black" stroke-width="1.5" stroke-linecap="round" stroke-linejoin="round"/>
<path d="M20.625 11.293C20.8321 11.293 21 11.4609 21 11.668" stroke="black" stroke-width="1.5" stroke-linecap="round" stroke-linejoin="round"/>
<path d="M20.25 11.668C20.25 11.4609 20.4179 11.293 20.625 11.293" stroke="black" stroke-width="1.5" stroke-linecap="round" stroke-linejoin="round"/>
<path d="M20.625 12.043C20.4179 12.043 20.25 11.8751 20.25 11.668" stroke="black" stroke-width="1.5" stroke-linecap="round" stroke-linejoin="round"/>
<path d="M21 11.668C21 11.8751 20.8321 12.043 20.625 12.043" stroke="black" stroke-width="1.5" stroke-linecap="round" stroke-linejoin="round"/>
<path d="M8.25 13.5V23.25" stroke="black" stroke-width="1.5" stroke-linecap="round" stroke-linejoin="round"/>
<path d="M1.02501 10.61L8.25001 13.5L15.475 10.61" stroke="black" stroke-width="1.5" stroke-linecap="round" stroke-linejoin="round"/>
<path fill-rule="evenodd" clip-rule="evenodd" d="M6.81501 22.945C7.72845 23.3517 8.77156 23.3517 9.68501 22.945L14.859 20.645C15.4009 20.4043 15.7501 19.8669 15.75 19.274V11.474C15.7501 10.8811 15.4009 10.3437 14.859 10.103L9.68501 7.80301C8.77156 7.39631 7.72845 7.39631 6.81501 7.80301L1.64101 10.1C1.09781 10.3413 0.748346 10.8806 0.750006 11.475V19.275C0.749931 19.8679 1.09914 20.4053 1.64101 20.646L6.81501 22.945Z" stroke="black" stroke-width="1.5" stroke-linecap="round" stroke-linejoin="round"/>
</svg>
