<svg width="24" height="24" viewBox="0 0 24 24" fill="none" xmlns="http://www.w3.org/2000/svg">
<path fill-rule="evenodd" clip-rule="evenodd" d="M1.18934 16.6895C0.60355 16.1037 0.603551 15.154 1.18934 14.5682L14.5678 1.18973C15.1536 0.60394 16.1033 0.603939 16.6891 1.18972L22.8105 7.31115C23.3963 7.89694 23.3963 8.84668 22.8105 9.43247L9.43208 22.8109C8.8463 23.3967 7.89655 23.3967 7.31076 22.8109L1.18934 16.6895Z" stroke="black" stroke-width="1.5" stroke-linecap="round" stroke-linejoin="round"/>
<path d="M7.87903 7.87903L16.121 16.121" stroke="black" stroke-width="1.5" stroke-linecap="round" stroke-linejoin="round"/>
<path d="M18.994 8.612C19.0645 8.68218 19.1041 8.77754 19.1041 8.877C19.1041 8.97646 19.0645 9.07182 18.994 9.142" stroke="black" stroke-width="1.5" stroke-linecap="round" stroke-linejoin="round"/>
<path d="M18.464 8.61198C18.5342 8.54151 18.6296 8.50189 18.729 8.50189C18.8285 8.50189 18.9238 8.54151 18.994 8.61198" stroke="black" stroke-width="1.5" stroke-linecap="round" stroke-linejoin="round"/>
<path d="M18.464 9.142C18.3178 8.99559 18.3178 8.75841 18.464 8.612" stroke="black" stroke-width="1.5" stroke-linecap="round" stroke-linejoin="round"/>
<path d="M18.994 9.14197C18.8476 9.28819 18.6104 9.28819 18.464 9.14197" stroke="black" stroke-width="1.5" stroke-linecap="round" stroke-linejoin="round"/>
<path d="M13.328 7.06598C13.4738 7.21296 13.4738 7.45 13.328 7.59698" stroke="black" stroke-width="1.5" stroke-linecap="round" stroke-linejoin="round"/>
<path d="M12.8 7.06601C12.947 6.92022 13.184 6.92022 13.331 7.06601" stroke="black" stroke-width="1.5" stroke-linecap="round" stroke-linejoin="round"/>
<path d="M12.8 7.59997C12.6542 7.45299 12.6542 7.21595 12.8 7.06897" stroke="black" stroke-width="1.5" stroke-linecap="round" stroke-linejoin="round"/>
<path d="M13.328 7.59998C13.1811 7.74577 12.944 7.74577 12.797 7.59998" stroke="black" stroke-width="1.5" stroke-linecap="round" stroke-linejoin="round"/>
<path d="M8.17603 12.218C8.32225 12.3644 8.32225 12.6016 8.17603 12.748" stroke="black" stroke-width="1.5" stroke-linecap="round" stroke-linejoin="round"/>
<path d="M7.64603 12.218C7.71621 12.1475 7.81157 12.1079 7.91103 12.1079C8.01048 12.1079 8.10584 12.1475 8.17603 12.218" stroke="black" stroke-width="1.5" stroke-linecap="round" stroke-linejoin="round"/>
<path d="M7.64602 12.748C7.57555 12.6778 7.53593 12.5825 7.53593 12.483C7.53593 12.3836 7.57555 12.2882 7.64602 12.218" stroke="black" stroke-width="1.5" stroke-linecap="round" stroke-linejoin="round"/>
<path d="M8.17603 12.748C8.10584 12.8185 8.01048 12.8581 7.91103 12.8581C7.81157 12.8581 7.71621 12.8185 7.64603 12.748" stroke="black" stroke-width="1.5" stroke-linecap="round" stroke-linejoin="round"/>
<path d="M11.782 15.824C11.8525 15.8942 11.8921 15.9895 11.8921 16.089C11.8921 16.1884 11.8525 16.2838 11.782 16.354" stroke="black" stroke-width="1.5" stroke-linecap="round" stroke-linejoin="round"/>
<path d="M11.252 15.824C11.3984 15.6778 11.6356 15.6778 11.782 15.824" stroke="black" stroke-width="1.5" stroke-linecap="round" stroke-linejoin="round"/>
<path d="M11.252 16.354C11.1816 16.2838 11.1419 16.1884 11.1419 16.089C11.1419 15.9895 11.1816 15.8942 11.252 15.824" stroke="black" stroke-width="1.5" stroke-linecap="round" stroke-linejoin="round"/>
<path d="M11.782 16.354C11.7118 16.4245 11.6165 16.4641 11.517 16.4641C11.4176 16.4641 11.3222 16.4245 11.252 16.354" stroke="black" stroke-width="1.5" stroke-linecap="round" stroke-linejoin="round"/>
<path d="M5.08502 15.309C5.23125 15.4554 5.23125 15.6926 5.08502 15.839" stroke="black" stroke-width="1.5" stroke-linecap="round" stroke-linejoin="round"/>
<path d="M4.55502 15.309C4.62521 15.2385 4.72057 15.1989 4.82002 15.1989C4.91948 15.1989 5.01484 15.2385 5.08502 15.309" stroke="black" stroke-width="1.5" stroke-linecap="round" stroke-linejoin="round"/>
<path d="M4.55502 15.839C4.48455 15.7688 4.44493 15.6735 4.44493 15.574C4.44493 15.4746 4.48455 15.3792 4.55502 15.309" stroke="black" stroke-width="1.5" stroke-linecap="round" stroke-linejoin="round"/>
<path d="M5.08502 15.839C5.01484 15.9095 4.91948 15.9491 4.82002 15.9491C4.72057 15.9491 4.62521 15.9095 4.55502 15.839" stroke="black" stroke-width="1.5" stroke-linecap="round" stroke-linejoin="round"/>
<path d="M8.69102 18.915C8.7615 18.9852 8.80111 19.0805 8.80111 19.18C8.80111 19.2794 8.7615 19.3748 8.69102 19.445" stroke="black" stroke-width="1.5" stroke-linecap="round" stroke-linejoin="round"/>
<path d="M8.16103 18.915C8.30743 18.7687 8.54462 18.7687 8.69103 18.915" stroke="black" stroke-width="1.5" stroke-linecap="round" stroke-linejoin="round"/>
<path d="M8.16102 19.445C8.09055 19.3748 8.05093 19.2794 8.05093 19.18C8.05093 19.0805 8.09055 18.9852 8.16102 18.915" stroke="black" stroke-width="1.5" stroke-linecap="round" stroke-linejoin="round"/>
<path d="M8.69103 19.445C8.62084 19.5155 8.52548 19.5551 8.42603 19.5551C8.32657 19.5551 8.23121 19.5155 8.16103 19.445" stroke="black" stroke-width="1.5" stroke-linecap="round" stroke-linejoin="round"/>
</svg>
