<svg width="24" height="24" viewBox="0 0 24 24" fill="none" xmlns="http://www.w3.org/2000/svg">
<path fill-rule="evenodd" clip-rule="evenodd" d="M0.75 18.75H6.75V23.25H1.75C1.19772 23.25 0.75 22.8023 0.75 22.25V18.75Z" stroke="black" stroke-width="1.5" stroke-linecap="round" stroke-linejoin="round"/>
<path d="M17.164 14.25H2.25C1.42157 14.25 0.75 14.9216 0.75 15.75V18.75H18.116" stroke="black" stroke-width="1.5" stroke-linecap="round" stroke-linejoin="round"/>
<path fill-rule="evenodd" clip-rule="evenodd" d="M6.75 18.75H12.75V22.25C12.75 22.8023 12.3023 23.25 11.75 23.25H6.75V18.75Z" stroke="black" stroke-width="1.5" stroke-linecap="round" stroke-linejoin="round"/>
<path fill-rule="evenodd" clip-rule="evenodd" d="M1.75 0.75H5.75C6.30228 0.75 6.75 1.19772 6.75 1.75V5.25H0.75V1.75C0.75 1.19772 1.19772 0.75 1.75 0.75Z" stroke="black" stroke-width="1.5" stroke-linecap="round" stroke-linejoin="round"/>
<path fill-rule="evenodd" clip-rule="evenodd" d="M13.75 0.75H17.75C18.3023 0.75 18.75 1.19772 18.75 1.75V5.25H12.75V1.75C12.75 1.19772 13.1977 0.75 13.75 0.75Z" stroke="black" stroke-width="1.5" stroke-linecap="round" stroke-linejoin="round"/>
<path fill-rule="evenodd" clip-rule="evenodd" d="M6.75 9.75H12.75V14.25H6.75V9.75Z" stroke="black" stroke-width="1.5" stroke-linecap="round" stroke-linejoin="round"/>
<path fill-rule="evenodd" clip-rule="evenodd" d="M15.7144 7.37027C15.5434 6.55969 16.0619 5.76393 16.8724 5.5929L18.3401 5.28321C19.1507 5.11217 19.9465 5.63062 20.1175 6.4412L23.2171 21.1307C23.3881 21.9413 22.8697 22.7371 22.0591 22.9081L20.5914 23.2178C19.7808 23.3888 18.9851 22.8704 18.814 22.0598L15.7144 7.37027Z" stroke="black" stroke-width="1.5" stroke-linecap="round" stroke-linejoin="round"/>
<path d="M18.75 5.25H0.75V8.25C0.75 9.07843 1.42157 9.75 2.25 9.75H16.215" stroke="black" stroke-width="1.5" stroke-linecap="round" stroke-linejoin="round"/>
</svg>
