<svg width="24" height="24" viewBox="0 0 24 24" fill="none" xmlns="http://www.w3.org/2000/svg">
<path d="M19 3V0.75" stroke="black" stroke-width="1.5" stroke-linecap="round" stroke-linejoin="round"/>
<path d="M12.25 17.25H16.75C15.421 14.591 15.336 10.409 15.8 7.5" stroke="black" stroke-width="1.5" stroke-linecap="round" stroke-linejoin="round"/>
<path d="M12.25 17.25H7.75C9.08 14.591 9.164 10.407 8.7 7.49701" stroke="black" stroke-width="1.5" stroke-linecap="round" stroke-linejoin="round"/>
<path fill-rule="evenodd" clip-rule="evenodd" d="M5.5 3H19V5.5C19 6.60457 18.1046 7.5 17 7.5H7.5C6.39543 7.5 5.5 6.60457 5.5 5.5V3Z" stroke="black" stroke-width="1.5" stroke-linecap="round" stroke-linejoin="round"/>
<path d="M5.5 3V0.75" stroke="black" stroke-width="1.5" stroke-linecap="round" stroke-linejoin="round"/>
<path d="M12.25 3V0.75" stroke="black" stroke-width="1.5" stroke-linecap="round" stroke-linejoin="round"/>
<path fill-rule="evenodd" clip-rule="evenodd" d="M20.423 21.533C20.134 20.768 19.015 18.189 16.75 17.25H7.75C5.485 18.189 4.366 20.768 4.077 21.533C4.026 21.6661 3.99989 21.8075 4 21.95C4 22.668 4.58203 23.25 5.3 23.25H19.2C19.918 23.25 20.5 22.668 20.5 21.95C20.5001 21.8075 20.474 21.6661 20.423 21.533V21.533Z" stroke="black" stroke-width="1.5" stroke-linecap="round" stroke-linejoin="round"/>
</svg>
