<svg width="24" height="24" viewBox="0 0 24 24" fill="none" xmlns="http://www.w3.org/2000/svg">
<path d="M8.25 17.25V15C8.25 12.713 10.5 10.5 10.5 9" stroke="black" stroke-width="1.5" stroke-linecap="round" stroke-linejoin="round"/>
<path d="M17.25 17.25V9C17.2494 6.10073 14.8993 3.75055 12 3.75V3.75C12 1.5 10.25 0.75 8.25 0.75V3.75L4.25 6.608C3.92156 6.84276 3.70161 7.20001 3.63988 7.59898C3.57815 7.99795 3.67986 8.40496 3.922 8.728L4.602 9.635C4.98949 10.1518 5.6643 10.3625 6.277 10.158L9.75 9H12" stroke="black" stroke-width="1.5" stroke-linecap="round" stroke-linejoin="round"/>
<path fill-rule="evenodd" clip-rule="evenodd" d="M20.923 21.533C20.634 20.768 19.515 18.189 17.25 17.25H8.25C5.985 18.189 4.866 20.768 4.577 21.533C4.526 21.6661 4.4999 21.8075 4.5 21.95C4.5 22.668 5.08203 23.25 5.8 23.25H19.7C20.0448 23.25 20.3754 23.113 20.6192 22.8692C20.863 22.6254 21 22.2948 21 21.95C21.0001 21.8075 20.974 21.6661 20.923 21.533V21.533Z" stroke="black" stroke-width="1.5" stroke-linecap="round" stroke-linejoin="round"/>
</svg>
