<svg width="24" height="24" viewBox="0 0 24 24" fill="none" xmlns="http://www.w3.org/2000/svg">
<path fill-rule="evenodd" clip-rule="evenodd" d="M12 8.25C14.0711 8.25 15.75 6.57107 15.75 4.5C15.75 2.42893 14.0711 0.75 12 0.75C9.92893 0.75 8.25 2.42893 8.25 4.5C8.25 6.57107 9.92893 8.25 12 8.25Z" stroke="black" stroke-width="1.5" stroke-linecap="round" stroke-linejoin="round"/>
<path d="M9.29 7.09198C10.875 10.478 9.19 13.864 7.5 17.25H16.5C14.807 13.864 13.125 10.478 14.71 7.09198" stroke="black" stroke-width="1.5" stroke-linecap="round" stroke-linejoin="round"/>
<path fill-rule="evenodd" clip-rule="evenodd" d="M20.25 21.75C20.25 20.9216 19.5784 20.25 18.75 20.25H5.25C4.42157 20.25 3.75 20.9216 3.75 21.75C3.75 22.5784 4.42157 23.25 5.25 23.25H18.75C19.5784 23.25 20.25 22.5784 20.25 21.75Z" stroke="black" stroke-width="1.5" stroke-linecap="round" stroke-linejoin="round"/>
<path fill-rule="evenodd" clip-rule="evenodd" d="M16.5 17.25H7.5C6.12401 17.5755 5.17724 18.8379 5.25 20.25H18.75C18.8228 18.8379 17.876 17.5755 16.5 17.25Z" stroke="black" stroke-width="1.5" stroke-linecap="round" stroke-linejoin="round"/>
</svg>
