<svg width="24" height="24" viewBox="0 0 24 24" fill="none" xmlns="http://www.w3.org/2000/svg">
<path fill-rule="evenodd" clip-rule="evenodd" d="M21 23.25V2.25C21 1.42157 20.3284 0.75 19.5 0.75H4.5C3.67157 0.75 3 1.42157 3 2.25V23.25L6 20.25L9 23.25L12 20.25L15 23.25L18 20.25L21 23.25Z" stroke="black" stroke-width="1.5" stroke-linecap="round" stroke-linejoin="round"/>
<path d="M6 6H12" stroke="black" stroke-width="1.5" stroke-linecap="round" stroke-linejoin="round"/>
<path d="M6 10.5H12" stroke="black" stroke-width="1.5" stroke-linecap="round" stroke-linejoin="round"/>
<path d="M6 15H12" stroke="black" stroke-width="1.5" stroke-linecap="round" stroke-linejoin="round"/>
<path d="M17.625 5.25C17.8321 5.25 18 5.41789 18 5.625C18 5.83211 17.8321 6 17.625 6C17.4179 6 17.25 5.83211 17.25 5.625C17.25 5.41789 17.4179 5.25 17.625 5.25" stroke="black" stroke-width="1.5" stroke-linecap="round" stroke-linejoin="round"/>
<path d="M17.625 9.75C17.8321 9.75 18 9.91789 18 10.125C18 10.3321 17.8321 10.5 17.625 10.5C17.4179 10.5 17.25 10.3321 17.25 10.125C17.25 9.91789 17.4179 9.75 17.625 9.75" stroke="black" stroke-width="1.5" stroke-linecap="round" stroke-linejoin="round"/>
<path d="M17.625 14.25C17.8321 14.25 18 14.4179 18 14.625C18 14.8321 17.8321 15 17.625 15C17.4179 15 17.25 14.8321 17.25 14.625C17.25 14.4179 17.4179 14.25 17.625 14.25" stroke="black" stroke-width="1.5" stroke-linecap="round" stroke-linejoin="round"/>
</svg>
