<svg width="24" height="24" viewBox="0 0 24 24" fill="none" xmlns="http://www.w3.org/2000/svg">
<path d="M17.625 18H20.625C21.4534 18 22.125 18.6716 22.125 19.5V21.75C22.125 22.5784 21.4534 23.25 20.625 23.25H3.375C2.54657 23.25 1.875 22.5784 1.875 21.75V18H7.125" stroke="black" stroke-width="1.5" stroke-linecap="round" stroke-linejoin="round"/>
<path d="M11.453 17.034L8.707 14.35" stroke="black" stroke-width="1.5" stroke-linecap="round" stroke-linejoin="round"/>
<path fill-rule="evenodd" clip-rule="evenodd" d="M12.483 19.601C13.3114 19.601 13.983 18.9352 13.983 18.114C13.983 17.2928 13.3114 16.627 12.483 16.627C11.6546 16.627 10.983 17.2928 10.983 18.114C10.983 18.9352 11.6546 19.601 12.483 19.601Z" stroke="black" stroke-width="1.5" stroke-linecap="round" stroke-linejoin="round"/>
<path d="M1.875 4.5H8.625L9.814 3.311C10.2432 2.88212 10.3717 2.23695 10.1397 1.67634C9.90762 1.11574 9.36072 0.75013 8.754 0.75H3.375C2.54657 0.75 1.875 1.42157 1.875 2.25V18" stroke="black" stroke-width="1.5" stroke-linecap="round" stroke-linejoin="round"/>
<path d="M13.717 7.59801L14.704 8.08701" stroke="black" stroke-width="1.5" stroke-linecap="round" stroke-linejoin="round"/>
<path d="M16.385 9.291L17.222 10.003" stroke="black" stroke-width="1.5" stroke-linecap="round" stroke-linejoin="round"/>
<path d="M18.403 11.59L18.961 12.533" stroke="black" stroke-width="1.5" stroke-linecap="round" stroke-linejoin="round"/>
<path d="M8.625 4.5V7.737C13.9386 8.52392 18.1151 12.6887 18.917 18" stroke="black" stroke-width="1.5" stroke-linecap="round" stroke-linejoin="round"/>
<path fill-rule="evenodd" clip-rule="evenodd" d="M7.125 15C8.36764 15 9.375 13.9926 9.375 12.75C9.375 11.5074 8.36764 10.5 7.125 10.5C5.88236 10.5 4.875 11.5074 4.875 12.75C4.875 13.9926 5.88236 15 7.125 15Z" stroke="black" stroke-width="1.5" stroke-linecap="round" stroke-linejoin="round"/>
</svg>
