<svg width="24" height="24" viewBox="0 0 24 24" fill="none" xmlns="http://www.w3.org/2000/svg">
<path d="M11.25 0.75V19.5" stroke="black" stroke-width="1.5" stroke-linecap="round" stroke-linejoin="round"/>
<path d="M11.25 2.25H22.5C22.7909 2.25011 23.0556 2.41846 23.1789 2.68193C23.3023 2.9454 23.2622 3.25646 23.076 3.48L19.676 6.27C19.444 6.54794 19.444 6.95206 19.676 7.23L23.076 10.02C23.2622 10.2435 23.3023 10.5546 23.1789 10.8181C23.0556 11.0815 22.7909 11.2499 22.5 11.25H11.25" stroke="black" stroke-width="1.5" stroke-linecap="round" stroke-linejoin="round"/>
<path d="M14.24 15.9C18.583 16.36 21.75 17.8 21.75 19.5C21.75 21.571 17.05 23.25 11.25 23.25C5.45 23.25 0.75 21.571 0.75 19.5C0.75 17.831 3.804 16.416 8.026 15.93" stroke="black" stroke-width="1.5" stroke-linecap="round" stroke-linejoin="round"/>
</svg>
