<svg width="24" height="24" viewBox="0 0 24 24" fill="none" xmlns="http://www.w3.org/2000/svg">
<path d="M5.25 11.019V0.75L9.466 2.858C9.63988 2.94516 9.74966 3.123 9.74966 3.3175C9.74966 3.512 9.63988 3.68984 9.466 3.777L7.5 4.76" stroke="black" stroke-width="1.5" stroke-linecap="round" stroke-linejoin="round"/>
<path d="M23.25 6L21.085 22.6C21.0363 22.9733 20.7184 23.2526 20.342 23.253H17.625C16.5895 23.253 15.75 22.4135 15.75 21.378C15.75 20.3425 16.5895 19.503 17.625 19.503C18.3485 19.503 19.0456 19.775 19.578 20.265L21.2 21.751" stroke="black" stroke-width="1.5" stroke-linecap="round" stroke-linejoin="round"/>
<path fill-rule="evenodd" clip-rule="evenodd" d="M11.25 22.5C12.0784 22.5 12.75 21.8284 12.75 21C12.75 20.1716 12.0784 19.5 11.25 19.5C10.4216 19.5 9.75 20.1716 9.75 21C9.75 21.8284 10.4216 22.5 11.25 22.5Z" stroke="black" stroke-width="1.5" stroke-linecap="round" stroke-linejoin="round"/>
<path d="M8.25 8.27301C11.625 8.48001 14.25 10.073 14.25 12C14.25 14.071 11.228 15.75 7.5 15.75C3.772 15.75 0.75 14.071 0.75 12C0.826362 11.0136 1.38874 10.1299 2.25 9.64301" stroke="black" stroke-width="1.5" stroke-linecap="round" stroke-linejoin="round"/>
</svg>
