<svg width="24" height="24" viewBox="0 0 24 24" fill="none" xmlns="http://www.w3.org/2000/svg">
<path fill-rule="evenodd" clip-rule="evenodd" d="M19.711 7.16305C19.6217 6.77504 19.3818 6.43845 19.0442 6.22743C18.7066 6.01641 18.2989 5.94828 17.911 6.03805L9.611 7.95405C8.00733 8.32692 7.00142 9.91979 7.354 11.528L8.409 16.26L5.7 21.0061C5.34168 21.7182 5.60298 22.5862 6.29486 22.9821C6.98675 23.3781 7.86751 23.1637 8.3 22.494L11.3 17.2441C11.4513 16.9775 11.5183 16.6714 11.492 16.366L13.492 18.366L12.359 21.1971C12.2113 21.5666 12.2165 21.9797 12.3734 22.3455C12.5304 22.7112 12.8263 22.9996 13.196 23.147C13.3728 23.218 13.5615 23.2544 13.752 23.254C14.3658 23.2546 14.9181 22.881 15.146 22.3111L16.427 19.1C16.7917 18.1875 16.6864 17.1542 16.145 16.334L12.245 10.434L18.582 8.97105C18.9725 8.88276 19.3115 8.64204 19.5235 8.30247C19.7356 7.9629 19.8031 7.55266 19.711 7.16305Z" stroke="black" stroke-width="1.5" stroke-linecap="round" stroke-linejoin="round"/>
<path fill-rule="evenodd" clip-rule="evenodd" d="M6.24899 6.37506C7.69874 6.37506 8.87399 5.19981 8.87399 3.75006C8.87399 2.30031 7.69874 1.12506 6.24899 1.12506C4.79925 1.12506 3.62399 2.30031 3.62399 3.75006C3.62399 5.19981 4.79925 6.37506 6.24899 6.37506Z" stroke="black" stroke-width="1.5" stroke-linecap="round" stroke-linejoin="round"/>
<path d="M19.1 6.26706L15.249 0.750061L12.999 2.25006" stroke="black" stroke-width="1.5" stroke-linecap="round" stroke-linejoin="round"/>
</svg>
