<svg width="24" height="24" viewBox="0 0 24 24" fill="none" xmlns="http://www.w3.org/2000/svg">
<path d="M6 18V0.75L12.158 3.829C12.4123 3.95597 12.5729 4.21578 12.5729 4.5C12.5729 4.78422 12.4123 5.04403 12.158 5.171L6 8.25" stroke="black" stroke-width="1.5" stroke-linecap="round" stroke-linejoin="round"/>
<path d="M3 14.4C1.69243 15.1454 0.84703 16.498 0.75 18C0.75 20.9 4.444 23.25 9 23.25C13.556 23.25 17.25 20.9 17.25 18C17.2497 17.7473 17.2216 17.4955 17.166 17.249H17.25C20.564 17.249 23.25 15.54 23.25 13.431C23.25 11.322 20.564 9.61301 17.25 9.61301C14.189 9.61301 11.664 11.071 11.296 12.955C10.5385 12.8173 9.76996 12.7487 9 12.75" stroke="black" stroke-width="1.5" stroke-linecap="round" stroke-linejoin="round"/>
</svg>
