<svg width="24" height="24" viewBox="0 0 24 24" fill="none" xmlns="http://www.w3.org/2000/svg">
<path fill-rule="evenodd" clip-rule="evenodd" d="M5.75 21C6.99264 21 8 19.9926 8 18.75C8 17.5074 6.99264 16.5 5.75 16.5C4.50736 16.5 3.5 17.5074 3.5 18.75C3.5 19.9926 4.50736 21 5.75 21Z" stroke="black" stroke-width="1.5" stroke-linecap="round" stroke-linejoin="round"/>
<path fill-rule="evenodd" clip-rule="evenodd" d="M18.5 21C19.7426 21 20.75 19.9926 20.75 18.75C20.75 17.5074 19.7426 16.5 18.5 16.5C17.2574 16.5 16.25 17.5074 16.25 18.75C16.25 19.9926 17.2574 21 18.5 21Z" stroke="black" stroke-width="1.5" stroke-linecap="round" stroke-linejoin="round"/>
<path d="M8 18.75H16.25" stroke="black" stroke-width="1.5" stroke-linecap="round" stroke-linejoin="round"/>
<path d="M18.5 11.25L14.75 6" stroke="black" stroke-width="1.5" stroke-linecap="round" stroke-linejoin="round"/>
<path d="M15.5 18.75V14.25L18.5 11.25H20C21.6569 11.25 23 12.5931 23 14.25V17.25C23 18.0784 22.3284 18.75 21.5 18.75H20.75" stroke="black" stroke-width="1.5" stroke-linecap="round" stroke-linejoin="round"/>
<path d="M3.5 18.75H2.75C1.92157 18.75 1.25 18.0784 1.25 17.25V14.25C1.25 12.5931 2.59315 11.25 4.25 11.25H7.25L8.75 14.25H10.25C11.0784 14.25 11.75 14.9216 11.75 15.75V18.75" stroke="black" stroke-width="1.5" stroke-linecap="round" stroke-linejoin="round"/>
<path d="M3.5 11.25V6" stroke="black" stroke-width="1.5" stroke-linecap="round" stroke-linejoin="round"/>
<path fill-rule="evenodd" clip-rule="evenodd" d="M1.25 6H19.25V4.5C19.25 3.67157 18.5784 3 17.75 3H2.75C1.92157 3 1.25 3.67157 1.25 4.5V6Z" stroke="black" stroke-width="1.5" stroke-linecap="round" stroke-linejoin="round"/>
</svg>
