<svg width="24" height="24" viewBox="0 0 24 24" fill="none" xmlns="http://www.w3.org/2000/svg">
<path fill-rule="evenodd" clip-rule="evenodd" d="M12 17.25C16.5563 17.25 20.25 13.5563 20.25 9C20.25 4.44365 16.5563 0.75 12 0.75C7.44365 0.75 3.75 4.44365 3.75 9C3.75 13.5563 7.44365 17.25 12 17.25Z" stroke="black" stroke-width="1.5" stroke-linecap="round" stroke-linejoin="round"/>
<path d="M6 18.517C9.66629 20.8277 14.3337 20.8277 18 18.517" stroke="black" stroke-width="1.5" stroke-linecap="round" stroke-linejoin="round"/>
<path d="M12 20.25V23.25" stroke="black" stroke-width="1.5" stroke-linecap="round" stroke-linejoin="round"/>
<path d="M12 13.875C12.2071 13.875 12.375 14.0429 12.375 14.25" stroke="black" stroke-width="1.5" stroke-linecap="round" stroke-linejoin="round"/>
<path d="M11.625 14.25C11.625 14.0429 11.7929 13.875 12 13.875" stroke="black" stroke-width="1.5" stroke-linecap="round" stroke-linejoin="round"/>
<path d="M12 14.625C11.7929 14.625 11.625 14.4571 11.625 14.25" stroke="black" stroke-width="1.5" stroke-linecap="round" stroke-linejoin="round"/>
<path d="M12.375 14.25C12.375 14.4571 12.2071 14.625 12 14.625" stroke="black" stroke-width="1.5" stroke-linecap="round" stroke-linejoin="round"/>
<path d="M17.25 10.125C17.4571 10.125 17.625 10.2929 17.625 10.5" stroke="black" stroke-width="1.5" stroke-linecap="round" stroke-linejoin="round"/>
<path d="M16.875 10.5C16.875 10.2929 17.0429 10.125 17.25 10.125" stroke="black" stroke-width="1.5" stroke-linecap="round" stroke-linejoin="round"/>
<path d="M17.25 10.875C17.0429 10.875 16.875 10.7071 16.875 10.5" stroke="black" stroke-width="1.5" stroke-linecap="round" stroke-linejoin="round"/>
<path d="M17.625 10.5C17.625 10.7071 17.4571 10.875 17.25 10.875" stroke="black" stroke-width="1.5" stroke-linecap="round" stroke-linejoin="round"/>
<path d="M15.75 13.125C15.9571 13.125 16.125 13.2929 16.125 13.5" stroke="black" stroke-width="1.5" stroke-linecap="round" stroke-linejoin="round"/>
<path d="M15.375 13.5C15.375 13.2929 15.5429 13.125 15.75 13.125" stroke="black" stroke-width="1.5" stroke-linecap="round" stroke-linejoin="round"/>
<path d="M15.75 13.875C15.5429 13.875 15.375 13.7071 15.375 13.5" stroke="black" stroke-width="1.5" stroke-linecap="round" stroke-linejoin="round"/>
<path d="M16.125 13.5C16.125 13.7071 15.9571 13.875 15.75 13.875" stroke="black" stroke-width="1.5" stroke-linecap="round" stroke-linejoin="round"/>
<path d="M13.5 10.875C13.7071 10.875 13.875 11.0429 13.875 11.25" stroke="black" stroke-width="1.5" stroke-linecap="round" stroke-linejoin="round"/>
<path d="M13.125 11.25C13.125 11.0429 13.2929 10.875 13.5 10.875" stroke="black" stroke-width="1.5" stroke-linecap="round" stroke-linejoin="round"/>
<path d="M13.5 11.625C13.2929 11.625 13.125 11.4571 13.125 11.25" stroke="black" stroke-width="1.5" stroke-linecap="round" stroke-linejoin="round"/>
<path d="M13.875 11.25C13.875 11.4571 13.7071 11.625 13.5 11.625" stroke="black" stroke-width="1.5" stroke-linecap="round" stroke-linejoin="round"/>
</svg>
