<svg width="24" height="24" viewBox="0 0 24 24" fill="none" xmlns="http://www.w3.org/2000/svg">
<path d="M1.75 18H7.174C8.44056 17.999 9.64803 17.4642 10.5 16.527L12.124 14.741L12.839 15.098C13.8566 15.6056 14.4998 16.6449 14.5 17.782V23.25" stroke="black" stroke-width="1.5" stroke-linecap="round" stroke-linejoin="round"/>
<path d="M17.5 23.25V17.782C17.5071 15.5235 16.2383 13.4546 14.222 12.437L17.11 9.259C17.5094 8.81967 17.612 8.1861 17.3718 7.64313C17.1316 7.10015 16.5937 6.74997 16 6.75H7C6.17157 6.75 5.5 7.42157 5.5 8.25C5.5 9.07843 6.17157 9.75 7 9.75H12.609L8.283 14.509C7.9987 14.8217 7.59565 15 7.173 15H1.75" stroke="black" stroke-width="1.5" stroke-linecap="round" stroke-linejoin="round"/>
<path fill-rule="evenodd" clip-rule="evenodd" d="M20.5 6C21.9497 6 23.125 4.82475 23.125 3.375C23.125 1.92525 21.9497 0.75 20.5 0.75C19.0503 0.75 17.875 1.92525 17.875 3.375C17.875 4.82475 19.0503 6 20.5 6Z" stroke="black" stroke-width="1.5" stroke-linecap="round" stroke-linejoin="round"/>
<path d="M20.5 21.75C20.5 22.5784 19.8284 23.25 19 23.25H11.5" stroke="black" stroke-width="1.5" stroke-linecap="round" stroke-linejoin="round"/>
<path d="M3.25 21C2.42157 21 1.75 20.3284 1.75 19.5V12" stroke="black" stroke-width="1.5" stroke-linecap="round" stroke-linejoin="round"/>
<path d="M4.75 15V18" stroke="black" stroke-width="1.5" stroke-linecap="round" stroke-linejoin="round"/>
<path d="M14.5 20.25H17.5" stroke="black" stroke-width="1.5" stroke-linecap="round" stroke-linejoin="round"/>
</svg>
