<svg width="24" height="24" viewBox="0 0 24 24" fill="none" xmlns="http://www.w3.org/2000/svg">
<path fill-rule="evenodd" clip-rule="evenodd" d="M19.086 6C20.5357 6 21.711 4.82475 21.711 3.375C21.711 1.92525 20.5357 0.75 19.086 0.75C17.6363 0.75 16.461 1.92525 16.461 3.375C16.461 4.82475 17.6363 6 19.086 6Z" stroke="black" stroke-width="1.5" stroke-linecap="round" stroke-linejoin="round"/>
<path d="M21.711 21.75C21.711 22.5784 21.0394 23.25 20.211 23.25H12.711" stroke="black" stroke-width="1.5" stroke-linecap="round" stroke-linejoin="round"/>
<path d="M9.922 21.763C9.67064 22.0715 9.30697 22.2676 8.91105 22.3079C8.51512 22.3482 8.1194 22.2295 7.811 21.978L2 17.237" stroke="black" stroke-width="1.5" stroke-linecap="round" stroke-linejoin="round"/>
<path d="M8.766 18.683L6.437 16.783" stroke="black" stroke-width="1.5" stroke-linecap="round" stroke-linejoin="round"/>
<path d="M14.211 20.25H17.211" stroke="black" stroke-width="1.5" stroke-linecap="round" stroke-linejoin="round"/>
<path d="M6.614 21L11.765 15.453L12.553 15.847C13.5719 16.3527 14.2149 17.3935 14.211 18.531V23.25" stroke="black" stroke-width="1.5" stroke-linecap="round" stroke-linejoin="round"/>
<path d="M17.211 23.25V18.532C17.22 16.2583 15.9361 14.1771 13.9 13.165V13.165L16.818 10.023C17.2243 9.58574 17.3326 8.9492 17.0939 8.40213C16.8552 7.85506 16.3149 7.50157 15.718 7.50201H8.218C7.38958 7.50201 6.718 8.17359 6.718 9.00201C6.718 9.83044 7.38958 10.502 8.218 10.502H12.279L4.285 19.1" stroke="black" stroke-width="1.5" stroke-linecap="round" stroke-linejoin="round"/>
</svg>
