<svg width="24" height="24" viewBox="0 0 24 24" fill="none" xmlns="http://www.w3.org/2000/svg">
<path fill-rule="evenodd" clip-rule="evenodd" d="M16.75 6C18.1997 6 19.375 4.82475 19.375 3.375C19.375 1.92525 18.1997 0.75 16.75 0.75C15.3003 0.75 14.125 1.92525 14.125 3.375C14.125 4.82475 15.3003 6 16.75 6Z" stroke="black" stroke-width="1.5" stroke-linecap="round" stroke-linejoin="round"/>
<path fill-rule="evenodd" clip-rule="evenodd" d="M3.249 20.25C2.74142 20.2497 2.26842 19.9928 1.99191 19.5671C1.71541 19.1415 1.67292 18.6049 1.879 18.141L4.6 12.009C4.87326 11.3989 5.2779 10.8566 5.785 10.421L10.521 6.36201C10.9242 5.98839 11.4996 5.86528 12.0204 6.04115C12.5412 6.21703 12.9241 6.66371 13.0183 7.2053C13.1125 7.7469 12.9029 8.29663 12.472 8.63801L7.74 12.7C7.56917 12.8458 7.43259 13.0274 7.34 13.232L4.616 19.362C4.37496 19.9014 3.83978 20.249 3.249 20.25Z" stroke="black" stroke-width="1.5" stroke-linecap="round" stroke-linejoin="round"/>
<path d="M21.935 14.841C22.2911 16.0306 21.6162 17.2837 20.427 17.641L1.75 23.25" stroke="black" stroke-width="1.5" stroke-linecap="round" stroke-linejoin="round"/>
</svg>
