<svg width="24" height="24" viewBox="0 0 24 24" fill="none" xmlns="http://www.w3.org/2000/svg">
<path d="M15.75 14.75L16.5 17.75" stroke="black" stroke-width="1.5" stroke-linecap="round" stroke-linejoin="round"/>
<path d="M14.25 17.75H18.75" stroke="black" stroke-width="1.5" stroke-linecap="round" stroke-linejoin="round"/>
<path d="M6 14.75L5.25 17.75" stroke="black" stroke-width="1.5" stroke-linecap="round" stroke-linejoin="round"/>
<path d="M7.5 17.75H3" stroke="black" stroke-width="1.5" stroke-linecap="round" stroke-linejoin="round"/>
<path fill-rule="evenodd" clip-rule="evenodd" d="M23.25 10.25C23.25 7.76472 21.2353 5.75 18.75 5.75H15L14.491 8.294C14.3508 8.99525 13.7351 9.50004 13.02 9.5H3.381C2.71136 9.50014 2.12293 9.94412 1.939 10.588L0.808001 12.838C0.678739 13.2905 0.769345 13.7775 1.05272 14.1532C1.3361 14.5289 1.77938 14.7499 2.25 14.75H18.75C21.2353 14.75 23.25 12.7353 23.25 10.25Z" stroke="black" stroke-width="1.5" stroke-linecap="round" stroke-linejoin="round"/>
</svg>
