<svg width="24" height="24" viewBox="0 0 24 24" fill="none" xmlns="http://www.w3.org/2000/svg">
<path fill-rule="evenodd" clip-rule="evenodd" d="M4.443 3.373L11 0.75V10.035C11 11.5757 12.167 12.8659 13.7 13.02L14.447 13.095C16.7475 13.3246 18.4996 15.2601 18.5 17.572V18C18.5 18.8284 17.8284 19.5 17 19.5H6.5C4.84315 19.5 3.5 18.1569 3.5 16.5V4.766C3.4999 4.15252 3.87338 3.60081 4.443 3.373Z" stroke="black" stroke-width="1.5" stroke-linecap="round" stroke-linejoin="round"/>
<path d="M11.256 11.25H8.75V13.5C8.75 15.1569 10.0931 16.5 11.75 16.5H18.37" stroke="black" stroke-width="1.5" stroke-linecap="round" stroke-linejoin="round"/>
<path d="M2.75 23.25H19.25C19.6504 23.2585 20.0369 23.1033 20.3201 22.8201C20.6033 22.5369 20.7585 22.1504 20.75 21.75" stroke="black" stroke-width="1.5" stroke-linecap="round" stroke-linejoin="round"/>
<path d="M7.25 19.5V23.25" stroke="black" stroke-width="1.5" stroke-linecap="round" stroke-linejoin="round"/>
<path d="M14.75 19.5V23.25" stroke="black" stroke-width="1.5" stroke-linecap="round" stroke-linejoin="round"/>
</svg>
