<svg width="24" height="24" viewBox="0 0 24 24" fill="none" xmlns="http://www.w3.org/2000/svg">
<path d="M22.8819 11.5H18.7539" stroke="black" stroke-width="1.5" stroke-linecap="round" stroke-linejoin="round"/>
<path d="M18.7539 14.5L20.2539 19" stroke="black" stroke-width="1.5" stroke-linecap="round" stroke-linejoin="round"/>
<path d="M23.2539 16.75C23.2539 17.3467 23.0169 17.919 22.5949 18.341C22.1729 18.7629 21.6006 19 21.0039 19H15.7539" stroke="black" stroke-width="1.5" stroke-linecap="round" stroke-linejoin="round"/>
<path fill-rule="evenodd" clip-rule="evenodd" d="M9.6809 19C10.9116 19.0011 12.0244 18.2679 12.5088 17.1365C12.9932 16.0051 12.7558 14.6938 11.9056 13.804C11.0553 12.9142 9.75615 12.6175 8.6039 13.05L1.9039 15.568C1.10283 15.87 0.631996 16.7013 0.784905 17.5437C0.937814 18.386 1.67079 18.9988 2.5269 19H9.6809Z" stroke="black" stroke-width="1.5" stroke-linecap="round" stroke-linejoin="round"/>
<path d="M15.6289 7.42498L14.6289 4.93098C14.4012 4.3617 13.85 3.98828 13.2369 3.98798H12.0039" stroke="black" stroke-width="1.5" stroke-linecap="round" stroke-linejoin="round"/>
<path d="M5.7719 14.115C5.5385 13.9861 5.32328 13.8267 5.1319 13.641L1.0709 9.69398C0.69696 9.17517 0.645823 8.49039 0.938563 7.9218C1.2313 7.3532 1.81838 6.99701 2.4579 6.99998H6.1329C6.53045 7.00006 6.9117 7.15796 7.1929 7.43898L8.5649 8.81098C8.8461 9.092 9.22736 9.24989 9.6249 9.24998H13.5039C13.976 9.24998 14.4206 9.02769 14.7039 8.64998L16.5039 6.24998C16.7094 5.89031 17.0544 5.63162 17.4573 5.53521C17.8601 5.43881 18.2849 5.51328 18.6309 5.74098C20.9913 7.35609 22.6312 9.82578 23.2039 12.628C23.3187 13.0765 23.22 13.553 22.9363 13.9189C22.6527 14.2849 22.2159 14.4993 21.7529 14.5L12.4039 14.493" stroke="black" stroke-width="1.5" stroke-linecap="round" stroke-linejoin="round"/>
<path d="M9.75391 15.613C9.5468 15.613 9.37891 15.7809 9.37891 15.988" stroke="black" stroke-width="1.5" stroke-linecap="round" stroke-linejoin="round"/>
<path d="M10.1289 15.988C10.1289 15.7809 9.96101 15.613 9.75391 15.613" stroke="black" stroke-width="1.5" stroke-linecap="round" stroke-linejoin="round"/>
<path d="M9.75391 16.363C9.96101 16.363 10.1289 16.1951 10.1289 15.988" stroke="black" stroke-width="1.5" stroke-linecap="round" stroke-linejoin="round"/>
<path d="M9.37891 15.988C9.37891 16.1951 9.5468 16.363 9.75391 16.363" stroke="black" stroke-width="1.5" stroke-linecap="round" stroke-linejoin="round"/>
</svg>
