<svg width="24" height="25" viewBox="0 0 24 25" fill="none" xmlns="http://www.w3.org/2000/svg">
<path fill-rule="evenodd" clip-rule="evenodd" d="M15.066 6C16.5157 6 17.691 4.82475 17.691 3.375C17.691 1.92525 16.5157 0.75 15.066 0.75C13.6163 0.75 12.441 1.92525 12.441 3.375C12.441 4.82475 13.6163 6 15.066 6Z" stroke="black" stroke-width="1.5" stroke-linecap="round" stroke-linejoin="round"/>
<path d="M17.558 19.507L16.128 16.17C15.7078 15.1907 14.9537 14.3924 14 13.917L11.748 12.791L12.818 10.3L18.9 13.342C19.6412 13.7123 20.5422 13.4117 20.9125 12.6705C21.2828 11.9293 20.9822 11.0283 20.241 10.658L12.741 6.90802C12.5326 6.80397 12.3029 6.74988 12.07 6.75002H9.008C8.55195 6.75099 8.12054 6.54321 7.837 6.18602L5.737 3.56302C5.41254 3.11405 4.86706 2.88045 4.31823 2.95542C3.76939 3.0304 3.30655 3.40174 3.11439 3.92127C2.92223 4.44081 3.03204 5.02395 3.4 5.43802L5.5 8.06102C6.35031 9.12985 7.64219 9.75185 9.008 9.75002H9.792L8.438 12.91C8.35714 13.0962 8.31561 13.297 8.316 13.5V15.258C8.31526 15.6554 8.15746 16.0364 7.877 16.318L6.877 17.318" stroke="black" stroke-width="1.5" stroke-linecap="round" stroke-linejoin="round"/>
<path d="M10 18.439C10.6831 17.7516 11.1233 16.8602 11.254 15.9L12.664 16.6C12.9809 16.759 13.2316 17.0245 13.372 17.35L14.139 19.141" stroke="black" stroke-width="1.5" stroke-linecap="round" stroke-linejoin="round"/>
<path d="M21.348 22.1C21.2643 22.4889 21.0296 22.8287 20.6954 23.0446C20.3612 23.2604 19.9549 23.3347 19.566 23.251L3.435 19.782C3.04605 19.6983 2.70627 19.4636 2.49042 19.1294C2.27456 18.7952 2.20031 18.3889 2.284 18" stroke="black" stroke-width="1.5" stroke-linecap="round" stroke-linejoin="round"/>
</svg>
