<svg width="24" height="24" viewBox="0 0 24 24" fill="none" xmlns="http://www.w3.org/2000/svg">
<path d="M12.7501 23.2501H11.9841C8.67919 23.2501 6.00006 20.5709 6.00006 17.2661V10.5001C6.00006 7.18635 8.68635 4.50006 12.0001 4.50006V1.87506" stroke="black" stroke-width="1.5" stroke-linecap="round" stroke-linejoin="round"/>
<path fill-rule="evenodd" clip-rule="evenodd" d="M12.0001 12.0001C13.4498 12.0001 14.6251 10.8248 14.6251 9.37506C14.6251 7.92531 13.4498 6.75006 12.0001 6.75006C10.5503 6.75006 9.37506 7.92531 9.37506 9.37506C9.37506 10.8248 10.5503 12.0001 12.0001 12.0001Z" stroke="black" stroke-width="1.5" stroke-linecap="round" stroke-linejoin="round"/>
<path d="M0.750061 3.00006L23.2501 0.750061" stroke="black" stroke-width="1.5" stroke-linecap="round" stroke-linejoin="round"/>
<path fill-rule="evenodd" clip-rule="evenodd" d="M17.2501 23.2501C16.4216 23.2501 15.7501 22.5785 15.7501 21.7501V20.2501H12.7501C11.0932 20.2501 9.75006 18.9069 9.75006 17.2501V15.0001C9.75006 14.1716 10.4216 13.5001 11.2501 13.5001C12.0785 13.5001 12.7501 14.1716 12.7501 15.0001V17.2501H15.7501C17.4069 17.2501 18.7501 18.5932 18.7501 20.2501V21.7501C18.7501 22.5785 18.0785 23.2501 17.2501 23.2501Z" stroke="black" stroke-width="1.5" stroke-linecap="round" stroke-linejoin="round"/>
</svg>
