<svg width="24" height="24" viewBox="0 0 24 24" fill="none" xmlns="http://www.w3.org/2000/svg">
<path fill-rule="evenodd" clip-rule="evenodd" d="M4.868 8.25C6.31774 8.25 7.493 7.07475 7.493 5.625C7.493 4.17525 6.31774 3 4.868 3C3.41825 3 2.243 4.17525 2.243 5.625C2.243 7.07475 3.41825 8.25 4.868 8.25Z" stroke="black" stroke-width="1.5" stroke-linecap="round" stroke-linejoin="round"/>
<path d="M14.033 20.3L12.048 15.672L9.772 17.036C9.39506 17.2624 8.93779 17.312 8.5211 17.1716C8.1044 17.0313 7.77025 16.7153 7.607 16.307L6.107 12.557C5.79938 11.7877 6.17367 10.9146 6.943 10.607C7.71233 10.2994 8.58538 10.6737 8.893 11.443L9.738 13.557L11.978 12.214C12.35 11.9916 12.8 11.9409 13.2122 12.0751C13.6243 12.2093 13.9583 12.5152 14.128 12.914L16.663 18.828" stroke="black" stroke-width="1.5" stroke-linecap="round" stroke-linejoin="round"/>
<path d="M14.25 0.75V8.25" stroke="black" stroke-width="1.5" stroke-linecap="round" stroke-linejoin="round"/>
<path d="M8.77299 23.25L20.092 16.9C20.785 16.5117 21.2956 15.8644 21.512 15.1L21.75 14.254" stroke="black" stroke-width="1.5" stroke-linecap="round" stroke-linejoin="round"/>
<path d="M2.993 13.468L5.41 18.313C5.7654 19.0254 6.38936 19.5672 7.14448 19.8193C7.8996 20.0714 8.72395 20.013 9.436 19.657L9.75 19.5" stroke="black" stroke-width="1.5" stroke-linecap="round" stroke-linejoin="round"/>
</svg>
