<svg width="24" height="24" viewBox="0 0 24 24" fill="none" xmlns="http://www.w3.org/2000/svg">
<path fill-rule="evenodd" clip-rule="evenodd" d="M20.6252 9.841C22.075 9.841 23.2502 8.66575 23.2502 7.216C23.2502 5.76626 22.075 4.591 20.6252 4.591C19.1755 4.591 18.0002 5.76626 18.0002 7.216C18.0002 8.66575 19.1755 9.841 20.6252 9.841Z" stroke="black" stroke-width="1.5" stroke-linecap="round" stroke-linejoin="round"/>
<path fill-rule="evenodd" clip-rule="evenodd" d="M1.7082 12.891C1.1001 12.6551 0.714135 12.0533 0.753399 11.4022C0.792664 10.7511 1.24816 10.2001 1.8802 10.039L5.6482 9.07898C6.36465 8.89847 6.84155 8.22137 6.7702 7.48598L6.6112 5.77598C6.51401 4.74022 6.96035 3.72804 7.79066 3.10127C8.62098 2.47451 9.71673 2.32265 10.6862 2.69998L14.7152 4.26698C15.1969 4.45423 15.5483 4.87629 15.6452 5.38398L16.7002 10.934C16.7832 11.3783 17.063 11.7611 17.4612 11.975L21.5262 14.169C21.998 14.4237 22.298 14.9108 22.3133 15.4467C22.3286 15.9826 22.0568 16.486 21.6003 16.7672C21.1438 17.0484 20.572 17.0647 20.1002 16.81L16.0342 14.615C14.8413 13.9726 14.0025 12.8255 13.7522 11.494L12.8522 6.76198L9.6002 5.49998L9.7582 7.20998C9.97357 9.41702 8.54048 11.449 6.3892 11.987L2.6212 12.947C2.31855 13.0247 1.99909 13.0051 1.7082 12.891V12.891Z" stroke="black" stroke-width="1.5" stroke-linecap="round" stroke-linejoin="round"/>
<path d="M22.1062 19.956C21.9189 20.5226 21.5141 20.9916 20.9808 21.2596C20.4476 21.5277 19.8297 21.5728 19.2632 21.385L0.750204 15.261" stroke="black" stroke-width="1.5" stroke-linecap="round" stroke-linejoin="round"/>
</svg>
