<svg width="24" height="24" viewBox="0 0 24 24" fill="none" xmlns="http://www.w3.org/2000/svg">
<path fill-rule="evenodd" clip-rule="evenodd" d="M7.5 5.25C8.74264 5.25 9.75 4.24264 9.75 3C9.75 1.75736 8.74264 0.75 7.5 0.75C6.25736 0.75 5.25 1.75736 5.25 3C5.25 4.24264 6.25736 5.25 7.5 5.25Z" stroke="black" stroke-width="1.5" stroke-linecap="round" stroke-linejoin="round"/>
<path d="M23.25 20.25C23.25 21.9069 21.9069 23.25 20.25 23.25H0.75" stroke="black" stroke-width="1.5" stroke-linecap="round" stroke-linejoin="round"/>
<path d="M15.86 12.816L17.25 10.5L22.261 13.632C22.8599 14.0028 23.233 14.6492 23.2545 15.3533C23.276 16.0573 22.9431 16.7253 22.368 17.132L18.782 19.693C18.2736 20.0568 17.6641 20.2523 17.039 20.252H2.671C2.20909 20.252 1.77296 20.0391 1.48874 19.675C1.20452 19.3109 1.10391 18.8361 1.216 18.388L1.966 15.388C2.13222 14.7196 2.73225 14.2503 3.421 14.25H6V8.24301C5.99924 7.47142 6.58397 6.82512 7.35179 6.74888C8.11961 6.67264 8.82001 7.19134 8.971 7.94801C9.026 8.19301 9.637 10.493 12.75 10.493C13.5784 10.493 14.25 11.1646 14.25 11.993C14.25 12.8214 13.5784 13.493 12.75 13.493C11.4379 13.5212 10.1424 13.1951 9 12.549" stroke="black" stroke-width="1.5" stroke-linecap="round" stroke-linejoin="round"/>
<path d="M17.25 10.5L15.75 7.5" stroke="black" stroke-width="1.5" stroke-linecap="round" stroke-linejoin="round"/>
<path d="M1.5 17.25H22.2" stroke="black" stroke-width="1.5" stroke-linecap="round" stroke-linejoin="round"/>
</svg>
