<svg width="25" height="25" viewBox="0 0 25 25" fill="none" xmlns="http://www.w3.org/2000/svg">
<path d="M3.7961 0.75V8.25" stroke="black" stroke-width="1.5" stroke-linecap="round" stroke-linejoin="round"/>
<path d="M6.7961 2.25L0.796097 6.75" stroke="black" stroke-width="1.5" stroke-linecap="round" stroke-linejoin="round"/>
<path d="M0.796097 2.25L6.7961 6.75" stroke="black" stroke-width="1.5" stroke-linecap="round" stroke-linejoin="round"/>
<path fill-rule="evenodd" clip-rule="evenodd" d="M23.2961 4.66301C23.2951 3.08098 22.3414 1.65527 20.8795 1.05052C19.4176 0.445763 17.7354 0.781024 16.6171 1.90001V1.90001L1.9461 16.569V16.569C0.928089 17.551 0.51949 19.0061 0.877469 20.3746C1.23545 21.743 2.30424 22.8116 3.67274 23.1693C5.04123 23.5271 6.49624 23.1182 7.4781 22.1L22.1461 7.43101C22.8828 6.69837 23.2968 5.70203 23.2961 4.66301Z" stroke="black" stroke-width="1.5" stroke-linecap="round" stroke-linejoin="round"/>
<path d="M13.5131 4.99902V16.066" stroke="black" stroke-width="1.5" stroke-linecap="round" stroke-linejoin="round"/>
<path d="M8.6221 9.89001V20.957" stroke="black" stroke-width="1.5" stroke-linecap="round" stroke-linejoin="round"/>
</svg>
