<svg width="24" height="24" viewBox="0 0 24 24" fill="none" xmlns="http://www.w3.org/2000/svg">
<path fill-rule="evenodd" clip-rule="evenodd" d="M15.75 6.00018C17.1997 6.00018 18.375 4.82493 18.375 3.37518C18.375 1.92544 17.1997 0.750183 15.75 0.750183C14.3003 0.750183 13.125 1.92544 13.125 3.37518C13.125 4.82493 14.3003 6.00018 15.75 6.00018Z" stroke="black" stroke-width="1.5" stroke-linecap="round" stroke-linejoin="round"/>
<path d="M2.25 15.7502H6.75C7.14755 15.7501 7.5288 15.5922 7.81 15.3112L8.751 14.3702L10.71 16.0002C11.0523 16.2853 11.2501 16.7077 11.25 17.1532V20.2502" stroke="black" stroke-width="1.5" stroke-linecap="round" stroke-linejoin="round"/>
<path d="M14.25 20.2502V17.1552C14.2494 15.8204 13.6564 14.5547 12.631 13.7002L10.881 12.2422L12.454 10.6692C13.6673 11.4597 15.0829 11.8833 16.531 11.8892C17.5429 11.8909 18.5445 11.6868 19.475 11.2892L21.59 10.3822C22.1023 10.1847 22.4657 9.72319 22.5376 9.17891C22.6094 8.63463 22.3782 8.09457 21.9347 7.77093C21.4913 7.44729 20.9064 7.39177 20.41 7.62619L18.291 8.53319C16.8334 9.15612 15.1555 8.96619 13.874 8.03319L10.417 5.51719C8.78973 4.33325 6.75494 3.85293 4.77 4.18419L2.752 4.52119C1.93883 4.66293 1.39298 5.43503 1.53055 6.24891C1.66813 7.0628 2.43742 7.61259 3.252 7.47919L5.269 7.14319C6.4596 6.94483 7.67998 7.23308 8.656 7.94319L9.975 8.90019L6.129 12.7502H0.75" stroke="black" stroke-width="1.5" stroke-linecap="round" stroke-linejoin="round"/>
<path d="M3.547 8.9202L3.19 7.4942" stroke="black" stroke-width="1.5" stroke-linecap="round" stroke-linejoin="round"/>
<path d="M2.464 4.59918L1.5 0.750183" stroke="black" stroke-width="1.5" stroke-linecap="round" stroke-linejoin="round"/>
<path d="M21.75 5.25018V7.70118" stroke="black" stroke-width="1.5" stroke-linecap="round" stroke-linejoin="round"/>
<path d="M21.75 10.2992V18.7502" stroke="black" stroke-width="1.5" stroke-linecap="round" stroke-linejoin="round"/>
<path d="M20.25 17.2502H23.25" stroke="black" stroke-width="1.5" stroke-linecap="round" stroke-linejoin="round"/>
<path d="M5.25 23.2502H18.257C19.0529 23.2503 19.8163 22.9341 20.379 22.3712L21 21.7502" stroke="black" stroke-width="1.5" stroke-linecap="round" stroke-linejoin="round"/>
<path d="M0.988007 17.5812L2.32701 19.1432C2.84461 19.7472 3.58091 20.1209 4.37401 20.1822L5.25001 20.2502" stroke="black" stroke-width="1.5" stroke-linecap="round" stroke-linejoin="round"/>
</svg>
