<svg width="24" height="24" viewBox="0 0 24 24" fill="none" xmlns="http://www.w3.org/2000/svg">
<path fill-rule="evenodd" clip-rule="evenodd" d="M13.75 5.25C14.9926 5.25 16 4.24264 16 3C16 1.75736 14.9926 0.75 13.75 0.75C12.5074 0.75 11.5 1.75736 11.5 3C11.5 4.24264 12.5074 5.25 13.75 5.25Z" stroke="black" stroke-width="1.5" stroke-linecap="round" stroke-linejoin="round"/>
<path fill-rule="evenodd" clip-rule="evenodd" d="M20.5 9.75001H18.408C18.1118 9.7507 17.8221 9.66295 17.576 9.49801L14.588 7.50601C13.8482 7.01146 12.9779 6.74829 12.088 6.75001H8.98799C7.79563 6.74823 6.65194 7.2227 5.81099 8.06801L3.68899 10.189C3.10302 10.775 3.10302 11.725 3.68899 12.311C4.27497 12.897 5.22502 12.897 5.81099 12.311L7.93199 10.189C8.21387 9.90901 8.59468 9.75129 8.99199 9.75001H10.728L7.12199 18.158C6.79517 18.9191 7.14704 19.801 7.90799 20.128C8.09484 20.2089 8.29637 20.2505 8.49999 20.25C9.09951 20.2499 9.64138 19.8929 9.87799 19.342L11.211 16.235L12.462 16.651C12.9495 16.8127 13.3204 17.2127 13.445 17.711L13.795 19.111C13.9615 19.7786 14.5609 20.2474 15.249 20.248C15.3717 20.2478 15.4939 20.2327 15.613 20.203C16.4134 20.0001 16.8993 19.1884 16.7 18.387L16.349 16.987C15.9797 15.4913 14.8678 14.2903 13.405 13.807L12.4 13.468L13.671 10.5L15.912 11.994C16.6518 12.4886 17.5221 12.7517 18.412 12.75H20.5C21.3284 12.75 22 12.0784 22 11.25C22 10.4216 21.3284 9.75001 20.5 9.75001Z" stroke="black" stroke-width="1.5" stroke-linecap="round" stroke-linejoin="round"/>
<path d="M11.311 22.264C10.5139 22.9038 9.52205 23.2517 8.5 23.25C6.015 23.25 4 21.75 1.75 18.75H4" stroke="black" stroke-width="1.5" stroke-linecap="round" stroke-linejoin="round"/>
<path d="M18.764 21.561C17.7456 22.8342 16.1182 23.457 14.51 23.189" stroke="black" stroke-width="1.5" stroke-linecap="round" stroke-linejoin="round"/>
</svg>
