<svg width="24" height="24" viewBox="0 0 24 24" fill="none" xmlns="http://www.w3.org/2000/svg">
<path d="M0.832001 15.6379L18.311 19.9379C19.2517 20.1696 20.235 19.7732 20.752 18.9539" stroke="black" stroke-width="1.5" stroke-linecap="round" stroke-linejoin="round"/>
<path d="M1.548 12.725L11.016 15.052" stroke="black" stroke-width="1.5" stroke-linecap="round" stroke-linejoin="round"/>
<path fill-rule="evenodd" clip-rule="evenodd" d="M23.206 15.731C23.1113 16.1174 22.867 16.4504 22.5268 16.6567C22.1866 16.863 21.7784 16.9257 21.392 16.831L16.475 15.622C15.0145 15.263 13.83 14.1981 13.318 12.784L13.218 12.505L8.818 11.424C8.20719 11.2735 7.6346 10.9969 7.137 10.612L1.8 6.47497C1.14417 5.96742 1.02395 5.02431 1.5315 4.36847C2.03905 3.71263 2.98217 3.59242 3.638 4.09997L8.978 8.23997C9.14262 8.36792 9.33244 8.45959 9.535 8.50897L14.635 9.76197C15.0767 9.87195 15.4446 10.1765 15.635 10.59L15.993 11.69C16.1539 12.1826 16.5577 12.5573 17.061 12.681L22.106 13.921C22.9088 14.1181 23.4007 14.9276 23.206 15.731V15.731Z" stroke="black" stroke-width="1.5" stroke-linecap="round" stroke-linejoin="round"/>
<path fill-rule="evenodd" clip-rule="evenodd" d="M20.543 11.909C21.9927 11.909 23.168 10.7337 23.168 9.284C23.168 7.83425 21.9927 6.659 20.543 6.659C19.0933 6.659 17.918 7.83425 17.918 9.284C17.918 10.7337 19.0933 11.909 20.543 11.909Z" stroke="black" stroke-width="1.5" stroke-linecap="round" stroke-linejoin="round"/>
</svg>
