<svg width="24" height="24" viewBox="0 0 24 24" fill="none" xmlns="http://www.w3.org/2000/svg">
<path d="M6.81399 4.26599C5.77581 4.8425 4.92008 5.69857 4.34399 6.73699" stroke="black" stroke-width="1.5" stroke-linecap="round" stroke-linejoin="round"/>
<path d="M5.975 1.5C3.8086 2.11594 2.11546 3.80947 1.5 5.976" stroke="black" stroke-width="1.5" stroke-linecap="round" stroke-linejoin="round"/>
<path d="M4.5 18H19.5" stroke="black" stroke-width="1.5" stroke-linecap="round" stroke-linejoin="round"/>
<path d="M19.5 18C19.5 18 18 16.694 18 12C18 8.25001 15.438 4.93201 12 4.93201C8.562 4.93201 6 8.25001 6 12C6 16.719 4.5 18 4.5 18" stroke="black" stroke-width="1.5" stroke-linecap="round" stroke-linejoin="round"/>
<path d="M13.5 21C13.5 21.8284 12.8284 22.5 12 22.5C11.1716 22.5 10.5 21.8284 10.5 21" stroke="black" stroke-width="1.5" stroke-linecap="round" stroke-linejoin="round"/>
<path d="M12 4.932V3" stroke="black" stroke-width="1.5" stroke-linecap="round" stroke-linejoin="round"/>
<path d="M17.186 4.26599C17.7017 4.55392 18.1755 4.91125 18.594 5.32799C19.0114 5.7463 19.3689 6.22048 19.656 6.73699" stroke="black" stroke-width="1.5" stroke-linecap="round" stroke-linejoin="round"/>
<path d="M18.025 1.5C20.1914 2.11594 21.8845 3.80947 22.5 5.976" stroke="black" stroke-width="1.5" stroke-linecap="round" stroke-linejoin="round"/>
</svg>
