<svg width="24" height="24" viewBox="0 0 24 24" fill="none" xmlns="http://www.w3.org/2000/svg">
<path d="M23.25 10.5C23.25 12.1569 21.9069 13.5 20.25 13.5" stroke="black" stroke-width="1.5" stroke-linecap="round" stroke-linejoin="round"/>
<path d="M6 6.80001C4.38639 7.84577 3.18492 9.41828 2.6 11.25H0.75V17.25H3.24C3.75784 18.158 4.43933 18.9622 5.25 19.622V22.5C5.25 22.9142 5.58579 23.25 6 23.25H7.5C7.91421 23.25 8.25 22.9142 8.25 22.5V21.259C10.1964 21.9099 12.3012 21.9137 14.25 21.27V22.5C14.25 22.9142 14.5858 23.25 15 23.25H16.5C16.9142 23.25 17.25 22.9142 17.25 22.5V19.637C19.1237 18.148 20.2259 15.8932 20.25 13.5C20.2142 10.7727 18.8002 8.24884 16.493 6.79401" stroke="black" stroke-width="1.5" stroke-linecap="round" stroke-linejoin="round"/>
<path d="M8.25 7.49999C10.1406 6.56425 12.3594 6.56425 14.25 7.49999" stroke="black" stroke-width="1.5" stroke-linecap="round" stroke-linejoin="round"/>
<path fill-rule="evenodd" clip-rule="evenodd" d="M11.25 6.75C12.9069 6.75 14.25 5.40685 14.25 3.75C14.25 2.09315 12.9069 0.75 11.25 0.75C9.59315 0.75 8.25 2.09315 8.25 3.75C8.25 5.40685 9.59315 6.75 11.25 6.75Z" stroke="black" stroke-width="1.5" stroke-linecap="round" stroke-linejoin="round"/>
</svg>
