<svg width="24" height="24" viewBox="0 0 24 24" fill="none" xmlns="http://www.w3.org/2000/svg">
<path fill-rule="evenodd" clip-rule="evenodd" d="M12.75 6C14.1997 6 15.375 4.82475 15.375 3.375C15.375 1.92525 14.1997 0.75 12.75 0.75C11.3003 0.75 10.125 1.92525 10.125 3.375C10.125 4.82475 11.3003 6 12.75 6Z" stroke="black" stroke-width="1.5" stroke-linecap="round" stroke-linejoin="round"/>
<path fill-rule="evenodd" clip-rule="evenodd" d="M18 9.00003H15.333C14.7956 9.00034 14.2624 8.90415 13.759 8.71603L10.792 7.60803C7.72041 6.44945 4.28697 6.765 1.478 8.46403C0.77691 8.89438 0.553248 9.80912 0.976654 10.5144C1.40006 11.2197 2.31254 11.4524 3.022 11.036C4.64252 10.0624 6.5637 9.71662 8.422 10.064L5.088 16.5H2.25C1.42157 16.5 0.75 17.1716 0.75 18C0.75 18.8285 1.42157 19.5 2.25 19.5H6C6.56046 19.5001 7.07419 19.1877 7.332 18.69L8.408 16.611L11.524 18.223L12.013 21.945C12.1131 22.6892 12.7481 23.2447 13.499 23.245C13.5659 23.2453 13.6327 23.241 13.699 23.232C14.5202 23.1242 15.0985 22.3712 14.991 21.55L14.5 17.836C14.3729 16.8599 13.7749 16.0082 12.9 15.557L9.786 13.947L11.311 11L12.711 11.522C13.5492 11.8375 14.4374 11.9994 15.333 12H18C18.8284 12 19.5 11.3285 19.5 10.5C19.5 9.6716 18.8284 9.00003 18 9.00003V9.00003Z" stroke="black" stroke-width="1.5" stroke-linecap="round" stroke-linejoin="round"/>
<path fill-rule="evenodd" clip-rule="evenodd" d="M21 23.25C22.2426 23.25 23.25 22.2426 23.25 21C23.25 19.7574 22.2426 18.75 21 18.75C19.7574 18.75 18.75 19.7574 18.75 21C18.75 22.2426 19.7574 23.25 21 23.25Z" stroke="black" stroke-width="1.5" stroke-linecap="round" stroke-linejoin="round"/>
</svg>
