<svg width="24" height="24" viewBox="0 0 24 24" fill="none" xmlns="http://www.w3.org/2000/svg">
<path fill-rule="evenodd" clip-rule="evenodd" d="M22.167 20.347C22.3637 20.5112 22.6377 20.5468 22.8698 20.4381C23.1019 20.3295 23.2501 20.0963 23.25 19.84V7C23.25 5.34315 21.9069 4 20.25 4H3.75C2.09315 4 0.75 5.34315 0.75 7V19.84C0.749855 20.0963 0.898073 20.3295 1.13017 20.4381C1.36227 20.5468 1.63628 20.5112 1.833 20.347L5.25 17.5V8.5H18.75V17.5L22.167 20.347Z" stroke="black" stroke-width="1.5" stroke-linecap="round" stroke-linejoin="round"/>
<path d="M1.629 4.87903L5.25 8.50003" stroke="black" stroke-width="1.5" stroke-linecap="round" stroke-linejoin="round"/>
<path d="M22.371 4.87903L18.75 8.50003" stroke="black" stroke-width="1.5" stroke-linecap="round" stroke-linejoin="round"/>
<path d="M5.25 17.5H18.75" stroke="black" stroke-width="1.5" stroke-linecap="round" stroke-linejoin="round"/>
<path d="M5.25 11.5H18.75" stroke="black" stroke-width="1.5" stroke-linecap="round" stroke-linejoin="round"/>
<path d="M5.25 14.5H18.75" stroke="black" stroke-width="1.5" stroke-linecap="round" stroke-linejoin="round"/>
<path d="M9.75 17.5V8.5" stroke="black" stroke-width="1.5" stroke-linecap="round" stroke-linejoin="round"/>
<path d="M14.25 17.5V8.5" stroke="black" stroke-width="1.5" stroke-linecap="round" stroke-linejoin="round"/>
</svg>
