<svg width="24" height="24" viewBox="0 0 24 24" fill="none" xmlns="http://www.w3.org/2000/svg">
<path fill-rule="evenodd" clip-rule="evenodd" d="M14.712 9.75002C16.5364 9.75588 18.2633 8.92705 19.4 7.50002L21.048 5.43902C21.3831 5.01959 21.469 4.45324 21.2733 3.95331C21.0777 3.45338 20.6301 3.09581 20.0993 3.01531C19.5685 2.93481 19.0351 3.14359 18.7 3.56302L17.055 5.62402C16.4872 6.33782 15.6241 6.75262 14.712 6.75002H8.875C7.9016 6.75167 6.95471 7.06731 6.175 7.65002L3.975 9.30002C3.31226 9.79708 3.17794 10.7373 3.675 11.4C4.17205 12.0628 5.11226 12.1971 5.775 11.7L7.975 10.05C8.23488 9.85574 8.55052 9.75053 8.875 9.75002H10.3L10.733 13.216L8.442 13.98C8.10539 14.0908 7.7406 14.0802 7.411 13.95L4.681 12.858C3.91955 12.5799 3.07492 12.9571 2.77377 13.7097C2.47261 14.4624 2.8239 15.3181 3.567 15.642L6.3 16.734C7.28979 17.1311 8.38841 17.1637 9.4 16.826L12.383 15.826L15.051 16.715C15.4816 16.8582 15.8238 17.1894 15.981 17.615L17.728 22.275C17.9474 22.8609 18.5074 23.2491 19.133 23.249C19.3132 23.2471 19.4916 23.2132 19.66 23.149C20.0327 23.0094 20.3347 22.7273 20.4993 22.365C20.664 22.0026 20.6779 21.5896 20.538 21.217L18.79 16.558C18.3158 15.2848 17.2896 14.2955 16 13.868L13.754 13.12L13.324 9.75002H14.712Z" stroke="black" stroke-width="1.5" stroke-linecap="round" stroke-linejoin="round"/>
<path fill-rule="evenodd" clip-rule="evenodd" d="M12.375 6C13.8247 6 15 4.82475 15 3.375C15 1.92525 13.8247 0.75 12.375 0.75C10.9253 0.75 9.75 1.92525 9.75 3.375C9.75 4.82475 10.9253 6 12.375 6Z" stroke="black" stroke-width="1.5" stroke-linecap="round" stroke-linejoin="round"/>
<path fill-rule="evenodd" clip-rule="evenodd" d="M11.625 23.25C12.8676 23.25 13.875 22.2426 13.875 21C13.875 19.7574 12.8676 18.75 11.625 18.75C10.3824 18.75 9.375 19.7574 9.375 21C9.375 22.2426 10.3824 23.25 11.625 23.25Z" stroke="black" stroke-width="1.5" stroke-linecap="round" stroke-linejoin="round"/>
</svg>
