<svg width="24" height="24" viewBox="0 0 24 24" fill="none" xmlns="http://www.w3.org/2000/svg">
<path fill-rule="evenodd" clip-rule="evenodd" d="M6.375 12C9.4816 12 12 9.4816 12 6.375C12 3.2684 9.4816 0.75 6.375 0.75C3.2684 0.75 0.75 3.2684 0.75 6.375C0.75 9.4816 3.2684 12 6.375 12Z" stroke="black" stroke-width="1.5" stroke-linecap="round" stroke-linejoin="round"/>
<path fill-rule="evenodd" clip-rule="evenodd" d="M14.443 14.563H6.633C5.52844 14.5634 4.58903 15.3689 4.42012 16.4604C4.25121 17.552 4.90322 18.6038 5.956 18.938L17.577 22.629C17.9716 22.7545 18.3933 22.5365 18.519 22.142L20.333 16.431L19.627 16.796C18.178 17.55 15.64 16.87 14.443 14.563Z" stroke="black" stroke-width="1.5" stroke-linecap="round" stroke-linejoin="round"/>
<path d="M15.81 23.25L16.15 22.179" stroke="black" stroke-width="1.5" stroke-linecap="round" stroke-linejoin="round"/>
<path d="M12.597 22.229L12.937 21.158" stroke="black" stroke-width="1.5" stroke-linecap="round" stroke-linejoin="round"/>
<path d="M6.171 20.188L6.511 19.117" stroke="black" stroke-width="1.5" stroke-linecap="round" stroke-linejoin="round"/>
<path d="M9.384 21.209L9.724 20.138" stroke="black" stroke-width="1.5" stroke-linecap="round" stroke-linejoin="round"/>
<path d="M14.443 14.563L15.913 5.34999C15.9386 5.18949 16.0324 5.04793 16.1703 4.96184C16.3082 4.87575 16.4765 4.85356 16.632 4.90099C18.832 5.56899 20.639 5.95199 22.852 6.62699C22.9954 6.67098 23.1153 6.77036 23.1851 6.90308C23.255 7.03581 23.269 7.19091 23.224 7.33399L20.333 16.434" stroke="black" stroke-width="1.5" stroke-linecap="round" stroke-linejoin="round"/>
<path d="M15.476 8.08698L22.333 10.139" stroke="black" stroke-width="1.5" stroke-linecap="round" stroke-linejoin="round"/>
<path d="M10.16 14.567L11.41 20.673" stroke="black" stroke-width="1.5" stroke-linecap="round" stroke-linejoin="round"/>
</svg>
