<svg width="24" height="24" viewBox="0 0 24 24" fill="none" xmlns="http://www.w3.org/2000/svg">
<path d="M3.547 13.333L0.909001 16.064C0.701254 16.2825 0.701254 16.6255 0.909001 16.844L6.942 23.088C7.04017 23.1913 7.17646 23.2499 7.319 23.2499C7.46154 23.2499 7.59783 23.1913 7.696 23.088L10.377 20.314" stroke="black" stroke-width="1.5" stroke-linecap="round" stroke-linejoin="round"/>
<path d="M12.22 5.91803L14.483 3.57603C15.1059 2.91999 15.1059 1.89107 14.483 1.23503C14.188 0.925484 13.7791 0.750305 13.3515 0.750305C12.9239 0.750305 12.515 0.925484 12.22 1.23503L5.433 8.25903C3.518 10.241 3.092 11.676 3.547 13.333L9.958 19.967C11.466 21.528 14.4 20.487 16.745 19.967C18.1497 19.6518 19.5366 19.2623 20.9 18.8C22.031 18.41 22.977 17.666 22.9 16.448C22.8733 15.8738 22.619 15.3338 22.1931 14.9475C21.7673 14.5613 21.2051 14.3607 20.631 14.39L17.131 14.895L22.779 9.04003C23.4025 8.38386 23.4025 7.35421 22.779 6.69803C22.4839 6.38875 22.075 6.21375 21.6475 6.21375C21.22 6.21375 20.8111 6.38875 20.516 6.69803" stroke="black" stroke-width="1.5" stroke-linecap="round" stroke-linejoin="round"/>
<path d="M18.758 8.51804L21.27 5.91804C21.8935 5.26186 21.8935 4.23221 21.27 3.57604C20.9752 3.26655 20.5664 3.09139 20.139 3.09139C19.7116 3.09139 19.3028 3.26655 19.008 3.57604L18.254 4.35704C18.8775 3.70086 18.8775 2.67121 18.254 2.01504C17.9589 1.70576 17.55 1.53076 17.1225 1.53076C16.695 1.53076 16.2861 1.70576 15.991 2.01504L14.483 3.57604" stroke="black" stroke-width="1.5" stroke-linecap="round" stroke-linejoin="round"/>
<path d="M18.254 4.35706L15.753 6.96006" stroke="black" stroke-width="1.5" stroke-linecap="round" stroke-linejoin="round"/>
</svg>
