<svg width="24" height="24" viewBox="0 0 24 24" fill="none" xmlns="http://www.w3.org/2000/svg">
<path fill-rule="evenodd" clip-rule="evenodd" d="M13.312 6C14.7617 6 15.937 4.82475 15.937 3.375C15.937 1.92525 14.7617 0.75 13.312 0.75C11.8622 0.75 10.687 1.92525 10.687 3.375C10.687 4.82475 11.8622 6 13.312 6Z" stroke="black" stroke-width="1.5" stroke-linecap="round" stroke-linejoin="round"/>
<path fill-rule="evenodd" clip-rule="evenodd" d="M4.312 23.25C5.76174 23.25 6.937 22.0747 6.937 20.625C6.937 19.1753 5.76174 18 4.312 18C2.86225 18 1.687 19.1753 1.687 20.625C1.687 22.0747 2.86225 23.25 4.312 23.25Z" stroke="black" stroke-width="1.5" stroke-linecap="round" stroke-linejoin="round"/>
<path d="M8.88099 17.951L10.057 10.5H9.91699C9.34814 10.4977 8.82755 10.8193 8.57499 11.329L7.15399 14.171C6.91426 14.6504 6.43697 14.9656 5.90189 14.9977C5.36681 15.0298 4.85524 14.774 4.55989 14.3267C4.26453 13.8794 4.23026 13.3084 4.46999 12.829L5.89099 9.987C6.64978 8.45886 8.21085 7.49454 9.91699 7.5H16.708C17.2768 7.50206 17.7972 7.18054 18.05 6.671L19.47 3.829C19.8406 3.08783 20.7418 2.78741 21.483 3.158C22.2242 3.52858 22.5246 4.42983 22.154 5.171L20.733 8.013C19.9745 9.54097 18.4138 10.5053 16.708 10.5H16.093L14.293 21.905C14.178 22.6331 13.5511 23.1697 12.814 23.171C12.7349 23.1711 12.656 23.1647 12.578 23.152C11.7603 23.0224 11.2021 22.2548 11.331 21.437L12.353 14.967" stroke="black" stroke-width="1.5" stroke-linecap="round" stroke-linejoin="round"/>
</svg>
