<svg width="24" height="24" viewBox="0 0 24 24" fill="none" xmlns="http://www.w3.org/2000/svg">
<path fill-rule="evenodd" clip-rule="evenodd" d="M0.75 4.75C0.75 4.19772 1.19772 3.75 1.75 3.75H22.25C22.8023 3.75 23.25 4.19772 23.25 4.75V19.25C23.25 19.8023 22.8023 20.25 22.25 20.25H1.75C1.19772 20.25 0.75 19.8023 0.75 19.25V4.75Z" stroke="black" stroke-width="1.5" stroke-linecap="round" stroke-linejoin="round"/>
<path d="M12 3.75V20.25" stroke="black" stroke-width="1.5" stroke-linecap="round" stroke-linejoin="round"/>
<path fill-rule="evenodd" clip-rule="evenodd" d="M12 15C13.6569 15 15 13.6569 15 12C15 10.3431 13.6569 9 12 9C10.3431 9 9 10.3431 9 12C9 13.6569 10.3431 15 12 15Z" stroke="black" stroke-width="1.5" stroke-linecap="round" stroke-linejoin="round"/>
<path d="M0.75 8.25H3.75C4.57843 8.25 5.25 8.92157 5.25 9.75V14.25C5.25 15.0784 4.57843 15.75 3.75 15.75H0.75" stroke="black" stroke-width="1.5" stroke-linecap="round" stroke-linejoin="round"/>
<path d="M23.25 8.25H20.25C19.4216 8.25 18.75 8.92157 18.75 9.75V14.25C18.75 15.0784 19.4216 15.75 20.25 15.75H23.25" stroke="black" stroke-width="1.5" stroke-linecap="round" stroke-linejoin="round"/>
</svg>
