<svg width="24" height="24" viewBox="0 0 24 24" fill="none" xmlns="http://www.w3.org/2000/svg">
<path d="M14.25 11.25V0.75L18.75 4.5L14.25 7.5" stroke="black" stroke-width="1.5" stroke-linecap="round" stroke-linejoin="round"/>
<path d="M11.25 3.75H10.5C5.11522 3.75 0.75 8.11522 0.75 13.5C0.75 18.8848 5.11522 23.25 10.5 23.25H23.25" stroke="black" stroke-width="1.5" stroke-linecap="round" stroke-linejoin="round"/>
<path d="M23.25 3.75H21" stroke="black" stroke-width="1.5" stroke-linecap="round" stroke-linejoin="round"/>
<path d="M23.25 11.25H10.5C9.25736 11.25 8.25 12.2574 8.25 13.5C8.25 14.7426 9.25736 15.75 10.5 15.75H23.25" stroke="black" stroke-width="1.5" stroke-linecap="round" stroke-linejoin="round"/>
<path d="M20.786 7.5H18.75" stroke="black" stroke-width="1.5" stroke-linecap="round" stroke-linejoin="round"/>
<path d="M8.64401 7.79999C7.7233 8.10305 6.88818 8.6214 6.20801 9.31199" stroke="black" stroke-width="1.5" stroke-linecap="round" stroke-linejoin="round"/>
<path d="M4.68001 12.066C4.44199 13.0072 4.44199 13.9928 4.68001 14.934" stroke="black" stroke-width="1.5" stroke-linecap="round" stroke-linejoin="round"/>
<path d="M6.20801 17.688C6.88818 18.3786 7.7233 18.8969 8.64401 19.2" stroke="black" stroke-width="1.5" stroke-linecap="round" stroke-linejoin="round"/>
<path d="M11.802 19.5H14.7" stroke="black" stroke-width="1.5" stroke-linecap="round" stroke-linejoin="round"/>
<path d="M17.888 19.5H20.786" stroke="black" stroke-width="1.5" stroke-linecap="round" stroke-linejoin="round"/>
</svg>
