<svg width="25" height="25" viewBox="0 0 25 25" fill="none" xmlns="http://www.w3.org/2000/svg">
<path fill-rule="evenodd" clip-rule="evenodd" d="M11.2502 11.2502C12.7 11.2502 13.8752 10.075 13.8752 8.62521C13.8752 7.17547 12.7 6.00021 11.2502 6.00021C9.80046 6.00021 8.62521 7.17547 8.62521 8.62521C8.62521 10.075 9.80046 11.2502 11.2502 11.2502Z" stroke="black" stroke-width="1.5" stroke-linecap="round" stroke-linejoin="round"/>
<path d="M0.750206 7.27221L19.5002 0.750214" stroke="black" stroke-width="1.5" stroke-linecap="round" stroke-linejoin="round"/>
<path d="M2.7712 9.84222L3.7602 12.3152C4.94797 15.2986 8.2767 16.815 11.3072 15.7532L11.6072 15.6472L12.5662 17.8862L10.7122 20.9782C10.43 21.4379 10.4164 22.0138 10.6765 22.4864C10.9367 22.9589 11.4306 23.2554 11.9699 23.2628C12.5093 23.2702 13.0111 22.9874 13.2842 22.5222L15.1782 19.3662L16.4672 19.1512C17.1936 19.0296 17.9008 19.4533 18.1362 20.1512L18.8262 22.2202C18.983 22.7446 19.4129 23.142 19.948 23.2571C20.483 23.3722 21.0383 23.1867 21.3968 22.7731C21.7553 22.3595 21.8601 21.7835 21.6702 21.2702L20.9822 19.2042C20.2934 17.0942 18.1604 15.8094 15.9732 16.1872L15.1632 16.3222L14.4442 14.6462L22.2442 11.9102C22.762 11.7422 23.1481 11.3068 23.2531 10.7727C23.358 10.2385 23.1654 9.68943 22.7497 9.33797C22.334 8.98651 21.7605 8.88786 21.2512 9.08022L10.3182 12.9212C8.80296 13.4484 7.14109 12.6902 6.5462 11.2002L5.7122 9.11622" stroke="black" stroke-width="1.5" stroke-linecap="round" stroke-linejoin="round"/>
</svg>
