<svg width="24" height="24" viewBox="0 0 24 24" fill="none" xmlns="http://www.w3.org/2000/svg">
<path fill-rule="evenodd" clip-rule="evenodd" d="M16.25 7C17.6997 7 18.875 5.82475 18.875 4.375C18.875 2.92525 17.6997 1.75 16.25 1.75C14.8003 1.75 13.625 2.92525 13.625 4.375C13.625 5.82475 14.8003 7 16.25 7Z" stroke="black" stroke-width="1.5" stroke-linecap="round" stroke-linejoin="round"/>
<path fill-rule="evenodd" clip-rule="evenodd" d="M20.5 12.43C20.0363 11.3298 19.152 10.4606 18.044 10.016L9 6.36C8.23841 6.07441 7.38798 6.44783 7.08286 7.20181C6.77775 7.95578 7.12914 8.81556 7.875 9.14L11.731 10.7L9.752 13.668C9.53131 13.9989 9.4511 14.4039 9.529 14.794L10.121 17.756L8.439 19.439C7.85302 20.025 7.85302 20.975 8.439 21.561C9.02497 22.147 9.97502 22.147 10.561 21.561L12.811 19.311C13.1656 18.9563 13.3195 18.4478 13.221 17.956L13.03 17L14.75 17.738V20.5C14.75 21.3284 15.4216 22 16.25 22C17.0784 22 17.75 21.3284 17.75 20.5V16.75C17.7496 16.15 17.3916 15.608 16.84 15.372L13.248 13.832L14.57 11.849L16.914 12.796C17.2832 12.945 17.578 13.2346 17.7335 13.6012C17.889 13.9677 17.8924 14.381 17.743 14.75C17.5256 15.2499 17.5964 15.8284 17.9281 16.261C18.2597 16.6936 18.8 16.9122 19.3392 16.832C19.8784 16.7518 20.3316 16.3854 20.523 15.875C20.9756 14.7697 20.9673 13.5292 20.5 12.43Z" stroke="black" stroke-width="1.5" stroke-linecap="round" stroke-linejoin="round"/>
<path d="M4.408 8.93399C3.39167 8.42489 2.75037 7.3851 2.75162 6.24839C2.75287 5.11169 3.39646 4.07332 4.4139 3.56645C5.43135 3.05959 6.64788 3.1713 7.556 3.85499" stroke="black" stroke-width="1.5" stroke-linecap="round" stroke-linejoin="round"/>
</svg>
