<svg width="24" height="24" viewBox="0 0 24 24" fill="none" xmlns="http://www.w3.org/2000/svg">
<path fill-rule="evenodd" clip-rule="evenodd" d="M10.25 6C11.6997 6 12.875 4.82475 12.875 3.375C12.875 1.92525 11.6997 0.75 10.25 0.75C8.80025 0.75 7.625 1.92525 7.625 3.375C7.625 4.82475 8.80025 6 10.25 6Z" stroke="black" stroke-width="1.5" stroke-linecap="round" stroke-linejoin="round"/>
<path fill-rule="evenodd" clip-rule="evenodd" d="M13.249 19.5C13.0164 19.5 12.7871 19.4459 12.579 19.342L8.4 17.25H2.75C2.20955 17.25 1.71091 16.9592 1.44469 16.4889C1.17847 16.0186 1.18585 15.4414 1.464 14.978L5.964 7.478C6.39039 6.7678 7.31175 6.53768 8.022 6.964L11.416 9H14.75C15.5784 9 16.25 9.67158 16.25 10.5C16.25 11.3284 15.5784 12 14.75 12H11C10.728 12.0005 10.461 11.9265 10.228 11.786L7.764 10.308L5.4 14.25H8.75C8.9829 14.2499 9.21263 14.304 9.421 14.408L13.921 16.658C14.5438 16.969 14.8708 17.6677 14.7106 18.3452C14.5505 19.0227 13.9452 19.5009 13.249 19.5V19.5Z" stroke="black" stroke-width="1.5" stroke-linecap="round" stroke-linejoin="round"/>
<path d="M1.25 20.25H4.25C5.19427 20.25 6.08344 20.6946 6.65 21.45L8 23.25" stroke="black" stroke-width="1.5" stroke-linecap="round" stroke-linejoin="round"/>
<path d="M12.5 22.125C12.7071 22.125 12.875 22.2929 12.875 22.5" stroke="black" stroke-width="1.5" stroke-linecap="round" stroke-linejoin="round"/>
<path d="M12.125 22.5C12.125 22.2929 12.2929 22.125 12.5 22.125" stroke="black" stroke-width="1.5" stroke-linecap="round" stroke-linejoin="round"/>
<path d="M12.5 22.875C12.2929 22.875 12.125 22.7071 12.125 22.5" stroke="black" stroke-width="1.5" stroke-linecap="round" stroke-linejoin="round"/>
<path d="M12.875 22.5C12.875 22.7071 12.7071 22.875 12.5 22.875" stroke="black" stroke-width="1.5" stroke-linecap="round" stroke-linejoin="round"/>
<path d="M17 22.125C17.2071 22.125 17.375 22.2929 17.375 22.5" stroke="black" stroke-width="1.5" stroke-linecap="round" stroke-linejoin="round"/>
<path d="M16.625 22.5C16.625 22.2929 16.7929 22.125 17 22.125" stroke="black" stroke-width="1.5" stroke-linecap="round" stroke-linejoin="round"/>
<path d="M17 22.875C16.7929 22.875 16.625 22.7071 16.625 22.5" stroke="black" stroke-width="1.5" stroke-linecap="round" stroke-linejoin="round"/>
<path d="M17.375 22.5C17.375 22.7071 17.2071 22.875 17 22.875" stroke="black" stroke-width="1.5" stroke-linecap="round" stroke-linejoin="round"/>
<path d="M21.5 22.125C21.7071 22.125 21.875 22.2929 21.875 22.5" stroke="black" stroke-width="1.5" stroke-linecap="round" stroke-linejoin="round"/>
<path d="M21.125 22.5C21.125 22.2929 21.2929 22.125 21.5 22.125" stroke="black" stroke-width="1.5" stroke-linecap="round" stroke-linejoin="round"/>
<path d="M21.5 22.875C21.2929 22.875 21.125 22.7071 21.125 22.5" stroke="black" stroke-width="1.5" stroke-linecap="round" stroke-linejoin="round"/>
<path d="M21.875 22.5C21.875 22.7071 21.7071 22.875 21.5 22.875" stroke="black" stroke-width="1.5" stroke-linecap="round" stroke-linejoin="round"/>
</svg>
