<svg width="24" height="25" viewBox="0 0 24 25" fill="none" xmlns="http://www.w3.org/2000/svg">
<path fill-rule="evenodd" clip-rule="evenodd" d="M14.25 5.79C15.6997 5.79 16.875 4.66176 16.875 3.27C16.875 1.87824 15.6997 0.75 14.25 0.75C12.8003 0.75 11.625 1.87824 11.625 3.27C11.625 4.66176 12.8003 5.79 14.25 5.79Z" stroke="black" stroke-width="1.5" stroke-linecap="round" stroke-linejoin="round"/>
<path d="M20 9.61944L22.663 7.65144C23.3006 7.16131 23.4125 6.27149 22.9147 5.64978C22.4168 5.02807 21.4923 4.90306 20.835 5.36856L18.173 7.3356C17.8408 7.59227 17.4076 7.69519 16.989 7.61688L9.98 5.52024C8.75516 5.15378 7.42567 5.30603 6.325 5.9388L3.725 7.43544C3.02391 7.84859 2.80025 8.72673 3.22365 9.40383C3.64706 10.0809 4.55954 10.3043 5.269 9.90456L7.869 8.40984C8.23593 8.19942 8.67867 8.14848 9.087 8.26968L11.038 8.8524L9.338 12.6578L5.962 14.2783C5.75393 14.3781 5.52456 14.43 5.292 14.43H2.25C1.42157 14.43 0.75 15.0747 0.75 15.87C0.75 16.6653 1.42157 17.31 2.25 17.31H5.292C5.98902 17.3088 6.67629 17.1527 7.3 16.854L10.952 15.102L14.829 14.5711C15.1939 14.5189 15.566 14.5998 15.872 14.7977L19.418 17.0671C19.8646 17.3525 20.4358 17.3874 20.9165 17.1588C21.3972 16.9302 21.7144 16.4728 21.7485 15.9588C21.7827 15.4449 21.5286 14.9525 21.082 14.6671L17.536 12.3977C16.6139 11.8089 15.4985 11.566 14.402 11.7151L12.93 11.9167L13.916 9.70872" stroke="black" stroke-width="1.5" stroke-linecap="round" stroke-linejoin="round"/>
<path d="M14.25 18.03V22.35" stroke="black" stroke-width="1.5" stroke-linecap="round" stroke-linejoin="round"/>
<path d="M11.25 22.35H17.25" stroke="black" stroke-width="1.5" stroke-linecap="round" stroke-linejoin="round"/>
</svg>
