<svg width="24" height="25" viewBox="0 0 24 25" fill="none" xmlns="http://www.w3.org/2000/svg">
<path fill-rule="evenodd" clip-rule="evenodd" d="M12.75 6C14.1997 6 15.375 4.82475 15.375 3.375C15.375 1.92525 14.1997 0.75 12.75 0.75C11.3003 0.75 10.125 1.92525 10.125 3.375C10.125 4.82475 11.3003 6 12.75 6Z" stroke="black" stroke-width="1.5" stroke-linecap="round" stroke-linejoin="round"/>
<path fill-rule="evenodd" clip-rule="evenodd" d="M20.544 5.279C20.1537 5.19933 19.7477 5.27883 19.4163 5.49984C19.0849 5.72085 18.8555 6.06506 18.779 6.456C18.5198 7.77344 17.2575 8.64397 15.934 8.418L7.78699 7.25C5.29131 6.85183 2.9066 8.43164 2.29999 10.885C2.20316 11.2709 2.26361 11.6794 2.46802 12.0208C2.67244 12.3621 3.00409 12.6082 3.38999 12.705C3.50974 12.7346 3.63263 12.7497 3.75599 12.75C4.43976 12.745 5.03362 12.2782 5.19999 11.615C5.42805 10.6548 6.36668 10.0402 7.33799 10.215L9.26799 10.492L7.99999 14.908C7.86274 15.5135 7.36492 15.9707 6.74999 16.056L3.53599 16.515C2.71584 16.6324 2.14613 17.3924 2.26349 18.2125C2.38085 19.0326 3.14084 19.6024 3.96099 19.485L7.17499 19.027C8.75142 18.8097 10.0937 17.7713 10.7 16.3L11.363 16.49C12.0763 16.6892 12.5345 17.3827 12.438 18.117L12.008 21.567C11.9277 22.1054 12.1454 22.6451 12.5768 22.977C13.0083 23.309 13.5857 23.3812 14.0856 23.1656C14.5854 22.9501 14.9293 22.4806 14.984 21.939L15.415 18.491C15.704 16.286 14.3306 14.2031 12.19 13.6L11.551 13.418L12.271 10.924L15.489 11.385C18.3955 11.8471 21.1476 9.92962 21.721 7.043C21.8828 6.23092 21.356 5.44134 20.544 5.279Z" stroke="black" stroke-width="1.5" stroke-linecap="round" stroke-linejoin="round"/>
<path d="M18 3L19.211 5.664" stroke="black" stroke-width="1.5" stroke-linecap="round" stroke-linejoin="round"/>
<path d="M20.803 9.16699L21.75 11.25" stroke="black" stroke-width="1.5" stroke-linecap="round" stroke-linejoin="round"/>
</svg>
