<svg width="24" height="25" viewBox="0 0 24 25" fill="none" xmlns="http://www.w3.org/2000/svg">
<path fill-rule="evenodd" clip-rule="evenodd" d="M3.375 7.50009C4.82475 7.50009 6 6.32484 6 4.87509C6 3.42534 4.82475 2.25009 3.375 2.25009C1.92525 2.25009 0.75 3.42534 0.75 4.87509C0.75 6.32484 1.92525 7.50009 3.375 7.50009Z" stroke="black" stroke-width="1.5" stroke-linecap="round" stroke-linejoin="round"/>
<path d="M8.483 4.4761L8.165 6.3841C8.08171 6.88879 7.74699 7.31624 7.277 7.5181L3.535 9.1181C3.10747 9.30102 2.78895 9.67187 2.67267 10.1221C2.5564 10.5723 2.65551 11.051 2.941 11.4181L7.206 16.9001C7.51486 17.2975 7.60386 17.8232 7.443 18.3001L6.453 21.2761C6.26312 21.7894 6.36789 22.3654 6.72638 22.779C7.08487 23.1926 7.64016 23.3781 8.17524 23.263C8.71032 23.1479 9.14024 22.7505 9.297 22.2261L10.289 19.2491C10.7296 17.9113 10.5144 16.444 9.708 15.2891L9.814 15.1831C10.0953 14.9016 10.477 14.7434 10.875 14.7434C11.273 14.7434 11.6547 14.9016 11.936 15.1831L14.314 17.5621C14.9 18.1481 15.85 18.1481 16.436 17.5621C17.022 16.9761 17.022 16.0261 16.436 15.4401L14.057 13.0621C12.3692 11.383 9.66464 11.3119 7.891 12.9001L6.5 11.1141L8.457 10.2741C9.86953 9.67267 10.8754 8.38941 11.122 6.8741L11.278 5.9391" stroke="black" stroke-width="1.5" stroke-linecap="round" stroke-linejoin="round"/>
<path d="M7.5 0.750092C7.5 0.750092 23.25 3.00009 23.25 23.2501" stroke="black" stroke-width="1.5" stroke-linecap="round" stroke-linejoin="round"/>
</svg>
