<svg width="24" height="24" viewBox="0 0 24 24" fill="none" xmlns="http://www.w3.org/2000/svg">
<path fill-rule="evenodd" clip-rule="evenodd" d="M12 23.251C18.2132 23.251 23.25 18.2142 23.25 12.001C23.25 5.78777 18.2132 0.750977 12 0.750977C5.7868 0.750977 0.75 5.78777 0.75 12.001C0.75 18.2142 5.7868 23.251 12 23.251Z" stroke="black" stroke-width="1.5" stroke-linecap="round" stroke-linejoin="round"/>
<path fill-rule="evenodd" clip-rule="evenodd" d="M11.388 5.93899C11.6034 6.17711 11.9094 6.31296 12.2305 6.31296C12.5516 6.31296 12.8576 6.17711 13.073 5.93899L13.618 5.33899C13.9402 4.98286 14.4515 4.8678 14.8952 5.0516C15.3389 5.2354 15.619 5.67835 15.595 6.15799L15.553 6.96999C15.5364 7.29093 15.6567 7.60384 15.8839 7.83107C16.1112 8.0583 16.4241 8.17856 16.745 8.16199L17.557 8.11999C18.0366 8.09595 18.4796 8.37611 18.6634 8.8198C18.8472 9.26348 18.7321 9.77481 18.376 10.097L17.776 10.642C17.5379 10.8574 17.402 11.1634 17.402 11.4845C17.402 11.8056 17.5379 12.1116 17.776 12.327L18.376 12.872C18.7321 13.1942 18.8472 13.7055 18.6634 14.1492C18.4796 14.5929 18.0366 14.873 17.557 14.849L16.745 14.807C16.4239 14.7904 16.1108 14.9108 15.8835 15.1383C15.6563 15.3657 15.5361 15.6789 15.553 16L15.595 16.812C15.619 17.2916 15.3389 17.7346 14.8952 17.9184C14.4515 18.1022 13.9402 17.9871 13.618 17.631L13.073 17.031C12.8576 16.7929 12.5516 16.657 12.2305 16.657C11.9094 16.657 11.6034 16.7929 11.388 17.031L10.843 17.631C10.5208 17.9871 10.0095 18.1022 9.5658 17.9184C9.12211 17.7346 8.84195 17.2916 8.86599 16.812L8.90799 16C8.92692 15.6777 8.80771 15.3626 8.58019 15.1336C8.35268 14.9045 8.03839 14.7832 7.71599 14.8L6.90399 14.842C6.42435 14.866 5.9814 14.5859 5.7976 14.1422C5.6138 13.6985 5.72886 13.1872 6.08499 12.865L6.68499 12.32C6.92311 12.1046 7.05896 11.7986 7.05896 11.4775C7.05896 11.1564 6.92311 10.8504 6.68499 10.635L6.08499 10.09C5.732 9.76782 5.61839 9.25916 5.80078 8.81741C5.98316 8.37566 6.42252 8.0953 6.89999 8.11599L7.71199 8.15799C8.0336 8.17574 8.3476 8.056 8.57574 7.82863C8.80387 7.60125 8.92466 7.28766 8.90799 6.96599L8.86599 6.15399C8.84195 5.67435 9.12211 5.2314 9.5658 5.0476C10.0095 4.8638 10.5208 4.97886 10.843 5.33499L11.388 5.93899Z" stroke="black" stroke-width="1.5" stroke-linecap="round" stroke-linejoin="round"/>
<path fill-rule="evenodd" clip-rule="evenodd" d="M12.23 13.731C13.4727 13.731 14.48 12.7236 14.48 11.481C14.48 10.2383 13.4727 9.23096 12.23 9.23096C10.9874 9.23096 9.98001 10.2383 9.98001 11.481C9.98001 12.7236 10.9874 13.731 12.23 13.731Z" stroke="black" stroke-width="1.5" stroke-linecap="round" stroke-linejoin="round"/>
</svg>
