<svg width="24" height="24" viewBox="0 0 24 24" fill="none" xmlns="http://www.w3.org/2000/svg">
<path fill-rule="evenodd" clip-rule="evenodd" d="M5.975 12.1511C6.1733 12.3701 6.45501 12.4951 6.7505 12.4951C7.046 12.4951 7.32771 12.3701 7.526 12.1511L8.026 11.5951C8.32239 11.267 8.79313 11.161 9.20152 11.3303C9.60991 11.4996 9.8676 11.9075 9.845 12.3491L9.806 13.0961C9.79027 13.3923 9.9011 13.6814 10.1109 13.8912C10.3207 14.101 10.6097 14.2118 10.906 14.1961L11.653 14.1581C12.0945 14.1355 12.5025 14.3931 12.6718 14.8015C12.841 15.2099 12.735 15.6807 12.407 15.9771L11.851 16.4771C11.6319 16.6754 11.5069 16.9571 11.5069 17.2526C11.5069 17.5481 11.6319 17.8298 11.851 18.0281L12.407 18.5281C12.735 18.8244 12.841 19.2952 12.6718 19.7036C12.5025 20.112 12.0945 20.3697 11.653 20.3471L10.906 20.3081C10.6097 20.2923 10.3207 20.4032 10.1109 20.613C9.9011 20.8228 9.79027 21.1118 9.806 21.4081L9.845 22.1551C9.8676 22.5966 9.60991 23.0045 9.20152 23.1738C8.79313 23.3431 8.32239 23.2371 8.026 22.9091L7.526 22.3531C7.32771 22.134 7.046 22.009 6.7505 22.009C6.45501 22.009 6.1733 22.134 5.975 22.3531L5.475 22.9091C5.17861 23.2371 4.70788 23.3431 4.29949 23.1738C3.89109 23.0045 3.63341 22.5966 3.656 22.1551L3.694 21.4081C3.70974 21.1118 3.59891 20.8228 3.38911 20.613C3.17931 20.4032 2.89029 20.2923 2.594 20.3081L1.847 20.3471C1.40679 20.3665 1.00171 20.1077 0.834325 19.7C0.666936 19.2924 0.773209 18.8236 1.1 18.5281L1.656 18.0281C1.87508 17.8298 2.00007 17.5481 2.00007 17.2526C2.00007 16.9571 1.87508 16.6754 1.656 16.4771L1.1 15.9771C0.771983 15.6807 0.665962 15.2099 0.835247 14.8015C1.00453 14.3931 1.41249 14.1355 1.854 14.1581L2.601 14.1961C2.89729 14.2118 3.18631 14.101 3.39611 13.8912C3.60591 13.6814 3.71674 13.3923 3.701 13.0961L3.663 12.3491C3.64671 11.9123 3.90398 11.5115 4.30789 11.3444C4.7118 11.1774 5.17701 11.2794 5.474 11.6001L5.975 12.1511Z" stroke="black" stroke-width="1.5" stroke-linecap="round" stroke-linejoin="round"/>
<path fill-rule="evenodd" clip-rule="evenodd" d="M6.75098 18.7511C7.5794 18.7511 8.25098 18.0795 8.25098 17.2511C8.25098 16.4227 7.5794 15.7511 6.75098 15.7511C5.92255 15.7511 5.25098 16.4227 5.25098 17.2511C5.25098 18.0795 5.92255 18.7511 6.75098 18.7511Z" stroke="black" stroke-width="1.5" stroke-linecap="round" stroke-linejoin="round"/>
<path fill-rule="evenodd" clip-rule="evenodd" d="M16.475 1.65106C16.6733 1.87014 16.955 1.99512 17.2505 1.99512C17.546 1.99512 17.8277 1.87014 18.026 1.65106L18.526 1.09506C18.8224 0.767039 19.2931 0.661018 19.7015 0.830303C20.1099 0.999588 20.3676 1.40755 20.345 1.84906L20.306 2.59606C20.2903 2.89234 20.4011 3.18137 20.6109 3.39117C20.8207 3.60096 21.1097 3.71179 21.406 3.69606L22.153 3.65806C22.5945 3.63547 23.0025 3.89315 23.1718 4.30154C23.341 4.70994 23.235 5.18067 22.907 5.47706L22.351 5.97706C22.1319 6.17536 22.0069 6.45707 22.0069 6.75256C22.0069 7.04805 22.1319 7.32976 22.351 7.52806L22.907 8.02806C23.235 8.32445 23.341 8.79518 23.1718 9.20358C23.0025 9.61197 22.5945 9.86965 22.153 9.84706L21.406 9.80806C21.1097 9.79232 20.8207 9.90316 20.6109 10.113C20.4011 10.3228 20.2903 10.6118 20.306 10.9081L20.345 11.6551C20.3676 12.0966 20.1099 12.5045 19.7015 12.6738C19.2931 12.8431 18.8224 12.7371 18.526 12.4091L18.026 11.8531C17.8277 11.634 17.546 11.509 17.2505 11.509C16.955 11.509 16.6733 11.634 16.475 11.8531L15.975 12.4091C15.6786 12.7371 15.2079 12.8431 14.7995 12.6738C14.3911 12.5045 14.1334 12.0966 14.156 11.6551L14.194 10.9081C14.2097 10.6118 14.0989 10.3228 13.8891 10.113C13.6793 9.90316 13.3903 9.79232 13.094 9.80806L12.347 9.84706C11.9068 9.86646 11.5017 9.60765 11.3343 9.20005C11.1669 8.79244 11.2732 8.32364 11.6 8.02806L12.156 7.52806C12.3751 7.32976 12.5001 7.04805 12.5001 6.75256C12.5001 6.45707 12.3751 6.17536 12.156 5.97706L11.6 5.47706C11.272 5.18067 11.166 4.70994 11.3352 4.30154C11.5045 3.89315 11.9125 3.63547 12.354 3.65806L13.101 3.69606C13.3973 3.71179 13.6863 3.60096 13.8961 3.39117C14.1059 3.18137 14.2167 2.89234 14.201 2.59606L14.163 1.84906C14.1467 1.41227 14.404 1.01148 14.8079 0.844429C15.2118 0.677378 15.677 0.779359 15.974 1.10006L16.475 1.65106Z" stroke="black" stroke-width="1.5" stroke-linecap="round" stroke-linejoin="round"/>
<path fill-rule="evenodd" clip-rule="evenodd" d="M17.251 8.2511C18.0794 8.2511 18.751 7.57953 18.751 6.7511C18.751 5.92267 18.0794 5.2511 17.251 5.2511C16.4225 5.2511 15.751 5.92267 15.751 6.7511C15.751 7.57953 16.4225 8.2511 17.251 8.2511Z" stroke="black" stroke-width="1.5" stroke-linecap="round" stroke-linejoin="round"/>
</svg>
