<svg width="24" height="24" viewBox="0 0 24 24" fill="none" xmlns="http://www.w3.org/2000/svg">
<path d="M21.684 9.39C21.592 9.72762 21.4049 10.0317 21.145 10.266L20.173 11.144C19.789 11.4906 19.5698 11.9837 19.5698 12.501C19.5698 13.0183 19.789 13.5114 20.173 13.858L21.145 14.736C21.7197 15.2543 21.9057 16.0783 21.6094 16.7933C21.3132 17.5082 20.5988 17.9591 19.826 17.919L18.518 17.852C18.0016 17.8259 17.4982 18.0197 17.1327 18.3854C16.7671 18.7511 16.5736 19.2546 16.6 19.771L16.667 21.079C16.7085 21.8527 16.2578 22.5685 15.5421 22.8655C14.8265 23.1624 14.0014 22.9759 13.483 22.4L12.605 21.428C12.2584 21.044 11.7653 20.8248 11.248 20.8248C10.7307 20.8248 10.2376 21.044 9.891 21.428L9.013 22.4C8.49446 22.975 7.66989 23.161 6.95473 22.8642C6.23957 22.5674 5.78898 21.8522 5.83 21.079L5.9 19.771C5.92642 19.2544 5.73274 18.7508 5.36697 18.385C5.0012 18.0193 4.49759 17.8256 3.981 17.852L2.673 17.919C1.90015 17.9591 1.1858 17.5082 0.889544 16.7933C0.593285 16.0783 0.779317 15.2543 1.354 14.736L2.326 13.858C2.71001 13.5114 2.9292 13.0183 2.9292 12.501C2.9292 11.9837 2.71001 11.4906 2.326 11.144L1.354 10.266C0.779853 9.74804 0.593718 8.92486 0.889161 8.21027C1.18461 7.49568 1.89771 7.04429 2.67 7.083L3.978 7.15C4.4951 7.17731 4.99953 6.98402 5.36597 6.61815C5.73242 6.25227 5.92649 5.74815 5.9 5.231L5.83 3.923C5.78806 3.14941 6.23832 2.4334 6.95371 2.13605C7.6691 1.8387 8.49423 2.0246 9.013 2.6L9.891 3.572C10.2373 3.9566 10.7305 4.17619 11.248 4.17619C11.7655 4.17619 12.2587 3.9566 12.605 3.572L13.483 2.6C14.0025 2.02727 14.826 1.84311 15.54 2.14" stroke="black" stroke-width="1.5" stroke-linecap="round" stroke-linejoin="round"/>
<path d="M7.60001 10.641L10.113 13.992C10.3874 14.3576 10.8136 14.5782 11.2706 14.591C11.7276 14.6039 12.1655 14.4076 12.46 14.058L23.248 1.25098" stroke="black" stroke-width="1.5" stroke-linecap="round" stroke-linejoin="round"/>
</svg>
