<svg width="24" height="24" viewBox="0 0 24 24" fill="none" xmlns="http://www.w3.org/2000/svg">
<path fill-rule="evenodd" clip-rule="evenodd" d="M7.28101 9.37594C7.52896 9.64973 7.88112 9.80591 8.25051 9.80591C8.61989 9.80591 8.97205 9.64973 9.22001 9.37594L9.84701 8.67594C10.2174 8.26631 10.8055 8.13397 11.3157 8.34541C11.8259 8.55685 12.1479 9.06637 12.12 9.61794L12.073 10.5519C12.0522 10.9215 12.19 11.2825 12.4517 11.5442C12.7135 11.806 13.0744 11.9437 13.444 11.9229L14.378 11.8759C14.9299 11.8473 15.4401 12.1694 15.6515 12.68C15.8629 13.1907 15.7297 13.7791 15.319 14.1489L14.625 14.7759C14.3506 15.0236 14.1941 15.3759 14.1941 15.7454C14.1941 16.115 14.3506 16.4673 14.625 16.7149L15.319 17.3419C15.7297 17.7118 15.8629 18.3002 15.6515 18.8109C15.4401 19.3215 14.9299 19.6436 14.378 19.6149L13.444 19.5679C13.0748 19.5487 12.7149 19.687 12.4535 19.9484C12.1921 20.2098 12.0538 20.5698 12.073 20.9389L12.12 21.8729C12.1479 22.4245 11.8259 22.934 11.3157 23.1455C10.8055 23.3569 10.2174 23.2246 9.84701 22.8149L9.22001 22.1149C8.97205 21.8412 8.61989 21.685 8.25051 21.685C7.88112 21.685 7.52896 21.8412 7.28101 22.1149L6.65401 22.8149C6.28358 23.2246 5.69553 23.3569 5.18533 23.1455C4.67513 22.934 4.35308 22.4245 4.38101 21.8729L4.42801 20.9389C4.44656 20.57 4.30809 20.2103 4.04684 19.9491C3.7856 19.6879 3.42599 19.5494 3.05701 19.5679L2.12301 19.6149C1.57143 19.6429 1.06192 19.3208 0.850476 18.8106C0.639033 18.3004 0.771375 17.7124 1.18101 17.3419L1.87601 16.7149C2.1498 16.467 2.30598 16.1148 2.30598 15.7454C2.30598 15.3761 2.1498 15.0239 1.87601 14.7759L1.18101 14.1489C0.771375 13.7785 0.639033 13.1905 0.850476 12.6803C1.06192 12.1701 1.57143 11.848 2.12301 11.8759L3.05701 11.9229C3.42617 11.9421 3.78615 11.8039 4.04754 11.5425C4.30893 11.2811 4.4472 10.9211 4.42801 10.5519L4.38101 9.61794C4.35308 9.06637 4.67513 8.55685 5.18533 8.34541C5.69553 8.13397 6.28358 8.26631 6.65401 8.67594L7.28101 9.37594Z" stroke="black" stroke-width="1.5" stroke-linecap="round" stroke-linejoin="round"/>
<path fill-rule="evenodd" clip-rule="evenodd" d="M8.25 17.626C9.28553 17.626 10.125 16.7865 10.125 15.751C10.125 14.7154 9.28553 13.876 8.25 13.876C7.21447 13.876 6.375 14.7154 6.375 15.751C6.375 16.7865 7.21447 17.626 8.25 17.626Z" stroke="black" stroke-width="1.5" stroke-linecap="round" stroke-linejoin="round"/>
<path d="M18.638 5C18.4309 5 18.263 5.16789 18.263 5.375C18.263 5.58211 18.4309 5.75 18.638 5.75C18.8451 5.75 19.013 5.58211 19.013 5.375C19.013 5.16789 18.8451 5 18.638 5V5" stroke="black" stroke-width="1.5" stroke-linecap="round" stroke-linejoin="round"/>
<path fill-rule="evenodd" clip-rule="evenodd" d="M21.194 1.84797C21.4712 1.74003 21.7861 1.80617 21.9964 2.01654C22.2068 2.22691 22.2729 2.54173 22.165 2.81897L21.665 4.10497C21.5463 4.4097 21.639 4.75623 21.894 4.96097L22.969 5.82497C23.2008 6.0111 23.3008 6.31657 23.2239 6.60373C23.147 6.8909 22.9078 7.10555 22.614 7.15097L21.251 7.36197C20.9278 7.41139 20.6739 7.6648 20.624 7.98797L20.413 9.35197C20.3676 9.64576 20.1529 9.88499 19.8658 9.96187C19.5786 10.0388 19.2731 9.93877 19.087 9.70697L18.223 8.63197C18.0182 8.37714 17.672 8.28413 17.367 8.40197L16.081 8.90197C15.8038 9.0099 15.4889 8.94377 15.2786 8.7334C15.0682 8.52303 15.0021 8.2082 15.11 7.93097L15.61 6.64497C15.7287 6.34024 15.636 5.99371 15.381 5.78897L14.306 4.92397C14.0747 4.73799 13.975 4.43293 14.0518 4.14622C14.1287 3.85951 14.3676 3.64525 14.661 3.59997L16.024 3.38897C16.3473 3.33882 16.6009 3.08521 16.651 2.76197L16.862 1.39997C16.9069 1.10611 17.1214 0.866643 17.4086 0.78971C17.6957 0.712776 18.0012 0.812941 18.187 1.04497L19.052 2.11997C19.2569 2.37471 19.6033 2.46737 19.908 2.34897L21.194 1.84797Z" stroke="black" stroke-width="1.5" stroke-linecap="round" stroke-linejoin="round"/>
</svg>
