<svg width="24" height="24" viewBox="0 0 24 24" fill="none" xmlns="http://www.w3.org/2000/svg">
<path d="M15.75 21.751H21C21.8284 21.751 22.5 21.0794 22.5 20.251V3.75098C22.5 2.92255 21.8284 2.25098 21 2.25098H3C2.17157 2.25098 1.5 2.92255 1.5 3.75098V20.251C1.5 21.0794 2.17157 21.751 3 21.751H8.25" stroke="black" stroke-width="1.5" stroke-linecap="round" stroke-linejoin="round"/>
<path d="M1.5 6.00098H22.5" stroke="black" stroke-width="1.5" stroke-linecap="round" stroke-linejoin="round"/>
<path fill-rule="evenodd" clip-rule="evenodd" d="M12 18.4509C14.0711 18.4509 15.75 16.772 15.75 14.7009C15.75 12.6299 14.0711 10.9509 12 10.9509C9.92893 10.9509 8.25 12.6299 8.25 14.7009C8.25 16.772 9.92893 18.4509 12 18.4509Z" stroke="black" stroke-width="1.5" stroke-linecap="round" stroke-linejoin="round"/>
<path d="M12 10.951V9.151" stroke="black" stroke-width="1.5" stroke-linecap="round" stroke-linejoin="round"/>
<path d="M12 20.2509V18.4509" stroke="black" stroke-width="1.5" stroke-linecap="round" stroke-linejoin="round"/>
<path d="M15.75 14.7009H17.55" stroke="black" stroke-width="1.5" stroke-linecap="round" stroke-linejoin="round"/>
<path d="M6.45001 14.7009H8.25001" stroke="black" stroke-width="1.5" stroke-linecap="round" stroke-linejoin="round"/>
<path d="M8.45898 10.7419L9.56598 11.8479" stroke="black" stroke-width="1.5" stroke-linecap="round" stroke-linejoin="round"/>
<path d="M15.541 10.7419L14.434 11.8479" stroke="black" stroke-width="1.5" stroke-linecap="round" stroke-linejoin="round"/>
<path d="M8.45898 18.66L9.56598 17.553" stroke="black" stroke-width="1.5" stroke-linecap="round" stroke-linejoin="round"/>
<path d="M15.541 18.66L14.434 17.553" stroke="black" stroke-width="1.5" stroke-linecap="round" stroke-linejoin="round"/>
<path d="M12 13.9509C12.4142 13.9509 12.75 14.2867 12.75 14.7009C12.75 15.1151 12.4142 15.4509 12 15.4509C11.5858 15.4509 11.25 15.1151 11.25 14.7009C11.25 14.2867 11.5858 13.9509 12 13.9509" stroke="black" stroke-width="1.5" stroke-linecap="round" stroke-linejoin="round"/>
</svg>
