<svg width="24" height="25" viewBox="0 0 24 25" fill="none" xmlns="http://www.w3.org/2000/svg">
<path d="M13.5 18.03C13.5854 19.5735 14.1037 21.0661 15 22.35H9C9.89635 21.0661 10.4146 19.5735 10.5 18.03" stroke="black" stroke-width="1.5" stroke-linecap="round" stroke-linejoin="round"/>
<path d="M6.75 22.35H17.25" stroke="black" stroke-width="1.5" stroke-linecap="round" stroke-linejoin="round"/>
<path d="M0.75 15.15H23.25" stroke="black" stroke-width="1.5" stroke-linecap="round" stroke-linejoin="round"/>
<path d="M16.5 0.75H21.75C22.5784 0.75 23.25 1.39471 23.25 2.19V16.59C23.25 17.3853 22.5784 18.03 21.75 18.03H2.25C1.42157 18.03 0.75 17.3853 0.75 16.59V2.19C0.75 1.39471 1.42157 0.75 2.25 0.75H7.5" stroke="black" stroke-width="1.5" stroke-linecap="round" stroke-linejoin="round"/>
<path fill-rule="evenodd" clip-rule="evenodd" d="M12 10.542C14.0711 10.542 15.75 8.93027 15.75 6.94204C15.75 4.95382 14.0711 3.34204 12 3.34204C9.92893 3.34204 8.25 4.95382 8.25 6.94204C8.25 8.93027 9.92893 10.542 12 10.542Z" stroke="black" stroke-width="1.5" stroke-linecap="round" stroke-linejoin="round"/>
<path d="M12 3.34201V1.61401" stroke="black" stroke-width="1.5" stroke-linecap="round" stroke-linejoin="round"/>
<path d="M12 12.27V10.542" stroke="black" stroke-width="1.5" stroke-linecap="round" stroke-linejoin="round"/>
<path d="M15.75 6.94202H17.55" stroke="black" stroke-width="1.5" stroke-linecap="round" stroke-linejoin="round"/>
<path d="M6.45001 6.94202H8.25001" stroke="black" stroke-width="1.5" stroke-linecap="round" stroke-linejoin="round"/>
<path d="M8.45898 3.14136L9.56598 4.20312" stroke="black" stroke-width="1.5" stroke-linecap="round" stroke-linejoin="round"/>
<path d="M15.541 3.14136L14.434 4.20312" stroke="black" stroke-width="1.5" stroke-linecap="round" stroke-linejoin="round"/>
<path d="M8.45898 10.7427L9.56598 9.67993" stroke="black" stroke-width="1.5" stroke-linecap="round" stroke-linejoin="round"/>
<path d="M15.541 10.7427L14.434 9.67993" stroke="black" stroke-width="1.5" stroke-linecap="round" stroke-linejoin="round"/>
<path d="M12 6.22205C12.4142 6.22205 12.75 6.5444 12.75 6.94205C12.75 7.33969 12.4142 7.66205 12 7.66205C11.5858 7.66205 11.25 7.33969 11.25 6.94205C11.25 6.5444 11.5858 6.22205 12 6.22205" stroke="black" stroke-width="1.5" stroke-linecap="round" stroke-linejoin="round"/>
</svg>
