<svg width="24" height="24" viewBox="0 0 24 24" fill="none" xmlns="http://www.w3.org/2000/svg">
<path fill-rule="evenodd" clip-rule="evenodd" d="M10.5481 2.43904C10.9195 2.85042 11.4479 3.0852 12.0021 3.0852C12.5564 3.0852 13.0847 2.85042 13.4561 2.43904L14.3961 1.39704C14.952 0.783829 15.8333 0.586125 16.5978 0.903119C17.3624 1.22011 17.8452 1.9834 17.8041 2.81004L17.7321 4.21004C17.7033 4.76392 17.9108 5.30402 18.3029 5.6962C18.6951 6.08838 19.2352 6.29583 19.7891 6.26704L21.1891 6.19504C22.018 6.15093 22.7848 6.63404 23.1028 7.40083C23.4208 8.16761 23.221 9.05157 22.6041 9.60704L21.5621 10.547C21.1507 10.9185 20.916 11.4468 20.916 12.001C20.916 12.5553 21.1507 13.0836 21.5621 13.455L22.6041 14.395C23.2198 14.9504 23.4191 15.8333 23.1018 16.5994C22.7844 17.3654 22.0192 17.8487 21.1911 17.806L19.7911 17.734C19.2374 17.7059 18.6977 17.9136 18.3056 18.3056C17.9136 18.6976 17.706 19.2373 17.7341 19.791L17.8061 21.191C17.8488 22.0191 17.3655 22.7844 16.5994 23.1017C15.8334 23.4191 14.9505 23.2197 14.3951 22.604L13.4551 21.562C13.0837 21.1507 12.5554 20.9159 12.0011 20.9159C11.4469 20.9159 10.9185 21.1507 10.5471 21.562L9.6041 22.605C9.0487 23.2207 8.16583 23.4201 7.39978 23.1027C6.63373 22.7854 6.15043 22.0201 6.19311 21.192L6.26511 19.792C6.29294 19.2384 6.08518 18.6989 5.69322 18.3069C5.30126 17.915 4.76172 17.7072 4.20811 17.735L2.80811 17.807C1.9825 17.8463 1.2211 17.3631 0.90503 16.5994C0.588962 15.8357 0.786236 14.9557 1.39811 14.4L2.44011 13.46C2.85148 13.0886 3.08626 12.5603 3.08626 12.006C3.08626 11.4518 2.85148 10.9235 2.44011 10.552L1.39811 9.61204C0.781597 9.0568 0.581728 8.1734 0.899178 7.40684C1.21663 6.64029 1.98254 6.15685 2.81111 6.20004L4.21111 6.27204C4.76571 6.30059 5.30639 6.09252 5.69878 5.69955C6.09118 5.30659 6.29846 4.7656 6.26911 4.21104L6.19711 2.81104C6.15743 1.98525 6.64044 1.22344 7.40427 0.9071C8.1681 0.590761 9.04831 0.787999 9.6041 1.40004L10.5481 2.43904Z" stroke="black" stroke-width="1.5" stroke-linecap="round" stroke-linejoin="round"/>
<path fill-rule="evenodd" clip-rule="evenodd" d="M12.0021 18.0011C15.3158 18.0011 18.0021 15.3148 18.0021 12.0011C18.0021 8.68739 15.3158 6.0011 12.0021 6.0011C8.6884 6.0011 6.00211 8.68739 6.00211 12.0011C6.00211 15.3148 8.6884 18.0011 12.0021 18.0011Z" stroke="black" stroke-width="1.5" stroke-linecap="round" stroke-linejoin="round"/>
<path d="M12.0021 6.0011V12.0011" stroke="black" stroke-width="1.5" stroke-linecap="round" stroke-linejoin="round"/>
<path d="M12.0021 12.0011L7.4021 15.8511" stroke="black" stroke-width="1.5" stroke-linecap="round" stroke-linejoin="round"/>
<path d="M12.0021 12.0011L16.8701 15.4791" stroke="black" stroke-width="1.5" stroke-linecap="round" stroke-linejoin="round"/>
</svg>
