<svg width="24" height="24" viewBox="0 0 24 24" fill="none" xmlns="http://www.w3.org/2000/svg">
<path fill-rule="evenodd" clip-rule="evenodd" d="M11.387 5.93899C11.6025 6.17715 11.9088 6.31303 12.23 6.31303C12.5512 6.31303 12.8574 6.17715 13.073 5.93899L13.618 5.33899C13.9399 4.98243 14.4513 4.8671 14.8951 5.05102C15.3388 5.23494 15.6187 5.67828 15.594 6.15799L15.553 6.96999C15.5364 7.29093 15.6567 7.60384 15.8839 7.83107C16.1112 8.0583 16.4241 8.17856 16.745 8.16199L17.557 8.11999C18.037 8.09519 18.4806 8.37541 18.6644 8.81954C18.8481 9.26367 18.7322 9.7754 18.375 10.097L17.775 10.642C17.5363 10.857 17.4 11.1632 17.4 11.4845C17.4 11.8058 17.5363 12.112 17.775 12.327L18.375 12.872C18.7322 13.1936 18.8481 13.7053 18.6644 14.1494C18.4806 14.5936 18.037 14.8738 17.557 14.849L16.745 14.807C16.4239 14.7904 16.1108 14.9108 15.8835 15.1383C15.6563 15.3657 15.5361 15.6789 15.553 16L15.594 16.812C15.6187 17.2917 15.3388 17.7351 14.8951 17.919C14.4513 18.1029 13.9399 17.9876 13.618 17.631L13.073 17.031C12.8574 16.7928 12.5512 16.657 12.23 16.657C11.9088 16.657 11.6025 16.7928 11.387 17.031L10.843 17.631C10.5208 17.9871 10.0095 18.1022 9.5658 17.9184C9.12211 17.7346 8.84195 17.2916 8.86599 16.812L8.90699 16C8.92589 15.6779 8.80681 15.363 8.57952 15.134C8.35224 14.905 8.03822 14.7835 7.71599 14.8L6.90399 14.842C6.42435 14.866 5.9814 14.5859 5.7976 14.1422C5.6138 13.6985 5.72886 13.1872 6.08499 12.865L6.68499 12.32C6.92311 12.1046 7.05896 11.7986 7.05896 11.4775C7.05896 11.1564 6.92311 10.8504 6.68499 10.635L6.08499 10.09C5.732 9.76782 5.61839 9.25916 5.80078 8.81741C5.98316 8.37566 6.42252 8.0953 6.89999 8.11599L7.71199 8.15799C8.03343 8.17544 8.34716 8.05558 8.57507 7.82824C8.80298 7.6009 8.92363 7.28747 8.90699 6.96599L8.86599 6.15399C8.84195 5.67435 9.12211 5.2314 9.5658 5.0476C10.0095 4.8638 10.5208 4.97886 10.843 5.33499L11.387 5.93899Z" stroke="black" stroke-width="1.5" stroke-linecap="round" stroke-linejoin="round"/>
<path fill-rule="evenodd" clip-rule="evenodd" d="M12.23 13.731C13.4727 13.731 14.48 12.7236 14.48 11.481C14.48 10.2383 13.4727 9.23096 12.23 9.23096C10.9874 9.23096 9.98001 10.2383 9.98001 11.481C9.98001 12.7236 10.9874 13.731 12.23 13.731Z" stroke="black" stroke-width="1.5" stroke-linecap="round" stroke-linejoin="round"/>
<path fill-rule="evenodd" clip-rule="evenodd" d="M0.75 2.25098C0.75 1.42255 1.42157 0.750977 2.25 0.750977H21.75C22.5784 0.750977 23.25 1.42255 23.25 2.25098V21.751C23.25 22.5794 22.5784 23.251 21.75 23.251H2.25C1.42157 23.251 0.75 22.5794 0.75 21.751V2.25098Z" stroke="black" stroke-width="1.5" stroke-linecap="round" stroke-linejoin="round"/>
</svg>
