<svg width="24" height="24" viewBox="0 0 24 24" fill="none" xmlns="http://www.w3.org/2000/svg">
<path d="M0.75 14.25V23.25" stroke="black" stroke-width="1.5" stroke-linecap="round" stroke-linejoin="round"/>
<path d="M0.75 21.75H17.25C17.25 20.0931 15.9069 18.75 14.25 18.75H10.5C10.5 17.0931 9.15685 15.75 7.5 15.75H0.75" stroke="black" stroke-width="1.5" stroke-linecap="round" stroke-linejoin="round"/>
<path d="M6.75 18.75H10.5" stroke="black" stroke-width="1.5" stroke-linecap="round" stroke-linejoin="round"/>
<path fill-rule="evenodd" clip-rule="evenodd" d="M16.474 1.65106C16.6723 1.87014 16.954 1.99512 17.2495 1.99512C17.545 1.99512 17.8267 1.87014 18.025 1.65106L18.525 1.09506C18.8214 0.767039 19.2921 0.661018 19.7005 0.830303C20.1089 0.999588 20.3666 1.40755 20.344 1.84906L20.306 2.59606C20.2896 2.89252 20.4002 3.18192 20.6102 3.39187C20.8201 3.60181 21.1095 3.71244 21.406 3.69606L22.153 3.65706C22.5943 3.63562 23.0014 3.89371 23.1703 4.30193C23.3392 4.71015 23.2334 5.18047 22.906 5.47706L22.351 5.97706C22.1313 6.17503 22.0059 6.45686 22.0059 6.75256C22.0059 7.04826 22.1313 7.33009 22.351 7.52806L22.906 8.02806C23.2338 8.32433 23.3399 8.79479 23.1709 9.20307C23.0019 9.61135 22.5943 9.86919 22.153 9.84706L21.406 9.80906C21.1095 9.79268 20.8201 9.9033 20.6102 10.1133C20.4002 10.3232 20.2896 10.6126 20.306 10.9091L20.344 11.6561C20.3666 12.0976 20.1089 12.5055 19.7005 12.6748C19.2921 12.8441 18.8214 12.7381 18.525 12.4101L18.025 11.8541C17.8267 11.635 17.545 11.51 17.2495 11.51C16.954 11.51 16.6723 11.635 16.474 11.8541L15.974 12.4101C15.6776 12.7381 15.2069 12.8441 14.7985 12.6748C14.3901 12.5055 14.1324 12.0976 14.155 11.6561L14.193 10.9091C14.2094 10.6126 14.0987 10.3232 13.8888 10.1133C13.6789 9.9033 13.3895 9.79268 13.093 9.80906L12.346 9.84706C11.9055 9.86652 11.5002 9.6074 11.3329 9.19941C11.1657 8.79142 11.2726 8.32237 11.6 8.02706L12.155 7.52706C12.3746 7.32909 12.5 7.04726 12.5 6.75156C12.5 6.45586 12.3746 6.17403 12.155 5.97606L11.6 5.47606C11.2726 5.17947 11.1668 4.70915 11.3357 4.30093C11.5046 3.89271 11.9117 3.63462 12.353 3.65606L13.1 3.69506C13.3965 3.71144 13.6859 3.60081 13.8958 3.39087C14.1057 3.18092 14.2164 2.89152 14.2 2.59506L14.162 1.84806C14.1461 1.41145 14.4036 1.01107 14.8074 0.844283C15.2112 0.677498 15.6761 0.779522 15.973 1.10006L16.474 1.65106Z" stroke="black" stroke-width="1.5" stroke-linecap="round" stroke-linejoin="round"/>
<path fill-rule="evenodd" clip-rule="evenodd" d="M17.25 8.25C18.0784 8.25 18.75 7.57843 18.75 6.75C18.75 5.92157 18.0784 5.25 17.25 5.25C16.4216 5.25 15.75 5.92157 15.75 6.75C15.75 7.57843 16.4216 8.25 17.25 8.25Z" stroke="black" stroke-width="1.5" stroke-linecap="round" stroke-linejoin="round"/>
</svg>
