<svg width="24" height="24" viewBox="0 0 24 24" fill="none" xmlns="http://www.w3.org/2000/svg">
<path d="M0.85498 14.251V23.251" stroke="black" stroke-width="1.5" stroke-linecap="round" stroke-linejoin="round"/>
<path d="M0.85498 21.751H15.855C15.855 20.0941 14.5118 18.751 12.855 18.751H9.10498C9.10498 17.0941 7.76183 15.751 6.10498 15.751H0.85498" stroke="black" stroke-width="1.5" stroke-linecap="round" stroke-linejoin="round"/>
<path d="M6.10498 18.751H9.10498" stroke="black" stroke-width="1.5" stroke-linecap="round" stroke-linejoin="round"/>
<path fill-rule="evenodd" clip-rule="evenodd" d="M15.104 12.001C16.3466 12.001 17.354 10.9936 17.354 9.75098C17.354 8.50834 16.3466 7.50098 15.104 7.50098C13.8614 7.50098 12.854 8.50834 12.854 9.75098C12.854 10.9936 13.8614 12.001 15.104 12.001Z" stroke="black" stroke-width="1.5" stroke-linecap="round" stroke-linejoin="round"/>
<path d="M16.925 16.5L17.084 15.387C17.786 15.1423 18.4359 14.7682 19 14.284L20.946 15.065C21.6388 15.3432 22.4307 15.0695 22.804 14.423L23.004 14.078C23.3772 13.4315 23.2182 12.6089 22.631 12.148L20.998 10.866C21.1473 10.1298 21.1473 9.37115 20.998 8.63498L22.631 7.35298C23.2169 6.89097 23.3741 6.06855 23 5.42298L22.8 5.07798C22.4267 4.43142 21.6348 4.15779 20.942 4.43598L19 5.21698C18.4371 4.73438 17.789 4.3613 17.089 4.11698L16.789 2.04298C16.6851 1.30083 16.0494 0.749237 15.3 0.750981H14.9C14.1557 0.753363 13.5257 1.3012 13.42 2.03798L13.12 4.11198C12.4203 4.3563 11.7725 4.72939 11.21 5.21198L9.26697 4.43598C8.57445 4.15837 7.78316 4.43193 7.40997 5.07798L7.20997 5.42298C6.83649 6.06926 6.99504 6.89182 7.58197 7.35298L9.21697 8.63498C9.06629 9.37101 9.06629 10.1299 9.21697 10.866L7.58297 12.148" stroke="black" stroke-width="1.5" stroke-linecap="round" stroke-linejoin="round"/>
</svg>
