<svg width="24" height="24" viewBox="0 0 24 24" fill="none" xmlns="http://www.w3.org/2000/svg">
<path d="M17.394 17.395L23.25 23.251" stroke="black" stroke-width="1.5" stroke-linecap="round" stroke-linejoin="round"/>
<path fill-rule="evenodd" clip-rule="evenodd" d="M10.5 12.001C11.3284 12.001 12 11.3294 12 10.501C12 9.67255 11.3284 9.00098 10.5 9.00098C9.67157 9.00098 9 9.67255 9 10.501C9 11.3294 9.67157 12.001 10.5 12.001Z" stroke="black" stroke-width="1.5" stroke-linecap="round" stroke-linejoin="round"/>
<path fill-rule="evenodd" clip-rule="evenodd" d="M9.22601 4.69996C9.39468 4.13724 9.91255 3.75183 10.5 3.75183C11.0875 3.75183 11.6053 4.13724 11.774 4.69996L12.216 6.15296C12.3674 6.65338 12.8805 6.95102 13.39 6.83396L14.862 6.49296C15.435 6.36297 16.0257 6.62193 16.3183 7.13137C16.6109 7.64082 16.537 8.28155 16.136 8.71096L15.102 9.81996C14.7451 10.2038 14.7451 10.7981 15.102 11.182L16.132 12.293C16.533 12.7224 16.6069 13.3631 16.3143 13.8726C16.0217 14.382 15.431 14.641 14.858 14.511L13.386 14.17C12.8765 14.0529 12.3634 14.3505 12.212 14.851L11.774 16.3C11.6053 16.8627 11.0875 17.2481 10.5 17.2481C9.91255 17.2481 9.39468 16.8627 9.22601 16.3L8.78301 14.847C8.63209 14.3467 8.11928 14.049 7.61001 14.166L6.13701 14.507C5.56406 14.637 4.97335 14.378 4.68073 13.8686C4.3881 13.3591 4.46204 12.7184 4.86301 12.289L5.89401 11.178C6.25096 10.7941 6.25096 10.1998 5.89401 9.81596L4.86301 8.70896C4.46204 8.27955 4.3881 7.63882 4.68073 7.12937C4.97335 6.61993 5.56406 6.36097 6.13701 6.49096L7.61001 6.83196C8.11928 6.94895 8.63209 6.65123 8.78301 6.15096L9.22601 4.69996Z" stroke="black" stroke-width="1.5" stroke-linecap="round" stroke-linejoin="round"/>
<path fill-rule="evenodd" clip-rule="evenodd" d="M10.5 20.251C15.8848 20.251 20.25 15.8858 20.25 10.501C20.25 5.1162 15.8848 0.750977 10.5 0.750977C5.11522 0.750977 0.75 5.1162 0.75 10.501C0.75 15.8858 5.11522 20.251 10.5 20.251Z" stroke="black" stroke-width="1.5" stroke-linecap="round" stroke-linejoin="round"/>
</svg>
