<svg width="25" height="25" viewBox="0 0 25 25" fill="none" xmlns="http://www.w3.org/2000/svg">
<path fill-rule="evenodd" clip-rule="evenodd" d="M11.7467 18.9734C16.4921 18.2176 19.7262 13.758 18.9703 9.01266C18.2145 4.26733 13.7549 1.03321 9.00962 1.78904C4.2643 2.54487 1.03017 7.00444 1.786 11.7498C2.54183 16.4951 7.0014 19.7292 11.7467 18.9734Z" stroke="black" stroke-width="1.5" stroke-linecap="round" stroke-linejoin="round"/>
<path d="M16.5302 16.5332L23.2781 23.281" stroke="black" stroke-width="1.5" stroke-linecap="round" stroke-linejoin="round"/>
<path fill-rule="evenodd" clip-rule="evenodd" d="M10.3181 13.9211C12.3063 13.9211 13.9181 12.3093 13.9181 10.3211C13.9181 8.33284 12.3063 6.72107 10.3181 6.72107C8.32985 6.72107 6.71808 8.33284 6.71808 10.3211C6.71808 12.3093 8.32985 13.9211 10.3181 13.9211Z" stroke="black" stroke-width="1.5" stroke-linecap="round" stroke-linejoin="round"/>
<path d="M10.3181 6.72104V4.99304" stroke="black" stroke-width="1.5" stroke-linecap="round" stroke-linejoin="round"/>
<path d="M10.3181 15.649V13.921" stroke="black" stroke-width="1.5" stroke-linecap="round" stroke-linejoin="round"/>
<path d="M13.9181 10.321H15.6461" stroke="black" stroke-width="1.5" stroke-linecap="round" stroke-linejoin="round"/>
<path d="M4.99008 10.321H6.71808" stroke="black" stroke-width="1.5" stroke-linecap="round" stroke-linejoin="round"/>
<path d="M6.91873 6.52039L7.98049 7.58311" stroke="black" stroke-width="1.5" stroke-linecap="round" stroke-linejoin="round"/>
<path d="M13.7174 6.52039L12.6547 7.58311" stroke="black" stroke-width="1.5" stroke-linecap="round" stroke-linejoin="round"/>
<path d="M6.91873 14.1217L7.98049 13.0599" stroke="black" stroke-width="1.5" stroke-linecap="round" stroke-linejoin="round"/>
<path d="M13.7174 14.1217L12.6547 13.0599" stroke="black" stroke-width="1.5" stroke-linecap="round" stroke-linejoin="round"/>
<path d="M10.3181 9.6001C10.7157 9.6001 11.0381 9.92245 11.0381 10.3201C11.0381 10.7177 10.7157 11.0401 10.3181 11.0401C9.92044 11.0401 9.59808 10.7177 9.59808 10.3201C9.59808 9.92245 9.92044 9.6001 10.3181 9.6001" stroke="black" stroke-width="1.5" stroke-linecap="round" stroke-linejoin="round"/>
</svg>
