<svg width="24" height="24" viewBox="0 0 24 24" fill="none" xmlns="http://www.w3.org/2000/svg">
<path fill-rule="evenodd" clip-rule="evenodd" d="M1.40943 21.592V21.592C0.987226 21.1702 0.75 20.5978 0.75 20.001C0.75 19.4042 0.987226 18.8318 1.40943 18.41L6.10943 13.71C6.40282 13.418 6.87705 13.418 7.17043 13.71L9.29143 15.832C9.43219 15.9726 9.51127 16.1635 9.51127 16.3625C9.51127 16.5615 9.43219 16.7523 9.29143 16.893L4.59143 21.593C3.71225 22.4708 2.28807 22.4704 1.40943 21.592V21.592Z" stroke="black" stroke-width="1.5" stroke-linecap="round" stroke-linejoin="round"/>
<path fill-rule="evenodd" clip-rule="evenodd" d="M14.3254 2.33303L20.1594 8.16703L15.9164 12.41L10.0834 6.57603C9.49786 5.99028 9.49786 5.04078 10.0834 4.45503L12.2004 2.33303C12.4819 2.0506 12.8642 1.89185 13.2629 1.89185C13.6617 1.89185 14.044 2.0506 14.3254 2.33303Z" stroke="black" stroke-width="1.5" stroke-linecap="round" stroke-linejoin="round"/>
<path fill-rule="evenodd" clip-rule="evenodd" d="M15.9164 14.5303C15.3307 13.9444 15.3308 12.9947 15.9167 12.409L20.1599 8.16692C20.7458 7.58122 21.6956 7.58135 22.2813 8.16722L22.8115 8.69762C23.3972 9.28349 23.3971 10.2332 22.8112 10.8189L18.568 15.061C17.9821 15.6467 17.0324 15.6466 16.4467 15.0607L15.9164 14.5303Z" stroke="black" stroke-width="1.5" stroke-linecap="round" stroke-linejoin="round"/>
<path d="M13.2654 9.75806L8.13443 14.6671" stroke="black" stroke-width="1.5" stroke-linecap="round" stroke-linejoin="round"/>
</svg>
