<svg width="24" height="24" viewBox="0 0 24 24" fill="none" xmlns="http://www.w3.org/2000/svg">
<path d="M8.30703 10.4236L7.25903 9.37963C5.52308 10.2115 3.45128 9.85909 2.08808 8.49994C0.724889 7.14078 0.366274 5.07004 1.19303 3.33163L2.61803 4.75263C2.99858 5.14231 3.55911 5.29755 4.08591 5.15916C4.61271 5.02076 5.02457 4.61005 5.16444 4.08364C5.30432 3.55724 5.15065 2.99626 4.76203 2.61463L3.33803 1.19463C5.07343 0.364659 7.14347 0.717926 8.50539 2.07647C9.8673 3.43502 10.2257 5.50417 9.40003 7.24163L10.37 8.20863" stroke="black" stroke-width="1.5" stroke-linecap="round" stroke-linejoin="round"/>
<path d="M15.319 13.1376L16.741 14.5556C18.4765 13.7245 20.5474 14.0769 21.9102 15.4353C23.2731 16.7937 23.6324 18.8633 22.807 20.6016L21.382 19.1816C20.7899 18.6 19.8399 18.6037 19.2522 19.1897C18.6645 19.7758 18.6582 20.7258 19.238 21.3196L20.662 22.7396C18.9269 23.5691 16.8573 23.2159 15.4956 21.8577C14.1338 20.4995 13.7751 18.4309 14.6 16.6936L13.178 15.2756" stroke="black" stroke-width="1.5" stroke-linecap="round" stroke-linejoin="round"/>
<path fill-rule="evenodd" clip-rule="evenodd" d="M1.44501 22.6016V22.6016C1.02346 22.1825 0.786438 21.6126 0.786438 21.0181C0.786438 20.4237 1.02346 19.8538 1.44501 19.4346L6.14001 14.7486C6.43271 14.4568 6.90631 14.4568 7.19901 14.7486L9.31701 16.8596C9.45722 16.9996 9.53601 17.1895 9.53601 17.3876C9.53601 17.5857 9.45722 17.7757 9.31701 17.9156L4.62101 22.6016C3.74279 23.4758 2.32323 23.4758 1.44501 22.6016Z" stroke="black" stroke-width="1.5" stroke-linecap="round" stroke-linejoin="round"/>
<path fill-rule="evenodd" clip-rule="evenodd" d="M16.586 1.18961L22.807 7.38961C23.0879 7.66906 23.2458 8.04892 23.2458 8.44511C23.2458 8.8413 23.0879 9.22116 22.807 9.50061L20.69 11.6136C20.1046 12.1972 19.1574 12.1972 18.572 11.6136L12.351 5.41361C12.0702 5.13416 11.9123 4.7543 11.9123 4.35811C11.9123 3.96192 12.0702 3.58206 12.351 3.30261L14.468 1.19161C15.0529 0.607483 16.0001 0.606589 16.586 1.18961Z" stroke="black" stroke-width="1.5" stroke-linecap="round" stroke-linejoin="round"/>
<path d="M15.527 8.57861L8.15802 15.7046" stroke="black" stroke-width="1.5" stroke-linecap="round" stroke-linejoin="round"/>
</svg>
