<svg width="24" height="24" viewBox="0 0 24 24" fill="none" xmlns="http://www.w3.org/2000/svg">
<path fill-rule="evenodd" clip-rule="evenodd" d="M12.233 13.887L10.112 11.766C9.83065 11.4845 9.44898 11.3263 9.05099 11.3263C8.653 11.3263 8.27132 11.4845 7.98999 11.766L1.62699 18.13C0.490071 19.3071 0.50633 21.1782 1.66353 22.3354C2.82073 23.4926 4.69185 23.5089 5.86899 22.372L12.233 16.008C12.8186 15.4222 12.8186 14.4727 12.233 13.887Z" stroke="black" stroke-width="1.5" stroke-linecap="round" stroke-linejoin="round"/>
<path fill-rule="evenodd" clip-rule="evenodd" d="M19.029 1.455C19.2915 1.06107 19.7169 0.805613 20.188 0.75893C20.6591 0.712247 21.1263 0.879257 21.461 1.214L22.785 2.538C23.1197 2.87274 23.2868 3.33995 23.2401 3.81104C23.1934 4.28213 22.9379 4.70747 22.544 4.97L20.072 6.619C19.3021 7.13292 18.2764 7.03167 17.6219 6.37712C16.9673 5.72257 16.8661 4.6969 17.38 3.927L19.029 1.455Z" stroke="black" stroke-width="1.5" stroke-linecap="round" stroke-linejoin="round"/>
<path d="M17.623 6.37598L11.172 12.827" stroke="black" stroke-width="1.5" stroke-linecap="round" stroke-linejoin="round"/>
</svg>
