<svg width="24" height="24" viewBox="0 0 24 24" fill="none" xmlns="http://www.w3.org/2000/svg">
<path fill-rule="evenodd" clip-rule="evenodd" d="M9.40076 16.742L16.7418 9.39996C18.4815 10.2302 20.5556 9.87399 21.9187 8.51091C23.2818 7.14782 23.638 5.07371 22.8078 3.33396L21.3828 4.76296C20.7907 5.35501 19.8308 5.35501 19.2388 4.76296C18.6467 4.17091 18.6467 3.21101 19.2388 2.61896L20.6628 1.19396C18.9234 0.366594 16.8515 0.724104 15.4899 2.08654C14.1284 3.44898 13.7722 5.52112 14.6008 7.25996L7.25976 14.6C5.52001 13.7697 3.44589 14.1259 2.08281 15.489C0.719723 16.8521 0.36353 18.9262 1.19376 20.666L2.61876 19.242C3.21081 18.6499 4.17071 18.6499 4.76276 19.242C5.35481 19.834 5.35481 20.7939 4.76276 21.386L3.33876 22.808C5.07815 23.6353 7.15005 23.2778 8.51159 21.9154C9.87313 20.5529 10.2293 18.4808 9.40076 16.742Z" stroke="black" stroke-width="1.5" stroke-linecap="round" stroke-linejoin="round"/>
</svg>
