<svg width="24" height="24" viewBox="0 0 24 24" fill="none" xmlns="http://www.w3.org/2000/svg">
<path fill-rule="evenodd" clip-rule="evenodd" d="M9.40277 16.742L16.7418 9.39999C18.4815 10.2302 20.5556 9.87402 21.9187 8.51093C23.2818 7.14785 23.638 5.07373 22.8078 3.33399L21.3828 4.76299C20.7907 5.35503 19.8308 5.35503 19.2388 4.76299C18.6467 4.17094 18.6467 3.21103 19.2388 2.61899L20.6628 1.19399C18.923 0.363759 16.8489 0.719952 15.4858 2.08304C14.1227 3.44612 13.7665 5.52024 14.5968 7.25999L7.25977 14.6C5.52002 13.7698 3.44591 14.126 2.08282 15.489C0.719738 16.8521 0.363545 18.9262 1.19377 20.666L2.61877 19.242C3.21589 18.6864 4.14553 18.7029 4.72264 19.2792C5.29976 19.8555 5.31749 20.7851 4.76277 21.383L3.33877 22.808C5.07834 23.6368 7.15135 23.2799 8.51366 21.9172C9.87597 20.5544 10.2321 18.4813 9.40277 16.742Z" stroke="black" stroke-width="1.5" stroke-linecap="round" stroke-linejoin="round"/>
<path d="M7.78977 9.93497L7.25977 9.40497C5.52002 10.2352 3.44591 9.87901 2.08282 8.51592C0.719738 7.15283 0.363545 5.07872 1.19377 3.33897L2.61877 4.76297C3.21082 5.35502 4.17072 5.35502 4.76277 4.76297C5.35482 4.17092 5.35482 3.21102 4.76277 2.61897L3.33877 1.19397C5.07834 0.365176 7.15135 0.722028 8.51366 2.08479C9.87597 3.44755 10.2321 5.52068 9.40277 7.25997L9.85477 7.71297" stroke="black" stroke-width="1.5" stroke-linecap="round" stroke-linejoin="round"/>
<path d="M16.1118 13.968L16.7418 14.597C18.4815 13.7668 20.5556 14.123 21.9187 15.4861C23.2818 16.8492 23.638 18.9233 22.8078 20.663L21.3828 19.239C20.7907 18.647 19.8308 18.647 19.2388 19.239C18.6467 19.8311 18.6467 20.791 19.2388 21.383L20.6628 22.808C18.923 23.6382 16.8489 23.2821 15.4858 21.919C14.1227 20.5559 13.7665 18.4818 14.5968 16.742L13.9678 16.112" stroke="black" stroke-width="1.5" stroke-linecap="round" stroke-linejoin="round"/>
</svg>
