<svg width="24" height="24" viewBox="0 0 24 24" fill="none" xmlns="http://www.w3.org/2000/svg">
<path fill-rule="evenodd" clip-rule="evenodd" d="M21.2163 12.606C23.3338 10.4895 23.8576 7.25467 22.5163 4.57804L18.9663 8.12404C18.3805 8.70961 17.431 8.70961 16.8453 8.12404L16.0453 7.32404C15.7638 7.04271 15.6056 6.66103 15.6056 6.26304C15.6056 5.86505 15.7638 5.48337 16.0453 5.20204L19.6453 1.60204C17.0013 0.158378 13.7282 0.583253 11.5404 2.65411C9.35266 4.72496 8.74885 7.96984 10.0453 10.689L1.20228 19.526C0.912709 19.8153 0.75 20.2078 0.75 20.617C0.75 21.0263 0.912709 21.4188 1.20228 21.708L2.29328 22.8C2.58269 23.0897 2.97534 23.2524 3.38478 23.2524C3.79422 23.2524 4.18688 23.0897 4.47628 22.8L13.3123 13.964C15.9686 15.2317 19.1354 14.6876 21.2163 12.606V12.606Z" stroke="black" stroke-width="1.5" stroke-linecap="round" stroke-linejoin="round"/>
</svg>
