<svg width="24" height="24" viewBox="0 0 24 24" fill="none" xmlns="http://www.w3.org/2000/svg">
<path d="M6.273 15.75H3.75C2.09315 15.75 0.75 14.4069 0.75 12.75V10.5C0.75 4.287 5.787 0.75 12 0.75C18.213 0.75 23.25 4.287 23.25 10.5V12.75C23.25 14.4069 21.9069 15.75 20.25 15.75H17.727" stroke="black" stroke-width="1.5" stroke-linecap="round" stroke-linejoin="round"/>
<path d="M16.5 21.75L17.839 15.134C17.8791 14.9151 17.8198 14.6898 17.6772 14.519C17.5346 14.3482 17.3235 14.2496 17.101 14.25H6.9C6.6775 14.2496 6.46635 14.3482 6.32376 14.519C6.18117 14.6898 6.1219 14.9151 6.162 15.134L7.5 21.75" stroke="black" stroke-width="1.5" stroke-linecap="round" stroke-linejoin="round"/>
<path d="M9.75 14.25L10.5 23.25" stroke="black" stroke-width="1.5" stroke-linecap="round" stroke-linejoin="round"/>
<path d="M14.25 14.25L13.5 23.25" stroke="black" stroke-width="1.5" stroke-linecap="round" stroke-linejoin="round"/>
<path d="M6.589 17.25H17.411" stroke="black" stroke-width="1.5" stroke-linecap="round" stroke-linejoin="round"/>
<path d="M7.196 20.25H16.804" stroke="black" stroke-width="1.5" stroke-linecap="round" stroke-linejoin="round"/>
<path fill-rule="evenodd" clip-rule="evenodd" d="M6.75 6.25C6.75 5.69772 7.19772 5.25 7.75 5.25H16.25C16.8023 5.25 17.25 5.69772 17.25 6.25V10.25C17.25 10.8023 16.8023 11.25 16.25 11.25H7.75C7.19772 11.25 6.75 10.8023 6.75 10.25V6.25Z" stroke="black" stroke-width="1.5" stroke-linecap="round" stroke-linejoin="round"/>
</svg>
