<svg width="24" height="24" viewBox="0 0 24 24" fill="none" xmlns="http://www.w3.org/2000/svg">
<path fill-rule="evenodd" clip-rule="evenodd" d="M22.811 10.939L20.689 8.81801C19.8471 7.97172 18.7018 7.49717 17.508 7.50001H14.408C13.5181 7.4983 12.6479 7.76147 11.908 8.25601L8.92404 10.248C8.67797 10.413 8.38827 10.5007 8.09204 10.5H6.00004C5.17161 10.5 4.50004 11.1716 4.50004 12C4.50004 12.8284 5.17161 13.5 6.00004 13.5H8.09204C8.98194 13.5017 9.85221 13.2386 10.592 12.744L12.881 11.218L14.422 14.486L11.142 16.77C10.8246 16.9913 10.605 17.3266 10.529 17.706L9.77904 21.456C9.70104 21.8461 9.78123 22.2513 10.002 22.5823C10.2227 22.9133 10.5659 23.1431 10.956 23.221C11.0532 23.2405 11.152 23.2502 11.251 23.25C11.9658 23.2496 12.5809 22.7449 12.721 22.044L13.352 18.886L15.716 17.239L18.144 22.39C18.3918 22.9152 18.9204 23.2502 19.501 23.25C19.7222 23.2506 19.9406 23.2014 20.14 23.106C20.5006 22.9362 20.7787 22.6298 20.9131 22.2546C21.0474 21.8794 21.0269 21.4661 20.856 21.106L15.856 10.496H17.509C17.9063 10.4973 18.2872 10.655 18.569 10.935L20.69 13.057C21.276 13.643 22.2261 13.643 22.812 13.057C23.398 12.471 23.398 11.521 22.812 10.935L22.811 10.939Z" stroke="black" stroke-width="1.5" stroke-linecap="round" stroke-linejoin="round"/>
<path fill-rule="evenodd" clip-rule="evenodd" d="M12.376 6C13.8258 6 15.001 4.82475 15.001 3.375C15.001 1.92525 13.8258 0.75 12.376 0.75C10.9263 0.75 9.75104 1.92525 9.75104 3.375C9.75104 4.82475 10.9263 6 12.376 6Z" stroke="black" stroke-width="1.5" stroke-linecap="round" stroke-linejoin="round"/>
<path d="M6.24604 16.665C5.6121 17.6157 4.49317 18.1237 3.36022 17.9752C2.22728 17.8267 1.27706 17.0475 0.909532 15.9656C0.542001 14.8836 0.820978 13.6869 1.62904 12.879" stroke="black" stroke-width="1.5" stroke-linecap="round" stroke-linejoin="round"/>
</svg>
