<svg width="24" height="24" viewBox="0 0 24 24" fill="none" xmlns="http://www.w3.org/2000/svg">
<path fill-rule="evenodd" clip-rule="evenodd" d="M13.5 8.625C14.9497 8.625 16.125 7.44975 16.125 6C16.125 4.55025 14.9497 3.375 13.5 3.375C12.0502 3.375 10.875 4.55025 10.875 6C10.875 7.44975 12.0502 8.625 13.5 8.625Z" stroke="black" stroke-width="1.5" stroke-linecap="round" stroke-linejoin="round"/>
<path d="M16.501 23.25V19.45C17.7573 20.9711 19.3172 22.2133 21.081 23.097C21.8222 23.4673 22.7232 23.1667 23.0935 22.4255C23.4638 21.6844 23.1632 20.7833 22.422 20.413C21.722 20.064 17.251 17.628 17.251 13.682L20.373 12.122C22.1855 11.2112 23.1675 9.20281 22.773 7.21302L21.75 3.16102C21.654 2.62652 21.2767 2.18563 20.7634 2.00832C20.2501 1.83101 19.681 1.94497 19.2756 2.30627C18.8702 2.66758 18.6917 3.21978 18.809 3.75002L19.83 7.80002C19.9633 8.46369 19.6355 9.13437 19.03 9.43702L15.276 11.31C12.395 12.7466 9.22032 13.4962 6.001 13.5C5.17257 13.5 4.501 14.1716 4.501 15C4.501 15.8284 5.17257 16.5 6.001 16.5C8.55008 16.4971 11.0822 16.0856 13.501 15.281V23.25" stroke="black" stroke-width="1.5" stroke-linecap="round" stroke-linejoin="round"/>
<path fill-rule="evenodd" clip-rule="evenodd" d="M3.75 6.75C5.40685 6.75 6.75 5.40685 6.75 3.75C6.75 2.09315 5.40685 0.75 3.75 0.75C2.09315 0.75 0.75 2.09315 0.75 3.75C0.75 5.40685 2.09315 6.75 3.75 6.75Z" stroke="black" stroke-width="1.5" stroke-linecap="round" stroke-linejoin="round"/>
</svg>
