<svg width="24" height="24" viewBox="0 0 24 24" fill="none" xmlns="http://www.w3.org/2000/svg">
<path fill-rule="evenodd" clip-rule="evenodd" d="M9.375 17.934C10.8247 17.934 12 16.7587 12 15.309C12 13.8592 10.8247 12.684 9.375 12.684C7.92525 12.684 6.75 13.8592 6.75 15.309C6.75 16.7587 7.92525 17.934 9.375 17.934Z" stroke="black" stroke-width="1.5" stroke-linecap="round" stroke-linejoin="round"/>
<path fill-rule="evenodd" clip-rule="evenodd" d="M21.75 17.934H15.75C15.2557 17.934 14.793 17.6906 14.5132 17.283C14.2334 16.8755 14.1724 16.3563 14.35 15.895L17.2 8.49999L2.443 10.421C1.63354 10.5059 0.904022 9.92984 0.798996 9.12274C0.693969 8.31563 1.25175 7.57203 2.056 7.44699L16.807 5.52199C17.8562 5.38337 18.9009 5.80786 19.556 6.63906C20.2112 7.47026 20.3799 8.58516 20 9.57299L17.938 14.934H21.75C22.5784 14.934 23.25 15.6056 23.25 16.434C23.25 17.2624 22.5784 17.934 21.75 17.934V17.934Z" stroke="black" stroke-width="1.5" stroke-linecap="round" stroke-linejoin="round"/>
<path d="M20.168 8.10803L17.196 8.49603" stroke="black" stroke-width="1.5" stroke-linecap="round" stroke-linejoin="round"/>
<path d="M17.25 14.934H17.934" stroke="black" stroke-width="1.5" stroke-linecap="round" stroke-linejoin="round"/>
</svg>
