<svg width="24" height="24" viewBox="0 0 24 24" fill="none" xmlns="http://www.w3.org/2000/svg">
<path fill-rule="evenodd" clip-rule="evenodd" d="M12 9.5C13.2426 9.5 14.25 8.49264 14.25 7.25C14.25 6.00736 13.2426 5 12 5C10.7574 5 9.75 6.00736 9.75 7.25C9.75 8.49264 10.7574 9.5 12 9.5Z" stroke="black" stroke-width="1.5" stroke-linecap="round" stroke-linejoin="round"/>
<path fill-rule="evenodd" clip-rule="evenodd" d="M15.751 23C15.6283 22.9998 15.5061 22.9847 15.387 22.955L6.387 20.705C5.8561 20.5856 5.43154 20.1879 5.27758 19.666C5.12363 19.144 5.26444 18.5796 5.64552 18.1912C6.02661 17.8027 6.5882 17.6511 7.113 17.795L16.113 20.045C16.8472 20.229 17.3293 20.9312 17.2372 21.6824C17.1452 22.4337 16.5079 22.9987 15.751 23Z" stroke="black" stroke-width="1.5" stroke-linecap="round" stroke-linejoin="round"/>
<path d="M12 19.017L16.887 17.8C17.5672 17.6323 18.273 17.9577 18.587 18.584" stroke="black" stroke-width="1.5" stroke-linecap="round" stroke-linejoin="round"/>
<path d="M15.75 15.5V14.541C16.5173 14.1686 17.2204 13.6765 17.833 13.083C19.3805 11.5363 20.25 9.43801 20.25 7.25004C20.25 5.06207 19.3805 2.96377 17.833 1.41704C17.2444 0.848581 16.3089 0.856711 15.7303 1.43531C15.1517 2.01391 15.1435 2.94947 15.712 3.53804C16.6966 4.52245 17.2498 5.85772 17.2498 7.25004C17.2498 8.64236 16.6966 9.97763 15.712 10.962C13.6346 12.945 10.3654 12.945 8.288 10.962C7.30338 9.97763 6.7502 8.64236 6.7502 7.25004C6.7502 5.85772 7.30338 4.52245 8.288 3.53804C8.85645 2.94947 8.84833 2.01391 8.26972 1.43531C7.69112 0.856711 6.75556 0.848581 6.167 1.41704C4.61947 2.96377 3.75002 5.06207 3.75002 7.25004C3.75002 9.43801 4.61947 11.5363 6.167 13.083C6.77958 13.6765 7.48271 14.1686 8.25 14.541V15.5" stroke="black" stroke-width="1.5" stroke-linecap="round" stroke-linejoin="round"/>
</svg>
