<svg width="24" height="24" viewBox="0 0 24 24" fill="none" xmlns="http://www.w3.org/2000/svg">
<path fill-rule="evenodd" clip-rule="evenodd" d="M5.625 23.2504C7.07475 23.2504 8.25 22.0751 8.25 20.6254C8.25 19.1756 7.07475 18.0004 5.625 18.0004C4.17525 18.0004 3 19.1756 3 20.6254C3 22.0751 4.17525 23.2504 5.625 23.2504Z" stroke="black" stroke-width="1.5" stroke-linecap="round" stroke-linejoin="round"/>
<path fill-rule="evenodd" clip-rule="evenodd" d="M18.168 23.2504H12C11.5429 23.2505 11.1106 23.0421 10.826 22.6844C10.5413 22.3268 10.4353 21.8588 10.538 21.4134L12.633 12.3384C12.684 12.1159 12.684 11.8848 12.633 11.6624L10.538 2.58737C10.4176 2.06505 10.585 1.51817 10.9771 1.15274C11.3693 0.787309 11.9266 0.658846 12.4391 0.815739C12.9517 0.972632 13.3416 1.39105 13.462 1.91337L15.562 10.9884C15.715 11.6544 15.715 12.3464 15.562 13.0124L13.885 20.2504H18.168L17.327 17.7254C17.0835 16.9456 17.5089 16.1143 18.2837 15.8555C19.0586 15.5968 19.8981 16.0057 20.172 16.7754L21.015 19.3014C21.3201 20.2164 21.1667 21.2224 20.6026 22.0048C20.0385 22.7872 19.1326 23.2507 18.168 23.2504V23.2504Z" stroke="black" stroke-width="1.5" stroke-linecap="round" stroke-linejoin="round"/>
<path d="M15.75 20.2504V23.2504" stroke="black" stroke-width="1.5" stroke-linecap="round" stroke-linejoin="round"/>
<path d="M12.304 13.7634L15.215 14.4914" stroke="black" stroke-width="1.5" stroke-linecap="round" stroke-linejoin="round"/>
</svg>
