<svg width="24" height="24" viewBox="0 0 24 24" fill="none" xmlns="http://www.w3.org/2000/svg">
<path fill-rule="evenodd" clip-rule="evenodd" d="M12.009 6.75C13.6659 6.75 15.009 5.40685 15.009 3.75C15.009 2.09315 13.6659 0.75 12.009 0.75C10.3521 0.75 9.009 2.09315 9.009 3.75C9.009 5.40685 10.3521 6.75 12.009 6.75Z" stroke="black" stroke-width="1.5" stroke-linecap="round" stroke-linejoin="round"/>
<path d="M11.7 19.238L14.14 20.394C14.8886 20.7488 15.2078 21.6434 14.853 22.392C14.4982 23.1406 13.6036 23.4598 12.855 23.105L6.755 20.214C6.00555 19.8583 5.68633 18.9624 6.042 18.213C6.39767 17.4635 7.29355 17.1443 8.043 17.5L9 17.957V17.957V13.449C8.22996 13.9831 7.31206 14.2629 6.375 14.249C4.88486 14.3703 3.43207 13.742 2.5 12.573C2.04662 11.8939 2.21965 10.977 2.88933 10.5098C3.559 10.0427 4.4793 10.197 4.96 10.857C5.36522 11.1649 5.87313 11.3055 6.379 11.25C7.887 11.25 8.309 8.94998 12.013 8.99998C15.718 8.94898 16.139 11.25 17.647 11.25C18.1532 11.3054 18.6613 11.1647 19.067 10.857C19.5511 10.2072 20.4638 10.0593 21.1283 10.5231C21.7928 10.9868 21.9689 11.8944 21.526 12.573C20.5935 13.7439 19.1388 14.3728 17.647 14.25C16.7044 14.2635 15.7809 13.9839 15.004 13.45V17.582L15.704 17.326C16.491 17.0672 17.3388 17.4955 17.5975 18.2825C17.8562 19.0695 17.428 19.9172 16.641 20.176" stroke="black" stroke-width="1.5" stroke-linecap="round" stroke-linejoin="round"/>
</svg>
