<svg width="24" height="24" viewBox="0 0 24 24" fill="none" xmlns="http://www.w3.org/2000/svg">
<path fill-rule="evenodd" clip-rule="evenodd" d="M12 9.52197C13.2426 9.52197 14.25 8.51461 14.25 7.27197C14.25 6.02933 13.2426 5.02197 12 5.02197C10.7574 5.02197 9.75 6.02933 9.75 7.27197C9.75 8.51461 10.7574 9.52197 12 9.52197Z" stroke="black" stroke-width="1.5" stroke-linecap="round" stroke-linejoin="round"/>
<path d="M19.365 23.016L15.75 19.4V14.564C16.5175 14.1916 17.2207 13.6991 17.833 13.105C19.3805 11.5583 20.25 9.45998 20.25 7.27201C20.25 5.08403 19.3805 2.98574 17.833 1.43901C17.247 0.853307 16.2972 0.853531 15.7115 1.43951C15.1258 2.02548 15.126 2.97531 15.712 3.56101C16.6968 4.54511 17.2501 5.88027 17.2501 7.2725C17.2501 8.66474 16.6968 9.9999 15.712 10.984C13.635 12.968 10.365 12.968 8.28801 10.984C7.30321 9.9999 6.74989 8.66474 6.74989 7.2725C6.74989 5.88027 7.30321 4.54511 8.28801 3.56101C8.87399 2.97531 8.87421 2.02548 8.28851 1.43951C7.70281 0.853531 6.75299 0.853307 6.16701 1.43901C4.61949 2.98574 3.75003 5.08403 3.75003 7.27201C3.75003 9.45998 4.61949 11.5583 6.16701 13.105C6.77931 13.6991 7.48248 14.1916 8.25001 14.564V23.022" stroke="black" stroke-width="1.5" stroke-linecap="round" stroke-linejoin="round"/>
<path d="M15.116 23.01L13.816 21.704C13.387 21.2747 12.7416 21.1463 12.1809 21.3785C11.6202 21.6108 11.2547 22.1581 11.255 22.765V23.022" stroke="black" stroke-width="1.5" stroke-linecap="round" stroke-linejoin="round"/>
</svg>
