<svg width="24" height="24" viewBox="0 0 24 24" fill="none" xmlns="http://www.w3.org/2000/svg">
<path fill-rule="evenodd" clip-rule="evenodd" d="M6.758 20.214C6.00855 19.8595 5.68843 18.9645 6.043 18.215C6.39757 17.4656 7.29255 17.1455 8.042 17.5L14.142 20.391C14.8906 20.7459 15.2098 21.6404 14.855 22.389C14.5002 23.1376 13.6056 23.4569 12.857 23.102L6.758 20.214Z" stroke="black" stroke-width="1.5" stroke-linecap="round" stroke-linejoin="round"/>
<path fill-rule="evenodd" clip-rule="evenodd" d="M12.009 6.75C13.6659 6.75 15.009 5.40685 15.009 3.75C15.009 2.09315 13.6659 0.75 12.009 0.75C10.3521 0.75 9.009 2.09315 9.009 3.75C9.009 5.40685 10.3521 6.75 12.009 6.75Z" stroke="black" stroke-width="1.5" stroke-linecap="round" stroke-linejoin="round"/>
<path d="M10.5 12.75V13.5C10.5 14.3284 9.82843 15 9 15H8.25C6.60764 14.9655 5.28448 13.6424 5.25 12C5.28448 10.3576 6.60764 9.03448 8.25 9H15.75C17.3924 9.03448 18.7155 10.3576 18.75 12C18.7155 13.6424 17.3924 14.9655 15.75 15H15C14.1716 15 13.5 14.3284 13.5 13.5V12.75" stroke="black" stroke-width="1.5" stroke-linecap="round" stroke-linejoin="round"/>
<path d="M16.631 20.175C17.1465 20.0128 17.5348 19.5859 17.6477 19.0575C17.7606 18.5291 17.5805 17.9807 17.1763 17.6221C16.7721 17.2635 16.2062 17.15 15.695 17.325L14.995 17.581L14.215 17.899" stroke="black" stroke-width="1.5" stroke-linecap="round" stroke-linejoin="round"/>
</svg>
