<svg width="24" height="24" viewBox="0 0 24 24" fill="none" xmlns="http://www.w3.org/2000/svg">
<path d="M7.5 7.25304C6.34653 6.70592 4.96669 7.068 4.23048 8.11099C3.49427 9.15397 3.61519 10.5754 4.517 11.479" stroke="black" stroke-width="1.5" stroke-linecap="round" stroke-linejoin="round"/>
<path fill-rule="evenodd" clip-rule="evenodd" d="M21.751 19.0001C21.2568 19.0004 20.7941 18.7573 20.514 18.3501L13.5 8.14706L6.933 17.7001C6.37306 18.5142 5.44812 19.0004 4.46 19.0001H2.25C1.42157 19.0001 0.75 18.3285 0.75 17.5001C0.75 16.6716 1.42157 16.0001 2.25 16.0001H4.46L11.027 6.44806C11.5867 5.6341 12.5112 5.14783 13.499 5.14783C14.4868 5.14783 15.4113 5.6341 15.971 6.44806L22.986 16.6481C23.3027 17.107 23.3387 17.7037 23.0795 18.1974C22.8203 18.6911 22.3086 19.0002 21.751 19.0001V19.0001Z" stroke="black" stroke-width="1.5" stroke-linecap="round" stroke-linejoin="round"/>
<path d="M10.002 7.93909L12.404 9.74109" stroke="black" stroke-width="1.5" stroke-linecap="round" stroke-linejoin="round"/>
<path d="M6.345 13.259L8.747 15.06" stroke="black" stroke-width="1.5" stroke-linecap="round" stroke-linejoin="round"/>
</svg>
