<svg width="24" height="24" viewBox="0 0 24 24" fill="none" xmlns="http://www.w3.org/2000/svg">
<path d="M15.878 9.5L16.794 10.416L13.994 12.821L11.306 9.24L14.294 6.75H17.5C18.3284 6.75 19 6.07843 19 5.25C19 4.42157 18.3284 3.75 17.5 3.75H13.75C13.399 3.75015 13.0591 3.87288 12.789 4.097L8.289 7.847C7.67566 8.35879 7.57102 9.26146 8.051 9.9L12.251 15.5V21.75C12.251 22.5784 12.9226 23.25 13.751 23.25C14.5794 23.25 15.251 22.5784 15.251 21.75V15.688L19.977 11.638C20.2944 11.3662 20.4841 10.9742 20.5002 10.5566C20.5164 10.1389 20.3575 9.73353 20.062 9.438" stroke="black" stroke-width="1.5" stroke-linecap="round" stroke-linejoin="round"/>
<path fill-rule="evenodd" clip-rule="evenodd" d="M5.5 6C6.94975 6 8.125 4.82475 8.125 3.375C8.125 1.92525 6.94975 0.75 5.5 0.75C4.05025 0.75 2.875 1.92525 2.875 3.375C2.875 4.82475 4.05025 6 5.5 6Z" stroke="black" stroke-width="1.5" stroke-linecap="round" stroke-linejoin="round"/>
<path d="M11.68 14.7379L13.989 12.8199" stroke="black" stroke-width="1.5" stroke-linecap="round" stroke-linejoin="round"/>
</svg>
