<svg width="24" height="25" viewBox="0 0 24 25" fill="none" xmlns="http://www.w3.org/2000/svg">
<path fill-rule="evenodd" clip-rule="evenodd" d="M3.375 14.626C4.82475 14.626 6 13.4507 6 12.001C6 10.5512 4.82475 9.37598 3.375 9.37598C1.92525 9.37598 0.75 10.5512 0.75 12.001C0.75 13.4507 1.92525 14.626 3.375 14.626Z" stroke="black" stroke-width="1.5" stroke-linecap="round" stroke-linejoin="round"/>
<path fill-rule="evenodd" clip-rule="evenodd" d="M23.154 21.224L18.654 9.224C18.4346 8.6381 17.8746 8.2499 17.249 8.25H9.75V2.25C9.75 1.42157 9.07843 0.75 8.25 0.75C7.42157 0.75 6.75 1.42157 6.75 2.25V21.75C6.75 22.5784 7.42157 23.25 8.25 23.25C9.07843 23.25 9.75 22.5784 9.75 21.75V14.25H14.273L12.073 21.304C11.8909 21.8216 12.006 22.3973 12.3731 22.8052C12.7402 23.213 13.3006 23.3879 13.8345 23.2611C14.3683 23.1344 14.7904 22.7263 14.935 22.197L17.383 14.366L20.349 22.278C20.6403 23.0537 21.5053 23.4463 22.281 23.155C23.0567 22.8637 23.4493 21.9987 23.158 21.223L23.154 21.224Z" stroke="black" stroke-width="1.5" stroke-linecap="round" stroke-linejoin="round"/>
</svg>
