<svg width="24" height="24" viewBox="0 0 24 24" fill="none" xmlns="http://www.w3.org/2000/svg">
<path fill-rule="evenodd" clip-rule="evenodd" d="M6.07401 6C7.52375 6 8.69901 4.82475 8.69901 3.375C8.69901 1.92525 7.52375 0.75 6.07401 0.75C4.62426 0.75 3.44901 1.92525 3.44901 3.375C3.44901 4.82475 4.62426 6 6.07401 6Z" stroke="black" stroke-width="1.5" stroke-linecap="round" stroke-linejoin="round"/>
<path d="M19.372 8.978L19.75 12H16.07L12.7 8.625L15.32 6H18.449C19.2774 6 19.949 5.32843 19.949 4.5C19.949 3.67157 19.2774 3 18.449 3H15.32C14.5249 3.00246 13.7628 3.31829 13.199 3.879L7.32801 9.75H2.70001C1.87159 9.75 1.20001 10.4216 1.20001 11.25C1.20001 12.0784 1.87159 12.75 2.70001 12.75H7.32801C8.1231 12.7473 8.88512 12.4315 9.44901 11.871L10.574 10.746L13.949 14.121V21.75C13.949 22.5784 14.6206 23.25 15.449 23.25C16.2774 23.25 16.949 22.5784 16.949 21.75V15H19.749C20.6093 14.9998 21.4282 14.6302 21.9974 13.9851C22.5667 13.3401 22.8317 12.4817 22.725 11.628L22.186 7.314" stroke="black" stroke-width="1.5" stroke-linecap="round" stroke-linejoin="round"/>
<path d="M13.949 14.121L16.07 12" stroke="black" stroke-width="1.5" stroke-linecap="round" stroke-linejoin="round"/>
</svg>
