<svg width="24" height="24" viewBox="0 0 24 24" fill="none" xmlns="http://www.w3.org/2000/svg">
<path fill-rule="evenodd" clip-rule="evenodd" d="M3.375 14.75C4.82475 14.75 6 13.5747 6 12.125C6 10.6753 4.82475 9.5 3.375 9.5C1.92525 9.5 0.75 10.6753 0.75 12.125C0.75 13.5747 1.92525 14.75 3.375 14.75Z" stroke="black" stroke-width="1.5" stroke-linecap="round" stroke-linejoin="round"/>
<path d="M18.03 5.71601L21.875 9.182C23.3458 10.5063 23.6803 12.6832 22.675 14.388L21.05 17.135C20.232 18.4543 18.7883 19.2549 17.236 19.25H13.251C11.5453 19.2557 9.98474 18.2912 9.227 16.763L7.056 12.421C6.76701 11.8434 6.88021 11.1456 7.337 10.689L12.587 5.43901C13.173 4.85331 14.1228 4.85353 14.7085 5.43951C15.2942 6.02548 15.294 6.97531 14.708 7.56101L10.223 12.046L11.91 15.421C12.1624 15.9304 12.6825 16.2519 13.251 16.25H17.235C17.751 16.2525 18.2316 15.9876 18.505 15.55L20.023 13.126C20.4133 12.5012 20.2921 11.6854 19.737 11.201L17.116 8.90001" stroke="black" stroke-width="1.5" stroke-linecap="round" stroke-linejoin="round"/>
<path d="M9.138 8.88806L11.259 11.0101" stroke="black" stroke-width="1.5" stroke-linecap="round" stroke-linejoin="round"/>
<path d="M16.5 16.25V19.25" stroke="black" stroke-width="1.5" stroke-linecap="round" stroke-linejoin="round"/>
</svg>
