<svg width="24" height="24" viewBox="0 0 24 24" fill="none" xmlns="http://www.w3.org/2000/svg">
<path fill-rule="evenodd" clip-rule="evenodd" d="M15.0006 6C16.4504 6 17.6256 4.82475 17.6256 3.375C17.6256 1.92525 16.4504 0.75 15.0006 0.75C13.5509 0.75 12.3756 1.92525 12.3756 3.375C12.3756 4.82475 13.5509 6 15.0006 6Z" stroke="black" stroke-width="1.5" stroke-linecap="round" stroke-linejoin="round"/>
<path d="M18.0006 23.25L18.0066 11.25C21.1682 10.0088 23.2484 6.9595 23.2506 3.56299C23.2506 2.73456 22.579 2.06299 21.7506 2.06299C20.9222 2.06299 20.2506 2.73456 20.2506 3.56299C20.2506 6.46248 17.9001 8.81299 15.0006 8.81299C12.1011 8.81299 9.75061 6.46248 9.75061 3.56299C9.75061 2.73456 9.07904 2.06299 8.25061 2.06299C7.42218 2.06299 6.75061 2.73456 6.75061 3.56299C6.75214 4.08188 6.80236 4.59948 6.90061 5.10899" stroke="black" stroke-width="1.5" stroke-linecap="round" stroke-linejoin="round"/>
<path fill-rule="evenodd" clip-rule="evenodd" d="M7.50061 13.313C8.95036 13.313 10.1256 12.1377 10.1256 10.688C10.1256 9.23824 8.95036 8.06299 7.50061 8.06299C6.05086 8.06299 4.87561 9.23824 4.87561 10.688C4.87561 12.1377 6.05086 13.313 7.50061 13.313Z" stroke="black" stroke-width="1.5" stroke-linecap="round" stroke-linejoin="round"/>
<path d="M9.75061 23.25V18.007C11.1566 18.214 12.3686 18.514 12.3876 18.519C12.5065 18.5478 12.6283 18.5626 12.7506 18.563C13.5077 18.5622 14.1455 17.9973 14.2378 17.2459C14.3301 16.4945 13.848 15.792 13.1136 15.608C11.2747 15.1519 9.39386 14.8855 7.50061 14.813C5.60719 14.8872 3.72636 15.1552 1.88761 15.613C1.08376 15.8135 0.594633 16.6276 0.795113 17.4315C0.995592 18.2353 1.80976 18.7245 2.61361 18.524C2.63261 18.524 3.84461 18.224 5.25061 18.012V23.25" stroke="black" stroke-width="1.5" stroke-linecap="round" stroke-linejoin="round"/>
</svg>
