<svg width="24" height="24" viewBox="0 0 24 24" fill="none" xmlns="http://www.w3.org/2000/svg">
<path fill-rule="evenodd" clip-rule="evenodd" d="M10.125 14.625C11.5747 14.625 12.75 13.4497 12.75 12C12.75 10.5503 11.5747 9.375 10.125 9.375C8.67525 9.375 7.5 10.5503 7.5 12C7.5 13.4497 8.67525 14.625 10.125 14.625Z" stroke="black" stroke-width="1.5" stroke-linecap="round" stroke-linejoin="round"/>
<path fill-rule="evenodd" clip-rule="evenodd" d="M2.251 20.25C1.82066 20.2502 1.41098 20.0655 1.12611 19.7429C0.841245 19.4204 0.708635 18.991 0.761997 18.564L2.155 7.418C2.29 6.36021 2.97477 5.45289 3.955 5.033L4.834 4.655C10.4978 2.24598 17.0083 2.96862 22.006 6.561C22.7858 7.126 23.2482 8.03001 23.25 8.993V18.75C23.25 19.5784 22.5784 20.25 21.75 20.25C20.9216 20.25 20.25 19.5784 20.25 18.75V8.993C16.1058 6.01552 10.7084 5.41619 6.012 7.412L5.133 7.79L3.738 18.936C3.64426 19.6861 3.00696 20.2493 2.251 20.25Z" stroke="black" stroke-width="1.5" stroke-linecap="round" stroke-linejoin="round"/>
<path d="M16.234 6.95895L17.288 4.14795" stroke="black" stroke-width="1.5" stroke-linecap="round" stroke-linejoin="round"/>
<path d="M1.749 10.666L4.711 11.16" stroke="black" stroke-width="1.5" stroke-linecap="round" stroke-linejoin="round"/>
</svg>
