<svg width="24" height="24" viewBox="0 0 24 24" fill="none" xmlns="http://www.w3.org/2000/svg">
<path fill-rule="evenodd" clip-rule="evenodd" d="M20.438 7C21.8877 7 23.063 5.82475 23.063 4.375C23.063 2.92525 21.8877 1.75 20.438 1.75C18.9882 1.75 17.813 2.92525 17.813 4.375C17.813 5.82475 18.9882 7 20.438 7Z" stroke="black" stroke-width="1.5" stroke-linecap="round" stroke-linejoin="round"/>
<path fill-rule="evenodd" clip-rule="evenodd" d="M20.438 22C19.6096 22 18.938 21.3284 18.938 20.5V15.467L16.238 19.281C15.1391 20.9854 13.246 22.0108 11.218 22H2.437C1.60857 22 0.936996 21.3284 0.936996 20.5C0.936996 19.6715 1.60857 19 2.437 19H11.218C12.2441 19.0019 13.1994 18.4771 13.748 17.61L19.213 9.88395C19.5902 9.35024 20.2695 9.12214 20.8923 9.32007C21.5151 9.51801 21.9381 10.0964 21.938 10.75V20.5C21.938 20.8978 21.78 21.2793 21.4987 21.5606C21.2174 21.8419 20.8358 22 20.438 22Z" stroke="black" stroke-width="1.5" stroke-linecap="round" stroke-linejoin="round"/>
<path d="M18.938 15.25V14.5" stroke="black" stroke-width="1.5" stroke-linecap="round" stroke-linejoin="round"/>
<path d="M12.703 18.608L15.031 20.644" stroke="black" stroke-width="1.5" stroke-linecap="round" stroke-linejoin="round"/>
</svg>
