<svg width="24" height="24" viewBox="0 0 24 24" fill="none" xmlns="http://www.w3.org/2000/svg">
<path fill-rule="evenodd" clip-rule="evenodd" d="M0.75 1.75C0.75 1.19772 1.19772 0.75 1.75 0.75H22.25C22.8023 0.75 23.25 1.19772 23.25 1.75V22.25C23.25 22.8023 22.8023 23.25 22.25 23.25H1.75C1.19772 23.25 0.75 22.8023 0.75 22.25V1.75Z" stroke="black" stroke-width="1.5" stroke-linecap="round" stroke-linejoin="round"/>
<path d="M20.25 6.75L17.25 3.75" stroke="black" stroke-width="1.5" stroke-linecap="round" stroke-linejoin="round"/>
<path d="M20.25 3.75L17.25 6.75" stroke="black" stroke-width="1.5" stroke-linecap="round" stroke-linejoin="round"/>
<path d="M20.25 10.5H18.75C17.9216 10.5 17.25 11.1716 17.25 12C17.25 14.25 20.25 14.25 20.25 16.5C20.25 17.3284 19.5784 18 18.75 18H17.25" stroke="black" stroke-width="1.5" stroke-linecap="round" stroke-linejoin="round"/>
<path d="M5.25 18V12C5.25 11.1716 5.92157 10.5 6.75 10.5C7.57843 10.5 8.25 11.1716 8.25 12V18" stroke="black" stroke-width="1.5" stroke-linecap="round" stroke-linejoin="round"/>
<path d="M5.25 15H8.25" stroke="black" stroke-width="1.5" stroke-linecap="round" stroke-linejoin="round"/>
<path fill-rule="evenodd" clip-rule="evenodd" d="M11.25 18C12.9069 18 14.25 16.6569 14.25 15V13.5C14.25 11.8431 12.9069 10.5 11.25 10.5V18Z" stroke="black" stroke-width="1.5" stroke-linecap="round" stroke-linejoin="round"/>
</svg>
