<svg width="24" height="24" viewBox="0 0 24 24" fill="none" xmlns="http://www.w3.org/2000/svg">
<path d="M3.1321 12.8006L3.5801 11.6256L2.5341 8.88159C2.37938 8.47383 2.52913 8.01334 2.8941 7.77459L5.3521 6.16959L6.1191 3.33559C6.23327 2.9145 6.62535 2.6298 7.0611 2.65159L9.9931 2.80059L12.2791 0.955589C12.6191 0.68147 13.1041 0.68147 13.4441 0.955589L15.7301 2.80059L18.6621 2.65459C19.0978 2.6328 19.4899 2.9175 19.6041 3.33859L20.3711 6.17259L22.8291 7.77759C23.1944 8.0161 23.3442 8.47684 23.1891 8.88459L22.1441 11.6286L23.1891 14.3716C23.3444 14.7796 23.1945 15.2407 22.8291 15.4796L20.3711 17.0796L19.6001 19.9146C19.4866 20.3363 19.0943 20.6216 18.6581 20.5996L15.7261 20.4536L13.4401 22.2946" stroke="black" stroke-width="1.5" stroke-linecap="round" stroke-linejoin="round"/>
<path d="M0.750099 19.7696L2.4061 22.3786" stroke="black" stroke-width="1.5" stroke-linecap="round" stroke-linejoin="round"/>
<path d="M9.9081 8.14759L16.2021 18.0636" stroke="black" stroke-width="1.5" stroke-linecap="round" stroke-linejoin="round"/>
<path fill-rule="evenodd" clip-rule="evenodd" d="M15.8711 17.5416L2.0751 21.8576L1.0811 20.2916L10.2391 8.66959L15.8711 17.5416V17.5416Z" stroke="black" stroke-width="1.5" stroke-linecap="round" stroke-linejoin="round"/>
<path d="M5.0561 20.9246L5.9321 22.2706C6.22484 22.7505 6.70258 23.0885 7.25261 23.2047C7.80263 23.3209 8.37624 23.2051 8.8381 22.8846C9.80797 22.1866 10.0654 20.8535 9.4251 19.8446L9.2621 19.6086" stroke="black" stroke-width="1.5" stroke-linecap="round" stroke-linejoin="round"/>
</svg>
