<svg width="24" height="24" viewBox="0 0 24 24" fill="none" xmlns="http://www.w3.org/2000/svg">
<path fill-rule="evenodd" clip-rule="evenodd" d="M17.7862 11.25H6.21417C5.69517 11.2371 5.2638 11.647 5.25017 12.166V18.583C5.2638 19.1021 5.695 19.5123 6.21417 19.5H17.7862C18.3053 19.5123 18.7365 19.1021 18.7502 18.583V12.166C18.7365 11.647 18.3052 11.2371 17.7862 11.25Z" stroke="black" stroke-width="1.5" stroke-linecap="round" stroke-linejoin="round"/>
<path fill-rule="evenodd" clip-rule="evenodd" d="M5.25017 19.5L3.38217 21.116C3.13843 21.3454 3.00024 21.6653 3.00024 22C3.00024 22.3347 3.13843 22.6546 3.38217 22.884V22.884C3.63108 23.1199 3.96123 23.251 4.30417 23.25H19.7002C20.0431 23.251 20.3733 23.1199 20.6222 22.884V22.884C20.8659 22.6546 21.0041 22.3347 21.0041 22C21.0041 21.6653 20.8659 21.3454 20.6222 21.116L18.7502 19.5H5.25017Z" stroke="black" stroke-width="1.5" stroke-linecap="round" stroke-linejoin="round"/>
<path fill-rule="evenodd" clip-rule="evenodd" d="M0.750168 1.75C0.750168 1.19772 1.19788 0.75 1.75017 0.75H8.75017C9.30245 0.75 9.75017 1.19772 9.75017 1.75V5.75C9.75017 6.30228 9.30245 6.75 8.75017 6.75H1.75017C1.19788 6.75 0.750168 6.30228 0.750168 5.75V1.75Z" stroke="black" stroke-width="1.5" stroke-linecap="round" stroke-linejoin="round"/>
<path d="M0.750168 2.25L5.25017 4.5L9.75017 2.25" stroke="black" stroke-width="1.5" stroke-linecap="round" stroke-linejoin="round"/>
<path fill-rule="evenodd" clip-rule="evenodd" d="M14.2502 1.75C14.2502 1.19772 14.6979 0.75 15.2502 0.75H22.2502C22.8025 0.75 23.2502 1.19772 23.2502 1.75V5.75C23.2502 6.30228 22.8025 6.75 22.2502 6.75H15.2502C14.6979 6.75 14.2502 6.30228 14.2502 5.75V1.75Z" stroke="black" stroke-width="1.5" stroke-linecap="round" stroke-linejoin="round"/>
<path d="M14.2502 2.25L18.7502 4.5L23.2502 2.25" stroke="black" stroke-width="1.5" stroke-linecap="round" stroke-linejoin="round"/>
</svg>
