<svg width="24" height="24" viewBox="0 0 24 24" fill="none" xmlns="http://www.w3.org/2000/svg">
<path d="M0.75 16.4V1.728C0.75 1.18787 1.18787 0.75 1.728 0.75H13.272C13.8121 0.75 14.25 1.18787 14.25 1.728V6.75" stroke="black" stroke-width="1.5" stroke-linecap="round" stroke-linejoin="round"/>
<path d="M3.75 3.75V12.75" stroke="black" stroke-width="1.5" stroke-linecap="round" stroke-linejoin="round"/>
<path fill-rule="evenodd" clip-rule="evenodd" d="M8.25 6.75C9.07843 6.75 9.75 6.07843 9.75 5.25C9.75 4.42157 9.07843 3.75 8.25 3.75C7.42157 3.75 6.75 4.42157 6.75 5.25C6.75 6.07843 7.42157 6.75 8.25 6.75Z" stroke="black" stroke-width="1.5" stroke-linecap="round" stroke-linejoin="round"/>
<path d="M15.2 13.5C15.5647 12.8706 16.3283 12.5936 17.0117 12.8427C17.6951 13.0919 18.1012 13.7955 17.9752 14.5118C17.8492 15.2282 17.2274 15.751 16.5 15.752" stroke="black" stroke-width="1.5" stroke-linecap="round" stroke-linejoin="round"/>
<path d="M9.75 12.717V10.728C9.75 10.1879 10.1879 9.75 10.728 9.75H22.272C22.8121 9.75 23.25 10.1879 23.25 10.728V17.771C23.2503 18.0306 23.1473 18.2796 22.9639 18.4632C22.7805 18.6468 22.5316 18.75 22.272 18.75H17.25" stroke="black" stroke-width="1.5" stroke-linecap="round" stroke-linejoin="round"/>
<path fill-rule="evenodd" clip-rule="evenodd" d="M3.75 16.75C3.75 16.1977 4.19772 15.75 4.75 15.75H13.25C13.8023 15.75 14.25 16.1977 14.25 16.75V22.25C14.25 22.8023 13.8023 23.25 13.25 23.25H4.75C4.19772 23.25 3.75 22.8023 3.75 22.25V16.75Z" stroke="black" stroke-width="1.5" stroke-linecap="round" stroke-linejoin="round"/>
<path d="M3.75 17.25L9 20.25L14.25 17.25" stroke="black" stroke-width="1.5" stroke-linecap="round" stroke-linejoin="round"/>
</svg>
