<svg width="24" height="24" viewBox="0 0 24 24" fill="none" xmlns="http://www.w3.org/2000/svg">
<path d="M19.5 12.879V2.25C19.5 1.42157 18.8284 0.75 18 0.75H6C5.17157 0.75 4.5 1.42157 4.5 2.25V12.879" stroke="black" stroke-width="1.5" stroke-linecap="round" stroke-linejoin="round"/>
<path fill-rule="evenodd" clip-rule="evenodd" d="M21.284 11.464C21.5097 11.286 21.8172 11.2525 22.0759 11.3776C22.3347 11.5027 22.4993 11.7646 22.5 12.052V21.752C22.5 22.5804 21.8284 23.252 21 23.252H3C2.17157 23.252 1.5 22.5804 1.5 21.752V12.052C1.50066 11.7646 1.66531 11.5027 1.92407 11.3776C2.18282 11.2525 2.4903 11.286 2.716 11.464L10.147 17.364C11.2347 18.2182 12.7653 18.2182 13.853 17.364L21.284 11.464Z" stroke="black" stroke-width="1.5" stroke-linecap="round" stroke-linejoin="round"/>
<path d="M15.808 15.808L18.75 18.75" stroke="black" stroke-width="1.5" stroke-linecap="round" stroke-linejoin="round"/>
<path d="M8.192 15.808L5.25 18.75" stroke="black" stroke-width="1.5" stroke-linecap="round" stroke-linejoin="round"/>
<path d="M16.606 3.646L14.55 10.5H9L7.5 6H15.9" stroke="black" stroke-width="1.5" stroke-linecap="round" stroke-linejoin="round"/>
<path d="M9.375 12.75C9.58211 12.75 9.75 12.9179 9.75 13.125C9.75 13.3321 9.58211 13.5 9.375 13.5C9.16789 13.5 9 13.3321 9 13.125C9 12.9179 9.16789 12.75 9.375 12.75" stroke="black" stroke-width="1.5" stroke-linecap="round" stroke-linejoin="round"/>
<path d="M14.175 12.75C14.3821 12.75 14.55 12.9179 14.55 13.125C14.55 13.3321 14.3821 13.5 14.175 13.5C13.9679 13.5 13.8 13.3321 13.8 13.125C13.8 12.9179 13.9679 12.75 14.175 12.75" stroke="black" stroke-width="1.5" stroke-linecap="round" stroke-linejoin="round"/>
</svg>
