<svg width="24" height="24" viewBox="0 0 24 24" fill="none" xmlns="http://www.w3.org/2000/svg">
<path d="M9.09999 11.629C8.94823 11.6302 8.81217 11.7228 8.75532 11.8635C8.69846 12.0042 8.73202 12.1653 8.84033 12.2716C8.94864 12.3779 9.11035 12.4085 9.24997 12.349C9.38959 12.2895 9.4796 12.1518 9.47799 12C9.47825 11.9005 9.43883 11.8049 9.36845 11.7345C9.29806 11.6642 9.20252 11.6247 9.10299 11.625V11.625" stroke="black" stroke-width="1.5" stroke-linecap="round" stroke-linejoin="round"/>
<path d="M15.75 3H20.25C21.0784 3 21.75 3.67157 21.75 4.5V19.5C21.75 20.3284 21.0784 21 20.25 21H15.75" stroke="black" stroke-width="1.5" stroke-linecap="round" stroke-linejoin="round"/>
<path fill-rule="evenodd" clip-rule="evenodd" d="M11.894 23.246L2.894 21.96C2.52444 21.9077 2.2498 21.5913 2.25 21.218V3.72504C2.24971 3.3711 2.4969 3.06513 2.843 2.99104L11.843 0.770041C12.0646 0.722611 12.2957 0.777883 12.4718 0.920416C12.6479 1.06295 12.7502 1.27747 12.75 1.50404V22.504C12.7499 22.7214 12.6555 22.9279 12.4912 23.0703C12.327 23.2126 12.1091 23.2768 11.894 23.246Z" stroke="black" stroke-width="1.5" stroke-linecap="round" stroke-linejoin="round"/>
</svg>
