<svg width="24" height="24" viewBox="0 0 24 24" fill="none" xmlns="http://www.w3.org/2000/svg">
<path fill-rule="evenodd" clip-rule="evenodd" d="M18.494 11.575L16.217 9.29998L18.338 7.17798L20.615 9.45498C21.2036 10.0234 22.1391 10.0153 22.7177 9.43671C23.2963 8.85811 23.3045 7.92255 22.736 7.33398L20.46 5.05598L21.52 3.99998C22.1071 3.41456 22.1084 2.46406 21.523 1.87698C20.9376 1.2899 19.9871 1.28856 19.4 1.87398L8.638 12.635C6.34508 11.3962 3.4905 12.0274 1.93361 14.1174C0.376715 16.2074 0.589051 19.1232 2.43231 20.9656C4.27557 22.808 7.19147 23.0189 9.28074 21.4611C11.37 19.9032 11.9998 17.0483 10.76 14.756L14.1 11.42L16.373 13.7C16.7521 14.0789 17.3045 14.2267 17.8221 14.0879C18.3398 13.9491 18.744 13.5446 18.8826 13.0269C19.0212 12.5092 18.8731 11.9569 18.494 11.578V11.575Z" stroke="black" stroke-width="1.5" stroke-linecap="round" stroke-linejoin="round"/>
<path fill-rule="evenodd" clip-rule="evenodd" d="M6.15201 19.1179C7.18754 19.1179 8.02701 18.2785 8.02701 17.2429C8.02701 16.2074 7.18754 15.3679 6.15201 15.3679C5.11647 15.3679 4.27701 16.2074 4.27701 17.2429C4.27701 18.2785 5.11647 19.1179 6.15201 19.1179Z" stroke="black" stroke-width="1.5" stroke-linecap="round" stroke-linejoin="round"/>
</svg>
