<svg width="24" height="24" viewBox="0 0 24 24" fill="none" xmlns="http://www.w3.org/2000/svg">
<path d="M20.25 18.7542V20.2542C20.25 21.0826 19.5784 21.7542 18.75 21.7542H14.25" stroke="black" stroke-width="1.5" stroke-linecap="round" stroke-linejoin="round"/>
<path d="M14.25 3.75415H18.75C19.5784 3.75415 20.25 4.42572 20.25 5.25415V6.75415" stroke="black" stroke-width="1.5" stroke-linecap="round" stroke-linejoin="round"/>
<path fill-rule="evenodd" clip-rule="evenodd" d="M10.394 23.246L1.394 21.96C1.02444 21.9077 0.749803 21.5913 0.75 21.218V3.72504C0.749709 3.3711 0.996901 3.06513 1.343 2.99104L10.343 0.770041C10.5646 0.722611 10.7957 0.777883 10.9718 0.920416C11.1479 1.06295 11.2502 1.27747 11.25 1.50404V22.504C11.2499 22.7214 11.1555 22.9279 10.9912 23.0703C10.827 23.2126 10.6091 23.2768 10.394 23.246Z" stroke="black" stroke-width="1.5" stroke-linecap="round" stroke-linejoin="round"/>
<path d="M18 9.75293L15 12.7529H23.25" stroke="black" stroke-width="1.5" stroke-linecap="round" stroke-linejoin="round"/>
<path d="M18 15.7529L15 12.7529" stroke="black" stroke-width="1.5" stroke-linecap="round" stroke-linejoin="round"/>
<path d="M7.87499 11.629C7.72295 11.629 7.58597 11.7208 7.52817 11.8614C7.47037 12.0021 7.50319 12.1637 7.61127 12.2706C7.71935 12.3775 7.8813 12.4086 8.02129 12.3493C8.16128 12.29 8.25161 12.152 8.24999 12C8.25026 11.9005 8.21083 11.8049 8.14045 11.7345C8.07007 11.6642 7.97453 11.6247 7.87499 11.625" stroke="black" stroke-width="1.5" stroke-linecap="round" stroke-linejoin="round"/>
</svg>
