<svg width="24" height="24" viewBox="0 0 24 24" fill="none" xmlns="http://www.w3.org/2000/svg">
<path fill-rule="evenodd" clip-rule="evenodd" d="M12.7509 9.80709C12.7501 6.68926 10.3614 4.09157 7.25461 3.8298C4.14778 3.56803 1.35817 5.72942 0.835705 8.80317C0.313236 11.8769 2.23203 14.8386 5.25086 15.6181V21.7541C5.25086 22.5825 5.92243 23.2541 6.75086 23.2541C7.57929 23.2541 8.25086 22.5825 8.25086 21.7541V15.6181C10.9005 14.934 12.7516 12.5437 12.7509 9.80709Z" stroke="black" stroke-width="1.5" stroke-linecap="round" stroke-linejoin="round"/>
<path d="M13.5639 15.75C14.3474 15.6418 15.1017 15.379 15.7829 14.977L20.6899 19.883C21.2785 20.4514 22.214 20.4433 22.7926 19.8647C23.3712 19.2861 23.3793 18.3505 22.8109 17.762L17.9009 12.856C19.2862 10.5096 18.9164 7.52429 17.0005 5.58678C15.0846 3.64927 12.1037 3.24606 9.74188 4.60496" stroke="black" stroke-width="1.5" stroke-linecap="round" stroke-linejoin="round"/>
<path fill-rule="evenodd" clip-rule="evenodd" d="M6.75085 10.5569C7.57928 10.5569 8.25085 9.88531 8.25085 9.05688C8.25085 8.22846 7.57928 7.55688 6.75085 7.55688C5.92243 7.55688 5.25085 8.22846 5.25085 9.05688C5.25085 9.88531 5.92243 10.5569 6.75085 10.5569Z" stroke="black" stroke-width="1.5" stroke-linecap="round" stroke-linejoin="round"/>
<path d="M6.75085 7.557V3C6.75085 1.75736 7.75821 0.75 9.00085 0.75C10.2435 0.75 11.2509 1.75736 11.2509 3V3.989" stroke="black" stroke-width="1.5" stroke-linecap="round" stroke-linejoin="round"/>
</svg>
