<svg width="24" height="24" viewBox="0 0 24 24" fill="none" xmlns="http://www.w3.org/2000/svg">
<path d="M9.75 23.2539H3.75C2.92157 23.2539 2.25 22.5823 2.25 21.7539V2.25391C2.25 1.42548 2.92157 0.753906 3.75 0.753906H14.25C15.0784 0.753906 15.75 1.42548 15.75 2.25391V7.49991" stroke="black" stroke-width="1.5" stroke-linecap="round" stroke-linejoin="round"/>
<path d="M5.62499 11.629C5.47295 11.629 5.33597 11.7208 5.27817 11.8614C5.22037 12.0021 5.25319 12.1637 5.36127 12.2706C5.46935 12.3775 5.6313 12.4086 5.77129 12.3493C5.91128 12.29 6.00161 12.152 5.99999 12C5.99999 11.7929 5.8321 11.625 5.62499 11.625V11.625" stroke="black" stroke-width="1.5" stroke-linecap="round" stroke-linejoin="round"/>
<path fill-rule="evenodd" clip-rule="evenodd" d="M12.75 17.2539C12.75 16.4255 13.4216 15.7539 14.25 15.7539H20.25C21.0784 15.7539 21.75 16.4255 21.75 17.2539V21.7539C21.75 22.5823 21.0784 23.2539 20.25 23.2539H14.25C13.4216 23.2539 12.75 22.5823 12.75 21.7539V17.2539Z" stroke="black" stroke-width="1.5" stroke-linecap="round" stroke-linejoin="round"/>
<path d="M14.25 15.7539V14.2539C14.25 12.5971 15.5931 11.2539 17.25 11.2539V11.2539C18.9069 11.2539 20.25 12.5971 20.25 14.2539V15.7539" stroke="black" stroke-width="1.5" stroke-linecap="round" stroke-linejoin="round"/>
<path d="M17.25 19.1289C17.0429 19.1289 16.875 19.2968 16.875 19.5039C16.875 19.711 17.0429 19.8789 17.25 19.8789C17.4571 19.8789 17.625 19.711 17.625 19.5039C17.625 19.2968 17.4571 19.1289 17.25 19.1289V19.1289" stroke="black" stroke-width="1.5" stroke-linecap="round" stroke-linejoin="round"/>
</svg>
