<svg width="24" height="24" viewBox="0 0 24 24" fill="none" xmlns="http://www.w3.org/2000/svg">
<path fill-rule="evenodd" clip-rule="evenodd" d="M12.818 14.5171L15.363 11.9721L17.115 12.4421C17.657 12.5867 18.235 12.4314 18.6317 12.0348C19.0283 11.6381 19.1836 11.0601 19.039 10.5181L18.569 8.7661L19.353 7.9821L21.105 8.4521C21.6471 8.59732 22.2255 8.44231 22.6224 8.04546C23.0192 7.64862 23.1742 7.07021 23.029 6.5281L22.56 4.7761C23.4801 3.85571 23.4799 2.3637 22.5595 1.4436C21.6391 0.523489 20.1471 0.523713 19.227 1.4441L9.48602 11.1851C6.71732 10.0112 3.50502 10.9638 1.82389 13.4573C0.142765 15.9508 0.46425 19.2859 2.59072 21.4124C4.71718 23.5389 8.0523 23.8604 10.5458 22.1792C13.0393 20.4981 13.9919 17.2858 12.818 14.5171Z" stroke="black" stroke-width="1.5" stroke-linecap="round" stroke-linejoin="round"/>
<path fill-rule="evenodd" clip-rule="evenodd" d="M5.92201 19.652C6.78965 19.652 7.49301 18.9486 7.49301 18.081C7.49301 17.2134 6.78965 16.51 5.92201 16.51C5.05437 16.51 4.35101 17.2134 4.35101 18.081C4.35101 18.9486 5.05437 19.652 5.92201 19.652Z" stroke="black" stroke-width="1.5" stroke-linecap="round" stroke-linejoin="round"/>
</svg>
