<svg width="24" height="24" viewBox="0 0 24 24" fill="none" xmlns="http://www.w3.org/2000/svg">
<path d="M2.25001 23.25C2.24686 20.2873 3.59375 17.4846 5.90901 15.636" stroke="black" stroke-width="1.5" stroke-linecap="round" stroke-linejoin="round"/>
<path d="M7.69101 9.00002C6.17145 6.81683 6.52479 3.84217 8.5135 2.0757C10.5022 0.309238 13.4978 0.309238 15.4865 2.0757C17.4752 3.84217 17.8286 6.81683 16.309 9.00002" stroke="black" stroke-width="1.5" stroke-linecap="round" stroke-linejoin="round"/>
<path d="M6.871 4.875H9C10.1806 4.8761 11.2925 4.32014 12 3.375C12.7075 4.32014 13.8194 4.8761 15 4.875H17.129" stroke="black" stroke-width="1.5" stroke-linecap="round" stroke-linejoin="round"/>
<path fill-rule="evenodd" clip-rule="evenodd" d="M11.25 9.00001C12.35 11.343 8.28201 12.411 5.85001 11.53C6.72901 9.10001 10.152 6.65701 11.25 9.00001Z" stroke="black" stroke-width="1.5" stroke-linecap="round" stroke-linejoin="round"/>
<path fill-rule="evenodd" clip-rule="evenodd" d="M12.75 9.00001C11.65 11.343 15.718 12.411 18.15 11.53C17.271 9.10001 13.848 6.65701 12.75 9.00001Z" stroke="black" stroke-width="1.5" stroke-linecap="round" stroke-linejoin="round"/>
<path d="M21.75 23.25C21.7531 20.2873 20.4063 17.4846 18.091 15.636" stroke="black" stroke-width="1.5" stroke-linecap="round" stroke-linejoin="round"/>
<path d="M15 14.25C15 18.062 12 18.75 12 18.75C12 18.75 9 18.062 9 14.25" stroke="black" stroke-width="1.5" stroke-linecap="round" stroke-linejoin="round"/>
</svg>
