<svg width="24" height="24" viewBox="0 0 24 24" fill="none" xmlns="http://www.w3.org/2000/svg">
<path fill-rule="evenodd" clip-rule="evenodd" d="M12.001 13.5C14.9005 13.5 17.251 11.1495 17.251 8.25C17.251 5.35051 14.9005 3 12.001 3C9.1015 3 6.751 5.35051 6.751 8.25C6.751 11.1495 9.1015 13.5 12.001 13.5Z" stroke="black" stroke-width="1.5" stroke-linecap="round" stroke-linejoin="round"/>
<path d="M8.251 16.5V17.251C8.251 19.3221 9.92993 21.001 12.001 21.001C14.0721 21.001 15.751 19.3221 15.751 17.251V16.5" stroke="black" stroke-width="1.5" stroke-linecap="round" stroke-linejoin="round"/>
<path d="M12.001 0.75V5.25" stroke="black" stroke-width="1.5" stroke-linecap="round" stroke-linejoin="round"/>
<path d="M21.489 23.25C20.4457 18.8536 16.519 15.7496 12.0005 15.7496C7.482 15.7496 3.55528 18.8536 2.512 23.25" stroke="black" stroke-width="1.5" stroke-linecap="round" stroke-linejoin="round"/>
</svg>
