<svg width="24" height="24" viewBox="0 0 24 24" fill="none" xmlns="http://www.w3.org/2000/svg">
<path d="M7.477 3.33398C9.11934 5.03803 11.3843 6.00049 13.751 5.99998C14.9371 6.00032 16.1107 5.75837 17.2 5.28898" stroke="black" stroke-width="1.5" stroke-linecap="round" stroke-linejoin="round"/>
<path fill-rule="evenodd" clip-rule="evenodd" d="M17.25 6V11.25C17.25 14.1495 14.8995 16.5 12 16.5C9.10051 16.5 6.75 14.1495 6.75 11.25V6C6.75 3.10051 9.10051 0.75 12 0.75C14.8995 0.75 17.25 3.10051 17.25 6Z" stroke="black" stroke-width="1.5" stroke-linecap="round" stroke-linejoin="round"/>
<path d="M17.251 6.75C17.251 8.272 16.036 11.433 15.001 12C14.064 12.512 13.379 10.5 12.001 10.5C10.623 10.5 9.938 12.512 9 12C7.965 11.433 6.75 8.272 6.75 6.75" stroke="black" stroke-width="1.5" stroke-linecap="round" stroke-linejoin="round"/>
<path d="M21.635 23.25C21.0718 19.645 18.5454 16.655 15.085 15.498" stroke="black" stroke-width="1.5" stroke-linecap="round" stroke-linejoin="round"/>
<path d="M8.915 15.5C5.45464 16.657 2.92824 19.6471 2.365 23.252" stroke="black" stroke-width="1.5" stroke-linecap="round" stroke-linejoin="round"/>
<path d="M12.115 23.25V16.5" stroke="black" stroke-width="1.5" stroke-linecap="round" stroke-linejoin="round"/>
<path d="M15.115 21.75H18.115" stroke="black" stroke-width="1.5" stroke-linecap="round" stroke-linejoin="round"/>
</svg>
