<svg width="24" height="24" viewBox="0 0 24 24" fill="none" xmlns="http://www.w3.org/2000/svg">
<path fill-rule="evenodd" clip-rule="evenodd" d="M12 14.25C14.8995 14.25 17.25 11.8995 17.25 9C17.25 6.10051 14.8995 3.75 12 3.75C9.10051 3.75 6.75 6.10051 6.75 9C6.75 11.8995 9.10051 14.25 12 14.25Z" stroke="black" stroke-width="1.5" stroke-linecap="round" stroke-linejoin="round"/>
<path d="M7.47598 6.33398C9.99526 8.9446 13.8675 9.72311 17.2 8.28898" stroke="black" stroke-width="1.5" stroke-linecap="round" stroke-linejoin="round"/>
<path d="M8.25 17.249V18C8.25 20.0711 9.92893 21.75 12 21.75C14.0711 21.75 15.75 20.0711 15.75 18V17.249" stroke="black" stroke-width="1.5" stroke-linecap="round" stroke-linejoin="round"/>
<path d="M21.279 23.25C19.9766 19.2263 16.2292 16.5005 12 16.5005C7.77074 16.5005 4.02343 19.2263 2.72099 23.25" stroke="black" stroke-width="1.5" stroke-linecap="round" stroke-linejoin="round"/>
<path fill-rule="evenodd" clip-rule="evenodd" d="M3.75 10.5C3.75 10.9142 4.08579 11.25 4.5 11.25H6.75V6.75H4.5C4.08579 6.75 3.75 7.08579 3.75 7.5V10.5Z" stroke="black" stroke-width="1.5" stroke-linecap="round" stroke-linejoin="round"/>
<path fill-rule="evenodd" clip-rule="evenodd" d="M19.5 11.25H17.25V6.75H19.5C19.9142 6.75 20.25 7.08579 20.25 7.5V10.5C20.25 10.9142 19.9142 11.25 19.5 11.25Z" stroke="black" stroke-width="1.5" stroke-linecap="round" stroke-linejoin="round"/>
<path d="M18.708 6.75001C18.3252 3.3344 15.437 0.751831 12 0.751831C8.563 0.751831 5.67481 3.3344 5.29199 6.75001" stroke="black" stroke-width="1.5" stroke-linecap="round" stroke-linejoin="round"/>
</svg>
