<svg width="24" height="24" viewBox="0 0 24 24" fill="none" xmlns="http://www.w3.org/2000/svg">
<path d="M2.25 23.25C2.25059 19.0206 4.97632 15.2732 9 13.97L12 16.5L15 13.97C19.0247 15.272 21.7512 19.02 21.751 23.25" stroke="black" stroke-width="1.5" stroke-linecap="round" stroke-linejoin="round"/>
<path fill-rule="evenodd" clip-rule="evenodd" d="M17.654 15.306C16.8431 14.7272 15.948 14.2766 15 13.97L12 16.5L16.5 19.5L17.654 15.306Z" stroke="black" stroke-width="1.5" stroke-linecap="round" stroke-linejoin="round"/>
<path fill-rule="evenodd" clip-rule="evenodd" d="M12 16.5L8.99998 13.97C8.05246 14.2769 7.1577 14.7275 6.34698 15.306L7.49998 19.5L12 16.5Z" stroke="black" stroke-width="1.5" stroke-linecap="round" stroke-linejoin="round"/>
<path d="M7.69101 9.00002C6.17145 6.81683 6.52479 3.84217 8.5135 2.0757C10.5022 0.309238 13.4978 0.309238 15.4865 2.0757C17.4752 3.84217 17.8286 6.81683 16.309 9.00002" stroke="black" stroke-width="1.5" stroke-linecap="round" stroke-linejoin="round"/>
<path d="M17.25 6.00002H14.25C12.1789 6.00002 10.5 4.32109 10.5 2.25002V0.968018" stroke="black" stroke-width="1.5" stroke-linecap="round" stroke-linejoin="round"/>
<path fill-rule="evenodd" clip-rule="evenodd" d="M11.25 9.00001C12.35 11.343 8.28201 12.411 5.85001 11.53C6.72901 9.10001 10.152 6.65701 11.25 9.00001Z" stroke="black" stroke-width="1.5" stroke-linecap="round" stroke-linejoin="round"/>
<path fill-rule="evenodd" clip-rule="evenodd" d="M12.75 9.00001C11.65 11.343 15.718 12.411 18.15 11.53C17.271 9.10001 13.848 6.65701 12.75 9.00001Z" stroke="black" stroke-width="1.5" stroke-linecap="round" stroke-linejoin="round"/>
</svg>
