<svg width="24" height="24" viewBox="0 0 24 24" fill="none" xmlns="http://www.w3.org/2000/svg">
<path fill-rule="evenodd" clip-rule="evenodd" d="M12 11.25C14.8995 11.25 17.25 8.89949 17.25 6C17.25 3.10051 14.8995 0.75 12 0.75C9.10051 0.75 6.75 3.10051 6.75 6C6.75 8.89949 9.10051 11.25 12 11.25Z" stroke="black" stroke-width="1.5" stroke-linecap="round" stroke-linejoin="round"/>
<path d="M2.25 23.25C2.25 17.8652 6.61522 13.5 12 13.5C17.3848 13.5 21.75 17.8652 21.75 23.25" stroke="black" stroke-width="1.5" stroke-linecap="round" stroke-linejoin="round"/>
<path d="M6.804 6.75H21" stroke="black" stroke-width="1.5" stroke-linecap="round" stroke-linejoin="round"/>
<path d="M11.25 3.75H12.75" stroke="black" stroke-width="1.5" stroke-linecap="round" stroke-linejoin="round"/>
<path d="M8.32001 14.219C8.6627 15.9804 10.2055 17.252 12 17.252C13.7945 17.252 15.3373 15.9804 15.68 14.219" stroke="black" stroke-width="1.5" stroke-linecap="round" stroke-linejoin="round"/>
<path d="M11.25 17.175V23.25" stroke="black" stroke-width="1.5" stroke-linecap="round" stroke-linejoin="round"/>
<path d="M15.375 19.5C15.1679 19.5 15 19.6679 15 19.875C15 20.0821 15.1679 20.25 15.375 20.25C15.5821 20.25 15.75 20.0821 15.75 19.875C15.75 19.6679 15.5821 19.5 15.375 19.5" stroke="black" stroke-width="1.5" stroke-linecap="round" stroke-linejoin="round"/>
</svg>
