<svg width="24" height="24" viewBox="0 0 24 24" fill="none" xmlns="http://www.w3.org/2000/svg">
<path fill-rule="evenodd" clip-rule="evenodd" d="M12 12.75C15.3137 12.75 18 10.0637 18 6.75C18 3.43629 15.3137 0.75 12 0.75C8.68629 0.75 6 3.43629 6 6.75C6 10.0637 8.68629 12.75 12 12.75Z" stroke="black" stroke-width="1.5" stroke-linecap="round" stroke-linejoin="round"/>
<path d="M2.25 23.25C2.25059 19.0205 4.97632 15.2731 9 13.97L12 16.5L15 13.97C19.0247 15.272 21.7512 19.0199 21.751 23.25" stroke="black" stroke-width="1.5" stroke-linecap="round" stroke-linejoin="round"/>
<path fill-rule="evenodd" clip-rule="evenodd" d="M17.654 15.306C16.8431 14.7271 15.948 14.2765 15 13.97L12 16.5L16.5 19.5L17.654 15.306Z" stroke="black" stroke-width="1.5" stroke-linecap="round" stroke-linejoin="round"/>
<path fill-rule="evenodd" clip-rule="evenodd" d="M12 16.5L9 13.97C8.05248 14.2768 7.15771 14.7274 6.347 15.306L7.5 19.5L12 16.5Z" stroke="black" stroke-width="1.5" stroke-linecap="round" stroke-linejoin="round"/>
<path fill-rule="evenodd" clip-rule="evenodd" d="M9.75 8.25C10.5784 8.25 11.25 7.57843 11.25 6.75C11.25 5.92157 10.5784 5.25 9.75 5.25C8.92157 5.25 8.25 5.92157 8.25 6.75C8.25 7.57843 8.92157 8.25 9.75 8.25Z" stroke="black" stroke-width="1.5" stroke-linecap="round" stroke-linejoin="round"/>
<path fill-rule="evenodd" clip-rule="evenodd" d="M14.25 8.25C15.0784 8.25 15.75 7.57843 15.75 6.75C15.75 5.92157 15.0784 5.25 14.25 5.25C13.4216 5.25 12.75 5.92157 12.75 6.75C12.75 7.57843 13.4216 8.25 14.25 8.25Z" stroke="black" stroke-width="1.5" stroke-linecap="round" stroke-linejoin="round"/>
<path d="M4.5 6.75H8.25" stroke="black" stroke-width="1.5" stroke-linecap="round" stroke-linejoin="round"/>
<path d="M15.75 6.75H19.5" stroke="black" stroke-width="1.5" stroke-linecap="round" stroke-linejoin="round"/>
<path d="M12 23.25V16.5" stroke="black" stroke-width="1.5" stroke-linecap="round" stroke-linejoin="round"/>
</svg>
