<svg width="24" height="24" viewBox="0 0 24 24" fill="none" xmlns="http://www.w3.org/2000/svg">
<path d="M2.25 23.25C2.25 17.8652 6.61522 13.5 12 13.5C17.3848 13.5 21.75 17.8652 21.75 23.25" stroke="black" stroke-width="1.5" stroke-linecap="round" stroke-linejoin="round"/>
<path d="M8.25 14.249V15C8.25 17.0711 9.92893 18.75 12 18.75C14.0711 18.75 15.75 17.0711 15.75 15V14.249" stroke="black" stroke-width="1.5" stroke-linecap="round" stroke-linejoin="round"/>
<path fill-rule="evenodd" clip-rule="evenodd" d="M12 0.750001C10.2671 0.748799 8.64554 1.60411 7.668 3.035C8.25 6 14.015 8.737 18.75 7.5C18 4.5 17.25 0.750001 12 0.750001Z" stroke="black" stroke-width="1.5" stroke-linecap="round" stroke-linejoin="round"/>
<path d="M16.938 7.78497C12.655 8.04897 8.177 5.62897 7.668 3.03497C6.24797 5.11017 6.49878 7.90086 8.26606 9.68962C10.0334 11.4784 12.8208 11.7628 14.913 10.368" stroke="black" stroke-width="1.5" stroke-linecap="round" stroke-linejoin="round"/>
</svg>
