<svg width="24" height="24" viewBox="0 0 24 24" fill="none" xmlns="http://www.w3.org/2000/svg">
<path d="M8.25 17.226V17.977C8.25 20.048 9.92893 21.727 12 21.727C14.0711 21.727 15.75 20.048 15.75 17.977V17.226" stroke="black" stroke-width="1.5" stroke-linecap="round" stroke-linejoin="round"/>
<path d="M8.59399 4.98199C6.92014 6.40899 6.31329 8.72814 7.07367 10.7921C7.83405 12.8561 9.80043 14.2272 12 14.2272C14.1996 14.2272 16.1659 12.8561 16.9263 10.7921C17.6867 8.72814 17.0798 6.40899 15.406 4.98199" stroke="black" stroke-width="1.5" stroke-linecap="round" stroke-linejoin="round"/>
<path fill-rule="evenodd" clip-rule="evenodd" d="M14.25 2.97698C12.9006 2.97771 11.7168 2.07747 11.357 0.776978C9.73453 0.857155 8.41412 2.11084 8.25 3.72698C8.25 5.38398 9.929 6.72698 12 6.72698C14.071 6.72698 15.75 5.38398 15.75 3.72698C15.75 3.31276 15.4142 2.97698 15 2.97698H14.25Z" stroke="black" stroke-width="1.5" stroke-linecap="round" stroke-linejoin="round"/>
<path d="M21.279 23.227C19.9766 19.2032 16.2292 16.4775 12 16.4775C7.77074 16.4775 4.02343 19.2032 2.72099 23.227" stroke="black" stroke-width="1.5" stroke-linecap="round" stroke-linejoin="round"/>
</svg>
