<svg width="24" height="24" viewBox="0 0 24 24" fill="none" xmlns="http://www.w3.org/2000/svg">
<path d="M21.279 23.25C19.9766 19.2263 16.2292 16.5005 12 16.5005C7.77074 16.5005 4.02343 19.2263 2.72099 23.25" stroke="black" stroke-width="1.5" stroke-linecap="round" stroke-linejoin="round"/>
<path d="M8.25 17.247V17.247C8.25 19.3181 9.92893 20.997 12 20.997C14.0711 20.997 15.75 19.3181 15.75 17.247V17.247" stroke="black" stroke-width="1.5" stroke-linecap="round" stroke-linejoin="round"/>
<path fill-rule="evenodd" clip-rule="evenodd" d="M20.25 8.25C20.25 12.392 16.142 14.25 12 14.25C7.858 14.25 3.75 12.392 3.75 8.25C3.75 4.108 7.5 0.75 12 0.75C16.5 0.75 20.25 4.108 20.25 8.25Z" stroke="black" stroke-width="1.5" stroke-linecap="round" stroke-linejoin="round"/>
<path fill-rule="evenodd" clip-rule="evenodd" d="M12 8.24999C10.571 8.24999 10.46 7.74999 9.429 6.91499C9.23951 6.76219 8.98772 6.71072 8.75346 6.77688C8.51921 6.84304 8.33155 7.01864 8.25 7.24799C7.05 10.654 8.374 14.248 12 14.248C15.626 14.248 16.955 10.648 15.75 7.24799C15.6684 7.01864 15.4808 6.84304 15.2465 6.77688C15.0123 6.71072 14.7605 6.76219 14.571 6.91499C13.54 7.74999 13.429 8.24999 12 8.24999Z" stroke="black" stroke-width="1.5" stroke-linecap="round" stroke-linejoin="round"/>
</svg>
