<svg width="24" height="24" viewBox="0 0 24 24" fill="none" xmlns="http://www.w3.org/2000/svg">
<path fill-rule="evenodd" clip-rule="evenodd" d="M17.25 6V11.25C17.25 14.1495 14.8995 16.5 12 16.5C9.10051 16.5 6.75 14.1495 6.75 11.25V6C6.75 3.10051 9.10051 0.75 12 0.75C14.8995 0.75 17.25 3.10051 17.25 6Z" stroke="black" stroke-width="1.5" stroke-linecap="round" stroke-linejoin="round"/>
<path fill-rule="evenodd" clip-rule="evenodd" d="M17.654 17.556C16.8431 16.9771 15.948 16.5265 15 16.22L12 18.75L16.5 21L17.654 17.556Z" stroke="black" stroke-width="1.5" stroke-linecap="round" stroke-linejoin="round"/>
<path fill-rule="evenodd" clip-rule="evenodd" d="M12 18.75L9 16.22C8.05248 16.5268 7.15771 16.9774 6.347 17.556L7.5 21L12 18.75Z" stroke="black" stroke-width="1.5" stroke-linecap="round" stroke-linejoin="round"/>
<path d="M21.489 23.25C20.7001 19.9353 18.2411 17.2712 15 16.22L12 18.75L9 16.22C5.75944 17.2716 3.30085 19.9356 2.512 23.25" stroke="black" stroke-width="1.5" stroke-linecap="round" stroke-linejoin="round"/>
<path d="M6 6.75H18" stroke="black" stroke-width="1.5" stroke-linecap="round" stroke-linejoin="round"/>
<path d="M17.25 6.75C17.25 8.272 16.035 11.433 15 12C14.063 12.512 13.378 10.5 12 10.5C10.622 10.5 9.937 12.512 9 12C7.965 11.433 6.75 8.272 6.75 6.75" stroke="black" stroke-width="1.5" stroke-linecap="round" stroke-linejoin="round"/>
</svg>
