<svg width="24" height="24" viewBox="0 0 24 24" fill="none" xmlns="http://www.w3.org/2000/svg">
<path d="M8.25 15.749V16.5C8.25 18.5711 9.92893 20.25 12 20.25C14.0711 20.25 15.75 18.5711 15.75 16.5V15.749" stroke="black" stroke-width="1.5" stroke-linecap="round" stroke-linejoin="round"/>
<path d="M21.635 23.25C20.8958 18.5008 16.8063 14.9986 12 14.9986C7.19366 14.9986 3.10416 18.5008 2.365 23.25" stroke="black" stroke-width="1.5" stroke-linecap="round" stroke-linejoin="round"/>
<path fill-rule="evenodd" clip-rule="evenodd" d="M9.646 4.623L9.146 1.623C9.10951 1.40566 9.1706 1.18328 9.31299 1.01507C9.45538 0.846864 9.66462 0.749901 9.885 0.75H14.115C14.3354 0.749901 14.5446 0.846864 14.687 1.01507C14.8294 1.18328 14.8905 1.40566 14.854 1.623L14.354 4.623C12.8998 5.47297 11.1002 5.47297 9.646 4.623Z" stroke="black" stroke-width="1.5" stroke-linecap="round" stroke-linejoin="round"/>
<path d="M9.368 2.95599C7.3133 4.1465 6.31356 6.568 6.92994 8.86128C7.54632 11.1546 9.62532 12.7486 12 12.7486C14.3747 12.7486 16.4537 11.1546 17.0701 8.86128C17.6864 6.568 16.6867 4.1465 14.632 2.95599" stroke="black" stroke-width="1.5" stroke-linecap="round" stroke-linejoin="round"/>
</svg>
