<svg width="24" height="24" viewBox="0 0 24 24" fill="none" xmlns="http://www.w3.org/2000/svg">
<path fill-rule="evenodd" clip-rule="evenodd" d="M15.7568 15.75C19.8989 15.75 23.2568 12.3921 23.2568 8.25C23.2568 4.10786 19.8989 0.75 15.7568 0.75C11.6146 0.75 8.25675 4.10786 8.25675 8.25C8.25675 12.3921 11.6146 15.75 15.7568 15.75Z" stroke="black" stroke-width="1.5" stroke-linecap="round" stroke-linejoin="round"/>
<path d="M6.38175 14.092C6.3818 14.6403 6.71565 15.1334 7.22475 15.337L9.28875 16.163C9.88493 16.4029 10.2274 17.0317 10.1054 17.6626C9.98349 18.2936 9.43138 18.7495 8.78875 18.75H6.75675" stroke="black" stroke-width="1.5" stroke-linecap="round" stroke-linejoin="round"/>
<path d="M8.25675 20.25V18.75" stroke="black" stroke-width="1.5" stroke-linecap="round" stroke-linejoin="round"/>
<path d="M5.28775 8.867C2.19205 10.1981 0.364191 13.4305 0.819056 16.7694C1.27392 20.1083 3.89982 22.734 7.23879 23.1885C10.5778 23.643 13.8099 21.8148 15.1408 18.719" stroke="black" stroke-width="1.5" stroke-linecap="round" stroke-linejoin="round"/>
<path d="M17.2568 5.25H15.2238C14.5811 5.25045 14.029 5.70639 13.9071 6.33734C13.7851 6.96828 14.1276 7.59712 14.7238 7.837L16.7878 8.663C17.3839 8.90288 17.7264 9.53172 17.6044 10.1627C17.4825 10.7936 16.9304 11.2496 16.2878 11.25H14.2568" stroke="black" stroke-width="1.5" stroke-linecap="round" stroke-linejoin="round"/>
<path d="M15.7568 5.25V3.75" stroke="black" stroke-width="1.5" stroke-linecap="round" stroke-linejoin="round"/>
<path d="M15.7568 12.75V11.25" stroke="black" stroke-width="1.5" stroke-linecap="round" stroke-linejoin="round"/>
</svg>
