<svg width="24" height="24" viewBox="0 0 24 24" fill="none" xmlns="http://www.w3.org/2000/svg">
<path fill-rule="evenodd" clip-rule="evenodd" d="M3.75 2.25C3.75 1.42157 4.42157 0.75 5.25 0.75H18.75C19.5784 0.75 20.25 1.42157 20.25 2.25V21.75C20.25 22.5784 19.5784 23.25 18.75 23.25H5.25C4.42157 23.25 3.75 22.5784 3.75 21.75V2.25Z" stroke="black" stroke-width="1.5" stroke-linecap="round" stroke-linejoin="round"/>
<path fill-rule="evenodd" clip-rule="evenodd" d="M6.75 4.5C6.75 4.08579 7.08579 3.75 7.5 3.75H16.5C16.9142 3.75 17.25 4.08579 17.25 4.5V7.5C17.25 7.91421 16.9142 8.25 16.5 8.25H7.5C7.08579 8.25 6.75 7.91421 6.75 7.5V4.5Z" stroke="black" stroke-width="1.5" stroke-linecap="round" stroke-linejoin="round"/>
<path d="M7.875 12C8.08211 12 8.25 12.1679 8.25 12.375C8.25 12.5821 8.08211 12.75 7.875 12.75C7.66789 12.75 7.5 12.5821 7.5 12.375C7.5 12.1679 7.66789 12 7.875 12" stroke="black" stroke-width="1.5" stroke-linecap="round" stroke-linejoin="round"/>
<path d="M12.156 12C12.3631 12 12.531 12.1679 12.531 12.375C12.531 12.5821 12.3631 12.75 12.156 12.75C11.9489 12.75 11.781 12.5821 11.781 12.375C11.781 12.1679 11.9489 12 12.156 12" stroke="black" stroke-width="1.5" stroke-linecap="round" stroke-linejoin="round"/>
<path d="M16.125 12C16.3321 12 16.5 12.1679 16.5 12.375C16.5 12.5821 16.3321 12.75 16.125 12.75C15.9179 12.75 15.75 12.5821 15.75 12.375C15.75 12.1679 15.9179 12 16.125 12" stroke="black" stroke-width="1.5" stroke-linecap="round" stroke-linejoin="round"/>
<path d="M7.875 15.75C8.08211 15.75 8.25 15.9179 8.25 16.125C8.25 16.3321 8.08211 16.5 7.875 16.5C7.66789 16.5 7.5 16.3321 7.5 16.125C7.5 15.9179 7.66789 15.75 7.875 15.75" stroke="black" stroke-width="1.5" stroke-linecap="round" stroke-linejoin="round"/>
<path d="M12.156 15.75C12.3631 15.75 12.531 15.9179 12.531 16.125C12.531 16.3321 12.3631 16.5 12.156 16.5C11.9489 16.5 11.781 16.3321 11.781 16.125C11.781 15.9179 11.9489 15.75 12.156 15.75" stroke="black" stroke-width="1.5" stroke-linecap="round" stroke-linejoin="round"/>
<path d="M16.125 15.75C16.3321 15.75 16.5 15.9179 16.5 16.125C16.5 16.3321 16.3321 16.5 16.125 16.5C15.9179 16.5 15.75 16.3321 15.75 16.125C15.75 15.9179 15.9179 15.75 16.125 15.75" stroke="black" stroke-width="1.5" stroke-linecap="round" stroke-linejoin="round"/>
<path d="M7.875 19.5C8.08211 19.5 8.25 19.6679 8.25 19.875C8.25 20.0821 8.08211 20.25 7.875 20.25C7.66789 20.25 7.5 20.0821 7.5 19.875C7.5 19.6679 7.66789 19.5 7.875 19.5" stroke="black" stroke-width="1.5" stroke-linecap="round" stroke-linejoin="round"/>
<path d="M12.156 19.5C12.3631 19.5 12.531 19.6679 12.531 19.875C12.531 20.0821 12.3631 20.25 12.156 20.25C11.9489 20.25 11.781 20.0821 11.781 19.875C11.781 19.6679 11.9489 19.5 12.156 19.5" stroke="black" stroke-width="1.5" stroke-linecap="round" stroke-linejoin="round"/>
<path d="M16.125 19.5C16.3321 19.5 16.5 19.6679 16.5 19.875C16.5 20.0821 16.3321 20.25 16.125 20.25C15.9179 20.25 15.75 20.0821 15.75 19.875C15.75 19.6679 15.9179 19.5 16.125 19.5" stroke="black" stroke-width="1.5" stroke-linecap="round" stroke-linejoin="round"/>
</svg>
