<svg width="24" height="24" viewBox="0 0 24 24" fill="none" xmlns="http://www.w3.org/2000/svg">
<path d="M15.25 9V2.625C15.25 1.58947 14.4105 0.75 13.375 0.75C12.3395 0.75 11.5 1.58947 11.5 2.625V11.25C11.5 12.9069 10.1569 14.25 8.5 14.25C6.84315 14.25 5.5 12.9069 5.5 11.25V7.5C5.5 6.25736 4.49264 5.25 3.25 5.25C2.00736 5.25 1 6.25736 1 7.5V12.375C1 18.3811 5.8689 23.25 11.875 23.25C17.8811 23.25 22.75 18.3811 22.75 12.375V7.125C22.75 6.08947 21.9105 5.25 20.875 5.25C19.8395 5.25 19 6.08947 19 7.125" stroke="black" stroke-width="1.5" stroke-linecap="round" stroke-linejoin="round"/>
<path d="M5.5 9.75H11.5" stroke="black" stroke-width="1.5" stroke-linecap="round" stroke-linejoin="round"/>
<path d="M8.5 2.14099V9.74999" stroke="black" stroke-width="1.5" stroke-linecap="round" stroke-linejoin="round"/>
<path d="M16.1 18.194C15.3005 18.7415 14.4016 19.1274 13.454 19.33" stroke="black" stroke-width="1.5" stroke-linecap="round" stroke-linejoin="round"/>
<path d="M10.293 19.33C9.3459 19.1268 8.44748 18.7409 7.648 18.194" stroke="black" stroke-width="1.5" stroke-linecap="round" stroke-linejoin="round"/>
<path d="M3.8 5.319C5.76244 3.08387 8.53196 1.71925 11.5 1.525L11.875 1.5" stroke="black" stroke-width="1.5" stroke-linecap="round" stroke-linejoin="round"/>
<path d="M15.25 4.875C15.25 3.83947 16.0895 3 17.125 3C18.1605 3 19 3.83947 19 4.875V10.5" stroke="black" stroke-width="1.5" stroke-linecap="round" stroke-linejoin="round"/>
</svg>
