<svg width="24" height="24" viewBox="0 0 24 24" fill="none" xmlns="http://www.w3.org/2000/svg">
<path fill-rule="evenodd" clip-rule="evenodd" d="M16.75 9.75958C18.4069 9.75958 19.75 8.41644 19.75 6.75958C19.75 5.10273 18.4069 3.75958 16.75 3.75958C15.0931 3.75958 13.75 5.10273 13.75 6.75958C13.75 8.41644 15.0931 9.75958 16.75 9.75958Z" stroke="black" stroke-width="1.5" stroke-linecap="round" stroke-linejoin="round"/>
<path d="M5.431 9.7386L7.747 2.1566C8.01898 1.41185 8.68027 0.878383 9.4657 0.770105C10.2511 0.661826 11.0321 0.996468 11.4954 1.63985C11.9588 2.28322 12.0286 3.12999 11.677 3.8406L7.877 10.5816" stroke="black" stroke-width="1.5" stroke-linecap="round" stroke-linejoin="round"/>
<path d="M21.25 23.2596L20.5 21.0096V14.2596C20.5 12.6027 19.1569 11.2596 17.5 11.2596H12.742C11.5483 11.2568 10.4029 11.7313 9.561 12.5776L7 15.1386L5.061 13.1986C4.47503 12.6126 3.52497 12.6126 2.939 13.1986C2.35303 13.7846 2.35303 14.7346 2.939 15.3206L4.879 17.2596C6.0505 18.4307 7.9495 18.4307 9.121 17.2596L11.5 14.8806C11.898 14.4831 12.4375 14.2598 13 14.2596V21.0096L12.25 23.2596" stroke="black" stroke-width="1.5" stroke-linecap="round" stroke-linejoin="round"/>
<path d="M16.75 22.5096V23.2596" stroke="black" stroke-width="1.5" stroke-linecap="round" stroke-linejoin="round"/>
</svg>
