<svg width="24" height="24" viewBox="0 0 24 24" fill="none" xmlns="http://www.w3.org/2000/svg">
<path fill-rule="evenodd" clip-rule="evenodd" d="M5.43218 20.689L3.31118 18.568C2.9323 18.189 2.37997 18.0408 1.86226 18.1794C1.34454 18.318 0.940091 18.7223 0.801257 19.2399C0.662422 19.7576 0.810296 20.31 1.18918 20.689L3.31118 22.811C3.89715 23.3967 4.84698 23.3965 5.43268 22.8105C6.01837 22.2245 6.01815 21.2747 5.43218 20.689V20.689Z" stroke="black" stroke-width="1.5" stroke-linecap="round" stroke-linejoin="round"/>
<path fill-rule="evenodd" clip-rule="evenodd" d="M3.31118 18.568C3.31118 18.568 15.3842 3.31301 16.8482 1.84801C18.3257 0.47122 20.6282 0.511845 22.0563 1.93991C23.4844 3.36797 23.525 5.67047 22.1482 7.14801C20.6872 8.61601 5.43218 20.689 5.43218 20.689L3.31118 18.568Z" stroke="black" stroke-width="1.5" stroke-linecap="round" stroke-linejoin="round"/>
<path d="M10.9352 16.314L7.68618 13.065" stroke="black" stroke-width="1.5" stroke-linecap="round" stroke-linejoin="round"/>
<path d="M5.56218 15.731L8.26918 18.438" stroke="black" stroke-width="1.5" stroke-linecap="round" stroke-linejoin="round"/>
<path fill-rule="evenodd" clip-rule="evenodd" d="M20.2502 23.25C21.907 23.25 23.2502 21.9069 23.2502 20.25C23.2502 18.5931 21.907 17.25 20.2502 17.25C18.5933 17.25 17.2502 18.5931 17.2502 20.25C17.2502 21.9069 18.5933 23.25 20.2502 23.25Z" stroke="black" stroke-width="1.5" stroke-linecap="round" stroke-linejoin="round"/>
</svg>
