<svg width="24" height="24" viewBox="0 0 24 24" fill="none" xmlns="http://www.w3.org/2000/svg">
<path fill-rule="evenodd" clip-rule="evenodd" d="M10.5 21.5C5.21281 21.4995 0.889453 17.2851 0.754086 11.9996C0.618719 6.71414 4.72068 2.28393 10.0009 2.0128C15.2811 1.74168 19.8153 5.72845 20.222 11H10.5C9.67157 11 9 11.6715 9 12.5C9 13.3284 9.67157 14 10.5 14C12.5711 14 14.25 15.6789 14.25 17.75C14.25 19.821 12.5711 21.5 10.5 21.5V21.5Z" stroke="black" stroke-width="1.5" stroke-linecap="round" stroke-linejoin="round"/>
<path d="M10.5 17.375C10.7071 17.375 10.875 17.5429 10.875 17.75" stroke="black" stroke-width="1.5" stroke-linecap="round" stroke-linejoin="round"/>
<path d="M10.125 17.75C10.125 17.5429 10.2929 17.375 10.5 17.375" stroke="black" stroke-width="1.5" stroke-linecap="round" stroke-linejoin="round"/>
<path d="M10.5 18.125C10.2929 18.125 10.125 17.9571 10.125 17.75" stroke="black" stroke-width="1.5" stroke-linecap="round" stroke-linejoin="round"/>
<path d="M10.875 17.75C10.875 17.9571 10.7071 18.125 10.5 18.125" stroke="black" stroke-width="1.5" stroke-linecap="round" stroke-linejoin="round"/>
<path d="M20.222 11H23.25" stroke="black" stroke-width="1.5" stroke-linecap="round" stroke-linejoin="round"/>
</svg>
