<svg width="24" height="24" viewBox="0 0 24 24" fill="none" xmlns="http://www.w3.org/2000/svg">
<path fill-rule="evenodd" clip-rule="evenodd" d="M22.4005 6.90002C22.682 6.61869 22.8402 6.23701 22.8402 5.83902C22.8402 5.44103 22.682 5.05935 22.4005 4.77802L19.2215 1.60002C18.9401 1.31851 18.5585 1.16034 18.1605 1.16034C17.7625 1.16034 17.3808 1.31851 17.0995 1.60002L8.08448 10.613L7.55348 14.325L1.18948 20.689C0.603506 21.275 0.603507 22.225 1.18948 22.811C1.77545 23.397 2.72551 23.397 3.31148 22.811L9.67548 16.447L13.3875 15.916L22.4005 6.90002Z" stroke="black" stroke-width="1.5" stroke-linecap="round" stroke-linejoin="round"/>
<path d="M8.61448 10.083L13.9175 15.386" stroke="black" stroke-width="1.5" stroke-linecap="round" stroke-linejoin="round"/>
<path fill-rule="evenodd" clip-rule="evenodd" d="M3.00048 5.25C4.24312 5.25 5.25048 4.24264 5.25048 3C5.25048 1.75736 4.24312 0.75 3.00048 0.75C1.75784 0.75 0.750481 1.75736 0.750481 3C0.750481 4.24264 1.75784 5.25 3.00048 5.25Z" stroke="black" stroke-width="1.5" stroke-linecap="round" stroke-linejoin="round"/>
</svg>
