<svg width="24" height="24" viewBox="0 0 24 24" fill="none" xmlns="http://www.w3.org/2000/svg">
<path d="M21.671 0.75L6.228 14.123" stroke="black" stroke-width="1.5" stroke-linecap="round" stroke-linejoin="round"/>
<path fill-rule="evenodd" clip-rule="evenodd" d="M3.23847 11.4595C3.44643 11.2778 3.7623 11.2991 3.94397 11.5071L8.51244 16.7367C8.69411 16.9446 8.6728 17.2605 8.46484 17.4422L6.22661 19.3974C6.01865 19.5791 5.70278 19.5578 5.52111 19.3498L0.952641 14.1203C0.770967 13.9123 0.792279 13.5965 1.00024 13.4148L3.23847 11.4595Z" stroke="black" stroke-width="1.5" stroke-linecap="round" stroke-linejoin="round"/>
<path fill-rule="evenodd" clip-rule="evenodd" d="M12.296 23.25C13.3315 23.25 14.171 22.4105 14.171 21.375C14.171 20.3395 13.3315 19.5 12.296 19.5C11.2605 19.5 10.421 20.3395 10.421 21.375C10.421 22.4105 11.2605 23.25 12.296 23.25Z" stroke="black" stroke-width="1.5" stroke-linecap="round" stroke-linejoin="round"/>
<path d="M23.171 23.25V19.85C23.171 18.5107 22.0853 17.425 20.746 17.425C19.4067 17.425 18.321 18.5107 18.321 19.85V23.25" stroke="black" stroke-width="1.5" stroke-linecap="round" stroke-linejoin="round"/>
</svg>
