<svg width="24" height="24" viewBox="0 0 24 24" fill="none" xmlns="http://www.w3.org/2000/svg">
<path d="M20.3155 11.961C20.3511 8.44249 18.4944 5.17592 15.453 3.40631C12.4117 1.6367 8.65431 1.6367 5.61298 3.40631C2.57164 5.17592 0.714928 8.44249 0.750502 11.961C0.750502 17.361 3.6605 21.748 9.0645 21.748C10.9553 21.7486 12.4888 20.2168 12.4905 18.326C12.4905 16.693 12.4905 14.96 12.4905 12.943C12.4905 12.6835 12.5937 12.4345 12.7773 12.2511C12.9609 12.0677 13.2099 11.9647 13.4695 11.965H23.2505" stroke="black" stroke-width="1.5" stroke-linecap="round" stroke-linejoin="round"/>
<path fill-rule="evenodd" clip-rule="evenodd" d="M7.5005 17.922C8.32893 17.922 9.0005 17.2504 9.0005 16.422C9.0005 15.5936 8.32893 14.922 7.5005 14.922C6.67208 14.922 6.0005 15.5936 6.0005 16.422C6.0005 17.2504 6.67208 17.922 7.5005 17.922Z" stroke="black" stroke-width="1.5" stroke-linecap="round" stroke-linejoin="round"/>
<path d="M17.2505 11.967V16.422C17.2486 18.0843 16.4603 19.6478 15.125 20.6379C13.7897 21.628 12.0647 21.928 10.4735 21.447" stroke="black" stroke-width="1.5" stroke-linecap="round" stroke-linejoin="round"/>
</svg>
