<svg width="24" height="24" viewBox="0 0 24 24" fill="none" xmlns="http://www.w3.org/2000/svg">
<path fill-rule="evenodd" clip-rule="evenodd" d="M3 15.751C4.24264 15.751 5.25 14.7437 5.25 13.501C5.25 12.2584 4.24264 11.251 3 11.251C1.75736 11.251 0.75 12.2584 0.75 13.501C0.75 14.7437 1.75736 15.751 3 15.751Z" stroke="black" stroke-width="1.5" stroke-linecap="round" stroke-linejoin="round"/>
<path fill-rule="evenodd" clip-rule="evenodd" d="M22.211 0.82301C21.4226 0.56872 20.5774 1.00165 20.323 1.79001C20.323 1.79001 16.376 14.023 15.187 17.711C14.9873 18.3309 14.4103 18.7511 13.759 18.751H7.5C6.25736 18.751 5.25 19.7584 5.25 21.001C5.25 22.2437 6.25736 23.251 7.5 23.251H14.367C15.669 23.251 16.8223 22.4111 17.222 21.172L23.177 2.71201C23.2995 2.33341 23.2665 1.92167 23.0853 1.5674C22.9041 1.21312 22.5896 0.945352 22.211 0.82301Z" stroke="black" stroke-width="1.5" stroke-linecap="round" stroke-linejoin="round"/>
<path d="M9 18.751L13.5 23.251" stroke="black" stroke-width="1.5" stroke-linecap="round" stroke-linejoin="round"/>
<path d="M16.168 14.669L18.551 17.052" stroke="black" stroke-width="1.5" stroke-linecap="round" stroke-linejoin="round"/>
<path d="M18.546 7.297L20.929 9.68" stroke="black" stroke-width="1.5" stroke-linecap="round" stroke-linejoin="round"/>
</svg>
