<svg width="24" height="24" viewBox="0 0 24 24" fill="none" xmlns="http://www.w3.org/2000/svg">
<path d="M9.75152 16.325L3.25652 22.825C2.68214 23.398 1.75201 23.3969 1.17902 22.8225C0.60602 22.2481 0.607139 21.318 1.18152 20.745L7.68152 14.245" stroke="black" stroke-width="1.5" stroke-linecap="round" stroke-linejoin="round"/>
<path d="M4.00153 14.466L9.53553 20" stroke="black" stroke-width="1.5" stroke-linecap="round" stroke-linejoin="round"/>
<path d="M17.9795 3.94696L20.0545 6.02196" stroke="black" stroke-width="1.5" stroke-linecap="round" stroke-linejoin="round"/>
<path d="M20.0015 14.466L14.4675 20" stroke="black" stroke-width="1.5" stroke-linecap="round" stroke-linejoin="round"/>
<path fill-rule="evenodd" clip-rule="evenodd" d="M20.7465 22.82C21.3195 23.393 22.2485 23.393 22.8215 22.82C23.3945 22.247 23.3945 21.318 22.8215 20.745L3.25652 1.17999C2.68352 0.606995 1.75451 0.606995 1.18152 1.17999C0.608521 1.75299 0.608521 2.682 1.18152 3.25499L20.7465 22.82Z" stroke="black" stroke-width="1.5" stroke-linecap="round" stroke-linejoin="round"/>
<path d="M6.02352 3.94696L3.94852 6.02196" stroke="black" stroke-width="1.5" stroke-linecap="round" stroke-linejoin="round"/>
<path d="M14.2515 7.67502L20.7515 1.18002C21.3314 0.651987 22.224 0.673387 22.7778 1.2286C23.3317 1.78381 23.351 2.67645 22.8215 3.25502L16.3215 9.75502" stroke="black" stroke-width="1.5" stroke-linecap="round" stroke-linejoin="round"/>
</svg>
