<svg width="24" height="24" viewBox="0 0 24 24" fill="none" xmlns="http://www.w3.org/2000/svg">
<path fill-rule="evenodd" clip-rule="evenodd" d="M15.375 7.25C16.8247 7.25 18 6.07475 18 4.625C18 3.17525 16.8247 2 15.375 2C13.9253 2 12.75 3.17525 12.75 4.625C12.75 6.07475 13.9253 7.25 15.375 7.25Z" stroke="black" stroke-width="1.5" stroke-linecap="round" stroke-linejoin="round"/>
<path d="M11.331 11.421L12.66 11.747L12.443 14.12L10.943 14.308C9.60486 14.4758 8.41251 15.2348 7.6942 16.3762C6.97589 17.5176 6.80735 18.921 7.235 20.2L7.577 21.229C7.78278 21.8397 8.3556 22.2507 9 22.25C9.48214 22.2498 9.93478 22.0178 10.2165 21.6265C10.4982 21.2352 10.5747 20.7324 10.422 20.275L10.079 19.247C9.93679 18.8205 9.9934 18.3527 10.2332 17.9724C10.4731 17.5921 10.8708 17.3395 11.317 17.284L12.958 17.084L17.689 21.816C18.275 22.4017 19.2248 22.4015 19.8105 21.8155C20.3962 21.2296 20.396 20.2797 19.81 19.694L15.265 15.149L15.604 12.474L16.016 12.574C19.1344 13.3377 22.2999 11.5048 23.19 8.42002C23.422 7.62473 22.9653 6.79198 22.17 6.56002C21.3747 6.32806 20.542 6.78473 20.31 7.58002C19.8635 9.11915 18.2842 10.0338 16.727 9.65502L12.059 8.51002" stroke="black" stroke-width="1.5" stroke-linecap="round" stroke-linejoin="round"/>
<path fill-rule="evenodd" clip-rule="evenodd" d="M7.624 11.75C6.60115 11.4297 5.82687 10.588 5.59282 9.54209C5.35877 8.49613 5.70051 7.40476 6.48932 6.67909C7.27812 5.95342 8.39415 5.70369 9.417 6.02398L7.624 11.75Z" stroke="black" stroke-width="1.5" stroke-linecap="round" stroke-linejoin="round"/>
<path d="M5.657 7.99101L0.763 6.45801" stroke="black" stroke-width="1.5" stroke-linecap="round" stroke-linejoin="round"/>
</svg>
