<svg width="24" height="24" viewBox="0 0 24 24" fill="none" xmlns="http://www.w3.org/2000/svg">
<path fill-rule="evenodd" clip-rule="evenodd" d="M15.7525 8.25C15.7525 11.15 14.0735 14.25 12.0025 14.25C9.9315 14.25 8.2525 11.15 8.2525 8.25C8.2525 5.35 9.9315 3.75 12.0015 3.75C14.0715 3.75 15.7525 5.351 15.7525 8.25Z" stroke="black" stroke-width="1.5" stroke-linecap="round" stroke-linejoin="round"/>
<path fill-rule="evenodd" clip-rule="evenodd" d="M14.2525 21V18.75C14.2519 18.3646 14.5122 18.0276 14.8853 17.9308C15.2583 17.834 15.6496 18.0019 15.8365 18.339C16.5853 19.6317 18.0129 20.3761 19.5015 20.25C21.052 20.3279 22.4949 19.4578 23.1495 18.05C23.2917 17.76 23.2809 17.4183 23.1207 17.1379C22.9604 16.8575 22.6715 16.6747 22.3495 16.65C20.3353 16.4526 18.788 14.7784 18.7495 12.755V7.5C18.7495 3.77208 15.7274 0.75 11.9995 0.75C8.27157 0.75 5.24949 3.77208 5.24949 7.5V12.75C5.21141 14.7736 3.66386 16.448 1.64949 16.645C1.32744 16.6697 1.03858 16.8525 0.878332 17.1329C0.718079 17.4133 0.707277 17.755 0.849495 18.045C1.50288 19.4563 2.94828 20.329 4.50149 20.25C5.99057 20.3773 7.41908 19.6326 8.16749 18.339C8.35439 18.0019 8.74567 17.834 9.11872 17.9308C9.49177 18.0276 9.75206 18.3646 9.75149 18.75V21C9.75149 22.2426 10.7589 23.25 12.0015 23.25C13.2441 23.25 14.2515 22.2426 14.2515 21H14.2525Z" stroke="black" stroke-width="1.5" stroke-linecap="round" stroke-linejoin="round"/>
<path d="M8.42349 6.75H15.5825" stroke="black" stroke-width="1.5" stroke-linecap="round" stroke-linejoin="round"/>
<path d="M8.81549 11.25H15.1825" stroke="black" stroke-width="1.5" stroke-linecap="round" stroke-linejoin="round"/>
</svg>
