<svg width="24" height="24" viewBox="0 0 24 24" fill="none" xmlns="http://www.w3.org/2000/svg">
<path fill-rule="evenodd" clip-rule="evenodd" d="M5.523 8.133C6.97275 8.133 8.148 6.95774 8.148 5.508C8.148 4.05825 6.97275 2.883 5.523 2.883C4.07325 2.883 2.898 4.05825 2.898 5.508C2.898 6.95774 4.07325 8.133 5.523 8.133Z" stroke="black" stroke-width="1.5" stroke-linecap="round" stroke-linejoin="round"/>
<path d="M7.644 2.85602L2.871 7.62902H0.75" stroke="black" stroke-width="1.5" stroke-linecap="round" stroke-linejoin="round"/>
<path d="M2.871 9.75003V7.62903" stroke="black" stroke-width="1.5" stroke-linecap="round" stroke-linejoin="round"/>
<path fill-rule="evenodd" clip-rule="evenodd" d="M22.644 7.13C22.0251 6.57993 21.0775 6.63543 20.527 7.254L15.516 12.892L11.492 9.371L11.734 9.099C11.9093 8.90169 12.133 8.75348 12.383 8.669L13.104 8.429C14.2796 8.03705 15.2416 7.17762 15.763 6.05339C16.2845 4.92916 16.3192 3.63966 15.859 2.489L15.541 1.694C15.3422 1.19633 14.893 0.842533 14.3626 0.765879C13.8322 0.689225 13.3011 0.901362 12.9696 1.32238C12.638 1.7434 12.5562 2.30933 12.755 2.807L13.073 3.607C13.2264 3.99064 13.2147 4.42055 13.0408 4.79531C12.8668 5.17007 12.546 5.45649 12.154 5.587L11.435 5.826C10.6881 6.07442 10.019 6.51358 9.494 7.1L5.907 11.141C4.32534 12.9211 4.40425 15.6252 6.087 17.31L7.087 18.31C7.46343 18.7001 8.02106 18.8568 8.54556 18.7197C9.07007 18.5827 9.47983 18.1733 9.61735 17.649C9.75487 17.1246 9.59875 16.5668 9.209 16.19L8.209 15.19C7.64829 14.6284 7.62199 13.7273 8.149 13.134L9.5 11.613L14.149 15.682V21.75C14.149 22.5784 14.8206 23.25 15.649 23.25C16.4774 23.25 17.149 22.5784 17.149 21.75V15.569L22.77 9.246C23.3189 8.62667 23.2625 7.67982 22.644 7.13Z" stroke="black" stroke-width="1.5" stroke-linecap="round" stroke-linejoin="round"/>
</svg>
