<svg width="24" height="24" viewBox="0 0 24 24" fill="none" xmlns="http://www.w3.org/2000/svg">
<path d="M10.5 19.1C8.8747 19.6557 7.71821 21.1022 7.534 22.81C7.50349 23.0625 7.28832 23.2518 7.034 23.25H5.692C5.46339 23.2503 5.2637 23.0955 5.207 22.874C5.08269 22.3565 5.01992 21.8262 5.02 21.294C5.02 19.456 6.098 16.5 7.625 15.75" stroke="black" stroke-width="1.5" stroke-linecap="round" stroke-linejoin="round"/>
<path d="M6.95799 11.635C7.11077 13.017 7.33339 14.3905 7.62499 15.75" stroke="black" stroke-width="1.5" stroke-linecap="round" stroke-linejoin="round"/>
<path d="M13.49 19.1C15.1162 19.656 16.2735 21.1033 16.458 22.812C16.4854 23.0661 16.7025 23.2571 16.958 23.252H18.3C18.5286 23.2523 18.7283 23.0975 18.785 22.876C18.9093 22.3585 18.9721 21.8282 18.972 21.296C18.972 19.458 17.895 16.502 16.367 15.752" stroke="black" stroke-width="1.5" stroke-linecap="round" stroke-linejoin="round"/>
<path d="M17.033 11.635C16.8802 13.017 16.6576 14.3905 16.366 15.75" stroke="black" stroke-width="1.5" stroke-linecap="round" stroke-linejoin="round"/>
<path d="M6.958 11.636C5.32743 12.0425 3.75273 12.647 2.269 13.436C2.03551 13.5624 1.74397 13.4842 1.605 13.258L0.820997 11.976C0.692039 11.7646 0.743868 11.4899 0.940997 11.34C3.69043 9.22557 6.99132 7.9489 10.448 7.66302" stroke="black" stroke-width="1.5" stroke-linecap="round" stroke-linejoin="round"/>
<path d="M17.03 11.635C18.6619 12.0403 20.2377 12.6449 21.722 13.435C21.9547 13.5611 22.2454 13.4839 22.385 13.259L23.177 11.982C23.3087 11.7705 23.2576 11.4935 23.059 11.343C20.3081 9.22484 17.0041 7.94597 13.544 7.65997" stroke="black" stroke-width="1.5" stroke-linecap="round" stroke-linejoin="round"/>
<path d="M14.985 5.15198C14.9552 6.78172 13.6255 8.0873 11.9955 8.0873C10.3655 8.0873 9.03581 6.78172 9.006 5.15198" stroke="black" stroke-width="1.5" stroke-linecap="round" stroke-linejoin="round"/>
<path d="M9.006 5.152V2.6C9.614 1.50428 10.748 0.803555 12 0.75C13.2487 0.806625 14.3786 1.50693 14.985 2.6V5.152" stroke="black" stroke-width="1.5" stroke-linecap="round" stroke-linejoin="round"/>
<path d="M7.625 15.75L10.501 19.098L13.492 19.099L16.366 15.75" stroke="black" stroke-width="1.5" stroke-linecap="round" stroke-linejoin="round"/>
<path d="M7.442 15H16.55" stroke="black" stroke-width="1.5" stroke-linecap="round" stroke-linejoin="round"/>
</svg>
