<svg width="24" height="24" viewBox="0 0 24 24" fill="none" xmlns="http://www.w3.org/2000/svg">
<path fill-rule="evenodd" clip-rule="evenodd" d="M20.25 10.5L23.25 7.5L19.889 3.579C18.958 2.517 17.25 0.75 12 0.75C6.75 0.75 5.042 2.517 4.111 3.579L0.75 7.5L3.75 10.5L6.75 8.25L7.5 14.25L6.322 21.482C6.24247 21.9199 6.36155 22.3706 6.64703 22.7121C6.93251 23.0536 7.3549 23.2506 7.8 23.25H16.2C16.6446 23.2497 17.0661 23.0523 17.3509 22.7109C17.6357 22.3695 17.7544 21.9194 17.675 21.482L16.5 14.25L17.25 8.25L20.25 10.5Z" stroke="black" stroke-width="1.5" stroke-linecap="round" stroke-linejoin="round"/>
<path d="M7.5 14.25L15.26 1.03198" stroke="black" stroke-width="1.5" stroke-linecap="round" stroke-linejoin="round"/>
<path d="M11.91 6.73798L8.74 1.03198" stroke="black" stroke-width="1.5" stroke-linecap="round" stroke-linejoin="round"/>
<path d="M16.5 14.25H7.5" stroke="black" stroke-width="1.5" stroke-linecap="round" stroke-linejoin="round"/>
<path d="M12 14.25L10.5 18.75" stroke="black" stroke-width="1.5" stroke-linecap="round" stroke-linejoin="round"/>
<path d="M12 14.25L13.5 18.75" stroke="black" stroke-width="1.5" stroke-linecap="round" stroke-linejoin="round"/>
</svg>
