<svg width="24" height="24" viewBox="0 0 24 24" fill="none" xmlns="http://www.w3.org/2000/svg">
<path fill-rule="evenodd" clip-rule="evenodd" d="M12 8.25C14.0711 8.25 15.75 6.57107 15.75 4.5C15.75 2.42893 14.0711 0.75 12 0.75C9.92893 0.75 8.25 2.42893 8.25 4.5C8.25 6.57107 9.92893 8.25 12 8.25Z" stroke="black" stroke-width="1.5" stroke-linecap="round" stroke-linejoin="round"/>
<path d="M10.5 4.5C10.5 3.67157 11.1716 3 12 3" stroke="black" stroke-width="1.5" stroke-linecap="round" stroke-linejoin="round"/>
<path d="M14.63 7.17801C18.463 8.46509 20.7986 12.3401 20.1465 16.3305C19.4944 20.3208 16.0468 23.2508 12.0035 23.2508C7.9602 23.2508 4.51258 20.3208 3.86051 16.3305C3.20843 12.3401 5.54403 8.46509 9.377 7.17801" stroke="black" stroke-width="1.5" stroke-linecap="round" stroke-linejoin="round"/>
<path d="M20.25 2.25H23.25" stroke="black" stroke-width="1.5" stroke-linecap="round" stroke-linejoin="round"/>
<path d="M21.75 0.75V3.75" stroke="black" stroke-width="1.5" stroke-linecap="round" stroke-linejoin="round"/>
<path d="M0.75 6.75H3.75" stroke="black" stroke-width="1.5" stroke-linecap="round" stroke-linejoin="round"/>
<path d="M2.25 5.25V8.25" stroke="black" stroke-width="1.5" stroke-linecap="round" stroke-linejoin="round"/>
<path d="M14.7 10.498C16.7224 11.7129 17.686 14.1276 17.0556 16.4011C16.4253 18.6746 14.3558 20.2484 11.9965 20.2484C9.63724 20.2484 7.56774 18.6746 6.93737 16.4011C6.307 14.1276 7.2706 11.7129 9.293 10.498" stroke="black" stroke-width="1.5" stroke-linecap="round" stroke-linejoin="round"/>
</svg>
