<svg width="24" height="24" viewBox="0 0 24 24" fill="none" xmlns="http://www.w3.org/2000/svg">
<path d="M4.08701 5.25H19.913" stroke="black" stroke-width="1.5" stroke-linecap="round" stroke-linejoin="round"/>
<path fill-rule="evenodd" clip-rule="evenodd" d="M8.561 0.75H15.439C15.6381 0.750456 15.8289 0.829526 15.97 0.97L19.694 4.694C19.839 4.83922 19.9182 5.03743 19.9133 5.24256C19.9084 5.4477 19.8198 5.64189 19.668 5.78L12.505 12.292C12.2186 12.5522 11.7814 12.5522 11.495 12.292L4.332 5.78C4.18025 5.64189 4.09161 5.4477 4.0867 5.24256C4.08179 5.03743 4.16103 4.83922 4.306 4.694L8.03 0.97C8.17107 0.829526 8.36192 0.750456 8.561 0.75Z" stroke="black" stroke-width="1.5" stroke-linecap="round" stroke-linejoin="round"/>
<path d="M8.269 0.809998L11.916 12.482" stroke="black" stroke-width="1.5" stroke-linecap="round" stroke-linejoin="round"/>
<path d="M15.731 0.809998L12.084 12.482" stroke="black" stroke-width="1.5" stroke-linecap="round" stroke-linejoin="round"/>
<path d="M3.75 23.25L1.736 20.733C1.09773 19.9351 0.750003 18.9438 0.75 17.922V12.75C0.75 11.9216 1.42157 11.25 2.25 11.25V11.25C3.07843 11.25 3.75 11.9216 3.75 12.75V16.5" stroke="black" stroke-width="1.5" stroke-linecap="round" stroke-linejoin="round"/>
<path d="M8.25 23.114V20.114C8.2504 19.2241 7.98697 18.3542 7.493 17.614L6.351 15.908C6.15393 15.5798 5.83106 15.3466 5.45756 15.2628C5.08405 15.1789 4.69249 15.2516 4.374 15.464V15.464C3.78691 15.8554 3.5829 16.6226 3.898 17.254L5.25 19.504" stroke="black" stroke-width="1.5" stroke-linecap="round" stroke-linejoin="round"/>
<path d="M20.25 23.25L22.264 20.733C22.9023 19.9351 23.25 18.9438 23.25 17.922V12.75C23.25 11.9216 22.5784 11.25 21.75 11.25V11.25C20.9216 11.25 20.25 11.9216 20.25 12.75V16.5" stroke="black" stroke-width="1.5" stroke-linecap="round" stroke-linejoin="round"/>
<path d="M15.75 23.114V20.114C15.7496 19.2241 16.013 18.3542 16.507 17.614L17.649 15.908C17.8461 15.5798 18.1689 15.3466 18.5424 15.2628C18.916 15.1789 19.3075 15.2516 19.626 15.464V15.464C20.2131 15.8554 20.4171 16.6226 20.102 17.254L18.75 19.504" stroke="black" stroke-width="1.5" stroke-linecap="round" stroke-linejoin="round"/>
</svg>
