<svg width="24" height="24" viewBox="0 0 24 24" fill="none" xmlns="http://www.w3.org/2000/svg">
<path d="M16.2791 9.33499C17.6146 10.1495 18.4602 11.5725 18.5371 13.135C18.5669 13.8574 18.316 14.5633 17.8371 15.105L16.8431 16.241C16.4997 16.6333 16.009 16.8658 15.4879 16.883C14.9667 16.9003 14.4617 16.7008 14.0931 16.332L12.1581 14.397C11.8008 14.0397 11.2801 13.9002 10.7921 14.031C10.3041 14.1617 9.92285 14.5429 9.79209 15.031C9.66132 15.519 9.80085 16.0397 10.1581 16.397L13.6681 20.378C14.3733 21.0848 14.7689 22.0426 14.7681 23.041V23.249" stroke="black" stroke-width="1.5" stroke-linecap="round" stroke-linejoin="round"/>
<path d="M23.2501 23.25V14.071C23.219 13.2054 23.0799 12.3471 22.8361 11.516C22.1809 9.27158 20.5399 7.44732 18.3771 6.55899" stroke="black" stroke-width="1.5" stroke-linecap="round" stroke-linejoin="round"/>
<path d="M0.879112 5.5H15.6211" stroke="black" stroke-width="1.5" stroke-linecap="round" stroke-linejoin="round"/>
<path fill-rule="evenodd" clip-rule="evenodd" d="M3.47011 0.758002C3.12157 0.756753 2.80127 0.949475 2.63911 1.258L0.840113 4.713C0.682832 5.00914 0.734981 5.37297 0.969113 5.613L7.61711 12.601C7.78377 12.7712 8.01193 12.8671 8.25011 12.8671C8.4883 12.8671 8.71646 12.7712 8.88311 12.601L15.5311 5.613C15.7652 5.37297 15.8174 5.00914 15.6601 4.713L13.7131 1.237C13.5482 0.942572 13.2376 0.759602 12.9001 0.758002H3.47011Z" stroke="black" stroke-width="1.5" stroke-linecap="round" stroke-linejoin="round"/>
<path d="M0.750114 15H3.75011" stroke="black" stroke-width="1.5" stroke-linecap="round" stroke-linejoin="round"/>
<path d="M2.25011 13.5V16.5" stroke="black" stroke-width="1.5" stroke-linecap="round" stroke-linejoin="round"/>
<path d="M20.2501 2.25H23.2501" stroke="black" stroke-width="1.5" stroke-linecap="round" stroke-linejoin="round"/>
<path d="M21.7501 0.75V3.75" stroke="black" stroke-width="1.5" stroke-linecap="round" stroke-linejoin="round"/>
<path d="M4.45911 0.757996L8.20811 12.866" stroke="black" stroke-width="1.5" stroke-linecap="round" stroke-linejoin="round"/>
<path d="M12.0411 0.757996L8.29211 12.866" stroke="black" stroke-width="1.5" stroke-linecap="round" stroke-linejoin="round"/>
</svg>
