<svg width="24" height="24" viewBox="0 0 24 24" fill="none" xmlns="http://www.w3.org/2000/svg">
<path fill-rule="evenodd" clip-rule="evenodd" d="M8.25 6.0002C9.69975 6.0002 10.875 4.82495 10.875 3.3752C10.875 1.92546 9.69975 0.750203 8.25 0.750203C6.80025 0.750203 5.625 1.92546 5.625 3.3752C5.625 4.82495 6.80025 6.0002 8.25 6.0002Z" stroke="black" stroke-width="1.5" stroke-linecap="round" stroke-linejoin="round"/>
<path d="M8.25 17.2502V21.7502" stroke="black" stroke-width="1.5" stroke-linecap="round" stroke-linejoin="round"/>
<path d="M5.243 13.5002L5.25 21.7502C5.25 22.5786 5.92157 23.2502 6.75 23.2502C7.57843 23.2502 8.25 22.5786 8.25 21.7502C8.25 22.5786 8.92157 23.2502 9.75 23.2502C10.5784 23.2502 11.25 22.5786 11.25 21.7502V10.5002H17.25C18.0784 10.5002 18.75 9.82863 18.75 9.0002C18.75 8.17178 18.0784 7.5002 17.25 7.5002H11.25" stroke="black" stroke-width="1.5" stroke-linecap="round" stroke-linejoin="round"/>
<path d="M15.75 0.750203C15.75 0.750203 21.75 3.0002 21.75 9.0002C21.75 15.0002 15.75 17.2502 15.75 17.2502" stroke="black" stroke-width="1.5" stroke-linecap="round" stroke-linejoin="round"/>
<path fill-rule="evenodd" clip-rule="evenodd" d="M6.75 10.5002H3.75C2.92157 10.5002 2.25 9.82863 2.25 9.0002C2.25 8.17178 2.92157 7.5002 3.75 7.5002H6.75C7.57843 7.5002 8.25 8.17178 8.25 9.0002C8.25 9.82863 7.57843 10.5002 6.75 10.5002Z" stroke="black" stroke-width="1.5" stroke-linecap="round" stroke-linejoin="round"/>
</svg>
