<svg width="24" height="24" viewBox="0 0 24 24" fill="none" xmlns="http://www.w3.org/2000/svg">
<path d="M18.848 23.25H23.25V18.848" stroke="black" stroke-width="1.5" stroke-linecap="round" stroke-linejoin="round"/>
<path d="M23.25 23.25L18.75 18.75" stroke="black" stroke-width="1.5" stroke-linecap="round" stroke-linejoin="round"/>
<path d="M16.66 16.66L7.50002 7.5" stroke="black" stroke-width="1.5" stroke-linecap="round" stroke-linejoin="round"/>
<path d="M14.25 9.75L21.889 2.111C22.1119 1.88857 22.4501 1.82909 22.7355 1.96209C23.021 2.09509 23.1929 2.39224 23.166 2.706C22.2146 13.5873 13.5873 22.2145 2.70603 23.166C2.39227 23.1929 2.09512 23.0209 1.96212 22.7355C1.82912 22.4501 1.8886 22.1119 2.11103 21.889L9.75003 14.25" stroke="black" stroke-width="1.5" stroke-linecap="round" stroke-linejoin="round"/>
<path fill-rule="evenodd" clip-rule="evenodd" d="M3.75002 0.75L7.50002 4.5V7.5H4.50002L0.750023 3.75H3.75002V0.75V0.75Z" stroke="black" stroke-width="1.5" stroke-linecap="round" stroke-linejoin="round"/>
</svg>
