<svg width="24" height="24" viewBox="0 0 24 24" fill="none" xmlns="http://www.w3.org/2000/svg">
<path d="M4.5 7.875C4.70711 7.875 4.875 8.04289 4.875 8.25C4.875 8.45711 4.70711 8.625 4.5 8.625C4.29289 8.625 4.125 8.45711 4.125 8.25C4.125 8.04289 4.29289 7.875 4.5 7.875" stroke="black" stroke-width="1.5" stroke-linecap="round" stroke-linejoin="round"/>
<path d="M19.5 15.375C19.7071 15.375 19.875 15.5429 19.875 15.75C19.875 15.9571 19.7071 16.125 19.5 16.125C19.2929 16.125 19.125 15.9571 19.125 15.75C19.125 15.5429 19.2929 15.375 19.5 15.375" stroke="black" stroke-width="1.5" stroke-linecap="round" stroke-linejoin="round"/>
<path fill-rule="evenodd" clip-rule="evenodd" d="M0.75 6C0.75 5.17157 1.42157 4.5 2.25 4.5H21.75C22.5784 4.5 23.25 5.17157 23.25 6V18C23.25 18.8284 22.5784 19.5 21.75 19.5H2.25C1.42157 19.5 0.75 18.8284 0.75 18V6Z" stroke="black" stroke-width="1.5" stroke-linecap="round" stroke-linejoin="round"/>
<path fill-rule="evenodd" clip-rule="evenodd" d="M12 15C13.6569 15 15 13.6569 15 12C15 10.3431 13.6569 9 12 9C10.3431 9 9 10.3431 9 12C9 13.6569 10.3431 15 12 15Z" stroke="black" stroke-width="1.5" stroke-linecap="round" stroke-linejoin="round"/>
</svg>
