<svg width="24" height="24" viewBox="0 0 24 24" fill="none" xmlns="http://www.w3.org/2000/svg">
<path fill-rule="evenodd" clip-rule="evenodd" d="M14.758 21.375H2.24999C2.03166 21.3751 1.82413 21.28 1.68159 21.1146C1.53906 20.9492 1.47568 20.7299 1.50799 20.514L7.37899 6.375H17.879L15.5 20.514C15.5323 20.7299 15.4689 20.9492 15.3264 21.1146C15.1839 21.28 14.9763 21.3751 14.758 21.375V21.375Z" stroke="black" stroke-width="1.5" stroke-linecap="round" stroke-linejoin="round"/>
<path d="M12.525 11.2L10.556 10.7C9.93286 10.5393 9.28343 10.8439 9.00861 11.4258C8.73378 12.0077 8.91106 12.7028 9.431 13.082L11.224 14.394C11.7376 14.775 11.9107 15.4658 11.6374 16.044C11.3641 16.6222 10.7205 16.927 10.1 16.772L8.13 16.272" stroke="black" stroke-width="1.5" stroke-linecap="round" stroke-linejoin="round"/>
<path d="M11.072 10.828L11.445 9.375" stroke="black" stroke-width="1.5" stroke-linecap="round" stroke-linejoin="round"/>
<path d="M9.20999 18.093L9.58199 16.64" stroke="black" stroke-width="1.5" stroke-linecap="round" stroke-linejoin="round"/>
<path d="M2.25 10.125H1.5C1.08579 10.125 0.75 9.78921 0.75 9.375V3.375C0.75 2.96079 1.08579 2.625 1.5 2.625H22.5C22.9142 2.625 23.25 2.96079 23.25 3.375V9.375C23.25 9.78921 22.9142 10.125 22.5 10.125H20.25" stroke="black" stroke-width="1.5" stroke-linecap="round" stroke-linejoin="round"/>
</svg>
