<svg width="24" height="24" viewBox="0 0 24 24" fill="none" xmlns="http://www.w3.org/2000/svg">
<path fill-rule="evenodd" clip-rule="evenodd" d="M2.26342 21.75C1.82839 21.7539 1.4131 21.5687 1.12526 21.2425C0.837423 20.9163 0.705394 20.4812 0.763418 20.05C1.66296 14.5454 6.41883 10.5037 11.9964 10.5037C17.574 10.5037 22.3299 14.5454 23.2294 20.05C23.2874 20.4812 23.1554 20.9163 22.8676 21.2425C22.5797 21.5687 22.1644 21.7539 21.7294 21.75H2.26342Z" stroke="black" stroke-width="1.5" stroke-linecap="round" stroke-linejoin="round"/>
<path d="M18.7004 8.2C14.4867 6.07404 9.51411 6.07404 5.30042 8.2" stroke="black" stroke-width="1.5" stroke-linecap="round" stroke-linejoin="round"/>
<path fill-rule="evenodd" clip-rule="evenodd" d="M9.75042 6.75C10.9931 6.75 12.0004 5.74264 12.0004 4.5C12.0004 3.25736 10.9931 2.25 9.75042 2.25C8.50778 2.25 7.50042 3.25736 7.50042 4.5C7.50042 5.74264 8.50778 6.75 9.75042 6.75Z" stroke="black" stroke-width="1.5" stroke-linecap="round" stroke-linejoin="round"/>
<path fill-rule="evenodd" clip-rule="evenodd" d="M14.2504 6.75C15.4931 6.75 16.5004 5.74264 16.5004 4.5C16.5004 3.25736 15.4931 2.25 14.2504 2.25C13.0078 2.25 12.0004 3.25736 12.0004 4.5C12.0004 5.74264 13.0078 6.75 14.2504 6.75Z" stroke="black" stroke-width="1.5" stroke-linecap="round" stroke-linejoin="round"/>
</svg>
