<svg width="24" height="24" viewBox="0 0 24 24" fill="none" xmlns="http://www.w3.org/2000/svg">
<path fill-rule="evenodd" clip-rule="evenodd" d="M8.875 5.375C9.91053 5.375 10.75 4.53553 10.75 3.5C10.75 2.46447 9.91053 1.625 8.875 1.625C7.83947 1.625 7 2.46447 7 3.5C7 4.53553 7.83947 5.375 8.875 5.375Z" stroke="black" stroke-width="1.5" stroke-linecap="round" stroke-linejoin="round"/>
<path fill-rule="evenodd" clip-rule="evenodd" d="M14.875 5.375C15.9105 5.375 16.75 4.53553 16.75 3.5C16.75 2.46447 15.9105 1.625 14.875 1.625C13.8395 1.625 13 2.46447 13 3.5C13 4.53553 13.8395 5.375 14.875 5.375Z" stroke="black" stroke-width="1.5" stroke-linecap="round" stroke-linejoin="round"/>
<path d="M0.75 9.625C0.75 8.38236 1.75736 7.375 3 7.375H21C22.2426 7.375 23.25 8.38236 23.25 9.625" stroke="black" stroke-width="1.5" stroke-linecap="round" stroke-linejoin="round"/>
<path fill-rule="evenodd" clip-rule="evenodd" d="M17.2 22.375H6.8C5.37758 22.3749 4.03894 21.7023 3.18987 20.5611C2.3408 19.4199 2.08129 17.9444 2.49 16.582L5.25 7.375H18.75L21.512 16.582C21.9208 17.9448 21.6611 19.4206 20.8115 20.5619C19.962 21.7032 18.6228 22.3756 17.2 22.375V22.375Z" stroke="black" stroke-width="1.5" stroke-linecap="round" stroke-linejoin="round"/>
</svg>
