<svg width="24" height="24" viewBox="0 0 24 24" fill="none" xmlns="http://www.w3.org/2000/svg">
<path d="M2.97 2.771L13.908 5.88C15.4269 6.37888 16.4657 7.78168 16.5 9.38V19.89C16.5633 20.5636 16.2905 21.2252 15.7708 21.6583C15.251 22.0915 14.5512 22.2407 13.9 22.057L4.852 19.597C3.33185 19.124 2.28468 17.7317 2.252 16.14V4.688C2.21781 3.17595 3.41023 1.91968 4.922 1.875H18.75C20.4069 1.875 21.75 3.21815 21.75 4.875V13.828C21.7429 14.6449 21.4109 15.4253 20.8274 15.997C20.2439 16.5687 19.4568 16.8846 18.64 16.875H16.5" stroke="black" stroke-width="1.5" stroke-linecap="round" stroke-linejoin="round"/>
<path d="M12.375 13.125C12.5821 13.125 12.75 13.2929 12.75 13.5C12.75 13.7071 12.5821 13.875 12.375 13.875C12.1679 13.875 12 13.7071 12 13.5C12 13.2929 12.1679 13.125 12.375 13.125" stroke="black" stroke-width="1.5" stroke-linecap="round" stroke-linejoin="round"/>
<path d="M21.75 9.375H16.5" stroke="black" stroke-width="1.5" stroke-linecap="round" stroke-linejoin="round"/>
</svg>
