<svg width="24" height="24" viewBox="0 0 24 24" fill="none" xmlns="http://www.w3.org/2000/svg">
<path fill-rule="evenodd" clip-rule="evenodd" d="M14.045 7.988C16.091 9.4 18.75 12.8 18.75 15.863C18.75 18.97 15.389 21.488 12 21.488C8.611 21.488 5.25 18.97 5.25 15.863C5.25 12.8 7.909 9.4 9.955 7.988L8.4 4.281C8.27339 4.05996 8.24638 3.79561 8.32568 3.55353C8.40498 3.31144 8.58315 3.1143 8.816 3.011C10.8827 2.33251 13.1123 2.33251 15.179 3.011C15.4127 3.11334 15.592 3.31007 15.6723 3.55225C15.7526 3.79444 15.7263 4.05932 15.6 4.281L14.045 7.988Z" stroke="black" stroke-width="1.5" stroke-linecap="round" stroke-linejoin="round"/>
<path d="M9.955 7.98798H14.045" stroke="black" stroke-width="1.5" stroke-linecap="round" stroke-linejoin="round"/>
<path d="M4.5 20.738C1.5 20.738 0.75 17.738 0.75 15.624C0.839709 13.108 2.18384 10.8042 4.33 9.48798L3.066 7.66498C2.90723 7.43571 2.88877 7.13728 3.01808 6.8902C3.1474 6.64312 3.40313 6.48819 3.682 6.48798H6" stroke="black" stroke-width="1.5" stroke-linecap="round" stroke-linejoin="round"/>
<path d="M10.329 17.332C10.7684 17.9095 11.4619 18.2364 12.187 18.208C13.326 18.208 14.25 17.515 14.25 16.66C14.25 15.805 13.326 15.114 12.187 15.114C11.048 15.114 10.125 14.421 10.125 13.566C10.125 12.711 11.049 12.019 12.187 12.019C12.9121 11.9896 13.6058 12.3163 14.045 12.894" stroke="black" stroke-width="1.5" stroke-linecap="round" stroke-linejoin="round"/>
<path d="M12.187 18.208V19.238" stroke="black" stroke-width="1.5" stroke-linecap="round" stroke-linejoin="round"/>
<path d="M12.187 10.988V12.019" stroke="black" stroke-width="1.5" stroke-linecap="round" stroke-linejoin="round"/>
<path d="M19.5 20.738C22.5 20.738 23.25 17.738 23.25 15.624C23.1603 13.108 21.8162 10.8042 19.67 9.48798L20.934 7.66498C21.0928 7.43571 21.1112 7.13728 20.9819 6.8902C20.8526 6.64312 20.5969 6.48819 20.318 6.48798H18" stroke="black" stroke-width="1.5" stroke-linecap="round" stroke-linejoin="round"/>
</svg>
