<svg width="24" height="24" viewBox="0 0 24 24" fill="none" xmlns="http://www.w3.org/2000/svg">
<path d="M8.279 14.2519H12.779" stroke="black" stroke-width="1.5" stroke-linecap="round" stroke-linejoin="round"/>
<path d="M8.279 17.2519H12.779" stroke="black" stroke-width="1.5" stroke-linecap="round" stroke-linejoin="round"/>
<path d="M12.779 11.5269C10.9823 12.1541 9.77879 13.8489 9.77879 15.7519C9.77879 17.6549 10.9823 19.3498 12.779 19.9769" stroke="black" stroke-width="1.5" stroke-linecap="round" stroke-linejoin="round"/>
<path d="M6.779 8.25189H17.279" stroke="black" stroke-width="1.5" stroke-linecap="round" stroke-linejoin="round"/>
<path d="M15.585 5.03792L17.023 2.16192C17.1661 1.87305 17.1089 1.52507 16.8808 1.29723C16.6528 1.06939 16.3047 1.01252 16.016 1.15592L14.121 2.10192C13.7828 2.27124 13.3714 2.16186 13.162 1.84692L12.653 1.08392C12.5139 0.875302 12.2797 0.75 12.029 0.75C11.7783 0.75 11.5441 0.875302 11.405 1.08392L10.896 1.84692C10.6863 2.16147 10.2752 2.27077 9.937 2.10192L8.037 1.15392C7.74821 1.01191 7.40101 1.06996 7.17413 1.2982C6.94725 1.52644 6.89126 1.87398 7.035 2.16192L8.445 4.98192" stroke="black" stroke-width="1.5" stroke-linecap="round" stroke-linejoin="round"/>
<path d="M7.192 10.5019L4.432 13.7019C3.05419 15.4929 2.81357 17.9111 3.81145 19.9385C4.80932 21.9659 6.87235 23.2502 9.132 23.2509H14.922C17.1816 23.2502 19.2447 21.9659 20.2426 19.9385C21.2404 17.9111 20.9998 15.4929 19.622 13.7019L16.862 10.5019" stroke="black" stroke-width="1.5" stroke-linecap="round" stroke-linejoin="round"/>
</svg>
