<svg width="24" height="24" viewBox="0 0 24 24" fill="none" xmlns="http://www.w3.org/2000/svg">
<path d="M13.574 12.75H11.541C10.8984 12.7504 10.3463 13.2064 10.2243 13.8373C10.1024 14.4683 10.4448 15.0971 11.041 15.337L13.105 16.163C13.7012 16.4029 14.0436 17.0317 13.9217 17.6627C13.7997 18.2936 13.2476 18.7496 12.605 18.75H10.574" stroke="black" stroke-width="1.5" stroke-linecap="round" stroke-linejoin="round"/>
<path d="M12.074 12.75V12" stroke="black" stroke-width="1.5" stroke-linecap="round" stroke-linejoin="round"/>
<path d="M12.074 19.5V18.75" stroke="black" stroke-width="1.5" stroke-linecap="round" stroke-linejoin="round"/>
<path d="M6.824 8.25H17.324" stroke="black" stroke-width="1.5" stroke-linecap="round" stroke-linejoin="round"/>
<path d="M15.63 5.03598L17.068 2.15998C17.2121 1.87131 17.1554 1.52284 16.9273 1.2947C16.6991 1.06656 16.3507 1.00989 16.062 1.15398L14.162 2.10198C13.8238 2.27083 13.4127 2.16153 13.203 1.84698L12.7 1.08398C12.5609 0.875363 12.3267 0.750061 12.076 0.750061C11.8253 0.750061 11.5911 0.875363 11.452 1.08398L10.943 1.84698C10.7336 2.16192 10.3222 2.2713 9.984 2.10198L8.087 1.15398C7.79827 1.01058 7.45024 1.06745 7.22217 1.29529C6.9941 1.52313 6.93689 1.87111 7.08 2.15998L8.49 4.97998" stroke="black" stroke-width="1.5" stroke-linecap="round" stroke-linejoin="round"/>
<path d="M7.237 10.5L4.477 13.7C3.09919 15.491 2.85857 17.9092 3.85645 19.9366C4.85432 21.964 6.91735 23.2484 9.177 23.249H14.967C17.2266 23.2484 19.2897 21.964 20.2876 19.9366C21.2854 17.9092 21.0448 15.491 19.667 13.7L16.907 10.5" stroke="black" stroke-width="1.5" stroke-linecap="round" stroke-linejoin="round"/>
</svg>
