<svg width="24" height="24" viewBox="0 0 24 24" fill="none" xmlns="http://www.w3.org/2000/svg">
<path d="M7.875 17.25H2.625C1.79657 17.25 1.125 16.5784 1.125 15.75V7.5C1.125 6.67157 1.79657 6 2.625 6H21.375C22.2034 6 22.875 6.67157 22.875 7.5V16.25" stroke="black" stroke-width="1.5" stroke-linecap="round" stroke-linejoin="round"/>
<path d="M6.264 19.544L7.125 20.75V23.25" stroke="black" stroke-width="1.5" stroke-linecap="round" stroke-linejoin="round"/>
<path d="M7.875 4.71201C7.875 3.88358 7.20343 3.21201 6.375 3.21201C5.54657 3.21201 4.875 3.88358 4.875 4.71201V6.00001" stroke="black" stroke-width="1.5" stroke-linecap="round" stroke-linejoin="round"/>
<path d="M10.875 6.00001V3.71201C10.875 2.88358 10.2034 2.21201 9.375 2.21201C8.54657 2.21201 7.875 2.88358 7.875 3.71201V6.00001" stroke="black" stroke-width="1.5" stroke-linecap="round" stroke-linejoin="round"/>
<path d="M13.875 6V2.25C13.875 1.42157 13.2034 0.75 12.375 0.75C11.5466 0.75 10.875 1.42157 10.875 2.25V6" stroke="black" stroke-width="1.5" stroke-linecap="round" stroke-linejoin="round"/>
<path d="M16.875 6.00001V3.71201C16.875 2.88358 16.2034 2.21201 15.375 2.21201C14.5466 2.21201 13.875 2.88358 13.875 3.71201V4.75001" stroke="black" stroke-width="1.5" stroke-linecap="round" stroke-linejoin="round"/>
<path d="M16.1 23.25V22.25C16.0968 21.6264 16.3812 21.0361 16.871 20.65L19.1 18.85C19.5894 18.4636 19.8738 17.8735 19.871 17.25V12.719C19.8658 11.9188 19.225 11.2678 18.425 11.25C17.171 11.25 16.925 12.665 16.914 12.715L16.629 14.782C16.5495 15.3861 16.1991 15.921 15.677 16.235L14.093 17.174C13.4857 17.5414 13.1164 18.2012 13.121 18.911V20.25" stroke="black" stroke-width="1.5" stroke-linecap="round" stroke-linejoin="round"/>
<path d="M9.579 13.844C10.0185 14.4213 10.712 14.7479 11.437 14.719C12.576 14.719 13.5 14.026 13.5 13.172C13.5 12.318 12.576 11.626 11.437 11.626C10.298 11.626 9.375 10.933 9.375 10.078C9.375 9.223 10.299 8.531 11.437 8.531C12.1621 8.50161 12.8558 8.82831 13.295 9.406" stroke="black" stroke-width="1.5" stroke-linecap="round" stroke-linejoin="round"/>
<path d="M11.437 14.719V15.75" stroke="black" stroke-width="1.5" stroke-linecap="round" stroke-linejoin="round"/>
<path d="M11.437 7.5V8.531" stroke="black" stroke-width="1.5" stroke-linecap="round" stroke-linejoin="round"/>
</svg>
