<svg width="24" height="24" viewBox="0 0 24 24" fill="none" xmlns="http://www.w3.org/2000/svg">
<path d="M22.125 23.25L19.125 18.75V13.5C19.125 11.5 15.325 9.361 13.875 8.25" stroke="black" stroke-width="1.5" stroke-linecap="round" stroke-linejoin="round"/>
<path d="M15.805 14.794L12.157 11.87C11.8278 11.5408 11.3479 11.4122 10.8982 11.5327C10.4485 11.6532 10.0972 12.0045 9.97671 12.4542C9.85621 12.9039 9.98478 13.3838 10.314 13.713L13.848 17.7V20.2C13.848 21.381 15.535 23.245 15.535 23.245" stroke="black" stroke-width="1.5" stroke-linecap="round" stroke-linejoin="round"/>
<path d="M13.865 20.424C13.7767 21.18 13.1362 21.7501 12.375 21.75H3.375C2.54657 21.75 1.875 21.0784 1.875 20.25V2.25C1.875 1.42157 2.54657 0.75 3.375 0.75H12.375C13.2034 0.75 13.875 1.42157 13.875 2.25V13.25" stroke="black" stroke-width="1.5" stroke-linecap="round" stroke-linejoin="round"/>
<path d="M7.875 14.25C6.49694 14.2482 5.29735 13.3078 4.96662 11.97C4.63588 10.6322 5.25907 9.24119 6.47752 8.59745C7.69598 7.95371 9.19629 8.22286 10.115 9.25" stroke="black" stroke-width="1.5" stroke-linecap="round" stroke-linejoin="round"/>
<path d="M4.5 3C4.70711 3 4.875 3.16789 4.875 3.375C4.875 3.58211 4.70711 3.75 4.5 3.75C4.29289 3.75 4.125 3.58211 4.125 3.375C4.125 3.16789 4.29289 3 4.5 3" stroke="black" stroke-width="1.5" stroke-linecap="round" stroke-linejoin="round"/>
<path d="M11.25 18.75C11.4571 18.75 11.625 18.9179 11.625 19.125C11.625 19.3321 11.4571 19.5 11.25 19.5C11.0429 19.5 10.875 19.3321 10.875 19.125C10.875 18.9179 11.0429 18.75 11.25 18.75" stroke="black" stroke-width="1.5" stroke-linecap="round" stroke-linejoin="round"/>
</svg>
