<svg width="24" height="24" viewBox="0 0 24 24" fill="none" xmlns="http://www.w3.org/2000/svg">
<path d="M15.4 11.25C16.291 11.898 19.5 15.125 19.5 18.934C19.5 22.011 15.956 23.25 12.676 23.25C9.396 23.25 6 22.011 6 18.934C6 14.973 9.5 11.6 10.32 11.1" stroke="black" stroke-width="1.5" stroke-linecap="round" stroke-linejoin="round"/>
<path d="M4.5 3.75H6.3C6.57 3.75 6.75 3.964 6.75 4.286V10.714C6.75 11.036 6.57 11.25 6.3 11.25H4.5" stroke="black" stroke-width="1.5" stroke-linecap="round" stroke-linejoin="round"/>
<path d="M10.4 2.621L9.155 4.371C8.90166 4.68518 8.52435 4.87384 8.121 4.888H6.75" stroke="black" stroke-width="1.5" stroke-linecap="round" stroke-linejoin="round"/>
<path d="M6.75 9.384C8.792 10.489 10.017 11.25 11.244 11.25H15.4C16.44 11.25 16.631 11.192 16.96 10.125C17.48 8.438 18 5.627 18 5.625C18 5.063 17.48 4.5 16.441 4.5L11.414 4.52L9.814 1.531C9.73 1.36784 9.73 1.17416 9.814 1.011C9.88818 0.856173 10.0424 0.755539 10.214 0.75H16.032C16.2053 0.754145 16.3616 0.854919 16.437 1.011C16.521 1.17381 16.521 1.36719 16.437 1.53L14.858 4.5" stroke="black" stroke-width="1.5" stroke-linecap="round" stroke-linejoin="round"/>
<path d="M11.079 19.094C11.5185 19.6713 12.212 19.9979 12.937 19.969C14.076 19.969 15 19.276 15 18.422C15 17.568 14.076 16.876 12.937 16.876C11.798 16.876 10.875 16.183 10.875 15.328C10.875 14.473 11.799 13.781 12.937 13.781C13.6621 13.7516 14.3558 14.0783 14.795 14.656" stroke="black" stroke-width="1.5" stroke-linecap="round" stroke-linejoin="round"/>
<path d="M12.937 19.969V21" stroke="black" stroke-width="1.5" stroke-linecap="round" stroke-linejoin="round"/>
<path d="M12.937 12.75V13.781" stroke="black" stroke-width="1.5" stroke-linecap="round" stroke-linejoin="round"/>
</svg>
