<svg width="24" height="24" viewBox="0 0 24 24" fill="none" xmlns="http://www.w3.org/2000/svg">
<path d="M3.17101 12.8H5.67101C5.80927 12.7947 5.9432 12.8489 6.03882 12.9489C6.13444 13.0489 6.18257 13.1851 6.17101 13.323V22.732C6.18257 22.8699 6.13444 23.0061 6.03882 23.1061C5.9432 23.2062 5.80927 23.2604 5.67101 23.255H3.17101" stroke="black" stroke-width="1.5" stroke-linecap="round" stroke-linejoin="round"/>
<path d="M10.322 10.584L8.40001 12.977C8.14456 13.2953 7.76292 13.4863 7.35501 13.5H6.17101" stroke="black" stroke-width="1.5" stroke-linecap="round" stroke-linejoin="round"/>
<path d="M6.17101 20.534C8.31501 22.159 10.271 23.25 11.534 23.25H17.807C18.567 23.25 19.045 23.196 19.375 22.205C19.8789 19.6753 20.2282 17.1172 20.421 14.545C20.421 14.023 19.898 13.5 18.853 13.5H12.921" stroke="black" stroke-width="1.5" stroke-linecap="round" stroke-linejoin="round"/>
<path d="M10.554 12.205L9.00601 1.373C8.98371 1.21643 9.03039 1.05789 9.13397 0.938382C9.23755 0.818878 9.38786 0.750157 9.54601 0.75H17.1" stroke="black" stroke-width="1.5" stroke-linecap="round" stroke-linejoin="round"/>
<path d="M13.839 13.5L12.923 4.341C12.9079 4.19948 12.9539 4.05823 13.0493 3.95266C13.1448 3.84709 13.2807 3.7872 13.423 3.788H20.323C20.4701 3.78624 20.6105 3.84935 20.7068 3.96052C20.8032 4.0717 20.8457 4.21965 20.823 4.365L19.443 13.565" stroke="black" stroke-width="1.5" stroke-linecap="round" stroke-linejoin="round"/>
<path d="M16.7 8.621C16.906 8.62321 17.0717 8.79126 17.071 8.99732C17.0702 9.20338 16.9034 9.37024 16.6973 9.37098C16.4913 9.37171 16.3232 9.20605 16.321 9C16.321 8.7929 16.4889 8.625 16.696 8.625" stroke="black" stroke-width="1.5" stroke-linecap="round" stroke-linejoin="round"/>
</svg>
