<svg width="24" height="24" viewBox="0 0 24 24" fill="none" xmlns="http://www.w3.org/2000/svg">
<path d="M13.893 12.75H20.643L21.114 13.542C21.33 13.8663 21.33 14.2887 21.114 14.613L20.814 15.06C20.6219 15.3482 20.599 15.7173 20.754 16.027L21.254 17.027C21.39 17.299 21.39 17.619 21.254 17.891L20.683 19.032C20.5688 19.2611 20.5501 19.5261 20.631 19.769L20.798 20.269C20.9143 20.6159 20.824 20.9987 20.565 21.257L19.143 22.5H12.373C12.0048 22.4999 11.6399 22.5702 11.298 22.707L9.39801 23.25" stroke="black" stroke-width="1.5" stroke-linecap="round" stroke-linejoin="round"/>
<path d="M2.64301 17.457L5.88501 16.241C6.28727 16.0892 6.6275 15.8077 6.85201 15.441L8.93701 10.619C9.15591 10.2631 9.4493 9.95876 9.79701 9.727L10.523 9.242" stroke="black" stroke-width="1.5" stroke-linecap="round" stroke-linejoin="round"/>
<path d="M10.946 12.205L9.40001 1.373C9.37704 1.21648 9.42334 1.05771 9.52685 0.93807C9.63035 0.818432 9.78081 0.749778 9.93901 0.750001H17.491" stroke="black" stroke-width="1.5" stroke-linecap="round" stroke-linejoin="round"/>
<path d="M14.162 12.75L13.316 4.341C13.3009 4.19948 13.3469 4.05823 13.4423 3.95266C13.5378 3.84709 13.6737 3.7872 13.816 3.788H20.716C20.8631 3.78624 21.0035 3.84935 21.0998 3.96052C21.1962 4.0717 21.2387 4.21965 21.216 4.365L19.958 12.75" stroke="black" stroke-width="1.5" stroke-linecap="round" stroke-linejoin="round"/>
<path d="M17.088 8.621C17.2946 8.62101 17.4623 8.7881 17.463 8.99468C17.4637 9.20127 17.2972 9.36953 17.0907 9.37099C16.8841 9.37246 16.7152 9.20657 16.713 9C16.713 8.7929 16.8809 8.625 17.088 8.625" stroke="black" stroke-width="1.5" stroke-linecap="round" stroke-linejoin="round"/>
</svg>
