<svg width="24" height="24" viewBox="0 0 24 24" fill="none" xmlns="http://www.w3.org/2000/svg">
<path fill-rule="evenodd" clip-rule="evenodd" d="M9.097 23.25C8.54472 23.25 8.097 22.8023 8.097 22.25V16.75C8.097 16.1977 8.54472 15.75 9.097 15.75H19.097C19.6493 15.75 20.097 16.1977 20.097 16.75V22.25C20.097 22.8023 19.6493 23.25 19.097 23.25H9.097Z" stroke="black" stroke-width="1.5" stroke-linecap="round" stroke-linejoin="round"/>
<path d="M10.877 15.75L11.544 13C11.6374 12.6131 11.8807 12.2792 12.2203 12.0718C12.56 11.8643 12.9682 11.8004 13.355 11.894L22.1 14.006C22.4867 14.0996 22.8204 14.343 23.0276 14.6826C23.2348 15.0223 23.2987 15.4303 23.205 15.817L22.149 20.19C22.0452 20.6192 21.7575 20.9809 21.3626 21.1786C20.9678 21.3763 20.5059 21.39 20.1 21.216" stroke="black" stroke-width="1.5" stroke-linecap="round" stroke-linejoin="round"/>
<path d="M14.25 19.125C14.4571 19.125 14.625 19.2929 14.625 19.5C14.625 19.7071 14.4571 19.875 14.25 19.875C14.0429 19.875 13.875 19.7071 13.875 19.5C13.875 19.2929 14.0429 19.125 14.25 19.125" stroke="black" stroke-width="1.5" stroke-linecap="round" stroke-linejoin="round"/>
<path d="M0.75 17.25C0.751558 15.0883 1.78765 13.0578 3.53716 11.788C5.28666 10.5182 7.53822 10.1625 9.594 10.831" stroke="black" stroke-width="1.5" stroke-linecap="round" stroke-linejoin="round"/>
<path d="M3.945 2.78101C5.23588 4.11939 7.01552 4.87529 8.875 4.87501C9.80757 4.87564 10.7304 4.68575 11.587 4.31701" stroke="black" stroke-width="1.5" stroke-linecap="round" stroke-linejoin="round"/>
<path fill-rule="evenodd" clip-rule="evenodd" d="M7.5 9C9.77817 9 11.625 7.15317 11.625 4.875C11.625 2.59683 9.77817 0.75 7.5 0.75C5.22183 0.75 3.375 2.59683 3.375 4.875C3.375 7.15317 5.22183 9 7.5 9Z" stroke="black" stroke-width="1.5" stroke-linecap="round" stroke-linejoin="round"/>
</svg>
