<svg width="24" height="24" viewBox="0 0 24 24" fill="none" xmlns="http://www.w3.org/2000/svg">
<path d="M5.051 9.68301L4.27 7.25601C4.01636 6.46793 4.44915 5.62337 5.237 5.36901L19.143 0.890006C19.9314 0.636451 20.7761 1.06976 21.03 1.85801L23.11 8.31401C23.2321 8.69273 23.1987 9.10445 23.0171 9.45854C22.8356 9.81262 22.5208 10.0801 22.142 10.202L17.317 11.756" stroke="black" stroke-width="1.5" stroke-linecap="round" stroke-linejoin="round"/>
<path d="M17.317 18.683V21.254C17.3154 21.7672 17.11 22.2587 16.746 22.6205C16.382 22.9823 15.8892 23.1846 15.376 23.183H2.758C2.2448 23.1846 1.752 22.9823 1.38799 22.6205C1.02398 22.2587 0.818588 21.7672 0.816999 21.254V11.611C0.818588 11.0979 1.02401 10.6065 1.38805 10.2449C1.75209 9.88325 2.2449 9.68114 2.758 9.683H15.376C15.8891 9.68114 16.3819 9.88325 16.746 10.2449C17.11 10.6065 17.3154 11.0979 17.317 11.611V14.183" stroke="black" stroke-width="1.5" stroke-linecap="round" stroke-linejoin="round"/>
<path d="M4.567 9.698V23.183" stroke="black" stroke-width="1.5" stroke-linecap="round" stroke-linejoin="round"/>
<path fill-rule="evenodd" clip-rule="evenodd" d="M14.144 14.183C12.9501 14.2328 12.0213 15.2389 12.067 16.433C12.0213 17.6271 12.9501 18.6332 14.144 18.683H17.779C18.3756 18.6576 18.8396 18.1548 18.817 17.558V15.308C18.8401 14.7111 18.3759 14.2079 17.779 14.183H14.144Z" stroke="black" stroke-width="1.5" stroke-linecap="round" stroke-linejoin="round"/>
<path d="M16.225 15.96C16.4321 15.96 16.6 16.1279 16.6 16.335C16.6 16.5421 16.4321 16.71 16.225 16.71C16.0179 16.71 15.85 16.5421 15.85 16.335C15.85 16.1279 16.0179 15.96 16.225 15.96" stroke="black" stroke-width="1.5" stroke-linecap="round" stroke-linejoin="round"/>
<path d="M12.229 7.49999C12.5084 6.94917 13.0969 6.62593 13.7117 6.68561C14.3264 6.7453 14.8418 7.1757 15.01 7.76999" stroke="black" stroke-width="1.5" stroke-linecap="round" stroke-linejoin="round"/>
</svg>
