<svg width="24" height="24" viewBox="0 0 24 24" fill="none" xmlns="http://www.w3.org/2000/svg">
<path d="M7.457 9.228L10.329 6.515C10.6507 6.29994 11.029 6.1851 11.416 6.185H15.1C15.7851 6.18476 16.4202 6.54332 16.774 7.13L17.124 7.708C17.4731 8.28362 17.5018 8.99824 17.2 9.6L16.883 10.234C16.4887 11.023 15.6149 11.4503 14.75 11.277L11.588 10.645C11.4185 10.6119 11.2428 10.6479 11.1 10.745C10.4993 11.1421 10.1685 11.8396 10.241 12.556C10.2689 12.839 10.4538 13.0823 10.719 13.185L16.068 15.242C16.4798 15.4003 16.933 15.4147 17.354 15.283L23.063 13.5" stroke="black" stroke-width="1.5" stroke-linecap="round" stroke-linejoin="round"/>
<path d="M23.062 5.77101L18.7 3.08401C18.3564 2.87431 17.9567 2.77517 17.555 2.80001L10.533 3.21301C10.0946 3.23779 9.67717 3.40932 9.348 3.70001L5.848 6.81501C5.59179 7.04225 5.40001 7.33302 5.292 7.65801L4.617 9.67101" stroke="black" stroke-width="1.5" stroke-linecap="round" stroke-linejoin="round"/>
<path d="M8.437 12.206H6.4C5.7559 12.2039 5.20132 12.6601 5.0791 13.2925C4.95687 13.9249 5.30152 14.5549 5.9 14.793L7.963 15.619C8.55917 15.8589 8.90162 16.4877 8.77968 17.1187C8.65773 17.7496 8.10562 18.2056 7.463 18.206H5.437" stroke="black" stroke-width="1.5" stroke-linecap="round" stroke-linejoin="round"/>
<path d="M6.93701 12.206V11.456" stroke="black" stroke-width="1.5" stroke-linecap="round" stroke-linejoin="round"/>
<path d="M6.93701 18.956V18.206" stroke="black" stroke-width="1.5" stroke-linecap="round" stroke-linejoin="round"/>
<path d="M8.224 9.34403C5.63084 8.77749 2.97399 9.98452 1.69481 12.3103C0.415633 14.636 0.819012 17.5262 2.68611 19.4128C4.55321 21.2995 7.43902 21.7329 9.77796 20.478C12.1169 19.2231 13.3515 16.5789 12.812 13.98" stroke="black" stroke-width="1.5" stroke-linecap="round" stroke-linejoin="round"/>
</svg>
