<svg width="24" height="24" viewBox="0 0 24 24" fill="none" xmlns="http://www.w3.org/2000/svg">
<path d="M5.2502 9.94601L0.750204 12.196" stroke="black" stroke-width="1.5" stroke-linecap="round" stroke-linejoin="round"/>
<path d="M0.750204 21C4.58705 19.7209 7.99121 17.3972 10.5802 14.29L10.8142 14.01C11.5142 13.169 10.5142 11.978 9.4312 12.478L3.6852 15.13" stroke="black" stroke-width="1.5" stroke-linecap="round" stroke-linejoin="round"/>
<path d="M16.5302 14.25L13.2302 18.341C12.8941 18.765 12.2872 18.8563 11.8412 18.55L11.7212 18.468C11.3259 18.1932 11.158 17.6914 11.3082 17.234L11.5792 16.4" stroke="black" stroke-width="1.5" stroke-linecap="round" stroke-linejoin="round"/>
<path d="M18.2712 14.25L17.4112 18.659C17.3502 18.9759 17.1466 19.2471 16.8592 19.394C16.5748 19.5383 16.2386 19.5383 15.9542 19.394L15.6732 19.249C15.3249 19.0676 15.1072 18.7067 15.1092 18.314V16.014" stroke="black" stroke-width="1.5" stroke-linecap="round" stroke-linejoin="round"/>
<path d="M18.7502 3H21.7502C22.5786 3 23.2502 3.67157 23.2502 4.5V12.75C23.2502 13.5784 22.5786 14.25 21.7502 14.25H13.5002" stroke="black" stroke-width="1.5" stroke-linecap="round" stroke-linejoin="round"/>
<path d="M5.2502 11.25V4.5C5.2502 3.67157 5.92178 3 6.7502 3H10.5002" stroke="black" stroke-width="1.5" stroke-linecap="round" stroke-linejoin="round"/>
<path d="M12.5792 9.344C13.0187 9.92128 13.7122 10.2479 14.4372 10.219C15.5762 10.219 16.5002 9.526 16.5002 8.672C16.5002 7.818 15.5762 7.126 14.4372 7.126C13.2982 7.126 12.3752 6.433 12.3752 5.578C12.3752 4.723 13.2992 4.031 14.4372 4.031C15.1623 4.00161 15.856 4.32831 16.2952 4.906" stroke="black" stroke-width="1.5" stroke-linecap="round" stroke-linejoin="round"/>
<path d="M14.4372 10.219V11.25" stroke="black" stroke-width="1.5" stroke-linecap="round" stroke-linejoin="round"/>
<path d="M14.4372 3V4.031" stroke="black" stroke-width="1.5" stroke-linecap="round" stroke-linejoin="round"/>
</svg>
