<svg width="24" height="24" viewBox="0 0 24 24" fill="none" xmlns="http://www.w3.org/2000/svg">
<path d="M20.25 23.2569V18.0069C20.2483 14.6033 18.1558 11.5504 14.982 10.3209C16.8732 9.01568 17.6959 6.6322 17.0123 4.43831C16.3288 2.24441 14.2979 0.75 12 0.75C9.70209 0.75 7.6712 2.24441 6.98765 4.43831C6.3041 6.6322 7.12675 9.01568 9.018 10.3209C5.8442 11.5504 3.75172 14.6033 3.75 18.0069V23.2569" stroke="black" stroke-width="1.5" stroke-linecap="round" stroke-linejoin="round"/>
<path fill-rule="evenodd" clip-rule="evenodd" d="M12 21.7569C14.0711 21.7569 15.75 20.078 15.75 18.0069C15.75 15.9358 14.0711 14.2569 12 14.2569C9.92893 14.2569 8.25 15.9358 8.25 18.0069C8.25 20.078 9.92893 21.7569 12 21.7569Z" stroke="black" stroke-width="1.5" stroke-linecap="round" stroke-linejoin="round"/>
<path d="M12 17.6319C12.2071 17.6319 12.375 17.7998 12.375 18.0069" stroke="black" stroke-width="1.5" stroke-linecap="round" stroke-linejoin="round"/>
<path d="M11.625 18.0069C11.625 17.7998 11.7929 17.6319 12 17.6319" stroke="black" stroke-width="1.5" stroke-linecap="round" stroke-linejoin="round"/>
<path d="M12 18.3819C11.7929 18.3819 11.625 18.214 11.625 18.0069" stroke="black" stroke-width="1.5" stroke-linecap="round" stroke-linejoin="round"/>
<path d="M12.375 18.0069C12.375 18.214 12.2071 18.3819 12 18.3819" stroke="black" stroke-width="1.5" stroke-linecap="round" stroke-linejoin="round"/>
</svg>
