<svg width="24" height="24" viewBox="0 0 24 24" fill="none" xmlns="http://www.w3.org/2000/svg">
<path d="M14.25 11.25V12.75C14.25 13.5784 13.5784 14.25 12.75 14.25H8.25L3.022 17.387C2.55847 17.6652 1.98108 17.6725 1.51068 17.4061C1.04029 17.1396 0.749671 16.6406 0.75 16.1V14.25C0.75 13.4216 1.42157 12.75 2.25 12.75H5.25L7.5 11.25H23.25" stroke="black" stroke-width="1.5" stroke-linecap="round" stroke-linejoin="round"/>
<path d="M21.75 11.25V9" stroke="black" stroke-width="1.5" stroke-linecap="round" stroke-linejoin="round"/>
<path d="M3.261 9.75C4.12683 6.10117 7.00829 3.27206 10.6724 2.4733C14.3365 1.67453 18.134 3.04761 20.44 6.005" stroke="black" stroke-width="1.5" stroke-linecap="round" stroke-linejoin="round"/>
<path d="M22.239 14.251C21.46 17.5319 19.0413 20.1774 15.8433 21.2468C12.6453 22.3161 9.12175 21.6574 6.526 19.505" stroke="black" stroke-width="1.5" stroke-linecap="round" stroke-linejoin="round"/>
<path d="M12.75 8.25V0.75" stroke="black" stroke-width="1.5" stroke-linecap="round" stroke-linejoin="round"/>
<path d="M12.75 23.25V17.25" stroke="black" stroke-width="1.5" stroke-linecap="round" stroke-linejoin="round"/>
<path d="M9.076 8.25C11.118 6.24757 14.387 6.24757 16.429 8.25" stroke="black" stroke-width="1.5" stroke-linecap="round" stroke-linejoin="round"/>
<path d="M17.494 14.251C16.8581 15.5906 15.6857 16.5991 14.266 17.0275C12.8463 17.4559 11.3118 17.2643 10.041 16.5" stroke="black" stroke-width="1.5" stroke-linecap="round" stroke-linejoin="round"/>
</svg>
