<svg width="24" height="25" viewBox="0 0 24 25" fill="none" xmlns="http://www.w3.org/2000/svg">
<path fill-rule="evenodd" clip-rule="evenodd" d="M6 6C7.44975 6 8.625 4.82475 8.625 3.375C8.625 1.92525 7.44975 0.75 6 0.75C4.55025 0.75 3.375 1.92525 3.375 3.375C3.375 4.82475 4.55025 6 6 6Z" stroke="black" stroke-width="1.5" stroke-linecap="round" stroke-linejoin="round"/>
<path fill-rule="evenodd" clip-rule="evenodd" d="M0.978002 20.955L4.5 15.32V9.75C4.50067 9.16812 4.83781 8.63912 5.36498 8.39278C5.89215 8.14644 6.51422 8.22721 6.961 8.6L9.577 10.781C10.1261 11.2361 10.919 11.244 11.477 10.8L13.313 9.331C13.7317 8.99606 14.2973 8.90995 14.7967 9.1051C15.2962 9.30025 15.6535 9.74701 15.7342 10.2771C15.8149 10.8072 15.6067 11.3401 15.188 11.675L13.352 13.144C11.6172 14.5207 9.14084 14.4395 7.5 12.952V15.319L11.021 20.955C11.3205 21.4096 11.3501 21.9908 11.0985 22.4735C10.8468 22.9562 10.3534 23.2647 9.80926 23.2796C9.26509 23.2944 8.75558 23.0133 8.478 22.545L6 18.58L3.521 22.545C3.24551 22.982 2.76456 23.2464 2.248 23.245C1.9673 23.2454 1.69227 23.166 1.455 23.016C0.756153 22.5772 0.543017 21.6563 0.978002 20.955Z" stroke="black" stroke-width="1.5" stroke-linecap="round" stroke-linejoin="round"/>
<path d="M23.25 3.75V5.25H13.11C12.3937 5.24979 11.7009 5.50589 11.157 5.972L7.536 9.072" stroke="black" stroke-width="1.5" stroke-linecap="round" stroke-linejoin="round"/>
<path d="M16.5 3H12" stroke="black" stroke-width="1.5" stroke-linecap="round" stroke-linejoin="round"/>
<path d="M19.5 5.25V6.75C19.5 7.57843 18.8284 8.25 18 8.25H17.25" stroke="black" stroke-width="1.5" stroke-linecap="round" stroke-linejoin="round"/>
</svg>
