<svg width="24" height="24" viewBox="0 0 24 24" fill="none" xmlns="http://www.w3.org/2000/svg">
<path d="M13.608 8.717L23.25 1.5" stroke="black" stroke-width="1.5" stroke-linecap="round" stroke-linejoin="round"/>
<path d="M21.643 2.703L20.185 0.754997" stroke="black" stroke-width="1.5" stroke-linecap="round" stroke-linejoin="round"/>
<path fill-rule="evenodd" clip-rule="evenodd" d="M6.939 14.923L0.951 19.445C0.730086 19.6107 0.685315 19.9241 0.851 20.145L3 23.015C3.11194 23.1647 3.2886 23.2521 3.47554 23.2501C3.66248 23.2481 3.83725 23.1571 3.946 23.005L8.338 16.886L14.969 11.922C15.1282 11.803 15.2336 11.6255 15.2619 11.4288C15.2902 11.232 15.2392 11.0321 15.12 10.873L13.608 8.717L6.376 14.13L6.939 14.923Z" stroke="black" stroke-width="1.5" stroke-linecap="round" stroke-linejoin="round"/>
<path d="M5.213 12.494L8.335 16.886" stroke="black" stroke-width="1.5" stroke-linecap="round" stroke-linejoin="round"/>
<path d="M9.668 8.479L11.197 10.522" stroke="black" stroke-width="1.5" stroke-linecap="round" stroke-linejoin="round"/>
<path d="M8.208 9.57199L11.128 7.38599" stroke="black" stroke-width="1.5" stroke-linecap="round" stroke-linejoin="round"/>
</svg>
