<svg width="24" height="24" viewBox="0 0 24 24" fill="none" xmlns="http://www.w3.org/2000/svg">
<path d="M15.322 2.54895C18.8641 3.45629 21.5037 6.41881 21.9979 10.0417C22.4922 13.6647 20.7427 17.226 17.573 19.049V23.249" stroke="black" stroke-width="1.5" stroke-linecap="round" stroke-linejoin="round"/>
<path fill-rule="evenodd" clip-rule="evenodd" d="M13.072 15C15.1431 15 16.822 13.3211 16.822 11.25C16.822 9.17893 15.1431 7.5 13.072 7.5C11.001 7.5 9.32202 9.17893 9.32202 11.25C9.32202 13.3211 11.001 15 13.072 15Z" stroke="black" stroke-width="1.5" stroke-linecap="round" stroke-linejoin="round"/>
<path d="M10.822 8.25V1.5C10.822 1.08579 11.1578 0.75 11.572 0.75H14.572C14.9862 0.75 15.322 1.08579 15.322 1.5V8.25" stroke="black" stroke-width="1.5" stroke-linecap="round" stroke-linejoin="round"/>
<path d="M4.07301 15.7611L3.13701 15.5271C2.66391 15.4087 2.27791 15.0676 2.10208 14.6127C1.92625 14.1579 1.98254 13.6459 2.25301 13.2401L4.07301 10.5111V9.76106C4.07301 6.21906 6.94101 3.25006 10.822 2.46106" stroke="black" stroke-width="1.5" stroke-linecap="round" stroke-linejoin="round"/>
<path d="M8.57302 23.25V21.011L7.56602 21.178C7.15225 21.2482 6.72832 21.2301 6.32202 21.125" stroke="black" stroke-width="1.5" stroke-linecap="round" stroke-linejoin="round"/>
<path d="M13.072 11.25C13.072 15.3921 9.71416 18.75 5.57202 18.75H4.07202" stroke="black" stroke-width="1.5" stroke-linecap="round" stroke-linejoin="round"/>
</svg>
