<svg width="24" height="24" viewBox="0 0 24 24" fill="none" xmlns="http://www.w3.org/2000/svg">
<path d="M21.75 15.7556V18.7556" stroke="black" stroke-width="1.5" stroke-linecap="round" stroke-linejoin="round"/>
<path d="M2.25 18.7556V8.25562C2.25 7.42719 2.92157 6.75562 3.75 6.75562H7.5" stroke="black" stroke-width="1.5" stroke-linecap="round" stroke-linejoin="round"/>
<path fill-rule="evenodd" clip-rule="evenodd" d="M14.584 18.7556C14.0542 19.683 13.068 20.2553 12 20.2553C10.932 20.2553 9.94583 19.683 9.416 18.7556H0.75V20.2556C0.75 21.9125 2.09315 23.2556 3.75 23.2556H20.25C21.9069 23.2556 23.25 21.9125 23.25 20.2556V18.7556H14.584Z" stroke="black" stroke-width="1.5" stroke-linecap="round" stroke-linejoin="round"/>
<path fill-rule="evenodd" clip-rule="evenodd" d="M18.659 1.01664C16.2554 0.298375 13.6541 1.05941 12.0166 2.95992C10.3792 4.86044 10.0112 7.54568 11.077 9.81664L9.013 14.0056L13.736 12.7156C14.1526 12.9543 14.5951 13.1446 15.055 13.2826C18.4197 14.213 21.9086 12.2717 22.8918 8.92205C23.875 5.57236 21.9888 2.0534 18.655 1.01764L18.659 1.01664Z" stroke="black" stroke-width="1.5" stroke-linecap="round" stroke-linejoin="round"/>
<path d="M15.007 5.6626C15.007 4.62706 15.8465 3.7876 16.882 3.7876C17.9176 3.7876 18.757 4.62706 18.757 5.6626C18.757 6.69813 17.9176 7.5376 16.882 7.5376" stroke="black" stroke-width="1.5" stroke-linecap="round" stroke-linejoin="round"/>
<path d="M16.882 9.7876C16.6749 9.7876 16.507 9.95549 16.507 10.1626C16.507 10.3697 16.6749 10.5376 16.882 10.5376C17.0891 10.5376 17.257 10.3697 17.257 10.1626C17.2573 10.0631 17.2179 9.96752 17.1475 9.89714C17.0771 9.82676 16.9816 9.78733 16.882 9.7876V9.7876" stroke="black" stroke-width="1.5" stroke-linecap="round" stroke-linejoin="round"/>
</svg>
