<svg width="24" height="24" viewBox="0 0 24 24" fill="none" xmlns="http://www.w3.org/2000/svg">
<path d="M15.5 23.2501V19.5111L16.507 19.6791C17.377 19.824 18.2666 19.5788 18.9395 19.0086C19.6124 18.4384 20.0002 17.601 20 16.7191V14.2611L20.935 14.0271C21.4081 13.9086 21.7941 13.5676 21.9699 13.1127C22.1458 12.6578 22.0895 12.1459 21.819 11.7401L20 9.01105V8.26105C20 3.83505 15.521 0.300052 10.182 0.800052C6.27788 1.15465 3.05314 3.99714 2.21135 7.82589C1.36956 11.6546 3.10465 15.5876 6.5 17.5471V23.2471" stroke="black" stroke-width="1.5" stroke-linecap="round" stroke-linejoin="round"/>
<path d="M8.57201 8.25011C8.5723 6.72454 9.71746 5.44212 11.2333 5.26987C12.7491 5.09762 14.1528 6.09039 14.4954 7.577C14.838 9.0636 14.0103 10.5706 12.572 11.0791C11.9724 11.2911 11.5717 11.8581 11.572 12.4941V12.7501" stroke="black" stroke-width="1.5" stroke-linecap="round" stroke-linejoin="round"/>
<path d="M11.572 15.75C11.3649 15.75 11.197 15.9179 11.197 16.125C11.197 16.3321 11.3649 16.5 11.572 16.5C11.7791 16.5 11.947 16.3321 11.947 16.125C11.947 15.9179 11.7791 15.75 11.572 15.75V15.75" stroke="black" stroke-width="1.5" stroke-linecap="round" stroke-linejoin="round"/>
</svg>
