<svg width="24" height="24" viewBox="0 0 24 24" fill="none" xmlns="http://www.w3.org/2000/svg">
<path d="M14.625 12.75C14.8321 12.75 15 12.9179 15 13.125" stroke="black" stroke-width="1.5" stroke-linecap="round" stroke-linejoin="round"/>
<path d="M14.25 13.125C14.25 12.9179 14.4179 12.75 14.625 12.75" stroke="black" stroke-width="1.5" stroke-linecap="round" stroke-linejoin="round"/>
<path d="M14.625 13.5C14.4179 13.5 14.25 13.3321 14.25 13.125" stroke="black" stroke-width="1.5" stroke-linecap="round" stroke-linejoin="round"/>
<path d="M15 13.125C15 13.3321 14.8321 13.5 14.625 13.5" stroke="black" stroke-width="1.5" stroke-linecap="round" stroke-linejoin="round"/>
<path d="M9.375 12.75C9.58211 12.75 9.75 12.9179 9.75 13.125" stroke="black" stroke-width="1.5" stroke-linecap="round" stroke-linejoin="round"/>
<path d="M9 13.125C9 12.9179 9.16789 12.75 9.375 12.75" stroke="black" stroke-width="1.5" stroke-linecap="round" stroke-linejoin="round"/>
<path d="M9.375 13.5C9.16789 13.5 9 13.3321 9 13.125" stroke="black" stroke-width="1.5" stroke-linecap="round" stroke-linejoin="round"/>
<path d="M9.75 13.125C9.75 13.3321 9.58211 13.5 9.375 13.5" stroke="black" stroke-width="1.5" stroke-linecap="round" stroke-linejoin="round"/>
<path fill-rule="evenodd" clip-rule="evenodd" d="M12 21C15.7279 21 18.75 17.9779 18.75 14.25C18.75 10.5221 15.7279 7.5 12 7.5C8.27208 7.5 5.25 10.5221 5.25 14.25C5.25 17.9779 8.27208 21 12 21Z" stroke="black" stroke-width="1.5" stroke-linecap="round" stroke-linejoin="round"/>
<path d="M6.53699 18.249C4.26549 16.3196 2.96943 13.4802 2.99999 10.5C2.99999 5.115 7.029 0.75 12 0.75C16.971 0.75 21 5.115 21 10.5C21.0306 13.4802 19.7345 16.3196 17.463 18.249" stroke="black" stroke-width="1.5" stroke-linecap="round" stroke-linejoin="round"/>
<path d="M8.27499 8.621C8.48999 4.19 10.076 0.75 12 0.75C13.924 0.75 15.51 4.19 15.725 8.621" stroke="black" stroke-width="1.5" stroke-linecap="round" stroke-linejoin="round"/>
<path d="M12 15V16.5" stroke="black" stroke-width="1.5" stroke-linecap="round" stroke-linejoin="round"/>
<path d="M9.75 23.25L12 21" stroke="black" stroke-width="1.5" stroke-linecap="round" stroke-linejoin="round"/>
<path d="M14.25 23.25L12 21" stroke="black" stroke-width="1.5" stroke-linecap="round" stroke-linejoin="round"/>
<path d="M21 10.594C22.065 10.8764 22.8894 11.7199 23.1475 12.791C23.4056 13.8622 23.0557 14.9886 22.2363 15.725C21.4168 16.4615 20.2596 16.6895 19.222 16.319" stroke="black" stroke-width="1.5" stroke-linecap="round" stroke-linejoin="round"/>
<path d="M3 10.594C1.93504 10.8764 1.1106 11.7199 0.85252 12.791C0.594443 13.8622 0.944266 14.9886 1.76372 15.725C2.58318 16.4615 3.7404 16.6895 4.778 16.319" stroke="black" stroke-width="1.5" stroke-linecap="round" stroke-linejoin="round"/>
</svg>
