<svg width="24" height="24" viewBox="0 0 24 24" fill="none" xmlns="http://www.w3.org/2000/svg">
<path d="M0.750078 5.25H13.5001C8.94373 5.25 5.25008 8.94365 5.25008 13.5V20.25" stroke="black" stroke-width="1.5" stroke-linecap="round" stroke-linejoin="round"/>
<path d="M13.5001 5.25H18.0001" stroke="black" stroke-width="1.5" stroke-linecap="round" stroke-linejoin="round"/>
<path d="M5.25008 14.25H12.7501" stroke="black" stroke-width="1.5" stroke-linecap="round" stroke-linejoin="round"/>
<path d="M0.750078 5.25V3C0.750078 2.58579 1.08586 2.25 1.50008 2.25H8.25008C8.66429 2.25 9.00008 2.58579 9.00008 3V5.25" stroke="black" stroke-width="1.5" stroke-linecap="round" stroke-linejoin="round"/>
<path d="M0.750078 21.75C2.39952 21.9541 4.05301 21.403 5.25008 20.25C6.11222 21.2049 7.33854 21.7499 8.62508 21.7499C9.91162 21.7499 11.1379 21.2049 12.0001 20.25C12.8622 21.2049 14.0885 21.7499 15.3751 21.7499C16.6616 21.7499 17.8879 21.2049 18.7501 20.25C19.9471 21.403 21.6006 21.9541 23.2501 21.75" stroke="black" stroke-width="1.5" stroke-linecap="round" stroke-linejoin="round"/>
</svg>
