<svg width="25" height="24" viewBox="0 0 25 24" fill="none" xmlns="http://www.w3.org/2000/svg">
<path fill-rule="evenodd" clip-rule="evenodd" d="M9.03088 11.25C10.4806 11.25 11.6559 10.0747 11.6559 8.625C11.6559 7.17525 10.4806 6 9.03088 6C7.58114 6 6.40588 7.17525 6.40588 8.625C6.40588 10.0747 7.58114 11.25 9.03088 11.25Z" stroke="black" stroke-width="1.5" stroke-linecap="round" stroke-linejoin="round"/>
<path fill-rule="evenodd" clip-rule="evenodd" d="M20.2809 6.75C21.9377 6.75 23.2809 5.40685 23.2809 3.75C23.2809 2.09315 21.9377 0.75 20.2809 0.75C18.624 0.75 17.2809 2.09315 17.2809 3.75C17.2809 5.40685 18.624 6.75 20.2809 6.75Z" stroke="black" stroke-width="1.5" stroke-linecap="round" stroke-linejoin="round"/>
<path d="M5.80988 17.382L6.03088 16.5H5.63088C5.06239 16.4981 4.54228 16.8196 4.28988 17.329L3.61888 18.671C3.39346 19.1741 2.91023 19.513 2.36044 19.5536C1.81064 19.5942 1.28289 19.3299 0.986032 18.8654C0.689178 18.4008 0.671071 17.8109 0.938876 17.329L1.60988 15.987C2.36787 14.4605 3.92653 13.4964 5.63088 13.5H9.80888L10.6279 12.476L12.8089 9.74999L15.3589 6.56299C15.6938 6.14428 16.2267 5.93606 16.7568 6.01676C17.2869 6.09747 17.7336 6.45484 17.9288 6.95426C18.1239 7.45368 18.0378 8.01928 17.7029 8.43799L12.3849 15.085L11.8099 17.385" stroke="black" stroke-width="1.5" stroke-linecap="round" stroke-linejoin="round"/>
<path d="M0.780884 23.25C2.26154 23.2475 3.65315 22.5425 4.53088 21.35C5.40656 22.545 6.79937 23.2512 8.28088 23.2512C9.7624 23.2512 11.1552 22.545 12.0309 21.35C12.9066 22.545 14.2994 23.2512 15.7809 23.2512C17.2624 23.2512 18.6552 22.545 19.5309 21.35C20.4086 22.5425 21.8002 23.2475 23.2809 23.25" stroke="black" stroke-width="1.5" stroke-linecap="round" stroke-linejoin="round"/>
</svg>
