<svg width="24" height="24" viewBox="0 0 24 24" fill="none" xmlns="http://www.w3.org/2000/svg">
<path d="M6.082 19C2.75926 16.4622 1.42442 12.0885 2.76391 8.12782C4.10339 4.16719 7.81899 1.50146 12 1.50146C16.181 1.50146 19.8966 4.16719 21.2361 8.12782C22.5756 12.0885 21.2407 16.4622 17.918 19" stroke="black" stroke-width="1.5" stroke-linecap="round" stroke-linejoin="round"/>
<path fill-rule="evenodd" clip-rule="evenodd" d="M8.25 16.5C10.3211 16.5 12 15.4926 12 14.25C12 13.0074 10.3211 12 8.25 12C6.17893 12 4.5 13.0074 4.5 14.25C4.5 15.4926 6.17893 16.5 8.25 16.5Z" stroke="black" stroke-width="1.5" stroke-linecap="round" stroke-linejoin="round"/>
<path fill-rule="evenodd" clip-rule="evenodd" d="M15.75 16.5C17.8211 16.5 19.5 15.4926 19.5 14.25C19.5 13.0074 17.8211 12 15.75 12C13.6789 12 12 13.0074 12 14.25C12 15.4926 13.6789 16.5 15.75 16.5Z" stroke="black" stroke-width="1.5" stroke-linecap="round" stroke-linejoin="round"/>
<path d="M6.146 12.387C7.35039 10.2915 9.58302 8.99954 12 8.99954C14.417 8.99954 16.6496 10.2915 17.854 12.387" stroke="black" stroke-width="1.5" stroke-linecap="round" stroke-linejoin="round"/>
<path d="M18.748 15.6C18.748 15.65 18.748 15.7 18.748 15.75C18.748 19.4779 15.7259 22.5 11.998 22.5C8.27007 22.5 5.24799 19.4779 5.24799 15.75C5.24799 15.7 5.24799 15.65 5.24799 15.6" stroke="black" stroke-width="1.5" stroke-linecap="round" stroke-linejoin="round"/>
<path d="M12 18V19.5" stroke="black" stroke-width="1.5" stroke-linecap="round" stroke-linejoin="round"/>
</svg>
