<svg width="24" height="24" viewBox="0 0 24 24" fill="none" xmlns="http://www.w3.org/2000/svg">
<path d="M0.75 18.0002H11.25V23.2502" stroke="black" stroke-width="1.5" stroke-linecap="round" stroke-linejoin="round"/>
<path fill-rule="evenodd" clip-rule="evenodd" d="M13.5 7.50018C14.9497 7.50018 16.125 6.32493 16.125 4.87518C16.125 3.42544 14.9497 2.25018 13.5 2.25018C12.0503 2.25018 10.875 3.42544 10.875 4.87518C10.875 6.32493 12.0503 7.50018 13.5 7.50018Z" stroke="black" stroke-width="1.5" stroke-linecap="round" stroke-linejoin="round"/>
<path d="M3.214 14.9782L4.862 12.2332L1.19 8.56118C0.760843 8.1323 0.632313 7.48712 0.864346 6.92652C1.09638 6.36592 1.64328 6.00031 2.25 6.00018H5.335L3.28 3.12218C2.79841 2.44812 2.95443 1.51127 3.6285 1.02968C4.30256 0.548087 5.23941 0.704115 5.721 1.37818L9.471 6.62818C9.79771 7.08546 9.84139 7.68701 9.58418 8.1867C9.32696 8.68638 8.812 9.00037 8.25 9.00018H5.871L7.811 10.9392C8.29781 11.4261 8.39059 12.182 8.036 12.7722L6.713 14.9782" stroke="black" stroke-width="1.5" stroke-linecap="round" stroke-linejoin="round"/>
<path d="M11.25 23.2502C12.4347 23.2481 13.5481 22.6836 14.25 21.7292C14.9505 22.6853 16.0648 23.2502 17.25 23.2502C18.4352 23.2502 19.5495 22.6853 20.25 21.7292C20.9522 22.6833 22.0654 23.2476 23.25 23.2502" stroke="black" stroke-width="1.5" stroke-linecap="round" stroke-linejoin="round"/>
</svg>
