<svg width="24" height="24" viewBox="0 0 24 24" fill="none" xmlns="http://www.w3.org/2000/svg">
<path fill-rule="evenodd" clip-rule="evenodd" d="M18.423 9.97098C19.6656 9.97098 20.673 8.96362 20.673 7.72098C20.673 6.47834 19.6656 5.47098 18.423 5.47098C17.1804 5.47098 16.173 6.47834 16.173 7.72098C16.173 8.96362 17.1804 9.97098 18.423 9.97098Z" stroke="black" stroke-width="1.5" stroke-linecap="round" stroke-linejoin="round"/>
<path fill-rule="evenodd" clip-rule="evenodd" d="M4.831 3.42799C4.98306 3.48524 5.11228 3.59058 5.199 3.72799L7.743 7.71399L13.594 9.91399C13.838 10.0065 14.054 10.1605 14.221 10.361L18.081 15.016C18.6098 15.6539 18.5214 16.5997 17.8835 17.1285C17.2456 17.6573 16.2998 17.5689 15.771 16.931L12.166 12.58L6.22 10.347C5.91616 10.232 5.65788 10.0214 5.484 9.74699L1.6 3.65299C1.42916 3.38027 1.45134 3.02897 1.65512 2.7799C1.8589 2.53084 2.19886 2.43954 2.5 2.55299L4.831 3.42799Z" stroke="black" stroke-width="1.5" stroke-linecap="round" stroke-linejoin="round"/>
<path d="M9.163 8.24698L8.108 11.056" stroke="black" stroke-width="1.5" stroke-linecap="round" stroke-linejoin="round"/>
<path d="M7.173 6.82098L4.414 8.07298" stroke="black" stroke-width="1.5" stroke-linecap="round" stroke-linejoin="round"/>
<path d="M0.75 21.672C2.23058 21.6692 3.62205 20.9642 4.5 19.772C5.37567 20.967 6.76848 21.6731 8.25 21.6731C9.73152 21.6731 11.1243 20.967 12 19.772C12.8757 20.967 14.2685 21.6731 15.75 21.6731C17.2315 21.6731 18.6243 20.967 19.5 19.772C20.3779 20.9642 21.7694 21.6692 23.25 21.672" stroke="black" stroke-width="1.5" stroke-linecap="round" stroke-linejoin="round"/>
</svg>
