<svg width="24" height="24" viewBox="0 0 24 24" fill="none" xmlns="http://www.w3.org/2000/svg">
<path d="M14.625 13.5C14.8321 13.5 15 13.6679 15 13.875" stroke="black" stroke-width="1.5" stroke-linecap="round" stroke-linejoin="round"/>
<path d="M14.25 13.875C14.25 13.6679 14.4179 13.5 14.625 13.5" stroke="black" stroke-width="1.5" stroke-linecap="round" stroke-linejoin="round"/>
<path d="M14.625 14.25C14.4179 14.25 14.25 14.0821 14.25 13.875" stroke="black" stroke-width="1.5" stroke-linecap="round" stroke-linejoin="round"/>
<path d="M15 13.875C15 14.0821 14.8321 14.25 14.625 14.25" stroke="black" stroke-width="1.5" stroke-linecap="round" stroke-linejoin="round"/>
<path d="M9.375 13.5C9.58211 13.5 9.75 13.6679 9.75 13.875" stroke="black" stroke-width="1.5" stroke-linecap="round" stroke-linejoin="round"/>
<path d="M9 13.875C9 13.6679 9.1679 13.5 9.375 13.5" stroke="black" stroke-width="1.5" stroke-linecap="round" stroke-linejoin="round"/>
<path d="M9.375 14.25C9.1679 14.25 9 14.0821 9 13.875" stroke="black" stroke-width="1.5" stroke-linecap="round" stroke-linejoin="round"/>
<path d="M9.75 13.875C9.75 14.0821 9.58211 14.25 9.375 14.25" stroke="black" stroke-width="1.5" stroke-linecap="round" stroke-linejoin="round"/>
<path fill-rule="evenodd" clip-rule="evenodd" d="M12 22.5C15.7279 22.5 18.75 19.4779 18.75 15.75C18.75 12.0221 15.7279 9 12 9C8.27208 9 5.25 12.0221 5.25 15.75C5.25 19.4779 8.27208 22.5 12 22.5Z" stroke="black" stroke-width="1.5" stroke-linecap="round" stroke-linejoin="round"/>
<path d="M19.855 5.50497C23.0451 9.88623 22.1148 16.0188 17.769 19.257" stroke="black" stroke-width="1.5" stroke-linecap="round" stroke-linejoin="round"/>
<path fill-rule="evenodd" clip-rule="evenodd" d="M6.75 6.75C8.82107 6.75 10.5 5.74264 10.5 4.5C10.5 3.25736 8.82107 2.25 6.75 2.25C4.67893 2.25 3 3.25736 3 4.5C3 5.74264 4.67893 6.75 6.75 6.75Z" stroke="black" stroke-width="1.5" stroke-linecap="round" stroke-linejoin="round"/>
<path fill-rule="evenodd" clip-rule="evenodd" d="M16.5 6.75C18.5711 6.75 20.25 5.74264 20.25 4.5C20.25 3.25736 18.5711 2.25 16.5 2.25C14.4289 2.25 12.75 3.25736 12.75 4.5C12.75 5.74264 14.4289 6.75 16.5 6.75Z" stroke="black" stroke-width="1.5" stroke-linecap="round" stroke-linejoin="round"/>
<path d="M12.75 4.5H10.5" stroke="black" stroke-width="1.5" stroke-linecap="round" stroke-linejoin="round"/>
<path d="M6.231 19.256C2.04821 16.1402 1.0048 10.3113 3.847 5.93799" stroke="black" stroke-width="1.5" stroke-linecap="round" stroke-linejoin="round"/>
<path d="M7.97601 2.37299C10.4641 1.24005 13.3144 1.20847 15.827 2.28599" stroke="black" stroke-width="1.5" stroke-linecap="round" stroke-linejoin="round"/>
<path d="M12 16.5V18" stroke="black" stroke-width="1.5" stroke-linecap="round" stroke-linejoin="round"/>
</svg>
