<svg width="24" height="24" viewBox="0 0 24 24" fill="none" xmlns="http://www.w3.org/2000/svg">
<path fill-rule="evenodd" clip-rule="evenodd" d="M5.24905 6C6.6988 6 7.87405 4.82475 7.87405 3.375C7.87405 1.92525 6.6988 0.75 5.24905 0.75C3.79931 0.75 2.62405 1.92525 2.62405 3.375C2.62405 4.82475 3.79931 6 5.24905 6Z" stroke="black" stroke-width="1.5" stroke-linecap="round" stroke-linejoin="round"/>
<path fill-rule="evenodd" clip-rule="evenodd" d="M10.5001 18.75C9.93145 18.7505 9.41142 18.4295 9.15706 17.921L8.07306 15.75H5.25006C4.42163 15.75 3.75006 15.0784 3.75006 14.25V9.75C3.75006 8.92157 4.42163 8.25 5.25006 8.25C6.07849 8.25 6.75006 8.92157 6.75006 9.75V12.75H9.00006C9.56831 12.7498 10.0879 13.0708 10.3421 13.579L11.8421 16.579C12.0747 17.0441 12.0498 17.5964 11.7764 18.0387C11.503 18.481 11.02 18.7502 10.5001 18.75Z" stroke="black" stroke-width="1.5" stroke-linecap="round" stroke-linejoin="round"/>
<path d="M7.50006 15.75H0.750061V10.5" stroke="black" stroke-width="1.5" stroke-linecap="round" stroke-linejoin="round"/>
<path d="M6.00006 15.75L6.75006 23.25" stroke="black" stroke-width="1.5" stroke-linecap="round" stroke-linejoin="round"/>
<path d="M1.50006 15.75L0.750061 23.25" stroke="black" stroke-width="1.5" stroke-linecap="round" stroke-linejoin="round"/>
<path d="M1.05006 20.25H6.45006" stroke="black" stroke-width="1.5" stroke-linecap="round" stroke-linejoin="round"/>
<path d="M11.2501 23.25C12.4347 23.2474 13.5479 22.6831 14.2501 21.729C14.9505 22.6851 16.0648 23.2501 17.2501 23.2501C18.4353 23.2501 19.5496 22.6851 20.2501 21.729C20.9523 22.6831 22.0654 23.2474 23.2501 23.25" stroke="black" stroke-width="1.5" stroke-linecap="round" stroke-linejoin="round"/>
<path d="M17.2501 19.5C18.4347 19.4974 19.5479 18.9331 20.2501 17.979C20.9523 18.9331 22.0654 19.4974 23.2501 19.5" stroke="black" stroke-width="1.5" stroke-linecap="round" stroke-linejoin="round"/>
</svg>
