<svg width="24" height="24" viewBox="0 0 24 24" fill="none" xmlns="http://www.w3.org/2000/svg">
<path fill-rule="evenodd" clip-rule="evenodd" d="M15 6C16.2426 6 17.25 4.99264 17.25 3.75C17.25 2.50736 16.2426 1.5 15 1.5C13.7574 1.5 12.75 2.50736 12.75 3.75C12.75 4.99264 13.7574 6 15 6Z" stroke="black" stroke-width="1.5" stroke-linecap="round" stroke-linejoin="round"/>
<path fill-rule="evenodd" clip-rule="evenodd" d="M4.5 22.5C6.57107 22.5 8.25 20.8211 8.25 18.75C8.25 16.6789 6.57107 15 4.5 15C2.42893 15 0.75 16.6789 0.75 18.75C0.75 20.8211 2.42893 22.5 4.5 22.5Z" stroke="black" stroke-width="1.5" stroke-linecap="round" stroke-linejoin="round"/>
<path fill-rule="evenodd" clip-rule="evenodd" d="M19.5 22.5C21.5711 22.5 23.25 20.8211 23.25 18.75C23.25 16.6789 21.5711 15 19.5 15C17.4289 15 15.75 16.6789 15.75 18.75C15.75 20.8211 17.4289 22.5 19.5 22.5Z" stroke="black" stroke-width="1.5" stroke-linecap="round" stroke-linejoin="round"/>
<path fill-rule="evenodd" clip-rule="evenodd" d="M12 20.25C11.1716 20.25 10.5 19.5784 10.5 18.75C10.5044 16.5081 9.25543 14.4517 7.264 13.422C6.83459 13.198 6.53972 12.7805 6.47226 12.301C6.4048 11.8214 6.57304 11.3387 6.924 11.005L10.967 7.163C11.3116 6.83543 11.791 6.6906 12.2593 6.77263C12.7276 6.85465 13.1293 7.15382 13.342 7.579C13.349 7.592 14.487 9.75 16.5 9.75C17.3284 9.75 18 10.4216 18 11.25C18 12.0784 17.3284 12.75 16.5 12.75C14.6825 12.7181 12.9668 11.9053 11.791 10.519L10.339 11.9C12.3483 13.6077 13.5044 16.113 13.5 18.75C13.5 19.5784 12.8284 20.25 12 20.25Z" stroke="black" stroke-width="1.5" stroke-linecap="round" stroke-linejoin="round"/>
</svg>
