<svg width="24" height="24" viewBox="0 0 24 24" fill="none" xmlns="http://www.w3.org/2000/svg">
<path fill-rule="evenodd" clip-rule="evenodd" d="M4.63206 22.863C6.49602 22.863 8.00706 21.352 8.00706 19.488C8.00706 17.624 6.49602 16.113 4.63206 16.113C2.7681 16.113 1.25706 17.624 1.25706 19.488C1.25706 21.352 2.7681 22.863 4.63206 22.863Z" stroke="black" stroke-width="1.5" stroke-linecap="round" stroke-linejoin="round"/>
<path fill-rule="evenodd" clip-rule="evenodd" d="M19.4171 19.117C21.281 19.117 22.7921 17.606 22.7921 15.742C22.7921 13.878 21.281 12.367 19.4171 12.367C17.5531 12.367 16.0421 13.878 16.0421 15.742C16.0421 17.606 17.5531 19.117 19.4171 19.117Z" stroke="black" stroke-width="1.5" stroke-linecap="round" stroke-linejoin="round"/>
<path d="M0.750057 14.377C1.6556 13.727 2.70783 13.311 3.81306 13.166" stroke="black" stroke-width="1.5" stroke-linecap="round" stroke-linejoin="round"/>
<path d="M21.5001 9.67C20.2581 9.28112 18.9302 9.25924 17.6761 9.607L17.4261 8.087" stroke="black" stroke-width="1.5" stroke-linecap="round" stroke-linejoin="round"/>
<path d="M9.35806 15.2L9.60006 13.957L7.27906 12.37C6.62157 11.9215 6.16924 11.2301 6.02164 10.448C5.87404 9.66596 6.04326 8.85728 6.49206 8.2L7.44106 6.811C7.76008 6.34036 8.31899 6.09213 8.88206 6.171L13.5821 6.811C14.3806 6.94589 14.9278 7.69024 14.8185 8.49265C14.7091 9.29505 13.9825 9.86576 13.1771 9.782L9.40006 9.269L8.97406 9.892L12.1151 12.037C12.6105 12.3749 12.8571 12.9754 12.7421 13.564L11.9631 17.527C11.8612 18.0462 11.4934 18.4733 10.9951 18.651" stroke="black" stroke-width="1.5" stroke-linecap="round" stroke-linejoin="round"/>
<path d="M23.2501 19.114H18.2001C17.146 19.1139 16.1692 19.667 15.6271 20.571L14.2501 22.864H23.2501" stroke="black" stroke-width="1.5" stroke-linecap="round" stroke-linejoin="round"/>
<path fill-rule="evenodd" clip-rule="evenodd" d="M10.3651 5.5C11.6077 5.5 12.6151 4.49264 12.6151 3.25C12.6151 2.00736 11.6077 1 10.3651 1C9.12241 1 8.11506 2.00736 8.11506 3.25C8.11506 4.49264 9.12241 5.5 10.3651 5.5Z" stroke="black" stroke-width="1.5" stroke-linecap="round" stroke-linejoin="round"/>
</svg>
