<svg width="24" height="24" viewBox="0 0 24 24" fill="none" xmlns="http://www.w3.org/2000/svg">
<path fill-rule="evenodd" clip-rule="evenodd" d="M4.5 23.25C6.57107 23.25 8.25 21.5711 8.25 19.5C8.25 17.4289 6.57107 15.75 4.5 15.75C2.42893 15.75 0.75 17.4289 0.75 19.5C0.75 21.5711 2.42893 23.25 4.5 23.25Z" stroke="black" stroke-width="1.5" stroke-linecap="round" stroke-linejoin="round"/>
<path fill-rule="evenodd" clip-rule="evenodd" d="M19.5 23.25C21.5711 23.25 23.25 21.5711 23.25 19.5C23.25 17.4289 21.5711 15.75 19.5 15.75C17.4289 15.75 15.75 17.4289 15.75 19.5C15.75 21.5711 17.4289 23.25 19.5 23.25Z" stroke="black" stroke-width="1.5" stroke-linecap="round" stroke-linejoin="round"/>
<path d="M19.5 19.5L16.142 10.769C16.0534 10.5384 16.084 10.279 16.2239 10.0753C16.3638 9.87171 16.595 9.75003 16.842 9.75H20.25" stroke="black" stroke-width="1.5" stroke-linecap="round" stroke-linejoin="round"/>
<path d="M9.75 9.75H5.25" stroke="black" stroke-width="1.5" stroke-linecap="round" stroke-linejoin="round"/>
<path d="M10.536 16.646L7.169 9.75" stroke="black" stroke-width="1.5" stroke-linecap="round" stroke-linejoin="round"/>
<path d="M5.454 12.61C3.03024 12.0734 1.18719 10.0997 0.817687 7.64491C0.448186 5.19012 1.62855 2.76127 3.78696 1.535C5.94537 0.308717 8.63607 0.538261 10.5556 2.11243C12.4751 3.68659 13.227 6.28028 12.447 8.637" stroke="black" stroke-width="1.5" stroke-linecap="round" stroke-linejoin="round"/>
<path d="M9.75 6.75H6.75V3.75" stroke="black" stroke-width="1.5" stroke-linecap="round" stroke-linejoin="round"/>
<path d="M4.5 19.5L17.192 13.5" stroke="black" stroke-width="1.5" stroke-linecap="round" stroke-linejoin="round"/>
</svg>
