<svg width="24" height="24" viewBox="0 0 24 24" fill="none" xmlns="http://www.w3.org/2000/svg">
<path fill-rule="evenodd" clip-rule="evenodd" d="M13.5 6C14.9497 6 16.125 4.82475 16.125 3.375C16.125 1.92525 14.9497 0.75 13.5 0.75C12.0503 0.75 10.875 1.92525 10.875 3.375C10.875 4.82475 12.0503 6 13.5 6Z" stroke="black" stroke-width="1.5" stroke-linecap="round" stroke-linejoin="round"/>
<path d="M10.902 3H17.25" stroke="black" stroke-width="1.5" stroke-linecap="round" stroke-linejoin="round"/>
<path d="M1.48 13.461C3.13365 12.6368 5.05224 12.5241 6.791 13.149" stroke="black" stroke-width="1.5" stroke-linecap="round" stroke-linejoin="round"/>
<path d="M22.52 13.461C21.5822 12.9928 20.5482 12.7494 19.5 12.75" stroke="black" stroke-width="1.5" stroke-linecap="round" stroke-linejoin="round"/>
<path fill-rule="evenodd" clip-rule="evenodd" d="M12 21C11.1716 21 10.5 20.3284 10.5 19.5V18.3C10.4968 17.2473 9.94493 16.2725 9.044 15.728L7.478 14.789C6.77878 14.369 6.54334 13.4672 6.948 12.759L9.948 7.509C10.2521 6.97761 10.8487 6.6844 11.4552 6.76821C12.0617 6.85203 12.5564 7.29605 12.705 7.89C12.79 8.181 13.36 9.753 15.75 9.753C16.5784 9.753 17.25 10.4246 17.25 11.253C17.25 12.0814 16.5784 12.753 15.75 12.753C14.123 12.8061 12.5397 12.2211 11.338 11.123L10.281 12.973L10.587 13.156C12.3903 14.2437 13.4947 16.1941 13.5 18.3V19.5C13.5 20.3284 12.8284 21 12 21Z" stroke="black" stroke-width="1.5" stroke-linecap="round" stroke-linejoin="round"/>
<path fill-rule="evenodd" clip-rule="evenodd" d="M4.125 23.25C5.98896 23.25 7.5 21.739 7.5 19.875C7.5 18.011 5.98896 16.5 4.125 16.5C2.26104 16.5 0.75 18.011 0.75 19.875C0.75 21.739 2.26104 23.25 4.125 23.25Z" stroke="black" stroke-width="1.5" stroke-linecap="round" stroke-linejoin="round"/>
<path fill-rule="evenodd" clip-rule="evenodd" d="M19.875 23.25C21.739 23.25 23.25 21.739 23.25 19.875C23.25 18.011 21.739 16.5 19.875 16.5C18.011 16.5 16.5 18.011 16.5 19.875C16.5 21.739 18.011 23.25 19.875 23.25Z" stroke="black" stroke-width="1.5" stroke-linecap="round" stroke-linejoin="round"/>
</svg>
