<svg width="24" height="24" viewBox="0 0 24 24" fill="none" xmlns="http://www.w3.org/2000/svg">
<path d="M10.737 18.3803L13.207 21.2023C14.3464 22.5046 15.9926 23.2515 17.723 23.2513H20.25C21.9069 23.2513 23.25 21.9082 23.25 20.2513V18.7513C23.25 17.9229 22.5784 17.2513 21.75 17.2513H11.25" stroke="black" stroke-width="1.5" stroke-linecap="round" stroke-linejoin="round"/>
<path fill-rule="evenodd" clip-rule="evenodd" d="M9.75 18.7513C10.5784 18.7513 11.25 18.0798 11.25 17.2513C11.25 16.4229 10.5784 15.7513 9.75 15.7513C8.92157 15.7513 8.25 16.4229 8.25 17.2513C8.25 18.0798 8.92157 18.7513 9.75 18.7513Z" stroke="black" stroke-width="1.5" stroke-linecap="round" stroke-linejoin="round"/>
<path d="M9.75 15.7513V14.2513C9.75 10.9376 12.4363 8.25134 15.75 8.25134H22.631" stroke="black" stroke-width="1.5" stroke-linecap="round" stroke-linejoin="round"/>
<path d="M11.187 23.2224C5.58733 22.8048 1.15288 18.3223 0.795551 12.7185C0.438224 7.11466 4.26744 2.10529 9.76871 0.979834C15.27 -0.145623 20.7589 2.95744 22.631 8.25137C22.8749 8.93982 22.7693 9.70382 22.3478 10.3003C21.9263 10.8968 21.2414 11.2514 20.511 11.2514H15.75C14.0931 11.2514 12.75 12.5945 12.75 14.2514" stroke="black" stroke-width="1.5" stroke-linecap="round" stroke-linejoin="round"/>
<path d="M15.75 17.2513V20.2513C15.7512 21.0976 15.3936 21.9047 14.766 22.4723" stroke="black" stroke-width="1.5" stroke-linecap="round" stroke-linejoin="round"/>
<path d="M20.25 17.2513V20.2513C20.2504 21.8308 19.026 23.14 17.45 23.2453" stroke="black" stroke-width="1.5" stroke-linecap="round" stroke-linejoin="round"/>
</svg>
