<svg width="24" height="24" viewBox="0 0 24 24" fill="none" xmlns="http://www.w3.org/2000/svg">
<path d="M8.25006 12V12.75C8.25006 13.5784 8.92163 14.25 9.75006 14.25H21.7501C22.5785 14.25 23.2501 13.5784 23.2501 12.75V2.25" stroke="black" stroke-width="1.5" stroke-linecap="round" stroke-linejoin="round"/>
<path d="M8.25006 2.25V5.25" stroke="black" stroke-width="1.5" stroke-linecap="round" stroke-linejoin="round"/>
<path d="M15.7501 14.25V21.75" stroke="black" stroke-width="1.5" stroke-linecap="round" stroke-linejoin="round"/>
<path d="M11.2501 21.75H20.2501" stroke="black" stroke-width="1.5" stroke-linecap="round" stroke-linejoin="round"/>
<path d="M7.04606 9.75201C4.43906 11.683 1.50006 15 0.750061 21.75" stroke="black" stroke-width="1.5" stroke-linecap="round" stroke-linejoin="round" stroke-dasharray="2"/>
<path fill-rule="evenodd" clip-rule="evenodd" d="M13.1044 8.86656C14.7086 8.45233 15.8412 7.46629 15.6341 6.66417C15.427 5.86205 13.9586 5.5476 12.3544 5.96183C10.7501 6.37606 9.61754 7.3621 9.82466 8.16422C10.0318 8.96634 11.5002 9.28079 13.1044 8.86656Z" stroke="black" stroke-width="1.5" stroke-linecap="round" stroke-linejoin="round"/>
</svg>
