<svg width="24" height="24" viewBox="0 0 24 24" fill="none" xmlns="http://www.w3.org/2000/svg">
<path fill-rule="evenodd" clip-rule="evenodd" d="M7.624 6C9.07375 6 10.249 4.82475 10.249 3.375C10.249 1.92525 9.07375 0.75 7.624 0.75C6.17425 0.75 4.999 1.92525 4.999 3.375C4.999 4.82475 6.17425 6 7.624 6Z" stroke="black" stroke-width="1.5" stroke-linecap="round" stroke-linejoin="round"/>
<path d="M7.613 10.772C8.2589 11.2221 8.44692 12.095 8.04362 12.7711C7.64032 13.4472 6.78294 13.6965 6.08 13.342L3.08 11.842V11.842C2.53515 11.5693 2.20938 10.9942 2.25567 10.3867C2.30196 9.77916 2.71113 9.26 3.291 9.07302L12.112 6.23702C13.6574 5.58489 15.438 5.85538 16.72 6.93702L17.87 7.89602C18.3073 8.23122 18.5256 8.77916 18.4386 9.32321C18.3516 9.86726 17.9734 10.3199 17.4535 10.5021C16.9335 10.6843 16.3555 10.5668 15.948 10.196L14.8 9.24002C14.3655 8.8735 13.7601 8.78658 13.24 9.01602C13.194 9.03702 13.146 9.05402 13.099 9.07002L11.389 9.62002L13.689 13.978L16.115 15.669L20.015 15.021C20.5508 14.9161 21.1014 15.1106 21.4523 15.5288C21.8033 15.9471 21.8993 16.523 21.703 17.0325C21.5066 17.542 21.0489 17.9045 20.508 17.979L16.008 18.729C15.9267 18.743 15.8444 18.75 15.762 18.75C15.4548 18.7501 15.1549 18.6559 14.903 18.48L11.939 16.414C11.8993 16.4498 11.8576 16.4831 11.814 16.514L8.5 18.223L8.01 21.945C7.90993 22.6888 7.27552 23.2442 6.525 23.245C6.45811 23.2453 6.39129 23.2409 6.325 23.232C5.50383 23.1242 4.92546 22.3712 5.033 21.55L5.52 17.828C5.58489 17.358 5.75961 16.9099 6.03 16.52" stroke="black" stroke-width="1.5" stroke-linecap="round" stroke-linejoin="round"/>
<path d="M7.613 10.772C7.97768 9.68928 8.74258 8.787 9.751 8.25C11.0353 8.90878 11.8864 10.1861 12 11.625C11.8864 13.0639 11.0353 14.3412 9.751 15C8.92909 14.555 8.25853 13.875 7.825 13.047" stroke="black" stroke-width="1.5" stroke-linecap="round" stroke-linejoin="round"/>
</svg>
