<svg width="24" height="24" viewBox="0 0 24 24" fill="none" xmlns="http://www.w3.org/2000/svg">
<path fill-rule="evenodd" clip-rule="evenodd" d="M8.249 6C9.69875 6 10.874 4.82475 10.874 3.375C10.874 1.92525 9.69875 0.75 8.249 0.75C6.79925 0.75 5.624 1.92525 5.624 3.375C5.624 4.82475 6.79925 6 8.249 6Z" stroke="black" stroke-width="1.5" stroke-linecap="round" stroke-linejoin="round"/>
<path d="M18.257 8.40801C18.2082 8.60608 18.0821 8.77639 17.907 8.88101C17.2181 9.31593 17.0024 10.2212 17.4209 10.9201C17.8395 11.619 18.7394 11.856 19.448 11.454C21.1547 10.3987 21.7356 8.19141 20.7696 6.43263C19.8036 4.67384 17.6292 3.97993 15.823 4.85401L6.628 9.45401C6.32805 9.60144 5.98822 9.64708 5.66 9.58401L2.919 9.02901C2.52843 8.94651 2.12109 9.02484 1.78897 9.24632C1.45685 9.46779 1.22797 9.81373 1.154 10.206C0.991529 11.0181 1.51797 11.8082 2.33 11.971L5.069 12.519C5.35846 12.5765 5.65289 12.6053 5.948 12.605C6.64845 12.6049 7.3394 12.443 7.967 12.132L9.809 11.21L11.242 13.931L8.1 15.557C7.22481 16.0064 6.62656 16.8574 6.5 17.833L6.011 21.555C5.90346 22.3762 6.48183 23.1292 7.303 23.237C7.36929 23.246 7.43611 23.2503 7.503 23.25C8.25352 23.2492 8.88793 22.6938 8.988 21.95L9.478 18.228L12.778 16.52C12.8272 16.4851 12.8742 16.4474 12.919 16.407L16.476 18.541C16.9158 18.8052 17.4601 18.8263 17.919 18.597L22.419 16.347C23.1602 15.9767 23.4608 15.0757 23.0905 14.3345C22.7202 13.5933 21.8192 13.2927 21.078 13.663L17.314 15.546L16.514 15.065" stroke="black" stroke-width="1.5" stroke-linecap="round" stroke-linejoin="round"/>
<path d="M17.731 11.331C14.785 14.255 11.71 11.364 11.71 11.364C11.71 11.364 12.021 8.58598 14.367 7.72298C15.6996 7.30351 17.1529 7.55503 18.267 8.39798" stroke="black" stroke-width="1.5" stroke-linecap="round" stroke-linejoin="round"/>
</svg>
