<svg width="24" height="24" viewBox="0 0 24 24" fill="none" xmlns="http://www.w3.org/2000/svg">
<path d="M1.52701 12.4629L10.962 3.01992C11.2444 2.73947 11.6267 2.58274 12.0247 2.58424C12.4227 2.58574 12.8037 2.74535 13.084 3.02792L22.527 12.4629" stroke="black" stroke-width="1.5" stroke-linecap="round" stroke-linejoin="round"/>
<path d="M19.527 9.46594V21.4629H4.52701V9.46094" stroke="black" stroke-width="1.5" stroke-linecap="round" stroke-linejoin="round"/>
<path d="M15.027 21.4629V16.9629C15.027 15.306 13.6839 13.9629 12.027 13.9629C10.3702 13.9629 9.02701 15.306 9.02701 16.9629V21.4629" stroke="black" stroke-width="1.5" stroke-linecap="round" stroke-linejoin="round"/>
<path fill-rule="evenodd" clip-rule="evenodd" d="M12.027 10.9629C13.0625 10.9629 13.902 10.1234 13.902 9.08789C13.902 8.05236 13.0625 7.21289 12.027 7.21289C10.9915 7.21289 10.152 8.05236 10.152 9.08789C10.152 10.1234 10.9915 10.9629 12.027 10.9629Z" stroke="black" stroke-width="1.5" stroke-linecap="round" stroke-linejoin="round"/>
</svg>
