<svg width="24" height="24" viewBox="0 0 24 24" fill="none" xmlns="http://www.w3.org/2000/svg">
<path d="M0.75 18.75C4.5 18.75 3 19.5 12.75 19.5C15.75 19.5 18.75 18.75 19.5 15.75" stroke="black" stroke-width="1.5" stroke-linecap="round" stroke-linejoin="round"/>
<path d="M0.75 11.143H3.132C3.42153 11.1432 3.69579 11.0132 3.879 10.789L7.929 6.79999L11.758 7.56599C12.304 7.67499 12.663 8.11099 12.425 9.06599C12.3302 9.44691 12.0137 9.73216 11.625 9.78699L9.75 10.06C9.522 10.0828 9.31313 10.1975 9.17161 10.3778C9.03008 10.558 8.96811 10.7881 9 11.015V13.572C8.93725 13.8634 8.7831 14.1272 8.56 14.325L6.482 15.964" stroke="black" stroke-width="1.5" stroke-linecap="round" stroke-linejoin="round"/>
<path d="M12 15.75H21.75C22.5784 15.75 23.25 15.0784 23.25 14.25V6C23.25 5.17157 22.5784 4.5 21.75 4.5H10.5C9.67157 4.5 9 5.17157 9 6V7.018" stroke="black" stroke-width="1.5" stroke-linecap="round" stroke-linejoin="round"/>
<path d="M12.492 8.25H23.25" stroke="black" stroke-width="1.5" stroke-linecap="round" stroke-linejoin="round"/>
<path d="M20.25 11.25H18.75" stroke="black" stroke-width="1.5" stroke-linecap="round" stroke-linejoin="round"/>
</svg>
