<svg width="24" height="24" viewBox="0 0 24 24" fill="none" xmlns="http://www.w3.org/2000/svg">
<path fill-rule="evenodd" clip-rule="evenodd" d="M0.75 5.25C0.75 4.42157 1.42157 3.75 2.25 3.75H21.75C22.5784 3.75 23.25 4.42157 23.25 5.25V18.75C23.25 19.5784 22.5784 20.25 21.75 20.25H2.25C1.42157 20.25 0.75 19.5784 0.75 18.75V5.25Z" stroke="black" stroke-width="1.5" stroke-linecap="round" stroke-linejoin="round"/>
<path fill-rule="evenodd" clip-rule="evenodd" d="M9 15.75C11.0711 15.75 12.75 14.0711 12.75 12C12.75 9.92893 11.0711 8.25 9 8.25C6.92893 8.25 5.25 9.92893 5.25 12C5.25 14.0711 6.92893 15.75 9 15.75Z" stroke="black" stroke-width="1.5" stroke-linecap="round" stroke-linejoin="round"/>
<path d="M12 14.229C12.9623 15.5309 14.6514 16.0683 16.1891 15.5617C17.7267 15.0551 18.7656 13.6189 18.7656 12C18.7656 10.3811 17.7267 8.94491 16.1891 8.43832C14.6514 7.93174 12.9623 8.46911 12 9.771" stroke="black" stroke-width="1.5" stroke-linecap="round" stroke-linejoin="round"/>
</svg>
