<svg width="24" height="24" viewBox="0 0 24 24" fill="none" xmlns="http://www.w3.org/2000/svg">
<path fill-rule="evenodd" clip-rule="evenodd" d="M0.75 5.25C0.75 4.42157 1.42157 3.75 2.25 3.75H21.75C22.5784 3.75 23.25 4.42157 23.25 5.25V18.75C23.25 19.5784 22.5784 20.25 21.75 20.25H2.25C1.42157 20.25 0.75 19.5784 0.75 18.75V5.25Z" stroke="black" stroke-width="1.5" stroke-linecap="round" stroke-linejoin="round"/>
<path d="M12 15V9L10.5 12L9 9V15" stroke="black" stroke-width="1.5" stroke-linecap="round" stroke-linejoin="round"/>
<path d="M18 9L20.25 15" stroke="black" stroke-width="1.5" stroke-linecap="round" stroke-linejoin="round"/>
<path d="M20.25 9L18 15" stroke="black" stroke-width="1.5" stroke-linecap="round" stroke-linejoin="round"/>
<path d="M15.75 15H15.45C14.7873 15 14.25 14.4627 14.25 13.8V10.2C14.25 9.53726 14.7873 9 15.45 9H15.75" stroke="black" stroke-width="1.5" stroke-linecap="round" stroke-linejoin="round"/>
<path d="M14.25 12.75H15.75" stroke="black" stroke-width="1.5" stroke-linecap="round" stroke-linejoin="round"/>
<path d="M3.75 12.75H6.75" stroke="black" stroke-width="1.5" stroke-linecap="round" stroke-linejoin="round"/>
<path d="M6.75 15V10.5C6.75 9.67157 6.07843 9 5.25 9C4.42157 9 3.75 9.67157 3.75 10.5V15" stroke="black" stroke-width="1.5" stroke-linecap="round" stroke-linejoin="round"/>
</svg>
