<svg width="24" height="24" viewBox="0 0 24 24" fill="none" xmlns="http://www.w3.org/2000/svg">
<path fill-rule="evenodd" clip-rule="evenodd" d="M0.75 5.25C0.75 4.42157 1.42157 3.75 2.25 3.75H21.75C22.5784 3.75 23.25 4.42157 23.25 5.25V18.75C23.25 19.5784 22.5784 20.25 21.75 20.25H2.25C1.42157 20.25 0.75 19.5784 0.75 18.75V5.25Z" stroke="black" stroke-width="1.5" stroke-linecap="round" stroke-linejoin="round"/>
<path d="M9.75 15V9" stroke="black" stroke-width="1.5" stroke-linecap="round" stroke-linejoin="round"/>
<path d="M3.75 9V11.037C3.85801 12.4749 4.37886 13.851 5.25 15C6.12114 13.851 6.64199 12.4749 6.75 11.037V9" stroke="black" stroke-width="1.5" stroke-linecap="round" stroke-linejoin="round"/>
<path d="M14.4 9H13.2C12.5373 9 12 9.53726 12 10.2C12 12 14.4 12 14.4 13.8C14.4 14.4627 13.8627 15 13.2 15H12" stroke="black" stroke-width="1.5" stroke-linecap="round" stroke-linejoin="round"/>
<path d="M17.25 12.75H20.25" stroke="black" stroke-width="1.5" stroke-linecap="round" stroke-linejoin="round"/>
<path d="M20.25 15V10.5C20.25 9.67157 19.5784 9 18.75 9C17.9216 9 17.25 9.67157 17.25 10.5V15" stroke="black" stroke-width="1.5" stroke-linecap="round" stroke-linejoin="round"/>
</svg>
