<svg width="24" height="24" viewBox="0 0 24 24" fill="none" xmlns="http://www.w3.org/2000/svg">
<path d="M20.25 8.25V2.25C20.25 1.42157 19.5784 0.75 18.75 0.75H2.25C1.42157 0.75 0.75 1.42157 0.75 2.25V14.25C0.75 15.0784 1.42157 15.75 2.25 15.75H11.25" stroke="black" stroke-width="1.5" stroke-linecap="round" stroke-linejoin="round"/>
<path d="M0.75 5.25H20.25" stroke="black" stroke-width="1.5" stroke-linecap="round" stroke-linejoin="round"/>
<path d="M3.75 8.99701H9.75" stroke="black" stroke-width="1.5" stroke-linecap="round" stroke-linejoin="round"/>
<path d="M3.75 11.997H6.75" stroke="black" stroke-width="1.5" stroke-linecap="round" stroke-linejoin="round"/>
<path fill-rule="evenodd" clip-rule="evenodd" d="M14.25 17.25C14.25 16.4216 14.9216 15.75 15.75 15.75H21.75C22.5784 15.75 23.25 16.4216 23.25 17.25V21.75C23.25 22.5784 22.5784 23.25 21.75 23.25H15.75C14.9216 23.25 14.25 22.5784 14.25 21.75V17.25Z" stroke="black" stroke-width="1.5" stroke-linecap="round" stroke-linejoin="round"/>
<path fill-rule="evenodd" clip-rule="evenodd" d="M18.75 11.25V11.25C17.0931 11.25 15.75 12.5931 15.75 14.25V15.75H21.75V14.25C21.75 12.5931 20.4069 11.25 18.75 11.25Z" stroke="black" stroke-width="1.5" stroke-linecap="round" stroke-linejoin="round"/>
<path d="M18.75 19.154C18.9571 19.154 19.125 19.3219 19.125 19.529C19.125 19.7361 18.9571 19.904 18.75 19.904C18.5429 19.904 18.375 19.7361 18.375 19.529C18.375 19.3219 18.5429 19.154 18.75 19.154" stroke="black" stroke-width="1.5" stroke-linecap="round" stroke-linejoin="round"/>
</svg>
