<svg width="24" height="24" viewBox="0 0 24 24" fill="none" xmlns="http://www.w3.org/2000/svg">
<path fill-rule="evenodd" clip-rule="evenodd" d="M3.75 2.25C3.75 1.42157 4.42157 0.75 5.25 0.75H18.75C19.5784 0.75 20.25 1.42157 20.25 2.25V9.75C20.25 10.5784 19.5784 11.25 18.75 11.25H5.25C4.42157 11.25 3.75 10.5784 3.75 9.75V2.25Z" stroke="black" stroke-width="1.5" stroke-linecap="round" stroke-linejoin="round"/>
<path d="M7.50001 18.75H2.25201C1.73202 18.7502 1.24905 18.481 0.975647 18.0387C0.70224 17.5964 0.677402 17.0441 0.910007 16.579L2.74601 12.908C3.25424 11.8919 4.29287 11.25 5.42901 11.25H18.571" stroke="black" stroke-width="1.5" stroke-linecap="round" stroke-linejoin="round"/>
<path fill-rule="evenodd" clip-rule="evenodd" d="M11.25 15.75C11.25 14.9216 11.9216 14.25 12.75 14.25H21.75C22.5784 14.25 23.25 14.9216 23.25 15.75V21.75C23.25 22.5784 22.5784 23.25 21.75 23.25H12.75C11.9216 23.25 11.25 22.5784 11.25 21.75V15.75Z" stroke="black" stroke-width="1.5" stroke-linecap="round" stroke-linejoin="round"/>
<path d="M11.25 17.25H23.25" stroke="black" stroke-width="1.5" stroke-linecap="round" stroke-linejoin="round"/>
<path d="M20.25 20.25H18.75" stroke="black" stroke-width="1.5" stroke-linecap="round" stroke-linejoin="round"/>
</svg>
