<svg width="25" height="24" viewBox="0 0 25 24" fill="none" xmlns="http://www.w3.org/2000/svg">
<path d="M1.5117 4.66321C1.03906 4.73393 0.707413 5.16639 0.761705 5.64121V21.2932C0.653084 22.243 1.31627 23.1083 2.2617 23.2502H12.7617C13.7071 23.1083 14.3703 22.243 14.2617 21.2932V15.7502" stroke="black" stroke-width="1.5" stroke-linecap="round" stroke-linejoin="round"/>
<path d="M0.761705 11.2502H11.2617" stroke="black" stroke-width="1.5" stroke-linecap="round" stroke-linejoin="round"/>
<path d="M3.76171 17.2502H4.51171" stroke="black" stroke-width="1.5" stroke-linecap="round" stroke-linejoin="round"/>
<path d="M3.76171 20.2502H4.51171" stroke="black" stroke-width="1.5" stroke-linecap="round" stroke-linejoin="round"/>
<path d="M6.7617 17.2502H7.5117" stroke="black" stroke-width="1.5" stroke-linecap="round" stroke-linejoin="round"/>
<path d="M3.76171 14.2502H7.51171" stroke="black" stroke-width="1.5" stroke-linecap="round" stroke-linejoin="round"/>
<path d="M10.8867 14.2502H11.6367" stroke="black" stroke-width="1.5" stroke-linecap="round" stroke-linejoin="round"/>
<path d="M6.7617 20.2502H7.5117" stroke="black" stroke-width="1.5" stroke-linecap="round" stroke-linejoin="round"/>
<path d="M11.2617 17.2502V20.2032" stroke="black" stroke-width="1.5" stroke-linecap="round" stroke-linejoin="round"/>
<path d="M3.7617 7.5002V1.4532C3.76109 1.28269 3.84741 1.12362 3.9907 1.0312C4.13179 0.940309 4.31074 0.931915 4.4597 1.0092L5.6907 1.6422L6.8697 0.833204C7.03042 0.722265 7.24299 0.722265 7.4037 0.833204L8.58271 1.6422L9.8117 1.0092C9.96067 0.931915 10.1396 0.940309 10.2807 1.0312C10.424 1.12362 10.5103 1.28269 10.5097 1.4532V7.5002" stroke="black" stroke-width="1.5" stroke-linecap="round" stroke-linejoin="round"/>
<path d="M6.0117 4.50018H8.2597" stroke="black" stroke-width="1.5" stroke-linecap="round" stroke-linejoin="round"/>
<path d="M17.2617 18.7502L19.5117 21.0002L21.7617 18.7502" stroke="black" stroke-width="1.5" stroke-linecap="round" stroke-linejoin="round"/>
<path d="M19.5117 21.0002V15.7502" stroke="black" stroke-width="1.5" stroke-linecap="round" stroke-linejoin="round"/>
<path fill-rule="evenodd" clip-rule="evenodd" d="M14.2617 2.25018C14.2617 1.42176 14.9333 0.750183 15.7617 0.750183H21.7617C22.5901 0.750183 23.2617 1.42176 23.2617 2.25018V11.2502C23.2617 12.0786 22.5901 12.7502 21.7617 12.7502H15.7617C14.9333 12.7502 14.2617 12.0786 14.2617 11.2502V2.25018Z" stroke="black" stroke-width="1.5" stroke-linecap="round" stroke-linejoin="round"/>
<path d="M17.2617 12.7502V0.750183" stroke="black" stroke-width="1.5" stroke-linecap="round" stroke-linejoin="round"/>
<path d="M20.2617 3.75018V5.25018" stroke="black" stroke-width="1.5" stroke-linecap="round" stroke-linejoin="round"/>
<path d="M0.761705 7.50018H11.2617" stroke="black" stroke-width="1.5" stroke-linecap="round" stroke-linejoin="round"/>
</svg>
