<svg width="24" height="24" viewBox="0 0 24 24" fill="none" xmlns="http://www.w3.org/2000/svg">
<path d="M20.25 7.5V2.25C20.25 1.42157 19.5784 0.75 18.75 0.75H2.25C1.42157 0.75 0.75 1.42157 0.75 2.25V14.25C0.75 15.0784 1.42157 15.75 2.25 15.75H9.75" stroke="black" stroke-width="1.5" stroke-linecap="round" stroke-linejoin="round"/>
<path d="M0.75 5.25H20.25" stroke="black" stroke-width="1.5" stroke-linecap="round" stroke-linejoin="round"/>
<path d="M3.75 9H9.75" stroke="black" stroke-width="1.5" stroke-linecap="round" stroke-linejoin="round"/>
<path d="M3.75 12H6.75" stroke="black" stroke-width="1.5" stroke-linecap="round" stroke-linejoin="round"/>
<path fill-rule="evenodd" clip-rule="evenodd" d="M19.8 18.579L18.579 19.8C17.4689 20.9101 16.2406 21.8953 14.916 22.738H14.909C13.6332 23.55 11.9646 23.3671 10.895 22.298L10.443 21.846C10.0233 21.4259 10.0233 20.7451 10.443 20.325L12.343 18.425C12.7631 18.0052 13.4439 18.0052 13.864 18.425V18.425C14.2845 18.8448 14.9655 18.8448 15.386 18.425L18.428 15.383C18.6301 15.1813 18.7437 14.9075 18.7437 14.622C18.7437 14.3365 18.6301 14.0627 18.428 13.861V13.861C18.0083 13.4409 18.0083 12.7601 18.428 12.34L20.328 10.44C20.7481 10.0202 21.4289 10.0202 21.849 10.44L22.301 10.892C23.3705 11.9614 23.5534 13.6303 22.741 14.906V14.914C21.8973 16.2393 20.9111 17.4682 19.8 18.579V18.579Z" stroke="black" stroke-width="1.5" stroke-linecap="round" stroke-linejoin="round"/>
</svg>
