<svg width="24" height="24" viewBox="0 0 24 24" fill="none" xmlns="http://www.w3.org/2000/svg">
<path d="M20.25 8.25V2.25C20.25 1.42157 19.5784 0.75 18.75 0.75H2.25C1.42157 0.75 0.75 1.42157 0.75 2.25V14.25C0.75 15.0784 1.42157 15.75 2.25 15.75H11.25" stroke="black" stroke-width="1.5" stroke-linecap="round" stroke-linejoin="round"/>
<path d="M0.75 5.25H20.25" stroke="black" stroke-width="1.5" stroke-linecap="round" stroke-linejoin="round"/>
<path d="M3.75 9H9.75" stroke="black" stroke-width="1.5" stroke-linecap="round" stroke-linejoin="round"/>
<path d="M3.75 12H6.75" stroke="black" stroke-width="1.5" stroke-linecap="round" stroke-linejoin="round"/>
<path d="M14.25 13.369V23.25" stroke="black" stroke-width="1.5" stroke-linecap="round" stroke-linejoin="round"/>
<path fill-rule="evenodd" clip-rule="evenodd" d="M14.25 18.869L15.54 18.439C16.619 18.0791 17.8038 18.2378 18.75 18.869C19.6962 19.5002 20.881 19.6589 21.96 19.299L23.25 18.869V11.869L21.96 12.299C20.881 12.6589 19.6962 12.5002 18.75 11.869C17.8038 11.2378 16.619 11.0791 15.54 11.439L14.25 11.869L14.25 18.869Z" stroke="black" stroke-width="1.5" stroke-linecap="round" stroke-linejoin="round"/>
</svg>
