<svg width="24" height="24" viewBox="0 0 24 24" fill="none" xmlns="http://www.w3.org/2000/svg">
<path d="M20.25 7.5V2.25C20.25 1.42157 19.5784 0.75 18.75 0.75H2.25C1.42157 0.75 0.75 1.42157 0.75 2.25V14.25C0.75 15.0784 1.42157 15.75 2.25 15.75H8.25" stroke="black" stroke-width="1.5" stroke-linecap="round" stroke-linejoin="round"/>
<path d="M0.75 5.25H20.25" stroke="black" stroke-width="1.5" stroke-linecap="round" stroke-linejoin="round"/>
<path d="M3.75 9H9.75" stroke="black" stroke-width="1.5" stroke-linecap="round" stroke-linejoin="round"/>
<path d="M3.75 12H6.75" stroke="black" stroke-width="1.5" stroke-linecap="round" stroke-linejoin="round"/>
<path fill-rule="evenodd" clip-rule="evenodd" d="M23.25 15.75C23.2569 19.3479 20.7617 22.467 17.25 23.25C13.7383 22.467 11.2431 19.3479 11.25 15.75V12.209C11.2497 11.6063 11.6101 11.062 12.165 10.827C15.4029 9.39101 19.0971 9.39101 22.335 10.827C22.8899 11.062 23.2503 11.6063 23.25 12.209V15.75Z" stroke="black" stroke-width="1.5" stroke-linecap="round" stroke-linejoin="round"/>
<path d="M17.25 12.75V18.75" stroke="black" stroke-width="1.5" stroke-linecap="round" stroke-linejoin="round"/>
<path d="M14.25 15.75H20.25" stroke="black" stroke-width="1.5" stroke-linecap="round" stroke-linejoin="round"/>
</svg>
