<svg width="24" height="25" viewBox="0 0 24 25" fill="none" xmlns="http://www.w3.org/2000/svg">
<path fill-rule="evenodd" clip-rule="evenodd" d="M12.75 6C14.1997 6 15.375 4.82475 15.375 3.375C15.375 1.92525 14.1997 0.75 12.75 0.75C11.3003 0.75 10.125 1.92525 10.125 3.375C10.125 4.82475 11.3003 6 12.75 6Z" stroke="black" stroke-width="1.5" stroke-linecap="round" stroke-linejoin="round"/>
<path d="M7.277 8.90201C6.71782 8.6719 6.07516 8.80004 5.647 9.22701L4.061 10.811C3.4753 11.397 2.52547 11.3972 1.9395 10.8115C1.35353 10.2258 1.3533 9.27598 1.939 8.69001L3.526 7.10201C4.80905 5.81549 6.74132 5.42975 8.42 6.12501L19.32 10.613" stroke="black" stroke-width="1.5" stroke-linecap="round" stroke-linejoin="round"/>
<path d="M13.566 14.97L16.366 21.129C16.6023 21.6189 16.5549 22.1984 16.242 22.6433C15.9292 23.0883 15.4 23.3291 14.859 23.2725C14.3181 23.216 13.8501 22.871 13.636 22.371L11.25 17.126L8.865 22.371C8.65093 22.871 8.18294 23.216 7.64196 23.2725C7.10098 23.3291 6.57178 23.0883 6.25896 22.6433C5.94613 22.1984 5.8987 21.6189 6.135 21.129L8.935 14.97" stroke="black" stroke-width="1.5" stroke-linecap="round" stroke-linejoin="round"/>
<path d="M3 11.25L22.5 13.5" stroke="black" stroke-width="1.5" stroke-linecap="round" stroke-linejoin="round"/>
</svg>
