<svg width="24" height="24" viewBox="0 0 24 24" fill="none" xmlns="http://www.w3.org/2000/svg">
<path d="M14.25 17.5H2.25C1.42157 17.5 0.75 16.8284 0.75 16V4C0.75 3.17157 1.42157 2.5 2.25 2.5H21.75C22.5784 2.5 23.25 3.17157 23.25 4V16C23.25 16.8284 22.5784 17.5 21.75 17.5" stroke="black" stroke-width="1.5" stroke-linecap="round" stroke-linejoin="round"/>
<path d="M5.25 11.875C5.25 11.6679 5.41789 11.5 5.625 11.5" stroke="black" stroke-width="1.5" stroke-linecap="round" stroke-linejoin="round"/>
<path d="M5.625 12.25C5.41789 12.25 5.25 12.0821 5.25 11.875" stroke="black" stroke-width="1.5" stroke-linecap="round" stroke-linejoin="round"/>
<path d="M6 11.875C6 12.0821 5.83211 12.25 5.625 12.25" stroke="black" stroke-width="1.5" stroke-linecap="round" stroke-linejoin="round"/>
<path d="M5.625 11.5C5.83211 11.5 6 11.6679 6 11.875" stroke="black" stroke-width="1.5" stroke-linecap="round" stroke-linejoin="round"/>
<path d="M5.25 7.375C5.25 7.16789 5.41789 7 5.625 7" stroke="black" stroke-width="1.5" stroke-linecap="round" stroke-linejoin="round"/>
<path d="M5.625 7.75C5.41789 7.75 5.25 7.58211 5.25 7.375" stroke="black" stroke-width="1.5" stroke-linecap="round" stroke-linejoin="round"/>
<path d="M6 7.375C6 7.58211 5.83211 7.75 5.625 7.75" stroke="black" stroke-width="1.5" stroke-linecap="round" stroke-linejoin="round"/>
<path d="M5.625 7C5.83211 7 6 7.16789 6 7.375" stroke="black" stroke-width="1.5" stroke-linecap="round" stroke-linejoin="round"/>
<path d="M17.625 7.75C17.8321 7.75 18 7.91789 18 8.125" stroke="black" stroke-width="1.5" stroke-linecap="round" stroke-linejoin="round"/>
<path d="M17.25 8.125C17.25 7.91789 17.4179 7.75 17.625 7.75" stroke="black" stroke-width="1.5" stroke-linecap="round" stroke-linejoin="round"/>
<path d="M17.625 8.5C17.4179 8.5 17.25 8.33211 17.25 8.125" stroke="black" stroke-width="1.5" stroke-linecap="round" stroke-linejoin="round"/>
<path d="M18 8.125C18 8.33211 17.8321 8.5 17.625 8.5" stroke="black" stroke-width="1.5" stroke-linecap="round" stroke-linejoin="round"/>
<path d="M8.25 9.625C8.25 9.41789 8.41789 9.25 8.625 9.25" stroke="black" stroke-width="1.5" stroke-linecap="round" stroke-linejoin="round"/>
<path d="M8.625 10C8.41789 10 8.25 9.83211 8.25 9.625" stroke="black" stroke-width="1.5" stroke-linecap="round" stroke-linejoin="round"/>
<path d="M9 9.625C9 9.83211 8.83211 10 8.625 10" stroke="black" stroke-width="1.5" stroke-linecap="round" stroke-linejoin="round"/>
<path d="M8.625 9.25C8.83211 9.25 9 9.41789 9 9.625" stroke="black" stroke-width="1.5" stroke-linecap="round" stroke-linejoin="round"/>
<path d="M12 11.5L22.5 22" stroke="black" stroke-width="1.5" stroke-linecap="round" stroke-linejoin="round"/>
</svg>
