<svg width="24" height="24" viewBox="0 0 24 24" fill="none" xmlns="http://www.w3.org/2000/svg">
<path fill-rule="evenodd" clip-rule="evenodd" d="M12.001 8.25C12.8294 8.25 13.501 7.57843 13.501 6.75C13.501 5.92157 12.8294 5.25 12.001 5.25C11.1726 5.25 10.501 5.92157 10.501 6.75C10.501 7.57843 11.1726 8.25 12.001 8.25Z" stroke="black" stroke-width="1.5" stroke-linecap="round" stroke-linejoin="round"/>
<path fill-rule="evenodd" clip-rule="evenodd" d="M12.001 20.25C12.8294 20.25 13.501 19.5784 13.501 18.75C13.501 17.9216 12.8294 17.25 12.001 17.25C11.1726 17.25 10.501 17.9216 10.501 18.75C10.501 19.5784 11.1726 20.25 12.001 20.25Z" stroke="black" stroke-width="1.5" stroke-linecap="round" stroke-linejoin="round"/>
<path fill-rule="evenodd" clip-rule="evenodd" d="M6.001 20.25C6.82943 20.25 7.501 19.5784 7.501 18.75C7.501 17.9216 6.82943 17.25 6.001 17.25C5.17257 17.25 4.501 17.9216 4.501 18.75C4.501 19.5784 5.17257 20.25 6.001 20.25Z" stroke="black" stroke-width="1.5" stroke-linecap="round" stroke-linejoin="round"/>
<path fill-rule="evenodd" clip-rule="evenodd" d="M18.001 20.25C18.8294 20.25 19.501 19.5784 19.501 18.75C19.501 17.9216 18.8294 17.25 18.001 17.25C17.1726 17.25 16.501 17.9216 16.501 18.75C16.501 19.5784 17.1726 20.25 18.001 20.25Z" stroke="black" stroke-width="1.5" stroke-linecap="round" stroke-linejoin="round"/>
<path fill-rule="evenodd" clip-rule="evenodd" d="M9.001 14.25C9.82943 14.25 10.501 13.5784 10.501 12.75C10.501 11.9216 9.82943 11.25 9.001 11.25C8.17257 11.25 7.501 11.9216 7.501 12.75C7.501 13.5784 8.17257 14.25 9.001 14.25Z" stroke="black" stroke-width="1.5" stroke-linecap="round" stroke-linejoin="round"/>
<path fill-rule="evenodd" clip-rule="evenodd" d="M15.001 14.25C15.8294 14.25 16.501 13.5784 16.501 12.75C16.501 11.9216 15.8294 11.25 15.001 11.25C14.1726 11.25 13.501 11.9216 13.501 12.75C13.501 13.5784 14.1726 14.25 15.001 14.25Z" stroke="black" stroke-width="1.5" stroke-linecap="round" stroke-linejoin="round"/>
<path fill-rule="evenodd" clip-rule="evenodd" d="M20.251 23.25C21.2908 23.25 22.2564 22.7115 22.803 21.827C23.3496 20.9424 23.3991 19.8379 22.934 18.908L14.671 2.384C14.1579 1.38156 13.1266 0.7509 12.0005 0.7509C10.8744 0.7509 9.8431 1.38156 9.33 2.384L1.067 18.908C0.60179 19.8381 0.651466 20.9428 1.19828 21.8274C1.7451 22.712 2.71104 23.2503 3.751 23.25H20.251Z" stroke="black" stroke-width="1.5" stroke-linecap="round" stroke-linejoin="round"/>
</svg>
