<svg width="24" height="24" viewBox="0 0 24 24" fill="none" xmlns="http://www.w3.org/2000/svg">
<path fill-rule="evenodd" clip-rule="evenodd" d="M10.625 9.75012C12.0747 9.75012 13.25 8.57487 13.25 7.12512C13.25 5.67537 12.0747 4.50012 10.625 4.50012C9.17525 4.50012 8 5.67537 8 7.12512C8 8.57487 9.17525 9.75012 10.625 9.75012Z" stroke="black" stroke-width="1.5" stroke-linecap="round" stroke-linejoin="round"/>
<path fill-rule="evenodd" clip-rule="evenodd" d="M23 6.00012C23 7.24276 21.9926 8.25012 20.75 8.25012C19.5074 8.25012 18.5 7.24276 18.5 6.00012C18.5085 5.59974 18.3533 5.21323 18.0701 4.93005C17.7869 4.64687 17.4004 4.49158 17 4.50012C15.7891 4.42654 14.8236 3.46097 14.75 2.25012H19.25C21.3211 2.25012 23 3.92905 23 6.00012Z" stroke="black" stroke-width="1.5" stroke-linecap="round" stroke-linejoin="round"/>
<path d="M13.25 0.750122C13.25 0.750122 14 2.25012 14.75 2.25012" stroke="black" stroke-width="1.5" stroke-linecap="round" stroke-linejoin="round"/>
<path d="M20.121 13.0402L19.859 15.6612" stroke="black" stroke-width="1.5" stroke-linecap="round" stroke-linejoin="round"/>
<path d="M16.981 23.2501C16.9874 23.0904 16.9678 22.9306 16.923 22.7772L16.648 21.9481C16.1969 20.6053 15.1429 19.5512 13.8 19.1002L11.874 18.4581L12.342 14.2471H16.25C16.4115 14.2472 16.572 14.2209 16.725 14.1691L21.225 12.6691C21.9845 12.3882 22.3839 11.5551 22.1273 10.7871C21.8708 10.019 21.0509 9.59322 20.275 9.82515L16.007 11.2501H6.7C5.12042 11.2549 3.65752 12.0826 2.84 13.4341L1.464 15.7281C1.1818 16.1879 1.16818 16.7637 1.42834 17.2363C1.68849 17.7088 2.18235 18.0053 2.72173 18.0127C3.26112 18.0201 3.76294 17.7374 4.036 17.2721L5.412 14.9791C5.68451 14.5278 6.1728 14.2515 6.7 14.2501H9.324L8.824 18.7341L6.9 20.3441C6.30458 20.8407 5.42889 20.8017 4.88 20.2541L4.567 19.9411C4.19093 19.5507 3.63346 19.3936 3.10885 19.5301C2.58423 19.6666 2.1741 20.0756 2.03609 20.5998C1.89807 21.1241 2.05363 21.682 2.443 22.0591L2.757 22.3741C3.12194 22.7356 3.54607 23.0319 4.011 23.2501" stroke="black" stroke-width="1.5" stroke-linecap="round" stroke-linejoin="round"/>
<path d="M7.847 23.2501C8.19364 23.0916 8.51888 22.89 8.815 22.6501L10.569 21.1891L12.852 21.9491C13.2992 22.0997 13.6505 22.4502 13.802 22.8971L13.919 23.2511" stroke="black" stroke-width="1.5" stroke-linecap="round" stroke-linejoin="round"/>
</svg>
