<svg width="24" height="25" viewBox="0 0 24 25" fill="none" xmlns="http://www.w3.org/2000/svg">
<path fill-rule="evenodd" clip-rule="evenodd" d="M14.784 21.875C14.784 22.7034 14.1124 23.375 13.284 23.375C12.4556 23.375 11.784 22.7034 11.784 21.875V15.875C11.784 15.0466 12.4556 14.375 13.284 14.375C14.1124 14.375 14.784 15.0466 14.784 15.875V21.875Z" stroke="black" stroke-width="1.5" stroke-linecap="round" stroke-linejoin="round"/>
<path fill-rule="evenodd" clip-rule="evenodd" d="M7.061 19.089C6.94918 19.6131 6.56624 20.0377 6.05643 20.2029C5.54663 20.3681 4.98741 20.2488 4.58943 19.8899C4.19145 19.531 4.01518 18.9871 4.127 18.463L5.067 14.063C5.16736 13.5274 5.55021 13.0884 6.06712 12.9162C6.58402 12.7439 7.15368 12.8655 7.55522 13.2338C7.95676 13.6021 8.12702 14.1591 8 14.689L7.061 19.089Z" stroke="black" stroke-width="1.5" stroke-linecap="round" stroke-linejoin="round"/>
<path d="M7.427 17.375H11.784" stroke="black" stroke-width="1.5" stroke-linecap="round" stroke-linejoin="round"/>
<path fill-rule="evenodd" clip-rule="evenodd" d="M19.512 19.089C19.6124 19.6245 19.9952 20.0635 20.5121 20.2358C21.029 20.408 21.5987 20.2864 22.0002 19.9182C22.4018 19.5499 22.572 18.9928 22.445 18.463L21.506 14.063C21.394 13.5389 21.0109 13.1143 20.501 12.9493C19.9911 12.7842 19.4319 12.9037 19.034 13.2628C18.6361 13.6218 18.46 14.1659 18.572 14.69L19.512 19.089Z" stroke="black" stroke-width="1.5" stroke-linecap="round" stroke-linejoin="round"/>
<path d="M19.145 17.375H14.788" stroke="black" stroke-width="1.5" stroke-linecap="round" stroke-linejoin="round"/>
<path fill-rule="evenodd" clip-rule="evenodd" d="M13.286 6.125C14.7357 6.125 15.911 4.94975 15.911 3.5C15.911 2.05025 14.7357 0.875 13.286 0.875C11.8363 0.875 10.661 2.05025 10.661 3.5C10.661 4.94975 11.8363 6.125 13.286 6.125Z" stroke="black" stroke-width="1.5" stroke-linecap="round" stroke-linejoin="round"/>
<path d="M16.285 12.875V10.315C17.7516 10.7079 19.1224 11.3967 20.313 12.339C20.7283 12.6992 21.3074 12.8033 21.8222 12.6104C22.3369 12.4175 22.7049 11.9584 22.7812 11.414C22.8575 10.8696 22.6299 10.327 22.188 10C19.6602 7.98189 16.5226 6.8809 13.288 6.87703C11.4397 6.87807 9.61957 6.42441 7.988 5.55603C7.26292 5.20288 6.38838 5.48628 6.00825 6.19758C5.62812 6.90888 5.87848 7.79345 6.575 8.20003C7.74357 8.81539 8.99227 9.26472 10.285 9.53503V12.876" stroke="black" stroke-width="1.5" stroke-linecap="round" stroke-linejoin="round"/>
<path fill-rule="evenodd" clip-rule="evenodd" d="M4.70717 4.754C5.51953 4.11181 5.55337 2.80096 4.78274 1.82613C4.01212 0.851296 2.72886 0.581633 1.9165 1.22382C1.10414 1.866 1.07031 3.17685 1.84093 4.15169C2.61155 5.12652 3.89481 5.39618 4.70717 4.754Z" stroke="black" stroke-width="1.5" stroke-linecap="round" stroke-linejoin="round"/>
<path d="M4.707 4.75403L5.909 6.27403" stroke="black" stroke-width="1.5" stroke-linecap="round" stroke-linejoin="round"/>
<path d="M7.284 1.25C7.49111 1.25 7.659 1.41789 7.659 1.625" stroke="black" stroke-width="1.5" stroke-linecap="round" stroke-linejoin="round"/>
<path d="M6.909 1.625C6.909 1.41789 7.07689 1.25 7.284 1.25" stroke="black" stroke-width="1.5" stroke-linecap="round" stroke-linejoin="round"/>
<path d="M7.284 2C7.07689 2 6.909 1.83211 6.909 1.625" stroke="black" stroke-width="1.5" stroke-linecap="round" stroke-linejoin="round"/>
<path d="M7.659 1.625C7.659 1.83211 7.49111 2 7.284 2" stroke="black" stroke-width="1.5" stroke-linecap="round" stroke-linejoin="round"/>
</svg>
