<svg width="24" height="24" viewBox="0 0 24 24" fill="none" xmlns="http://www.w3.org/2000/svg">
<path fill-rule="evenodd" clip-rule="evenodd" d="M19.5 8.5C20.9497 8.5 22.125 7.32475 22.125 5.875C22.125 4.42525 20.9497 3.25 19.5 3.25C18.0503 3.25 16.875 4.42525 16.875 5.875C16.875 7.32475 18.0503 8.5 19.5 8.5Z" stroke="black" stroke-width="1.5" stroke-linecap="round" stroke-linejoin="round"/>
<path d="M7.379 11.307L11.21 8.912L9.9 7.41C9.54111 7.00746 9.42594 6.44325 9.59834 5.93226C9.77074 5.42127 10.2042 5.04215 10.7336 4.93931C11.263 4.83646 11.8068 5.02572 12.158 5.435L16.673 10.6" stroke="black" stroke-width="1.5" stroke-linecap="round" stroke-linejoin="round"/>
<path d="M0.75 19.75C2.23066 19.7475 3.62227 19.0424 4.5 17.85C5.37567 19.045 6.76848 19.7511 8.25 19.7511C9.73152 19.7511 11.1243 19.045 12 17.85C12.8757 19.045 14.2685 19.7511 15.75 19.7511C17.2315 19.7511 18.6243 19.045 19.5 17.85C20.3777 19.0424 21.7693 19.7475 23.25 19.75" stroke="black" stroke-width="1.5" stroke-linecap="round" stroke-linejoin="round"/>
<path d="M0.75 15.25C2.23066 15.2475 3.62227 14.5424 4.5 13.35C5.37567 14.545 6.76848 15.2511 8.25 15.2511C9.73152 15.2511 11.1243 14.545 12 13.35C12.8757 14.545 14.2685 15.2511 15.75 15.2511C17.2315 15.2511 18.6243 14.545 19.5 13.35C20.3777 14.5424 21.7693 15.2475 23.25 15.25" stroke="black" stroke-width="1.5" stroke-linecap="round" stroke-linejoin="round"/>
</svg>
