<svg width="24" height="24" viewBox="0 0 24 24" fill="none" xmlns="http://www.w3.org/2000/svg">
<path fill-rule="evenodd" clip-rule="evenodd" d="M13.412 21.75C13.412 22.5784 12.7404 23.25 11.912 23.25C11.0836 23.25 10.412 22.5784 10.412 21.75V16.5C10.412 15.6716 11.0836 15 11.912 15C12.7404 15 13.412 15.6716 13.412 16.5V21.75Z" stroke="black" stroke-width="1.5" stroke-linecap="round" stroke-linejoin="round"/>
<path fill-rule="evenodd" clip-rule="evenodd" d="M5.68898 19.714C5.51611 20.5242 4.71918 21.0409 3.90898 20.868C3.09878 20.6951 2.58211 19.8982 2.75498 19.088L3.69498 14.688C3.80698 14.1639 4.19008 13.7393 4.69998 13.5743C5.20987 13.4092 5.76909 13.5287 6.16698 13.8878C6.56487 14.2468 6.74098 14.7909 6.62898 15.315L5.68898 19.714Z" stroke="black" stroke-width="1.5" stroke-linecap="round" stroke-linejoin="round"/>
<path d="M6.05499 18H10.412" stroke="black" stroke-width="1.5" stroke-linecap="round" stroke-linejoin="round"/>
<path fill-rule="evenodd" clip-rule="evenodd" d="M18.139 19.714C18.3119 20.5242 19.1088 21.0409 19.919 20.868C20.7292 20.6951 21.2459 19.8982 21.073 19.088L20.134 14.688C20.022 14.1639 19.6389 13.7393 19.129 13.5743C18.6191 13.4092 18.0599 13.5287 17.662 13.8878C17.2641 14.2468 17.088 14.7909 17.2 15.315L18.139 19.714Z" stroke="black" stroke-width="1.5" stroke-linecap="round" stroke-linejoin="round"/>
<path d="M17.773 18H13.416" stroke="black" stroke-width="1.5" stroke-linecap="round" stroke-linejoin="round"/>
<path fill-rule="evenodd" clip-rule="evenodd" d="M11.914 6C13.3637 6 14.539 4.82475 14.539 3.375C14.539 1.92525 13.3637 0.75 11.914 0.75C10.4642 0.75 9.28897 1.92525 9.28897 3.375C9.28897 4.82475 10.4642 6 11.914 6Z" stroke="black" stroke-width="1.5" stroke-linecap="round" stroke-linejoin="round"/>
<path d="M6.88099 6.64596C6.1054 6.25814 5.37724 5.78198 4.71099 5.22696C4.07299 4.73787 3.16285 4.83869 2.64737 5.45556C2.13189 6.07242 2.19435 6.98599 2.78899 7.52696C4.5597 8.99887 6.66117 10.0191 8.91299 10.5V13.5" stroke="black" stroke-width="1.5" stroke-linecap="round" stroke-linejoin="round"/>
<path d="M14.913 13.5V10.5C17.0686 10.0383 19.088 9.08371 20.813 7.711C21.4199 7.18316 21.5025 6.27056 21.0001 5.64237C20.4978 5.01418 19.5894 4.89402 18.941 5.37C18.3208 5.86587 17.6505 6.29554 16.941 6.652" stroke="black" stroke-width="1.5" stroke-linecap="round" stroke-linejoin="round"/>
<path fill-rule="evenodd" clip-rule="evenodd" d="M11.912 12.75C12.7404 12.75 13.412 12.0784 13.412 11.25C13.412 10.4216 12.7404 9.75 11.912 9.75C11.0836 9.75 10.412 10.4216 10.412 11.25C10.412 12.0784 11.0836 12.75 11.912 12.75Z" stroke="black" stroke-width="1.5" stroke-linecap="round" stroke-linejoin="round"/>
<path d="M9.66199 7.5L11.912 9.75L14.162 7.5" stroke="black" stroke-width="1.5" stroke-linecap="round" stroke-linejoin="round"/>
</svg>
