<svg width="24" height="24" viewBox="0 0 24 24" fill="none" xmlns="http://www.w3.org/2000/svg">
<path fill-rule="evenodd" clip-rule="evenodd" d="M12.058 6C13.5077 6 14.683 4.82475 14.683 3.375C14.683 1.92525 13.5077 0.75 12.058 0.75C10.6083 0.75 9.433 1.92525 9.433 3.375C9.433 4.82475 10.6083 6 12.058 6Z" stroke="black" stroke-width="1.5" stroke-linecap="round" stroke-linejoin="round"/>
<path fill-rule="evenodd" clip-rule="evenodd" d="M12.058 23.25C13.3006 23.25 14.308 22.2426 14.308 21C14.308 19.7574 13.3006 18.75 12.058 18.75C10.8154 18.75 9.808 19.7574 9.808 21C9.808 22.2426 10.8154 23.25 12.058 23.25Z" stroke="black" stroke-width="1.5" stroke-linecap="round" stroke-linejoin="round"/>
<path fill-rule="evenodd" clip-rule="evenodd" d="M15.656 17.618C15.9518 18.3862 16.8115 18.7725 17.5823 18.4836C18.3532 18.1946 18.7471 17.3384 18.465 16.565V16.565C17.9906 15.2918 16.964 14.3027 15.674 13.876L13.429 13.127L13.008 9.74999H15.058C16.4261 9.75308 17.7206 9.13105 18.573 8.06099L20.673 5.43799C21.0079 5.01928 21.094 4.45368 20.8989 3.95426C20.7037 3.45484 20.257 3.09747 19.7269 3.01676C19.1968 2.93606 18.6639 3.14428 18.329 3.56299L16.229 6.18599C15.9451 6.54322 15.5133 6.75098 15.057 6.74999H8.308C6.80386 6.74778 5.39844 7.49854 4.564 8.74999L3.955 9.66399C3.4955 10.3543 3.68264 11.2865 4.373 11.746C5.06335 12.2055 5.9955 12.0183 6.455 11.328L7.064 10.414C7.3423 9.9994 7.80866 9.75047 8.308 9.74999H9.984L10.438 13.383L8.1 14.555C7.71591 14.7475 7.2677 14.7661 6.869 14.606L4.369 13.606C3.87133 13.4072 3.30539 13.489 2.88438 13.8205C2.46336 14.1521 2.25122 14.6831 2.32788 15.2135C2.40453 15.744 2.75833 16.1932 3.256 16.392L5.756 17.392C6.95021 17.8703 8.2919 17.8153 9.443 17.241L12.182 15.87L14.735 16.722C15.1655 16.8649 15.5075 17.1962 15.664 17.622L15.656 17.618Z" stroke="black" stroke-width="1.5" stroke-linecap="round" stroke-linejoin="round"/>
<path d="M15.656 17.618L17.4 22.277C17.6191 22.8608 18.1765 23.2482 18.8 23.25C18.9802 23.2497 19.159 23.2176 19.328 23.155C19.7006 23.0152 20.0023 22.7331 20.1667 22.3707C20.3312 22.0084 20.345 21.5955 20.205 21.223" stroke="black" stroke-width="1.5" stroke-linecap="round" stroke-linejoin="round"/>
</svg>
