<svg width="24" height="24" viewBox="0 0 24 24" fill="none" xmlns="http://www.w3.org/2000/svg">
<path fill-rule="evenodd" clip-rule="evenodd" d="M12.375 6C13.8247 6 15 4.82475 15 3.375C15 1.92525 13.8247 0.75 12.375 0.75C10.9253 0.75 9.75 1.92525 9.75 3.375C9.75 4.82475 10.9253 6 12.375 6Z" stroke="black" stroke-width="1.5" stroke-linecap="round" stroke-linejoin="round"/>
<path d="M11.959 20.23C10.6047 22.5937 7.82787 23.7484 5.19685 23.0419C2.56583 22.3353 0.74101 19.9449 0.753019 17.2207C0.765029 14.4965 2.61085 12.1223 5.248 11.439" stroke="black" stroke-width="1.5" stroke-linecap="round" stroke-linejoin="round"/>
<path d="M14.3 10.2239L11.637 10.9849L10.415 14.2499H13.6C14.9361 14.2481 16.2035 14.842 17.057 15.8699L19.9 19.2889C20.3891 19.9269 20.2883 20.8371 19.6714 21.3526C19.0545 21.868 18.141 21.8056 17.6 21.2109L14.75 17.7909C14.4667 17.448 14.0449 17.2496 13.6 17.2499H8.25C7.75786 17.2502 7.29693 17.0089 7.01657 16.6045C6.73621 16.2 6.67209 15.6837 6.845 15.2229L9.095 9.22295C9.26199 8.7774 9.63045 8.43751 10.088 8.30695L13.544 7.31995" stroke="black" stroke-width="1.5" stroke-linecap="round" stroke-linejoin="round"/>
<path fill-rule="evenodd" clip-rule="evenodd" d="M16.155 5.38506C16.9347 5.18946 17.7596 5.4247 18.3188 6.00216C18.8781 6.57963 19.0868 7.41159 18.8663 8.18466C18.6459 8.95773 18.0297 9.55446 17.25 9.75006L16.155 5.38506Z" stroke="black" stroke-width="1.5" stroke-linecap="round" stroke-linejoin="round"/>
<path d="M18.885 7.02003L23.25 5.92603" stroke="black" stroke-width="1.5" stroke-linecap="round" stroke-linejoin="round"/>
</svg>
