<svg width="24" height="24" viewBox="0 0 24 24" fill="none" xmlns="http://www.w3.org/2000/svg">
<path d="M20.249 3.75395C14.795 2.74836 9.20304 2.74836 3.749 3.75395" stroke="black" stroke-width="1.5" stroke-linecap="round" stroke-linejoin="round"/>
<path fill-rule="evenodd" clip-rule="evenodd" d="M23.25 5.25C23.25 6.07843 22.5784 6.75 21.75 6.75C20.9216 6.75 20.25 6.07843 20.25 5.25V2.25C20.25 1.42157 20.9216 0.75 21.75 0.75C22.5784 0.75 23.25 1.42157 23.25 2.25V5.25Z" stroke="black" stroke-width="1.5" stroke-linecap="round" stroke-linejoin="round"/>
<path fill-rule="evenodd" clip-rule="evenodd" d="M3.75 5.25C3.75 6.07843 3.07843 6.75 2.25 6.75C1.42157 6.75 0.75 6.07843 0.75 5.25V2.25C0.75 1.42157 1.42157 0.75 2.25 0.75C3.07843 0.75 3.75 1.42157 3.75 2.25V5.25Z" stroke="black" stroke-width="1.5" stroke-linecap="round" stroke-linejoin="round"/>
<path d="M17.689 6.43996C17.3775 6.75211 17.2191 7.18552 17.256 7.62496C17.256 7.66096 17.499 11.269 15.556 13.384C15.2272 13.7303 14.8459 14.0225 14.426 14.25H9.575C9.16102 14.0255 8.78396 13.7389 8.457 13.4C6.5 11.278 6.74 7.68896 6.746 7.61996C6.78115 7.18156 6.62212 6.74982 6.311 6.43896" stroke="black" stroke-width="1.5" stroke-linecap="round" stroke-linejoin="round"/>
<path d="M3.837 9.73901C4.03411 11.8331 4.87219 13.8155 6.237 15.416C7.00424 16.2491 7.94835 16.8997 9 17.32V21.75C9 22.5784 9.67157 23.25 10.5 23.25C11.3284 23.25 12 22.5784 12 21.75C12 22.5784 12.6716 23.25 13.5 23.25C14.3284 23.25 15 22.5784 15 21.75V17.32C16.0502 16.9004 16.9932 16.2513 17.76 15.42C19.1248 13.8195 19.9629 11.8371 20.16 9.74301" stroke="black" stroke-width="1.5" stroke-linecap="round" stroke-linejoin="round"/>
<path fill-rule="evenodd" clip-rule="evenodd" d="M12 12C13.4497 12 14.625 10.8247 14.625 9.375C14.625 7.92525 13.4497 6.75 12 6.75C10.5503 6.75 9.375 7.92525 9.375 9.375C9.375 10.8247 10.5503 12 12 12Z" stroke="black" stroke-width="1.5" stroke-linecap="round" stroke-linejoin="round"/>
<path d="M9 18.75H15" stroke="black" stroke-width="1.5" stroke-linecap="round" stroke-linejoin="round"/>
</svg>
