<svg width="24" height="24" viewBox="0 0 24 24" fill="none" xmlns="http://www.w3.org/2000/svg">
<path fill-rule="evenodd" clip-rule="evenodd" d="M9 21.75C9 22.5784 9.67157 23.25 10.5 23.25C11.3284 23.25 12 22.5784 12 21.75V15.75C12 14.9216 11.3284 14.25 10.5 14.25C9.67157 14.25 9 14.9216 9 15.75V21.75Z" stroke="black" stroke-width="1.5" stroke-linecap="round" stroke-linejoin="round"/>
<path fill-rule="evenodd" clip-rule="evenodd" d="M16.727 18.964C16.8999 19.7742 17.6968 20.2909 18.507 20.118C19.3172 19.9451 19.8339 19.1482 19.661 18.338L18.721 13.938C18.6191 13.4039 18.2361 12.9667 17.7199 12.7955C17.2038 12.6242 16.6354 12.7457 16.2344 13.113C15.8334 13.4803 15.6626 14.0359 15.788 14.565L16.727 18.964Z" stroke="black" stroke-width="1.5" stroke-linecap="round" stroke-linejoin="round"/>
<path d="M16.361 17.25H12.004" stroke="black" stroke-width="1.5" stroke-linecap="round" stroke-linejoin="round"/>
<path fill-rule="evenodd" clip-rule="evenodd" d="M4.27701 18.964C4.10414 19.7742 3.30721 20.2909 2.49701 20.118C1.6868 19.9451 1.17014 19.1482 1.34301 18.338L2.28301 13.938C2.39501 13.4139 2.77811 12.9893 3.288 12.8243C3.7979 12.6592 4.35711 12.7787 4.755 13.1378C5.15289 13.4968 5.32901 14.0409 5.21701 14.565L4.27701 18.964Z" stroke="black" stroke-width="1.5" stroke-linecap="round" stroke-linejoin="round"/>
<path d="M4.64301 17.25H9.00001" stroke="black" stroke-width="1.5" stroke-linecap="round" stroke-linejoin="round"/>
<path fill-rule="evenodd" clip-rule="evenodd" d="M10.502 6C11.9518 6 13.127 4.82475 13.127 3.375C13.127 1.92525 11.9518 0.75 10.502 0.75C9.05226 0.75 7.87701 1.92525 7.87701 3.375C7.87701 4.82475 9.05226 6 10.502 6Z" stroke="black" stroke-width="1.5" stroke-linecap="round" stroke-linejoin="round"/>
<path d="M13.5 12.75V9.96802C14.094 10.025 14.69 10.074 15.284 10.074C16.8564 10.1496 18.4016 9.64298 19.624 8.65102C20.0643 8.31699 20.2853 7.7679 20.1991 7.22198C20.1129 6.67607 19.7335 6.22179 19.2116 6.03971C18.6898 5.85762 18.1101 5.97724 17.703 6.35102C16.649 7.23002 15.303 7.14302 13.195 6.92902C12.3003 6.82367 11.4008 6.76393 10.5 6.75002C7.26538 6.75373 4.12771 7.85474 1.6 9.87302C0.974162 10.3966 0.881617 11.3244 1.39171 11.9612C1.9018 12.5981 2.8274 12.7104 3.475 12.214C4.66476 11.2722 6.03445 10.5834 7.5 10.19V12.75" stroke="black" stroke-width="1.5" stroke-linecap="round" stroke-linejoin="round"/>
<path fill-rule="evenodd" clip-rule="evenodd" d="M23.25 4.313C23.2277 5.22898 22.4788 5.95992 21.5625 5.95992C20.6463 5.95992 19.8973 5.22898 19.875 4.313C19.8819 4.01257 19.7656 3.72239 19.5531 3.50989C19.3406 3.2974 19.0504 3.18109 18.75 3.188C17.8415 3.13303 17.117 2.40851 17.062 1.5H20.437C21.1831 1.49973 21.8988 1.79602 22.4264 2.32362C22.954 2.85121 23.2503 3.56686 23.25 4.313Z" stroke="black" stroke-width="1.5" stroke-linecap="round" stroke-linejoin="round"/>
<path d="M16.453 0.777954C16.607 1.03795 16.929 1.49995 17.253 1.49995" stroke="black" stroke-width="1.5" stroke-linecap="round" stroke-linejoin="round"/>
<path d="M20.25 5.37305V11.25" stroke="black" stroke-width="1.5" stroke-linecap="round" stroke-linejoin="round"/>
</svg>
