<svg width="24" height="25" viewBox="0 0 24 25" fill="none" xmlns="http://www.w3.org/2000/svg">
<path fill-rule="evenodd" clip-rule="evenodd" d="M11.5 11.2502C12.9497 11.2502 14.125 10.075 14.125 8.62524C14.125 7.1755 12.9497 6.00024 11.5 6.00024C10.0503 6.00024 8.875 7.1755 8.875 8.62524C8.875 10.075 10.0503 11.2502 11.5 11.2502Z" stroke="black" stroke-width="1.5" stroke-linecap="round" stroke-linejoin="round"/>
<path d="M1.75 7.49124L19.75 0.750244" stroke="black" stroke-width="1.5" stroke-linecap="round" stroke-linejoin="round"/>
<path fill-rule="evenodd" clip-rule="evenodd" d="M21.922 21.2752L21.234 19.2082C20.5431 17.1005 18.4122 15.8172 16.226 16.1922L15.415 16.3272L14.7 14.6512L15.552 14.3512C16.3338 14.077 16.7452 13.221 16.471 12.4392C16.1968 11.6575 15.3408 11.246 14.559 11.5202L10.571 12.9202C9.05633 13.447 7.39526 12.6893 6.80001 11.2002L5.40001 7.69125C5.09183 6.91998 4.21677 6.54457 3.44551 6.85275C2.67424 7.16092 2.29883 8.03598 2.60701 8.80725L4.00701 12.3152C5.19478 15.2986 8.5235 16.815 11.554 15.7532L11.854 15.6472L12.813 17.8862L10.959 20.9782C10.6768 21.438 10.6632 22.0138 10.9233 22.4864C11.1835 22.9589 11.6774 23.2554 12.2167 23.2628C12.7561 23.2702 13.258 22.9875 13.531 22.5222L15.425 19.3662L16.714 19.1512C17.4404 19.0296 18.1476 19.4534 18.383 20.1512L19.073 22.2202C19.2298 22.7446 19.6597 23.142 20.1948 23.2571C20.7298 23.3722 21.2851 23.1867 21.6436 22.7731C22.0021 22.3596 22.1069 21.7836 21.917 21.2702L21.922 21.2752Z" stroke="black" stroke-width="1.5" stroke-linecap="round" stroke-linejoin="round"/>
</svg>
