<svg width="24" height="24" viewBox="0 0 24 24" fill="none" xmlns="http://www.w3.org/2000/svg">
<path fill-rule="evenodd" clip-rule="evenodd" d="M12.125 6C13.5747 6 14.75 4.82475 14.75 3.375C14.75 1.92525 13.5747 0.75 12.125 0.75C10.6753 0.75 9.5 1.92525 9.5 3.375C9.5 4.82475 10.6753 6 12.125 6Z" stroke="black" stroke-width="1.5" stroke-linecap="round" stroke-linejoin="round"/>
<path d="M16.089 13.0179C13.9529 13.7298 12.5083 15.7244 12.4982 17.976C12.4881 20.2276 13.9146 22.235 16.0442 22.9661C18.1739 23.6972 20.5326 22.9891 21.9075 21.206C23.2824 19.4229 23.3675 16.9617 22.119 15.0879" stroke="black" stroke-width="1.5" stroke-linecap="round" stroke-linejoin="round"/>
<path d="M14.217 11.129L13.439 9.72897C13.2284 9.3478 13.1939 8.89392 13.3444 8.48527C13.4948 8.07662 13.8155 7.75354 14.223 7.59997L18.2 6.10497C19.1216 5.75874 20.1545 5.88677 20.9637 6.44754C21.773 7.00831 22.2555 7.93044 22.255 8.91497V11.25C22.255 12.0784 21.5834 12.75 20.755 12.75C19.9266 12.75 19.255 12.0784 19.255 11.25V8.91497L17 9.75797" stroke="black" stroke-width="1.5" stroke-linecap="round" stroke-linejoin="round"/>
<path d="M17.75 17.25H8.708C8.2424 17.2497 7.78317 17.3582 7.367 17.567L4.25 19.5" stroke="black" stroke-width="1.5" stroke-linecap="round" stroke-linejoin="round"/>
<path fill-rule="evenodd" clip-rule="evenodd" d="M4.25 22.5C5.90685 22.5 7.25 21.1569 7.25 19.5C7.25 17.8431 5.90685 16.5 4.25 16.5C2.59315 16.5 1.25 17.8431 1.25 19.5C1.25 21.1569 2.59315 22.5 4.25 22.5Z" stroke="black" stroke-width="1.5" stroke-linecap="round" stroke-linejoin="round"/>
</svg>
