<svg width="24" height="24" viewBox="0 0 24 24" fill="none" xmlns="http://www.w3.org/2000/svg">
<path fill-rule="evenodd" clip-rule="evenodd" d="M8.625 6C10.0747 6 11.25 4.82475 11.25 3.375C11.25 1.92525 10.0747 0.75 8.625 0.75C7.17525 0.75 6 1.92525 6 3.375C6 4.82475 7.17525 6 8.625 6Z" stroke="black" stroke-width="1.5" stroke-linecap="round" stroke-linejoin="round"/>
<path d="M11.96 20.227C10.7048 22.422 8.20839 23.5945 5.71774 23.1588C3.2271 22.7232 1.27684 20.7729 0.841208 18.2823C0.40558 15.7917 1.57808 13.2952 3.773 12.04" stroke="black" stroke-width="1.5" stroke-linecap="round" stroke-linejoin="round"/>
<path fill-rule="evenodd" clip-rule="evenodd" d="M18.751 21.75C18.3054 21.7506 17.8825 21.5531 17.597 21.211L14.747 17.791C14.4643 17.4488 14.0438 17.2505 13.6 17.25H8.25C7.42157 17.25 6.75 16.5784 6.75 15.75V9.74996C6.75 8.92153 7.42157 8.24996 8.25 8.24996H12.059C12.515 8.25079 12.9464 8.04303 13.23 7.68596L14.53 5.87396C14.8369 5.42326 15.3641 5.17458 15.9071 5.22444C16.45 5.27431 16.9232 5.61488 17.1428 6.11393C17.3624 6.61297 17.294 7.1919 16.964 7.62596L15.618 9.49996C14.7659 10.602 13.452 11.248 12.059 11.25H9.75V14.25H13.6C14.9361 14.2481 16.2035 14.842 17.057 15.87L19.9 19.289C20.273 19.736 20.3536 20.3586 20.1068 20.8859C19.86 21.4132 19.3302 21.7501 18.748 21.75H18.751Z" stroke="black" stroke-width="1.5" stroke-linecap="round" stroke-linejoin="round"/>
<path fill-rule="evenodd" clip-rule="evenodd" d="M21 5.25C22.2426 5.25 23.25 4.24264 23.25 3C23.25 1.75736 22.2426 0.75 21 0.75C19.7574 0.75 18.75 1.75736 18.75 3C18.75 4.24264 19.7574 5.25 21 5.25Z" stroke="black" stroke-width="1.5" stroke-linecap="round" stroke-linejoin="round"/>
</svg>
