<svg width="24" height="25" viewBox="0 0 24 25" fill="none" xmlns="http://www.w3.org/2000/svg">
<path fill-rule="evenodd" clip-rule="evenodd" d="M11 6C12.4497 6 13.625 4.82475 13.625 3.375C13.625 1.92525 12.4497 0.75 11 0.75C9.55025 0.75 8.375 1.92525 8.375 3.375C8.375 4.82475 9.55025 6 11 6Z" stroke="black" stroke-width="1.5" stroke-linecap="round" stroke-linejoin="round"/>
<path fill-rule="evenodd" clip-rule="evenodd" d="M22.923 5.48604C22.7971 5.10814 22.526 4.79584 22.1696 4.618C21.8132 4.44016 21.4007 4.4114 21.023 4.53804L8.256 8.79304C6.74221 9.32423 5.07899 8.5661 4.487 7.07504C4.17965 6.30543 3.30661 5.9307 2.537 6.23804C1.76739 6.54539 1.39265 7.41843 1.7 8.18804C2.87745 11.1691 6.19816 12.6891 9.224 11.632L11.024 11.032L11.08 13.784L6.027 20.884C5.71618 21.3206 5.66188 21.8899 5.88456 22.3773C6.10723 22.8648 6.57306 23.1964 7.10656 23.2473C7.64006 23.2982 8.16018 23.0606 8.471 22.624L13.29 15.857L14.682 16.038C15.1281 16.0933 15.5259 16.3457 15.7659 16.7258C16.0059 17.1058 16.0629 17.5735 15.921 18L14.828 21.278C14.646 21.7895 14.7545 22.3595 15.1118 22.7682C15.4692 23.177 16.0195 23.3608 16.5507 23.2487C17.082 23.1367 17.5112 22.7463 17.673 22.228L18.765 18.949C19.1908 17.6719 19.0223 16.2712 18.3059 15.1313C17.5895 13.9915 16.4005 13.2323 15.065 13.062L14.065 12.932L14.007 10.042L21.975 7.38604C22.3529 7.26013 22.6652 6.98907 22.843 6.63265C23.0209 6.27622 23.0496 5.8637 22.923 5.48604Z" stroke="black" stroke-width="1.5" stroke-linecap="round" stroke-linejoin="round"/>
<path fill-rule="evenodd" clip-rule="evenodd" d="M4.25 5.25C5.28553 5.25 6.125 4.41053 6.125 3.375C6.125 2.33947 5.28553 1.5 4.25 1.5C3.21447 1.5 2.375 2.33947 2.375 3.375C2.375 4.41053 3.21447 5.25 4.25 5.25Z" stroke="black" stroke-width="1.5" stroke-linecap="round" stroke-linejoin="round"/>
</svg>
