<svg width="24" height="24" viewBox="0 0 24 24" fill="none" xmlns="http://www.w3.org/2000/svg">
<path fill-rule="evenodd" clip-rule="evenodd" d="M8.625 6.00024C10.0747 6.00024 11.25 4.82499 11.25 3.37524C11.25 1.9255 10.0747 0.750244 8.625 0.750244C7.17525 0.750244 6 1.9255 6 3.37524C6 4.82499 7.17525 6.00024 8.625 6.00024Z" stroke="black" stroke-width="1.5" stroke-linecap="round" stroke-linejoin="round"/>
<path d="M11.96 20.2273C10.7048 22.4222 8.20839 23.5947 5.71774 23.1591C3.2271 22.7234 1.27684 20.7732 0.841208 18.2825C0.40558 15.7919 1.57808 13.2954 3.773 12.0403" stroke="black" stroke-width="1.5" stroke-linecap="round" stroke-linejoin="round"/>
<path fill-rule="evenodd" clip-rule="evenodd" d="M12.027 8.25028C12.5645 8.24998 13.0581 7.95358 13.311 7.47928L13.676 6.79428C14.0659 6.06305 14.9748 5.78637 15.706 6.17628C16.4372 6.56619 16.7139 7.47505 16.324 8.20628C16.324 8.20628 15.63 9.48928 15.571 9.56128C14.7201 10.6316 13.4263 11.2538 12.059 11.2503H9.75V14.2503H13.6C14.9361 14.2484 16.2035 14.8423 17.057 15.8703L19.9 19.2893C20.3891 19.9273 20.2883 20.8374 19.6714 21.3529C19.0545 21.8684 18.141 21.8059 17.6 21.2113L14.75 17.7913C14.4667 17.4483 14.0449 17.2499 13.6 17.2503H8.25C7.42157 17.2503 6.75 16.5787 6.75 15.7503V9.75028C6.75 8.92185 7.42157 8.25028 8.25 8.25028H12.027Z" stroke="black" stroke-width="1.5" stroke-linecap="round" stroke-linejoin="round"/>
<path d="M15.615 6.13224L17.631 0.750244" stroke="black" stroke-width="1.5" stroke-linecap="round" stroke-linejoin="round"/>
<path fill-rule="evenodd" clip-rule="evenodd" d="M22.231 2.03124C21.7259 1.6219 21.0326 1.53359 20.441 1.80324C19.8492 2.07193 19.1565 1.9837 18.651 1.57524L17.631 0.750244L16.579 3.55924L17.598 4.38424C18.1033 4.79314 18.7963 4.88141 19.388 4.61224C19.9797 4.34307 20.6727 4.43134 21.178 4.84024L22.197 5.66424L23.25 2.85524L22.231 2.03124Z" stroke="black" stroke-width="1.5" stroke-linecap="round" stroke-linejoin="round"/>
</svg>
