<svg width="24" height="24" viewBox="0 0 24 24" fill="none" xmlns="http://www.w3.org/2000/svg">
<path fill-rule="evenodd" clip-rule="evenodd" d="M8.64301 6C10.0928 6 11.268 4.82475 11.268 3.375C11.268 1.92525 10.0928 0.75 8.64301 0.75C7.19326 0.75 6.01801 1.92525 6.01801 3.375C6.01801 4.82475 7.19326 6 8.64301 6Z" stroke="black" stroke-width="1.5" stroke-linecap="round" stroke-linejoin="round"/>
<path d="M11.978 20.2269C10.3338 23.1046 6.66818 24.1046 3.7905 22.4604C0.912822 20.8163 -0.0871503 17.1506 1.557 14.2729" stroke="black" stroke-width="1.5" stroke-linecap="round" stroke-linejoin="round"/>
<path d="M12.768 8.25H17.268C18.0964 8.25 18.768 8.92157 18.768 9.75C18.768 10.5784 18.0964 11.25 17.268 11.25H11.268V14.25H13.613C14.9491 14.2481 16.2165 14.842 17.07 15.87L19.921 19.289C20.2643 19.7009 20.3618 20.2647 20.1768 20.768C19.9917 21.2713 19.5522 21.6377 19.0238 21.729C18.4954 21.8204 17.9583 21.6229 17.615 21.211L14.764 17.791C14.4808 17.4473 14.0584 17.2487 13.613 17.25H8.26801C7.43958 17.25 6.76801 16.5784 6.76801 15.75V14.25" stroke="black" stroke-width="1.5" stroke-linecap="round" stroke-linejoin="round"/>
<path d="M21.768 16.6C23.744 12.2506 23.744 7.25947 21.768 2.91003" stroke="black" stroke-width="1.5" stroke-linecap="round" stroke-linejoin="round"/>
<path fill-rule="evenodd" clip-rule="evenodd" d="M8.268 11.25H3.768C2.93957 11.25 2.268 10.5784 2.268 9.75C2.268 8.92157 2.93957 8.25 3.768 8.25H8.268C9.09642 8.25 9.768 8.92157 9.768 9.75C9.768 10.5784 9.09642 11.25 8.268 11.25Z" stroke="black" stroke-width="1.5" stroke-linecap="round" stroke-linejoin="round"/>
</svg>
