<svg width="24" height="24" viewBox="0 0 24 24" fill="none" xmlns="http://www.w3.org/2000/svg">
<path fill-rule="evenodd" clip-rule="evenodd" d="M13.535 21.75C13.535 22.5784 12.8634 23.25 12.035 23.25C11.2066 23.25 10.535 22.5784 10.535 21.75V15.75C10.535 14.9216 11.2066 14.25 12.035 14.25C12.8634 14.25 13.535 14.9216 13.535 15.75V21.75Z" stroke="black" stroke-width="1.5" stroke-linecap="round" stroke-linejoin="round"/>
<path fill-rule="evenodd" clip-rule="evenodd" d="M5.812 18.964C5.63914 19.7742 4.8422 20.2909 4.032 20.118C3.2218 19.9451 2.70514 19.1482 2.878 18.338L3.817 13.938C3.929 13.4139 4.31211 12.9893 4.822 12.8243C5.33189 12.6592 5.89111 12.7787 6.289 13.1378C6.68689 13.4968 6.863 14.0409 6.751 14.565L5.812 18.964Z" stroke="black" stroke-width="1.5" stroke-linecap="round" stroke-linejoin="round"/>
<path d="M6.178 17.25H10.535" stroke="black" stroke-width="1.5" stroke-linecap="round" stroke-linejoin="round"/>
<path fill-rule="evenodd" clip-rule="evenodd" d="M18.262 18.964C18.4349 19.7742 19.2318 20.2909 20.042 20.118C20.8522 19.9451 21.3689 19.1482 21.196 18.338L20.256 13.938C20.144 13.4139 19.7609 12.9893 19.251 12.8243C18.7411 12.6592 18.1819 12.7787 17.784 13.1378C17.3861 13.4968 17.21 14.0409 17.322 14.565L18.262 18.964Z" stroke="black" stroke-width="1.5" stroke-linecap="round" stroke-linejoin="round"/>
<path d="M17.896 17.25H13.539" stroke="black" stroke-width="1.5" stroke-linecap="round" stroke-linejoin="round"/>
<path fill-rule="evenodd" clip-rule="evenodd" d="M12.037 6C13.4868 6 14.662 4.82475 14.662 3.375C14.662 1.92525 13.4868 0.75 12.037 0.75C10.5873 0.75 9.412 1.92525 9.412 3.375C9.412 4.82475 10.5873 6 12.037 6Z" stroke="black" stroke-width="1.5" stroke-linecap="round" stroke-linejoin="round"/>
<path d="M15.036 12.75V10.19C16.5021 10.5827 17.8723 11.2715 19.062 12.214C19.4789 12.5627 20.0518 12.6587 20.5596 12.4648C21.0673 12.2709 21.4305 11.8175 21.5088 11.2796C21.5871 10.7418 21.3684 10.2036 20.937 9.87299C15.6492 5.64143 8.11326 5.71753 2.912 10.055C2.47474 10.3902 2.25644 10.9381 2.3434 11.4822C2.43035 12.0262 2.80856 12.4788 3.32851 12.661C3.84846 12.8432 4.42646 12.7257 4.834 12.355C6.06193 11.3329 7.4938 10.5846 9.034 10.16V12.75" stroke="black" stroke-width="1.5" stroke-linecap="round" stroke-linejoin="round"/>
</svg>
