<svg width="24" height="24" viewBox="0 0 24 24" fill="none" xmlns="http://www.w3.org/2000/svg">
<path fill-rule="evenodd" clip-rule="evenodd" d="M15.564 6.54297C17.0138 6.54297 18.189 5.36772 18.189 3.91797C18.189 2.46822 17.0138 1.29297 15.564 1.29297C14.1143 1.29297 12.939 2.46822 12.939 3.91797C12.939 5.36772 14.1143 6.54297 15.564 6.54297Z" stroke="black" stroke-width="1.5" stroke-linecap="round" stroke-linejoin="round"/>
<path d="M23.158 20.7339C23.443 21.5118 23.0434 22.3735 22.2655 22.6584C21.4876 22.9434 20.626 22.5438 20.341 21.7659L18.594 17.1069" stroke="black" stroke-width="1.5" stroke-linecap="round" stroke-linejoin="round"/>
<path d="M1.794 19.51C1.28347 19.3469 0.898725 18.9238 0.7847 18.4001C0.670676 17.8765 0.844692 17.3317 1.2412 16.9711C1.63771 16.6106 2.19647 16.4889 2.707 16.652L5.879 17.934" stroke="black" stroke-width="1.5" stroke-linecap="round" stroke-linejoin="round"/>
<path fill-rule="evenodd" clip-rule="evenodd" d="M20.89 6.16799C21.5688 5.69303 22.504 5.85824 22.979 6.53699C23.454 7.21575 23.2888 8.15103 22.61 8.62599L19.993 10.448C18.8736 11.236 17.455 11.4678 16.143 11.077L14.765 10.677L13.981 13.814L15.806 14.423C17.0959 14.8481 18.1234 15.8352 18.6 17.107C18.8905 17.883 18.497 18.7475 17.721 19.038C16.945 19.3285 16.0805 18.935 15.79 18.159C15.632 17.7353 15.2903 17.4061 14.861 17.264L12.308 16.412L9.566 17.783C8.4149 18.3573 7.07321 18.4123 5.879 17.934C5.11022 17.6244 4.73794 16.7503 5.0475 15.9815C5.35705 15.2127 6.23122 14.8404 7 15.15C7.39659 15.3099 7.84276 15.2917 8.225 15.1L10.9 13.76L11.883 9.82699L9.769 9.20599C9.28817 9.0617 8.76699 9.17045 8.384 9.49499L7.543 10.195C6.90628 10.6859 5.99575 10.5875 5.4786 9.97193C4.96145 9.35633 5.02161 8.44248 5.615 7.89999L6.457 7.19399C7.60949 6.22427 9.17243 5.8992 10.616 6.32899L16.991 8.19999C17.4281 8.32993 17.9007 8.25295 18.274 7.99099L20.89 6.16799Z" stroke="black" stroke-width="1.5" stroke-linecap="round" stroke-linejoin="round"/>
</svg>
