<svg width="24" height="24" viewBox="0 0 24 24" fill="none" xmlns="http://www.w3.org/2000/svg">
<path fill-rule="evenodd" clip-rule="evenodd" d="M22.5 15.75C22.5 16.578 21.828 18 21 18C20.172 18 19.5 16.578 19.5 15.75C19.5 14.9216 20.1716 14.25 21 14.25C21.8284 14.25 22.5 14.9216 22.5 15.75Z" stroke="black" stroke-width="1.5" stroke-linecap="round" stroke-linejoin="round"/>
<path d="M21.732 17.628C22.4534 18.642 22.9692 19.7876 23.25 21C23.25 22.2426 22.2426 23.25 21 23.25C19.7574 23.25 18.75 22.2426 18.75 21C19.0308 19.7876 19.5466 18.642 20.268 17.628" stroke="black" stroke-width="1.5" stroke-linecap="round" stroke-linejoin="round"/>
<path fill-rule="evenodd" clip-rule="evenodd" d="M13.5 6C14.9497 6 16.125 4.82475 16.125 3.375C16.125 1.92525 14.9497 0.75 13.5 0.75C12.0503 0.75 10.875 1.92525 10.875 3.375C10.875 4.82475 12.0503 6 13.5 6Z" stroke="black" stroke-width="1.5" stroke-linecap="round" stroke-linejoin="round"/>
<path fill-rule="evenodd" clip-rule="evenodd" d="M18.725 10.625L8.738 6.268C7.1778 5.57607 5.35951 5.83544 4.055 6.936L2.9 7.9C2.47025 8.23795 2.2584 8.78295 2.34709 9.32242C2.43578 9.86189 2.81095 10.3104 3.32628 10.493C3.84161 10.6756 4.41546 10.5633 4.824 10.2L5.978 9.236C6.41211 8.86907 7.01801 8.78318 7.537 9.015L9.3 9.787L6.923 14.3C6.80927 14.5158 6.74989 14.7561 6.75 15V18.75L4.35 20.55C3.92128 20.8715 3.69667 21.3974 3.76077 21.9294C3.82487 22.4615 4.16795 22.9189 4.66077 23.1294C5.15359 23.3399 5.72128 23.2715 6.15 22.95L9.15 20.7C9.52771 20.4167 9.75 19.9721 9.75 19.5V16.917L12.274 18.223L12.763 21.945C12.8631 22.6892 13.4981 23.2447 14.249 23.245C14.3159 23.2453 14.3827 23.2409 14.449 23.232C15.2702 23.1242 15.8485 22.3712 15.741 21.55L15.253 17.831C15.1259 16.8548 14.5279 16.0031 13.653 15.552L10.51 13.926L12.059 10.985L17.526 13.37C18.0172 13.5844 18.5855 13.5204 19.0168 13.2021C19.448 12.8839 19.6768 12.3597 19.6168 11.8271C19.5568 11.2945 19.2172 10.8344 18.726 10.62L18.725 10.625Z" stroke="black" stroke-width="1.5" stroke-linecap="round" stroke-linejoin="round"/>
<path d="M5.135 13.462C4.72392 14.6194 3.46184 15.2346 2.29687 14.8455C1.13189 14.4563 0.49294 13.2061 0.860001 12.034" stroke="black" stroke-width="1.5" stroke-linecap="round" stroke-linejoin="round"/>
</svg>
