<svg width="24" height="24" viewBox="0 0 24 24" fill="none" xmlns="http://www.w3.org/2000/svg">
<path d="M9.01201 19.189C8.42626 19.7746 7.47676 19.7746 6.89101 19.189L1.51201 13.811C1.23049 13.5297 1.07233 13.148 1.07233 12.75C1.07233 12.352 1.23049 11.9703 1.51201 11.689L12.012 1.189C12.2935 0.907737 12.6751 0.74982 13.073 0.75H18.451C19.2794 0.75 19.951 1.42157 19.951 2.25V7.629C19.9509 8.02655 19.793 8.4078 19.512 8.689" stroke="black" stroke-width="1.5" stroke-linecap="round" stroke-linejoin="round"/>
<path d="M16.2 4.125C15.9929 4.125 15.825 4.29289 15.825 4.5C15.825 4.70711 15.9929 4.875 16.2 4.875C16.4071 4.875 16.575 4.70711 16.575 4.5C16.575 4.29289 16.4071 4.125 16.2 4.125V4.125" stroke="black" stroke-width="1.5" stroke-linecap="round" stroke-linejoin="round"/>
<path fill-rule="evenodd" clip-rule="evenodd" d="M17.624 11.6802L19.165 15.7502H22.165C22.4752 15.7376 22.7598 15.9212 22.8762 16.2089C22.9927 16.4967 22.9157 16.8266 22.684 17.0332L20.084 18.8482L21.527 22.1622C21.6562 22.4733 21.5727 22.8321 21.3195 23.0543C21.0663 23.2765 20.6997 23.3126 20.408 23.1442L16.921 21.1832L13.43 23.1442C13.1383 23.3126 12.7717 23.2765 12.5185 23.0543C12.2653 22.8321 12.1819 22.4733 12.311 22.1622L13.754 18.8482L11.154 17.0332C10.9218 16.8275 10.8439 16.4981 10.9594 16.2102C11.075 15.9223 11.359 15.7382 11.669 15.7502H14.669L16.214 11.6802C16.3533 11.4204 16.6242 11.2583 16.919 11.2583C17.2138 11.2583 17.4847 11.4204 17.624 11.6802Z" stroke="black" stroke-width="1.5" stroke-linecap="round" stroke-linejoin="round"/>
</svg>
