<svg width="24" height="24" viewBox="0 0 24 24" fill="none" xmlns="http://www.w3.org/2000/svg">
<path d="M9.00001 19.189C8.41426 19.7746 7.46476 19.7746 6.87901 19.189L1.50001 13.811C1.2185 13.5297 1.06033 13.148 1.06033 12.75C1.06033 12.352 1.2185 11.9703 1.50001 11.689L12 1.189C12.2815 0.907737 12.6631 0.74982 13.061 0.75H18.439C19.2674 0.75 19.939 1.42157 19.939 2.25V7.629C19.9389 8.02655 19.781 8.4078 19.5 8.689" stroke="black" stroke-width="1.5" stroke-linecap="round" stroke-linejoin="round"/>
<path d="M16.189 4.125C15.9819 4.125 15.814 4.29289 15.814 4.5C15.814 4.70711 15.9819 4.875 16.189 4.875C16.3961 4.875 16.564 4.70711 16.564 4.5C16.564 4.29289 16.3961 4.125 16.189 4.125" stroke="black" stroke-width="1.5" stroke-linecap="round" stroke-linejoin="round"/>
<path fill-rule="evenodd" clip-rule="evenodd" d="M16.939 23.25C20.2527 23.25 22.939 20.5637 22.939 17.25C22.939 13.9363 20.2527 11.25 16.939 11.25C13.6253 11.25 10.939 13.9363 10.939 17.25C10.939 20.5637 13.6253 23.25 16.939 23.25Z" stroke="black" stroke-width="1.5" stroke-linecap="round" stroke-linejoin="round"/>
<path d="M16.939 15V19.5" stroke="black" stroke-width="1.5" stroke-linecap="round" stroke-linejoin="round"/>
<path d="M14.689 17.25H19.189" stroke="black" stroke-width="1.5" stroke-linecap="round" stroke-linejoin="round"/>
</svg>
