<svg width="24" height="24" viewBox="0 0 24 24" fill="none" xmlns="http://www.w3.org/2000/svg">
<path fill-rule="evenodd" clip-rule="evenodd" d="M1.13501 2.63379V8.89179C1.13518 9.68737 1.45136 10.4503 2.01401 11.0128L13.644 22.6428C13.8395 22.8385 14.1269 22.9107 14.3918 22.8306C14.6566 22.7505 14.8558 22.5311 14.91 22.2598L16.135 16.1338L22.261 14.9088C22.5323 14.8545 22.7517 14.6553 22.8318 14.3905C22.9119 14.1257 22.8397 13.8383 22.644 13.6428L11.014 2.01279C10.4515 1.45014 9.68859 1.13396 8.89301 1.13379H2.63501C1.80658 1.13379 1.13501 1.80536 1.13501 2.63379Z" stroke="black" stroke-width="1.5" stroke-linecap="round" stroke-linejoin="round"/>
<path fill-rule="evenodd" clip-rule="evenodd" d="M6.38501 7.88379C7.21344 7.88379 7.88501 7.21222 7.88501 6.38379C7.88501 5.55536 7.21344 4.88379 6.38501 4.88379C5.55658 4.88379 4.88501 5.55536 4.88501 6.38379C4.88501 7.21222 5.55658 7.88379 6.38501 7.88379Z" stroke="black" stroke-width="1.5" stroke-linecap="round" stroke-linejoin="round"/>
</svg>
