<svg width="24" height="24" viewBox="0 0 24 24" fill="none" xmlns="http://www.w3.org/2000/svg">
<path d="M9 19.2999C8.41425 19.8854 7.46475 19.8854 6.879 19.2999L1.5 13.9199C0.914428 13.3341 0.914428 12.3846 1.5 11.7989L12 1.29986C12.2813 1.01823 12.663 0.859948 13.061 0.859863H18.439C19.2674 0.859863 19.939 1.53144 19.939 2.35986V7.73786C19.9394 8.1361 19.7815 8.51817 19.5 8.79986" stroke="black" stroke-width="1.5" stroke-linecap="round" stroke-linejoin="round"/>
<path d="M16.189 4.23486C15.9819 4.23486 15.814 4.40276 15.814 4.60986C15.814 4.81697 15.9819 4.98486 16.189 4.98486C16.3961 4.98486 16.564 4.81697 16.564 4.60986C16.564 4.40276 16.3961 4.23486 16.189 4.23486V4.23486" stroke="black" stroke-width="1.5" stroke-linecap="round" stroke-linejoin="round"/>
<path fill-rule="evenodd" clip-rule="evenodd" d="M16.939 23.1381L11.826 17.8001C10.9051 16.8794 10.6767 15.4728 11.259 14.3081V14.3081C11.6938 13.4383 12.5204 12.8305 13.4803 12.6748C14.4402 12.5191 15.4164 12.8343 16.104 13.5221L16.939 14.3571L17.775 13.5221C18.4625 12.8343 19.4388 12.5191 20.3987 12.6748C21.3586 12.8305 22.1851 13.4383 22.62 14.3081V14.3081C23.2023 15.4728 22.9739 16.8794 22.053 17.8001L16.939 23.1381Z" stroke="black" stroke-width="1.5" stroke-linecap="round" stroke-linejoin="round"/>
</svg>
