<svg width="24" height="24" viewBox="0 0 24 24" fill="none" xmlns="http://www.w3.org/2000/svg">
<path d="M8.99998 19.189C8.41423 19.7746 7.46473 19.7746 6.87898 19.189L1.49998 13.811C1.21847 13.5297 1.0603 13.148 1.0603 12.75C1.0603 12.352 1.21847 11.9703 1.49998 11.689L12 1.189C12.2814 0.907737 12.6631 0.74982 13.061 0.75H18.439C19.2674 0.75 19.939 1.42157 19.939 2.25V7.629C19.9389 8.02655 19.781 8.4078 19.5 8.689" stroke="black" stroke-width="1.5" stroke-linecap="round" stroke-linejoin="round"/>
<path d="M16.189 4.125C15.9819 4.125 15.814 4.29289 15.814 4.5C15.814 4.70711 15.9819 4.875 16.189 4.875C16.3961 4.875 16.564 4.70711 16.564 4.5C16.564 4.29289 16.3961 4.125 16.189 4.125" stroke="black" stroke-width="1.5" stroke-linecap="round" stroke-linejoin="round"/>
<path d="M16.939 20.25C16.7319 20.25 16.564 20.4179 16.564 20.625C16.564 20.8321 16.7319 21 16.939 21C17.1461 21 17.314 20.8321 17.314 20.625C17.314 20.4179 17.1461 20.25 16.939 20.25" stroke="black" stroke-width="1.5" stroke-linecap="round" stroke-linejoin="round"/>
<path d="M16.939 18V15" stroke="black" stroke-width="1.5" stroke-linecap="round" stroke-linejoin="round"/>
<path fill-rule="evenodd" clip-rule="evenodd" d="M22.752 20.6822C23.0273 21.2322 22.998 21.8856 22.6747 22.4088C22.3514 22.932 21.7801 23.2504 21.165 23.2502H12.713C12.0979 23.2506 11.5265 22.9322 11.2033 22.4089C10.8801 21.8855 10.8512 21.232 11.127 20.6822L15.352 12.2312C15.6524 11.6299 16.2668 11.25 16.939 11.25C17.6112 11.25 18.2256 11.6299 18.526 12.2312L22.752 20.6822Z" stroke="black" stroke-width="1.5" stroke-linecap="round" stroke-linejoin="round"/>
</svg>
