<svg width="24" height="24" viewBox="0 0 24 24" fill="none" xmlns="http://www.w3.org/2000/svg">
<path fill-rule="evenodd" clip-rule="evenodd" d="M1.061 2.56006V8.81706C1.06091 9.6125 1.37672 10.3754 1.939 10.9381L13.5 22.5001C14.0858 23.0856 15.0353 23.0856 15.621 22.5001L22.5 15.6201C23.0856 15.0343 23.0856 14.0848 22.5 13.4991L10.939 1.93806C10.3764 1.37578 9.61345 1.05996 8.818 1.06006H2.561C1.73258 1.06006 1.061 1.73163 1.061 2.56006Z" stroke="black" stroke-width="1.5" stroke-linecap="round" stroke-linejoin="round"/>
<path fill-rule="evenodd" clip-rule="evenodd" d="M6.311 7.81006C7.13943 7.81006 7.811 7.13849 7.811 6.31006C7.811 5.48163 7.13943 4.81006 6.311 4.81006C5.48258 4.81006 4.811 5.48163 4.811 6.31006C4.811 7.13849 5.48258 7.81006 6.311 7.81006Z" stroke="black" stroke-width="1.5" stroke-linecap="round" stroke-linejoin="round"/>
</svg>
