<svg width="24" height="24" viewBox="0 0 24 24" fill="none" xmlns="http://www.w3.org/2000/svg">
<path fill-rule="evenodd" clip-rule="evenodd" d="M19.5 6C20.9497 6 22.125 4.82475 22.125 3.375C22.125 1.92525 20.9497 0.75 19.5 0.75C18.0503 0.75 16.875 1.92525 16.875 3.375C16.875 4.82475 18.0503 6 19.5 6Z" stroke="black" stroke-width="1.5" stroke-linecap="round" stroke-linejoin="round"/>
<path d="M3.75 13.5V19.5" stroke="black" stroke-width="1.5" stroke-linecap="round" stroke-linejoin="round"/>
<path d="M12 20.25H18" stroke="black" stroke-width="1.5" stroke-linecap="round" stroke-linejoin="round"/>
<path d="M1.125 13.125C1.33211 13.125 1.5 13.2929 1.5 13.5" stroke="black" stroke-width="1.5" stroke-linecap="round" stroke-linejoin="round"/>
<path d="M0.75 13.5C0.75 13.2929 0.917893 13.125 1.125 13.125" stroke="black" stroke-width="1.5" stroke-linecap="round" stroke-linejoin="round"/>
<path d="M1.125 13.875C0.917893 13.875 0.75 13.7071 0.75 13.5" stroke="black" stroke-width="1.5" stroke-linecap="round" stroke-linejoin="round"/>
<path d="M1.5 13.5C1.5 13.7071 1.33211 13.875 1.125 13.875" stroke="black" stroke-width="1.5" stroke-linecap="round" stroke-linejoin="round"/>
<path d="M1.125 16.125C1.33211 16.125 1.5 16.2929 1.5 16.5" stroke="black" stroke-width="1.5" stroke-linecap="round" stroke-linejoin="round"/>
<path d="M0.75 16.5C0.75 16.2929 0.917893 16.125 1.125 16.125" stroke="black" stroke-width="1.5" stroke-linecap="round" stroke-linejoin="round"/>
<path d="M1.125 16.875C0.917893 16.875 0.75 16.7071 0.75 16.5" stroke="black" stroke-width="1.5" stroke-linecap="round" stroke-linejoin="round"/>
<path d="M1.5 16.5C1.5 16.7071 1.33211 16.875 1.125 16.875" stroke="black" stroke-width="1.5" stroke-linecap="round" stroke-linejoin="round"/>
<path d="M1.125 19.125C1.33211 19.125 1.5 19.2929 1.5 19.5" stroke="black" stroke-width="1.5" stroke-linecap="round" stroke-linejoin="round"/>
<path d="M0.75 19.5C0.75 19.2929 0.917893 19.125 1.125 19.125" stroke="black" stroke-width="1.5" stroke-linecap="round" stroke-linejoin="round"/>
<path d="M1.125 19.875C0.917893 19.875 0.75 19.7071 0.75 19.5" stroke="black" stroke-width="1.5" stroke-linecap="round" stroke-linejoin="round"/>
<path d="M1.5 19.5C1.5 19.7071 1.33211 19.875 1.125 19.875" stroke="black" stroke-width="1.5" stroke-linecap="round" stroke-linejoin="round"/>
<path d="M12 22.5C12.2071 22.5 12.375 22.6679 12.375 22.875" stroke="black" stroke-width="1.5" stroke-linecap="round" stroke-linejoin="round"/>
<path d="M11.625 22.875C11.625 22.6679 11.7929 22.5 12 22.5" stroke="black" stroke-width="1.5" stroke-linecap="round" stroke-linejoin="round"/>
<path d="M12 23.25C11.7929 23.25 11.625 23.0821 11.625 22.875" stroke="black" stroke-width="1.5" stroke-linecap="round" stroke-linejoin="round"/>
<path d="M12.375 22.875C12.375 23.0821 12.2071 23.25 12 23.25" stroke="black" stroke-width="1.5" stroke-linecap="round" stroke-linejoin="round"/>
<path d="M15 22.5C15.2071 22.5 15.375 22.6679 15.375 22.875" stroke="black" stroke-width="1.5" stroke-linecap="round" stroke-linejoin="round"/>
<path d="M14.625 22.875C14.625 22.6679 14.7929 22.5 15 22.5" stroke="black" stroke-width="1.5" stroke-linecap="round" stroke-linejoin="round"/>
<path d="M15 23.25C14.7929 23.25 14.625 23.0821 14.625 22.875" stroke="black" stroke-width="1.5" stroke-linecap="round" stroke-linejoin="round"/>
<path d="M15.375 22.875C15.375 23.0821 15.2071 23.25 15 23.25" stroke="black" stroke-width="1.5" stroke-linecap="round" stroke-linejoin="round"/>
<path d="M18 22.5C18.2071 22.5 18.375 22.6679 18.375 22.875" stroke="black" stroke-width="1.5" stroke-linecap="round" stroke-linejoin="round"/>
<path d="M17.625 22.875C17.625 22.6679 17.7929 22.5 18 22.5" stroke="black" stroke-width="1.5" stroke-linecap="round" stroke-linejoin="round"/>
<path d="M18 23.25C17.7929 23.25 17.625 23.0821 17.625 22.875" stroke="black" stroke-width="1.5" stroke-linecap="round" stroke-linejoin="round"/>
<path d="M18.375 22.875C18.375 23.0821 18.2071 23.25 18 23.25" stroke="black" stroke-width="1.5" stroke-linecap="round" stroke-linejoin="round"/>
<path fill-rule="evenodd" clip-rule="evenodd" d="M21.75 9.74898H19.277L15.938 7.07698C15.6752 6.86647 15.3487 6.75152 15.012 6.75098H7.5C6.67157 6.75098 6 7.42255 6 8.25098C6 9.0794 6.67157 9.75098 7.5 9.75098H11.609L7.283 14.509C6.9987 14.8217 6.59565 15 6.173 15H3.75V18H6.174C7.44056 17.9989 8.64803 17.4642 9.5 16.527L11.124 14.741L11.838 15.098C12.856 15.6053 13.4996 16.6446 13.5 17.782V20.25H16.5V17.782C16.5071 15.5235 15.2383 13.4545 13.222 12.437L15.163 10.3L17.402 12.09C17.934 12.5154 18.5949 12.7471 19.276 12.747H21.75C22.5784 12.747 23.25 12.0754 23.25 11.247C23.25 10.4185 22.5784 9.74698 21.75 9.74698V9.74898Z" stroke="black" stroke-width="1.5" stroke-linecap="round" stroke-linejoin="round"/>
</svg>
