<svg width="24" height="24" viewBox="0 0 24 24" fill="none" xmlns="http://www.w3.org/2000/svg">
<path fill-rule="evenodd" clip-rule="evenodd" d="M16.412 6C17.8618 6 19.037 4.82475 19.037 3.375C19.037 1.92525 17.8618 0.75 16.412 0.75C14.9623 0.75 13.787 1.92525 13.787 3.375C13.787 4.82475 14.9623 6 16.412 6Z" stroke="black" stroke-width="1.5" stroke-linecap="round" stroke-linejoin="round"/>
<path d="M16 20.25L16.121 20.05C16.7663 18.9747 16.9337 17.6789 16.5826 16.4749C16.2316 15.2709 15.3941 14.268 14.272 13.708L13.156 13.151L14.886 11.265H20.986C21.8144 11.265 22.486 10.5934 22.486 9.76501C22.486 8.93659 21.8144 8.26501 20.986 8.26501H4.486C3.65757 8.26501 2.986 8.93659 2.986 9.76501C2.986 10.5934 3.65757 11.265 4.486 11.265H10.764L1.907 20.722C1.33925 21.3257 1.36835 22.2753 1.972 22.843C2.57565 23.4108 3.52525 23.3817 4.093 22.778L11.008 15.431L12.932 16.392C13.3058 16.5789 13.5847 16.9133 13.7014 17.3146C13.8182 17.7159 13.7622 18.1477 13.547 18.506L12.5 20.25" stroke="black" stroke-width="1.5" stroke-linecap="round" stroke-linejoin="round"/>
<path d="M10.5 20.25H22.5" stroke="black" stroke-width="1.5" stroke-linecap="round" stroke-linejoin="round"/>
<path fill-rule="evenodd" clip-rule="evenodd" d="M10.5 23.25C11.3284 23.25 12 22.5784 12 21.75C12 20.9216 11.3284 20.25 10.5 20.25C9.67157 20.25 9 20.9216 9 21.75C9 22.5784 9.67157 23.25 10.5 23.25Z" stroke="black" stroke-width="1.5" stroke-linecap="round" stroke-linejoin="round"/>
<path fill-rule="evenodd" clip-rule="evenodd" d="M18.75 23.25C19.5784 23.25 20.25 22.5784 20.25 21.75C20.25 20.9216 19.5784 20.25 18.75 20.25C17.9216 20.25 17.25 20.9216 17.25 21.75C17.25 22.5784 17.9216 23.25 18.75 23.25Z" stroke="black" stroke-width="1.5" stroke-linecap="round" stroke-linejoin="round"/>
</svg>
