<svg width="24" height="24" viewBox="0 0 24 24" fill="none" xmlns="http://www.w3.org/2000/svg">
<path d="M15.75 20.25V17.782C15.7572 15.5232 14.4879 13.4541 12.471 12.437L14.914 9.75H21C21.8284 9.75 22.5 9.07843 22.5 8.25C22.5 7.42157 21.8284 6.75 21 6.75H5.25C4.42157 6.75 3.75 7.42157 3.75 8.25C3.75 9.07843 4.42157 9.75 5.25 9.75H10.859L6.532 14.509C6.24793 14.8215 5.8453 14.9997 5.423 15H3C2.17157 15 1.5 15.6716 1.5 16.5C1.5 17.3284 2.17157 18 3 18H5.423C6.69026 17.9992 7.89863 17.4649 8.752 16.528L10.377 14.741L11.092 15.098C12.1109 15.6037 12.7539 16.6445 12.75 17.782V20.25" stroke="black" stroke-width="1.5" stroke-linecap="round" stroke-linejoin="round"/>
<path d="M6.75 20.25H21" stroke="black" stroke-width="1.5" stroke-linecap="round" stroke-linejoin="round"/>
<path fill-rule="evenodd" clip-rule="evenodd" d="M9.75 23.25C10.5784 23.25 11.25 22.5784 11.25 21.75C11.25 20.9216 10.5784 20.25 9.75 20.25C8.92157 20.25 8.25 20.9216 8.25 21.75C8.25 22.5784 8.92157 23.25 9.75 23.25Z" stroke="black" stroke-width="1.5" stroke-linecap="round" stroke-linejoin="round"/>
<path fill-rule="evenodd" clip-rule="evenodd" d="M18 23.25C18.8284 23.25 19.5 22.5784 19.5 21.75C19.5 20.9216 18.8284 20.25 18 20.25C17.1716 20.25 16.5 20.9216 16.5 21.75C16.5 22.5784 17.1716 23.25 18 23.25Z" stroke="black" stroke-width="1.5" stroke-linecap="round" stroke-linejoin="round"/>
<path fill-rule="evenodd" clip-rule="evenodd" d="M15.75 6C17.1997 6 18.375 4.82475 18.375 3.375C18.375 1.92525 17.1997 0.75 15.75 0.75C14.3003 0.75 13.125 1.92525 13.125 3.375C13.125 4.82475 14.3003 6 15.75 6Z" stroke="black" stroke-width="1.5" stroke-linecap="round" stroke-linejoin="round"/>
</svg>
