<svg width="24" height="24" viewBox="0 0 24 24" fill="none" xmlns="http://www.w3.org/2000/svg">
<path fill-rule="evenodd" clip-rule="evenodd" d="M5.85599 10.1039C5.57466 9.82235 5.19299 9.66418 4.79499 9.66418C4.397 9.66418 4.01533 9.82235 3.73399 10.1039L2.14299 11.6929C1.55702 12.2788 1.55702 13.2289 2.14299 13.8149C2.72897 14.4008 3.67902 14.4008 4.26499 13.8149L5.85599 12.2239C6.4409 11.6382 6.4409 10.6895 5.85599 10.1039V10.1039Z" stroke="black" stroke-width="1.5" stroke-linecap="round" stroke-linejoin="round"/>
<path fill-rule="evenodd" clip-rule="evenodd" d="M13.9 18.1479C13.6187 17.8664 13.237 17.7082 12.839 17.7082C12.441 17.7082 12.0593 17.8664 11.778 18.1479L10.187 19.7389C9.60102 20.3248 9.60102 21.2749 10.187 21.8609C10.773 22.4468 11.723 22.4468 12.309 21.8609L13.9 20.2699C14.1815 19.9885 14.3397 19.6069 14.3397 19.2089C14.3397 18.8109 14.1815 18.4292 13.9 18.1479V18.1479Z" stroke="black" stroke-width="1.5" stroke-linecap="round" stroke-linejoin="round"/>
<path fill-rule="evenodd" clip-rule="evenodd" d="M10.1 5.85988C9.81849 5.57855 9.66032 5.19687 9.66032 4.79888C9.66032 4.40089 9.81849 4.01921 10.1 3.73788L11.691 2.14688C12.277 1.5609 13.227 1.5609 13.813 2.14688C14.399 2.73285 14.399 3.6829 13.813 4.26888L12.22 5.85988C11.6344 6.44478 10.6856 6.44478 10.1 5.85988V5.85988Z" stroke="black" stroke-width="1.5" stroke-linecap="round" stroke-linejoin="round"/>
<path fill-rule="evenodd" clip-rule="evenodd" d="M18.144 13.9038C17.8625 13.6225 17.7043 13.2408 17.7043 12.8428C17.7043 12.4448 17.8625 12.0632 18.144 11.7818L19.735 10.1908C20.321 9.60485 21.271 9.60485 21.857 10.1908C22.443 10.7768 22.443 11.7268 21.857 12.3128L20.266 13.9038C19.9847 14.1853 19.603 14.3435 19.205 14.3435C18.807 14.3435 18.4253 14.1853 18.144 13.9038V13.9038Z" stroke="black" stroke-width="1.5" stroke-linecap="round" stroke-linejoin="round"/>
<path d="M13.819 2.15685C16.073 0.185432 19.4693 0.298754 21.5868 2.41604C23.7044 4.53332 23.8181 7.92964 21.847 10.1839" stroke="black" stroke-width="1.5" stroke-linecap="round" stroke-linejoin="round"/>
<path d="M5.856 10.1019L10.098 5.85986" stroke="black" stroke-width="1.5" stroke-linecap="round" stroke-linejoin="round"/>
<path d="M10.181 21.8509C7.92598 23.8163 4.53417 23.7001 2.41898 21.5849C0.303785 19.4697 0.187559 16.0779 2.153 13.8229" stroke="black" stroke-width="1.5" stroke-linecap="round" stroke-linejoin="round"/>
<path d="M18.144 13.9058L13.902 18.1478" stroke="black" stroke-width="1.5" stroke-linecap="round" stroke-linejoin="round"/>
<path d="M18.939 10.9888L13.015 5.06384" stroke="black" stroke-width="1.5" stroke-linecap="round" stroke-linejoin="round"/>
<path d="M10.985 18.9438L5.061 13.0198" stroke="black" stroke-width="1.5" stroke-linecap="round" stroke-linejoin="round"/>
</svg>
