<svg width="24" height="24" viewBox="0 0 24 24" fill="none" xmlns="http://www.w3.org/2000/svg">
<path fill-rule="evenodd" clip-rule="evenodd" d="M20.823 7.83901L7.918 20.745C7.17065 21.4882 6.20404 21.9714 5.161 22.123C5.03312 22.1405 4.90385 22.1455 4.775 22.138L2.583 22C1.5494 21.9335 0.76545 21.0416 0.832001 20.008C0.898551 18.9744 1.7904 18.1905 2.824 18.257L4.775 18.383C4.96064 18.3305 5.12993 18.2318 5.267 18.096L18.172 5.19601C18.3078 5.05894 18.4065 4.88966 18.459 4.70401L18.333 2.75301C18.2631 1.71941 19.0444 0.824879 20.078 0.755015C21.1116 0.685151 22.0061 1.46641 22.076 2.50001L22.217 4.70001C22.2245 4.82886 22.2195 4.95814 22.202 5.08601C22.0496 6.12787 21.5661 7.09307 20.823 7.83901V7.83901Z" stroke="black" stroke-width="1.5" stroke-linecap="round" stroke-linejoin="round"/>
<path fill-rule="evenodd" clip-rule="evenodd" d="M12.515 19.33C13.3937 20.2087 13.3937 21.6333 12.515 22.512C11.6363 23.3906 10.2117 23.3906 9.33301 22.512C8.45433 21.6333 8.45433 20.2087 9.333 19.33C10.2119 18.4519 11.6361 18.4519 12.515 19.33Z" stroke="black" stroke-width="1.5" stroke-linecap="round" stroke-linejoin="round"/>
<path fill-rule="evenodd" clip-rule="evenodd" d="M19.409 12.436C20.2877 13.3147 21.7123 13.3147 22.591 12.436C23.4696 11.5573 23.4696 10.1327 22.591 9.25404C21.7123 8.37537 20.2877 8.37536 19.409 9.25403C18.5309 10.1329 18.5309 11.5571 19.409 12.436V12.436Z" stroke="black" stroke-width="1.5" stroke-linecap="round" stroke-linejoin="round"/>
</svg>
