<svg width="25" height="24" viewBox="0 0 25 24" fill="none" xmlns="http://www.w3.org/2000/svg">
<path fill-rule="evenodd" clip-rule="evenodd" d="M18.829 22.9232C18.3671 23.371 17.633 23.371 17.171 22.9232L13.526 19.3092C12.7222 18.5645 12.5173 17.3736 13.026 16.4032V16.4032C13.4347 15.6716 14.1577 15.1693 14.9859 15.0415C15.814 14.9137 16.6549 15.1748 17.265 15.7492L17.996 16.4432L18.727 15.7492C19.3373 15.1748 20.1783 14.9137 21.0066 15.0415C21.8349 15.1692 22.5581 15.6716 22.967 16.4032V16.4032C23.4746 17.3738 23.2698 18.564 22.467 19.3092L18.829 22.9232Z" stroke="black" stroke-width="1.5" stroke-linecap="round" stroke-linejoin="round"/>
<path fill-rule="evenodd" clip-rule="evenodd" d="M5.17101 13.8452C5.63295 13.3973 6.36706 13.3973 6.82901 13.8452L10.474 17.4612C11.2778 18.2058 11.4827 19.3967 10.974 20.3672V20.3672C10.5653 21.0987 9.8423 21.6011 9.01414 21.7288C8.18598 21.8566 7.34515 21.5955 6.73501 21.0212L6.00001 20.3272L5.26901 21.0212C4.65868 21.5955 3.81771 21.8566 2.98941 21.7288C2.16111 21.6011 1.43789 21.0987 1.02901 20.3672V20.3672C0.521399 19.3965 0.726193 18.2063 1.52901 17.4612L5.17101 13.8452Z" stroke="black" stroke-width="1.5" stroke-linecap="round" stroke-linejoin="round"/>
<path d="M6 20.3271V23.2591" stroke="black" stroke-width="1.5" stroke-linecap="round" stroke-linejoin="round"/>
<path fill-rule="evenodd" clip-rule="evenodd" d="M20.625 10.5092C21.6998 10.5141 22.669 9.8634 23.0713 8.86674C23.4736 7.87009 23.2277 6.72887 22.4506 5.98635C21.6736 5.24382 20.5224 5.05001 19.545 5.49717C20.464 4.82811 20.8479 3.64356 20.4961 2.56262C20.1443 1.48168 19.1368 0.75 18 0.75C16.8633 0.75 15.8557 1.48168 15.5039 2.56262C15.1521 3.64356 15.536 4.82811 16.455 5.49717C15.4789 5.05468 14.3317 5.25055 13.5577 5.99188C12.7837 6.7332 12.5386 7.87084 12.9386 8.86514C13.3386 9.85944 14.3033 10.5104 15.375 10.5092H20.625Z" stroke="black" stroke-width="1.5" stroke-linecap="round" stroke-linejoin="round"/>
<path d="M18 10.5092V12.0092" stroke="black" stroke-width="1.5" stroke-linecap="round" stroke-linejoin="round"/>
<path fill-rule="evenodd" clip-rule="evenodd" d="M6 11.2592L1.5 6.00916L6 0.759155L10.5 6.00916L6 11.2592V11.2592Z" stroke="black" stroke-width="1.5" stroke-linecap="round" stroke-linejoin="round"/>
</svg>
