<svg width="24" height="24" viewBox="0 0 24 24" fill="none" xmlns="http://www.w3.org/2000/svg">
<path d="M7 12.75V2.25C7 1.42157 7.67157 0.75 8.5 0.75H14.5C15.3284 0.75 16 1.42157 16 2.25V12.75C16 13.5784 15.3284 14.25 14.5 14.25H10.619" stroke="black" stroke-width="1.5" stroke-linecap="round" stroke-linejoin="round"/>
<path d="M16.037 2.76001L20.142 3.87401C20.5264 3.97751 20.8539 4.22959 21.0524 4.57472C21.2508 4.91985 21.3039 5.3297 21.2 5.71401L18.448 15.848C18.2298 16.6466 17.4058 17.1175 16.607 16.9L11.216 15.44" stroke="black" stroke-width="1.5" stroke-linecap="round" stroke-linejoin="round"/>
<path d="M13 23.25V20.25H4V23.25" stroke="black" stroke-width="1.5" stroke-linecap="round" stroke-linejoin="round"/>
<path d="M7 12.75L8.725 9.876C9.03162 9.36403 9.65294 9.13405 10.219 9.323V9.323C10.551 9.43362 10.8229 9.67605 10.9706 9.99331C11.1184 10.3106 11.129 10.6747 11 11L10 13.5V13.5C10.9603 14.4604 11.4998 15.7629 11.5 17.121V20.25H5.5L2.888 14.088C2.50091 13.2185 2.40006 12.2485 2.6 11.318L4.279 4.45C4.5539 3.16687 5.68776 2.25012 7 2.25V2.25" stroke="black" stroke-width="1.5" stroke-linecap="round" stroke-linejoin="round"/>
</svg>
