<svg width="24" height="24" viewBox="0 0 24 24" fill="none" xmlns="http://www.w3.org/2000/svg">
<path fill-rule="evenodd" clip-rule="evenodd" d="M15.93 9.10002C15.5714 8.72371 15.0743 8.51074 14.5545 8.51074C14.0347 8.51074 13.5376 8.72371 13.179 9.10002L12 10.314L10.821 9.10002C10.4624 8.72371 9.96531 8.51074 9.4455 8.51074C8.9257 8.51074 8.42859 8.72371 8.07 9.10002C7.31 9.89608 7.31 11.149 8.07 11.945L11.581 15.576C11.6903 15.6906 11.8417 15.7554 12 15.7554C12.1583 15.7554 12.3097 15.6906 12.419 15.576L15.93 11.94C16.6868 11.1446 16.6868 9.89542 15.93 9.10002V9.10002Z" stroke="black" stroke-width="1.5" stroke-linecap="round" stroke-linejoin="round"/>
<path fill-rule="evenodd" clip-rule="evenodd" d="M3 1.75C3 1.19772 3.44772 0.75 4 0.75H20C20.5523 0.75 21 1.19772 21 1.75V22.25C21 22.8023 20.5523 23.25 20 23.25H4C3.44772 23.25 3 22.8023 3 22.25V1.75Z" stroke="black" stroke-width="1.5" stroke-linecap="round" stroke-linejoin="round"/>
<path d="M6 3.375C6.20711 3.375 6.375 3.54289 6.375 3.75" stroke="black" stroke-width="1.5" stroke-linecap="round" stroke-linejoin="round"/>
<path d="M5.625 3.75C5.625 3.54289 5.79289 3.375 6 3.375" stroke="black" stroke-width="1.5" stroke-linecap="round" stroke-linejoin="round"/>
<path d="M6 4.125C5.79289 4.125 5.625 3.95711 5.625 3.75" stroke="black" stroke-width="1.5" stroke-linecap="round" stroke-linejoin="round"/>
<path d="M6.375 3.75C6.375 3.95711 6.20711 4.125 6 4.125" stroke="black" stroke-width="1.5" stroke-linecap="round" stroke-linejoin="round"/>
<path d="M18 19.875C18.2071 19.875 18.375 20.0429 18.375 20.25" stroke="black" stroke-width="1.5" stroke-linecap="round" stroke-linejoin="round"/>
<path d="M17.625 20.25C17.625 20.0429 17.7929 19.875 18 19.875" stroke="black" stroke-width="1.5" stroke-linecap="round" stroke-linejoin="round"/>
<path d="M18 20.625C17.7929 20.625 17.625 20.4571 17.625 20.25" stroke="black" stroke-width="1.5" stroke-linecap="round" stroke-linejoin="round"/>
<path d="M18.375 20.25C18.375 20.4571 18.2071 20.625 18 20.625" stroke="black" stroke-width="1.5" stroke-linecap="round" stroke-linejoin="round"/>
</svg>
