<svg width="24" height="24" viewBox="0 0 24 24" fill="none" xmlns="http://www.w3.org/2000/svg">
<path d="M12.511 1.95998C12.4358 1.57093 12.2089 1.22775 11.8805 1.00605C11.5521 0.784342 11.149 0.702295 10.76 0.777981L1.96 2.48598C1.15163 2.64614 0.623839 3.42844 0.777999 4.23798L3.341 17.438C3.4982 18.2479 4.28209 18.777 5.092 18.62L5.917 18.46" stroke="black" stroke-width="1.5" stroke-linecap="round" stroke-linejoin="round"/>
<path d="M8.357 6.836L6.726 10.197L7.479 10.877" stroke="black" stroke-width="1.5" stroke-linecap="round" stroke-linejoin="round"/>
<path d="M3.487 4.47197C3.58506 4.45298 3.68664 4.47401 3.7691 4.53036C3.85156 4.58672 3.90806 4.67371 3.926 4.77197" stroke="black" stroke-width="1.5" stroke-linecap="round" stroke-linejoin="round"/>
<path d="M3.19 4.91098C3.17101 4.81293 3.19204 4.71135 3.24839 4.62889C3.30475 4.54642 3.39174 4.48993 3.49 4.47198" stroke="black" stroke-width="1.5" stroke-linecap="round" stroke-linejoin="round"/>
<path d="M3.629 5.20796C3.53097 5.22666 3.42953 5.20552 3.34714 5.14922C3.26474 5.09291 3.20819 5.00608 3.19 4.90796" stroke="black" stroke-width="1.5" stroke-linecap="round" stroke-linejoin="round"/>
<path d="M3.926 4.76801C3.945 4.86618 3.924 4.96788 3.86767 5.0505C3.81133 5.13313 3.72433 5.18983 3.626 5.20801" stroke="black" stroke-width="1.5" stroke-linecap="round" stroke-linejoin="round"/>
<path fill-rule="evenodd" clip-rule="evenodd" d="M11.5112 5.93002C11.6206 5.38868 12.1481 5.03849 12.6894 5.14787L22.443 7.11848C22.9843 7.22786 23.3345 7.75537 23.2251 8.29672L20.3671 22.4426C20.2577 22.984 19.7302 23.3342 19.1888 23.2248L9.43529 21.2542C8.89394 21.1448 8.54376 20.6173 8.65313 20.0759L11.5112 5.93002Z" stroke="black" stroke-width="1.4997" stroke-linecap="round" stroke-linejoin="round"/>
<path d="M15.35 17.118L15.646 15.654" stroke="black" stroke-width="1.5" stroke-linecap="round" stroke-linejoin="round"/>
<path fill-rule="evenodd" clip-rule="evenodd" d="M16.682 10.528C16.682 10.528 14.189 11.549 13.893 13.013C13.6478 14.2263 14.4326 15.4087 15.646 15.654C16.8594 15.8992 18.0418 15.1143 18.287 13.901C18.583 12.436 16.682 10.528 16.682 10.528Z" stroke="black" stroke-width="1.5" stroke-linecap="round" stroke-linejoin="round"/>
<path d="M13.831 7.664C14.034 7.70516 14.1651 7.90304 14.124 8.106" stroke="black" stroke-width="1.5" stroke-linecap="round" stroke-linejoin="round"/>
<path d="M13.389 7.95698C13.4302 7.75402 13.628 7.62285 13.831 7.66398" stroke="black" stroke-width="1.5" stroke-linecap="round" stroke-linejoin="round"/>
<path d="M13.682 8.40001C13.479 8.35885 13.3479 8.16097 13.389 7.95801" stroke="black" stroke-width="1.5" stroke-linecap="round" stroke-linejoin="round"/>
<path d="M14.124 8.10596C14.0828 8.30891 13.885 8.44009 13.682 8.39896" stroke="black" stroke-width="1.5" stroke-linecap="round" stroke-linejoin="round"/>
<path d="M18.2 19.979C18.403 20.0202 18.5341 20.218 18.493 20.421" stroke="black" stroke-width="1.5" stroke-linecap="round" stroke-linejoin="round"/>
<path d="M17.76 20.272C17.8012 20.069 17.999 19.9378 18.202 19.979" stroke="black" stroke-width="1.5" stroke-linecap="round" stroke-linejoin="round"/>
<path d="M18.053 20.714C17.8504 20.6723 17.7195 20.4748 17.76 20.272" stroke="black" stroke-width="1.5" stroke-linecap="round" stroke-linejoin="round"/>
<path d="M18.5 20.421C18.4588 20.6239 18.261 20.7551 18.058 20.714" stroke="black" stroke-width="1.5" stroke-linecap="round" stroke-linejoin="round"/>
</svg>
