<svg width="24" height="24" viewBox="0 0 24 24" fill="none" xmlns="http://www.w3.org/2000/svg">
<path fill-rule="evenodd" clip-rule="evenodd" d="M12.75 13.75C12.75 13.1977 13.1977 12.75 13.75 12.75H22.25C22.8023 12.75 23.25 13.1977 23.25 13.75V22.25C23.25 22.8023 22.8023 23.25 22.25 23.25H13.75C13.1977 23.25 12.75 22.8023 12.75 22.25V13.75Z" stroke="black" stroke-width="1.5" stroke-linecap="round" stroke-linejoin="round"/>
<path d="M19.875 15.75C20.0821 15.75 20.25 15.9179 20.25 16.125" stroke="black" stroke-width="1.5" stroke-linecap="round" stroke-linejoin="round"/>
<path d="M19.5 16.125C19.5 15.9179 19.6679 15.75 19.875 15.75" stroke="black" stroke-width="1.5" stroke-linecap="round" stroke-linejoin="round"/>
<path d="M19.875 16.5C19.6679 16.5 19.5 16.3321 19.5 16.125" stroke="black" stroke-width="1.5" stroke-linecap="round" stroke-linejoin="round"/>
<path d="M20.25 16.125C20.25 16.3321 20.0821 16.5 19.875 16.5" stroke="black" stroke-width="1.5" stroke-linecap="round" stroke-linejoin="round"/>
<path d="M16.125 15.75C16.3321 15.75 16.5 15.9179 16.5 16.125" stroke="black" stroke-width="1.5" stroke-linecap="round" stroke-linejoin="round"/>
<path d="M15.75 16.125C15.75 15.9179 15.9179 15.75 16.125 15.75" stroke="black" stroke-width="1.5" stroke-linecap="round" stroke-linejoin="round"/>
<path d="M16.125 16.5C15.9179 16.5 15.75 16.3321 15.75 16.125" stroke="black" stroke-width="1.5" stroke-linecap="round" stroke-linejoin="round"/>
<path d="M16.5 16.125C16.5 16.3321 16.3321 16.5 16.125 16.5" stroke="black" stroke-width="1.5" stroke-linecap="round" stroke-linejoin="round"/>
<path d="M16.125 19.5C16.3321 19.5 16.5 19.6679 16.5 19.875" stroke="black" stroke-width="1.5" stroke-linecap="round" stroke-linejoin="round"/>
<path d="M15.75 19.875C15.75 19.6679 15.9179 19.5 16.125 19.5" stroke="black" stroke-width="1.5" stroke-linecap="round" stroke-linejoin="round"/>
<path d="M16.125 20.25C15.9179 20.25 15.75 20.0821 15.75 19.875" stroke="black" stroke-width="1.5" stroke-linecap="round" stroke-linejoin="round"/>
<path d="M16.5 19.875C16.5 20.0821 16.3321 20.25 16.125 20.25" stroke="black" stroke-width="1.5" stroke-linecap="round" stroke-linejoin="round"/>
<path d="M19.875 19.5C20.0821 19.5 20.25 19.6679 20.25 19.875" stroke="black" stroke-width="1.5" stroke-linecap="round" stroke-linejoin="round"/>
<path d="M19.5 19.875C19.5 19.6679 19.6679 19.5 19.875 19.5" stroke="black" stroke-width="1.5" stroke-linecap="round" stroke-linejoin="round"/>
<path d="M19.875 20.25C19.6679 20.25 19.5 20.0821 19.5 19.875" stroke="black" stroke-width="1.5" stroke-linecap="round" stroke-linejoin="round"/>
<path d="M20.25 19.875C20.25 20.0821 20.0821 20.25 19.875 20.25" stroke="black" stroke-width="1.5" stroke-linecap="round" stroke-linejoin="round"/>
<path d="M9.75 19.11L6.871 20.159C6.49667 20.295 6.0836 20.2766 5.72287 20.1078C5.36214 19.939 5.08337 19.6336 4.948 19.259L0.841002 7.98802C0.704977 7.61368 0.723411 7.20062 0.892239 6.83989C1.06107 6.47916 1.36643 6.20038 1.741 6.06502L8.25 3.69202" stroke="black" stroke-width="1.5" stroke-linecap="round" stroke-linejoin="round"/>
<path d="M18.75 12.75V2.25C18.75 1.42157 18.0784 0.75 17.25 0.75H9.75C8.92157 0.75 8.25 1.42157 8.25 2.25V14.25C8.25 15.0784 8.92157 15.75 9.75 15.75H12.75" stroke="black" stroke-width="1.5" stroke-linecap="round" stroke-linejoin="round"/>
<path fill-rule="evenodd" clip-rule="evenodd" d="M13.5 10.5C14.7426 10.5 15.75 9.49264 15.75 8.25C15.75 7.00736 14.7426 6 13.5 6C12.2574 6 11.25 7.00736 11.25 8.25C11.25 9.49264 12.2574 10.5 13.5 10.5Z" stroke="black" stroke-width="1.5" stroke-linecap="round" stroke-linejoin="round"/>
</svg>
