<svg width="24" height="24" viewBox="0 0 24 24" fill="none" xmlns="http://www.w3.org/2000/svg">
<path d="M9.75 19.11L6.871 20.159C6.49666 20.295 6.0836 20.2766 5.72287 20.1078C5.36214 19.939 5.08336 19.6336 4.948 19.259L0.840998 7.98802C0.704973 7.61368 0.723407 7.20062 0.892235 6.83989C1.06106 6.47916 1.36642 6.20038 1.741 6.06502L8.25 3.69202" stroke="black" stroke-width="1.5" stroke-linecap="round" stroke-linejoin="round"/>
<path d="M18.75 12.75V2.25C18.75 1.42157 18.0784 0.75 17.25 0.75H9.75C8.92157 0.75 8.25 1.42157 8.25 2.25V14.25C8.25 15.0784 8.92157 15.75 9.75 15.75H10.5" stroke="black" stroke-width="1.5" stroke-linecap="round" stroke-linejoin="round"/>
<path fill-rule="evenodd" clip-rule="evenodd" d="M13.5 10.5C14.7426 10.5 15.75 9.49264 15.75 8.25C15.75 7.00736 14.7426 6 13.5 6C12.2574 6 11.25 7.00736 11.25 8.25C11.25 9.49264 12.2574 10.5 13.5 10.5Z" stroke="black" stroke-width="1.5" stroke-linecap="round" stroke-linejoin="round"/>
<path fill-rule="evenodd" clip-rule="evenodd" d="M17.92 22.7C17.833 23.0188 17.5477 23.2431 17.2173 23.2523C16.887 23.2615 16.5896 23.0535 16.485 22.74L13.3 14.252C13.2099 13.9824 13.28 13.685 13.481 13.484C13.682 13.283 13.9794 13.2129 14.249 13.303L22.734 16.485C23.0475 16.5896 23.2555 16.887 23.2463 17.2173C23.2371 17.5477 23.0128 17.833 22.694 17.92L18.785 18.788L17.92 22.7Z" stroke="black" stroke-width="1.5" stroke-linecap="round" stroke-linejoin="round"/>
</svg>
