<svg width="24" height="24" viewBox="0 0 24 24" fill="none" xmlns="http://www.w3.org/2000/svg">
<path fill-rule="evenodd" clip-rule="evenodd" d="M3 1.75C3 1.19772 3.44772 0.75 4 0.75H20C20.5523 0.75 21 1.19772 21 1.75V22.25C21 22.8023 20.5523 23.25 20 23.25H4C3.44772 23.25 3 22.8023 3 22.25V1.75Z" stroke="black" stroke-width="1.5" stroke-linecap="round" stroke-linejoin="round"/>
<path d="M6 3.375C6.20711 3.375 6.375 3.54289 6.375 3.75" stroke="black" stroke-width="1.5" stroke-linecap="round" stroke-linejoin="round"/>
<path d="M5.625 3.75C5.625 3.54289 5.79289 3.375 6 3.375" stroke="black" stroke-width="1.5" stroke-linecap="round" stroke-linejoin="round"/>
<path d="M6 4.125C5.79289 4.125 5.625 3.95711 5.625 3.75" stroke="black" stroke-width="1.5" stroke-linecap="round" stroke-linejoin="round"/>
<path d="M6.375 3.75C6.375 3.95711 6.20711 4.125 6 4.125" stroke="black" stroke-width="1.5" stroke-linecap="round" stroke-linejoin="round"/>
<path d="M18 19.875C18.2071 19.875 18.375 20.0429 18.375 20.25" stroke="black" stroke-width="1.5" stroke-linecap="round" stroke-linejoin="round"/>
<path d="M17.625 20.25C17.625 20.0429 17.7929 19.875 18 19.875" stroke="black" stroke-width="1.5" stroke-linecap="round" stroke-linejoin="round"/>
<path d="M18 20.625C17.7929 20.625 17.625 20.4571 17.625 20.25" stroke="black" stroke-width="1.5" stroke-linecap="round" stroke-linejoin="round"/>
<path d="M18.375 20.25C18.375 20.4571 18.2071 20.625 18 20.625" stroke="black" stroke-width="1.5" stroke-linecap="round" stroke-linejoin="round"/>
<path fill-rule="evenodd" clip-rule="evenodd" d="M12.75 8.58398C12.6109 8.37536 12.3767 8.25006 12.126 8.25006C11.8753 8.25006 11.6411 8.37536 11.502 8.58398L9.126 11.918C8.95807 12.1699 8.95807 12.4981 9.126 12.75L11.5 16.084C11.6391 16.2926 11.8733 16.4179 12.124 16.4179C12.3747 16.4179 12.6089 16.2926 12.748 16.084L15.124 12.75C15.2919 12.4981 15.2919 12.1699 15.124 11.918L12.75 8.58398Z" stroke="black" stroke-width="1.5" stroke-linecap="round" stroke-linejoin="round"/>
</svg>
