<svg width="24" height="24" viewBox="0 0 24 24" fill="none" xmlns="http://www.w3.org/2000/svg">
<path d="M6.7121 6.02301L1.9261 7.05501C1.12126 7.2301 0.610252 8.0239 0.7841 8.82901L3.6261 21.948C3.80119 22.7529 4.59499 23.2639 5.4001 23.09L12.3771 21.578" stroke="black" stroke-width="1.5" stroke-linecap="round" stroke-linejoin="round"/>
<path d="M3.4931 9.00003C3.59018 8.97896 3.69165 8.99737 3.77514 9.05122C3.85862 9.10506 3.91725 9.1899 3.9381 9.28703" stroke="black" stroke-width="1.5" stroke-linecap="round" stroke-linejoin="round"/>
<path d="M3.2061 9.449C3.18383 9.35134 3.20167 9.24883 3.25562 9.16443C3.30956 9.08003 3.39511 9.02079 3.4931 9" stroke="black" stroke-width="1.5" stroke-linecap="round" stroke-linejoin="round"/>
<path d="M3.6511 9.73597C3.55402 9.75705 3.45255 9.73863 3.36906 9.68479C3.28558 9.63094 3.22695 9.5461 3.2061 9.44897" stroke="black" stroke-width="1.5" stroke-linecap="round" stroke-linejoin="round"/>
<path d="M3.9381 9.28998C3.95919 9.38718 3.9408 9.48878 3.88698 9.57242C3.83315 9.65607 3.7483 9.7149 3.6511 9.73598" stroke="black" stroke-width="1.5" stroke-linecap="round" stroke-linejoin="round"/>
<path fill-rule="evenodd" clip-rule="evenodd" d="M11.8327 5.20326C12.0004 4.67706 12.5629 4.38646 13.0891 4.55419L22.552 7.57054C23.0782 7.73827 23.3688 8.30081 23.2011 8.82701L18.8257 22.5535C18.6579 23.0797 18.0954 23.3703 17.5692 23.2026L8.10631 20.1862C7.58011 20.0185 7.28952 19.456 7.45725 18.9298L11.8327 5.20326Z" stroke="black" stroke-width="1.5" stroke-linecap="round" stroke-linejoin="round"/>
<path fill-rule="evenodd" clip-rule="evenodd" d="M16.2351 11.036L13.1981 13.199L14.4231 16.721L17.4611 14.558L16.2351 11.036V11.036Z" stroke="black" stroke-width="1.5" stroke-linecap="round" stroke-linejoin="round"/>
<path d="M13.9441 7.17297C14.1412 7.23607 14.2502 7.44658 14.1881 7.64397" stroke="black" stroke-width="1.5" stroke-linecap="round" stroke-linejoin="round"/>
<path d="M13.4731 7.41601C13.5362 7.21894 13.7469 7.11019 13.9441 7.17301" stroke="black" stroke-width="1.5" stroke-linecap="round" stroke-linejoin="round"/>
<path d="M13.7171 7.88702C13.6221 7.85716 13.543 7.79067 13.4972 7.70226C13.4514 7.61385 13.4427 7.51083 13.4731 7.41602" stroke="black" stroke-width="1.5" stroke-linecap="round" stroke-linejoin="round"/>
<path d="M14.1881 7.64398C14.125 7.84106 13.9143 7.9498 13.7171 7.88698" stroke="black" stroke-width="1.5" stroke-linecap="round" stroke-linejoin="round"/>
<path d="M16.9421 19.869C17.1392 19.9321 17.2479 20.1429 17.1851 20.34" stroke="black" stroke-width="1.5" stroke-linecap="round" stroke-linejoin="round"/>
<path d="M16.4711 20.113C16.5342 19.9159 16.7447 19.8069 16.9421 19.869" stroke="black" stroke-width="1.5" stroke-linecap="round" stroke-linejoin="round"/>
<path d="M16.7141 20.584C16.517 20.5209 16.4083 20.3101 16.4711 20.113" stroke="black" stroke-width="1.5" stroke-linecap="round" stroke-linejoin="round"/>
<path d="M17.1851 20.34C17.155 20.4349 17.0885 20.5138 17.0002 20.5596C16.9118 20.6054 16.8089 20.6142 16.7141 20.584" stroke="black" stroke-width="1.5" stroke-linecap="round" stroke-linejoin="round"/>
<path d="M18.6481 6.326V2.243C18.6171 1.42912 17.9621 0.7777 17.1481 0.751003H8.3001C7.45911 0.739529 6.75866 1.39323 6.7121 2.233V15.657C6.70764 16.4151 7.27244 17.0561 8.0251 17.147" stroke="black" stroke-width="1.5" stroke-linecap="round" stroke-linejoin="round"/>
<path d="M9.4001 2.99402C9.49946 2.99455 9.59454 3.0346 9.66433 3.10533C9.73412 3.17606 9.7729 3.27165 9.7721 3.37102" stroke="black" stroke-width="1.5" stroke-linecap="round" stroke-linejoin="round"/>
<path d="M9.0261 3.36602C9.02774 3.16047 9.19455 2.99456 9.4001 2.99402" stroke="black" stroke-width="1.5" stroke-linecap="round" stroke-linejoin="round"/>
<path d="M9.4001 3.74403C9.19306 3.74183 9.02654 3.57308 9.0271 3.36603" stroke="black" stroke-width="1.5" stroke-linecap="round" stroke-linejoin="round"/>
<path d="M9.7761 3.37103C9.77557 3.47049 9.73555 3.56566 9.66485 3.63561C9.59415 3.70556 9.49856 3.74456 9.3991 3.74403" stroke="black" stroke-width="1.5" stroke-linecap="round" stroke-linejoin="round"/>
</svg>
