<svg width="24" height="25" viewBox="0 0 24 25" fill="none" xmlns="http://www.w3.org/2000/svg">
<path fill-rule="evenodd" clip-rule="evenodd" d="M11.8613 6.75098C13.5182 6.75098 14.8613 5.40783 14.8613 3.75098C14.8613 2.09412 13.5182 0.750977 11.8613 0.750977C10.2044 0.750977 8.8613 2.09412 8.8613 3.75098C8.8613 5.40783 10.2044 6.75098 11.8613 6.75098Z" stroke="black" stroke-width="1.5" stroke-linecap="round" stroke-linejoin="round"/>
<path d="M8.8613 3.75098L6.1723 11.677" stroke="black" stroke-width="1.5" stroke-linecap="round" stroke-linejoin="round"/>
<path fill-rule="evenodd" clip-rule="evenodd" d="M5.1393 21.722C4.88819 22.4925 4.2422 23.0684 3.44809 23.2297C2.65399 23.3911 1.83446 23.113 1.30257 22.5016C0.770691 21.8903 0.60863 21.0402 0.878299 20.276L3.5593 12.376C3.82571 11.593 4.67567 11.1734 5.4593 11.438L6.8793 11.92C7.66272 12.186 8.08285 13.0361 7.8183 13.82L5.1393 21.722Z" stroke="black" stroke-width="1.5" stroke-linecap="round" stroke-linejoin="round"/>
<path d="M14.8613 3.75098L17.5513 11.677" stroke="black" stroke-width="1.5" stroke-linecap="round" stroke-linejoin="round"/>
<path fill-rule="evenodd" clip-rule="evenodd" d="M18.5843 21.722C18.8354 22.4925 19.4814 23.0684 20.2755 23.2297C21.0696 23.3911 21.8891 23.113 22.421 22.5016C22.9529 21.8903 23.115 21.0402 22.8453 20.276L20.1643 12.376C19.8979 11.593 19.0479 11.1734 18.2643 11.438L16.8443 11.92C16.0609 12.186 15.6407 13.0361 15.9053 13.82L18.5843 21.722Z" stroke="black" stroke-width="1.5" stroke-linecap="round" stroke-linejoin="round"/>
</svg>
