<svg width="24" height="24" viewBox="0 0 24 24" fill="none" xmlns="http://www.w3.org/2000/svg">
<path fill-rule="evenodd" clip-rule="evenodd" d="M11.4 13.2C10.8334 12.4446 9.94427 12 9 12H6C3.10051 12 0.75 14.3505 0.75 17.25C0.75 20.1495 3.10051 22.5 6 22.5H21C22.2426 22.5 23.25 21.4926 23.25 20.25C23.25 19.0074 22.2426 18 21 18H16.5C15.5557 18 14.6666 17.5554 14.1 16.8L11.4 13.2Z" stroke="black" stroke-width="1.5" stroke-linecap="round" stroke-linejoin="round"/>
<path d="M6.75 16.5L9 19.5" stroke="black" stroke-width="1.5" stroke-linecap="round" stroke-linejoin="round"/>
<path d="M13.433 15.911L15.355 8.947C15.5881 8.09256 16.3643 7.49988 17.25 7.5H20.25C21.9069 7.5 23.25 6.15685 23.25 4.5C23.25 2.84315 21.9069 1.5 20.25 1.5H14.25" stroke="black" stroke-width="1.5" stroke-linecap="round" stroke-linejoin="round"/>
<path d="M2.25 7.5H8.25" stroke="black" stroke-width="1.5" stroke-linecap="round" stroke-linejoin="round"/>
<path d="M4.5 7.5L7.5 12" stroke="black" stroke-width="1.5" stroke-linecap="round" stroke-linejoin="round"/>
</svg>
