<svg width="24" height="24" viewBox="0 0 24 24" fill="none" xmlns="http://www.w3.org/2000/svg">
<path fill-rule="evenodd" clip-rule="evenodd" d="M6 12.75C5.17157 12.75 4.5 13.4216 4.5 14.25V21C4.5 22.2426 5.50736 23.25 6.75 23.25C7.99264 23.25 9 22.2426 9 21V14.25C9 13.4216 8.32843 12.75 7.5 12.75H6Z" stroke="black" stroke-width="1.5" stroke-linecap="round" stroke-linejoin="round"/>
<path fill-rule="evenodd" clip-rule="evenodd" d="M12 5.25C13.2426 5.25 14.25 4.24264 14.25 3C14.25 1.75736 13.2426 0.75 12 0.75C10.7574 0.75 9.75 1.75736 9.75 3C9.75 4.24264 10.7574 5.25 12 5.25Z" stroke="black" stroke-width="1.5" stroke-linecap="round" stroke-linejoin="round"/>
<path d="M6.75 12.75C6.54195 9.33303 8.71821 6.22408 12 5.25" stroke="black" stroke-width="1.5" stroke-linecap="round" stroke-linejoin="round"/>
<path fill-rule="evenodd" clip-rule="evenodd" d="M18 12.75C18.8284 12.75 19.5 13.4216 19.5 14.25V21C19.5 22.2426 18.4926 23.25 17.25 23.25C16.0074 23.25 15 22.2426 15 21V14.25C15 13.4216 15.6716 12.75 16.5 12.75H18Z" stroke="black" stroke-width="1.5" stroke-linecap="round" stroke-linejoin="round"/>
<path d="M17.25 12.75C17.458 9.33303 15.2818 6.22408 12 5.25" stroke="black" stroke-width="1.5" stroke-linecap="round" stroke-linejoin="round"/>
</svg>
