<svg width="24" height="24" viewBox="0 0 24 24" fill="none" xmlns="http://www.w3.org/2000/svg">
<path d="M5.25 4.75H18.75" stroke="black" stroke-width="1.5" stroke-linecap="round" stroke-linejoin="round"/>
<path fill-rule="evenodd" clip-rule="evenodd" d="M0.75 2C0.75 1.44772 1.19772 1 1.75 1H4.25C4.80228 1 5.25 1.44772 5.25 2V7.5C5.25 8.05228 4.80228 8.5 4.25 8.5H1.75C1.19772 8.5 0.75 8.05228 0.75 7.5V2Z" stroke="black" stroke-width="1.5" stroke-linecap="round" stroke-linejoin="round"/>
<path fill-rule="evenodd" clip-rule="evenodd" d="M18.75 2C18.75 1.44772 19.1977 1 19.75 1H22.25C22.8023 1 23.25 1.44772 23.25 2V7.5C23.25 8.05228 22.8023 8.5 22.25 8.5H19.75C19.1977 8.5 18.75 8.05228 18.75 7.5V2Z" stroke="black" stroke-width="1.5" stroke-linecap="round" stroke-linejoin="round"/>
<path d="M8.25 2.5V14.5" stroke="black" stroke-width="1.5" stroke-linecap="round" stroke-linejoin="round"/>
<path d="M15.75 2.5V14.5" stroke="black" stroke-width="1.5" stroke-linecap="round" stroke-linejoin="round"/>
<path d="M6 17.5H18" stroke="black" stroke-width="1.5" stroke-linecap="round" stroke-linejoin="round"/>
<path d="M8.25 22.75L9.75 17.5" stroke="black" stroke-width="1.5" stroke-linecap="round" stroke-linejoin="round"/>
<path d="M15.75 22.75L14.25 17.5" stroke="black" stroke-width="1.5" stroke-linecap="round" stroke-linejoin="round"/>
</svg>
