<svg width="24" height="24" viewBox="0 0 24 24" fill="none" xmlns="http://www.w3.org/2000/svg">
<path fill-rule="evenodd" clip-rule="evenodd" d="M23.25 19.5C23.25 21.5711 21.5711 23.25 19.5 23.25H6.75C3.43629 23.25 0.75 20.5637 0.75 17.25C0.859236 13.9826 3.48261 11.3592 6.75 11.25C10.5 11.25 23.25 15.75 23.25 19.5Z" stroke="black" stroke-width="1.5" stroke-linecap="round" stroke-linejoin="round"/>
<path d="M15.75 0.75H18.209C19.0908 0.750063 19.9279 1.13806 20.4978 1.81088C21.0678 2.4837 21.3129 3.3732 21.168 4.243L19.308 15.4" stroke="black" stroke-width="1.5" stroke-linecap="round" stroke-linejoin="round"/>
<path fill-rule="evenodd" clip-rule="evenodd" d="M6.75 19.5C7.99264 19.5 9 18.4926 9 17.25C9 16.0074 7.99264 15 6.75 15C5.50736 15 4.5 16.0074 4.5 17.25C4.5 18.4926 5.50736 19.5 6.75 19.5Z" stroke="black" stroke-width="1.5" stroke-linecap="round" stroke-linejoin="round"/>
<path d="M9 17.25H12" stroke="black" stroke-width="1.5" stroke-linecap="round" stroke-linejoin="round"/>
<path fill-rule="evenodd" clip-rule="evenodd" d="M4.5 6.75C3.17949 6.75 2.109 7.82049 2.109 9.141C2.109 10.4615 3.17949 11.532 4.5 11.532C6 11.532 11.25 9.821 11.25 8.25C11.25 7.42157 10.5784 6.75 9.75 6.75L4.5 6.75Z" stroke="black" stroke-width="1.5" stroke-linecap="round" stroke-linejoin="round"/>
</svg>
