<svg width="24" height="24" viewBox="0 0 24 24" fill="none" xmlns="http://www.w3.org/2000/svg">
<path fill-rule="evenodd" clip-rule="evenodd" d="M0.75 18.25C0.75 17.6977 1.19772 17.25 1.75 17.25H5.75C6.30228 17.25 6.75 17.6977 6.75 18.25V22.25C6.75 22.8023 6.30228 23.25 5.75 23.25H1.75C1.19772 23.25 0.75 22.8023 0.75 22.25V18.25Z" stroke="black" stroke-width="1.5" stroke-linecap="round" stroke-linejoin="round"/>
<path fill-rule="evenodd" clip-rule="evenodd" d="M17.25 18.25C17.25 17.6977 17.6977 17.25 18.25 17.25H22.25C22.8023 17.25 23.25 17.6977 23.25 18.25V22.25C23.25 22.8023 22.8023 23.25 22.25 23.25H18.25C17.6977 23.25 17.25 22.8023 17.25 22.25V18.25Z" stroke="black" stroke-width="1.5" stroke-linecap="round" stroke-linejoin="round"/>
<path d="M12 23.25V0.75" stroke="black" stroke-width="1.5" stroke-linecap="round" stroke-linejoin="round"/>
<path d="M17.25 20.25H6.75" stroke="black" stroke-width="1.5" stroke-linecap="round" stroke-linejoin="round"/>
<path fill-rule="evenodd" clip-rule="evenodd" d="M2.25 10.25C2.25 9.97386 2.47386 9.75 2.75 9.75H6.25C6.52614 9.75 6.75 9.97386 6.75 10.25V13.75C6.75 14.0261 6.52614 14.25 6.25 14.25H2.75C2.47386 14.25 2.25 14.0261 2.25 13.75V10.25Z" stroke="black" stroke-width="1.5" stroke-linecap="round" stroke-linejoin="round"/>
<path fill-rule="evenodd" clip-rule="evenodd" d="M17.25 10.25C17.25 9.97386 17.4739 9.75 17.75 9.75H21.25C21.5261 9.75 21.75 9.97386 21.75 10.25V13.75C21.75 14.0261 21.5261 14.25 21.25 14.25H17.75C17.4739 14.25 17.25 14.0261 17.25 13.75V10.25Z" stroke="black" stroke-width="1.5" stroke-linecap="round" stroke-linejoin="round"/>
<path d="M17.25 12H6.75" stroke="black" stroke-width="1.5" stroke-linecap="round" stroke-linejoin="round"/>
<path fill-rule="evenodd" clip-rule="evenodd" d="M3 2.75C3 2.47386 3.22386 2.25 3.5 2.25H6.25C6.52614 2.25 6.75 2.47386 6.75 2.75V6.25C6.75 6.52614 6.52614 6.75 6.25 6.75H3.5C3.22386 6.75 3 6.52614 3 6.25V2.75Z" stroke="black" stroke-width="1.5" stroke-linecap="round" stroke-linejoin="round"/>
<path fill-rule="evenodd" clip-rule="evenodd" d="M17.25 2.75C17.25 2.47386 17.4739 2.25 17.75 2.25H20.5C20.7761 2.25 21 2.47386 21 2.75V6.25C21 6.52614 20.7761 6.75 20.5 6.75H17.75C17.4739 6.75 17.25 6.52614 17.25 6.25V2.75Z" stroke="black" stroke-width="1.5" stroke-linecap="round" stroke-linejoin="round"/>
<path d="M17.25 4.5H6.75" stroke="black" stroke-width="1.5" stroke-linecap="round" stroke-linejoin="round"/>
</svg>
