<svg width="24" height="24" viewBox="0 0 24 24" fill="none" xmlns="http://www.w3.org/2000/svg">
<path fill-rule="evenodd" clip-rule="evenodd" d="M22.651 5.35699C21.8235 3.73811 20.2734 2.6111 18.4782 2.3232C16.683 2.03531 14.8582 2.62106 13.566 3.89999L12 5.32899L10.434 3.89999C9.14135 2.62128 7.31622 2.036 5.521 2.3245C3.72579 2.613 2.17593 3.74066 1.349 5.35999C0.257062 7.5234 0.686608 10.1443 2.412 11.846L12 21.75L21.588 11.843C23.3134 10.1413 23.7429 7.5204 22.651 5.35699Z" stroke="black" stroke-width="1.5" stroke-linecap="round" stroke-linejoin="round"/>
<path d="M5.25 10.5H8.018C8.16012 10.5 8.29012 10.58 8.354 10.707L10.127 14.253C10.1931 14.3847 10.3303 14.4656 10.4775 14.4595C10.6248 14.4535 10.7549 14.3617 10.81 14.225L13.19 8.275C13.2451 8.13828 13.3752 8.04652 13.5225 8.04048C13.6697 8.03444 13.8069 8.11525 13.873 8.247L14.9 10.293C14.9639 10.42 15.0939 10.5 15.236 10.5H18.75" stroke="black" stroke-width="1.5" stroke-linecap="round" stroke-linejoin="round"/>
</svg>
