<svg width="24" height="24" viewBox="0 0 24 24" fill="none" xmlns="http://www.w3.org/2000/svg">
<path fill-rule="evenodd" clip-rule="evenodd" d="M5.25 21C5.25 22.2426 4.24264 23.25 3 23.25C1.75736 23.25 0.75 22.2426 0.75 21V13.5C0.75 13.0858 1.08579 12.75 1.5 12.75H4.5C4.91421 12.75 5.25 13.0858 5.25 13.5V21Z" stroke="black" stroke-width="1.5" stroke-linecap="round" stroke-linejoin="round"/>
<path fill-rule="evenodd" clip-rule="evenodd" d="M18.75 3C18.75 1.75736 19.7574 0.75 21 0.75C22.2426 0.75 23.25 1.75736 23.25 3V10.5C23.25 10.9142 22.9142 11.25 22.5 11.25H19.5C19.0858 11.25 18.75 10.9142 18.75 10.5L18.75 3Z" stroke="black" stroke-width="1.5" stroke-linecap="round" stroke-linejoin="round"/>
<path d="M3 12.75V5.25C3 2.76472 5.01472 0.75 7.5 0.75C9.98528 0.75 12 2.76472 12 5.25V18.75C12 21.2353 14.0147 23.25 16.5 23.25C18.9853 23.25 21 21.2353 21 18.75V11.25" stroke="black" stroke-width="1.5" stroke-linecap="round" stroke-linejoin="round"/>
<path d="M0.75 15.75H5.25" stroke="black" stroke-width="1.5" stroke-linecap="round" stroke-linejoin="round"/>
<path d="M18.75 8.25H23.25" stroke="black" stroke-width="1.5" stroke-linecap="round" stroke-linejoin="round"/>
</svg>
