<svg width="24" height="24" viewBox="0 0 24 24" fill="none" xmlns="http://www.w3.org/2000/svg">
<path fill-rule="evenodd" clip-rule="evenodd" d="M23.25 18.987C23.25 21.0653 21.5652 22.75 19.487 22.75H6.059C4.01758 22.7483 2.15795 21.5763 1.27575 19.7353C0.393543 17.8944 0.645048 15.7106 1.92265 14.1184C3.20026 12.5262 5.27764 11.8076 7.266 12.27L20.342 15.321C22.0454 15.7188 23.2503 17.2378 23.25 18.987V18.987Z" stroke="black" stroke-width="1.5" stroke-linecap="round" stroke-linejoin="round"/>
<path d="M7.5 17.5L16.561 18.708C17.0534 18.7734 17.5462 18.5909 17.8771 18.2205C18.2081 17.8501 18.3342 17.3399 18.214 16.858L14.25 1" stroke="black" stroke-width="1.5" stroke-linecap="round" stroke-linejoin="round"/>
<path d="M12.88 13.58L20.25 1.75" stroke="black" stroke-width="1.5" stroke-linecap="round" stroke-linejoin="round"/>
<path d="M6.75 19.75V19.75C5.50736 19.75 4.5 18.7426 4.5 17.5C4.5 16.2574 5.50736 15.25 6.75 15.25" stroke="black" stroke-width="1.5" stroke-linecap="round" stroke-linejoin="round"/>
</svg>
