<svg width="24" height="24" viewBox="0 0 24 24" fill="none" xmlns="http://www.w3.org/2000/svg">
<path fill-rule="evenodd" clip-rule="evenodd" d="M16.3207 1.19223C15.7351 1.77798 15.7351 2.72748 16.3207 3.31323L20.6917 7.68423C21.2774 8.27021 22.2272 8.27043 22.8132 7.68473C23.3992 7.09903 23.3994 6.14921 22.8137 5.56323L18.4417 1.19223C17.8559 0.606659 16.9064 0.606659 16.3207 1.19223Z" stroke="black" stroke-width="1.5" stroke-linecap="round" stroke-linejoin="round"/>
<path fill-rule="evenodd" clip-rule="evenodd" d="M12.0777 1.19118C11.7962 1.47252 11.638 1.85419 11.638 2.25218C11.638 2.65017 11.7962 3.03185 12.0777 3.31318L20.6927 11.9282C21.2795 12.5139 22.23 12.513 22.8157 11.9262C23.4014 11.3394 23.4005 10.3889 22.8137 9.80318L14.2027 1.19118C13.9212 0.908751 13.5389 0.75 13.1402 0.75C12.7415 0.75 12.3591 0.908751 12.0777 1.19118Z" stroke="black" stroke-width="1.5" stroke-linecap="round" stroke-linejoin="round"/>
<path fill-rule="evenodd" clip-rule="evenodd" d="M1.19168 16.3211C1.47301 16.0396 1.85469 15.8815 2.25268 15.8815C2.65067 15.8815 3.03235 16.0396 3.31368 16.3211L7.68468 20.6921C8.25314 21.2807 8.24501 22.2163 7.66641 22.7949C7.08781 23.3735 6.15225 23.3816 5.56368 22.8131L1.19168 18.4421C0.606109 17.8564 0.606109 16.9069 1.19168 16.3211Z" stroke="black" stroke-width="1.5" stroke-linecap="round" stroke-linejoin="round"/>
<path fill-rule="evenodd" clip-rule="evenodd" d="M1.19168 12.0772C1.77743 11.4917 2.72693 11.4917 3.31268 12.0772L11.9277 20.6922C12.5137 21.279 12.513 22.2298 11.9262 22.8157C11.3394 23.4017 10.3887 23.401 9.80268 22.8142L1.19168 14.2032C0.908946 13.9217 0.75 13.5392 0.75 13.1402C0.75 12.7413 0.908946 12.3587 1.19168 12.0772Z" stroke="black" stroke-width="1.5" stroke-linecap="round" stroke-linejoin="round"/>
<path fill-rule="evenodd" clip-rule="evenodd" d="M6.55923 15.3245L15.3238 6.55987L17.4451 8.68119L8.68055 17.4458L6.55923 15.3245Z" stroke="black" stroke-width="1.5" stroke-linecap="round" stroke-linejoin="round"/>
</svg>
