<svg width="24" height="24" viewBox="0 0 24 24" fill="none" xmlns="http://www.w3.org/2000/svg">
<path d="M20.151 7.50002C19.215 5.24202 17.593 3.74902 15.751 3.74902H9.751C6.851 3.75002 4.5 7.44402 4.5 12C4.5 16.556 6.851 20.25 9.75 20.25H15.75C12.85 20.25 10.5 16.556 10.5 12C10.5 7.44402 12.851 3.75002 15.75 3.75002" stroke="black" stroke-width="1.5" stroke-linecap="round" stroke-linejoin="round"/>
<path d="M15.75 20.25C17.593 20.25 19.214 18.758 20.15 16.5" stroke="black" stroke-width="1.5" stroke-linecap="round" stroke-linejoin="round"/>
<path d="M4.586 13.5H2.25C1.42157 13.5 0.75 12.8284 0.75 12C0.75 11.1716 1.42157 10.5 2.25 10.5H4.586" stroke="black" stroke-width="1.5" stroke-linecap="round" stroke-linejoin="round"/>
<path d="M16.5 10.5H21.75C22.5784 10.5 23.25 11.1716 23.25 12C23.25 12.8284 22.5784 13.5 21.75 13.5H16.5" stroke="black" stroke-width="1.5" stroke-linecap="round" stroke-linejoin="round"/>
<path d="M5.349 7.5H11.349" stroke="black" stroke-width="1.5" stroke-linecap="round" stroke-linejoin="round"/>
<path d="M5.349 16.5H11.349" stroke="black" stroke-width="1.5" stroke-linecap="round" stroke-linejoin="round"/>
<path d="M4.5 12H10.5" stroke="black" stroke-width="1.5" stroke-linecap="round" stroke-linejoin="round"/>
</svg>
