<svg width="25" height="24" viewBox="0 0 25 24" fill="none" xmlns="http://www.w3.org/2000/svg">
<path fill-rule="evenodd" clip-rule="evenodd" d="M4 6.5H8.5V9.5H4V6.5Z" stroke="black" stroke-width="1.5" stroke-linecap="round" stroke-linejoin="round"/>
<path d="M8.5 21.5L9.744 16.526C9.89764 15.9108 9.64782 15.2654 9.12 14.914C8.2454 14.331 7.65131 13.4119 7.479 12.375L7 9.5H8.5V6.5C8.5 5.67157 9.17157 5 10 5H16C16.8284 5 17.5 5.67157 17.5 6.5V11.75C17.4761 12.7481 17.2924 13.736 16.956 14.676C16.8209 15.217 16.8209 15.783 16.956 16.324L18.25 21.5" stroke="black" stroke-width="1.5" stroke-linecap="round" stroke-linejoin="round"/>
<path fill-rule="evenodd" clip-rule="evenodd" d="M2.5 2.75C1.67157 2.75 1 3.42157 1 4.25V12.5C1 13.3284 1.67157 14 2.5 14C3.32843 14 4 13.3284 4 12.5V4.25C4 3.42157 3.32843 2.75 2.5 2.75Z" stroke="black" stroke-width="1.5" stroke-linecap="round" stroke-linejoin="round"/>
<path fill-rule="evenodd" clip-rule="evenodd" d="M22 2.75C21.1716 2.75 20.5 3.42157 20.5 4.25V12.5C20.5 13.3284 21.1716 14 22 14C22.8284 14 23.5 13.3284 23.5 12.5V4.25C23.5 3.42157 22.8284 2.75 22 2.75Z" stroke="black" stroke-width="1.5" stroke-linecap="round" stroke-linejoin="round"/>
<path fill-rule="evenodd" clip-rule="evenodd" d="M17.5 6.5H20.5V9.5H17.5V6.5Z" stroke="black" stroke-width="1.5" stroke-linecap="round" stroke-linejoin="round"/>
<path d="M11.5 8V5" stroke="black" stroke-width="1.5" stroke-linecap="round" stroke-linejoin="round"/>
<path d="M14.5 8V5" stroke="black" stroke-width="1.5" stroke-linecap="round" stroke-linejoin="round"/>
</svg>
