<svg width="24" height="24" viewBox="0 0 24 24" fill="none" xmlns="http://www.w3.org/2000/svg">
<path fill-rule="evenodd" clip-rule="evenodd" d="M2.25 8.25C2.25 6.59315 3.59315 5.25 5.25 5.25H18.75C20.4069 5.25 21.75 6.59315 21.75 8.25V20.25C21.75 21.9069 20.4069 23.25 18.75 23.25H5.25C3.59315 23.25 2.25 21.9069 2.25 20.25V8.25Z" stroke="black" stroke-width="1.5" stroke-linecap="round" stroke-linejoin="round"/>
<path fill-rule="evenodd" clip-rule="evenodd" d="M7.75 0.75H16.25C16.8023 0.75 17.25 1.19772 17.25 1.75V5.25H6.75V1.75C6.75 1.19772 7.19772 0.75 7.75 0.75Z" stroke="black" stroke-width="1.5" stroke-linecap="round" stroke-linejoin="round"/>
<path fill-rule="evenodd" clip-rule="evenodd" d="M2.25 9.75H21.75V18.75H2.25V9.75Z" stroke="black" stroke-width="1.5" stroke-linecap="round" stroke-linejoin="round"/>
<path d="M9.75 5.25V0.75" stroke="black" stroke-width="1.5" stroke-linecap="round" stroke-linejoin="round"/>
<path d="M14.25 5.25V0.75" stroke="black" stroke-width="1.5" stroke-linecap="round" stroke-linejoin="round"/>
<path d="M7.5 14.25H16.5" stroke="black" stroke-width="1.5" stroke-linecap="round" stroke-linejoin="round"/>
<path d="M9 12.75V15.75" stroke="black" stroke-width="1.5" stroke-linecap="round" stroke-linejoin="round"/>
<path d="M15 12.75V15.75" stroke="black" stroke-width="1.5" stroke-linecap="round" stroke-linejoin="round"/>
</svg>
