<svg width="24" height="24" viewBox="0 0 24 24" fill="none" xmlns="http://www.w3.org/2000/svg">
<path d="M8.25 9C7.42195 8.17142 7.42195 6.82858 8.25 6" stroke="black" stroke-width="1.5" stroke-linecap="round" stroke-linejoin="round"/>
<path fill-rule="evenodd" clip-rule="evenodd" d="M22.005 16.754C17.225 22.374 6.092 21 1.592 18C-0.149 16.839 1.159 12.162 2.392 8.81001C3.02007 7.09278 3.93581 5.49497 5.1 4.08501C5.67122 3.39617 6.52013 2.9983 7.415 3.00001H10.5C12.1569 3.00001 13.5 4.34315 13.5 6.00001C13.5 7.65686 12.1569 9.00001 10.5 9.00001H8.25C7.12998 10.2168 6.58404 11.8546 6.75 13.5C8.531 11.648 10.859 10.75 13.5 13.5C13.4975 11.3248 14.9363 9.41121 17.0266 8.80959C19.1169 8.20797 21.3529 9.06395 22.5071 10.9076C23.6613 12.7513 23.4544 15.1366 22 16.754H22.005Z" stroke="black" stroke-width="1.5" stroke-linecap="round" stroke-linejoin="round"/>
<path d="M18.75 12V15" stroke="black" stroke-width="1.5" stroke-linecap="round" stroke-linejoin="round"/>
<path d="M17.25 13.5H20.25" stroke="black" stroke-width="1.5" stroke-linecap="round" stroke-linejoin="round"/>
</svg>
