<svg width="24" height="24" viewBox="0 0 24 24" fill="none" xmlns="http://www.w3.org/2000/svg">
<path d="M4.5 6.75C4.5 3.43629 7.18629 0.75 10.5 0.75H13.5C15.0913 0.75 16.6174 1.38214 17.7426 2.50736C18.8679 3.63258 19.5 5.1587 19.5 6.75" stroke="black" stroke-width="1.5" stroke-linecap="round" stroke-linejoin="round"/>
<path fill-rule="evenodd" clip-rule="evenodd" d="M6 8.25C6 7.42157 5.32843 6.75 4.5 6.75C3.67157 6.75 3 7.42157 3 8.25V11.25C3 12.0784 3.67157 12.75 4.5 12.75C5.32843 12.75 6 12.0784 6 11.25V8.25Z" stroke="black" stroke-width="1.5" stroke-linecap="round" stroke-linejoin="round"/>
<path d="M4.5 12.75V15" stroke="black" stroke-width="1.5" stroke-linecap="round" stroke-linejoin="round"/>
<path d="M3 11.25H0.75" stroke="black" stroke-width="1.5" stroke-linecap="round" stroke-linejoin="round"/>
<path fill-rule="evenodd" clip-rule="evenodd" d="M18 8.25C18 7.42157 18.6716 6.75 19.5 6.75C20.3284 6.75 21 7.42157 21 8.25V11.25C21 12.0784 20.3284 12.75 19.5 12.75C18.6716 12.75 18 12.0784 18 11.25V8.25Z" stroke="black" stroke-width="1.5" stroke-linecap="round" stroke-linejoin="round"/>
<path d="M19.5 12.75V15" stroke="black" stroke-width="1.5" stroke-linecap="round" stroke-linejoin="round"/>
<path d="M21 11.25H23.25" stroke="black" stroke-width="1.5" stroke-linecap="round" stroke-linejoin="round"/>
<path fill-rule="evenodd" clip-rule="evenodd" d="M15 17.25H9V12C9 10.3431 10.3431 9 12 9C13.6569 9 15 10.3431 15 12V17.25Z" stroke="black" stroke-width="1.5" stroke-linecap="round" stroke-linejoin="round"/>
<path fill-rule="evenodd" clip-rule="evenodd" d="M17.25 18.75C17.25 17.9216 16.5784 17.25 15.75 17.25H8.25C7.42157 17.25 6.75 17.9216 6.75 18.75C6.75 19.5784 7.42157 20.25 8.25 20.25H15.75C16.5784 20.25 17.25 19.5784 17.25 18.75Z" stroke="black" stroke-width="1.5" stroke-linecap="round" stroke-linejoin="round"/>
<path d="M12 20.25V23.25" stroke="black" stroke-width="1.5" stroke-linecap="round" stroke-linejoin="round"/>
<path d="M12 0.75V6" stroke="black" stroke-width="1.5" stroke-linecap="round" stroke-linejoin="round"/>
</svg>
