<svg width="24" height="24" viewBox="0 0 24 24" fill="none" xmlns="http://www.w3.org/2000/svg">
<path d="M1.728 0.75C0.261 2.217 0.493 5.448 2.706 7.109C4.663 8.576 5.641 9.554 5.641 13.467C5.641 17.38 0.75 19.826 0.75 23.25" stroke="black" stroke-width="1.5" stroke-linecap="round" stroke-linejoin="round"/>
<path d="M22.272 0.75C23.739 2.217 23.507 5.45 21.294 7.109C19.337 8.576 18.359 9.554 18.359 13.467C18.359 17.38 23.25 19.826 23.25 23.25" stroke="black" stroke-width="1.5" stroke-linecap="round" stroke-linejoin="round"/>
<path d="M19.635 8.57201C15.935 8.66001 15.521 7.10901 12 7.10901C8.479 7.10901 8.062 8.66001 4.365 8.57201" stroke="black" stroke-width="1.5" stroke-linecap="round" stroke-linejoin="round"/>
<path d="M2.706 19.337C5.152 19.337 8.576 21.294 12 21.294C15.424 21.294 18.848 19.337 21.294 19.337" stroke="black" stroke-width="1.5" stroke-linecap="round" stroke-linejoin="round"/>
<path d="M10.044 0.75C11.022 0.75 12 2.217 12 2.217C12.2906 1.37398 13.0653 0.79294 13.956 0.75" stroke="black" stroke-width="1.5" stroke-linecap="round" stroke-linejoin="round"/>
<path d="M12 17.25C12.2071 17.25 12.375 17.4179 12.375 17.625" stroke="black" stroke-width="1.5" stroke-linecap="round" stroke-linejoin="round"/>
<path d="M11.625 17.625C11.625 17.4179 11.7929 17.25 12 17.25" stroke="black" stroke-width="1.5" stroke-linecap="round" stroke-linejoin="round"/>
<path d="M12 18C11.7929 18 11.625 17.8321 11.625 17.625" stroke="black" stroke-width="1.5" stroke-linecap="round" stroke-linejoin="round"/>
<path d="M12.375 17.625C12.375 17.8321 12.2071 18 12 18" stroke="black" stroke-width="1.5" stroke-linecap="round" stroke-linejoin="round"/>
</svg>
