<svg width="24" height="24" viewBox="0 0 24 24" fill="none" xmlns="http://www.w3.org/2000/svg">
<path fill-rule="evenodd" clip-rule="evenodd" d="M12 12C13.4497 12 14.625 10.8247 14.625 9.375C14.625 7.92525 13.4497 6.75 12 6.75C10.5503 6.75 9.375 7.92525 9.375 9.375C9.375 10.8247 10.5503 12 12 12Z" stroke="black" stroke-width="1.5" stroke-linecap="round" stroke-linejoin="round"/>
<path d="M3.765 9C3.85767 11.3535 4.72809 13.6099 6.24 15.416C7.00638 16.2487 7.94943 16.8993 9 17.32V23.25" stroke="black" stroke-width="1.5" stroke-linecap="round" stroke-linejoin="round"/>
<path d="M18.079 6.15796C17.5305 6.43267 17.2045 7.01368 17.256 7.62496C17.256 7.66096 17.499 11.269 15.556 13.384C15.2272 13.7303 14.8459 14.0225 14.426 14.25H9.575C9.16102 14.0255 8.78396 13.7388 8.457 13.4C6.5 11.278 6.74 7.68896 6.746 7.61996C6.79497 7.00996 6.46848 6.43138 5.921 6.15796" stroke="black" stroke-width="1.5" stroke-linecap="round" stroke-linejoin="round"/>
<path d="M15 23.25V17.32C16.0502 16.9004 16.9932 16.2512 17.76 15.42C19.2727 13.6129 20.1432 11.3549 20.235 9" stroke="black" stroke-width="1.5" stroke-linecap="round" stroke-linejoin="round"/>
<path d="M20.251 3.75498C14.797 2.74899 9.205 2.74899 3.751 3.75498" stroke="black" stroke-width="1.5" stroke-linecap="round" stroke-linejoin="round"/>
<path fill-rule="evenodd" clip-rule="evenodd" d="M23.25 5.25C23.25 6.07843 22.5784 6.75 21.75 6.75C20.9216 6.75 20.25 6.07843 20.25 5.25V2.25C20.25 1.42157 20.9216 0.75 21.75 0.75C22.5784 0.75 23.25 1.42157 23.25 2.25V5.25Z" stroke="black" stroke-width="1.5" stroke-linecap="round" stroke-linejoin="round"/>
<path fill-rule="evenodd" clip-rule="evenodd" d="M3.75 5.25C3.75 6.07843 3.07843 6.75 2.25 6.75C1.42157 6.75 0.75 6.07843 0.75 5.25V2.25C0.75 1.42157 1.42157 0.75 2.25 0.75C3.07843 0.75 3.75 1.42157 3.75 2.25V5.25Z" stroke="black" stroke-width="1.5" stroke-linecap="round" stroke-linejoin="round"/>
</svg>
