<svg width="24" height="24" viewBox="0 0 24 24" fill="none" xmlns="http://www.w3.org/2000/svg">
<path fill-rule="evenodd" clip-rule="evenodd" d="M0.75 15.7501V21.7501C0.75 22.5785 1.42157 23.2501 2.25 23.2501C3.07843 23.2501 3.75 22.5785 3.75 21.7501V15.7501H0.75Z" stroke="black" stroke-width="1.5" stroke-linecap="round" stroke-linejoin="round"/>
<path d="M5.25 12.7501C3.59315 12.7501 2.25 14.0933 2.25 15.7501V15.7501" stroke="black" stroke-width="1.5" stroke-linecap="round" stroke-linejoin="round"/>
<path d="M21.75 15.7501V15.7501C21.75 14.0933 20.4069 12.7501 18.75 12.7501H12C9.29456 12.7494 6.92427 10.9381 6.21285 8.32786C5.50144 5.71763 6.62488 2.95416 8.95579 1.58074C11.2867 0.207319 14.2484 0.563714 16.187 2.45089C18.1255 4.33807 18.5613 7.28917 17.251 9.65612" stroke="black" stroke-width="1.5" stroke-linecap="round" stroke-linejoin="round"/>
<path fill-rule="evenodd" clip-rule="evenodd" d="M20.25 15.7501V21.7501C20.25 22.5785 20.9216 23.2501 21.75 23.2501C22.5784 23.2501 23.25 22.5785 23.25 21.7501V15.7501H20.25Z" stroke="black" stroke-width="1.5" stroke-linecap="round" stroke-linejoin="round"/>
<path d="M12 3.75012V6.75012L14.25 8.25012" stroke="black" stroke-width="1.5" stroke-linecap="round" stroke-linejoin="round"/>
</svg>
