<svg width="24" height="24" viewBox="0 0 24 24" fill="none" xmlns="http://www.w3.org/2000/svg">
<path d="M14.045 14.3301C12.9154 14.3295 12 13.4136 12 12.2841V12.2841C12 13.4136 11.0846 14.3295 9.95502 14.3301" stroke="black" stroke-width="1.5" stroke-linecap="round" stroke-linejoin="round"/>
<path d="M14.045 19.443C12.9164 19.443 12.0011 18.5287 12 17.4V17.4C12 18.5294 11.0844 19.445 9.95502 19.445" stroke="black" stroke-width="1.5" stroke-linecap="round" stroke-linejoin="round"/>
<path d="M6.88602 22.0001V11.7731C6.88602 10.6431 7.80204 9.72705 8.93202 9.72705" stroke="black" stroke-width="1.5" stroke-linecap="round" stroke-linejoin="round"/>
<path d="M17.114 22.0001V11.7731C17.114 11.2304 16.8985 10.71 16.5148 10.3263C16.1311 9.94261 15.6106 9.72705 15.068 9.72705" stroke="black" stroke-width="1.5" stroke-linecap="round" stroke-linejoin="round"/>
<path d="M23.25 7V7.466C23.2501 8.27358 23.0111 9.0631 22.563 9.735L20.182 13.307V22" stroke="black" stroke-width="1.5" stroke-linecap="round" stroke-linejoin="round"/>
<path d="M3.81802 22V13.307L1.43702 9.735C0.988975 9.0631 0.749926 8.27358 0.750015 7.466V7" stroke="black" stroke-width="1.5" stroke-linecap="round" stroke-linejoin="round"/>
<path d="M10.5 1.75C10.3917 4.33665 8.21205 6.34866 5.62502 6.25C3.03798 6.34866 0.858301 4.33665 0.750015 1.75" stroke="black" stroke-width="1.5" stroke-linecap="round" stroke-linejoin="round"/>
<path d="M13.5 1.75C13.6083 4.33665 15.788 6.34866 18.375 6.25C20.962 6.34866 23.1417 4.33665 23.25 1.75" stroke="black" stroke-width="1.5" stroke-linecap="round" stroke-linejoin="round"/>
</svg>
