<svg width="24" height="24" viewBox="0 0 24 24" fill="none" xmlns="http://www.w3.org/2000/svg">
<path fill-rule="evenodd" clip-rule="evenodd" d="M12.75 18.658C13.9926 18.658 15 17.6506 15 16.408C15 15.1653 13.9926 14.158 12.75 14.158C13.9926 14.158 15 13.1506 15 11.908C15 10.6653 13.9926 9.65799 12.75 9.65799H9.75V18.658H12.75Z" stroke="black" stroke-width="1.5" stroke-linecap="round" stroke-linejoin="round"/>
<path d="M9.75 14.158H12.937" stroke="black" stroke-width="1.5" stroke-linecap="round" stroke-linejoin="round"/>
<path d="M12 9.65799V8.15799" stroke="black" stroke-width="1.5" stroke-linecap="round" stroke-linejoin="round"/>
<path d="M12 20.158V18.658" stroke="black" stroke-width="1.5" stroke-linecap="round" stroke-linejoin="round"/>
<path fill-rule="evenodd" clip-rule="evenodd" d="M0.75 6.15799C0.75 5.60571 1.19772 5.15799 1.75 5.15799H22.25C22.8023 5.15799 23.25 5.6057 23.25 6.15799V22.158C23.25 22.7103 22.8023 23.158 22.25 23.158H1.75C1.19772 23.158 0.75 22.7103 0.75 22.158V6.15799Z" stroke="black" stroke-width="1.5" stroke-linecap="round" stroke-linejoin="round"/>
<path d="M20.25 5.158V2.342C20.2503 1.91406 20.0677 1.50639 19.7483 1.22158C19.4289 0.936765 19.0031 0.801927 18.578 0.850997L3.406 2.6C1.89161 2.7748 0.749092 4.05755 0.750001 5.582V6.658" stroke="black" stroke-width="1.5" stroke-linecap="round" stroke-linejoin="round"/>
</svg>
