<svg width="24" height="24" viewBox="0 0 24 24" fill="none" xmlns="http://www.w3.org/2000/svg">
<path fill-rule="evenodd" clip-rule="evenodd" d="M12 23.25C18.2132 23.25 23.25 18.2132 23.25 12C23.25 5.7868 18.2132 0.75 12 0.75C5.7868 0.75 0.75 5.7868 0.75 12C0.75 18.2132 5.7868 23.25 12 23.25Z" stroke="black" stroke-width="1.5" stroke-linecap="round" stroke-linejoin="round"/>
<path fill-rule="evenodd" clip-rule="evenodd" d="M12.068 12.068C12.068 12.068 8.725 15.136 7 15.136C5.30559 15.136 3.932 13.7624 3.932 12.068C3.932 10.3736 5.30559 9 7 9C8.725 9 12.068 12.068 12.068 12.068Z" stroke="black" stroke-width="1.5" stroke-linecap="round" stroke-linejoin="round"/>
<path fill-rule="evenodd" clip-rule="evenodd" d="M12.068 12.068C12.068 12.068 15.412 15.136 17.133 15.136C18.8274 15.136 20.201 13.7624 20.201 12.068C20.201 10.3736 18.8274 9 17.133 9C15.412 9 12.068 12.068 12.068 12.068Z" stroke="black" stroke-width="1.5" stroke-linecap="round" stroke-linejoin="round"/>
</svg>
