<svg width="24" height="24" viewBox="0 0 24 24" fill="none" xmlns="http://www.w3.org/2000/svg">
<path d="M0.750168 10.5H5.25017" stroke="black" stroke-width="1.5" stroke-linecap="round" stroke-linejoin="round"/>
<path d="M3.75017 6V4.5" stroke="black" stroke-width="1.5" stroke-linecap="round" stroke-linejoin="round"/>
<path d="M3.75017 15V16.5" stroke="black" stroke-width="1.5" stroke-linecap="round" stroke-linejoin="round"/>
<path fill-rule="evenodd" clip-rule="evenodd" d="M5.25017 6C6.49281 6 7.50017 7.00736 7.50017 8.25C7.50017 9.49264 6.49281 10.5 5.25017 10.5C6.49281 10.5 7.50017 11.5074 7.50017 12.75C7.50017 13.9926 6.49281 15 5.25017 15H0.750168V6H5.25017Z" stroke="black" stroke-width="1.5" stroke-linecap="round" stroke-linejoin="round"/>
<path fill-rule="evenodd" clip-rule="evenodd" d="M12.0002 18L7.50017 23.25H16.5002L12.0002 18V18Z" stroke="black" stroke-width="1.5" stroke-linecap="round" stroke-linejoin="round"/>
<path d="M0.750168 20.25L23.2502 15" stroke="black" stroke-width="1.5" stroke-linecap="round" stroke-linejoin="round"/>
<path d="M22.5002 2.25H18.5812C17.5204 2.25073 16.63 3.04921 16.5141 4.10362C16.3982 5.15803 17.0939 6.13087 18.1292 6.362L21.6212 7.138C22.6564 7.36913 23.3522 8.34197 23.2363 9.39638C23.1204 10.4508 22.2299 11.2493 21.1692 11.25H17.2502" stroke="black" stroke-width="1.5" stroke-linecap="round" stroke-linejoin="round"/>
<path d="M19.5002 2.25V0.75" stroke="black" stroke-width="1.5" stroke-linecap="round" stroke-linejoin="round"/>
<path d="M19.5002 12.75V11.25" stroke="black" stroke-width="1.5" stroke-linecap="round" stroke-linejoin="round"/>
</svg>
