<svg width="24" height="24" viewBox="0 0 24 24" fill="none" xmlns="http://www.w3.org/2000/svg">
<path fill-rule="evenodd" clip-rule="evenodd" d="M22.5 12C22.5001 10.0928 21.2981 8.39272 19.5 7.757V6C19.5 5.17157 18.8284 4.5 18 4.5H5.99999C5.17157 4.5 4.49999 5.17157 4.49999 6V7.757C2.70151 8.39238 1.49898 10.0926 1.49898 12C1.49898 13.9074 2.70151 15.6076 4.49999 16.243V18C4.49999 18.3978 4.65803 18.7794 4.93933 19.0607C5.22064 19.342 5.60217 19.5 5.99999 19.5H18C18.8284 19.5 19.5 18.8284 19.5 18V16.243C21.2981 15.6073 22.5001 13.9072 22.5 12Z" stroke="black" stroke-width="1.5" stroke-linecap="round" stroke-linejoin="round"/>
<path fill-rule="evenodd" clip-rule="evenodd" d="M10.5 15V9H12.75C13.5784 9 14.25 9.67157 14.25 10.5C14.25 11.3284 13.5784 12 12.75 12C13.5784 12 14.25 12.6716 14.25 13.5C14.25 14.3284 13.5784 15 12.75 15H10.5Z" stroke="black" stroke-width="1.5" stroke-linecap="round" stroke-linejoin="round"/>
<path d="M10.5 12H12.75" stroke="black" stroke-width="1.5" stroke-linecap="round" stroke-linejoin="round"/>
<path d="M12 9V7.5" stroke="black" stroke-width="1.5" stroke-linecap="round" stroke-linejoin="round"/>
<path d="M12 15V16.5" stroke="black" stroke-width="1.5" stroke-linecap="round" stroke-linejoin="round"/>
</svg>
