<svg width="24" height="24" viewBox="0 0 24 24" fill="none" xmlns="http://www.w3.org/2000/svg">
<path d="M6.75 5.25H3.75C2.92157 5.25 2.25 5.92157 2.25 6.75V17.25H21.75V6.75C21.75 5.92157 21.0784 5.25 20.25 5.25H18" stroke="black" stroke-width="1.5" stroke-linecap="round" stroke-linejoin="round"/>
<path fill-rule="evenodd" clip-rule="evenodd" d="M23.205 21.386C23.3171 21.8341 23.2165 22.3089 22.9323 22.673C22.648 23.0371 22.2119 23.2499 21.75 23.25H2.25001C1.78898 23.2484 1.35429 23.0349 1.07121 22.671C0.788136 22.3071 0.688128 21.8333 0.800008 21.386L2.25001 17.25H21.75L23.205 21.386Z" stroke="black" stroke-width="1.5" stroke-linecap="round" stroke-linejoin="round"/>
<path d="M11.25 20.25H13.5" stroke="black" stroke-width="1.5" stroke-linecap="round" stroke-linejoin="round"/>
<path fill-rule="evenodd" clip-rule="evenodd" d="M12.75 11.25C13.9926 11.25 15 10.2426 15 9C15 7.75736 13.9926 6.75 12.75 6.75C13.9926 6.75 15 5.74264 15 4.5C15 3.25736 13.9926 2.25 12.75 2.25H9.75V11.25H12.75Z" stroke="black" stroke-width="1.5" stroke-linecap="round" stroke-linejoin="round"/>
<path d="M9.75 6.75H12.937" stroke="black" stroke-width="1.5" stroke-linecap="round" stroke-linejoin="round"/>
<path d="M12 2.25V0.75" stroke="black" stroke-width="1.5" stroke-linecap="round" stroke-linejoin="round"/>
<path d="M12 12.75V11.25" stroke="black" stroke-width="1.5" stroke-linecap="round" stroke-linejoin="round"/>
</svg>
