<svg width="24" height="24" viewBox="0 0 24 24" fill="none" xmlns="http://www.w3.org/2000/svg">
<path fill-rule="evenodd" clip-rule="evenodd" d="M17.25 21C20.5637 21 23.25 18.3137 23.25 15C23.25 11.6863 20.5637 9 17.25 9C13.9363 9 11.25 11.6863 11.25 15C11.25 18.3137 13.9363 21 17.25 21Z" stroke="black" stroke-width="1.5" stroke-linecap="round" stroke-linejoin="round"/>
<path fill-rule="evenodd" clip-rule="evenodd" d="M15.75 18V12H18C18.8284 12 19.5 12.6716 19.5 13.5C19.5 14.3284 18.8284 15 18 15C18.8284 15 19.5 15.6716 19.5 16.5C19.5 17.3284 18.8284 18 18 18H15.75Z" stroke="black" stroke-width="1.5" stroke-linecap="round" stroke-linejoin="round"/>
<path d="M15.75 15H18" stroke="black" stroke-width="1.5" stroke-linecap="round" stroke-linejoin="round"/>
<path d="M17.25 12V11.25" stroke="black" stroke-width="1.5" stroke-linecap="round" stroke-linejoin="round"/>
<path d="M17.25 18V18.75" stroke="black" stroke-width="1.5" stroke-linecap="round" stroke-linejoin="round"/>
<path d="M8.25 16.5H3C2.58579 16.5 2.25 16.8358 2.25 17.25V20.25C2.25 20.6642 2.58579 21 3 21H10.5" stroke="black" stroke-width="1.5" stroke-linecap="round" stroke-linejoin="round"/>
<path d="M9 12H4.5C4.08579 12 3.75 12.3358 3.75 12.75V15.75C3.75 16.1642 4.08579 16.5 4.5 16.5H8.25" stroke="black" stroke-width="1.5" stroke-linecap="round" stroke-linejoin="round"/>
<path d="M11.25 7.5H1.5C1.08579 7.5 0.75 7.83579 0.75 8.25V11.25C0.75 11.6642 1.08579 12 1.5 12H9" stroke="black" stroke-width="1.5" stroke-linecap="round" stroke-linejoin="round"/>
<path d="M14.25 6.75V3.75C14.25 3.33579 13.9142 3 13.5 3H3C2.58579 3 2.25 3.33579 2.25 3.75V6.75C2.25 7.16421 2.58579 7.5 3 7.5" stroke="black" stroke-width="1.5" stroke-linecap="round" stroke-linejoin="round"/>
</svg>
