<svg width="24" height="24" viewBox="0 0 24 24" fill="none" xmlns="http://www.w3.org/2000/svg">
<path d="M18.707 6C16.2191 3.2196 12.2737 2.26249 8.78839 3.59387C5.30305 4.92525 3.00056 8.26903 3 12V12.75" stroke="black" stroke-width="1.5" stroke-linecap="round" stroke-linejoin="round"/>
<path d="M5.293 18C7.78087 20.7804 11.7263 21.7375 15.2116 20.4061C18.6969 19.0747 20.9994 15.731 21 12V11.25" stroke="black" stroke-width="1.5" stroke-linecap="round" stroke-linejoin="round"/>
<path d="M18.75 13.5L21 11.25L23.25 13.5" stroke="black" stroke-width="1.5" stroke-linecap="round" stroke-linejoin="round"/>
<path d="M5.25 10.5L3 12.75L0.75 10.5" stroke="black" stroke-width="1.5" stroke-linecap="round" stroke-linejoin="round"/>
<path fill-rule="evenodd" clip-rule="evenodd" d="M12.75 16.5C13.9926 16.5 15 15.4926 15 14.25C15 13.0074 13.9926 12 12.75 12C13.9926 12 15 10.9926 15 9.75C15 8.50736 13.9926 7.5 12.75 7.5H9.75V16.5H12.75Z" stroke="black" stroke-width="1.5" stroke-linecap="round" stroke-linejoin="round"/>
<path d="M9.75 12H12.937" stroke="black" stroke-width="1.5" stroke-linecap="round" stroke-linejoin="round"/>
<path d="M12 7.5V6" stroke="black" stroke-width="1.5" stroke-linecap="round" stroke-linejoin="round"/>
<path d="M12 18V16.5" stroke="black" stroke-width="1.5" stroke-linecap="round" stroke-linejoin="round"/>
</svg>
