<svg width="24" height="24" viewBox="0 0 24 24" fill="none" xmlns="http://www.w3.org/2000/svg">
<path d="M5.25 18.75H18.75" stroke="black" stroke-width="1.5" stroke-linecap="round" stroke-linejoin="round"/>
<path fill-rule="evenodd" clip-rule="evenodd" d="M5.25 1.75C5.25 1.19772 5.69772 0.75 6.25 0.75H17.75C18.3023 0.75 18.75 1.19772 18.75 1.75V22.25C18.75 22.8023 18.3023 23.25 17.75 23.25H6.25C5.69772 23.25 5.25 22.8023 5.25 22.25V1.75Z" stroke="black" stroke-width="1.5" stroke-linecap="round" stroke-linejoin="round"/>
<path fill-rule="evenodd" clip-rule="evenodd" d="M12.75 14.25C13.9926 14.25 15 13.2426 15 12C15 10.7574 13.9926 9.75 12.75 9.75C13.9926 9.75 15 8.74264 15 7.5C15 6.25736 13.9926 5.25 12.75 5.25H9.75V14.25H12.75Z" stroke="black" stroke-width="1.5" stroke-linecap="round" stroke-linejoin="round"/>
<path d="M9.75 9.75H12.937" stroke="black" stroke-width="1.5" stroke-linecap="round" stroke-linejoin="round"/>
<path d="M12 5.25V3.75" stroke="black" stroke-width="1.5" stroke-linecap="round" stroke-linejoin="round"/>
<path d="M12 15.75V14.25" stroke="black" stroke-width="1.5" stroke-linecap="round" stroke-linejoin="round"/>
</svg>
