<svg width="24" height="24" viewBox="0 0 24 24" fill="none" xmlns="http://www.w3.org/2000/svg">
<path fill-rule="evenodd" clip-rule="evenodd" d="M17.25 23.2501C20.5637 23.2501 23.25 20.5638 23.25 17.2501C23.25 13.9364 20.5637 11.2501 17.25 11.2501C13.9363 11.2501 11.25 13.9364 11.25 17.2501C11.25 20.5638 13.9363 23.2501 17.25 23.2501Z" stroke="black" stroke-width="1.5" stroke-linecap="round" stroke-linejoin="round"/>
<path fill-rule="evenodd" clip-rule="evenodd" d="M15.75 20.2501V14.2501H18C18.8284 14.2501 19.5 14.9216 19.5 15.7501C19.5 16.5785 18.8284 17.2501 18 17.2501C18.8284 17.2501 19.5 17.9216 19.5 18.7501C19.5 19.5785 18.8284 20.2501 18 20.2501H15.75Z" stroke="black" stroke-width="1.5" stroke-linecap="round" stroke-linejoin="round"/>
<path d="M15.75 17.2501H18" stroke="black" stroke-width="1.5" stroke-linecap="round" stroke-linejoin="round"/>
<path d="M17.25 14.2501V13.5001" stroke="black" stroke-width="1.5" stroke-linecap="round" stroke-linejoin="round"/>
<path d="M17.25 20.2501V21.0001" stroke="black" stroke-width="1.5" stroke-linecap="round" stroke-linejoin="round"/>
<path d="M11.628 7.48707L3.951 16.3081C3.59949 16.6601 3.12245 16.8578 2.625 16.8578C2.12755 16.8578 1.65052 16.6601 1.299 16.3081V16.3081C0.567203 15.5759 0.567203 14.3892 1.299 13.6571L10.118 5.97807" stroke="black" stroke-width="1.5" stroke-linecap="round" stroke-linejoin="round"/>
<path d="M15.548 8.25008C15.0499 6.81969 14.2286 5.52345 13.148 4.46208C10.578 1.90008 8.083 1.66208 4.13 0.750076C7.39104 3.32605 10.438 6.16199 13.241 9.23008" stroke="black" stroke-width="1.5" stroke-linecap="round" stroke-linejoin="round"/>
</svg>
