<svg width="25" height="24" viewBox="0 0 25 24" fill="none" xmlns="http://www.w3.org/2000/svg">
<path d="M18.3863 16.5C20.4852 16.5031 22.3504 15.1626 23.0166 13.1722C23.6827 11.1819 23.0002 8.98862 21.3223 7.72774C19.6444 6.46686 17.3478 6.42145 15.6213 7.615C14.9246 3.90553 11.5798 1.29171 7.81195 1.51228C4.04406 1.73284 1.02708 4.71907 0.767934 8.4845C0.508784 12.2499 3.08821 15.6213 6.79035 16.356" stroke="black" stroke-width="1.5" stroke-linecap="round" stroke-linejoin="round"/>
<path fill-rule="evenodd" clip-rule="evenodd" d="M13.5113 21C14.754 21 15.7613 19.9926 15.7613 18.75C15.7613 17.5074 14.754 16.5 13.5113 16.5C14.754 16.5 15.7613 15.4926 15.7613 14.25C15.7613 13.0074 14.754 12 13.5113 12H10.5113V21H13.5113Z" stroke="black" stroke-width="1.5" stroke-linecap="round" stroke-linejoin="round"/>
<path d="M10.5113 16.5H13.6983" stroke="black" stroke-width="1.5" stroke-linecap="round" stroke-linejoin="round"/>
<path d="M12.7613 12V10.5" stroke="black" stroke-width="1.5" stroke-linecap="round" stroke-linejoin="round"/>
<path d="M12.7613 22.5V21" stroke="black" stroke-width="1.5" stroke-linecap="round" stroke-linejoin="round"/>
</svg>
