<svg width="24" height="24" viewBox="0 0 24 24" fill="none" xmlns="http://www.w3.org/2000/svg">
<path fill-rule="evenodd" clip-rule="evenodd" d="M12 23.247C18.2115 23.247 23.247 18.2116 23.247 12C23.247 5.78846 18.2115 0.753006 12 0.753006C5.78845 0.753006 0.752998 5.78846 0.752998 12C0.752998 18.2116 5.78845 23.247 12 23.247Z" stroke="black" stroke-width="1.5" stroke-linecap="round" stroke-linejoin="round"/>
<path fill-rule="evenodd" clip-rule="evenodd" d="M12.624 6.9C12.3808 7.68974 12.5387 8.54848 13.047 9.2L12.547 10.009C12.174 10.6091 11.5176 10.974 10.811 10.974H10.25C9.72881 9.78421 8.39943 9.17303 7.157 9.552C6.32503 9.79814 5.67917 10.4565 5.449 11.293C5.08152 12.5858 5.77756 13.9424 7.04201 14.3978C8.30646 14.8533 9.7077 14.2522 10.249 13.022H10.6C11.379 13.0221 12.0902 13.465 12.434 14.164L12.805 14.918C12.4668 15.5439 12.4154 16.2854 12.664 16.952C13.079 18.1174 14.2701 18.8173 15.4901 18.6128C16.7102 18.4082 17.6078 17.358 17.62 16.121C17.6034 15.4555 17.3141 14.8261 16.82 14.38C16.2492 13.6798 15.3198 13.3813 14.448 13.618L14.181 13.077C13.8691 12.4429 13.9069 11.6926 14.281 11.093L14.844 10.193C14.919 10.2 14.991 10.216 15.068 10.216C16.3823 10.2162 17.4831 9.22078 17.6146 7.91305C17.7461 6.60533 16.8656 5.41061 15.5775 5.14915C14.2895 4.88769 13.0128 5.6445 12.624 6.9V6.9Z" stroke="black" stroke-width="1.5" stroke-linecap="round" stroke-linejoin="round"/>
</svg>
