<svg width="24" height="24" viewBox="0 0 24 24" fill="none" xmlns="http://www.w3.org/2000/svg">
<path fill-rule="evenodd" clip-rule="evenodd" d="M12 16.5C15.3137 16.5 18 13.8137 18 10.5C18 7.18629 15.3137 4.5 12 4.5C8.68629 4.5 6 7.18629 6 10.5C6 13.8137 8.68629 16.5 12 16.5Z" stroke="black" stroke-width="1.5" stroke-linecap="round" stroke-linejoin="round"/>
<path fill-rule="evenodd" clip-rule="evenodd" d="M10.5 13.5V7.5H12.75C13.5784 7.5 14.25 8.17157 14.25 9C14.25 9.82843 13.5784 10.5 12.75 10.5C13.5784 10.5 14.25 11.1716 14.25 12C14.25 12.8284 13.5784 13.5 12.75 13.5H10.5Z" stroke="black" stroke-width="1.5" stroke-linecap="round" stroke-linejoin="round"/>
<path d="M10.5 10.5H12.75" stroke="black" stroke-width="1.5" stroke-linecap="round" stroke-linejoin="round"/>
<path d="M12 7.5V6.75" stroke="black" stroke-width="1.5" stroke-linecap="round" stroke-linejoin="round"/>
<path d="M12 13.5V14.25" stroke="black" stroke-width="1.5" stroke-linecap="round" stroke-linejoin="round"/>
<path fill-rule="evenodd" clip-rule="evenodd" d="M12 23.25C13.2426 23.25 14.25 22.2426 14.25 21C14.25 19.7574 13.2426 18.75 12 18.75C10.7574 18.75 9.75 19.7574 9.75 21C9.75 22.2426 10.7574 23.25 12 23.25Z" stroke="black" stroke-width="1.5" stroke-linecap="round" stroke-linejoin="round"/>
<path fill-rule="evenodd" clip-rule="evenodd" d="M3 5.25C4.24264 5.25 5.25 4.24264 5.25 3C5.25 1.75736 4.24264 0.75 3 0.75C1.75736 0.75 0.75 1.75736 0.75 3C0.75 4.24264 1.75736 5.25 3 5.25Z" stroke="black" stroke-width="1.5" stroke-linecap="round" stroke-linejoin="round"/>
<path fill-rule="evenodd" clip-rule="evenodd" d="M21 5.25C22.2426 5.25 23.25 4.24264 23.25 3C23.25 1.75736 22.2426 0.75 21 0.75C19.7574 0.75 18.75 1.75736 18.75 3C18.75 4.24264 19.7574 5.25 21 5.25Z" stroke="black" stroke-width="1.5" stroke-linecap="round" stroke-linejoin="round"/>
<path d="M12 18.75V16.5" stroke="black" stroke-width="1.5" stroke-linecap="round" stroke-linejoin="round"/>
<path d="M4.729 4.44L7.391 6.659" stroke="black" stroke-width="1.5" stroke-linecap="round" stroke-linejoin="round"/>
<path d="M19.271 4.44L16.609 6.659" stroke="black" stroke-width="1.5" stroke-linecap="round" stroke-linejoin="round"/>
</svg>
