<svg width="24" height="24" viewBox="0 0 24 24" fill="none" xmlns="http://www.w3.org/2000/svg">
<path fill-rule="evenodd" clip-rule="evenodd" d="M12 23.25C18.2132 23.25 23.25 18.2132 23.25 12C23.25 5.7868 18.2132 0.75 12 0.75C5.7868 0.75 0.75 5.7868 0.75 12C0.75 18.2132 5.7868 23.25 12 23.25Z" stroke="black" stroke-width="1.5" stroke-linecap="round" stroke-linejoin="round"/>
<path fill-rule="evenodd" clip-rule="evenodd" d="M5.75 9.75H7C7.69036 9.75 8.25 10.3096 8.25 11V14.5C8.25 14.7761 8.02614 15 7.75 15H5C4.72386 15 4.5 14.7761 4.5 14.5V11C4.5 10.3096 5.05964 9.75 5.75 9.75V9.75Z" stroke="black" stroke-width="1.5" stroke-linecap="round" stroke-linejoin="round"/>
<path fill-rule="evenodd" clip-rule="evenodd" d="M11.75 9.75H13C13.6904 9.75 14.25 10.3096 14.25 11V14.5C14.25 14.7761 14.0261 15 13.75 15H11C10.7239 15 10.5 14.7761 10.5 14.5V11C10.5 10.3096 11.0596 9.75 11.75 9.75Z" stroke="black" stroke-width="1.5" stroke-linecap="round" stroke-linejoin="round"/>
<path fill-rule="evenodd" clip-rule="evenodd" d="M17.75 9.75H19C19.6904 9.75 20.25 10.3096 20.25 11V14.5C20.25 14.7761 20.0261 15 19.75 15H17C16.7239 15 16.5 14.7761 16.5 14.5V11C16.5 10.3096 17.0596 9.75 17.75 9.75Z" stroke="black" stroke-width="1.5" stroke-linecap="round" stroke-linejoin="round"/>
</svg>
