<svg width="24" height="24" viewBox="0 0 24 24" fill="none" xmlns="http://www.w3.org/2000/svg">
<path d="M9 21H15" stroke="black" stroke-width="1.5" stroke-linecap="round" stroke-linejoin="round"/>
<path d="M12 17.25V21" stroke="black" stroke-width="1.5" stroke-linecap="round" stroke-linejoin="round"/>
<path d="M17.25 8.25C18.0784 8.25 18.75 8.92157 18.75 9.75V15.75C18.75 16.5784 18.0784 17.25 17.25 17.25H6.75C5.92157 17.25 5.25 16.5784 5.25 15.75V9.75C5.25 8.92157 5.92157 8.25 6.75 8.25" stroke="black" stroke-width="1.5" stroke-linecap="round" stroke-linejoin="round"/>
<path fill-rule="evenodd" clip-rule="evenodd" d="M2.25 3.75C3.07843 3.75 3.75 3.07843 3.75 2.25C3.75 1.42157 3.07843 0.75 2.25 0.75C1.42157 0.75 0.75 1.42157 0.75 2.25C0.75 3.07843 1.42157 3.75 2.25 3.75Z" stroke="black" stroke-width="1.5" stroke-linecap="round" stroke-linejoin="round"/>
<path d="M3.311 3.311L4.875 4.875" stroke="black" stroke-width="1.5" stroke-linecap="round" stroke-linejoin="round"/>
<path fill-rule="evenodd" clip-rule="evenodd" d="M21.75 3.75C22.5784 3.75 23.25 3.07843 23.25 2.25C23.25 1.42157 22.5784 0.75 21.75 0.75C20.9216 0.75 20.25 1.42157 20.25 2.25C20.25 3.07843 20.9216 3.75 21.75 3.75Z" stroke="black" stroke-width="1.5" stroke-linecap="round" stroke-linejoin="round"/>
<path d="M20.689 3.311L19.125 4.875" stroke="black" stroke-width="1.5" stroke-linecap="round" stroke-linejoin="round"/>
<path fill-rule="evenodd" clip-rule="evenodd" d="M2.25 23.25C3.07843 23.25 3.75 22.5784 3.75 21.75C3.75 20.9216 3.07843 20.25 2.25 20.25C1.42157 20.25 0.75 20.9216 0.75 21.75C0.75 22.5784 1.42157 23.25 2.25 23.25Z" stroke="black" stroke-width="1.5" stroke-linecap="round" stroke-linejoin="round"/>
<path d="M3.311 20.689L4.875 19.125" stroke="black" stroke-width="1.5" stroke-linecap="round" stroke-linejoin="round"/>
<path fill-rule="evenodd" clip-rule="evenodd" d="M21.75 23.25C22.5784 23.25 23.25 22.5784 23.25 21.75C23.25 20.9216 22.5784 20.25 21.75 20.25C20.9216 20.25 20.25 20.9216 20.25 21.75C20.25 22.5784 20.9216 23.25 21.75 23.25Z" stroke="black" stroke-width="1.5" stroke-linecap="round" stroke-linejoin="round"/>
<path d="M20.689 20.689L19.125 19.125" stroke="black" stroke-width="1.5" stroke-linecap="round" stroke-linejoin="round"/>
<path fill-rule="evenodd" clip-rule="evenodd" d="M12.75 12.75C13.9926 12.75 15 11.7426 15 10.5C15 9.25736 13.9926 8.25 12.75 8.25C13.9926 8.25 15 7.24264 15 6C15 4.75736 13.9926 3.75 12.75 3.75H9.75V12.75H12.75Z" stroke="black" stroke-width="1.5" stroke-linecap="round" stroke-linejoin="round"/>
<path d="M9.75 8.25H12.937" stroke="black" stroke-width="1.5" stroke-linecap="round" stroke-linejoin="round"/>
<path d="M12 3.75V2.25" stroke="black" stroke-width="1.5" stroke-linecap="round" stroke-linejoin="round"/>
<path d="M12 14.25V12.75" stroke="black" stroke-width="1.5" stroke-linecap="round" stroke-linejoin="round"/>
</svg>
