<svg width="24" height="24" viewBox="0 0 24 24" fill="none" xmlns="http://www.w3.org/2000/svg">
<path d="M16.48 18H18.62C20.3293 18.0234 21.7366 16.6621 21.77 14.953V11.253" stroke="black" stroke-width="1.5" stroke-linecap="round" stroke-linejoin="round"/>
<path d="M2.94 5.394L13.888 8.505C15.4052 9.00327 16.4436 10.4035 16.48 12V21.01C16.5433 21.6836 16.2705 22.3452 15.7508 22.7783C15.2311 23.2115 14.5312 23.3607 13.88 23.177L4.831 20.717C3.31086 20.244 2.26368 18.8517 2.231 17.26V7.312C2.19737 5.80072 3.38902 4.54522 4.9 4.5H14.27" stroke="black" stroke-width="1.5" stroke-linecap="round" stroke-linejoin="round"/>
<path fill-rule="evenodd" clip-rule="evenodd" d="M11.98 18C12.8084 18 13.48 17.3284 13.48 16.5C13.48 15.6716 12.8084 15 11.98 15C11.1516 15 10.48 15.6716 10.48 16.5C10.48 17.3284 11.1516 18 11.98 18Z" stroke="black" stroke-width="1.5" stroke-linecap="round" stroke-linejoin="round"/>
<path fill-rule="evenodd" clip-rule="evenodd" d="M17.27 7.5V1.5H19.52C20.3484 1.5 21.02 2.17157 21.02 3C21.02 3.82843 20.3484 4.5 19.52 4.5C20.3484 4.5 21.02 5.17157 21.02 6C21.02 6.82843 20.3484 7.5 19.52 7.5H17.27Z" stroke="black" stroke-width="1.5" stroke-linecap="round" stroke-linejoin="round"/>
<path d="M17.27 4.5H19.52" stroke="black" stroke-width="1.5" stroke-linecap="round" stroke-linejoin="round"/>
<path d="M18.77 1.5V0.75" stroke="black" stroke-width="1.5" stroke-linecap="round" stroke-linejoin="round"/>
<path d="M18.77 7.5V8.25" stroke="black" stroke-width="1.5" stroke-linecap="round" stroke-linejoin="round"/>
</svg>
