<svg width="24" height="24" viewBox="0 0 24 24" fill="none" xmlns="http://www.w3.org/2000/svg">
<path d="M0.750183 6.75H5.25018" stroke="black" stroke-width="1.5" stroke-linecap="round" stroke-linejoin="round"/>
<path d="M3.75018 2.25V0.75" stroke="black" stroke-width="1.5" stroke-linecap="round" stroke-linejoin="round"/>
<path d="M3.75018 11.25V12.75" stroke="black" stroke-width="1.5" stroke-linecap="round" stroke-linejoin="round"/>
<path fill-rule="evenodd" clip-rule="evenodd" d="M5.25018 2.25C6.49282 2.25 7.50018 3.25736 7.50018 4.5C7.50018 5.74264 6.49282 6.75 5.25018 6.75C6.49282 6.75 7.50018 7.75736 7.50018 9C7.50018 10.2426 6.49282 11.25 5.25018 11.25H0.750183V2.25H5.25018Z" stroke="black" stroke-width="1.5" stroke-linecap="round" stroke-linejoin="round"/>
<path fill-rule="evenodd" clip-rule="evenodd" d="M12.0002 18L7.50018 23.25H16.5002L12.0002 18V18Z" stroke="black" stroke-width="1.5" stroke-linecap="round" stroke-linejoin="round"/>
<path d="M23.2502 21L0.750183 15" stroke="black" stroke-width="1.5" stroke-linecap="round" stroke-linejoin="round"/>
<path d="M22.5002 6H18.5812C17.5204 6.00073 16.63 6.79921 16.5141 7.85362C16.3982 8.90803 17.0939 9.88087 18.1292 10.112L21.6212 10.888C22.6565 11.1191 23.3522 12.092 23.2363 13.1464C23.1204 14.2008 22.2299 14.9993 21.1692 15H17.2502" stroke="black" stroke-width="1.5" stroke-linecap="round" stroke-linejoin="round"/>
<path d="M19.5002 6V4.5" stroke="black" stroke-width="1.5" stroke-linecap="round" stroke-linejoin="round"/>
<path d="M19.5002 16.5V15" stroke="black" stroke-width="1.5" stroke-linecap="round" stroke-linejoin="round"/>
</svg>
