<svg width="24" height="24" viewBox="0 0 24 24" fill="none" xmlns="http://www.w3.org/2000/svg">
<path fill-rule="evenodd" clip-rule="evenodd" d="M12.75 21.757C13.9926 21.757 15 20.7496 15 19.507C15 18.2644 13.9926 17.257 12.75 17.257C13.9926 17.257 15 16.2496 15 15.007C15 13.7644 13.9926 12.757 12.75 12.757H9.75V21.757H12.75Z" stroke="black" stroke-width="1.5" stroke-linecap="round" stroke-linejoin="round"/>
<path d="M9.75 17.257H12.937" stroke="black" stroke-width="1.5" stroke-linecap="round" stroke-linejoin="round"/>
<path d="M12 12.757V11.257" stroke="black" stroke-width="1.5" stroke-linecap="round" stroke-linejoin="round"/>
<path d="M12 23.257V21.757" stroke="black" stroke-width="1.5" stroke-linecap="round" stroke-linejoin="round"/>
<path d="M6.75 23.257H3.75C2.92157 23.257 2.25 22.5854 2.25 21.757V9.757C2.25 8.92858 2.92157 8.257 3.75 8.257H20.25C21.0784 8.257 21.75 8.92858 21.75 9.757V21.757C21.75 22.5854 21.0784 23.257 20.25 23.257H16.5" stroke="black" stroke-width="1.5" stroke-linecap="round" stroke-linejoin="round"/>
<path d="M7.3 3.65801C8.3878 1.47693 10.8334 0.331071 13.2055 0.891075C15.5776 1.45108 17.2525 3.56971 17.25 6.00701V8.25701" stroke="black" stroke-width="1.5" stroke-linecap="round" stroke-linejoin="round"/>
</svg>
