<svg width="24" height="24" viewBox="0 0 24 24" fill="none" xmlns="http://www.w3.org/2000/svg">
<path d="M10.5007 23.1517C4.72725 22.3748 0.501697 17.3193 0.761358 11.4997C1.02102 5.68002 5.68001 1.02102 11.4997 0.761362C17.3193 0.5017 22.3747 4.72726 23.1517 10.5007" stroke="black" stroke-width="1.5" stroke-linecap="round" stroke-linejoin="round"/>
<path d="M9.28967 22.9217C7.76767 20.6897 6.75067 16.6337 6.75067 12.0007C6.75067 7.36767 7.76767 3.31167 9.28967 1.07967" stroke="black" stroke-width="1.5" stroke-linecap="round" stroke-linejoin="round"/>
<path d="M0.750668 11.2507H9.75067" stroke="black" stroke-width="1.5" stroke-linecap="round" stroke-linejoin="round"/>
<path d="M2.99967 5.25067H21.0007" stroke="black" stroke-width="1.5" stroke-linecap="round" stroke-linejoin="round"/>
<path d="M2.04867 17.2507H8.25067" stroke="black" stroke-width="1.5" stroke-linecap="round" stroke-linejoin="round"/>
<path d="M14.7117 1.07967C16.0073 3.26747 16.7959 5.71788 17.0197 8.25067" stroke="black" stroke-width="1.5" stroke-linecap="round" stroke-linejoin="round"/>
<path fill-rule="evenodd" clip-rule="evenodd" d="M17.2507 23.2507C20.5644 23.2507 23.2507 20.5644 23.2507 17.2507C23.2507 13.937 20.5644 11.2507 17.2507 11.2507C13.937 11.2507 11.2507 13.937 11.2507 17.2507C11.2507 20.5644 13.937 23.2507 17.2507 23.2507Z" stroke="black" stroke-width="1.5" stroke-linecap="round" stroke-linejoin="round"/>
<path fill-rule="evenodd" clip-rule="evenodd" d="M15.7507 20.2507V14.2507H18.0007C18.8291 14.2507 19.5007 14.9222 19.5007 15.7507C19.5007 16.5791 18.8291 17.2507 18.0007 17.2507C18.8291 17.2507 19.5007 17.9222 19.5007 18.7507C19.5007 19.5791 18.8291 20.2507 18.0007 20.2507H15.7507Z" stroke="black" stroke-width="1.5" stroke-linecap="round" stroke-linejoin="round"/>
<path d="M15.7507 17.2507H18.0007" stroke="black" stroke-width="1.5" stroke-linecap="round" stroke-linejoin="round"/>
<path d="M17.2507 14.2507V13.5007" stroke="black" stroke-width="1.5" stroke-linecap="round" stroke-linejoin="round"/>
<path d="M17.2507 20.2507V21.0007" stroke="black" stroke-width="1.5" stroke-linecap="round" stroke-linejoin="round"/>
</svg>
