<svg width="24" height="24" viewBox="0 0 24 24" fill="none" xmlns="http://www.w3.org/2000/svg">
<path fill-rule="evenodd" clip-rule="evenodd" d="M12 23.25C18.2132 23.25 23.25 18.2132 23.25 12C23.25 5.7868 18.2132 0.75 12 0.75C5.7868 0.75 0.75 5.7868 0.75 12C0.75 18.2132 5.7868 23.25 12 23.25Z" stroke="black" stroke-width="1.5" stroke-linecap="round" stroke-linejoin="round"/>
<path fill-rule="evenodd" clip-rule="evenodd" d="M18.75 9.375C18.75 10.469 18.3154 11.5182 17.5418 12.2918C16.7682 13.0654 15.719 13.5 14.625 13.5H10.5V5.25H14.625C15.719 5.25 16.7682 5.6846 17.5418 6.45818C18.3154 7.23177 18.75 8.28098 18.75 9.375Z" stroke="black" stroke-width="1.5" stroke-linecap="round" stroke-linejoin="round"/>
<path d="M10.5 13.5V19.159" stroke="black" stroke-width="1.5" stroke-linecap="round" stroke-linejoin="round"/>
<path d="M7.5 19.159V6.535C7.47348 6.20854 7.5828 5.88559 7.80218 5.64237C8.02155 5.39914 8.33154 5.25719 8.659 5.25H10.5" stroke="black" stroke-width="1.5" stroke-linecap="round" stroke-linejoin="round"/>
<path d="M6 16.5H12" stroke="black" stroke-width="1.5" stroke-linecap="round" stroke-linejoin="round"/>
<path fill-rule="evenodd" clip-rule="evenodd" d="M13.914 10.84C13.5083 10.546 13.2684 10.0751 13.269 9.57401V7.72701C14.3515 7.72697 15.3171 8.40754 15.681 9.42701C15.8401 9.90613 15.6839 10.4336 15.2896 10.7489C14.8953 11.0642 14.3464 11.1006 13.914 10.84V10.84Z" stroke="black" stroke-width="1.5" stroke-linecap="round" stroke-linejoin="round"/>
</svg>
