<svg width="24" height="24" viewBox="0 0 24 24" fill="none" xmlns="http://www.w3.org/2000/svg">
<path fill-rule="evenodd" clip-rule="evenodd" d="M12.75 21.75C13.9926 21.75 15 20.7426 15 19.5C15 18.2574 13.9926 17.25 12.75 17.25C13.9926 17.25 15 16.2426 15 15C15 13.7574 13.9926 12.75 12.75 12.75H9.75V21.75H12.75Z" stroke="black" stroke-width="1.5" stroke-linecap="round" stroke-linejoin="round"/>
<path d="M9.75 17.25H12.937" stroke="black" stroke-width="1.5" stroke-linecap="round" stroke-linejoin="round"/>
<path d="M12 12.75V11.25" stroke="black" stroke-width="1.5" stroke-linecap="round" stroke-linejoin="round"/>
<path d="M12 23.25V21.75" stroke="black" stroke-width="1.5" stroke-linecap="round" stroke-linejoin="round"/>
<path d="M6.75 23.25H3.75C2.92157 23.25 2.25 22.5784 2.25 21.75V9.75C2.25 8.92157 2.92157 8.25 3.75 8.25H20.25C21.0784 8.25 21.75 8.92157 21.75 9.75V21.75C21.75 22.5784 21.0784 23.25 20.25 23.25H16.5" stroke="black" stroke-width="1.5" stroke-linecap="round" stroke-linejoin="round"/>
<path fill-rule="evenodd" clip-rule="evenodd" d="M17.25 8.25H6.75V6C6.75 3.10051 9.10051 0.75 12 0.75C14.8995 0.75 17.25 3.10051 17.25 6V8.25Z" stroke="black" stroke-width="1.5" stroke-linecap="round" stroke-linejoin="round"/>
</svg>
