<svg width="24" height="24" viewBox="0 0 24 24" fill="none" xmlns="http://www.w3.org/2000/svg">
<path d="M6 6.75H1.5C1.08579 6.75 0.75 6.41421 0.75 6V1.5C0.75 1.08579 1.08579 0.75 1.5 0.75H7.5C7.91421 0.75 8.25 1.08579 8.25 1.5V4.5" stroke="black" stroke-width="1.5" stroke-linecap="round" stroke-linejoin="round"/>
<path d="M8.25 19.5V22.5C8.25 22.9142 7.91421 23.25 7.5 23.25H1.5C1.08579 23.25 0.75 22.9142 0.75 22.5V18C0.75 17.5858 1.08579 17.25 1.5 17.25H6" stroke="black" stroke-width="1.5" stroke-linecap="round" stroke-linejoin="round"/>
<path d="M15.75 4.5V1.5C15.75 1.08579 16.0858 0.75 16.5 0.75H22.5C22.9142 0.75 23.25 1.08579 23.25 1.5V6C23.25 6.41421 22.9142 6.75 22.5 6.75H18" stroke="black" stroke-width="1.5" stroke-linecap="round" stroke-linejoin="round"/>
<path d="M18 17.25H22.5C22.9142 17.25 23.25 17.5858 23.25 18V22.5C23.25 22.9142 22.9142 23.25 22.5 23.25H16.5C16.0858 23.25 15.75 22.9142 15.75 22.5V19.5" stroke="black" stroke-width="1.5" stroke-linecap="round" stroke-linejoin="round"/>
<path d="M11.25 3H12.75" stroke="black" stroke-width="1.5" stroke-linecap="round" stroke-linejoin="round"/>
<path d="M11.25 21.75H12.75" stroke="black" stroke-width="1.5" stroke-linecap="round" stroke-linejoin="round"/>
<path d="M3.75 9.75V10.5" stroke="black" stroke-width="1.5" stroke-linecap="round" stroke-linejoin="round"/>
<path d="M3.75 13.5V14.25" stroke="black" stroke-width="1.5" stroke-linecap="round" stroke-linejoin="round"/>
<path d="M20.25 9.75V10.5" stroke="black" stroke-width="1.5" stroke-linecap="round" stroke-linejoin="round"/>
<path d="M20.25 13.5V14.25" stroke="black" stroke-width="1.5" stroke-linecap="round" stroke-linejoin="round"/>
<path fill-rule="evenodd" clip-rule="evenodd" d="M12.75 16.5C13.9926 16.5 15 15.4926 15 14.25C15 13.0074 13.9926 12 12.75 12C13.9926 12 15 10.9926 15 9.75C15 8.50736 13.9926 7.5 12.75 7.5H9.75V16.5H12.75Z" stroke="black" stroke-width="1.5" stroke-linecap="round" stroke-linejoin="round"/>
<path d="M9.75 12H12.937" stroke="black" stroke-width="1.5" stroke-linecap="round" stroke-linejoin="round"/>
<path d="M12 7.5V6" stroke="black" stroke-width="1.5" stroke-linecap="round" stroke-linejoin="round"/>
<path d="M12 18V16.5" stroke="black" stroke-width="1.5" stroke-linecap="round" stroke-linejoin="round"/>
</svg>
