<svg width="24" height="24" viewBox="0 0 24 24" fill="none" xmlns="http://www.w3.org/2000/svg">
<path d="M18.75 19.5H21.75C22.5784 19.5 23.25 18.8284 23.25 18V3C23.25 2.17157 22.5784 1.5 21.75 1.5H2.25C1.42157 1.5 0.75 2.17157 0.75 3V18C0.75 18.8284 1.42157 19.5 2.25 19.5H6" stroke="black" stroke-width="1.5" stroke-linecap="round" stroke-linejoin="round"/>
<path d="M0.75 6H23.25" stroke="black" stroke-width="1.5" stroke-linecap="round" stroke-linejoin="round"/>
<path d="M9 15.75H13.5" stroke="black" stroke-width="1.5" stroke-linecap="round" stroke-linejoin="round"/>
<path d="M13.5 11.25V9" stroke="black" stroke-width="1.5" stroke-linecap="round" stroke-linejoin="round"/>
<path d="M13.5 20.25V22.5" stroke="black" stroke-width="1.5" stroke-linecap="round" stroke-linejoin="round"/>
<path d="M10.5 11.25V9" stroke="black" stroke-width="1.5" stroke-linecap="round" stroke-linejoin="round"/>
<path d="M10.5 20.25V22.5" stroke="black" stroke-width="1.5" stroke-linecap="round" stroke-linejoin="round"/>
<path fill-rule="evenodd" clip-rule="evenodd" d="M13.5 11.25C14.7426 11.25 15.75 12.2574 15.75 13.5C15.75 14.7426 14.7426 15.75 13.5 15.75C14.7426 15.75 15.75 16.7574 15.75 18C15.75 19.2426 14.7426 20.25 13.5 20.25H9V11.25H13.5Z" stroke="black" stroke-width="1.5" stroke-linecap="round" stroke-linejoin="round"/>
</svg>
