<svg width="24" height="24" viewBox="0 0 24 24" fill="none" xmlns="http://www.w3.org/2000/svg">
<path fill-rule="evenodd" clip-rule="evenodd" d="M22.5 12C22.5002 10.474 21.5117 9.12384 20.057 8.663C20.7615 7.30823 20.5064 5.65312 19.4266 4.57338C18.3469 3.49364 16.6918 3.23851 15.337 3.943C14.8766 2.48776 13.5263 1.49866 12 1.49866C10.4737 1.49866 9.12337 2.48776 8.663 3.943C7.30823 3.23851 5.65312 3.49364 4.57338 4.57338C3.49364 5.65312 3.23851 7.30823 3.943 8.663C2.48776 9.12337 1.49866 10.4737 1.49866 12C1.49866 13.5263 2.48776 14.8766 3.943 15.337C3.23851 16.6918 3.49364 18.3469 4.57338 19.4266C5.65312 20.5064 7.30823 20.7615 8.663 20.057C9.12337 21.5122 10.4737 22.5013 12 22.5013C13.5263 22.5013 14.8766 21.5122 15.337 20.057C16.6918 20.7615 18.3469 20.5064 19.4266 19.4266C20.5064 18.3469 20.7615 16.6918 20.057 15.337C21.5117 14.8762 22.5002 13.526 22.5 12V12Z" stroke="black" stroke-width="1.5" stroke-linecap="round" stroke-linejoin="round"/>
<path d="M9 12H13.5" stroke="black" stroke-width="1.5" stroke-linecap="round" stroke-linejoin="round"/>
<path d="M12 7.5V6" stroke="black" stroke-width="1.5" stroke-linecap="round" stroke-linejoin="round"/>
<path d="M12 16.5V18" stroke="black" stroke-width="1.5" stroke-linecap="round" stroke-linejoin="round"/>
<path fill-rule="evenodd" clip-rule="evenodd" d="M13.5 7.5C14.7426 7.5 15.75 8.50736 15.75 9.75C15.75 10.9926 14.7426 12 13.5 12C14.7426 12 15.75 13.0074 15.75 14.25C15.75 15.4926 14.7426 16.5 13.5 16.5H9V7.5H13.5Z" stroke="black" stroke-width="1.5" stroke-linecap="round" stroke-linejoin="round"/>
</svg>
