<svg width="25" height="24" viewBox="0 0 25 24" fill="none" xmlns="http://www.w3.org/2000/svg">
<path fill-rule="evenodd" clip-rule="evenodd" d="M11.55 6C12.9418 6 14.07 4.82475 14.07 3.375C14.07 1.92525 12.9418 0.75 11.55 0.75C10.1582 0.75 9.03 1.92525 9.03 3.375C9.03 4.82475 10.1582 6 11.55 6Z" stroke="black" stroke-width="1.5" stroke-linecap="round" stroke-linejoin="round"/>
<path d="M11.55 18.75V21.75" stroke="black" stroke-width="1.5" stroke-linecap="round" stroke-linejoin="round"/>
<path d="M11.55 21.75C11.55 22.5784 10.9053 23.25 10.11 23.25C9.31471 23.25 8.67 22.5784 8.67 21.75V17.25" stroke="black" stroke-width="1.5" stroke-linecap="round" stroke-linejoin="round"/>
<path d="M8.67 12V13.5C8.67 14.3284 8.02529 15 7.23 15C6.43471 15 5.79 14.3284 5.79 13.5V12C5.79 9.51472 7.72413 7.5 10.11 7.5H12.99C14.1357 7.5 15.2345 7.97411 16.0447 8.81802C16.8549 9.66193 17.31 10.8065 17.31 12V13.5C17.31 14.3284 16.6653 15 15.87 15C15.0747 15 14.43 14.3284 14.43 13.5V12" stroke="black" stroke-width="1.5" stroke-linecap="round" stroke-linejoin="round"/>
<path d="M11.55 21.75C11.55 22.5784 12.1947 23.25 12.99 23.25C13.7853 23.25 14.43 22.5784 14.43 21.75V17.25" stroke="black" stroke-width="1.5" stroke-linecap="round" stroke-linejoin="round"/>
<path d="M0.75 23.25V12" stroke="black" stroke-width="1.5" stroke-linecap="round" stroke-linejoin="round"/>
<path d="M22.35 23.25V12" stroke="black" stroke-width="1.5" stroke-linecap="round" stroke-linejoin="round"/>
<path d="M0.75 14.25H5.98296" stroke="black" stroke-width="1.5" stroke-linecap="round" stroke-linejoin="round"/>
<path d="M8.47704 14.25H14.623" stroke="black" stroke-width="1.5" stroke-linecap="round" stroke-linejoin="round"/>
<path d="M17.117 14.25H22.35" stroke="black" stroke-width="1.5" stroke-linecap="round" stroke-linejoin="round"/>
</svg>
