<svg width="24" height="24" viewBox="0 0 24 24" fill="none" xmlns="http://www.w3.org/2000/svg">
<path fill-rule="evenodd" clip-rule="evenodd" d="M11.625 9C13.0747 9 14.25 7.82475 14.25 6.375C14.25 4.92525 13.0747 3.75 11.625 3.75C10.1753 3.75 9 4.92525 9 6.375C9 7.82475 10.1753 9 11.625 9Z" stroke="black" stroke-width="1.5" stroke-linecap="round" stroke-linejoin="round"/>
<path fill-rule="evenodd" clip-rule="evenodd" d="M10.5 20.25C15.8848 20.25 20.25 15.8848 20.25 10.5C20.25 5.11522 15.8848 0.75 10.5 0.75C5.11522 0.75 0.75 5.11522 0.75 10.5C0.75 15.8848 5.11522 20.25 10.5 20.25Z" stroke="black" stroke-width="1.5" stroke-linecap="round" stroke-linejoin="round"/>
<path d="M12.75 16.875V14.25C13.445 14.3287 14.1169 14.5474 14.725 14.893C14.991 15.014 15.275 15.144 15.581 15.274" stroke="black" stroke-width="1.5" stroke-linecap="round" stroke-linejoin="round"/>
<path d="M16.966 12.6C16.615 12.456 16.287 12.307 15.966 12.162C14.9751 11.62 13.8749 11.308 12.747 11.249H9.747C7.26286 11.2462 5.24976 9.23314 5.247 6.749V6C5.247 5.17157 4.57543 4.5 3.747 4.5C2.91857 4.5 2.247 5.17157 2.247 6V6.75C2.25196 10.8901 5.60692 14.245 9.747 14.25V17.25" stroke="black" stroke-width="1.5" stroke-linecap="round" stroke-linejoin="round"/>
<path d="M20.906 16.481C21.178 16.493 21.458 16.5 21.75 16.5C22.508 16.4997 23.1467 15.9338 23.2384 15.1813C23.33 14.4289 22.8458 13.7263 22.11 13.544" stroke="black" stroke-width="1.5" stroke-linecap="round" stroke-linejoin="round"/>
<path d="M13.332 22.163C14.2362 22.8704 15.352 23.2532 16.5 23.25H21.75C22.5784 23.25 23.25 22.5784 23.25 21.75C23.25 20.9216 22.5784 20.25 21.75 20.25H17.5" stroke="black" stroke-width="1.5" stroke-linecap="round" stroke-linejoin="round"/>
<path d="M9.75 23.25V22.5" stroke="black" stroke-width="1.5" stroke-linecap="round" stroke-linejoin="round"/>
</svg>
