<svg width="24" height="24" viewBox="0 0 24 24" fill="none" xmlns="http://www.w3.org/2000/svg">
<path d="M2.25 23.25V0.75" stroke="black" stroke-width="1.5" stroke-linecap="round" stroke-linejoin="round"/>
<path d="M21.75 23.25V0.75" stroke="black" stroke-width="1.5" stroke-linecap="round" stroke-linejoin="round"/>
<path d="M21.75 3H2.25" stroke="black" stroke-width="1.5" stroke-linecap="round" stroke-linejoin="round"/>
<path d="M8.25 3V9.75" stroke="black" stroke-width="1.5" stroke-linecap="round" stroke-linejoin="round"/>
<path fill-rule="evenodd" clip-rule="evenodd" d="M8.25 14.25C9.49264 14.25 10.5 13.2426 10.5 12C10.5 10.7574 9.49264 9.75 8.25 9.75C7.00736 9.75 6 10.7574 6 12C6 13.2426 7.00736 14.25 8.25 14.25Z" stroke="black" stroke-width="1.5" stroke-linecap="round" stroke-linejoin="round"/>
<path d="M15.75 3V9.75" stroke="black" stroke-width="1.5" stroke-linecap="round" stroke-linejoin="round"/>
<path fill-rule="evenodd" clip-rule="evenodd" d="M15.75 14.25C16.9926 14.25 18 13.2426 18 12C18 10.7574 16.9926 9.75 15.75 9.75C14.5074 9.75 13.5 10.7574 13.5 12C13.5 13.2426 14.5074 14.25 15.75 14.25Z" stroke="black" stroke-width="1.5" stroke-linecap="round" stroke-linejoin="round"/>
</svg>
