<svg width="24" height="24" viewBox="0 0 24 24" fill="none" xmlns="http://www.w3.org/2000/svg">
<path fill-rule="evenodd" clip-rule="evenodd" d="M6.551 23C6.00878 23.0002 5.50869 22.7077 5.243 22.235L1.043 14.307C0.667103 13.5888 0.929764 12.702 1.63612 12.3043C2.34248 11.9067 3.23697 12.1421 3.656 12.836L7.856 20.765C8.26179 21.4866 8.00623 22.4005 7.285 22.807C7.06123 22.934 6.80827 23.0005 6.551 23Z" stroke="black" stroke-width="1.5" stroke-linecap="round" stroke-linejoin="round"/>
<path d="M1.73099 12.209C1.97793 5.94256 7.12869 0.989115 13.4 0.987C18.5616 0.987 22.746 5.17135 22.746 10.333C22.746 12.316 21.9582 14.2178 20.556 15.62C19.1538 17.0222 17.252 17.81 15.269 17.81C13.6826 17.81 12.1611 17.1797 11.0394 16.0579C9.91774 14.936 9.28772 13.4144 9.28799 11.828C9.28799 9.18532 11.4303 7.043 14.073 7.043" stroke="black" stroke-width="1.5" stroke-linecap="round" stroke-linejoin="round"/>
</svg>
