<svg width="24" height="24" viewBox="0 0 24 24" fill="none" xmlns="http://www.w3.org/2000/svg">
<path fill-rule="evenodd" clip-rule="evenodd" d="M12 6C13.4497 6 14.625 4.82475 14.625 3.375C14.625 1.92525 13.4497 0.75 12 0.75C10.5503 0.75 9.375 1.92525 9.375 3.375C9.375 4.82475 10.5503 6 12 6Z" stroke="black" stroke-width="1.5" stroke-linecap="round" stroke-linejoin="round"/>
<path fill-rule="evenodd" clip-rule="evenodd" d="M3 11.25C4.24264 11.25 5.25 10.2426 5.25 9C5.25 7.75736 4.24264 6.75 3 6.75C1.75736 6.75 0.75 7.75736 0.75 9C0.75 10.2426 1.75736 11.25 3 11.25Z" stroke="black" stroke-width="1.5" stroke-linecap="round" stroke-linejoin="round"/>
<path fill-rule="evenodd" clip-rule="evenodd" d="M21 11.25C22.2426 11.25 23.25 10.2426 23.25 9C23.25 7.75736 22.2426 6.75 21 6.75C19.7574 6.75 18.75 7.75736 18.75 9C18.75 10.2426 19.7574 11.25 21 11.25Z" stroke="black" stroke-width="1.5" stroke-linecap="round" stroke-linejoin="round"/>
<path d="M3 0.75V6.75" stroke="black" stroke-width="1.5" stroke-linecap="round" stroke-linejoin="round"/>
<path d="M21 0.75V6.75" stroke="black" stroke-width="1.5" stroke-linecap="round" stroke-linejoin="round"/>
<path d="M7.5 7.5H16.5" stroke="black" stroke-width="1.5" stroke-linecap="round" stroke-linejoin="round"/>
<path d="M12 17.25V23.25" stroke="black" stroke-width="1.5" stroke-linecap="round" stroke-linejoin="round"/>
<path d="M7.5 10.5H9V23.25" stroke="black" stroke-width="1.5" stroke-linecap="round" stroke-linejoin="round"/>
<path d="M16.5 10.5H15V23.25" stroke="black" stroke-width="1.5" stroke-linecap="round" stroke-linejoin="round"/>
</svg>
