<svg width="24" height="24" viewBox="0 0 24 24" fill="none" xmlns="http://www.w3.org/2000/svg">
<path d="M22.2501 11.25H1.75014" stroke="black" stroke-width="1.5" stroke-linecap="round" stroke-linejoin="round"/>
<path d="M22.7501 17.25H1.25014" stroke="black" stroke-width="1.5" stroke-linecap="round" stroke-linejoin="round"/>
<path d="M10.5001 14.25H13.5001" stroke="black" stroke-width="1.5" stroke-linecap="round" stroke-linejoin="round"/>
<path d="M10.5001 8.25H13.5001" stroke="black" stroke-width="1.5" stroke-linecap="round" stroke-linejoin="round"/>
<path d="M10.5001 20.25H13.5001" stroke="black" stroke-width="1.5" stroke-linecap="round" stroke-linejoin="round"/>
<path fill-rule="evenodd" clip-rule="evenodd" d="M23.2451 21.626C23.2799 22.0448 23.1373 22.459 22.8522 22.7678C22.567 23.0765 22.1654 23.2514 21.7451 23.25H2.25014C1.83074 23.25 1.43047 23.0745 1.14642 22.7659C0.862366 22.4574 0.720468 22.044 0.755139 21.626L2.13514 6.626C2.19965 5.84827 2.84974 5.24993 3.63014 5.25H20.3701C21.1505 5.24993 21.8006 5.84827 21.8651 6.626L23.2451 21.626Z" stroke="black" stroke-width="1.5" stroke-linecap="round" stroke-linejoin="round"/>
<path d="M3.00014 5.387C2.85314 2.839 6.93914 0.75 12.0001 0.75C17.0611 0.75 21.1471 2.839 21.0001 5.387" stroke="black" stroke-width="1.5" stroke-linecap="round" stroke-linejoin="round"/>
</svg>
