<svg width="24" height="24" viewBox="0 0 24 24" fill="none" xmlns="http://www.w3.org/2000/svg">
<path d="M14 5.534C18.3882 6.66702 21.2493 10.8863 20.6783 15.3822C20.1072 19.8782 16.2821 23.2482 11.75 23.2482C7.2179 23.2482 3.3928 19.8782 2.82173 15.3822C2.25067 10.8863 5.11181 6.66702 9.5 5.534" stroke="black" stroke-width="1.5" stroke-linecap="round" stroke-linejoin="round"/>
<path fill-rule="evenodd" clip-rule="evenodd" d="M11.75 18.75C14.2353 18.75 16.25 16.7353 16.25 14.25C16.25 11.7647 14.2353 9.75 11.75 9.75C9.26472 9.75 7.25 11.7647 7.25 14.25C7.25 16.7353 9.26472 18.75 11.75 18.75Z" stroke="black" stroke-width="1.5" stroke-linecap="round" stroke-linejoin="round"/>
<path d="M9.5 0.75V10.353" stroke="black" stroke-width="1.5" stroke-linecap="round" stroke-linejoin="round"/>
<path d="M14 0.75V10.353" stroke="black" stroke-width="1.5" stroke-linecap="round" stroke-linejoin="round"/>
</svg>
