<svg width="24" height="24" viewBox="0 0 24 24" fill="none" xmlns="http://www.w3.org/2000/svg">
<path d="M6 0.75V9.917" stroke="black" stroke-width="1.5" stroke-linecap="round" stroke-linejoin="round"/>
<path d="M9 0.75V9.917" stroke="black" stroke-width="1.5" stroke-linecap="round" stroke-linejoin="round"/>
<path fill-rule="evenodd" clip-rule="evenodd" d="M7.5 23.25C11.2279 23.25 14.25 20.2279 14.25 16.5C14.25 12.7721 11.2279 9.75 7.5 9.75C3.77208 9.75 0.75 12.7721 0.75 16.5C0.75 20.2279 3.77208 23.25 7.5 23.25Z" stroke="black" stroke-width="1.5" stroke-linecap="round" stroke-linejoin="round"/>
<path fill-rule="evenodd" clip-rule="evenodd" d="M7.5 20.25C9.57107 20.25 11.25 18.5711 11.25 16.5C11.25 14.4289 9.57107 12.75 7.5 12.75C5.42893 12.75 3.75 14.4289 3.75 16.5C3.75 18.5711 5.42893 20.25 7.5 20.25Z" stroke="black" stroke-width="1.5" stroke-linecap="round" stroke-linejoin="round"/>
<path d="M15 0.75V9.917" stroke="black" stroke-width="1.5" stroke-linecap="round" stroke-linejoin="round"/>
<path d="M18 0.75V9.917" stroke="black" stroke-width="1.5" stroke-linecap="round" stroke-linejoin="round"/>
<path d="M15 9.917C17.7051 9.30384 20.5099 10.4079 22.0712 12.7004C23.6325 14.9929 23.6325 18.0071 22.0712 20.2996C20.5099 22.5921 17.7051 23.6962 15 23.083" stroke="black" stroke-width="1.5" stroke-linecap="round" stroke-linejoin="round"/>
<path d="M16.5 12.75C18.5711 12.75 20.25 14.4289 20.25 16.5C20.25 18.5711 18.5711 20.25 16.5 20.25" stroke="black" stroke-width="1.5" stroke-linecap="round" stroke-linejoin="round"/>
</svg>
