<svg width="25" height="24" viewBox="0 0 25 24" fill="none" xmlns="http://www.w3.org/2000/svg">
<path fill-rule="evenodd" clip-rule="evenodd" d="M11.5558 11.25C12.9475 11.25 14.0758 10.0747 14.0758 8.625C14.0758 7.17525 12.9475 6 11.5558 6C10.164 6 9.03576 7.17525 9.03576 8.625C9.03576 10.0747 10.164 11.25 11.5558 11.25Z" stroke="black" stroke-width="1.5" stroke-linecap="round" stroke-linejoin="round"/>
<path d="M0.75 23.25V0.75" stroke="black" stroke-width="1.5" stroke-linecap="round" stroke-linejoin="round"/>
<path d="M22.35 23.25V0.75" stroke="black" stroke-width="1.5" stroke-linecap="round" stroke-linejoin="round"/>
<path d="M0.75 2.25H2.19" stroke="black" stroke-width="1.5" stroke-linecap="round" stroke-linejoin="round"/>
<path d="M7.23 2.25H15.87" stroke="black" stroke-width="1.5" stroke-linecap="round" stroke-linejoin="round"/>
<path d="M20.91 2.25H22.35" stroke="black" stroke-width="1.5" stroke-linecap="round" stroke-linejoin="round"/>
<path fill-rule="evenodd" clip-rule="evenodd" d="M19.9567 17.941C19.5226 17.255 18.6424 17.0548 17.9734 17.49C16.8685 18.0723 15.6685 18.4332 14.4358 18.554V15.235C15.4619 14.8585 16.3845 14.2273 17.1238 13.396C19.8492 10.311 19.4854 5.336 19.4681 5.125C19.4437 4.72673 19.2648 4.35594 18.9725 4.09791C18.6803 3.83987 18.2998 3.7168 17.9186 3.757C17.1264 3.8239 16.5361 4.54673 16.5996 5.372C16.5996 5.41 16.8694 9.265 14.9993 11.372C14.0989 12.3317 12.8414 12.8346 11.5558 12.749C10.2699 12.8345 9.01213 12.3316 8.11128 11.372C6.246 9.272 6.50712 5.428 6.51096 5.372C6.5751 4.54744 5.98626 3.82445 5.1948 3.756C4.81314 3.71609 4.43228 3.83929 4.13945 4.09737C3.84663 4.35546 3.66693 4.72632 3.64152 5.125C3.62424 5.336 3.25752 10.311 5.98584 13.396C6.72497 14.2275 7.64763 14.8588 8.67384 15.235V18.552C7.44213 18.4298 6.24292 18.0704 5.1372 17.492C4.47264 17.0459 3.58704 17.2413 3.15323 17.9298C2.71943 18.6183 2.89968 19.5424 3.55704 20C3.81528 20.179 6.23256 21.752 11.5558 21.752C16.879 21.752 19.2953 20.177 19.5545 20C20.2085 19.5451 20.388 18.626 19.9567 17.941Z" stroke="black" stroke-width="1.5" stroke-linecap="round" stroke-linejoin="round"/>
</svg>
