<svg width="24" height="24" viewBox="0 0 24 24" fill="none" xmlns="http://www.w3.org/2000/svg">
<path d="M12.286 6.30001C12.158 7.40542 12.7504 8.46904 13.7577 8.94216C14.7649 9.41527 15.9617 9.19212 16.7308 8.38782C17.4998 7.58353 17.6692 6.37788 17.1514 5.39286C16.6337 4.40784 15.5446 3.86364 14.446 4.04101" stroke="black" stroke-width="1.5" stroke-linecap="round" stroke-linejoin="round"/>
<path d="M21.518 6.969L19.647 2.621C19.0733 1.47433 17.9012 0.750062 16.619 0.75C15.9268 0.749899 15.2719 1.06401 14.8387 1.60395C14.4055 2.14388 14.2408 2.85125 14.391 3.527C14.5401 4.20204 14.375 4.90828 13.9422 5.44729C13.5093 5.9863 12.8553 6.29991 12.164 6.3C10.9278 6.29904 9.84136 5.48016 9.5 4.292L9.337 3.721C9.04205 2.69485 8.10469 1.98694 7.037 1.984C6.56381 1.98258 6.11404 2.18978 5.80761 2.55035C5.50119 2.91093 5.36926 3.38824 5.447 3.855C5.58837 4.68913 5.04465 5.48568 4.21633 5.65791C3.38802 5.83013 2.57185 5.31635 2.369 4.495C2.20106 3.82667 1.64373 3.32753 0.960999 3.234" stroke="black" stroke-width="1.5" stroke-linecap="round" stroke-linejoin="round"/>
<path fill-rule="evenodd" clip-rule="evenodd" d="M22.069 7.07501C21.3096 6.77267 20.4488 7.14222 20.145 7.90101L19.409 9.74101C19.1852 10.3034 18.6403 10.6718 18.035 10.67H12.2C11.8646 10.6693 11.5393 10.5551 11.277 10.346L8.384 8.03401C7.97253 7.68735 7.40542 7.59111 6.90262 7.78263C6.39983 7.97414 6.04045 8.42327 5.96386 8.95582C5.88728 9.48838 6.10554 10.0206 6.534 10.346L9.423 12.657C10.2107 13.2862 11.1888 13.6293 12.197 13.63H12.615L11.347 16.59H10.012C9.6654 16.5903 9.32977 16.4685 9.064 16.246L5.447 13.232C4.81878 12.7087 3.88529 12.7938 3.362 13.422C2.83871 14.0502 2.92378 14.9837 3.552 15.507L7.169 18.519C7.96695 19.1845 8.97293 19.5494 10.012 19.55H13.788C14.1346 19.5497 14.4702 19.6715 14.736 19.894L18.353 22.907C18.9824 23.4109 19.8992 23.3183 20.4152 22.6988C20.9311 22.0794 20.8564 21.1609 20.247 20.633L16.631 17.62C16.0302 17.1199 15.3084 16.7867 14.538 16.654L15.838 13.63H18.038C19.8551 13.6357 21.4906 12.5289 22.161 10.84L22.894 9.00001C23.1971 8.24062 22.8279 7.37922 22.069 7.07501Z" stroke="black" stroke-width="1.5" stroke-linecap="round" stroke-linejoin="round"/>
</svg>
