<svg width="25" height="24" viewBox="0 0 25 24" fill="none" xmlns="http://www.w3.org/2000/svg">
<path fill-rule="evenodd" clip-rule="evenodd" d="M11.55 16.25C17.5147 16.25 22.35 13.5637 22.35 10.25C22.35 6.93629 17.5147 4.25 11.55 4.25C5.58532 4.25 0.75 6.93629 0.75 10.25C0.75 13.5637 5.58532 16.25 11.55 16.25Z" stroke="black" stroke-width="1.5" stroke-linecap="round" stroke-linejoin="round"/>
<path fill-rule="evenodd" clip-rule="evenodd" d="M11.55 13.25C15.1288 13.25 18.03 11.9069 18.03 10.25C18.03 8.59315 15.1288 7.25 11.55 7.25C7.97119 7.25 5.07 8.59315 5.07 10.25C5.07 11.9069 7.97119 13.25 11.55 13.25Z" stroke="black" stroke-width="1.5" stroke-linecap="round" stroke-linejoin="round"/>
<path d="M0.75 10.25V17.75" stroke="black" stroke-width="1.5" stroke-linecap="round" stroke-linejoin="round"/>
<path d="M22.35 10.25V17.75" stroke="black" stroke-width="1.5" stroke-linecap="round" stroke-linejoin="round"/>
<path d="M16.59 15.558V20" stroke="black" stroke-width="1.5" stroke-linecap="round" stroke-linejoin="round"/>
<path d="M6.51 15.558V20" stroke="black" stroke-width="1.5" stroke-linecap="round" stroke-linejoin="round"/>
</svg>
