<svg width="24" height="24" viewBox="0 0 24 24" fill="none" xmlns="http://www.w3.org/2000/svg">
<path d="M0.75 23.2505V21.7505C0.75 20.922 1.42157 20.2505 2.25 20.2505H21.75C22.5784 20.2505 23.25 20.922 23.25 21.7505V23.2505" stroke="black" stroke-width="1.5" stroke-linecap="round" stroke-linejoin="round"/>
<path d="M6.75 17.2505V20.2505" stroke="black" stroke-width="1.5" stroke-linecap="round" stroke-linejoin="round"/>
<path d="M17.25 18.0005V20.2505" stroke="black" stroke-width="1.5" stroke-linecap="round" stroke-linejoin="round"/>
<path fill-rule="evenodd" clip-rule="evenodd" d="M3.75 6.00047C5.19975 6.00047 6.375 4.82522 6.375 3.37547C6.375 1.92573 5.19975 0.750473 3.75 0.750473C2.30025 0.750473 1.125 1.92573 1.125 3.37547C1.125 4.82522 2.30025 6.00047 3.75 6.00047Z" stroke="black" stroke-width="1.5" stroke-linecap="round" stroke-linejoin="round"/>
<path fill-rule="evenodd" clip-rule="evenodd" d="M21.75 11.2505H16.63L22.009 6.36048C22.622 5.80323 22.6673 4.85452 22.11 4.24148C21.5527 3.62844 20.604 3.58323 19.991 4.14048L12.524 10.9265C12.5186 10.9352 12.5126 10.9436 12.506 10.9515L8.782 9.08948L14.561 3.31148C15.147 2.72551 15.147 1.77545 14.561 1.18948C13.975 0.603507 13.025 0.603506 12.439 1.18948L6.568 7.06148C5.72171 7.9034 5.24716 9.04873 5.25 10.2425V15.7505C5.25 16.5789 5.92157 17.2505 6.75 17.2505C7.57842 17.2505 8.25 16.5789 8.25 15.7505V12.1775L11.45 13.7775C12.0749 14.0893 12.7636 14.2518 13.462 14.2525H21.75C22.5784 14.2525 23.25 13.5809 23.25 12.7525C23.25 11.9241 22.5784 11.2525 21.75 11.2525V11.2505Z" stroke="black" stroke-width="1.5" stroke-linecap="round" stroke-linejoin="round"/>
</svg>
