<svg width="24" height="24" viewBox="0 0 24 24" fill="none" xmlns="http://www.w3.org/2000/svg">
<path fill-rule="evenodd" clip-rule="evenodd" d="M17.625 6C19.0747 6 20.25 4.82475 20.25 3.375C20.25 1.92525 19.0747 0.75 17.625 0.75C16.1753 0.75 15 1.92525 15 3.375C15 4.82475 16.1753 6 17.625 6Z" stroke="black" stroke-width="1.5" stroke-linecap="round" stroke-linejoin="round"/>
<path fill-rule="evenodd" clip-rule="evenodd" d="M2.25 4.5C3.07843 4.5 3.75 5.17157 3.75 6V9C3.75 9.82843 4.42157 10.5 5.25 10.5H7.069L12.705 6.979C13.0463 6.7657 13.459 6.69852 13.8504 6.79254C14.2417 6.88657 14.5788 7.13392 14.786 7.479L16.162 9.772C16.4343 10.223 16.9222 10.4993 17.449 10.501H20.249C21.0774 10.501 21.749 11.1726 21.749 12.001C21.749 12.8294 21.0774 13.501 20.249 13.501H17.449C15.8694 13.4963 14.4065 12.6686 13.589 11.317L13 10.332L9 12.832V21C9 21.8284 8.32843 22.5 7.5 22.5C6.67157 22.5 6 21.8284 6 21V13.5H5.25C2.76586 13.4972 0.752756 11.4841 0.75 9V6C0.75 5.60218 0.908035 5.22064 1.18934 4.93934C1.47064 4.65804 1.85218 4.5 2.25 4.5Z" stroke="black" stroke-width="1.5" stroke-linecap="round" stroke-linejoin="round"/>
<path d="M12.039 14.272C10.7014 16.6161 11.0935 19.5649 12.9973 21.478C14.9011 23.391 17.8479 23.7976 20.1985 22.4714C22.5491 21.1452 23.725 18.4127 23.072 15.794" stroke="black" stroke-width="1.5" stroke-linecap="round" stroke-linejoin="round"/>
</svg>
