<svg width="24" height="24" viewBox="0 0 24 24" fill="none" xmlns="http://www.w3.org/2000/svg">
<path fill-rule="evenodd" clip-rule="evenodd" d="M12 22.548C16.5563 22.548 20.25 18.8543 20.25 14.298C20.25 9.74162 16.5563 6.04797 12 6.04797C7.44365 6.04797 3.75 9.74162 3.75 14.298C3.75 18.8543 7.44365 22.548 12 22.548Z" stroke="black" stroke-width="1.5" stroke-linecap="round" stroke-linejoin="round"/>
<path d="M4.658 10.548H19.342" stroke="black" stroke-width="1.5" stroke-linecap="round" stroke-linejoin="round"/>
<path d="M12 10.548V22.548" stroke="black" stroke-width="1.5" stroke-linecap="round" stroke-linejoin="round"/>
<path d="M4.292 11.351C3.45564 10.8258 2.48757 10.5484 1.5 10.551" stroke="black" stroke-width="1.5" stroke-linecap="round" stroke-linejoin="round"/>
<path d="M1.5 21.048C3.00109 21.0493 4.43062 20.4066 5.426 19.283" stroke="black" stroke-width="1.5" stroke-linecap="round" stroke-linejoin="round"/>
<path d="M1.5 15.048H3.785" stroke="black" stroke-width="1.5" stroke-linecap="round" stroke-linejoin="round"/>
<path d="M19.708 11.351C20.5444 10.8258 21.5124 10.5484 22.5 10.551" stroke="black" stroke-width="1.5" stroke-linecap="round" stroke-linejoin="round"/>
<path d="M22.5 21.048C20.9989 21.0493 19.5694 20.4066 18.574 19.283" stroke="black" stroke-width="1.5" stroke-linecap="round" stroke-linejoin="round"/>
<path d="M22.5 15.048H20.215" stroke="black" stroke-width="1.5" stroke-linecap="round" stroke-linejoin="round"/>
<path d="M5.96001 1.5C5.96001 4.437 6.18801 5.527 8.64701 6.758" stroke="black" stroke-width="1.5" stroke-linecap="round" stroke-linejoin="round"/>
<path d="M17.96 1.5C17.96 4.437 17.732 5.527 15.273 6.758" stroke="black" stroke-width="1.5" stroke-linecap="round" stroke-linejoin="round"/>
</svg>
