<svg width="24" height="24" viewBox="0 0 24 24" fill="none" xmlns="http://www.w3.org/2000/svg">
<path fill-rule="evenodd" clip-rule="evenodd" d="M17.25 7.5C17.25 4.60051 14.8995 2.25 12 2.25C9.10051 2.25 6.75 4.60051 6.75 7.5V8.25H17.25V7.5Z" stroke="black" stroke-width="1.5" stroke-linecap="round" stroke-linejoin="round"/>
<path fill-rule="evenodd" clip-rule="evenodd" d="M6.75 18C6.75 20.8995 9.10051 23.25 12 23.25C14.8995 23.25 17.25 20.8995 17.25 18V8.25H6.75V18Z" stroke="black" stroke-width="1.5" stroke-linecap="round" stroke-linejoin="round"/>
<path d="M16.594 4.959C18.3433 4.29638 19.5003 2.62063 19.5 0.75" stroke="black" stroke-width="1.5" stroke-linecap="round" stroke-linejoin="round"/>
<path d="M7.406 4.959C5.65666 4.29638 4.49968 2.62063 4.5 0.75" stroke="black" stroke-width="1.5" stroke-linecap="round" stroke-linejoin="round"/>
<path d="M17.25 12.75H23.25" stroke="black" stroke-width="1.5" stroke-linecap="round" stroke-linejoin="round"/>
<path d="M23.25 18.75C19.9363 18.75 17.25 16.0637 17.25 12.75C17.25 9.43629 19.9363 6.75 23.25 6.75" stroke="black" stroke-width="1.5" stroke-linecap="round" stroke-linejoin="round"/>
<path d="M6.75 12.75H0.75" stroke="black" stroke-width="1.5" stroke-linecap="round" stroke-linejoin="round"/>
<path d="M0.75 18.75C4.06371 18.75 6.75 16.0637 6.75 12.75C6.75 9.43629 4.06371 6.75 0.75 6.75" stroke="black" stroke-width="1.5" stroke-linecap="round" stroke-linejoin="round"/>
</svg>
