<svg width="24" height="24" viewBox="0 0 24 24" fill="none" xmlns="http://www.w3.org/2000/svg">
<path d="M10.5002 2.28319C11.7966 2.1706 13.1019 2.34367 14.3242 2.79019C18.0859 4.15899 20.4914 7.84778 20.227 11.842C19.9627 15.8363 17.092 19.1759 13.1827 20.037C9.27345 20.8981 5.26528 19.0737 3.34718 15.5602" stroke="black" stroke-width="1.5" stroke-linecap="round" stroke-linejoin="round"/>
<path d="M17.2262 17.9792L23.2502 23.2502" stroke="black" stroke-width="1.5" stroke-linecap="round" stroke-linejoin="round"/>
<path d="M3.00018 6.75018H9.00018" stroke="black" stroke-width="1.5" stroke-linecap="round" stroke-linejoin="round"/>
<path d="M3.00018 6.7502L0.750175 5.7002" stroke="black" stroke-width="1.5" stroke-linecap="round" stroke-linejoin="round"/>
<path d="M3.00018 9.00018H0.750175" stroke="black" stroke-width="1.5" stroke-linecap="round" stroke-linejoin="round"/>
<path d="M3.26718 10.9832L1.50018 12.7502" stroke="black" stroke-width="1.5" stroke-linecap="round" stroke-linejoin="round"/>
<path d="M9.00018 6.7502L11.2502 5.7002" stroke="black" stroke-width="1.5" stroke-linecap="round" stroke-linejoin="round"/>
<path d="M9.00018 9.00018H11.2502" stroke="black" stroke-width="1.5" stroke-linecap="round" stroke-linejoin="round"/>
<path d="M8.73318 10.9832L10.5002 12.7502" stroke="black" stroke-width="1.5" stroke-linecap="round" stroke-linejoin="round"/>
<path d="M5.09518 3.14018L3.90018 0.750183" stroke="black" stroke-width="1.5" stroke-linecap="round" stroke-linejoin="round"/>
<path d="M6.90517 3.14118L8.10017 0.750183" stroke="black" stroke-width="1.5" stroke-linecap="round" stroke-linejoin="round"/>
<path fill-rule="evenodd" clip-rule="evenodd" d="M3.00018 6.00018C3.00018 4.34333 4.34332 3.00018 6.00018 3.00018C7.65703 3.00018 9.00018 4.34333 9.00018 6.00018V9.75018C9.00018 11.407 7.65703 12.7502 6.00018 12.7502C4.34332 12.7502 3.00018 11.407 3.00018 9.75018V6.00018Z" stroke="black" stroke-width="1.5" stroke-linecap="round" stroke-linejoin="round"/>
</svg>
