<svg width="24" height="24" viewBox="0 0 24 24" fill="none" xmlns="http://www.w3.org/2000/svg">
<path d="M6.40006 15.3C7.42024 16.6494 8.79592 17.6882 10.3731 18.3L11.1731 18.608C11.706 18.813 12.2961 18.813 12.8291 18.608L13.6291 18.3C15.2061 17.6879 16.5817 16.6492 17.6021 15.3" stroke="black" stroke-width="1.5" stroke-linecap="round" stroke-linejoin="round"/>
<path d="M19.4051 10.993C19.465 10.5813 19.4967 10.166 19.5001 9.75001V4.69102C19.503 4.24095 19.242 3.8309 18.8331 3.64302C16.6787 2.70338 14.3503 2.22872 12.0001 2.25001C9.64978 2.22872 7.32144 2.70338 5.16706 3.64302C4.75808 3.8309 4.4971 4.24095 4.50006 4.69102V9.75001C4.50505 10.1661 4.53846 10.5814 4.60006 10.993" stroke="black" stroke-width="1.5" stroke-linecap="round" stroke-linejoin="round"/>
<path d="M4.55506 13.342C4.55506 13.342 3.75006 16.5 0.750059 16.5L3.00006 18L0.750059 21.75C3.08699 21.6662 5.27401 20.5777 6.75006 18.764" stroke="black" stroke-width="1.5" stroke-linecap="round" stroke-linejoin="round"/>
<path d="M19.4451 13.342C19.4451 13.342 20.2451 16.5 23.2501 16.5L21.0001 18L23.2501 21.75C20.9131 21.6662 18.7261 20.5777 17.2501 18.764" stroke="black" stroke-width="1.5" stroke-linecap="round" stroke-linejoin="round"/>
<path fill-rule="evenodd" clip-rule="evenodd" d="M12.0001 12.75C14.3396 12.8359 16.5276 13.9299 18.0001 15.75L20.2501 12C20.2501 12 18.0001 8.25 12.0001 8.25C6.00006 8.25 3.75006 12 3.75006 12L6.00006 15.75C7.47253 13.9299 9.6605 12.8359 12.0001 12.75V12.75Z" stroke="black" stroke-width="1.5" stroke-linecap="round" stroke-linejoin="round"/>
</svg>
