<svg width="24" height="24" viewBox="0 0 24 24" fill="none" xmlns="http://www.w3.org/2000/svg">
<path fill-rule="evenodd" clip-rule="evenodd" d="M3.75 11.25C3.75 10.4216 4.42157 9.75 5.25 9.75H18.75C19.5784 9.75 20.25 10.4216 20.25 11.25V21.75C20.25 22.5784 19.5784 23.25 18.75 23.25H5.25C4.42157 23.25 3.75 22.5784 3.75 21.75V11.25Z" stroke="black" stroke-width="1.5" stroke-linecap="round" stroke-linejoin="round"/>
<path d="M6.75 9.75V6C6.75 3.10051 9.10051 0.75 12 0.75C14.8995 0.75 17.25 3.10051 17.25 6V9.75" stroke="black" stroke-width="1.5" stroke-linecap="round" stroke-linejoin="round"/>
<path d="M11.858 19.5C12.0651 19.5 12.233 19.6679 12.233 19.875C12.233 20.0821 12.0651 20.25 11.858 20.25C11.6509 20.25 11.483 20.0821 11.483 19.875C11.483 19.6679 11.6509 19.5 11.858 19.5" stroke="black" stroke-width="1.5" stroke-linecap="round" stroke-linejoin="round"/>
<path d="M8.573 16.73C10.5689 15.426 13.1471 15.426 15.143 16.73" stroke="black" stroke-width="1.5" stroke-linecap="round" stroke-linejoin="round"/>
<path d="M16.966 14.36C13.8922 12.2348 9.82378 12.2348 6.75 14.36" stroke="black" stroke-width="1.5" stroke-linecap="round" stroke-linejoin="round"/>
</svg>
