<svg width="24" height="24" viewBox="0 0 24 24" fill="none" xmlns="http://www.w3.org/2000/svg">
<path fill-rule="evenodd" clip-rule="evenodd" d="M23.25 9.938C23.2504 16.5259 18.4958 22.152 12 23.25C5.50424 22.152 0.7496 16.5259 0.75 9.938V2.25C0.75 1.42157 1.42157 0.75 2.25 0.75H21.75C22.5784 0.75 23.25 1.42157 23.25 2.25V9.938Z" stroke="black" stroke-width="1.5" stroke-linecap="round" stroke-linejoin="round"/>
<path fill-rule="evenodd" clip-rule="evenodd" d="M12 12C12.8284 12 13.5 11.3284 13.5 10.5C13.5 9.67157 12.8284 9 12 9C11.1716 9 10.5 9.67157 10.5 10.5C10.5 11.3284 11.1716 12 12 12Z" stroke="black" stroke-width="1.5" stroke-linecap="round" stroke-linejoin="round"/>
<path fill-rule="evenodd" clip-rule="evenodd" d="M13.274 4.70002L13.716 6.15302C13.8673 6.65344 14.3805 6.95108 14.89 6.83402L16.362 6.49302C16.9347 6.36396 17.5247 6.62299 17.8172 7.13195C18.1098 7.64091 18.0367 8.28109 17.637 8.71102L16.606 9.81902C16.249 10.2029 16.249 10.7972 16.606 11.181L17.637 12.292C18.0367 12.722 18.1098 13.3621 17.8172 13.8711C17.5247 14.3801 16.9347 14.6391 16.362 14.51L14.89 14.169C14.3805 14.052 13.8673 14.3496 13.716 14.85L13.274 16.3C13.1053 16.8627 12.5875 17.2482 12 17.2482C11.4125 17.2482 10.8947 16.8627 10.726 16.3L10.284 14.847C10.1326 14.3466 9.61952 14.049 9.11 14.166L7.638 14.507C7.0653 14.6361 6.47532 14.3771 6.18275 13.8681C5.89018 13.3591 5.96325 12.719 6.363 12.289L7.394 11.178C7.75095 10.7942 7.75095 10.1999 7.394 9.81602L6.363 8.70802C5.96325 8.27809 5.89018 7.63791 6.18275 7.12895C6.47532 6.61999 7.0653 6.36096 7.638 6.49002L9.11 6.83102C9.61952 6.94808 10.1326 6.65044 10.284 6.15002L10.726 4.70002C10.8947 4.1373 11.4125 3.75189 12 3.75189C12.5875 3.75189 13.1053 4.1373 13.274 4.70002Z" stroke="black" stroke-width="1.5" stroke-linecap="round" stroke-linejoin="round"/>
</svg>
