<svg width="24" height="24" viewBox="0 0 24 24" fill="none" xmlns="http://www.w3.org/2000/svg">
<path fill-rule="evenodd" clip-rule="evenodd" d="M2.25 3.92393V11.5379C2.25004 16.4644 5.28398 20.8822 9.882 22.6509L10.923 23.0509C11.6162 23.3176 12.3838 23.3176 13.077 23.0509L14.118 22.6509C18.716 20.8822 21.75 16.4644 21.75 11.5379V3.92393C21.7539 3.33868 21.4142 2.80555 20.882 2.56193C18.0818 1.33972 15.0551 0.722594 12 0.750934C8.94486 0.722594 5.91817 1.33972 3.118 2.56193C2.58585 2.80555 2.24609 3.33868 2.25 3.92393Z" stroke="black" stroke-width="1.5" stroke-linecap="round" stroke-linejoin="round"/>
<path d="M10.545 12.9259C10.6522 12.8186 10.8135 12.7864 10.9537 12.8444C11.0939 12.9024 11.1853 13.0392 11.1853 13.1909C11.1853 13.3426 11.0939 13.4794 10.9537 13.5374C10.8135 13.5954 10.6522 13.5633 10.545 13.4559C10.4745 13.3857 10.4349 13.2904 10.4349 13.1909C10.4349 13.0915 10.4745 12.9961 10.545 12.9259" stroke="black" stroke-width="1.5" stroke-linecap="round" stroke-linejoin="round"/>
<path fill-rule="evenodd" clip-rule="evenodd" d="M14.587 11.7109L18.274 8.0229C18.6849 7.61205 18.8453 7.01321 18.6949 6.45197C18.5445 5.89074 18.1062 5.45236 17.5449 5.30197C16.9837 5.15159 16.3849 5.31205 15.974 5.7229L12.29 9.4139C10.5003 8.71302 8.46427 9.36321 7.41201 10.9717C6.35974 12.5801 6.57957 14.7061 7.93869 16.0652C9.29782 17.4243 11.4238 17.6442 13.0322 16.5919C14.6407 15.5396 15.2909 13.5037 14.59 11.7139L14.587 11.7109Z" stroke="black" stroke-width="1.5" stroke-linecap="round" stroke-linejoin="round"/>
</svg>
