<svg width="24" height="24" viewBox="0 0 24 24" fill="none" xmlns="http://www.w3.org/2000/svg">
<path fill-rule="evenodd" clip-rule="evenodd" d="M2.25 3.92393V11.5379C2.25004 16.4644 5.28398 20.8822 9.882 22.6509L10.923 23.0509C11.6162 23.3176 12.3838 23.3176 13.077 23.0509L14.118 22.6509C18.716 20.8822 21.75 16.4644 21.75 11.5379V3.92393C21.7539 3.33868 21.4142 2.80555 20.882 2.56193C18.0818 1.33972 15.0551 0.722594 12 0.750934C8.94486 0.722594 5.91817 1.33972 3.118 2.56193C2.58585 2.80555 2.24609 3.33868 2.25 3.92393Z" stroke="black" stroke-width="1.5" stroke-linecap="round" stroke-linejoin="round"/>
<path fill-rule="evenodd" clip-rule="evenodd" d="M7.5 11.2509C7.5 10.4225 8.17157 9.75092 9 9.75092H15C15.8284 9.75092 16.5 10.4225 16.5 11.2509V15.7509C16.5 16.5793 15.8284 17.2509 15 17.2509H9C8.17157 17.2509 7.5 16.5793 7.5 15.7509V11.2509Z" stroke="black" stroke-width="1.5" stroke-linecap="round" stroke-linejoin="round"/>
<path fill-rule="evenodd" clip-rule="evenodd" d="M12 5.25092V5.25092C10.3431 5.25092 9 6.59406 9 8.25092V9.75092H15V8.25092C15 6.59406 13.6569 5.25092 12 5.25092Z" stroke="black" stroke-width="1.5" stroke-linecap="round" stroke-linejoin="round"/>
<path d="M12 13.1549C12.2071 13.1549 12.375 13.3228 12.375 13.5299C12.375 13.737 12.2071 13.9049 12 13.9049C11.7929 13.9049 11.625 13.737 11.625 13.5299C11.625 13.3228 11.7929 13.1549 12 13.1549" stroke="black" stroke-width="1.5" stroke-linecap="round" stroke-linejoin="round"/>
</svg>
