<svg width="24" height="24" viewBox="0 0 24 24" fill="none" xmlns="http://www.w3.org/2000/svg">
<path fill-rule="evenodd" clip-rule="evenodd" d="M2.25 3.92393V11.5379C2.25004 16.4644 5.28398 20.8822 9.882 22.6509L10.923 23.0509C11.6162 23.3176 12.3838 23.3176 13.077 23.0509L14.118 22.6509C18.716 20.8822 21.75 16.4644 21.75 11.5379V3.92393C21.7539 3.33868 21.4142 2.80555 20.882 2.56193C18.0818 1.33972 15.0551 0.722594 12 0.750934C8.94486 0.722594 5.91817 1.33972 3.118 2.56193C2.58585 2.80555 2.24609 3.33868 2.25 3.92393Z" stroke="black" stroke-width="1.5" stroke-linecap="round" stroke-linejoin="round"/>
<path fill-rule="evenodd" clip-rule="evenodd" d="M17.3 12.9859C17.1197 12.8051 16.9096 12.6566 16.679 12.5469L18.361 10.8649L16.682 9.18292C15.8216 9.59385 14.7956 9.41781 14.1213 8.74358C13.4471 8.06934 13.2711 7.04333 13.682 6.18292L12 4.50092L10.318 6.18292C9.89179 5.2905 8.93281 4.78101 7.95473 4.92736C6.97664 5.0737 6.20878 5.84156 6.06244 6.81964C5.9161 7.79773 6.42558 8.7567 7.318 9.18292L5.636 10.8649L7.318 12.5469C8.17842 12.136 9.20443 12.312 9.87866 12.9863C10.5529 13.6605 10.7289 14.6865 10.318 15.5469L12 17.2289L13.682 15.5469C14.0665 16.3578 14.8961 16.8626 15.793 16.8315C16.6898 16.8005 17.4825 16.2394 17.8099 15.4038C18.1373 14.5683 17.937 13.6181 17.3 12.9859V12.9859Z" stroke="black" stroke-width="1.5" stroke-linecap="round" stroke-linejoin="round"/>
</svg>
