<svg width="24" height="24" viewBox="0 0 24 24" fill="none" xmlns="http://www.w3.org/2000/svg">
<path fill-rule="evenodd" clip-rule="evenodd" d="M2.25 3.92393V11.5379C2.25004 16.4644 5.28398 20.8822 9.882 22.6509L10.923 23.0509C11.6162 23.3176 12.3838 23.3176 13.077 23.0509L14.118 22.6509C18.716 20.8822 21.75 16.4644 21.75 11.5379V3.92393C21.7539 3.33868 21.4142 2.80555 20.882 2.56193C18.0818 1.33972 15.0551 0.722594 12 0.750934C8.94486 0.722594 5.91816 1.33972 3.118 2.56193C2.58584 2.80555 2.24608 3.33868 2.25 3.92393Z" stroke="black" stroke-width="1.5" stroke-linecap="round" stroke-linejoin="round"/>
<path d="M7.5 8.44891V14.2489C7.49947 14.6471 7.65727 15.0291 7.93863 15.3109C8.21999 15.5926 8.60183 15.7509 9 15.7509H15C15.8284 15.7509 16.5 15.0793 16.5 14.2509V8.45091" stroke="black" stroke-width="1.5" stroke-linecap="round" stroke-linejoin="round"/>
<path d="M6 9.76096L10.518 5.80796C11.3663 5.06483 12.6337 5.06483 13.482 5.80796L18 9.76096" stroke="black" stroke-width="1.5" stroke-linecap="round" stroke-linejoin="round"/>
<path fill-rule="evenodd" clip-rule="evenodd" d="M13.5 15.7509H10.5V12.7509C10.5 11.9225 11.1716 11.2509 12 11.2509C12.8284 11.2509 13.5 11.9225 13.5 12.7509V15.7509Z" stroke="black" stroke-width="1.5" stroke-linecap="round" stroke-linejoin="round"/>
</svg>
