<svg width="24" height="24" viewBox="0 0 24 24" fill="none" xmlns="http://www.w3.org/2000/svg">
<path fill-rule="evenodd" clip-rule="evenodd" d="M2.25 3.92393V11.5379C2.25004 16.4644 5.28398 20.8822 9.882 22.6509L10.923 23.0509C11.6162 23.3176 12.3838 23.3176 13.077 23.0509L14.118 22.6509C18.716 20.8822 21.75 16.4644 21.75 11.5379V3.92393C21.7539 3.33868 21.4142 2.80555 20.882 2.56193C18.0818 1.33972 15.0551 0.722594 12 0.750934C8.94486 0.722594 5.91817 1.33972 3.118 2.56193C2.58585 2.80555 2.24609 3.33868 2.25 3.92393Z" stroke="black" stroke-width="1.5" stroke-linecap="round" stroke-linejoin="round"/>
<path fill-rule="evenodd" clip-rule="evenodd" d="M8.25 6.75092C8.25 5.92249 8.92157 5.25092 9.75 5.25092H14.25C15.0784 5.25092 15.75 5.92249 15.75 6.75092V14.2509C15.75 15.0793 15.0784 15.7509 14.25 15.7509H9.75C8.92157 15.7509 8.25 15.0793 8.25 14.2509V6.75092Z" stroke="black" stroke-width="1.5" stroke-linecap="round" stroke-linejoin="round"/>
<path d="M12 11.6259C12.2071 11.6259 12.375 11.7938 12.375 12.0009C12.375 12.208 12.2071 12.3759 12 12.3759C11.7929 12.3759 11.625 12.208 11.625 12.0009C11.625 11.7938 11.7929 11.6259 12 11.6259" stroke="black" stroke-width="1.5" stroke-linecap="round" stroke-linejoin="round"/>
</svg>
