<svg width="25" height="24" viewBox="0 0 25 24" fill="none" xmlns="http://www.w3.org/2000/svg">
<path d="M13.264 0.816986C13.513 0.844986 13.764 0.879986 14.007 0.923986" stroke="black" stroke-width="1.5" stroke-linecap="round" stroke-linejoin="round"/>
<path d="M18.139 2.61099L18.753 3.04199" stroke="black" stroke-width="1.5" stroke-linecap="round" stroke-linejoin="round"/>
<path d="M21.756 6.345C21.882 6.561 22 6.782 22.112 7.006" stroke="black" stroke-width="1.5" stroke-linecap="round" stroke-linejoin="round"/>
<path d="M8.97699 22.822C8.73427 22.762 8.49603 22.6851 8.26399 22.592" stroke="black" stroke-width="1.5" stroke-linecap="round" stroke-linejoin="round"/>
<path d="M4.462 20.258L3.927 19.734" stroke="black" stroke-width="1.5" stroke-linecap="round" stroke-linejoin="round"/>
<path d="M1.50499 15.986C1.41566 15.7507 1.33466 15.5137 1.26199 15.275" stroke="black" stroke-width="1.5" stroke-linecap="round" stroke-linejoin="round"/>
<path fill-rule="evenodd" clip-rule="evenodd" d="M17.278 23.25C20.5917 23.25 23.278 20.5637 23.278 17.25C23.278 13.9363 20.5917 11.25 17.278 11.25C13.9643 11.25 11.278 13.9363 11.278 17.25C11.278 20.5637 13.9643 23.25 17.278 23.25Z" stroke="black" stroke-width="1.5" stroke-linecap="round" stroke-linejoin="round"/>
<path d="M19.952 15.505L17.047 19.379C16.9163 19.5528 16.7167 19.6615 16.4997 19.6768C16.2828 19.6922 16.0699 19.6127 15.916 19.459L14.416 17.959" stroke="black" stroke-width="1.5" stroke-linecap="round" stroke-linejoin="round"/>
<path d="M8.25 3.75H6.217C5.57438 3.75045 5.02227 4.20639 4.90032 4.83734C4.77838 5.46828 5.12083 6.09712 5.717 6.337L7.781 7.162C8.37856 7.40104 8.72228 8.03066 8.60019 8.66257C8.47811 9.29448 7.9246 9.75075 7.281 9.75H5.25" stroke="black" stroke-width="1.5" stroke-linecap="round" stroke-linejoin="round"/>
<path d="M6.75 3.75V3" stroke="black" stroke-width="1.5" stroke-linecap="round" stroke-linejoin="round"/>
<path d="M6.75 10.5V9.75" stroke="black" stroke-width="1.5" stroke-linecap="round" stroke-linejoin="round"/>
<path fill-rule="evenodd" clip-rule="evenodd" d="M6.75 12.75C10.0637 12.75 12.75 10.0637 12.75 6.75C12.75 3.43629 10.0637 0.75 6.75 0.75C3.43629 0.75 0.75 3.43629 0.75 6.75C0.75 10.0637 3.43629 12.75 6.75 12.75Z" stroke="black" stroke-width="1.5" stroke-linecap="round" stroke-linejoin="round"/>
</svg>
