<svg width="24" height="24" viewBox="0 0 24 24" fill="none" xmlns="http://www.w3.org/2000/svg">
<path d="M18.829 13.094C19.2688 13.6714 19.9627 13.998 20.688 13.969C21.826 13.969 22.75 13.276 22.75 12.422C22.75 11.568 21.826 10.875 20.688 10.875C19.55 10.875 18.625 10.182 18.625 9.32701C18.625 8.47201 19.549 7.78001 20.688 7.78001C21.4127 7.75129 22.1058 8.07788 22.545 8.65501" stroke="black" stroke-width="1.5" stroke-linecap="round" stroke-linejoin="round"/>
<path d="M20.688 13.969V15" stroke="black" stroke-width="1.5" stroke-linecap="round" stroke-linejoin="round"/>
<path d="M20.688 6.75V7.78" stroke="black" stroke-width="1.5" stroke-linecap="round" stroke-linejoin="round"/>
<path d="M1.25 18.75H14.75V20.25C14.75 21.9069 13.4069 23.25 11.75 23.25H4.25C2.59315 23.25 1.25 21.9069 1.25 20.25V3.75C1.25 2.09315 2.59315 0.75 4.25 0.75H11.75C13.4069 0.75 14.75 2.09315 14.75 3.75V5.25" stroke="black" stroke-width="1.5" stroke-linecap="round" stroke-linejoin="round"/>
<path d="M11.75 8.25H14.75" stroke="black" stroke-width="1.5" stroke-linecap="round" stroke-linejoin="round"/>
<path d="M11.75 14.25H14.75" stroke="black" stroke-width="1.5" stroke-linecap="round" stroke-linejoin="round"/>
<path d="M9.5 11.25H16.25" stroke="black" stroke-width="1.5" stroke-linecap="round" stroke-linejoin="round"/>
<path d="M7.25 11.25H6.5" stroke="black" stroke-width="1.5" stroke-linecap="round" stroke-linejoin="round"/>
<path d="M9.5 8.25H8.75" stroke="black" stroke-width="1.5" stroke-linecap="round" stroke-linejoin="round"/>
<path d="M9.5 14.25H8.75" stroke="black" stroke-width="1.5" stroke-linecap="round" stroke-linejoin="round"/>
</svg>
