<svg width="24" height="24" viewBox="0 0 24 24" fill="none" xmlns="http://www.w3.org/2000/svg">
<path d="M23.136 23.2512L23.236 22.1282C23.3725 20.6256 22.3718 19.2554 20.899 18.9282L17.428 18.1172V12.3762C17.4175 11.8705 17.2058 11.3898 16.8398 11.0407C16.4738 10.6915 15.9837 10.5028 15.478 10.5162C14.984 10.4957 14.5047 10.6872 14.1609 11.0425C13.817 11.3979 13.6413 11.8831 13.678 12.3762V21.5762L12.2 20.4732C11.5898 20.0175 10.7376 20.0788 10.199 20.6172C9.66031 21.1556 9.59858 22.0078 10.054 22.6182L10.529 23.2512" stroke="black" stroke-width="1.5" stroke-linecap="round" stroke-linejoin="round"/>
<path d="M9 17.2512C4.74014 17.2499 1.18173 14.0055 0.787915 9.7639C0.394097 5.52228 3.29438 1.67827 7.48117 0.892694C11.668 0.107119 15.7644 2.63832 16.935 6.7342" stroke="black" stroke-width="1.5" stroke-linecap="round" stroke-linejoin="round"/>
<path d="M11.357 5.4652H8.048C7.66664 5.43464 7.29108 5.57297 7.02065 5.84359C6.75022 6.11421 6.61217 6.48987 6.643 6.8712C6.643 8.4112 11.357 9.5902 11.357 11.1312C11.3624 11.5041 11.2167 11.8634 10.953 12.1272C10.6892 12.3909 10.3299 12.5366 9.957 12.5312H6.643" stroke="black" stroke-width="1.5" stroke-linecap="round" stroke-linejoin="round"/>
<path d="M9 5.4652V3.6972" stroke="black" stroke-width="1.5" stroke-linecap="round" stroke-linejoin="round"/>
<path d="M9 14.3042V12.5362" stroke="black" stroke-width="1.5" stroke-linecap="round" stroke-linejoin="round"/>
</svg>
