<svg width="24" height="24" viewBox="0 0 24 24" fill="none" xmlns="http://www.w3.org/2000/svg">
<path fill-rule="evenodd" clip-rule="evenodd" d="M18.188 10.6L19.957 7.57301C20.0566 7.40354 20.0566 7.19347 19.957 7.02401C19.8544 6.85317 19.6693 6.74905 19.47 6.75001H13.532C13.3327 6.74905 13.1477 6.85317 13.045 7.02401C12.9455 7.19347 12.9455 7.40354 13.045 7.57301L14.815 10.6C13.926 11.168 9.75203 12.7 9.75203 17.2C9.75203 20.693 12.836 23.25 16.408 23.25C19.98 23.25 23.252 20.693 23.252 17.2C23.25 12.875 19.158 11.335 18.188 10.6Z" stroke="black" stroke-width="1.5" stroke-linecap="round" stroke-linejoin="round"/>
<path d="M19.5 3.75001V1.86801C19.4945 1.24777 18.9893 0.748333 18.369 0.750007H1.87503C1.25786 0.747785 0.754982 1.24485 0.750031 1.86201V15.381C0.755525 16.0014 1.26061 16.5011 1.88103 16.5H6.00003" stroke="black" stroke-width="1.5" stroke-linecap="round" stroke-linejoin="round"/>
<path d="M0.750031 4.5H11.25" stroke="black" stroke-width="1.5" stroke-linecap="round" stroke-linejoin="round"/>
<path d="M14.642 19.094C15.0812 19.6717 15.7749 19.9984 16.5 19.969C17.639 19.969 18.563 19.276 18.563 18.422C18.563 17.568 17.639 16.875 16.5 16.875C15.361 16.875 14.438 16.182 14.438 15.327C14.438 14.472 15.361 13.78 16.5 13.78C17.225 13.7511 17.9185 14.0777 18.358 14.655" stroke="black" stroke-width="1.5" stroke-linecap="round" stroke-linejoin="round"/>
<path d="M16.5 19.969V21" stroke="black" stroke-width="1.5" stroke-linecap="round" stroke-linejoin="round"/>
<path d="M16.5 12.75V13.78" stroke="black" stroke-width="1.5" stroke-linecap="round" stroke-linejoin="round"/>
</svg>
