<svg width="24" height="24" viewBox="0 0 24 24" fill="none" xmlns="http://www.w3.org/2000/svg">
<path d="M8.25 12H6.217C5.57437 12.0004 5.02226 12.4564 4.90032 13.0873C4.77837 13.7183 5.12082 14.3471 5.717 14.587L7.781 15.412C8.3782 15.6509 8.72192 16.28 8.60037 16.9116C8.47883 17.5432 7.92622 17.9998 7.283 18H5.25" stroke="black" stroke-width="1.5" stroke-linecap="round" stroke-linejoin="round"/>
<path d="M6.75 12V11.25" stroke="black" stroke-width="1.5" stroke-linecap="round" stroke-linejoin="round"/>
<path d="M6.75 18.75V18" stroke="black" stroke-width="1.5" stroke-linecap="round" stroke-linejoin="round"/>
<path d="M7.635 9.064C7.34192 9.02137 7.04615 8.99998 6.75 9C4.49032 9.00134 2.42304 10.2721 1.40158 12.2878C0.380112 14.3034 0.577721 16.722 1.91282 18.545C3.24793 20.3681 5.49408 21.2865 7.724 20.921" stroke="black" stroke-width="1.5" stroke-linecap="round" stroke-linejoin="round"/>
<path fill-rule="evenodd" clip-rule="evenodd" d="M20.25 4.5H14.25C12.5931 4.5 11.25 5.84315 11.25 7.5V17.25C11.25 20.5637 13.9363 23.25 17.25 23.25C20.5637 23.25 23.25 20.5637 23.25 17.25V7.5C23.25 5.84315 21.9069 4.5 20.25 4.5Z" stroke="black" stroke-width="1.5" stroke-linecap="round" stroke-linejoin="round"/>
<path d="M17.25 7.5V10.5" stroke="black" stroke-width="1.5" stroke-linecap="round" stroke-linejoin="round"/>
<path d="M8.507 2.56L9.568 3.621" stroke="black" stroke-width="1.5" stroke-linecap="round" stroke-linejoin="round"/>
<path d="M12 2.25V0.75" stroke="black" stroke-width="1.5" stroke-linecap="round" stroke-linejoin="round"/>
<path d="M6.697 6H8.197" stroke="black" stroke-width="1.5" stroke-linecap="round" stroke-linejoin="round"/>
</svg>
