<svg width="24" height="24" viewBox="0 0 24 24" fill="none" xmlns="http://www.w3.org/2000/svg">
<path d="M10.329 9.34401C10.7688 9.92145 11.4627 10.248 12.188 10.219C13.326 10.219 14.25 9.52601 14.25 8.67201C14.25 7.81801 13.326 7.12501 12.188 7.12501C11.05 7.12501 10.125 6.43201 10.125 5.57701C10.125 4.72201 11.049 4.03001 12.188 4.03001C12.9127 4.00129 13.6058 4.32788 14.045 4.90501" stroke="black" stroke-width="1.5" stroke-linecap="round" stroke-linejoin="round"/>
<path d="M12.188 10.219V11.25" stroke="black" stroke-width="1.5" stroke-linecap="round" stroke-linejoin="round"/>
<path d="M12.188 3V4.03" stroke="black" stroke-width="1.5" stroke-linecap="round" stroke-linejoin="round"/>
<path d="M3.75 12.75H2.25C1.42157 12.75 0.75 12.0784 0.75 11.25V2.25C0.75 1.42157 1.42157 0.75 2.25 0.75H21.75C22.5784 0.75 23.25 1.42157 23.25 2.25V11.25C23.25 12.0784 22.5784 12.75 21.75 12.75H20.25" stroke="black" stroke-width="1.5" stroke-linecap="round" stroke-linejoin="round"/>
<path fill-rule="evenodd" clip-rule="evenodd" d="M13.5 13.5V18C13.5 18.8284 12.8284 19.5 12 19.5C11.1716 19.5 10.5 18.8284 10.5 18V13.5H6.75V18C6.75 20.8995 9.10051 23.25 12 23.25C14.8995 23.25 17.25 20.8995 17.25 18V13.5H13.5Z" stroke="black" stroke-width="1.5" stroke-linecap="round" stroke-linejoin="round"/>
<path d="M6.75 16.5H10.5" stroke="black" stroke-width="1.5" stroke-linecap="round" stroke-linejoin="round"/>
<path d="M13.5 16.5H17.25" stroke="black" stroke-width="1.5" stroke-linecap="round" stroke-linejoin="round"/>
</svg>
