<svg width="24" height="25" viewBox="0 0 24 25" fill="none" xmlns="http://www.w3.org/2000/svg">
<path d="M10.5 22.35H3.684" stroke="black" stroke-width="1.5" stroke-linecap="round" stroke-linejoin="round"/>
<path fill-rule="evenodd" clip-rule="evenodd" d="M13.1 15.031C13.2319 14.6703 13.5869 14.4293 13.985 14.43H22.313C22.6123 14.4289 22.8943 14.5643 23.073 14.7948C23.249 15.0227 23.2972 15.3191 23.202 15.5878L20.8 22.35H10.5L13.1 15.031Z" stroke="black" stroke-width="1.5" stroke-linecap="round" stroke-linejoin="round"/>
<path d="M16.891 17.1641C17.4433 17.1641 17.891 17.5939 17.891 18.1241C17.891 18.6543 17.4433 19.0841 16.891 19.0841C16.3387 19.0841 15.891 18.6543 15.891 18.1241C15.891 17.5939 16.3387 17.1641 16.891 17.1641" stroke="black" stroke-width="1.5" stroke-linecap="round" stroke-linejoin="round"/>
<path d="M0.75 22.35C0.751244 20.2897 1.77197 18.3524 3.50007 17.1306C5.22816 15.9089 7.4581 15.5478 9.508 16.158" stroke="black" stroke-width="1.5" stroke-linecap="round" stroke-linejoin="round"/>
<path d="M3.945 8.45975C5.92565 10.4287 8.96874 11.0158 11.588 9.93431" stroke="black" stroke-width="1.5" stroke-linecap="round" stroke-linejoin="round"/>
<path fill-rule="evenodd" clip-rule="evenodd" d="M7.5 14.43C9.77817 14.43 11.625 12.6571 11.625 10.47C11.625 8.28296 9.77817 6.51001 7.5 6.51001C5.22183 6.51001 3.375 8.28296 3.375 10.47C3.375 12.6571 5.22183 14.43 7.5 14.43Z" stroke="black" stroke-width="1.5" stroke-linecap="round" stroke-linejoin="round"/>
<path d="M19.125 2.19001H16.5C15.8559 2.18804 15.3013 2.62597 15.1791 3.23307C15.0569 3.84017 15.4015 4.44495 16 4.67353L18.655 5.46553C19.2526 5.69501 19.5963 6.29944 19.4742 6.90607C19.3521 7.51271 18.7986 7.95073 18.155 7.95001H15" stroke="black" stroke-width="1.5" stroke-linecap="round" stroke-linejoin="round"/>
<path d="M17.25 2.19V0.75" stroke="black" stroke-width="1.5" stroke-linecap="round" stroke-linejoin="round"/>
<path d="M17.25 9.39001V7.95001" stroke="black" stroke-width="1.5" stroke-linecap="round" stroke-linejoin="round"/>
</svg>
