<svg width="24" height="24" viewBox="0 0 24 24" fill="none" xmlns="http://www.w3.org/2000/svg">
<path d="M19.5 0.750388H21.375C22.3898 0.729743 23.2292 1.53559 23.25 2.55039V10.9504C23.2292 11.9652 22.3898 12.771 21.375 12.7504H15" stroke="black" stroke-width="1.5" stroke-linecap="round" stroke-linejoin="round"/>
<path d="M8.24999 3.7504V2.5504C8.22429 2.07969 8.39439 1.61932 8.71997 1.2784C9.04554 0.937484 9.49761 0.746383 9.96899 0.750398H12" stroke="black" stroke-width="1.5" stroke-linecap="round" stroke-linejoin="round"/>
<path d="M15.75 12.7504V15.7504" stroke="black" stroke-width="1.5" stroke-linecap="round" stroke-linejoin="round"/>
<path d="M14.25 15.7504H18" stroke="black" stroke-width="1.5" stroke-linecap="round" stroke-linejoin="round"/>
<path d="M14.25 23.2504C14.25 19.5225 11.2279 16.5004 7.5 16.5004C3.77208 16.5004 0.75 19.5225 0.75 23.2504" stroke="black" stroke-width="1.5" stroke-linecap="round" stroke-linejoin="round"/>
<path d="M3.94501 8.7814C5.92534 10.8323 8.96806 11.4438 11.587 10.3174" stroke="black" stroke-width="1.5" stroke-linecap="round" stroke-linejoin="round"/>
<path fill-rule="evenodd" clip-rule="evenodd" d="M7.5 15.0004C9.77817 15.0004 11.625 13.1536 11.625 10.8754C11.625 8.59722 9.77817 6.7504 7.5 6.7504C5.22183 6.7504 3.375 8.59722 3.375 10.8754C3.375 13.1536 5.22183 15.0004 7.5 15.0004Z" stroke="black" stroke-width="1.5" stroke-linecap="round" stroke-linejoin="round"/>
<path d="M13.892 7.09439C14.3312 7.67208 15.0249 7.99878 15.75 7.96939C16.889 7.96939 17.812 7.27639 17.812 6.42239C17.812 5.56839 16.889 4.87539 15.75 4.87539C14.611 4.87539 13.687 4.18239 13.687 3.32739C13.687 2.47239 14.611 1.78039 15.75 1.78039C16.475 1.75152 17.1685 2.07811 17.608 2.65539" stroke="black" stroke-width="1.5" stroke-linecap="round" stroke-linejoin="round"/>
<path d="M15.75 7.96939V9.00039" stroke="black" stroke-width="1.5" stroke-linecap="round" stroke-linejoin="round"/>
<path d="M15.75 0.750397V1.7804" stroke="black" stroke-width="1.5" stroke-linecap="round" stroke-linejoin="round"/>
</svg>
