<svg width="24" height="24" viewBox="0 0 24 24" fill="none" xmlns="http://www.w3.org/2000/svg">
<path d="M3.454 7.1C3.89384 7.67744 4.5877 8.00403 5.313 7.975C6.451 7.975 7.375 7.282 7.375 6.427C7.375 5.572 6.451 4.877 5.313 4.877C4.175 4.877 3.25 4.184 3.25 3.329C3.25 2.474 4.174 1.782 5.313 1.782C6.03774 1.75294 6.73101 2.07961 7.17 2.657" stroke="black" stroke-width="1.5" stroke-linecap="round" stroke-linejoin="round"/>
<path d="M5.313 7.97101V9.00101" stroke="black" stroke-width="1.5" stroke-linecap="round" stroke-linejoin="round"/>
<path d="M5.313 0.751007V1.78201" stroke="black" stroke-width="1.5" stroke-linecap="round" stroke-linejoin="round"/>
<path d="M17.034 7.09399C17.4732 7.67169 18.1669 7.99838 18.892 7.96899C20.031 7.96899 20.955 7.27599 20.955 6.42199C20.955 5.56799 20.031 4.87499 18.892 4.87499C17.753 4.87499 16.83 4.18199 16.83 3.32699C16.83 2.47199 17.754 1.77999 18.892 1.77999C19.617 1.75112 20.3105 2.07771 20.75 2.65499" stroke="black" stroke-width="1.5" stroke-linecap="round" stroke-linejoin="round"/>
<path d="M18.892 7.96899V8.99999" stroke="black" stroke-width="1.5" stroke-linecap="round" stroke-linejoin="round"/>
<path d="M18.892 0.75V1.78" stroke="black" stroke-width="1.5" stroke-linecap="round" stroke-linejoin="round"/>
<path d="M10.554 4.5H13.554" stroke="black" stroke-width="1.5" stroke-linecap="round" stroke-linejoin="round"/>
<path d="M18.071 23.25C16.9462 20.9526 14.6115 19.4961 12.0535 19.4961C9.49554 19.4961 7.16079 20.9526 6.036 23.25" stroke="black" stroke-width="1.5" stroke-linecap="round" stroke-linejoin="round"/>
<path d="M8.5 11.781C10.4803 13.8319 13.523 14.4434 16.142 13.317" stroke="black" stroke-width="1.5" stroke-linecap="round" stroke-linejoin="round"/>
<path fill-rule="evenodd" clip-rule="evenodd" d="M12.054 18C14.3322 18 16.179 16.1532 16.179 13.875C16.179 11.5968 14.3322 9.75 12.054 9.75C9.77583 9.75 7.929 11.5968 7.929 13.875C7.929 16.1532 9.77583 18 12.054 18Z" stroke="black" stroke-width="1.5" stroke-linecap="round" stroke-linejoin="round"/>
</svg>
