<svg width="24" height="24" viewBox="0 0 24 24" fill="none" xmlns="http://www.w3.org/2000/svg">
<path d="M19.5 6.00001V1.86801C19.4945 1.24777 18.9893 0.748333 18.369 0.750007H1.87503C1.25786 0.747785 0.754982 1.24485 0.750031 1.86201V15.381C0.755525 16.0014 1.26061 16.5011 1.88103 16.5H3.75003" stroke="black" stroke-width="1.5" stroke-linecap="round" stroke-linejoin="round"/>
<path d="M0.750031 4.5H19.5" stroke="black" stroke-width="1.5" stroke-linecap="round" stroke-linejoin="round"/>
<path d="M23.136 23.25L23.236 22.127C23.3725 20.6244 22.3719 19.2543 20.899 18.927L17.248 18.116V12.375C17.176 11.3448 16.3315 10.5388 15.299 10.515C14.8125 10.5194 14.3481 10.7188 14.0098 11.0684C13.6715 11.418 13.4875 11.8886 13.499 12.375V21.575L12.022 20.467C11.4118 20.0113 10.5596 20.0726 10.021 20.611C9.48234 21.1494 9.42061 22.0016 9.87603 22.612L10.351 23.245" stroke="black" stroke-width="1.5" stroke-linecap="round" stroke-linejoin="round"/>
<path d="M5.65003 13.844C6.08922 14.4217 6.78294 14.7484 7.50803 14.719C8.64703 14.719 9.57103 14.026 9.57103 13.172C9.57103 12.318 8.64703 11.625 7.50803 11.625C6.36903 11.625 5.44603 10.932 5.44603 10.077C5.44603 9.22199 6.36903 8.52999 7.50803 8.52999C8.23212 8.49995 8.92544 8.82459 9.36603 9.39999" stroke="black" stroke-width="1.5" stroke-linecap="round" stroke-linejoin="round"/>
<path d="M7.50803 14.719V15.75" stroke="black" stroke-width="1.5" stroke-linecap="round" stroke-linejoin="round"/>
<path d="M7.50803 7.5V8.53" stroke="black" stroke-width="1.5" stroke-linecap="round" stroke-linejoin="round"/>
</svg>
