<svg width="24" height="24" viewBox="0 0 24 24" fill="none" xmlns="http://www.w3.org/2000/svg">
<path d="M9.75274 23.025C4.04562 21.8606 0.170765 16.533 0.821204 10.7447C1.47164 4.95646 6.43229 0.621645 12.2555 0.752967C18.0787 0.884289 22.8389 5.43833 23.2277 11.25" stroke="black" stroke-width="1.5" stroke-linecap="round" stroke-linejoin="round"/>
<path d="M9.29174 22.921C7.76974 20.689 6.75274 16.633 6.75274 12C6.75274 7.36701 7.76974 3.31101 9.29174 1.07901" stroke="black" stroke-width="1.5" stroke-linecap="round" stroke-linejoin="round"/>
<path d="M0.752739 11.25H9.00274" stroke="black" stroke-width="1.5" stroke-linecap="round" stroke-linejoin="round"/>
<path d="M2.48473 6H21.5207" stroke="black" stroke-width="1.5" stroke-linecap="round" stroke-linejoin="round"/>
<path d="M1.68874 16.5H7.50274" stroke="black" stroke-width="1.5" stroke-linecap="round" stroke-linejoin="round"/>
<path d="M14.7137 1.07901C16.0093 3.26681 16.798 5.71723 17.0217 8.25001" stroke="black" stroke-width="1.5" stroke-linecap="round" stroke-linejoin="round"/>
<path fill-rule="evenodd" clip-rule="evenodd" d="M16.5027 23.25C19.8164 23.25 22.5027 20.5637 22.5027 17.25C22.5027 13.9363 19.8164 11.25 16.5027 11.25C13.189 11.25 10.5027 13.9363 10.5027 17.25C10.5027 20.5637 13.189 23.25 16.5027 23.25Z" stroke="black" stroke-width="1.5" stroke-linecap="round" stroke-linejoin="round"/>
<path fill-rule="evenodd" clip-rule="evenodd" d="M16.5027 19.5C17.7454 19.5 18.7527 18.4926 18.7527 17.25C18.7527 16.0074 17.7454 15 16.5027 15C15.2601 15 14.2527 16.0074 14.2527 17.25C14.2527 18.4926 15.2601 19.5 16.5027 19.5Z" stroke="black" stroke-width="1.5" stroke-linecap="round" stroke-linejoin="round"/>
<path d="M16.5027 15V11.25" stroke="black" stroke-width="1.5" stroke-linecap="round" stroke-linejoin="round"/>
<path d="M18.4517 16.125L21.6987 14.25" stroke="black" stroke-width="1.5" stroke-linecap="round" stroke-linejoin="round"/>
<path d="M14.5537 16.125L11.3067 14.25" stroke="black" stroke-width="1.5" stroke-linecap="round" stroke-linejoin="round"/>
<path d="M16.5027 19.5V23.25" stroke="black" stroke-width="1.5" stroke-linecap="round" stroke-linejoin="round"/>
<path d="M18.4517 18.375L21.6987 20.25" stroke="black" stroke-width="1.5" stroke-linecap="round" stroke-linejoin="round"/>
<path d="M14.5537 18.375L11.3067 20.25" stroke="black" stroke-width="1.5" stroke-linecap="round" stroke-linejoin="round"/>
</svg>
