<svg width="24" height="24" viewBox="0 0 24 24" fill="none" xmlns="http://www.w3.org/2000/svg">
<path d="M16.447 13.5C17.3608 12.1865 17.6262 10.5281 17.168 8.995C13.568 8.847 12.138 5.25 12.138 5.25C12.138 5.25 10.7 8.847 7.10699 8.995C6.65027 10.5283 6.91597 12.1862 7.82899 13.5" stroke="black" stroke-width="1.5" stroke-linecap="round" stroke-linejoin="round"/>
<path d="M20 18.534C20.4656 18.3924 20.9216 18.2207 21.365 18.02C22.1117 17.6839 22.4508 16.8111 22.127 16.059L20.752 12.849C20.5118 12.2888 20.388 11.6856 20.388 11.076V9C20.388 4.44365 16.6943 0.75 12.138 0.75C7.58165 0.75 3.888 4.44365 3.888 9V11.076C3.888 11.6856 3.76416 12.2888 3.52399 12.849L2.14799 16.059C1.82418 16.8111 2.16333 17.6839 2.90999 18.02C3.35373 18.2207 3.81003 18.3924 4.276 18.534" stroke="black" stroke-width="1.5" stroke-linecap="round" stroke-linejoin="round"/>
<path d="M21.614 23.25C21.0816 22.1323 20.357 21.1168 19.473 20.25" stroke="black" stroke-width="1.5" stroke-linecap="round" stroke-linejoin="round"/>
<path d="M4.79999 20.25C3.91634 21.1168 3.19198 22.1323 2.65999 23.25" stroke="black" stroke-width="1.5" stroke-linecap="round" stroke-linejoin="round"/>
<path fill-rule="evenodd" clip-rule="evenodd" d="M8.527 15.834C8.34617 15.7255 8.12104 15.7223 7.93723 15.8257C7.75343 15.9291 7.6392 16.1231 7.638 16.334V19.66C7.6392 19.8709 7.75343 20.0649 7.93723 20.1683C8.12104 20.2717 8.34617 20.2685 8.527 20.16L15.748 15.828C15.9289 15.719 16.1544 15.7155 16.3385 15.819C16.5226 15.9224 16.637 16.1168 16.638 16.328V19.654C16.637 19.8652 16.5226 20.0596 16.3385 20.163C16.1544 20.2665 15.9289 20.263 15.748 20.154L8.527 15.834Z" stroke="black" stroke-width="1.5" stroke-linecap="round" stroke-linejoin="round"/>
</svg>
