<svg width="24" height="24" viewBox="0 0 24 24" fill="none" xmlns="http://www.w3.org/2000/svg">
<path fill-rule="evenodd" clip-rule="evenodd" d="M17.2501 23.25C20.5638 23.25 23.2501 20.5637 23.2501 17.25C23.2501 13.9363 20.5638 11.25 17.2501 11.25C13.9363 11.25 11.2501 13.9363 11.2501 17.25C11.2501 20.5637 13.9363 23.25 17.2501 23.25Z" stroke="black" stroke-width="1.5" stroke-linecap="round" stroke-linejoin="round"/>
<path fill-rule="evenodd" clip-rule="evenodd" d="M17.2501 19.5C18.4927 19.5 19.5001 18.4926 19.5001 17.25C19.5001 16.0074 18.4927 15 17.2501 15C16.0074 15 15.0001 16.0074 15.0001 17.25C15.0001 18.4926 16.0074 19.5 17.2501 19.5Z" stroke="black" stroke-width="1.5" stroke-linecap="round" stroke-linejoin="round"/>
<path d="M17.2501 15V11.25" stroke="black" stroke-width="1.5" stroke-linecap="round" stroke-linejoin="round"/>
<path d="M19.1991 16.125L22.4461 14.25" stroke="black" stroke-width="1.5" stroke-linecap="round" stroke-linejoin="round"/>
<path d="M15.3011 16.125L12.0541 14.25" stroke="black" stroke-width="1.5" stroke-linecap="round" stroke-linejoin="round"/>
<path d="M17.2501 19.5V23.25" stroke="black" stroke-width="1.5" stroke-linecap="round" stroke-linejoin="round"/>
<path d="M19.1991 18.375L22.4461 20.25" stroke="black" stroke-width="1.5" stroke-linecap="round" stroke-linejoin="round"/>
<path d="M15.3011 18.375L12.0541 20.25" stroke="black" stroke-width="1.5" stroke-linecap="round" stroke-linejoin="round"/>
<path fill-rule="evenodd" clip-rule="evenodd" d="M14.9621 5.013C15.0378 5.24175 14.9991 5.49295 14.8582 5.68837C14.7172 5.88379 14.491 5.99969 14.2501 6H6.75005C6.5091 5.99969 6.28292 5.88379 6.14195 5.68837C6.00097 5.49295 5.96233 5.24175 6.03805 5.013L7.32905 1.263C7.4314 0.956699 7.71811 0.750125 8.04105 0.75H12.9591C13.282 0.750125 13.5687 0.956699 13.6711 1.263L14.9621 5.013Z" stroke="black" stroke-width="1.5" stroke-linecap="round" stroke-linejoin="round"/>
<path fill-rule="evenodd" clip-rule="evenodd" d="M9.71205 10.263C9.78778 10.4918 9.74913 10.7429 9.60816 10.9384C9.46719 11.1338 9.24101 11.2497 9.00005 11.25H1.50005C1.2591 11.2497 1.03292 11.1338 0.891945 10.9384C0.750974 10.7429 0.712333 10.4918 0.788054 10.263L2.07905 6.513C2.1814 6.2067 2.46811 6.00012 2.79105 6H7.70905C8.032 6.00012 8.31871 6.2067 8.42105 6.513L9.71205 10.263Z" stroke="black" stroke-width="1.5" stroke-linecap="round" stroke-linejoin="round"/>
<path d="M11.7231 9L12.5791 6.513C12.6814 6.2067 12.9681 6.00012 13.2911 6H18.2091C18.532 6.00012 18.8187 6.2067 18.9211 6.513L19.7771 9" stroke="black" stroke-width="1.5" stroke-linecap="round" stroke-linejoin="round"/>
</svg>
