<svg width="24" height="24" viewBox="0 0 24 24" fill="none" xmlns="http://www.w3.org/2000/svg">
<path fill-rule="evenodd" clip-rule="evenodd" d="M8.625 0.75C6.76104 0.75 5.25 2.26104 5.25 4.125V5.25H4.125C2.26104 5.25 0.75 6.76104 0.75 8.625C0.75 10.489 2.26104 12 4.125 12H12V4.125C12 2.26104 10.489 0.75 8.625 0.75Z" stroke="black" stroke-width="1.5" stroke-linecap="round" stroke-linejoin="round"/>
<path fill-rule="evenodd" clip-rule="evenodd" d="M15.375 0.75C17.239 0.75 18.75 2.26104 18.75 4.125V5.25H19.875C21.739 5.25 23.25 6.76104 23.25 8.625C23.25 10.489 21.739 12 19.875 12H12V4.125C12 2.26104 13.511 0.75 15.375 0.75Z" stroke="black" stroke-width="1.5" stroke-linecap="round" stroke-linejoin="round"/>
<path fill-rule="evenodd" clip-rule="evenodd" d="M8.625 23.25C6.76104 23.25 5.25 21.739 5.25 19.875V18.75H4.125C2.26104 18.75 0.75 17.239 0.75 15.375C0.75 13.511 2.26104 12 4.125 12H12V19.875C12 21.739 10.489 23.25 8.625 23.25Z" stroke="black" stroke-width="1.5" stroke-linecap="round" stroke-linejoin="round"/>
<path fill-rule="evenodd" clip-rule="evenodd" d="M15.375 23.25C17.239 23.25 18.75 21.739 18.75 19.875V18.75H19.875C21.739 18.75 23.25 17.239 23.25 15.375C23.25 13.511 21.739 12 19.875 12H12V19.875C12 21.739 13.511 23.25 15.375 23.25Z" stroke="black" stroke-width="1.5" stroke-linecap="round" stroke-linejoin="round"/>
</svg>
