<svg width="24" height="24" viewBox="0 0 24 24" fill="none" xmlns="http://www.w3.org/2000/svg">
<path d="M10.515 6.00701L10.839 5.34301C11.0904 4.82709 11.6141 4.49981 12.188 4.50001H15.288C18.234 4.42301 17.733 9.67401 14.937 9.56601L11.775 8.93401C11.6055 8.90144 11.43 8.93741 11.287 9.03401C10.5531 9.52375 10.2374 10.4439 10.516 11.281L10.533 11.331L16.256 13.531C16.6678 13.6893 17.121 13.7038 17.542 13.572L23.25 11.788" stroke="black" stroke-width="1.5" stroke-linecap="round" stroke-linejoin="round"/>
<path d="M6.928 4.969L8.176 2.428C8.68022 1.40087 9.72479 0.750005 10.869 0.75H19.25C19.8991 0.75 20.5307 0.960534 21.05 1.35L23.25 3" stroke="black" stroke-width="1.5" stroke-linecap="round" stroke-linejoin="round"/>
<path d="M8.842 13.184C7.58919 13.8115 6.06885 13.4882 5.17976 12.4053C4.29067 11.3223 4.26966 9.76809 5.12915 8.66147C5.98864 7.55486 7.49968 7.19059 8.769 7.78401" stroke="black" stroke-width="1.5" stroke-linecap="round" stroke-linejoin="round"/>
<path d="M7.5 13.5V17.25C7.5 18.9069 6.15685 20.25 4.5 20.25" stroke="black" stroke-width="1.5" stroke-linecap="round" stroke-linejoin="round"/>
<path d="M0.75 17.25H3C3.82843 17.25 4.5 17.9216 4.5 18.75V21.75C4.5 22.5784 3.82843 23.25 3 23.25H0.75" stroke="black" stroke-width="1.5" stroke-linecap="round" stroke-linejoin="round"/>
<path d="M0.75 23.25V9" stroke="black" stroke-width="1.5" stroke-linecap="round" stroke-linejoin="round"/>
</svg>
