<svg width="24" height="24" viewBox="0 0 24 24" fill="none" xmlns="http://www.w3.org/2000/svg">
<path d="M6.75 18.238C2.6159 16.775 0.138064 12.5454 0.883453 8.22384C1.62884 3.90232 5.38043 0.747146 9.76576 0.753611C14.1511 0.760076 17.8934 3.9263 18.626 8.25" stroke="black" stroke-width="1.5" stroke-linecap="round" stroke-linejoin="round"/>
<path d="M6.076 13.5C4.50694 11.963 4.06025 9.6119 4.9563 7.60659C5.85235 5.60128 7.90182 4.36552 10.0935 4.50903C12.2852 4.65253 14.1561 6.14497 14.783 8.25" stroke="black" stroke-width="1.5" stroke-linecap="round" stroke-linejoin="round"/>
<path d="M16.5 23.25L23.03 16.185C23.2829 15.932 23.3222 15.5358 23.124 15.238L20.473 11.584C20.3339 11.3754 20.0998 11.25 19.849 11.25H13.149C12.8982 11.25 12.6641 11.3754 12.525 11.584L9.876 15.238C9.67781 15.5358 9.71714 15.932 9.97 16.185L16.5 23.25" stroke="black" stroke-width="1.5" stroke-linecap="round" stroke-linejoin="round"/>
<path d="M9.756 15.75H23.244" stroke="black" stroke-width="1.5" stroke-linecap="round" stroke-linejoin="round"/>
<path d="M16.5 11.25V23.25" stroke="black" stroke-width="1.5" stroke-linecap="round" stroke-linejoin="round"/>
</svg>
