<svg width="24" height="24" viewBox="0 0 24 24" fill="none" xmlns="http://www.w3.org/2000/svg">
<path fill-rule="evenodd" clip-rule="evenodd" d="M8.39 15.584C8.20912 15.475 7.98361 15.4715 7.79948 15.575C7.61535 15.6784 7.50099 15.8728 7.5 16.084V19.41C7.50099 19.6212 7.61535 19.8156 7.79948 19.919C7.98361 20.0225 8.20912 20.019 8.39 19.91L15.611 15.578C15.7918 15.4695 16.017 15.4663 16.2008 15.5697C16.3846 15.6731 16.4988 15.8671 16.5 16.078V19.404C16.4988 19.6149 16.3846 19.8089 16.2008 19.9123C16.017 20.0157 15.7918 20.0125 15.611 19.904L8.39 15.584Z" stroke="black" stroke-width="1.5" stroke-linecap="round" stroke-linejoin="round"/>
<path d="M2.24999 23C2.24641 20.4832 3.21975 18.0633 4.96499 16.25" stroke="black" stroke-width="1.5" stroke-linecap="round" stroke-linejoin="round"/>
<path d="M19.035 16.25C20.7802 18.0633 21.7536 20.4832 21.75 23" stroke="black" stroke-width="1.5" stroke-linecap="round" stroke-linejoin="round"/>
<path d="M21.75 23C21.7536 20.4832 20.7802 18.0633 19.035 16.25" stroke="black" stroke-width="1.5" stroke-linecap="round" stroke-linejoin="round"/>
<path d="M4.96499 16.25C3.21975 18.0633 2.24641 20.4832 2.24999 23" stroke="black" stroke-width="1.5" stroke-linecap="round" stroke-linejoin="round"/>
<path d="M17.25 7.5C14.6428 8.73375 11.5284 7.63538 10.272 5.039C9.75717 6.72124 8.43543 8.03473 6.75 8.539" stroke="black" stroke-width="1.5" stroke-linecap="round" stroke-linejoin="round"/>
<path d="M15.674 13.25C16.6836 12.2637 17.252 10.9114 17.25 9.5V6.5C17.25 3.60051 14.8995 1.25 12 1.25C9.1005 1.25 6.74999 3.60051 6.74999 6.5V9.5C6.74801 10.9114 7.31635 12.2637 8.32599 13.25" stroke="black" stroke-width="1.5" stroke-linecap="round" stroke-linejoin="round"/>
</svg>
