<svg width="24" height="24" viewBox="0 0 24 24" fill="none" xmlns="http://www.w3.org/2000/svg">
<path d="M3.125 12.75C3.57538 15.3919 5.179 17.696 7.5 19.036V23.25" stroke="black" stroke-width="1.5" stroke-linecap="round" stroke-linejoin="round"/>
<path d="M16.5 23.25V21L17.506 21.168C18.3761 21.3133 19.2661 21.0682 19.9392 20.498C20.6123 19.9277 21.0003 19.0902 21 18.208V15.75L21.935 15.516C22.4081 15.3976 22.7941 15.0566 22.9699 14.6017C23.1458 14.1468 23.0895 13.6348 22.819 13.229L21 10.5V9.75C21 5.766 17.37 2.506 12.75 2.255" stroke="black" stroke-width="1.5" stroke-linecap="round" stroke-linejoin="round"/>
<path fill-rule="evenodd" clip-rule="evenodd" d="M0.75 1.75C0.75 1.19772 1.19772 0.75 1.75 0.75H8.75C9.30228 0.75 9.75 1.19772 9.75 1.75V8.75C9.75 9.30228 9.30228 9.75 8.75 9.75H1.75C1.19772 9.75 0.75 9.30228 0.75 8.75V1.75Z" stroke="black" stroke-width="1.5" stroke-linecap="round" stroke-linejoin="round"/>
<path d="M7.125 3C7.33211 3 7.5 3.16789 7.5 3.375" stroke="black" stroke-width="1.5" stroke-linecap="round" stroke-linejoin="round"/>
<path d="M6.75 3.375C6.75 3.16789 6.91789 3 7.125 3" stroke="black" stroke-width="1.5" stroke-linecap="round" stroke-linejoin="round"/>
<path d="M7.125 3.75C6.91789 3.75 6.75 3.58211 6.75 3.375" stroke="black" stroke-width="1.5" stroke-linecap="round" stroke-linejoin="round"/>
<path d="M7.5 3.375C7.5 3.58211 7.33211 3.75 7.125 3.75" stroke="black" stroke-width="1.5" stroke-linecap="round" stroke-linejoin="round"/>
<path d="M3.375 3C3.58211 3 3.75 3.16789 3.75 3.375" stroke="black" stroke-width="1.5" stroke-linecap="round" stroke-linejoin="round"/>
<path d="M3 3.375C3 3.16789 3.16789 3 3.375 3" stroke="black" stroke-width="1.5" stroke-linecap="round" stroke-linejoin="round"/>
<path d="M3.375 3.75C3.16789 3.75 3 3.58211 3 3.375" stroke="black" stroke-width="1.5" stroke-linecap="round" stroke-linejoin="round"/>
<path d="M3.75 3.375C3.75 3.58211 3.58211 3.75 3.375 3.75" stroke="black" stroke-width="1.5" stroke-linecap="round" stroke-linejoin="round"/>
<path d="M7.125 6.75C7.33211 6.75 7.5 6.91789 7.5 7.125" stroke="black" stroke-width="1.5" stroke-linecap="round" stroke-linejoin="round"/>
<path d="M6.75 7.125C6.75 6.91789 6.91789 6.75 7.125 6.75" stroke="black" stroke-width="1.5" stroke-linecap="round" stroke-linejoin="round"/>
<path d="M7.125 7.5C6.91789 7.5 6.75 7.33211 6.75 7.125" stroke="black" stroke-width="1.5" stroke-linecap="round" stroke-linejoin="round"/>
<path d="M7.5 7.125C7.5 7.33211 7.33211 7.5 7.125 7.5" stroke="black" stroke-width="1.5" stroke-linecap="round" stroke-linejoin="round"/>
<path d="M3.375 6.75C3.58211 6.75 3.75 6.91789 3.75 7.125" stroke="black" stroke-width="1.5" stroke-linecap="round" stroke-linejoin="round"/>
<path d="M3 7.125C3 6.91789 3.16789 6.75 3.375 6.75" stroke="black" stroke-width="1.5" stroke-linecap="round" stroke-linejoin="round"/>
<path d="M3.375 7.5C3.16789 7.5 3 7.33211 3 7.125" stroke="black" stroke-width="1.5" stroke-linecap="round" stroke-linejoin="round"/>
<path d="M3.75 7.125C3.75 7.33211 3.58211 7.5 3.375 7.5" stroke="black" stroke-width="1.5" stroke-linecap="round" stroke-linejoin="round"/>
</svg>
