<svg width="24" height="24" viewBox="0 0 24 24" fill="none" xmlns="http://www.w3.org/2000/svg">
<path d="M12 14.2509V21.6829C12.0284 22.3978 12.5249 23.0084 13.219 23.1819C13.9131 23.3554 14.6385 23.0504 15 22.4329" stroke="black" stroke-width="1.5" stroke-linecap="round" stroke-linejoin="round"/>
<path fill-rule="evenodd" clip-rule="evenodd" d="M20.924 11.6259C22.1338 10.9771 22.7464 9.58788 22.4095 8.25708C22.0726 6.92628 20.8728 5.99587 19.5 6.00089C18.077 6.00089 17.2 6.85889 16.125 7.50089C16.575 6.51889 17.625 5.00089 17.625 3.75089C17.625 2.09403 16.2818 0.750888 14.625 0.750888C13.5392 0.724177 12.5282 1.30189 12 2.25089C11.4718 1.30189 10.4608 0.724177 9.37499 0.750888C7.71814 0.750888 6.37499 2.09403 6.37499 3.75089C6.37499 4.99589 7.42499 6.51889 7.87499 7.50089C6.79999 6.85889 5.92299 6.00089 4.49999 6.00089C3.12722 5.99587 1.9274 6.92628 1.5905 8.25708C1.25361 9.58788 1.86619 10.9771 3.07599 11.6259C1.86619 12.2747 1.25361 13.6639 1.5905 14.9947C1.9274 16.3255 3.12722 17.2559 4.49999 17.2509C9.74999 17.2509 12 14.2509 12 14.2509C12 14.2509 14.25 17.2509 19.5 17.2509C20.8728 17.2559 22.0726 16.3255 22.4095 14.9947C22.7464 13.6639 22.1338 12.2747 20.924 11.6259V11.6259Z" stroke="black" stroke-width="1.5" stroke-linecap="round" stroke-linejoin="round"/>
</svg>
