<svg width="24" height="24" viewBox="0 0 24 24" fill="none" xmlns="http://www.w3.org/2000/svg">
<path fill-rule="evenodd" clip-rule="evenodd" d="M11.861 1.8C10.2856 0.969685 8.42195 0.885356 6.778 1.57C6.665 1.618 6.562 1.66 6.465 1.695C6.21506 1.78436 5.93985 1.77069 5.7 1.657C5.46309 1.10654 4.92127 0.749923 4.322 0.75H3.572C2.74357 0.75 2.072 1.42157 2.072 2.25V8.25C2.072 9.07843 2.74357 9.75 3.572 9.75H4.322C5.15043 9.75 5.822 9.07843 5.822 8.25V7.98C5.82237 7.29861 6.28196 6.70307 6.941 6.53C8.08177 6.16945 9.31607 6.24791 10.402 6.75C11.762 7.602 13.396 8.256 14.802 7.53L16.319 6.75C11.513 11.556 8.67 15.85 8.153 21.614C8.11473 22.0343 8.25529 22.4513 8.54019 22.7626C8.82509 23.074 9.22797 23.2509 9.65 23.25H14.862C15.6751 23.2476 16.3393 22.5998 16.362 21.787C16.5 16.853 16.799 14.052 21.839 3.987C22.1319 3.40635 22.0221 2.70362 21.566 2.24L20.943 1.616C20.4263 1.10847 19.6229 1.03725 19.025 1.446C16.8796 2.85969 14.1353 2.99529 11.861 1.8Z" stroke="black" stroke-width="1.5" stroke-linecap="round" stroke-linejoin="round"/>
</svg>
