<svg width="24" height="24" viewBox="0 0 24 24" fill="none" xmlns="http://www.w3.org/2000/svg">
<path fill-rule="evenodd" clip-rule="evenodd" d="M12 23.25C18.2132 23.25 23.25 18.2132 23.25 12C23.25 5.7868 18.2132 0.75 12 0.75C5.7868 0.75 0.75 5.7868 0.75 12C0.75 18.2132 5.7868 23.25 12 23.25Z" stroke="black" stroke-width="1.5" stroke-linecap="round" stroke-linejoin="round"/>
<path fill-rule="evenodd" clip-rule="evenodd" d="M12 19.232C15.9941 19.232 19.232 15.9941 19.232 12C19.232 8.00588 15.9941 4.76801 12 4.76801C8.00588 4.76801 4.768 8.00588 4.768 12C4.768 15.9941 8.00588 19.232 12 19.232Z" stroke="black" stroke-width="1.5" stroke-linecap="round" stroke-linejoin="round"/>
<path d="M10.142 14.219C10.5812 14.7967 11.2749 15.1234 12 15.094C13.139 15.094 14.063 14.401 14.063 13.547C14.063 12.693 13.139 12 12 12C10.861 12 9.938 11.307 9.938 10.452C9.938 9.597 10.861 8.906 12 8.906C12.7251 8.87661 13.4188 9.20331 13.858 9.781" stroke="black" stroke-width="1.5" stroke-linecap="round" stroke-linejoin="round"/>
<path d="M12 15.094V16.125" stroke="black" stroke-width="1.5" stroke-linecap="round" stroke-linejoin="round"/>
<path d="M12 7.875V8.906" stroke="black" stroke-width="1.5" stroke-linecap="round" stroke-linejoin="round"/>
<path d="M9.864 0.952026L10.627 4.90003" stroke="black" stroke-width="1.5" stroke-linecap="round" stroke-linejoin="round"/>
<path d="M13.293 4.88302L14.011 0.929016" stroke="black" stroke-width="1.5" stroke-linecap="round" stroke-linejoin="round"/>
<path d="M1.365 8.32599L5.165 9.63799" stroke="black" stroke-width="1.5" stroke-linecap="round" stroke-linejoin="round"/>
<path d="M6.483 7.32202L3.418 4.72302" stroke="black" stroke-width="1.5" stroke-linecap="round" stroke-linejoin="round"/>
<path d="M3.5 19.373L6.536 16.74" stroke="black" stroke-width="1.5" stroke-linecap="round" stroke-linejoin="round"/>
<path d="M5.19 14.439L1.407 15.793" stroke="black" stroke-width="1.5" stroke-linecap="round" stroke-linejoin="round"/>
<path d="M14.136 23.048L13.373 19.1" stroke="black" stroke-width="1.5" stroke-linecap="round" stroke-linejoin="round"/>
<path d="M10.707 19.117L9.989 23.071" stroke="black" stroke-width="1.5" stroke-linecap="round" stroke-linejoin="round"/>
<path d="M22.635 15.674L18.835 14.362" stroke="black" stroke-width="1.5" stroke-linecap="round" stroke-linejoin="round"/>
<path d="M17.517 16.678L20.582 19.277" stroke="black" stroke-width="1.5" stroke-linecap="round" stroke-linejoin="round"/>
<path d="M20.5 4.62701L17.464 7.26001" stroke="black" stroke-width="1.5" stroke-linecap="round" stroke-linejoin="round"/>
<path d="M18.81 9.56097L22.593 8.20697" stroke="black" stroke-width="1.5" stroke-linecap="round" stroke-linejoin="round"/>
</svg>
