<svg width="24" height="24" viewBox="0 0 24 24" fill="none" xmlns="http://www.w3.org/2000/svg">
<path d="M16.678 22.5V20.25L17.684 20.418C18.5541 20.5633 19.4441 20.3182 20.1172 19.748C20.7903 19.1777 21.1783 18.3402 21.178 17.458V15L22.113 14.766C22.5866 14.6483 22.9734 14.3076 23.1499 13.8526C23.3263 13.3976 23.2704 12.8852 23 12.479L21.178 9.75V9C21.178 5.234 17.935 2.115 13.678 1.573" stroke="black" stroke-width="1.5" stroke-linecap="round" stroke-linejoin="round"/>
<path d="M3.209 11.25C3.45621 14.1858 5.12574 16.8143 7.678 18.286V22.5" stroke="black" stroke-width="1.5" stroke-linecap="round" stroke-linejoin="round"/>
<path fill-rule="evenodd" clip-rule="evenodd" d="M6.17799 10.5L0.927994 4.5L3.17799 1.5H9.17799L11.428 4.5L6.17799 10.5V10.5Z" stroke="black" stroke-width="1.5" stroke-linecap="round" stroke-linejoin="round"/>
<path d="M0.927994 4.5H11.428" stroke="black" stroke-width="1.5" stroke-linecap="round" stroke-linejoin="round"/>
<path d="M6.17799 1.5V10.5" stroke="black" stroke-width="1.5" stroke-linecap="round" stroke-linejoin="round"/>
</svg>
