<svg width="24" height="24" viewBox="0 0 24 24" fill="none" xmlns="http://www.w3.org/2000/svg">
<path d="M16.178 23.25V21L17.184 21.168C18.0541 21.3133 18.9441 21.0682 19.6172 20.498C20.2903 19.9278 20.6783 19.0902 20.678 18.208V15.75L21.613 15.516C22.0861 15.3976 22.4721 15.0566 22.6479 14.6017C22.8238 14.1468 22.7675 13.6348 22.497 13.229L20.678 10.5V9.75001C20.678 6.20901 17.81 3.24001 13.928 2.45001" stroke="black" stroke-width="1.5" stroke-linecap="round" stroke-linejoin="round"/>
<path d="M2.96201 13.5C3.57073 15.8348 5.08909 17.8285 7.17801 19.036V23.25" stroke="black" stroke-width="1.5" stroke-linecap="round" stroke-linejoin="round"/>
<path fill-rule="evenodd" clip-rule="evenodd" d="M6.428 6.00001L3.871 3.38501C3.40848 2.90982 3.29514 2.19495 3.588 1.60001V1.60001C3.79995 1.15979 4.21303 0.850394 4.69508 0.770782C5.17713 0.691169 5.66775 0.851321 6.01 1.20001L6.428 1.62601L6.845 1.20001C7.18723 0.850886 7.67813 0.690452 8.16049 0.770081C8.64284 0.849711 9.05613 1.15941 9.268 1.60001V1.60001C9.55911 2.19422 9.44588 2.90722 8.985 3.38201L6.428 6.00001Z" stroke="black" stroke-width="1.5" stroke-linecap="round" stroke-linejoin="round"/>
<path fill-rule="evenodd" clip-rule="evenodd" d="M6.42799 6.00001L9.59999 4.17801C10.1758 3.8485 10.8966 3.91698 11.4 4.34901V4.34901C11.7754 4.66466 11.9728 5.14394 11.9286 5.63244C11.8843 6.12094 11.604 6.55694 11.178 6.80001L10.661 7.10001L10.969 7.61101C11.221 8.02972 11.2533 8.54495 11.0554 8.99182C10.8575 9.43868 10.4544 9.76114 9.97499 9.85601V9.85601C9.32558 9.9884 8.66315 9.69763 8.32099 9.13001L6.42799 6.00001Z" stroke="black" stroke-width="1.5" stroke-linecap="round" stroke-linejoin="round"/>
<path fill-rule="evenodd" clip-rule="evenodd" d="M6.428 6.00001L3.257 4.17801C2.68124 3.8485 1.96041 3.91698 1.457 4.34901V4.34901C1.08147 4.66451 0.883916 5.14368 0.927962 5.63217C0.972008 6.12066 1.25209 6.55676 1.678 6.80001L2.195 7.10001L1.887 7.60001C1.63498 8.01872 1.60274 8.53395 1.80059 8.98082C1.99845 9.42768 2.40159 9.75014 2.881 9.84501V9.84501C3.52797 9.97951 4.18974 9.69344 4.535 9.13001L6.428 6.00001Z" stroke="black" stroke-width="1.5" stroke-linecap="round" stroke-linejoin="round"/>
<path d="M6.42799 6V12.75" stroke="black" stroke-width="1.5" stroke-linecap="round" stroke-linejoin="round"/>
</svg>
