<svg width="24" height="24" viewBox="0 0 24 24" fill="none" xmlns="http://www.w3.org/2000/svg">
<path d="M20.25 18.75C20.25 17.9216 20.9216 17.25 21.75 17.25V17.25C22.5784 17.25 23.25 17.9216 23.25 18.75V18.75C23.2501 19.2357 23.0847 19.7069 22.781 20.086L20.25 23.25H23.25" stroke="black" stroke-width="1.5" stroke-linecap="round" stroke-linejoin="round"/>
<path d="M12.75 18L17.25 22.5" stroke="black" stroke-width="1.5" stroke-linecap="round" stroke-linejoin="round"/>
<path d="M17.25 18L12.75 22.5" stroke="black" stroke-width="1.5" stroke-linecap="round" stroke-linejoin="round"/>
<path d="M9.75 20.222C5.46238 19.8888 1.90007 16.7845 0.983727 12.5827C0.0673877 8.38089 2.01369 4.0752 5.77327 1.98708C9.53285 -0.10104 14.2167 0.522151 17.2995 3.52066C20.3823 6.51916 21.1351 11.184 19.152 15" stroke="black" stroke-width="1.5" stroke-linecap="round" stroke-linejoin="round"/>
<path fill-rule="evenodd" clip-rule="evenodd" d="M10.5 15.75C13.3995 15.75 15.75 13.3995 15.75 10.5C15.75 7.60051 13.3995 5.25 10.5 5.25C7.60051 5.25 5.25 7.60051 5.25 10.5C5.25 13.3995 7.60051 15.75 10.5 15.75Z" stroke="black" stroke-width="1.5" stroke-linecap="round" stroke-linejoin="round"/>
<path d="M10.5 5.25V0.75" stroke="black" stroke-width="1.5" stroke-linecap="round" stroke-linejoin="round"/>
<path d="M6.788 6.78802L3.606 3.60602" stroke="black" stroke-width="1.5" stroke-linecap="round" stroke-linejoin="round"/>
<path d="M5.25 10.5H0.75" stroke="black" stroke-width="1.5" stroke-linecap="round" stroke-linejoin="round"/>
<path d="M14.212 6.78802L17.394 3.60602" stroke="black" stroke-width="1.5" stroke-linecap="round" stroke-linejoin="round"/>
<path d="M15.75 10.5H20.25" stroke="black" stroke-width="1.5" stroke-linecap="round" stroke-linejoin="round"/>
<path d="M6.788 14.212L3.606 17.394" stroke="black" stroke-width="1.5" stroke-linecap="round" stroke-linejoin="round"/>
</svg>
