<svg width="24" height="24" viewBox="0 0 24 24" fill="none" xmlns="http://www.w3.org/2000/svg">
<path d="M22.645 9.36099L23.245 4.86099C23.2845 4.58478 23.1675 4.30946 22.9411 4.14631C22.7148 3.98316 22.4165 3.95915 22.167 4.08399L17.886 7.34399C17.7233 7.47695 17.5122 7.53553 17.3043 7.5055C17.0963 7.47546 16.9105 7.35955 16.792 7.18599L12.567 1.00599C12.4246 0.84353 12.219 0.750366 12.003 0.750366C11.787 0.750366 11.5814 0.84353 11.439 1.00599L7.211 7.18599C7.09254 7.35955 6.90671 7.47546 6.69873 7.5055C6.49076 7.53553 6.27972 7.47695 6.117 7.34399L1.836 4.08399C1.58646 3.95915 1.28825 3.98316 1.06189 4.14631C0.83554 4.30946 0.718469 4.58478 0.758 4.86099L2.078 14.813" stroke="black" stroke-width="1.5" stroke-linecap="round" stroke-linejoin="round"/>
<path d="M6.75 14.611H3C1.75736 14.611 0.75 15.6184 0.75 16.861V16.861C0.75 18.1036 1.75736 19.111 3 19.111H9" stroke="black" stroke-width="1.5" stroke-linecap="round" stroke-linejoin="round"/>
<path d="M16.5 22.861L23.03 15.8C23.2829 15.547 23.3222 15.1508 23.124 14.853L20.473 11.2C20.3339 10.9913 20.0998 10.866 19.849 10.866H13.149C12.8982 10.866 12.6641 10.9913 12.525 11.2L9.876 14.849C9.67781 15.1468 9.71714 15.543 9.97 15.796L16.5 22.861" stroke="black" stroke-width="1.5" stroke-linecap="round" stroke-linejoin="round"/>
<path d="M9.756 15.361H23.244" stroke="black" stroke-width="1.5" stroke-linecap="round" stroke-linejoin="round"/>
<path d="M16.5 10.861V22.861" stroke="black" stroke-width="1.5" stroke-linecap="round" stroke-linejoin="round"/>
</svg>
