<svg width="24" height="24" viewBox="0 0 24 24" fill="none" xmlns="http://www.w3.org/2000/svg">
<path d="M16.5011 23.2507L23.0311 16.1857C23.284 15.9327 23.3233 15.5365 23.1251 15.2387L20.4741 11.5847C20.335 11.3761 20.1009 11.2507 19.8501 11.2507H13.1501C12.8994 11.2507 12.6652 11.3761 12.5261 11.5847L9.87711 15.2387C9.67892 15.5365 9.71825 15.9327 9.97111 16.1857L16.5011 23.2507" stroke="black" stroke-width="1.5" stroke-linecap="round" stroke-linejoin="round"/>
<path d="M9.75711 15.7507H23.2451" stroke="black" stroke-width="1.5" stroke-linecap="round" stroke-linejoin="round"/>
<path d="M16.5011 11.2507V23.2507" stroke="black" stroke-width="1.5" stroke-linecap="round" stroke-linejoin="round"/>
<path d="M10.5011 21.7507H6.68312C4.42274 21.7511 2.35858 20.4669 1.36013 18.439C0.361676 16.4111 0.602485 13.992 1.98112 12.2007C5.36912 8.2727 6.75112 6.7507 6.75112 6.7507H12.7511C12.7511 6.7507 13.0591 7.2037 13.8881 8.2507" stroke="black" stroke-width="1.5" stroke-linecap="round" stroke-linejoin="round"/>
<path d="M12.7511 6.75072L14.5721 2.16072C14.7162 1.87204 14.6595 1.52357 14.4314 1.29544C14.2033 1.0673 13.8548 1.01063 13.5661 1.15472L11.6661 2.10272C11.3279 2.27156 10.9168 2.16227 10.7071 1.84772L10.1061 0.939715C10.0269 0.821171 9.8937 0.75 9.75111 0.75C9.60853 0.75 9.47535 0.821171 9.39611 0.939715L8.79111 1.84672C8.5814 2.16127 8.17036 2.27056 7.83211 2.10172L5.93211 1.15372C5.64355 1.01216 5.29687 1.07022 5.07016 1.29806C4.84346 1.52589 4.78713 1.87286 4.93011 2.16072L6.75111 6.75072" stroke="black" stroke-width="1.5" stroke-linecap="round" stroke-linejoin="round"/>
</svg>
