<svg width="24" height="24" viewBox="0 0 24 24" fill="none" xmlns="http://www.w3.org/2000/svg">
<path d="M15.5 10.084C15.5 10.084 12.291 6.87302 11.974 5.53802" stroke="black" stroke-width="1.5" stroke-linecap="round" stroke-linejoin="round"/>
<path d="M8.5 10.5C8.5 10.5 2.607 6 1 6" stroke="black" stroke-width="1.5" stroke-linecap="round" stroke-linejoin="round"/>
<path d="M1 10.5C1 10.5 6.893 6 8.5 6" stroke="black" stroke-width="1.5" stroke-linecap="round" stroke-linejoin="round"/>
<path d="M8.5 14.446C8.40497 16.4247 6.72916 17.9548 4.75 17.87C2.77084 17.9548 1.09503 16.4247 1 14.446" stroke="black" stroke-width="1.5" stroke-linecap="round" stroke-linejoin="round"/>
<path d="M20.3 4.17401C14.156 4.17401 16.678 14.602 12.255 15.621" stroke="black" stroke-width="1.5" stroke-linecap="round" stroke-linejoin="round"/>
<path d="M2.607 0.75C2.56855 1.62859 2.36996 2.49277 2.021 3.3C1.40176 4.11846 1.04571 5.1057 1 6.131V20.251C1 21.9079 2.34315 23.251 4 23.251H5.5C7.15685 23.251 8.5 21.9079 8.5 20.251V6.131C8.45429 5.1057 8.09824 4.11846 7.479 3.3C7.13004 2.49277 6.93145 1.62859 6.893 0.75" stroke="black" stroke-width="1.5" stroke-linecap="round" stroke-linejoin="round"/>
<path d="M11.989 0.75V4.785C11.989 4.785 11.72 16.321 13.134 21.685C13.3393 22.5829 14.1281 23.2268 15.049 23.248H16.391C16.8204 23.2361 17.2248 23.0434 17.5044 22.7173C17.784 22.3912 17.9128 21.9622 17.859 21.536C17.859 12.976 20.093 10.479 22.331 7.636C22.7141 7.14638 22.842 6.50391 22.6755 5.90493C22.5089 5.30594 22.0679 4.82163 21.487 4.6C21.1048 4.42304 20.7075 4.28047 20.3 4.174C18.558 4.174 16.877 1.713 16.877 0.75" stroke="black" stroke-width="1.5" stroke-linecap="round" stroke-linejoin="round"/>
</svg>
