<svg width="24" height="24" viewBox="0 0 24 24" fill="none" xmlns="http://www.w3.org/2000/svg">
<path fill-rule="evenodd" clip-rule="evenodd" d="M7.64 12.75C3.185 16.469 1.672 19.75 2.058 20.91C2.21736 21.3891 2.60709 21.7559 3.095 21.886L4.41 22.237C9.47479 23.588 14.8052 23.588 19.87 22.237L21.185 21.886C21.6729 21.7559 22.0626 21.3891 22.222 20.91C22.622 19.71 21.09 16.466 16.64 12.75L7.64 12.75Z" stroke="black" stroke-width="1.5" stroke-linecap="round" stroke-linejoin="round"/>
<path d="M7.64 12.75C7.5283 10.801 6.65566 8.97388 5.21 7.662C4.8374 7.06624 4.63988 6.37769 4.64 5.675V4.5C4.64 2.42893 6.31893 0.75 8.39 0.75C10.4611 0.75 12.14 2.42893 12.14 4.5V4.5C12.14 2.42893 13.8189 0.75 15.89 0.75C17.9611 0.75 19.64 2.42893 19.64 4.5V5.675C19.6396 6.37762 19.4422 7.06604 19.07 7.662C17.6243 8.97388 16.7517 10.801 16.64 12.75" stroke="black" stroke-width="1.5" stroke-linecap="round" stroke-linejoin="round"/>
<path d="M12.14 19.5V23.25" stroke="black" stroke-width="1.5" stroke-linecap="round" stroke-linejoin="round"/>
<path d="M16.64 19.5L17.938 22.684" stroke="black" stroke-width="1.5" stroke-linecap="round" stroke-linejoin="round"/>
<path d="M7.64 19.5L6.342 22.684" stroke="black" stroke-width="1.5" stroke-linecap="round" stroke-linejoin="round"/>
</svg>
