<svg width="24" height="24" viewBox="0 0 24 24" fill="none" xmlns="http://www.w3.org/2000/svg">
<path fill-rule="evenodd" clip-rule="evenodd" d="M9.75 0.75C7.26472 0.75 5.25 2.76472 5.25 5.25V9C5.25 7.75736 4.24264 6.75 3 6.75C1.75736 6.75 0.75 7.75736 0.75 9V12.75C0.75 15.2353 2.76472 17.25 5.25 17.25V21.75C5.25 22.5784 5.92157 23.25 6.75 23.25H18.75C19.5784 23.25 20.25 22.5784 20.25 21.75V17.25C20.25 15 23.25 14.25 23.25 11.25V6.75C23.25 3.43629 20.5637 0.75 17.25 0.75H9.75Z" stroke="black" stroke-width="1.5" stroke-linecap="round" stroke-linejoin="round"/>
<path d="M17.25 9.75C17.25 11.4069 15.9069 12.75 14.25 12.75H7.5C6.25736 12.75 5.25 11.7426 5.25 10.5V9" stroke="black" stroke-width="1.5" stroke-linecap="round" stroke-linejoin="round"/>
<path fill-rule="evenodd" clip-rule="evenodd" d="M11.25 18.75C11.25 19.5784 10.5784 20.25 9.75 20.25H5.25V17.25H9.75C10.5784 17.25 11.25 17.9216 11.25 18.75Z" stroke="black" stroke-width="1.5" stroke-linecap="round" stroke-linejoin="round"/>
</svg>
