<svg width="24" height="24" viewBox="0 0 24 24" fill="none" xmlns="http://www.w3.org/2000/svg">
<path fill-rule="evenodd" clip-rule="evenodd" d="M12 23.25C17.25 23.25 23.25 23.25 23.25 18V7.5C23.25 3 17.385 0.75 12 0.75C6.615 0.75 0.75 3 0.75 7.5V18C0.75 23.25 6.75 23.25 12 23.25Z" stroke="black" stroke-width="1.5" stroke-linecap="round" stroke-linejoin="round"/>
<path fill-rule="evenodd" clip-rule="evenodd" d="M18 8.25C19.2424 8.25055 20.2494 9.25759 20.25 10.5C20.2501 11.4376 19.7808 12.313 19 12.832C18.1068 13.2885 17.5049 14.1654 17.4 15.163C17.3152 16.0168 17.618 16.8636 18.225 17.47C18.5643 17.8096 18.755 18.27 18.755 18.75C18.755 19.5784 18.0834 20.25 17.255 20.25H6.75C5.92157 20.25 5.25 19.5784 5.25 18.75C5.25004 18.27 5.44067 17.8096 5.78 17.47C6.38702 16.8636 6.68985 16.0168 6.605 15.163C6.4991 14.1644 5.89511 13.2872 5 12.832C4.21917 12.313 3.74995 11.4376 3.75 10.5C3.75055 9.25759 4.75759 8.25055 6 8.25L18 8.25Z" stroke="black" stroke-width="1.5" stroke-linecap="round" stroke-linejoin="round"/>
<path d="M9.75 5.25H14.25" stroke="black" stroke-width="1.5" stroke-linecap="round" stroke-linejoin="round"/>
<path d="M11.25 17.25H12.75" stroke="black" stroke-width="1.5" stroke-linecap="round" stroke-linejoin="round"/>
<path d="M8.625 10.875C8.83211 10.875 9 11.0429 9 11.25" stroke="black" stroke-width="1.5" stroke-linecap="round" stroke-linejoin="round"/>
<path d="M8.25 11.25C8.25 11.0429 8.41789 10.875 8.625 10.875" stroke="black" stroke-width="1.5" stroke-linecap="round" stroke-linejoin="round"/>
<path d="M8.625 11.625C8.41789 11.625 8.25 11.4571 8.25 11.25" stroke="black" stroke-width="1.5" stroke-linecap="round" stroke-linejoin="round"/>
<path d="M9 11.25C9 11.4571 8.83211 11.625 8.625 11.625" stroke="black" stroke-width="1.5" stroke-linecap="round" stroke-linejoin="round"/>
<path d="M15.375 10.875C15.1679 10.875 15 11.0429 15 11.25" stroke="black" stroke-width="1.5" stroke-linecap="round" stroke-linejoin="round"/>
<path d="M15.75 11.25C15.75 11.0429 15.5821 10.875 15.375 10.875" stroke="black" stroke-width="1.5" stroke-linecap="round" stroke-linejoin="round"/>
<path d="M15.375 11.625C15.5821 11.625 15.75 11.4571 15.75 11.25" stroke="black" stroke-width="1.5" stroke-linecap="round" stroke-linejoin="round"/>
<path d="M15 11.25C15 11.4571 15.1679 11.625 15.375 11.625" stroke="black" stroke-width="1.5" stroke-linecap="round" stroke-linejoin="round"/>
</svg>
