<svg width="24" height="24" viewBox="0 0 24 24" fill="none" xmlns="http://www.w3.org/2000/svg">
<path d="M6.5 0.75H17" stroke="black" stroke-width="1.5" stroke-linecap="round" stroke-linejoin="round"/>
<path fill-rule="evenodd" clip-rule="evenodd" d="M12.59 5.25H10.91C8.952 7.05 4.25 12.47 4.25 15.75C4.25 19.8921 7.60786 23.25 11.75 23.25C15.8921 23.25 19.25 19.8921 19.25 15.75C19.25 12.47 14.548 7.052 12.59 5.25Z" stroke="black" stroke-width="1.5" stroke-linecap="round" stroke-linejoin="round"/>
<path fill-rule="evenodd" clip-rule="evenodd" d="M12.086 5.25H11.414C10.631 7.05 8.75 12.47 8.75 15.75C8.75 19.892 10.093 23.25 11.75 23.25C13.407 23.25 14.75 19.892 14.75 15.75C14.75 12.47 12.869 7.052 12.086 5.25Z" stroke="black" stroke-width="1.5" stroke-linecap="round" stroke-linejoin="round"/>
<path d="M11.75 0.75V5.25" stroke="black" stroke-width="1.5" stroke-linecap="round" stroke-linejoin="round"/>
</svg>
