<svg width="24" height="24" viewBox="0 0 24 24" fill="none" xmlns="http://www.w3.org/2000/svg">
<path d="M17.25 8.073V3.75C17.25 2.92157 17.9216 2.25 18.75 2.25H21.75C22.5784 2.25 23.25 2.92157 23.25 3.75V15C23.25 15.8284 22.5784 16.5 21.75 16.5H18.75C17.9293 16.5001 17.2609 15.8406 17.25 15.02V11.427" stroke="black" stroke-width="1.5" stroke-linecap="round" stroke-linejoin="round"/>
<path d="M20.25 0.75V2.25" stroke="black" stroke-width="1.5" stroke-linecap="round" stroke-linejoin="round"/>
<path d="M17.25 5.25H23.25" stroke="black" stroke-width="1.5" stroke-linecap="round" stroke-linejoin="round"/>
<path d="M17.25 13.5H23.25" stroke="black" stroke-width="1.5" stroke-linecap="round" stroke-linejoin="round"/>
<path fill-rule="evenodd" clip-rule="evenodd" d="M9 6C10.4497 6 11.625 4.82475 11.625 3.375C11.625 1.92525 10.4497 0.75 9 0.75C7.55025 0.75 6.375 1.92525 6.375 3.375C6.375 4.82475 7.55025 6 9 6Z" stroke="black" stroke-width="1.5" stroke-linecap="round" stroke-linejoin="round"/>
<path fill-rule="evenodd" clip-rule="evenodd" d="M15.75 7.5H6.75C6.11404 7.49967 5.54699 7.90041 5.335 8.5L0.836001 21.25C0.703187 21.6253 0.724992 22.038 0.896614 22.3971C1.06824 22.7563 1.3756 23.0326 1.751 23.165C1.91181 23.2208 2.08078 23.2496 2.251 23.25C2.88696 23.2503 3.45401 22.8496 3.666 22.25L5.477 17.117L7.615 18.223L8.1 21.945C8.20012 22.6892 8.8351 23.2447 9.586 23.245C9.65289 23.2453 9.71971 23.2409 9.786 23.232C10.6072 23.1242 11.1855 22.3712 11.078 21.55L10.59 17.831C10.4629 16.8548 9.86494 16.0032 8.99 15.552L6.483 14.252L7.811 10.5H13.638C14.0214 11.5757 15.1508 12.1925 16.263 11.9335C17.3752 11.6745 18.116 10.6222 17.9848 9.48782C17.8535 8.35345 16.8919 7.49814 15.75 7.5Z" stroke="black" stroke-width="1.5" stroke-linecap="round" stroke-linejoin="round"/>
<path d="M12.75 7.5V10.5" stroke="black" stroke-width="1.5" stroke-linecap="round" stroke-linejoin="round"/>
</svg>
