<svg width="24" height="24" viewBox="0 0 24 24" fill="none" xmlns="http://www.w3.org/2000/svg">
<path fill-rule="evenodd" clip-rule="evenodd" d="M11.5 6C12.9497 6 14.125 4.82475 14.125 3.375C14.125 1.92525 12.9497 0.75 11.5 0.75C10.0503 0.75 8.875 1.92525 8.875 3.375C8.875 4.82475 10.0503 6 11.5 6Z" stroke="black" stroke-width="1.5" stroke-linecap="round" stroke-linejoin="round"/>
<path fill-rule="evenodd" clip-rule="evenodd" d="M18.25 7.50001H9.25C8.61404 7.49967 8.04699 7.90042 7.835 8.50001L3.335 21.25C3.20219 21.6253 3.22399 22.038 3.39561 22.3971C3.56724 22.7563 3.8746 23.0326 4.25 23.165C4.41081 23.2209 4.57978 23.2496 4.75 23.25C5.38596 23.2503 5.95301 22.8496 6.165 22.25L7.976 17.117L10.114 18.223L10.603 21.945C10.7031 22.6892 11.3381 23.2447 12.089 23.245C12.1559 23.2453 12.2227 23.2409 12.289 23.232C13.1102 23.1242 13.6885 22.3712 13.581 21.55L13.093 17.831C12.9659 16.8548 12.3679 16.0032 11.493 15.552L8.986 14.252L10.312 10.492H16.139C16.5224 11.5677 17.6518 12.1845 18.764 11.9255C19.8762 11.6665 20.617 10.6142 20.4858 9.47983C20.3545 8.34545 19.3929 7.49015 18.251 7.49201L18.25 7.50001Z" stroke="black" stroke-width="1.5" stroke-linecap="round" stroke-linejoin="round"/>
<path d="M15.25 7.5V10.5" stroke="black" stroke-width="1.5" stroke-linecap="round" stroke-linejoin="round"/>
</svg>
