<svg width="24" height="24" viewBox="0 0 24 24" fill="none" xmlns="http://www.w3.org/2000/svg">
<path fill-rule="evenodd" clip-rule="evenodd" d="M8.49201 11.2652L7.43201 15.5082L11.674 14.4472L18.038 8.08318L14.856 4.90118L8.49201 11.2652V11.2652Z" stroke="black" stroke-width="1.5" stroke-linecap="round" stroke-linejoin="round"/>
<path d="M21.751 4.37119L22.811 5.43119C23.0925 5.71252 23.2507 6.09419 23.2507 6.49219C23.2507 6.89018 23.0925 7.27185 22.811 7.55319L19.5 10.8632" stroke="black" stroke-width="1.5" stroke-linecap="round" stroke-linejoin="round"/>
<path d="M18.038 8.08318L21.751 4.37118C22.3366 3.78543 22.3366 2.83593 21.751 2.25018L20.69 1.18918C20.1042 0.603607 19.1547 0.603607 18.569 1.18918L14.856 4.90018" stroke="black" stroke-width="1.5" stroke-linecap="round" stroke-linejoin="round"/>
<path d="M18.75 14.2502V21.7502C18.75 22.5786 18.0784 23.2502 17.25 23.2502H2.25C1.42157 23.2502 0.75 22.5786 0.75 21.7502V6.75018C0.75 5.92176 1.42157 5.25018 2.25 5.25018H9.75" stroke="black" stroke-width="1.5" stroke-linecap="round" stroke-linejoin="round"/>
</svg>
