<svg width="24" height="24" viewBox="0 0 24 24" fill="none" xmlns="http://www.w3.org/2000/svg">
<path fill-rule="evenodd" clip-rule="evenodd" d="M8.49201 11.2652L7.43201 15.5082L11.674 14.4472L18.038 8.08318L14.856 4.90118L8.49201 11.2652V11.2652Z" stroke="black" stroke-width="1.5" stroke-linecap="round" stroke-linejoin="round"/>
<path d="M21.751 4.37119L22.811 5.43119C23.0925 5.71252 23.2507 6.09419 23.2507 6.49219C23.2507 6.89018 23.0925 7.27185 22.811 7.55319L19.5 10.8632" stroke="black" stroke-width="1.5" stroke-linecap="round" stroke-linejoin="round"/>
<path d="M18.038 8.08318L21.751 4.37118C22.0325 4.08985 22.1907 3.70817 22.1907 3.31018C22.1907 2.91219 22.0325 2.53051 21.751 2.24918L20.69 1.18918C20.1043 0.603607 19.1548 0.603607 18.569 1.18918L14.856 4.90018" stroke="black" stroke-width="1.5" stroke-linecap="round" stroke-linejoin="round"/>
<path d="M20.251 13.5002V16.6282C20.2509 17.0262 20.0926 17.4079 19.811 17.6892L14.69 22.8102C14.4087 23.0918 14.027 23.2501 13.629 23.2502H2.25C1.42157 23.2502 0.75 22.5786 0.75 21.7502V2.25018C0.75 1.42176 1.42157 0.750183 2.25 0.750183H13.5" stroke="black" stroke-width="1.5" stroke-linecap="round" stroke-linejoin="round"/>
<path d="M14.251 23.1152V18.7502C14.251 17.9218 14.9226 17.2502 15.751 17.2502H20.116" stroke="black" stroke-width="1.5" stroke-linecap="round" stroke-linejoin="round"/>
</svg>
