<svg width="24" height="24" viewBox="0 0 24 24" fill="none" xmlns="http://www.w3.org/2000/svg">
<path fill-rule="evenodd" clip-rule="evenodd" d="M13.5 6.125C14.9497 6.125 16.125 4.94975 16.125 3.5C16.125 2.05025 14.9497 0.875 13.5 0.875C12.0503 0.875 10.875 2.05025 10.875 3.5C10.875 4.94975 12.0503 6.125 13.5 6.125Z" stroke="black" stroke-width="1.5" stroke-linecap="round" stroke-linejoin="round"/>
<path fill-rule="evenodd" clip-rule="evenodd" d="M19.84 8.73502C18.428 7.83003 16.6376 7.75738 15.157 8.54502L8.282 12.3C7.81148 12.5565 7.51355 13.0446 7.50044 13.5803C7.48733 14.1161 7.76103 14.6181 8.21844 14.8973C8.67585 15.1765 9.24748 15.1905 9.718 14.934L15 12.047V14.78L12.586 16.711C11.9091 17.2541 11.3566 17.9361 10.966 18.711L9.908 20.829C9.53742 21.5702 9.83783 22.4714 10.579 22.842C11.3202 23.2126 12.2214 22.9122 12.592 22.171L13.648 20.056C13.844 19.6687 14.1205 19.3278 14.459 19.056L15.659 18.098C15.861 18.4958 16.1072 18.8695 16.393 19.212L19.1 22.459C19.4309 22.9071 19.9829 23.1349 20.5335 23.0507C21.0841 22.9664 21.5427 22.584 21.7245 22.0575C21.9063 21.531 21.7813 20.947 21.4 20.541L18.7 17.29C18.2494 16.7519 18.0017 16.0729 18 15.371V11.158C18.1061 11.2034 18.209 11.2558 18.308 11.315C19.4948 12.0929 20.2215 13.4063 20.25 14.825V15.112C20.25 15.9404 20.9216 16.612 21.75 16.612C22.5784 16.612 23.25 15.9404 23.25 15.112V14.825C23.2236 12.347 21.9389 10.0526 19.84 8.73502V8.73502Z" stroke="black" stroke-width="1.5" stroke-linecap="round" stroke-linejoin="round"/>
<path fill-rule="evenodd" clip-rule="evenodd" d="M3.75 23C5.40685 23 6.75 22.3284 6.75 21.5C6.75 20.6716 5.40685 20 3.75 20C2.09315 20 0.75 20.6716 0.75 21.5C0.75 22.3284 2.09315 23 3.75 23Z" stroke="black" stroke-width="1.5" stroke-linecap="round" stroke-linejoin="round"/>
<path d="M4.92 20.12L8.358 14.963" stroke="black" stroke-width="1.5" stroke-linecap="round" stroke-linejoin="round"/>
<path d="M0.75 14H3.75" stroke="black" stroke-width="1.5" stroke-linecap="round" stroke-linejoin="round"/>
<path d="M2.25 17H3.75" stroke="black" stroke-width="1.5" stroke-linecap="round" stroke-linejoin="round"/>
</svg>
