<svg width="24" height="25" viewBox="0 0 24 25" fill="none" xmlns="http://www.w3.org/2000/svg">
<path fill-rule="evenodd" clip-rule="evenodd" d="M12.625 5.79C14.0747 5.79 15.25 4.66176 15.25 3.27C15.25 1.87824 14.0747 0.75 12.625 0.75C11.1753 0.75 10 1.87824 10 3.27C10 4.66176 11.1753 5.79 12.625 5.79Z" stroke="black" stroke-width="1.5" stroke-linecap="round" stroke-linejoin="round"/>
<path fill-rule="evenodd" clip-rule="evenodd" d="M16.325 13.4259L10.485 7.66588C10.1524 7.3312 9.6701 7.17412 9.194 7.2454C8.71968 7.31148 8.30681 7.59118 8.083 7.99804L4.923 13.758C4.80927 13.9652 4.74989 14.1959 4.75 14.43V17.31C4.75 17.7633 4.52771 18.1901 4.15 18.462L2.35 19.758C1.68726 20.2352 1.55294 21.1378 2.05 21.774C2.54706 22.4103 3.48726 22.5392 4.15 22.062L5.95 20.766C7.08127 19.9487 7.74765 18.6693 7.75 17.31V16.2704L10.274 17.5241L10.763 21.0972C10.8631 21.8117 11.4981 22.345 12.249 22.3452C12.3159 22.3455 12.3827 22.3413 12.449 22.3328C13.2702 22.2292 13.8485 21.5064 13.741 20.718L13.253 17.1478C13.1259 16.2107 12.5279 15.3931 11.653 14.96L8.508 13.4038L9.774 11.094L14.174 15.4342C14.7536 15.9939 15.6946 16.0014 16.2838 15.451C16.8731 14.9006 16.891 13.9974 16.324 13.4259H16.325Z" stroke="black" stroke-width="1.5" stroke-linecap="round" stroke-linejoin="round"/>
<path d="M15.892 15.7318L19.044 19.7638C19.3559 20.1628 19.8608 20.3784 20.3783 20.3336C20.8959 20.2888 21.3524 19.9901 21.585 19.544L22 18.7501" stroke="black" stroke-width="1.5" stroke-linecap="round" stroke-linejoin="round"/>
<path d="M18.25 22.35H22" stroke="black" stroke-width="1.5" stroke-linecap="round" stroke-linejoin="round"/>
</svg>
