<svg width="24" height="24" viewBox="0 0 24 24" fill="none" xmlns="http://www.w3.org/2000/svg">
<path fill-rule="evenodd" clip-rule="evenodd" d="M2.25001 23.25C1.66427 23.25 1.13212 22.909 0.887325 22.3769C0.642533 21.8448 0.729884 21.2188 1.11101 20.774L4.71101 16.574C5.5654 15.5743 6.81491 14.999 8.13001 15H14.508C15.702 14.9973 16.8476 15.4719 17.69 16.318L19.046 17.675L21.079 16.658C21.5585 16.4183 22.1294 16.4526 22.5767 16.7479C23.024 17.0433 23.2798 17.5548 23.2477 18.0899C23.2156 18.625 22.9005 19.1023 22.421 19.342L20.388 20.358C19.233 20.9355 17.8381 20.7091 16.925 19.796L15.569 18.439C15.2866 18.1591 14.9056 18.0015 14.508 18H8.13001C7.69232 17.999 7.27627 18.1902 6.99201 18.523L3.39201 22.723C3.10693 23.0575 2.6895 23.2501 2.25001 23.25V23.25Z" stroke="black" stroke-width="1.5" stroke-linecap="round" stroke-linejoin="round"/>
<path fill-rule="evenodd" clip-rule="evenodd" d="M17.25 13.875C18.6998 13.875 19.875 12.6997 19.875 11.25C19.875 9.80025 18.6998 8.625 17.25 8.625C15.8003 8.625 14.625 9.80025 14.625 11.25C14.625 12.6997 15.8003 13.875 17.25 13.875Z" stroke="black" stroke-width="1.5" stroke-linecap="round" stroke-linejoin="round"/>
<path fill-rule="evenodd" clip-rule="evenodd" d="M0.750008 0.75C0.750008 0.75 18 0.75 23.25 4.5L2.25001 9C3.07705 6.16723 2.52126 3.11036 0.750008 0.75Z" stroke="black" stroke-width="1.5" stroke-linecap="round" stroke-linejoin="round"/>
<path d="M10.5 12L11.613 6.99402" stroke="black" stroke-width="1.5" stroke-linecap="round" stroke-linejoin="round"/>
</svg>
