<svg width="24" height="24" viewBox="0 0 24 24" fill="none" xmlns="http://www.w3.org/2000/svg">
<path fill-rule="evenodd" clip-rule="evenodd" d="M13.875 6.75C15.3247 6.75 16.5 5.57475 16.5 4.125C16.5 2.67525 15.3247 1.5 13.875 1.5C12.4253 1.5 11.25 2.67525 11.25 4.125C11.25 5.57475 12.4253 6.75 13.875 6.75Z" stroke="black" stroke-width="1.5" stroke-linecap="round" stroke-linejoin="round"/>
<path fill-rule="evenodd" clip-rule="evenodd" d="M23.25 21C23.25 21.8284 22.5784 22.5 21.75 22.5H18.75C17.9216 22.5 17.25 21.8284 17.25 21C17.25 20.1716 17.9216 19.5 18.75 19.5H21.75C22.5784 19.5 23.25 20.1716 23.25 21Z" stroke="black" stroke-width="1.5" stroke-linecap="round" stroke-linejoin="round"/>
<path d="M21.75 19.5V18C21.75 17.1716 21.0784 16.5 20.25 16.5H18.75" stroke="black" stroke-width="1.5" stroke-linecap="round" stroke-linejoin="round"/>
<path fill-rule="evenodd" clip-rule="evenodd" d="M17.427 10.389C16.4914 10.2844 15.5933 9.96171 14.805 9.44697C11.091 7.0776 6.38863 6.89264 2.5 8.96297C1.77181 9.36034 1.50363 10.2728 1.901 11.001C2.29837 11.7292 3.21081 11.9973 3.939 11.6C5.16527 10.9465 6.52693 10.5877 7.916 10.552L5.465 15.652C5.21385 16.1704 4.68909 16.5003 4.113 16.502H2.25C1.42157 16.502 0.75 17.1735 0.75 18.002C0.75 18.8304 1.42157 19.502 2.25 19.502H4.113C5.84165 19.4965 7.41592 18.506 8.169 16.95L8.415 16.438L9.9 17.55C10.2767 17.8341 10.4987 18.2781 10.5 18.75V21C10.5 21.8284 11.1716 22.5 12 22.5C12.8284 22.5 13.5 21.8284 13.5 21V18.75C13.4976 17.3341 12.8313 16.0014 11.7 15.15L9.739 13.68L11.045 10.96C11.7928 11.1964 12.5053 11.5328 13.163 11.96C14.3469 12.7318 15.6954 13.2151 17.1 13.371C17.1551 13.3769 17.2105 13.3799 17.266 13.38C18.0621 13.3789 18.7187 12.756 18.7617 11.9611C18.8048 11.1662 18.2193 10.476 17.428 10.389H17.427Z" stroke="black" stroke-width="1.5" stroke-linecap="round" stroke-linejoin="round"/>
</svg>
