<svg width="24" height="24" viewBox="0 0 24 24" fill="none" xmlns="http://www.w3.org/2000/svg">
<path fill-rule="evenodd" clip-rule="evenodd" d="M10.125 8.25C11.5747 8.25 12.75 7.07475 12.75 5.625C12.75 4.17525 11.5747 3 10.125 3C8.67525 3 7.5 4.17525 7.5 5.625C7.5 7.07475 8.67525 8.25 10.125 8.25Z" stroke="black" stroke-width="1.5" stroke-linecap="round" stroke-linejoin="round"/>
<path fill-rule="evenodd" clip-rule="evenodd" d="M22.04 6.99997C21.7654 6.21859 20.9095 5.80764 20.128 6.08197L9.193 9.92097C7.67776 10.4482 6.01589 9.68995 5.421 8.19997C5.1131 7.43064 4.23983 7.05657 3.4705 7.36447C2.70117 7.67237 2.3271 8.54564 2.635 9.31497C3.82277 12.2983 7.15149 13.8147 10.182 12.753L10.548 12.625L11.509 14.414L9.438 21.314C9.32363 21.6951 9.36537 22.106 9.55404 22.4564C9.74271 22.8067 10.0628 23.0677 10.444 23.182C10.584 23.2233 10.7291 23.2445 10.875 23.245C11.5375 23.2451 12.1216 22.8105 12.312 22.176L14.2 15.9L15.31 16.038C15.7554 16.0943 16.1521 16.3471 16.3913 16.7271C16.6304 17.107 16.6868 17.574 16.545 18L16.2 19.025C16.0101 19.5383 16.1149 20.1143 16.4734 20.5279C16.8319 20.9414 17.3872 21.1269 17.9222 21.0118C18.4573 20.8967 18.8872 20.4994 19.044 19.975L19.387 18.946C19.8132 17.6672 19.6437 16.2646 18.9251 15.1242C18.2065 13.9837 17.0145 13.2255 15.677 13.058L14.077 12.858L13.411 11.619L21.119 8.91897C21.4965 8.78778 21.806 8.5114 21.9789 8.15114C22.1518 7.79088 22.1738 7.37652 22.04 6.99997Z" stroke="black" stroke-width="1.5" stroke-linecap="round" stroke-linejoin="round"/>
<path fill-rule="evenodd" clip-rule="evenodd" d="M3.75 5.25C4.78553 5.25 5.625 4.24264 5.625 3C5.625 1.75736 4.78553 0.75 3.75 0.75C2.71447 0.75 1.875 1.75736 1.875 3C1.875 4.24264 2.71447 5.25 3.75 5.25Z" stroke="black" stroke-width="1.5" stroke-linecap="round" stroke-linejoin="round"/>
<path d="M3.75 5.25V7.283" stroke="black" stroke-width="1.5" stroke-linecap="round" stroke-linejoin="round"/>
<path fill-rule="evenodd" clip-rule="evenodd" d="M17.408 0.970026C17.2242 0.786143 16.9583 0.710544 16.7053 0.770235C16.4523 0.829927 16.2482 1.01639 16.166 1.26303L15.433 3.46303C15.3434 3.73251 15.4138 4.02946 15.6147 4.23016C15.8156 4.43085 16.1126 4.50086 16.382 4.41103L18.582 3.67803C18.8286 3.59581 19.0151 3.39175 19.0748 3.13872C19.1345 2.88569 19.0589 2.6198 18.875 2.43603L17.408 0.970026Z" stroke="black" stroke-width="1.5" stroke-linecap="round" stroke-linejoin="round"/>
</svg>
