<svg width="24" height="24" viewBox="0 0 24 24" fill="none" xmlns="http://www.w3.org/2000/svg">
<path fill-rule="evenodd" clip-rule="evenodd" d="M3.31148 22.811C2.72551 23.397 1.77545 23.397 1.18948 22.811C0.603507 22.225 0.603506 21.275 1.18948 20.689L4.68248 17.2L6.80048 19.318L3.31148 22.811Z" stroke="black" stroke-width="1.5" stroke-linecap="round" stroke-linejoin="round"/>
<path d="M8.25048 15.75L5.74348 18.257" stroke="black" stroke-width="1.5" stroke-linecap="round" stroke-linejoin="round"/>
<path d="M10.4175 5.1C10.8067 4.36968 11.3025 3.70136 11.8885 3.117C14.7495 0.255996 19.0835 -0.049004 21.5685 2.437C24.0535 4.923 23.7495 9.256 20.8885 12.117C18.0275 14.978 13.6885 15.282 11.2085 12.797C10.4231 12.0072 9.88631 11.0045 9.66448 9.913" stroke="black" stroke-width="1.5" stroke-linecap="round" stroke-linejoin="round"/>
<path d="M9.66448 9.91199L8.25048 15.75L14.0885 14.336" stroke="black" stroke-width="1.5" stroke-linecap="round" stroke-linejoin="round"/>
<path d="M22.3585 10.129L13.8715 1.64197" stroke="black" stroke-width="1.5" stroke-linecap="round" stroke-linejoin="round"/>
<path d="M10.4185 5.09497L18.9055 13.582" stroke="black" stroke-width="1.5" stroke-linecap="round" stroke-linejoin="round"/>
<path d="M19.7735 1.22699L10.0035 10.997" stroke="black" stroke-width="1.5" stroke-linecap="round" stroke-linejoin="round"/>
<path d="M13.0035 13.997L22.7735 4.22699" stroke="black" stroke-width="1.5" stroke-linecap="round" stroke-linejoin="round"/>
<path fill-rule="evenodd" clip-rule="evenodd" d="M0.750481 5.02401L4.99348 0.781006L8.00848 5.99001C8.34852 6.57816 8.2508 7.32143 7.77029 7.8017C7.28978 8.28198 6.54647 8.37933 5.95848 8.03901L0.750481 5.02401Z" stroke="black" stroke-width="1.5" stroke-linecap="round" stroke-linejoin="round"/>
<path d="M4.10948 6.96901L6.93748 4.14001" stroke="black" stroke-width="1.5" stroke-linecap="round" stroke-linejoin="round"/>
</svg>
