<svg width="24" height="24" viewBox="0 0 24 24" fill="none" xmlns="http://www.w3.org/2000/svg">
<path fill-rule="evenodd" clip-rule="evenodd" d="M7.152 22.152C5.67445 23.5288 3.37195 23.4882 1.94389 22.0601C0.51583 20.6321 0.475205 18.3296 1.852 16.852L2.383 16.322L7.683 21.622L7.152 22.152Z" stroke="black" stroke-width="1.5" stroke-linecap="round" stroke-linejoin="round"/>
<path fill-rule="evenodd" clip-rule="evenodd" d="M4.50042 14.1962L9.80372 19.4995L7.6824 21.6208L2.3791 16.3175L4.50042 14.1962Z" stroke="black" stroke-width="1.5" stroke-linecap="round" stroke-linejoin="round"/>
<path fill-rule="evenodd" clip-rule="evenodd" d="M9.8 19.5L22.3 14.623C22.8763 14.3978 23.2552 13.8418 23.254 13.223V11.25C23.254 10.4216 22.5824 9.75 21.754 9.75H18.754V6.75C18.754 5.92158 18.0824 5.25 17.254 5.25H14.254V2.25C14.254 1.42158 13.5824 0.750003 12.754 0.750003H10.775C10.1562 0.748806 9.60023 1.12768 9.375 1.704L4.5 14.2L9.8 19.5Z" stroke="black" stroke-width="1.5" stroke-linecap="round" stroke-linejoin="round"/>
<path d="M14.25 5.25L6.237 15.934" stroke="black" stroke-width="1.5" stroke-linecap="round" stroke-linejoin="round"/>
<path d="M18.75 9.75L8.066 17.763" stroke="black" stroke-width="1.5" stroke-linecap="round" stroke-linejoin="round"/>
</svg>
