<svg width="24" height="24" viewBox="0 0 24 24" fill="none" xmlns="http://www.w3.org/2000/svg">
<path fill-rule="evenodd" clip-rule="evenodd" d="M16.6512 8.55003C15.9884 8.05297 15.0482 8.18729 14.5512 8.85003L13.1512 10.716L9.83216 8.50003C9.58556 8.33645 9.29609 8.24947 9.00016 8.25003H5.78216C3.93875 8.24235 2.27898 9.36513 1.60016 11.079L0.857165 12.942C0.70943 13.3116 0.714627 13.7247 0.871612 14.0905C1.0286 14.4562 1.3245 14.7445 1.69416 14.892C2.4635 15.199 3.33604 14.8243 3.64316 14.055L4.38916 12.193C4.61538 11.6221 5.16809 11.248 5.78216 11.25H7.35416L6.81916 14.458L3.22916 20.2C2.78734 20.9023 2.99843 21.8297 3.70066 22.2715C4.40289 22.7134 5.33034 22.5023 5.77216 21.8L8.65716 17.18L9.15117 17.55C9.52789 17.8341 9.74991 18.2782 9.75116 18.75V21C9.75116 21.8285 10.4227 22.5 11.2512 22.5C12.0796 22.5 12.7512 21.8285 12.7512 21V18.75C12.7485 17.3342 12.0822 16.0016 10.9512 15.15L9.88017 14.35L10.2112 12.363L11.4882 13.214C12.8137 14.0957 14.5971 13.7884 15.5512 12.514L16.9512 10.651C17.1902 10.3327 17.2929 9.93242 17.2366 9.53835C17.1803 9.14428 16.9697 8.78874 16.6512 8.55003V8.55003Z" stroke="black" stroke-width="1.5" stroke-linecap="round" stroke-linejoin="round"/>
<path fill-rule="evenodd" clip-rule="evenodd" d="M10.5002 6.75C11.9499 6.75 13.1252 5.57475 13.1252 4.125C13.1252 2.67525 11.9499 1.5 10.5002 1.5C9.05042 1.5 7.87517 2.67525 7.87517 4.125C7.87517 5.57475 9.05042 6.75 10.5002 6.75Z" stroke="black" stroke-width="1.5" stroke-linecap="round" stroke-linejoin="round"/>
<path d="M20.2502 15V22.5" stroke="black" stroke-width="1.5" stroke-linecap="round" stroke-linejoin="round"/>
<path d="M17.2502 15H23.2502" stroke="black" stroke-width="1.5" stroke-linecap="round" stroke-linejoin="round"/>
<path d="M21.7502 11.625C21.9573 11.625 22.1252 11.7929 22.1252 12" stroke="black" stroke-width="1.5" stroke-linecap="round" stroke-linejoin="round"/>
<path d="M21.3752 12C21.3752 11.7929 21.5431 11.625 21.7502 11.625" stroke="black" stroke-width="1.5" stroke-linecap="round" stroke-linejoin="round"/>
<path d="M21.7502 12.375C21.5431 12.375 21.3752 12.2071 21.3752 12" stroke="black" stroke-width="1.5" stroke-linecap="round" stroke-linejoin="round"/>
<path d="M22.1252 12C22.1252 12.2071 21.9573 12.375 21.7502 12.375" stroke="black" stroke-width="1.5" stroke-linecap="round" stroke-linejoin="round"/>
<path d="M16.8122 8.689L18.7502 6.75" stroke="black" stroke-width="1.5" stroke-linecap="round" stroke-linejoin="round"/>
<path fill-rule="evenodd" clip-rule="evenodd" d="M21.9987 6.28622C23.0238 5.26109 23.2315 3.80671 22.4625 3.03777C21.6936 2.26883 20.2392 2.47651 19.2141 3.50163C18.189 4.52676 17.9813 5.98114 18.7502 6.75008C19.5192 7.51902 20.9736 7.31135 21.9987 6.28622Z" stroke="black" stroke-width="1.5" stroke-linecap="round" stroke-linejoin="round"/>
</svg>
