<svg width="24" height="24" viewBox="0 0 24 24" fill="none" xmlns="http://www.w3.org/2000/svg">
<path d="M4.291 7.29102L16.709 19.709" stroke="black" stroke-width="1.5" stroke-linecap="round" stroke-linejoin="round"/>
<path fill-rule="evenodd" clip-rule="evenodd" d="M10.5 5.25C11.7426 5.25 12.75 4.24264 12.75 3C12.75 1.75736 11.7426 0.75 10.5 0.75C9.25736 0.75 8.25 1.75736 8.25 3C8.25 4.24264 9.25736 5.25 10.5 5.25Z" stroke="black" stroke-width="1.5" stroke-linecap="round" stroke-linejoin="round"/>
<path d="M5.574 4.82102C3.32974 7.9544 3.14124 12.1156 5.093 15.439L1.469 19.063C0.540351 20.0256 0.55394 21.5546 1.49955 22.5005C2.44516 23.4464 3.97419 23.4604 4.937 22.532L8.561 18.908C11.9111 20.8759 16.1098 20.6671 19.2482 18.3766C22.3865 16.0861 23.8657 12.1511 23.0131 8.36047C22.1605 4.56985 19.1389 1.64711 15.322 0.921021" stroke="black" stroke-width="1.5" stroke-linecap="round" stroke-linejoin="round"/>
</svg>
