<svg width="24" height="25" viewBox="0 0 24 25" fill="none" xmlns="http://www.w3.org/2000/svg">
<path fill-rule="evenodd" clip-rule="evenodd" d="M14.0769 7.07998C15.4152 7.07998 16.5 5.95174 16.5 4.55998C16.5 3.16822 15.4152 2.03998 14.0769 2.03998C12.7387 2.03998 11.6538 3.16822 11.6538 4.55998C11.6538 5.95174 12.7387 7.07998 14.0769 7.07998Z" stroke="black" stroke-width="1.5" stroke-linecap="round" stroke-linejoin="round"/>
<path fill-rule="evenodd" clip-rule="evenodd" d="M21.5132 8.9827L19.4086 8.10622C18.194 7.60498 16.8368 7.63196 15.6415 8.1811L11.8154 9.95038C11.4728 10.1069 11.0843 10.1145 10.7363 9.9715L8.35938 8.9827C7.64923 8.68764 6.84355 9.04718 6.55984 9.78574C6.27614 10.5243 6.62184 11.3622 7.332 11.6573L9.70892 12.6461C10.6649 13.0403 11.727 13.0544 12.6923 12.6854V14.64L11.0308 15.935C10.3346 16.4803 9.92452 17.3336 9.92307 18.24V21.84C9.92307 22.6353 10.543 23.28 11.3077 23.28C12.0724 23.28 12.6923 22.6353 12.6923 21.84V18.24L14.7692 16.6205V18.24C14.7688 18.5011 14.8371 18.7574 14.9668 18.9811L17.0437 22.5811C17.2957 23.0277 17.759 23.2992 18.2569 23.292C18.7547 23.2849 19.2106 23.0003 19.4508 22.5467C19.6909 22.093 19.6783 21.5402 19.4178 21.0989L17.5385 17.8406V10.6291C17.8262 10.618 18.1129 10.6697 18.3803 10.7808L20.4858 11.6573C20.9452 11.8481 21.4676 11.7696 21.8563 11.4513C22.2449 11.133 22.4407 10.6232 22.37 10.114C22.2992 9.60481 21.9726 9.17356 21.5132 8.9827V8.9827Z" stroke="black" stroke-width="1.5" stroke-linecap="round" stroke-linejoin="round"/>
<path fill-rule="evenodd" clip-rule="evenodd" d="M5.03923 7.06165C6.0802 6.57986 6.38249 5.01913 5.71441 3.57566C5.04633 2.13218 3.66087 1.35258 2.61991 1.83437C1.57894 2.31616 1.27665 3.87689 1.94473 5.32037C2.61281 6.76384 3.99827 7.54344 5.03923 7.06165Z" stroke="black" stroke-width="1.5" stroke-linecap="round" stroke-linejoin="round"/>
<path d="M5.32892 6.84094L6.86861 9.2995" stroke="black" stroke-width="1.5" stroke-linecap="round" stroke-linejoin="round"/>
<path fill-rule="evenodd" clip-rule="evenodd" d="M3 15.36C3.7647 15.36 4.38462 14.7153 4.38462 13.92C4.38462 13.1247 3.7647 12.48 3 12.48C2.2353 12.48 1.61539 13.1247 1.61539 13.92C1.61539 14.7153 2.2353 15.36 3 15.36Z" stroke="black" stroke-width="1.5" stroke-linecap="round" stroke-linejoin="round"/>
</svg>
