<svg width="25" height="25" viewBox="0 0 25 25" fill="none" xmlns="http://www.w3.org/2000/svg">
<path fill-rule="evenodd" clip-rule="evenodd" d="M3.02687 22.9431C2.50601 23.464 1.66152 23.464 1.14065 22.9431C0.619784 22.4223 0.619784 21.5778 1.14065 21.0569L4.24554 17.9556L6.1282 19.8382L3.02687 22.9431Z" stroke="black" stroke-width="1.5" stroke-linecap="round" stroke-linejoin="round"/>
<path d="M7.4171 16.6667L5.18865 18.8951" stroke="black" stroke-width="1.5" stroke-linecap="round" stroke-linejoin="round"/>
<path fill-rule="evenodd" clip-rule="evenodd" d="M18.6514 13.4333C21.1945 10.8902 21.4652 7.03775 19.2561 4.8286C17.0469 2.61945 13.1944 2.89016 10.6513 5.43325C8.10825 7.97635 7.83754 11.8288 10.0467 14.038C12.2558 16.2471 16.1083 15.9764 18.6514 13.4333Z" stroke="black" stroke-width="1.5" stroke-linecap="round" stroke-linejoin="round"/>
<path d="M8.67398 11.4774L7.41709 16.6667L12.6064 15.4098" stroke="black" stroke-width="1.5" stroke-linecap="round" stroke-linejoin="round"/>
<path d="M19.9575 11.6703L12.4135 4.12625" stroke="black" stroke-width="1.5" stroke-linecap="round" stroke-linejoin="round"/>
<path d="M9.3442 7.19556L16.8882 14.7396" stroke="black" stroke-width="1.5" stroke-linecap="round" stroke-linejoin="round"/>
<path d="M17.6598 3.75735L8.97532 12.4418" stroke="black" stroke-width="1.5" stroke-linecap="round" stroke-linejoin="round"/>
<path d="M11.642 15.1085L20.3264 6.42401" stroke="black" stroke-width="1.5" stroke-linecap="round" stroke-linejoin="round"/>
<path fill-rule="evenodd" clip-rule="evenodd" d="M3.41709 8.66668C4.88985 8.66668 6.08376 7.47277 6.08376 6.00001C6.08376 4.52725 4.88985 3.33334 3.41709 3.33334C1.94433 3.33334 0.750427 4.52725 0.750427 6.00001C0.750427 7.47277 1.94433 8.66668 3.41709 8.66668Z" stroke="black" stroke-width="1.5" stroke-linecap="round" stroke-linejoin="round"/>
</svg>
