<svg width="24" height="24" viewBox="0 0 24 24" fill="none" xmlns="http://www.w3.org/2000/svg">
<path fill-rule="evenodd" clip-rule="evenodd" d="M10.5 6C11.9498 6 13.125 4.82475 13.125 3.375C13.125 1.92525 11.9498 0.75 10.5 0.75C9.05028 0.75 7.87503 1.92525 7.87503 3.375C7.87503 4.82475 9.05028 6 10.5 6Z" stroke="black" stroke-width="1.5" stroke-linecap="round" stroke-linejoin="round"/>
<path fill-rule="evenodd" clip-rule="evenodd" d="M20.25 10.5C21.9069 10.5 23.25 9.15685 23.25 7.5C23.25 5.84315 21.9069 4.5 20.25 4.5C18.5932 4.5 17.25 5.84315 17.25 7.5C17.25 9.15685 18.5932 10.5 20.25 10.5Z" stroke="black" stroke-width="1.5" stroke-linecap="round" stroke-linejoin="round"/>
<path fill-rule="evenodd" clip-rule="evenodd" d="M17.23 12.189L9.13902 7.68902C8.7863 7.49279 8.36939 7.44699 7.98248 7.56197C7.59557 7.67695 7.27133 7.94301 7.08302 8.30002L3.92302 14.3C3.8093 14.5158 3.74992 14.7561 3.75002 15V18.75L1.35002 20.55C0.921304 20.8716 0.696691 21.3974 0.760793 21.9294C0.824894 22.4615 1.16797 22.9189 1.66079 23.1294C2.15361 23.34 2.7213 23.2716 3.15002 22.95L6.15002 20.7C6.52773 20.4167 6.75002 19.9722 6.75002 19.5V16.917L9.27402 18.223L9.76302 21.945C9.86314 22.6892 10.4981 23.2447 11.249 23.245C11.3159 23.2453 11.3827 23.2409 11.449 23.232C12.2702 23.1242 12.8486 22.3712 12.741 21.55L12.253 17.831C12.1259 16.8549 11.528 16.0032 10.653 15.552L7.50802 13.931L9.02202 11.057L15.771 14.811C16.4951 15.2139 17.4086 14.9536 17.8115 14.2295C18.2144 13.5055 17.9541 12.5919 17.23 12.189Z" stroke="black" stroke-width="1.5" stroke-linecap="round" stroke-linejoin="round"/>
</svg>
