<svg width="25" height="25" viewBox="0 0 25 25" fill="none" xmlns="http://www.w3.org/2000/svg">
<path fill-rule="evenodd" clip-rule="evenodd" d="M10.1148 6C11.5065 6 12.6348 4.82475 12.6348 3.375C12.6348 1.92525 11.5065 0.75 10.1148 0.75C8.723 0.75 7.59476 1.92525 7.59476 3.375C7.59476 4.82475 8.723 6 10.1148 6Z" stroke="black" stroke-width="1.5" stroke-linecap="round" stroke-linejoin="round"/>
<path d="M20.1938 17.624C20.3926 17.624 20.5538 17.7919 20.5538 17.999" stroke="black" stroke-width="1.5" stroke-linecap="round" stroke-linejoin="round"/>
<path d="M19.8348 18C19.8345 17.9006 19.8722 17.8051 19.9395 17.7346C20.0069 17.6641 20.0983 17.6243 20.1938 17.624" stroke="black" stroke-width="1.5" stroke-linecap="round" stroke-linejoin="round"/>
<path d="M20.1938 18.374C19.9957 18.3735 19.8353 18.2063 19.8348 18" stroke="black" stroke-width="1.5" stroke-linecap="round" stroke-linejoin="round"/>
<path d="M20.5548 18C20.5548 18.2071 20.3936 18.375 20.1948 18.375" stroke="black" stroke-width="1.5" stroke-linecap="round" stroke-linejoin="round"/>
<path fill-rule="evenodd" clip-rule="evenodd" d="M21.8157 7.58068C22.8282 5.86954 22.565 3.84107 21.228 3.04995C19.8909 2.25884 17.9862 3.00466 16.9738 4.7158C15.9613 6.42694 16.2245 8.45541 17.5616 9.24653C18.8986 10.0376 20.8033 9.29182 21.8157 7.58068Z" stroke="black" stroke-width="1.5" stroke-linecap="round" stroke-linejoin="round"/>
<path d="M16.2184 11.738L17.5605 9.375" stroke="black" stroke-width="1.5" stroke-linecap="round" stroke-linejoin="round"/>
<path fill-rule="evenodd" clip-rule="evenodd" d="M10.9317 13.876C11.1945 14.1164 11.5323 14.249 11.8821 14.249H15.1548C15.9501 14.249 16.5948 13.5774 16.5948 12.749C16.5948 11.9206 15.9501 11.249 15.1548 11.249H12.0588L9.32084 8.112C9.00137 7.74569 8.52901 7.56709 8.05835 7.63468C7.5877 7.70226 7.17933 8.00731 6.96692 8.45L4.08692 14.444C3.78733 15.0696 3.63092 15.7589 3.62996 16.458V18.749L1.32596 20.549C0.689731 21.0461 0.560789 21.9863 1.03796 22.649C1.51514 23.3117 2.41773 23.4461 3.05396 22.949L5.35796 21.149C6.08186 20.5813 6.50831 19.6929 6.50996 18.749V18.024L8.9954 19.134L10.2136 22.307C10.4021 22.8087 10.8343 23.1665 11.346 23.2446C11.8577 23.3226 12.3703 23.1088 12.6889 22.6845C13.0075 22.2602 13.0832 21.6905 12.8872 21.192L11.669 18.019C11.3881 17.2797 10.835 16.6881 10.133 16.376L7.0418 15L8.6018 11.75L10.9317 13.876Z" stroke="black" stroke-width="1.5" stroke-linecap="round" stroke-linejoin="round"/>
</svg>
