<svg width="24" height="25" viewBox="0 0 24 25" fill="none" xmlns="http://www.w3.org/2000/svg">
<path fill-rule="evenodd" clip-rule="evenodd" d="M11.843 5.07012C13.0856 5.07012 14.093 4.10306 14.093 2.91012C14.093 1.71719 13.0856 0.750122 11.843 0.750122C10.6004 0.750122 9.593 1.71719 9.593 2.91012C9.593 4.10306 10.6004 5.07012 11.843 5.07012Z" stroke="black" stroke-width="1.5" stroke-linecap="round" stroke-linejoin="round"/>
<path fill-rule="evenodd" clip-rule="evenodd" d="M18.593 8.67017H15.551C15.3184 8.67016 15.0891 8.61823 14.881 8.51849L11.014 6.66185C10.6252 6.47544 10.1713 6.46009 9.76977 6.61976C9.36825 6.77943 9.05861 7.09842 8.921 7.49417L6.671 13.9742C6.54485 14.3367 6.57399 14.7325 6.752 15.0743L7.79 17.0673C7.93971 17.3546 7.98579 17.6814 7.921 17.9966L7.373 20.6279C7.25406 21.1377 7.432 21.6693 7.83798 22.0171C8.24396 22.3649 8.81431 22.4744 9.32839 22.3031C9.84247 22.1319 10.2196 21.7069 10.314 21.1924L10.862 18.563C11.0183 17.7846 10.9491 16.9801 10.662 16.2369L11.573 16.3627C12.0604 16.4293 12.4828 16.7214 12.703 17.1441L13.503 18.6743C13.7402 19.1386 14.2186 19.4452 14.7562 19.4774C15.2938 19.5097 15.8082 19.2627 16.1038 18.8303C16.3993 18.398 16.4307 17.8467 16.186 17.386L15.386 15.8548C14.7248 14.5886 13.4602 13.7131 12 13.5105L10.085 13.2484L11.219 9.98441L13.54 11.098C14.1649 11.3959 14.8533 11.5506 15.551 11.5502H18.593C19.4214 11.5502 20.093 10.9055 20.093 10.1102C20.093 9.31488 19.4214 8.67017 18.593 8.67017V8.67017Z" stroke="black" stroke-width="1.5" stroke-linecap="round" stroke-linejoin="round"/>
<path fill-rule="evenodd" clip-rule="evenodd" d="M1.14912 12.1006C0.887152 12.0133 0.745572 11.7301 0.832896 11.4682L3.09646 4.67749C3.18378 4.41552 3.46694 4.27394 3.72892 4.36126L5.51244 4.95577C5.77441 5.0431 5.91599 5.32626 5.82867 5.58823L3.5651 12.3789C3.47778 12.6409 3.19462 12.7825 2.93265 12.6951L1.14912 12.1006Z" stroke="black" stroke-width="1.5" stroke-linecap="round" stroke-linejoin="round"/>
<path d="M20.843 5.79012L22.343 4.35012L23.093 0.750122" stroke="black" stroke-width="1.5" stroke-linecap="round" stroke-linejoin="round"/>
<path d="M18.593 14.4302V15.8702" stroke="black" stroke-width="1.5" stroke-linecap="round" stroke-linejoin="round"/>
<path d="M23.093 22.3501H3.593" stroke="black" stroke-width="1.5" stroke-linecap="round" stroke-linejoin="round"/>
<path d="M13.343 22.3501L14.845 19.4701" stroke="black" stroke-width="1.5" stroke-linecap="round" stroke-linejoin="round"/>
</svg>
