<svg width="25" height="24" viewBox="0 0 25 24" fill="none" xmlns="http://www.w3.org/2000/svg">
<path d="M15.5674 5.25024C15.5674 6.9071 14.2243 8.25024 12.5674 8.25024C10.9106 8.25024 9.56741 6.9071 9.56741 5.25024" stroke="black" stroke-width="1.5" stroke-linecap="round" stroke-linejoin="round"/>
<path fill-rule="evenodd" clip-rule="evenodd" d="M8.81741 5.25024C8.81741 3.17918 10.4963 1.50024 12.5674 1.50024C14.6385 1.50024 16.3174 3.17918 16.3174 5.25024H8.81741Z" stroke="black" stroke-width="1.5" stroke-linecap="round" stroke-linejoin="round"/>
<path d="M19.2044 1.85424L23.0674 0.750244" stroke="black" stroke-width="1.5" stroke-linecap="round" stroke-linejoin="round"/>
<path d="M19.4024 7.20325L23.0674 8.25025" stroke="black" stroke-width="1.5" stroke-linecap="round" stroke-linejoin="round"/>
<path d="M15.2734 14.9712C16.0858 15.1336 16.876 14.6066 17.0384 13.7942C17.2008 12.9818 16.6738 12.1916 15.8614 12.0292L13.0054 11.4582C12.7141 11.4007 12.4465 11.258 12.2364 11.0482L10.6284 9.43921C10.2978 9.10949 9.83242 8.95256 9.36963 9.0147C8.90683 9.07683 8.49937 9.35095 8.2674 9.75621L5.2674 15.0062C5.13736 15.2327 5.06844 15.4891 5.0674 15.7502V18.0422C5.06739 18.2748 5.0133 18.5041 4.9094 18.7122L3.7254 21.0792C3.35482 21.8204 3.65524 22.7216 4.3964 23.0922C5.13757 23.4628 6.03882 23.1624 6.4094 22.4212L7.5924 20.0542C7.90418 19.4293 8.06677 18.7406 8.0674 18.0422V17.8312L9.4134 18.2802C9.79174 18.4047 10.1042 18.676 10.2804 19.0332L11.9804 22.4212C12.351 23.1624 13.2522 23.4628 13.9934 23.0922C14.7346 22.7216 15.035 21.8204 14.6644 21.0792L12.9644 17.6912C12.4337 16.6222 11.4975 15.8099 10.3644 15.4352L8.7774 14.9062" stroke="black" stroke-width="1.5" stroke-linecap="round" stroke-linejoin="round"/>
<path fill-rule="evenodd" clip-rule="evenodd" d="M2.55259 7.03922C2.68959 6.79947 2.99502 6.71617 3.23478 6.85317L4.97126 7.84545C5.21102 7.98246 5.29432 8.28789 5.15732 8.52765L3.42082 11.5665C3.28382 11.8063 2.97839 11.8895 2.73863 11.7525L1.00215 10.7603C0.762388 10.6233 0.679091 10.3178 0.816096 10.0781L2.55259 7.03922Z" stroke="black" stroke-width="1.5" stroke-linecap="round" stroke-linejoin="round"/>
</svg>
