<svg width="24" height="24" viewBox="0 0 24 24" fill="none" xmlns="http://www.w3.org/2000/svg">
<path fill-rule="evenodd" clip-rule="evenodd" d="M9.75 5.25C10.9926 5.25 12 4.24264 12 3C12 1.75736 10.9926 0.75 9.75 0.75C8.50736 0.75 7.5 1.75736 7.5 3C7.5 4.24264 8.50736 5.25 9.75 5.25Z" stroke="black" stroke-width="1.5" stroke-linecap="round" stroke-linejoin="round"/>
<path fill-rule="evenodd" clip-rule="evenodd" d="M19.5 3V2.25C19.5 1.42157 18.8284 0.75 18 0.75C17.1716 0.75 16.5 1.42157 16.5 2.25V3C16.4967 5.89812 14.1481 8.24669 11.25 8.25H6.2C5.67341 8.24835 5.18571 7.97248 4.913 7.522L3.536 5.228C3.10564 4.52691 2.19091 4.30325 1.4856 4.72665C0.780285 5.15006 0.547589 6.06254 0.964001 6.772L2.34 9.072C3.159 10.4213 4.62163 11.2466 6.2 11.25H6.75V15.4L3.908 21.079C3.53742 21.8202 3.83783 22.7214 4.579 23.092C5.32017 23.4626 6.22142 23.1622 6.592 22.421L9.177 17.25H12.75C13.5784 17.25 14.25 17.9216 14.25 18.75V20.25C14.25 21.0784 14.9216 21.75 15.75 21.75C16.5784 21.75 17.25 21.0784 17.25 20.25V18.75C17.2472 16.2659 15.2341 14.2528 12.75 14.25V11.106C16.6572 10.3799 19.4933 6.97409 19.5 3Z" stroke="black" stroke-width="1.5" stroke-linecap="round" stroke-linejoin="round"/>
<path d="M23.25 0.75V8.25C23.25 11.5637 20.5637 14.25 17.25 14.25H6.75" stroke="black" stroke-width="1.5" stroke-linecap="round" stroke-linejoin="round"/>
<path d="M11.25 20.25V23.25" stroke="black" stroke-width="1.5" stroke-linecap="round" stroke-linejoin="round"/>
</svg>
