<svg width="24" height="24" viewBox="0 0 24 24" fill="none" xmlns="http://www.w3.org/2000/svg">
<path fill-rule="evenodd" clip-rule="evenodd" d="M18.75 8.625C18.8479 4.38151 15.4932 0.859121 11.25 0.75C7.00678 0.859121 3.65213 4.38151 3.75 8.625C3.69681 12.1833 6.06119 15.3255 9.495 16.26L8.795 17.66C8.67893 17.8925 8.69148 18.1685 8.82815 18.3895C8.96482 18.6105 9.20615 18.745 9.466 18.745H13.038C13.2978 18.745 13.5392 18.6105 13.6758 18.3895C13.8125 18.1685 13.8251 17.8925 13.709 17.66L13.009 16.26C16.4412 15.324 18.8037 12.1822 18.75 8.625V8.625Z" stroke="black" stroke-width="1.5" stroke-linecap="round" stroke-linejoin="round"/>
<path d="M11.25 18.75V20.25C11.25 21.0784 11.9216 21.75 12.75 21.75H14.25C15.0784 21.75 15.75 21.0784 15.75 20.25V20.25C15.75 19.4216 16.4216 18.75 17.25 18.75V18.75C18.0784 18.75 18.75 19.4216 18.75 20.25V23.25" stroke="black" stroke-width="1.5" stroke-linecap="round" stroke-linejoin="round"/>
</svg>
