<svg width="24" height="24" viewBox="0 0 24 24" fill="none" xmlns="http://www.w3.org/2000/svg">
<path d="M0.750061 8.091C6.00006 11.841 14.1201 13.483 23.2501 12.591" stroke="black" stroke-width="1.5" stroke-linecap="round" stroke-linejoin="round"/>
<path d="M2.96506 9.45999L2.87606 13.654C2.89932 14.0526 3.14315 14.4048 3.508 14.5669C3.87285 14.729 4.29768 14.6739 4.60906 14.424L7.80006 11.407" stroke="black" stroke-width="1.5" stroke-linecap="round" stroke-linejoin="round"/>
<path d="M9.96206 11.96L10.8911 16.32C11.0029 16.7034 11.3196 16.9923 11.7117 17.0685C12.1038 17.1448 12.5057 16.9956 12.7531 16.682L15.3341 12.72" stroke="black" stroke-width="1.5" stroke-linecap="round" stroke-linejoin="round"/>
<path d="M16.9701 12.805L18.7401 16.936C18.9277 17.2901 19.2979 17.5093 19.6986 17.5034C20.0993 17.4975 20.463 17.2675 20.6401 16.908L22.3721 12.67" stroke="black" stroke-width="1.5" stroke-linecap="round" stroke-linejoin="round"/>
<path d="M17.6251 9.25C17.8322 9.25 18.0001 9.41789 18.0001 9.625" stroke="black" stroke-width="1.5" stroke-linecap="round" stroke-linejoin="round"/>
<path d="M17.2501 9.625C17.2501 9.41789 17.418 9.25 17.6251 9.25" stroke="black" stroke-width="1.5" stroke-linecap="round" stroke-linejoin="round"/>
<path d="M17.6251 10C17.418 10 17.2501 9.83211 17.2501 9.625" stroke="black" stroke-width="1.5" stroke-linecap="round" stroke-linejoin="round"/>
<path d="M18.0001 9.625C18.0001 9.83211 17.8322 10 17.6251 10" stroke="black" stroke-width="1.5" stroke-linecap="round" stroke-linejoin="round"/>
<path d="M4.12506 19C4.33217 19 4.50006 19.1679 4.50006 19.375" stroke="black" stroke-width="1.5" stroke-linecap="round" stroke-linejoin="round"/>
<path d="M3.75006 19.375C3.75006 19.1679 3.91795 19 4.12506 19" stroke="black" stroke-width="1.5" stroke-linecap="round" stroke-linejoin="round"/>
<path d="M4.12506 19.75C3.91795 19.75 3.75006 19.5821 3.75006 19.375" stroke="black" stroke-width="1.5" stroke-linecap="round" stroke-linejoin="round"/>
<path d="M4.50006 19.375C4.50006 19.5821 4.33217 19.75 4.12506 19.75" stroke="black" stroke-width="1.5" stroke-linecap="round" stroke-linejoin="round"/>
<path d="M4.87506 2.5C5.08217 2.5 5.25006 2.66789 5.25006 2.875" stroke="black" stroke-width="1.5" stroke-linecap="round" stroke-linejoin="round"/>
<path d="M4.50006 2.875C4.50006 2.66789 4.66795 2.5 4.87506 2.5" stroke="black" stroke-width="1.5" stroke-linecap="round" stroke-linejoin="round"/>
<path d="M4.87506 3.25C4.66795 3.25 4.50006 3.08211 4.50006 2.875" stroke="black" stroke-width="1.5" stroke-linecap="round" stroke-linejoin="round"/>
<path d="M5.25006 2.875C5.25006 3.08211 5.08217 3.25 4.87506 3.25" stroke="black" stroke-width="1.5" stroke-linecap="round" stroke-linejoin="round"/>
<path d="M19.5001 1V4" stroke="black" stroke-width="1.5" stroke-linecap="round" stroke-linejoin="round"/>
<path d="M21.0001 2.5H18.0001" stroke="black" stroke-width="1.5" stroke-linecap="round" stroke-linejoin="round"/>
<path d="M9.00006 4.75V7.75" stroke="black" stroke-width="1.5" stroke-linecap="round" stroke-linejoin="round"/>
<path d="M10.5001 6.25H7.50006" stroke="black" stroke-width="1.5" stroke-linecap="round" stroke-linejoin="round"/>
<path d="M17.2501 19.75V22.75" stroke="black" stroke-width="1.5" stroke-linecap="round" stroke-linejoin="round"/>
<path d="M18.7501 21.25H15.7501" stroke="black" stroke-width="1.5" stroke-linecap="round" stroke-linejoin="round"/>
</svg>
