<svg width="24" height="24" viewBox="0 0 24 24" fill="none" xmlns="http://www.w3.org/2000/svg">
<path fill-rule="evenodd" clip-rule="evenodd" d="M8.25 9.25C9.69975 9.25 10.875 8.07475 10.875 6.625C10.875 5.17525 9.69975 4 8.25 4C6.80025 4 5.625 5.17525 5.625 6.625C5.625 8.07475 6.80025 9.25 8.25 9.25Z" stroke="black" stroke-width="1.5" stroke-linecap="round" stroke-linejoin="round"/>
<path fill-rule="evenodd" clip-rule="evenodd" d="M9 18.25C8.35436 18.25 7.78115 17.8369 7.57698 17.2243C7.37281 16.6118 7.58348 15.9374 8.1 15.55L10.641 13.645L11.278 10.456C11.4182 9.75438 12.0345 9.24948 12.75 9.25H18.75C19.1802 9.25012 19.5896 9.43492 19.8742 9.75744C20.1589 10.08 20.2913 10.5092 20.238 10.936L19.7 15.25H21.75C22.5784 15.25 23.25 15.9216 23.25 16.75C23.25 17.5784 22.5784 18.25 21.75 18.25H18C17.5698 18.2499 17.1604 18.0651 16.8758 17.7426C16.5911 17.42 16.4587 16.9908 16.512 16.564L17.051 12.25H13.979L13.471 14.794C13.3984 15.1561 13.1947 15.4787 12.899 15.7L9.899 17.95C9.63997 18.1452 9.32433 18.2505 9 18.25V18.25Z" stroke="black" stroke-width="1.5" stroke-linecap="round" stroke-linejoin="round"/>
<path fill-rule="evenodd" clip-rule="evenodd" d="M5.625 16.75C5.49542 16.7593 5.36692 16.78 5.241 16.812C5.241 16.791 5.25 16.771 5.25 16.75C5.25 15.922 4.243 15.25 3 15.25C1.757 15.25 0.75 15.922 0.75 16.75C0.75 17.578 1.757 18.25 3 18.25C3.26111 18.2483 3.52103 18.2147 3.774 18.15C3.774 18.184 3.75 18.213 3.75 18.25C3.86435 19.176 4.69649 19.8417 5.625 19.75C6.55351 19.8417 7.38565 19.176 7.5 18.25C7.38565 17.324 6.55351 16.6583 5.625 16.75V16.75Z" stroke="black" stroke-width="1.5" stroke-linecap="round" stroke-linejoin="round"/>
<path d="M6.886 13.046C6.99547 12.7197 7.16733 12.4178 7.392 12.157" stroke="black" stroke-width="1.5" stroke-linecap="round" stroke-linejoin="round"/>
<path d="M3.591 11.371C3.82217 11.0845 4.08073 10.8213 4.363 10.585" stroke="black" stroke-width="1.5" stroke-linecap="round" stroke-linejoin="round"/>
</svg>
