<svg width="25" height="24" viewBox="0 0 25 24" fill="none" xmlns="http://www.w3.org/2000/svg">
<path fill-rule="evenodd" clip-rule="evenodd" d="M18.7505 8.25018C19.5457 8.25018 20.1905 7.57861 20.1905 6.75018C20.1905 5.92176 19.5457 5.25018 18.7505 5.25018C17.9552 5.25018 17.3105 5.92176 17.3105 6.75018C17.3105 7.57861 17.9552 8.25018 18.7505 8.25018Z" stroke="black" stroke-width="1.5" stroke-linecap="round" stroke-linejoin="round"/>
<path d="M21.281 0.750183C20.6401 0.917178 20.1905 1.51702 20.1905 2.20518V6.75018" stroke="black" stroke-width="1.5" stroke-linecap="round" stroke-linejoin="round"/>
<path fill-rule="evenodd" clip-rule="evenodd" d="M20.9105 17.2502C21.7057 17.2502 22.3505 16.5786 22.3505 15.7502C22.3505 14.9218 21.7057 14.2502 20.9105 14.2502C20.1152 14.2502 19.4705 14.9218 19.4705 15.7502C19.4705 16.5786 20.1152 17.2502 20.9105 17.2502Z" stroke="black" stroke-width="1.5" stroke-linecap="round" stroke-linejoin="round"/>
<path d="M22.3505 12.0002V15.7502" stroke="black" stroke-width="1.5" stroke-linecap="round" stroke-linejoin="round"/>
<path fill-rule="evenodd" clip-rule="evenodd" d="M7.23046 6.37518C8.62222 6.37518 9.75046 5.19993 9.75046 3.75018C9.75046 2.30044 8.62222 1.12518 7.23046 1.12518C5.83871 1.12518 4.71046 2.30044 4.71046 3.75018C4.71046 5.19993 5.83871 6.37518 7.23046 6.37518Z" stroke="black" stroke-width="1.5" stroke-linecap="round" stroke-linejoin="round"/>
<path fill-rule="evenodd" clip-rule="evenodd" d="M11.2701 10.4932C12.1437 10.2282 13.0145 9.98118 13.9015 9.67418C14.6367 9.39776 15.0259 8.56095 14.7786 7.78863C14.5313 7.01632 13.7377 6.59051 12.9905 6.82918C8.79622 8.28518 5.55526 8.62918 1.1719 13.1892C0.609366 13.7751 0.609366 14.7252 1.1719 15.3112C1.73444 15.8971 2.64649 15.8971 3.20902 15.3112C4.14855 14.315 5.19216 13.4315 6.32038 12.6772L4.3687 18.9002C4.3293 19.026 4.35647 19.1641 4.44019 19.2636C4.52392 19.3632 4.6518 19.4093 4.7767 19.3852L6.01798 19.1432L5.63974 21.5002C5.50969 22.3169 6.03947 23.089 6.82342 23.2252C6.9017 23.2396 6.98106 23.2466 7.06054 23.2462C7.76126 23.2455 8.35981 22.7196 8.47846 22.0002L9.09286 18.1592L10.458 17.7222L11.2327 18.7982C11.3628 18.9781 11.4083 19.2095 11.3565 19.4282L10.8852 21.3892C10.7922 21.7751 10.8503 22.1836 11.0465 22.5249C11.2427 22.8663 11.5611 23.1124 11.9316 23.2092C12.0465 23.2388 12.1645 23.2539 12.2829 23.2542C12.9426 23.2533 13.5173 22.7857 13.6778 22.1192L14.1492 20.1562C14.4142 19.0611 14.1886 17.8998 13.5357 16.9982L13.3821 16.7852L14.3239 16.6192C14.4541 16.5966 14.5619 16.5014 14.6046 16.3712C14.6474 16.2411 14.6181 16.0971 14.5284 15.9962L11.2701 10.4932Z" stroke="black" stroke-width="1.5" stroke-linecap="round" stroke-linejoin="round"/>
</svg>
