<svg width="24" height="24" viewBox="0 0 24 24" fill="none" xmlns="http://www.w3.org/2000/svg">
<path d="M3.584 23.25L13.007 13.826C13.593 13.24 14.543 13.24 15.129 13.826C15.715 14.412 15.715 15.362 15.129 15.948L7.829 23.248" stroke="black" stroke-width="1.5" stroke-linecap="round" stroke-linejoin="round"/>
<path d="M15.129 13.826L20.429 8.526C21.2729 7.68208 21.747 6.53748 21.747 5.344C21.747 4.15052 21.2729 3.00592 20.429 2.162C19.541 1.34776 18.1693 1.37745 17.3174 2.22936C16.4654 3.08126 16.4358 4.45303 17.25 5.341C17.8357 5.92657 18.7852 5.92657 19.371 5.341" stroke="black" stroke-width="1.5" stroke-linecap="round" stroke-linejoin="round"/>
<path d="M4.5 4.5H7.5" stroke="black" stroke-width="1.5" stroke-linecap="round" stroke-linejoin="round"/>
<path d="M6 3V6" stroke="black" stroke-width="1.5" stroke-linecap="round" stroke-linejoin="round"/>
<path d="M18.75 16.5H21.75" stroke="black" stroke-width="1.5" stroke-linecap="round" stroke-linejoin="round"/>
<path d="M20.25 15V18" stroke="black" stroke-width="1.5" stroke-linecap="round" stroke-linejoin="round"/>
<path d="M10.125 9C10.3321 9 10.5 9.16789 10.5 9.375" stroke="black" stroke-width="1.5" stroke-linecap="round" stroke-linejoin="round"/>
<path d="M9.75 9.375C9.75 9.16789 9.91789 9 10.125 9" stroke="black" stroke-width="1.5" stroke-linecap="round" stroke-linejoin="round"/>
<path d="M10.125 9.75C9.91789 9.75 9.75 9.58211 9.75 9.375" stroke="black" stroke-width="1.5" stroke-linecap="round" stroke-linejoin="round"/>
<path d="M10.5 9.375C10.5 9.58211 10.3321 9.75 10.125 9.75" stroke="black" stroke-width="1.5" stroke-linecap="round" stroke-linejoin="round"/>
<path d="M12.375 0.75C12.5821 0.75 12.75 0.917893 12.75 1.125" stroke="black" stroke-width="1.5" stroke-linecap="round" stroke-linejoin="round"/>
<path d="M12 1.125C12 0.917893 12.1679 0.75 12.375 0.75" stroke="black" stroke-width="1.5" stroke-linecap="round" stroke-linejoin="round"/>
<path d="M12.375 1.5C12.1679 1.5 12 1.33211 12 1.125" stroke="black" stroke-width="1.5" stroke-linecap="round" stroke-linejoin="round"/>
<path d="M12.75 1.125C12.75 1.33211 12.5821 1.5 12.375 1.5" stroke="black" stroke-width="1.5" stroke-linecap="round" stroke-linejoin="round"/>
<path d="M1.125 8.25C1.33211 8.25 1.5 8.41789 1.5 8.625" stroke="black" stroke-width="1.5" stroke-linecap="round" stroke-linejoin="round"/>
<path d="M0.75 8.625C0.75 8.41789 0.917893 8.25 1.125 8.25" stroke="black" stroke-width="1.5" stroke-linecap="round" stroke-linejoin="round"/>
<path d="M1.125 9C0.917893 9 0.75 8.83211 0.75 8.625" stroke="black" stroke-width="1.5" stroke-linecap="round" stroke-linejoin="round"/>
<path d="M1.5 8.625C1.5 8.83211 1.33211 9 1.125 9" stroke="black" stroke-width="1.5" stroke-linecap="round" stroke-linejoin="round"/>
<path d="M22.875 10.5C23.0821 10.5 23.25 10.6679 23.25 10.875" stroke="black" stroke-width="1.5" stroke-linecap="round" stroke-linejoin="round"/>
<path d="M22.5 10.875C22.5 10.6679 22.6679 10.5 22.875 10.5" stroke="black" stroke-width="1.5" stroke-linecap="round" stroke-linejoin="round"/>
<path d="M22.875 11.25C22.6679 11.25 22.5 11.0821 22.5 10.875" stroke="black" stroke-width="1.5" stroke-linecap="round" stroke-linejoin="round"/>
<path d="M23.25 10.875C23.25 11.0821 23.0821 11.25 22.875 11.25" stroke="black" stroke-width="1.5" stroke-linecap="round" stroke-linejoin="round"/>
</svg>
