<svg width="24" height="24" viewBox="0 0 24 24" fill="none" xmlns="http://www.w3.org/2000/svg">
<path d="M15.75 10.969V14.25C15.75 15.0784 15.0784 15.75 14.25 15.75H5.25C4.42157 15.75 3.75 15.0784 3.75 14.25V11" stroke="black" stroke-width="1.5" stroke-linecap="round" stroke-linejoin="round"/>
<path fill-rule="evenodd" clip-rule="evenodd" d="M20.25 8.146C20.2501 8.689 19.9567 9.18966 19.483 9.455C17.8726 10.3902 16.0949 11.0017 14.25 11.255H5.25C2.76472 11.255 0.75 9.24029 0.75 6.755V6.755C0.75 4.26972 2.76472 2.255 5.25 2.255H14.25C16.0949 2.50834 17.8726 3.1198 19.483 4.055C19.9567 4.32035 20.2501 4.82101 20.25 5.364V8.146Z" stroke="black" stroke-width="1.5" stroke-linecap="round" stroke-linejoin="round"/>
<path d="M15.75 14.25H18.75" stroke="black" stroke-width="1.5" stroke-linecap="round" stroke-linejoin="round"/>
<path fill-rule="evenodd" clip-rule="evenodd" d="M18.75 12.75H22.25C22.8023 12.75 23.25 13.1977 23.25 13.75V14.75C23.25 15.3023 22.8023 15.75 22.25 15.75H18.75V12.75Z" stroke="black" stroke-width="1.5" stroke-linecap="round" stroke-linejoin="round"/>
<path fill-rule="evenodd" clip-rule="evenodd" d="M8.615 20.777C8.39593 21.3608 7.83854 21.7482 7.215 21.75H4.832C4.5865 21.7492 4.35692 21.6283 4.21736 21.4264C4.07779 21.2244 4.04591 20.9669 4.132 20.737L6 15.75H10.5L8.615 20.777Z" stroke="black" stroke-width="1.5" stroke-linecap="round" stroke-linejoin="round"/>
<path d="M11.25 15.75L12.75 18.75" stroke="black" stroke-width="1.5" stroke-linecap="round" stroke-linejoin="round"/>
<path d="M20.25 6.75H23.25" stroke="black" stroke-width="1.5" stroke-linecap="round" stroke-linejoin="round"/>
<path d="M14.25 2.25V11.25" stroke="black" stroke-width="1.5" stroke-linecap="round" stroke-linejoin="round"/>
</svg>
