<svg width="25" height="24" viewBox="0 0 25 24" fill="none" xmlns="http://www.w3.org/2000/svg">
<path d="M22.3543 0.75V23.25" stroke="black" stroke-width="1.5" stroke-linecap="round" stroke-linejoin="round"/>
<path fill-rule="evenodd" clip-rule="evenodd" d="M10.0486 6.70561C10.3756 5.87254 9.70305 4.82908 8.54635 4.37498C7.38965 3.92089 6.18684 4.2281 5.85979 5.06117C5.53275 5.89424 6.20531 6.9377 7.36201 7.3918C8.51871 7.84589 9.72152 7.53868 10.0486 6.70561Z" stroke="black" stroke-width="1.5" stroke-linecap="round" stroke-linejoin="round"/>
<path fill-rule="evenodd" clip-rule="evenodd" d="M15.7698 7.45423C16.8802 7.0183 17.5042 5.96143 17.1635 5.09365C16.8229 4.22586 15.6465 3.87578 14.5361 4.31172C13.4256 4.74765 12.8016 5.80452 13.1423 6.6723C13.483 7.54008 14.6593 7.89016 15.7698 7.45423Z" stroke="black" stroke-width="1.5" stroke-linecap="round" stroke-linejoin="round"/>
<path fill-rule="evenodd" clip-rule="evenodd" d="M18.9626 1.945C18.1369 2.31369 17.1851 2.1947 16.4666 1.633C15.1044 0.585055 13.2278 0.656826 11.9431 1.806L11.5543 2.154L11.1635 1.806C9.87883 0.656826 8.00218 0.585055 6.64002 1.633C5.92147 2.1945 4.96972 2.31347 4.14402 1.945L0.754265 0.75C0.732987 2.03092 0.791349 3.31193 0.928985 4.585C1.25189 7.03241 2.73276 9.14748 4.87124 10.2156C7.00972 11.2837 9.52013 11.1621 11.5543 9.892C13.5883 11.1622 16.0986 11.2838 18.237 10.2157C20.3753 9.14751 21.856 7.03237 22.1786 4.585C22.3171 3.312 22.3757 2.03095 22.3543 0.75L18.9626 1.945Z" stroke="black" stroke-width="1.5" stroke-linecap="round" stroke-linejoin="round"/>
</svg>
