<svg width="24" height="24" viewBox="0 0 24 24" fill="none" xmlns="http://www.w3.org/2000/svg">
<path d="M0.750107 1.75L23.2501 5.337" stroke="black" stroke-width="1.5" stroke-linecap="round" stroke-linejoin="round"/>
<path d="M2.29311 2L3.30711 6.153C3.43106 6.53307 3.75724 6.81184 4.15198 6.87506C4.54672 6.93829 4.94365 6.77534 5.18011 6.453L7.43611 2.816" stroke="black" stroke-width="1.5" stroke-linecap="round" stroke-linejoin="round"/>
<path d="M9.49411 3.14401L10.5081 7.30001C10.6323 7.6796 10.9582 7.95792 11.3526 8.02112C11.7469 8.08432 12.1435 7.92178 12.3801 7.60001L14.6371 3.96401" stroke="black" stroke-width="1.5" stroke-linecap="round" stroke-linejoin="round"/>
<path d="M16.6941 4.29199L17.7081 8.44899C17.8321 8.82906 18.1582 9.10783 18.553 9.17106C18.9477 9.23428 19.3447 9.07133 19.5811 8.74899L21.8371 5.11299" stroke="black" stroke-width="1.5" stroke-linecap="round" stroke-linejoin="round"/>
<path d="M0.759109 19.793L23.2501 11.098" stroke="black" stroke-width="1.5" stroke-linecap="round" stroke-linejoin="round"/>
<path d="M2.30011 19.2L5.44311 22.466C5.75955 22.747 6.2065 22.8277 6.60121 22.675C6.99592 22.5223 7.27221 22.1618 7.31711 21.741L7.44611 17.21" stroke="black" stroke-width="1.5" stroke-linecap="round" stroke-linejoin="round"/>
<path d="M9.50711 16.411L12.6501 19.677C12.9664 19.958 13.4132 20.0387 13.8078 19.8863C14.2025 19.7338 14.4789 19.3737 14.5241 18.953L14.6531 14.422" stroke="black" stroke-width="1.5" stroke-linecap="round" stroke-linejoin="round"/>
<path d="M16.7111 13.626L19.8551 16.892C20.1713 17.1732 20.6183 17.254 21.0129 17.1012C21.4075 16.9484 21.6836 16.5878 21.7281 16.167L21.8571 11.636" stroke="black" stroke-width="1.5" stroke-linecap="round" stroke-linejoin="round"/>
</svg>
