<svg width="25" height="24" viewBox="0 0 25 24" fill="none" xmlns="http://www.w3.org/2000/svg">
<path fill-rule="evenodd" clip-rule="evenodd" d="M20.3 18.943L19.554 17.077C18.8745 15.3653 17.2167 14.2438 15.375 14.25H13.04L12.562 11.25H14.426C16.0056 11.2453 17.4685 10.4176 18.286 9.06601L19.661 6.77201C20.0774 6.06254 19.8447 5.15007 19.1394 4.72666C18.4341 4.30326 17.5194 4.52692 17.089 5.22801L15.713 7.52101C15.4407 7.97202 14.9528 8.24834 14.426 8.25001H8.626C7.43165 8.24708 6.28566 8.7216 5.443 9.56801L3.322 11.689C2.73603 12.2747 2.7358 13.2245 3.3215 13.8105C3.9072 14.3965 4.85703 14.3967 5.443 13.811L7.564 11.689C7.84637 11.4091 8.22743 11.2515 8.625 11.25H9.525L10.69 18.577C10.7577 18.9562 10.676 19.3468 10.462 19.667L9.627 20.918C9.1675 21.6084 9.35465 22.5405 10.045 23C10.7354 23.4595 11.6675 23.2724 12.127 22.582L12.963 21.33C13.602 20.3763 13.8491 19.2131 13.653 18.082L13.521 17.25H15.379C15.9927 17.2481 16.5452 17.6217 16.772 18.192L17.518 20.057C17.8502 20.7862 18.6968 21.1256 19.4407 20.8277C20.1845 20.5299 20.5629 19.6999 20.3 18.943Z" stroke="black" stroke-width="1.5" stroke-linecap="round" stroke-linejoin="round"/>
<path fill-rule="evenodd" clip-rule="evenodd" d="M10.5 6C11.9497 6 13.125 4.82475 13.125 3.375C13.125 1.92525 11.9497 0.75 10.5 0.75C9.05025 0.75 7.875 1.92525 7.875 3.375C7.875 4.82475 9.05025 6 10.5 6Z" stroke="black" stroke-width="1.5" stroke-linecap="round" stroke-linejoin="round"/>
<path d="M2.25 3V6" stroke="black" stroke-width="1.5" stroke-linecap="round" stroke-linejoin="round"/>
<path d="M0.75 4.5H3.75" stroke="black" stroke-width="1.5" stroke-linecap="round" stroke-linejoin="round"/>
<path d="M21.75 0.75V3.75" stroke="black" stroke-width="1.5" stroke-linecap="round" stroke-linejoin="round"/>
<path d="M20.25 2.25H23.25" stroke="black" stroke-width="1.5" stroke-linecap="round" stroke-linejoin="round"/>
<path d="M18.1 4.526L16.625 2.985C16.4877 2.84097 16.2987 2.75757 16.0998 2.75326C15.9009 2.74894 15.7084 2.82406 15.565 2.962L14.481 4C14.182 4.28678 14.1717 4.76154 14.458 5.061L16.138 6.815" stroke="black" stroke-width="1.5" stroke-linecap="round" stroke-linejoin="round"/>
<path d="M17.842 9.679L19.622 11.537C19.8971 11.8244 20.2752 11.9907 20.673 11.9993C21.0707 12.008 21.4557 11.8582 21.743 11.583L22.826 10.546C23.1134 10.2709 23.2797 9.89281 23.2883 9.49503C23.297 9.09726 23.1472 8.71235 22.872 8.425L21.053 6.525C20.7193 6.17829 20.308 5.91576 19.853 5.759" stroke="black" stroke-width="1.5" stroke-linecap="round" stroke-linejoin="round"/>
<path d="M22.5 15.375C22.7071 15.375 22.875 15.5429 22.875 15.75" stroke="black" stroke-width="1.5" stroke-linecap="round" stroke-linejoin="round"/>
<path d="M22.125 15.75C22.125 15.5429 22.2929 15.375 22.5 15.375" stroke="black" stroke-width="1.5" stroke-linecap="round" stroke-linejoin="round"/>
<path d="M22.5 16.125C22.2929 16.125 22.125 15.9571 22.125 15.75" stroke="black" stroke-width="1.5" stroke-linecap="round" stroke-linejoin="round"/>
<path d="M22.875 15.75C22.875 15.9571 22.7071 16.125 22.5 16.125" stroke="black" stroke-width="1.5" stroke-linecap="round" stroke-linejoin="round"/>
<path d="M5.25 6.375C5.45711 6.375 5.625 6.54289 5.625 6.75" stroke="black" stroke-width="1.5" stroke-linecap="round" stroke-linejoin="round"/>
<path d="M4.875 6.75C4.875 6.54289 5.04289 6.375 5.25 6.375" stroke="black" stroke-width="1.5" stroke-linecap="round" stroke-linejoin="round"/>
<path d="M5.25 7.125C5.04289 7.125 4.875 6.95711 4.875 6.75" stroke="black" stroke-width="1.5" stroke-linecap="round" stroke-linejoin="round"/>
<path d="M5.625 6.75C5.625 6.95711 5.45711 7.125 5.25 7.125" stroke="black" stroke-width="1.5" stroke-linecap="round" stroke-linejoin="round"/>
</svg>
