<svg width="25" height="25" viewBox="0 0 25 25" fill="none" xmlns="http://www.w3.org/2000/svg">
<path fill-rule="evenodd" clip-rule="evenodd" d="M12.7101 17.8626C12.6187 17.0701 13.1635 16.3446 13.9501 16.2116C14.5763 16.1161 15.1565 15.8257 15.6081 15.3816C17.0731 13.9176 16.7081 11.1756 14.7891 9.25858C12.8701 7.34158 10.1301 6.97458 8.66613 8.43958C8.22201 8.89122 7.93157 9.47138 7.83613 10.0976C7.70311 10.8842 6.97765 11.4291 6.18513 11.3376C4.73686 11.1158 3.26747 11.5766 2.20513 12.5856C0.15513 14.6356 0.56513 18.3696 3.12413 20.9236C5.68313 23.4776 9.41513 23.8896 11.4651 21.8396C12.4721 20.7774 12.9317 19.3094 12.7101 17.8626Z" stroke="black" stroke-width="1.5" stroke-linecap="round" stroke-linejoin="round"/>
<path fill-rule="evenodd" clip-rule="evenodd" d="M18.5015 5.54708C17.9158 4.96129 17.9158 4.01155 18.5015 3.42576L20.0925 1.83477C20.6783 1.24898 21.6281 1.24898 22.2139 1.83477C22.7996 2.42056 22.7996 3.3703 22.2139 3.95609L20.6229 5.54708C20.0371 6.13287 19.0873 6.13287 18.5015 5.54708Z" stroke="black" stroke-width="1.5" stroke-linecap="round" stroke-linejoin="round"/>
<path d="M18.5011 5.54657L14.7891 9.25857" stroke="black" stroke-width="1.5" stroke-linecap="round" stroke-linejoin="round"/>
<path d="M19.0311 0.77359L20.0921 1.83459" stroke="black" stroke-width="1.5" stroke-linecap="round" stroke-linejoin="round"/>
<path d="M22.2131 3.95557L23.2741 5.01657" stroke="black" stroke-width="1.5" stroke-linecap="round" stroke-linejoin="round"/>
<path d="M20.6221 5.54657L21.6831 6.60757" stroke="black" stroke-width="1.5" stroke-linecap="round" stroke-linejoin="round"/>
<path d="M17.4401 2.36456L18.5011 3.42556" stroke="black" stroke-width="1.5" stroke-linecap="round" stroke-linejoin="round"/>
<path fill-rule="evenodd" clip-rule="evenodd" d="M11.0761 14.4716C11.9046 14.4716 12.5761 13.8 12.5761 12.9716C12.5761 12.1432 11.9046 11.4716 11.0761 11.4716C10.2477 11.4716 9.57613 12.1432 9.57613 12.9716C9.57613 13.8 10.2477 14.4716 11.0761 14.4716Z" stroke="black" stroke-width="1.5" stroke-linecap="round" stroke-linejoin="round"/>
<path d="M5.24313 16.6836L7.36413 18.8046" stroke="black" stroke-width="1.5" stroke-linecap="round" stroke-linejoin="round"/>
<path d="M9.51613 5.28258L6.79413 2.02358C5.98037 1.00665 4.65644 0.545103 3.38683 0.835722C2.11723 1.12634 1.12592 2.11786 0.835563 3.38753C0.54521 4.65719 1.00704 5.98102 2.02413 6.79458L4.52413 8.89358" stroke="black" stroke-width="1.5" stroke-linecap="round" stroke-linejoin="round"/>
<path d="M16.3121 18.7686L18.0341 20.2106L17.5341 20.7106C16.9482 21.2966 16.9482 22.2466 17.5341 22.8326C18.1201 23.4186 19.0702 23.4186 19.6561 22.8326L22.8381 19.6506C23.4241 19.0646 23.4241 18.1146 22.8381 17.5286C22.2522 16.9426 21.3021 16.9426 20.7161 17.5286L20.1791 18.0666L18.8871 16.5236" stroke="black" stroke-width="1.5" stroke-linecap="round" stroke-linejoin="round"/>
</svg>
