<svg width="24" height="24" viewBox="0 0 24 24" fill="none" xmlns="http://www.w3.org/2000/svg">
<path fill-rule="evenodd" clip-rule="evenodd" d="M15.2434 16.1816C16.2685 15.1565 15.4375 12.6634 13.3872 10.6132C11.337 8.56291 8.84391 7.73188 7.81878 8.757C6.79366 9.78213 7.62469 12.2752 9.67494 14.3255C11.7252 16.3757 14.2183 17.2068 15.2434 16.1816Z" stroke="black" stroke-width="1.5" stroke-linecap="round" stroke-linejoin="round"/>
<path d="M7.40053 9.70007L0.888532 21.1211C0.624661 21.6918 0.744778 22.3666 1.1894 22.8112C1.63403 23.2558 2.30878 23.3759 2.87953 23.1121L14.3005 16.6051" stroke="black" stroke-width="1.5" stroke-linecap="round" stroke-linejoin="round"/>
<path d="M15.7735 7.70007C15.8441 7.77043 15.8837 7.86595 15.8837 7.96557C15.8837 8.06519 15.8441 8.16072 15.7735 8.23107" stroke="black" stroke-width="1.5" stroke-linecap="round" stroke-linejoin="round"/>
<path d="M15.2435 7.70006C15.3899 7.55384 15.6271 7.55384 15.7735 7.70006" stroke="black" stroke-width="1.5" stroke-linecap="round" stroke-linejoin="round"/>
<path d="M15.2435 8.22708C15.0977 8.0801 15.0977 7.84305 15.2435 7.69608" stroke="black" stroke-width="1.5" stroke-linecap="round" stroke-linejoin="round"/>
<path d="M15.7735 8.22705C15.6271 8.37328 15.3899 8.37328 15.2435 8.22705" stroke="black" stroke-width="1.5" stroke-linecap="round" stroke-linejoin="round"/>
<path d="M20.0165 3.45407C20.087 3.52425 20.1266 3.61961 20.1266 3.71907C20.1266 3.81853 20.087 3.91389 20.0165 3.98407" stroke="black" stroke-width="1.5" stroke-linecap="round" stroke-linejoin="round"/>
<path d="M19.4865 3.45405C19.5567 3.38358 19.6521 3.34396 19.7515 3.34396C19.851 3.34396 19.9463 3.38358 20.0165 3.45405" stroke="black" stroke-width="1.5" stroke-linecap="round" stroke-linejoin="round"/>
<path d="M19.4865 3.98407C19.4161 3.91389 19.3764 3.81853 19.3764 3.71907C19.3764 3.61961 19.4161 3.52425 19.4865 3.45407" stroke="black" stroke-width="1.5" stroke-linecap="round" stroke-linejoin="round"/>
<path d="M20.0165 3.98407C19.8701 4.1303 19.6329 4.1303 19.4865 3.98407" stroke="black" stroke-width="1.5" stroke-linecap="round" stroke-linejoin="round"/>
<path d="M20.0165 14.0601C20.0871 14.1304 20.1267 14.2259 20.1267 14.3256C20.1267 14.4252 20.0871 14.5207 20.0165 14.5911" stroke="black" stroke-width="1.5" stroke-linecap="round" stroke-linejoin="round"/>
<path d="M19.4865 14.06C19.6329 13.9138 19.8701 13.9138 20.0165 14.06" stroke="black" stroke-width="1.5" stroke-linecap="round" stroke-linejoin="round"/>
<path d="M19.4865 14.5911C19.416 14.5207 19.3764 14.4252 19.3764 14.3256C19.3764 14.2259 19.416 14.1304 19.4865 14.0601" stroke="black" stroke-width="1.5" stroke-linecap="round" stroke-linejoin="round"/>
<path d="M20.0165 14.5911C19.8701 14.7373 19.6329 14.7373 19.4865 14.5911" stroke="black" stroke-width="1.5" stroke-linecap="round" stroke-linejoin="round"/>
<path d="M8.34953 4.51407C8.49533 4.66105 8.49533 4.89809 8.34953 5.04507" stroke="black" stroke-width="1.5" stroke-linecap="round" stroke-linejoin="round"/>
<path d="M7.81953 4.51406C7.96594 4.36783 8.20312 4.36783 8.34953 4.51406" stroke="black" stroke-width="1.5" stroke-linecap="round" stroke-linejoin="round"/>
<path d="M7.81953 5.04507C7.749 4.97472 7.70936 4.87919 7.70936 4.77957C7.70936 4.67995 7.749 4.58442 7.81953 4.51407" stroke="black" stroke-width="1.5" stroke-linecap="round" stroke-linejoin="round"/>
<path d="M8.34953 5.04507C8.20312 5.1913 7.96594 5.1913 7.81953 5.04507" stroke="black" stroke-width="1.5" stroke-linecap="round" stroke-linejoin="round"/>
<path d="M12.8575 0.750061C13.0686 2.63998 12.8879 4.55313 12.3265 6.37006" stroke="black" stroke-width="1.5" stroke-linecap="round" stroke-linejoin="round"/>
<path d="M16.5695 2.12805L16.0395 4.77905" stroke="black" stroke-width="1.5" stroke-linecap="round" stroke-linejoin="round"/>
<path d="M23.2505 11.1431C21.3606 10.932 19.4475 11.1127 17.6305 11.6741" stroke="black" stroke-width="1.5" stroke-linecap="round" stroke-linejoin="round"/>
<path d="M21.8725 7.43106L19.2215 7.96106" stroke="black" stroke-width="1.5" stroke-linecap="round" stroke-linejoin="round"/>
</svg>
