<svg width="24" height="24" viewBox="0 0 24 24" fill="none" xmlns="http://www.w3.org/2000/svg">
<path fill-rule="evenodd" clip-rule="evenodd" d="M18.75 12.0002C20.287 11.5795 21.687 10.7638 22.811 9.63418C23.1899 9.25512 23.3377 8.70272 23.1989 8.18508C23.0601 7.66743 22.6556 7.26317 22.1379 7.12458C21.6202 6.98598 21.0679 7.13412 20.689 7.51318C19.527 8.66841 17.9565 9.3191 16.318 9.32418H15.932C14.2935 9.3191 12.723 8.66841 11.561 7.51318C11.1821 7.13412 10.6298 6.98598 10.1121 7.12458C9.59436 7.26317 9.18991 7.66743 9.05107 8.18508C8.91224 8.70272 9.06011 9.25512 9.43899 9.63418C10.563 10.7638 11.963 11.5795 13.5 12.0002V14.5502L11.007 16.3322C10.2187 16.8949 9.75055 17.8036 9.74999 18.7722V21.7502C9.74999 22.5786 10.4216 23.2502 11.25 23.2502C12.0784 23.2502 12.75 22.5786 12.75 21.7502V18.7722L15.75 16.6292V18.1292C15.7527 18.9243 16.0685 19.6863 16.629 20.2502L19.189 22.8112C19.775 23.3972 20.725 23.3972 21.311 22.8112C21.897 22.2252 21.897 21.2752 21.311 20.6892L18.75 18.1292V12.0002Z" stroke="black" stroke-width="1.5" stroke-linecap="round" stroke-linejoin="round"/>
<path fill-rule="evenodd" clip-rule="evenodd" d="M16.5 6.37518C17.9497 6.37518 19.125 5.19993 19.125 3.75018C19.125 2.30044 17.9497 1.12518 16.5 1.12518C15.0503 1.12518 13.875 2.30044 13.875 3.75018C13.875 5.19993 15.0503 6.37518 16.5 6.37518Z" stroke="black" stroke-width="1.5" stroke-linecap="round" stroke-linejoin="round"/>
<path fill-rule="evenodd" clip-rule="evenodd" d="M2.25 8.25018C3.07843 8.25018 3.75 7.57861 3.75 6.75018C3.75 5.92176 3.07843 5.25018 2.25 5.25018C1.42157 5.25018 0.75 5.92176 0.75 6.75018C0.75 7.57861 1.42157 8.25018 2.25 8.25018Z" stroke="black" stroke-width="1.5" stroke-linecap="round" stroke-linejoin="round"/>
<path d="M4.886 0.750183C4.2184 0.917178 3.75008 1.51702 3.75 2.20518V6.75018" stroke="black" stroke-width="1.5" stroke-linecap="round" stroke-linejoin="round"/>
<path fill-rule="evenodd" clip-rule="evenodd" d="M5.25 17.2502C6.07843 17.2502 6.75 16.5786 6.75 15.7502C6.75 14.9218 6.07843 14.2502 5.25 14.2502C4.42157 14.2502 3.75 14.9218 3.75 15.7502C3.75 16.5786 4.42157 17.2502 5.25 17.2502Z" stroke="black" stroke-width="1.5" stroke-linecap="round" stroke-linejoin="round"/>
<path d="M6.75 12.0002V15.7502" stroke="black" stroke-width="1.5" stroke-linecap="round" stroke-linejoin="round"/>
</svg>
