<svg width="24" height="24" viewBox="0 0 24 24" fill="none" xmlns="http://www.w3.org/2000/svg">
<path d="M5.55227 15.408C6.289 16.5017 6.09992 17.9723 5.11047 18.8441C4.12102 19.7159 2.63836 19.7182 1.64611 18.8496C0.653864 17.981 0.460061 16.5111 1.19327 15.415" stroke="black" stroke-width="1.5" stroke-linecap="round" stroke-linejoin="round"/>
<path d="M7.51427 22.984C6.97732 21.7288 5.89955 20.7852 4.58437 20.4189C3.26919 20.0525 1.85881 20.3031 0.750275 21.1" stroke="black" stroke-width="1.5" stroke-linecap="round" stroke-linejoin="round"/>
<path d="M16.7153 23.25C15.5635 21.8275 13.8311 21.001 12.0008 21.001C10.1705 21.001 8.438 21.8275 7.28627 23.25" stroke="black" stroke-width="1.5" stroke-linecap="round" stroke-linejoin="round"/>
<path d="M16.5003 4.5H19.5003" stroke="black" stroke-width="1.5" stroke-linecap="round" stroke-linejoin="round"/>
<path d="M18.0003 3V6" stroke="black" stroke-width="1.5" stroke-linecap="round" stroke-linejoin="round"/>
<path d="M4.50027 2.25H7.50027" stroke="black" stroke-width="1.5" stroke-linecap="round" stroke-linejoin="round"/>
<path d="M6.00027 0.75V3.75" stroke="black" stroke-width="1.5" stroke-linecap="round" stroke-linejoin="round"/>
<path fill-rule="evenodd" clip-rule="evenodd" d="M1.19427 15.416L3.37527 9L5.55627 15.415L1.19427 15.416V15.416Z" stroke="black" stroke-width="1.5" stroke-linecap="round" stroke-linejoin="round"/>
<path d="M18.4483 15.408C17.7115 16.5017 17.9006 17.9723 18.8901 18.8441C19.8795 19.7159 21.3622 19.7182 22.3544 18.8496C23.3467 17.981 23.5405 16.5111 22.8073 15.415" stroke="black" stroke-width="1.5" stroke-linecap="round" stroke-linejoin="round"/>
<path d="M16.4863 22.984C17.0232 21.7288 18.101 20.7852 19.4162 20.4189C20.7314 20.0525 22.1417 20.3031 23.2503 21.1" stroke="black" stroke-width="1.5" stroke-linecap="round" stroke-linejoin="round"/>
<path fill-rule="evenodd" clip-rule="evenodd" d="M22.8063 15.416L20.6253 9L18.4443 15.415L22.8063 15.416V15.416Z" stroke="black" stroke-width="1.5" stroke-linecap="round" stroke-linejoin="round"/>
<path fill-rule="evenodd" clip-rule="evenodd" d="M9.19427 14.25L12.0003 6L14.8063 14.25H9.19427V14.25Z" stroke="black" stroke-width="1.5" stroke-linecap="round" stroke-linejoin="round"/>
<path d="M14.8063 14.25C15.7474 15.6582 15.4991 17.5459 14.2257 18.6627C12.9523 19.7796 11.0483 19.7796 9.77488 18.6627C8.50148 17.5459 8.2531 15.6582 9.19427 14.25" stroke="black" stroke-width="1.5" stroke-linecap="round" stroke-linejoin="round"/>
</svg>
